<?xml version="1.0" encoding="utf-8"?>
<!-- Generator: Adobe Illustrator 19.1.0, SVG Export Plug-In . SVG Version: 6.00 Build 0)  -->
<svg version="1.0" id="レイヤー_1" xmlns="http://www.w3.org/2000/svg" xmlns:xlink="http://www.w3.org/1999/xlink" x="0px"
	 y="0px" viewBox="0 0 16 123" enable-background="new 0 0 16 123" xml:space="preserve">
<g>
	<g>
		<path fill="#1B2B79" d="M10.1,7.7C8.3,7.1,4.3,5.6,1.8,4.2c0.2,2.8,0.5,5.7,1,8.3c1-0.7,1.9-1.3,3.9-3l0.6,0.8
			c-1.7,1.7-4.8,3.8-6.7,4.8L0,14.1c0.5-0.2,0.9-0.5,2-1.1C1.2,9.3,0.8,3.1,0.6,0.8l0.9-0.2c0,0.5,0.1,1.1,0.1,2.5
			c2.1,1.1,6,2.7,8.8,3.6L10.1,7.7z M15.6,10.7C11.2,13,9.8,15,9.1,16l-0.8-0.7c2-2.6,4.3-4.1,7-5.4L15.6,10.7z M9.1,0
			c0.7,1.1,2.3,3.3,6.5,5.3l-0.4,0.8c-2.4-0.9-5.2-2.9-6.9-5.4L9.1,0z"/>
		<path fill="#1B2B79" d="M14.8,22.2H9.7v-5.3H0.1v-0.9h14.8V22.2z M14.8,30.4H1.5c-0.8,0-1.4-0.3-1.4-1.3v-2.2l1-0.3l-0.1,2.2
			c0,0.3,0,0.7,0.5,0.7h8.1v-5.4h5.2V30.4z M5.3,28.4H4.5v-2.8H0.3v-0.9h4.2v-3c-1.6-0.2-3.2-0.8-4.2-2.7l0.7-0.6
			c0.9,1.9,2.3,2.2,3.4,2.4v-2.9h0.8v3c0.3,0,0.4,0,0.6,0h1.6v-2.4h0.8v9.5H7.5v-2.3H5.3V28.4z M5.3,24.7h2.2v-2.9H5.8
			c-0.2,0-0.3,0-0.5,0V24.7z M11.9,21.2v-4.4h-1.5v4.4H11.9z M11.9,29.4V25h-1.5v4.5H11.9z M14,21.2v-4.4h-1.4v4.4H14z M14,29.4V25
			h-1.4v4.5H14z"/>
		<path fill="#1B2B79" d="M13.4,46v-7.2h-1.1v5.7H9v-5.7H8v6.1H5.9v1.2H5v-1.2H2V44h0.8v-5.2H1.3c-0.5,0-1.2,0-1.2-1.5V35l1-0.1
			L1,37.3c0,0.4,0.2,0.6,0.5,0.6h1.3l0-6.2h0.8l0,6.2H5l0-7.3h0.8l0,7.3h1.4l0-6.2H8l0,6.2h1l0-5.8h3.2l0,5.8h1.1l0-7.1h0.8l0,7.1
			h1.4v0.9h-1.4V46H13.4z M5,44v-5.2H3.6V44H5z M7.3,44v-5.2H5.9V44H7.3z M11.5,37.9v-4.8H9.8v4.8H11.5z M11.5,43.5v-4.7H9.8v4.7
			H11.5z"/>
		<path fill="#1B2B79" d="M0.1,48.6v-0.9h9.4c-1.1-0.6-1.5-0.9-2-1.3l0.9-0.6c1.6,1.3,4.3,2.5,7.2,3l-0.2,0.9
			c-0.7-0.2-2-0.4-3.9-1.1H0.1z M15.6,60.9H1.3c-0.5,0-1.2-0.1-1.2-1.1v-2.1L1,57.5l0,2c0,0.4,0.1,0.4,0.5,0.4h14.1V60.9z M6.6,49.1
			c2,1.8,4.6,2.8,7.3,2.8V50h0.8v6.1h-0.8v-3.3c-1.3,0-2.2-0.2-2.8-0.3v3.2c-6.9-0.2-9.9-3.7-11-5.2l0.7-0.6
			c0.5,0.7,1.9,2.5,4.7,3.8C6.2,53,7,52,7.6,51.1c-0.8-0.5-1.4-1-1.8-1.4L6.6,49.1z M3.8,57.7v-0.9h10.6v0.9H3.8z M10.3,52.3
			c-0.5-0.1-1.1-0.4-2-0.8c-0.7,1-1.3,1.7-1.9,2.5c1.3,0.5,2.6,0.7,3.9,0.7V52.3z"/>
		<path fill="#1B2B79" d="M1.7,68.5c0.2,2,0.6,6.8,6.1,6.8c1.4,0,5.8-0.5,5.9-6C10,69,6.7,68.6,4.1,67c-1.7-1-2-2.1-2-2.7
			c0-1.6,2-3,4.8-3c4.3,0,7.7,3,7.7,8c0,5.2-3.6,7-6.7,7c-6.3,0-7-5.5-7.2-7.5L1.7,68.5z M6.8,62.3c-1.4,0-3.7,0.5-3.7,2
			c0,0.6,0.5,1.3,1.5,1.9c2.5,1.6,6.3,2,8.9,2.1C13.1,63.9,9.8,62.3,6.8,62.3z"/>
		<path fill="#1B2B79" d="M8.4,80.4c-0.9-1-2.1-1.7-3.4-1.7c-2.8,0-2.9,3.7-2.9,5.9c0,2.6,0.3,4.8,0.4,6l-1.1,0.1
			c-0.1-1.6-0.3-4-0.3-5.8c0-1.9,0.2-3.8,0.7-5.1c0.6-1.4,2-2,3.2-2c1.7,0,3.1,1,4,1.8L8.4,80.4z M8.6,89c0.9-0.4,1.5-0.7,2.5-1.3
			l0.4,0.8c-0.5,0.4-1.3,0.9-2.5,1.3L8.6,89z M9.5,90.8c1.1-0.4,1.6-0.7,2.4-1.3l0.4,0.8c-0.7,0.5-1.5,0.9-2.4,1.3L9.5,90.8z
			 M13.3,89.3c-0.3-2-1.5-4.6-2.2-5.7l0.7-0.6c0.8,1.4,1,2.1,1.4,3.4c-0.1-5-0.1-5.3-0.1-7.8h1.1c0,1.4,0,9.2,0,10.8H13.3z"/>
		<path fill="#1B2B79" d="M13.6,97.4C12,96.5,9.9,95.2,8.4,94c0.1,0.8,0.1,1.3,0.2,2.7c0.6-0.2,0.9-0.4,1.2-0.6l0.4,0.7
			c-1,0.6-2.6,1.2-3.1,1.4l-0.3-0.9c0.4-0.1,0.6-0.2,1.1-0.4c0-0.3-0.1-0.8-0.2-1.8H0.1v-0.9h7.6c0-0.4-0.1-2.3-0.1-2.7l0.8-0.2
			c0,0.5,0,0.9,0,1.6c0.3,0.3,0.8,0.6,1.3,0.9c0.4-0.4,1.7-1.7,2.4-2.6l0.7,0.5c-0.3,0.3-0.4,0.5-0.5,0.6c1,0.6,2.4,1.5,3.4,1.8
			l-0.3,0.9c-1.4-0.7-2.8-1.5-3.6-2.1c-0.3,0.4-1.1,1.1-1.3,1.3c1.2,0.8,2.4,1.6,3.7,2.2L13.6,97.4z M0.1,106.4v-0.9H1v-5.7H0.1
			v-0.9h7.3v7.5H0.1z M1.7,91.4c1.3,0.6,3.5,0.9,4.4,1l-0.1,0.8c-0.7-0.1-2.8-0.3-4.6-1L1.7,91.4z M6.6,105.5v-5.7H1.8v5.7H6.6z
			 M2.2,97.2c1.7-0.2,3.6-0.9,3.8-1L6.3,97c-0.7,0.3-2.6,0.9-3.9,1.1L2.2,97.2z M8.3,102.9l1-0.2l0,1.9c0,0.7,0,1.3,4.8,1.4v-3.5
			c-3-0.4-4.7-1.5-6.2-3.9l0.7-0.6c0.6,1,1.9,3.1,5.4,3.6v-3h0.8v8.3c-1.4,0-4.4-0.1-5.3-0.4c-1.1-0.4-1.2-1-1.2-1.8V102.9z"/>
		<path fill="#1B2B79" d="M7.2,111.8c-3.4,0-5.7-0.9-7.1-4.2l0.9-0.5c0.7,2,2,3.8,6.3,3.8h2.6v0.9H7.2z M0.1,118.1v-1h9.8v1H0.1z
			 M9.9,106.5c1,2.9,3.5,6,5.7,7.4v1c-2.3,1.7-4.5,4.4-5.6,7.5l-1-0.5c1.2-3,3.4-5.7,5.7-7.4c-2-1.4-4.6-4.5-5.7-7.4L9.9,106.5z"/>
	</g>
</g>
</svg>
