<?xml version="1.0" encoding="utf-8"?>
<!-- Generator: Adobe Illustrator 19.2.1, SVG Export Plug-In . SVG Version: 6.00 Build 0)  -->
<svg version="1.1" id="レイヤー_1" xmlns="http://www.w3.org/2000/svg" xmlns:xlink="http://www.w3.org/1999/xlink" x="0px"
	 y="0px" viewBox="0 0 166 125" style="enable-background:new 0 0 166 125;" xml:space="preserve">
<style type="text/css">
	.st0{fill:#FFFFFF;}
	.st1{fill:#35C8EF;}
	.st2{fill:none;stroke:#FFFFFF;stroke-width:2;stroke-miterlimit:10;}
	.st3{fill:#35C8EF;stroke:#FFFFFF;stroke-miterlimit:10;}
</style>
<g>
	<g>
		<g>
			<g>
				<path class="st0" d="M15.3,63.5c0,0-8.3,2.3-9.8,9.3C4,79.9,7.9,84.1,7.9,84.1s-7.7,5.7-4.7,11S26,90.8,26.3,82.9
					c0.3-5.5-5.3-8.2-5.3-8.2s1.7-1.4,2.2-5.3C24.2,62.4,18.8,61.2,15.3,63.5z"/>
				<path class="st1" d="M6.8,99.1L6.8,99.1c-3.4,0-5-1.5-5.7-2.8c-2.7-4.8,0.4-9.7,3.5-12.7C3.3,81.4,1.9,77.5,3,72.3
					c1.6-7.6,9.4-10.5,11.2-11.1c1.4-0.8,3-1.3,4.5-1.3c2.1,0,4,0.8,5.3,2.3c1.1,1.2,2.3,3.5,1.8,7.5c-0.2,1.9-0.7,3.3-1.2,4.3
					c2,1.6,4.5,4.6,4.3,9C28.5,91,14.4,99.1,6.8,99.1z M5.4,93.8c0,0,0.3,0.2,1.3,0.2l0,0c2.7,0,7.1-1.6,10.8-4.1
					c3.7-2.4,6.2-5.3,6.3-7.2C24,78.9,20.1,77,20,77l-4-2l3.5-2.3c0.2-0.2,1-1.2,1.3-3.7c0.2-1.6,0-2.9-0.6-3.5
					c-0.4-0.5-1.1-0.6-1.5-0.6c-0.7,0-1.4,0.2-2.1,0.6l-0.3,0.2L16,65.9c-0.1,0-6.9,2-8,7.4c-1.2,5.6,1.8,9,1.8,9l1.9,2.1l-2.3,1.7
					C9.4,86.2,3.6,90.7,5.4,93.8L5.4,93.8z"/>
			</g>
			<g>
				<path class="st0" d="M98.4,93.3c4-3.2,6.3-8.2,5.5-13.4c-1-6.1-5.9-10.6-12-11.8c0.5-1.9,0.6-4,0.3-6.1
					c-1.4-8.8-10.3-14.8-19.9-13.3c-4.6,0.7-8.5,3-11.2,6.2c-3.7-2.3-8.8-3.3-14.2-2.4c-8.4,1.3-14.8,6.6-15.8,12.6
					c-0.8,0-1.7,0.1-2.5,0.2c-8.1,1.3-13.7,8.3-12.5,15.7c0.4,2.7,1.7,5.1,3.5,7c-1.5,2.5-2.2,5.4-1.7,8.4
					c0.9,5.9,6.1,10.3,12.2,10.9c0,0.5,0.1,0.9,0.1,1.4c1.1,7,8.2,11.7,15.8,10.5c3.6-0.6,6.7-2.4,8.9-4.9c2.8,5.1,9,8.2,15.6,7.1
					c6-0.9,10.7-5.1,12.3-10.2c2.2,0.9,4.8,1.3,7.4,0.9c7-1.1,11.8-7.2,10.8-13.6C100.5,96.6,99.7,94.8,98.4,93.3z M45.3,78.9
					L45.3,78.9c0.1-0.1,0.1-0.1,0.2-0.1C45.4,78.8,45.3,78.8,45.3,78.9z"/>
				<path class="st1" d="M67.8,124.3c-5.3,0-10.2-2.2-13.4-6c-2.3,1.8-5.1,3-8.1,3.5c-0.9,0.1-1.8,0.2-2.8,0.2
					c-7.9,0-14.5-5.2-15.9-12.4c-6.5-1.4-11.5-6.4-12.4-12.7c-0.5-2.9,0-5.8,1.2-8.5c-1.6-2-2.6-4.4-3-6.9
					C12,72.7,18.5,64.3,28,62.8c0.3,0,0.6-0.1,1-0.1c2.1-6.3,8.9-11.3,17.4-12.7c1.4-0.2,2.8-0.3,4.2-0.3c3.6,0,7,0.7,9.9,2.1
					c3.1-2.9,7-4.9,11.4-5.6c1.1-0.2,2.3-0.3,3.4-0.3c9.8,0,18,6.6,19.4,15.6c0.2,1.5,0.3,3.1,0.1,4.6c6.2,2,10.6,7.1,11.6,13.3
					c0.8,5.1-0.9,10.3-4.6,14.1c0.8,1.4,1.4,3,1.7,4.7c0.6,3.8-0.4,7.6-2.9,10.7c-2.4,3.1-6,5.1-10,5.7c-2.1,0.3-4.3,0.2-6.3-0.3
					c-2.5,5-7.5,8.6-13.4,9.5C69.7,124.2,68.7,124.3,67.8,124.3z M55.1,110l1.8,3.2c2.1,3.7,6.2,6,10.9,6c0.7,0,1.4-0.1,2.2-0.2
					c4.9-0.8,9-4.1,10.3-8.4l0.8-2.7l2.6,1.1c1.9,0.8,3.9,1,6,0.7c2.7-0.4,5.2-1.8,6.8-3.9c1.6-2,2.3-4.4,1.9-6.8
					c-0.2-1.5-0.9-3-1.9-4.2l-1.7-2l2-1.6c3.5-2.8,5.2-6.9,4.5-11c-0.8-4.9-4.7-8.7-10-9.7L88.7,70l0.7-2.6c0.4-1.7,0.5-3.4,0.2-5
					c-1-6.6-7.1-11.4-14.4-11.4c-0.9,0-1.7,0.1-2.6,0.2c-3.8,0.6-7.3,2.5-9.7,5.3l-1.4,1.6L59.7,57c-3.3-2-8-2.8-12.5-2.1
					c-7.1,1.1-12.8,5.5-13.7,10.5L33,67.7h-2.1l0,0c-0.7,0-1.5,0.1-2.1,0.2c-6.7,1.1-11.4,6.8-10.4,12.9c0.3,2.1,1.3,4,2.8,5.6
					l1.4,1.4l-1,1.7c-1.3,2.1-1.7,4.4-1.4,6.7c0.7,4.7,4.8,8.3,10,8.8l2.2,0.2l0.1,2.2c0,0.4,0.1,0.7,0.1,1.1c0.8,5,5.4,8.6,11,8.6
					c0.7,0,1.3-0.1,2-0.2c2.9-0.5,5.5-1.9,7.4-4L55.1,110z M42.6,83.8l0.2-5.1l0.1-2.6l2.8,0.2l7.4,0.5L46.7,81L42.6,83.8z"/>
			</g>
			<path class="st1" d="M32.4,107.7c0,0-0.8-4.2,2.1-10.3c0,0-6.3,0.7-6.5,8.3"/>
			<path class="st1" d="M80.2,110.8c0,0,2.4-6-0.2-11.7c0,0,7,3.3,4.7,11.5"/>
			<g>
				<path class="st0" d="M95.7,40.7c1-2.3,1.6-4.8,1.6-7.5c0-10.4-8.5-18.9-18.9-18.9c-1.2,0-2.5,0.1-3.6,0.4
					C72.5,7.5,63.9,2.3,53.7,2.5C42.2,2.7,32.9,9.7,32.6,18.1c-0.3,0-0.6,0-0.9,0c-7.7,0-14,6.3-14,14c0,2.8,0.8,5.4,2.2,7.6
					c-5.4,2.9-9.1,8.7-9.1,15.2c0,8.5,6.1,15.5,14.1,17C27.8,79,34.8,84,42.9,84c4.7,0,9-1.7,12.3-4.5c3.6,3.1,8.8,5,14.5,5
					c8.2,0,15.2-3.9,18.2-9.5c8.2,1.1,16.2-4.7,18.4-13.6C108.6,52.3,103.9,43.2,95.7,40.7z"/>
				<path class="st1" d="M69.7,87.1c-5.4,0-10.5-1.5-14.5-4.4c-3.6,2.5-7.9,3.8-12.3,3.8c-8.5,0-16.1-4.8-19.7-12.5
					C14.5,71.8,8.3,64,8.3,54.9c0-6.4,3.1-12.4,8.3-16.1c-0.9-2.1-1.4-4.4-1.4-6.7c0-8.7,6.7-15.8,15.2-16.4
					C32.2,6.9,41.9,0.2,53.6,0c10.3-0.2,19.3,4.6,22.8,11.8c0.7-0.1,1.4-0.1,2-0.1c11.8,0,21.4,9.6,21.4,21.4c0,2.1-0.3,4.1-0.9,6.1
					c7.9,3.9,12.2,13.4,9.9,22.9c-2.3,9.2-10,15.7-18.8,15.7l0,0c-0.2,0-0.4,0-0.7,0C85.4,83.5,77.9,87.1,69.7,87.1z M55.2,76.2
					l1.6,1.4c3.3,2.8,8,4.4,12.9,4.4c7,0,13.3-3.2,16-8.2l0.8-1.5l1.7,0.2c0.5,0.1,1.1,0.1,1.7,0.1c6.4,0,12.3-5,13.9-11.8
					c1.9-7.8-2-15.6-8.9-17.8l-2.7-0.8l1.1-2.6c0.9-2.1,1.3-4.3,1.3-6.5c0-9-7.3-16.4-16.4-16.4c-1,0-2.1,0.1-3.1,0.3L73,17.5
					l-0.7-2.1C70.4,9.3,62.5,4.9,53.7,5c-10,0.2-18.3,6.1-18.6,13.2L35,20.8l-2.6-0.2c-0.3,0-0.5,0-0.8,0c-6.3,0-11.5,5.1-11.5,11.5
					c0,2.2,0.6,4.3,1.8,6.2l1.5,2.3L21,41.9c-4.8,2.6-7.8,7.6-7.8,13c0,7.1,5.1,13.3,12.1,14.6l1.4,0.3l0.5,1.3
					c2.6,6.4,8.7,10.5,15.6,10.5c3.9,0,7.7-1.4,10.7-3.9L55.2,76.2z"/>
			</g>
			<path class="st1" d="M81,16.8c0,0-12.6-0.7-21.9,17c0,0-0.7-11.6,13-21"/>
			<path class="st1" d="M23.8,22.2c7-2.7,18.8,1.7,22.5,12.6c0,0-0.6-9.6-11.2-16.2"/>
			<path class="st1" d="M86.2,73.3c0,0,2.9-7.4,1.9-11.8c0,0,5.4,9.3,2.9,13.1"/>
			<path class="st1" d="M27.3,70.8c0,0-1.8-3.5-0.6-7.2c0,0-4.3,3-3,7"/>
			<path class="st1" d="M95,43.1c0,0-5.9-2.4-9.6-0.7c0,0,5.4-5.7,11.3-4.1"/>
			<path class="st1" d="M21.2,41.9c0,0,3.5-2.8,8.9-2.1c0,0-4.8-4.1-10-1.1"/>
			<g>
				<path class="st0" d="M109.9,61.4c0,0,1.5-6.2,9-10.7c9.3-5.6,4.4,6.4,3.7,7.6c0,0,9.3-7.8,17.1,0c6.2,6.2,0.7,13-9.6,13.2
					s-12.7-1.3-12.7-1.3s-1.2,14.5-8.3,17.6C102,91,93.4,80.3,93.7,72.9c0.3-6.2,5.7-6.8,9.7-3.3c1.6,1.4,3,4.1,3,4.1
					S106.2,68.2,109.9,61.4z"/>
				<path class="st1" d="M106.5,90.7c-3.2,0-6.5-1.7-9.4-4.7c-3.6-3.8-5.9-9-5.7-13.3c0.3-5.7,4-7.7,7-7.7c2.2,0,4.5,0.9,6.5,2.6
					c0.5-2.1,1.4-4.5,2.8-7.2c0.5-1.5,2.7-7.4,10-11.9c2.1-1.3,3.7-1.8,5.1-1.8c1.5,0,2.8,0.7,3.5,2c0.7,1.2,0.7,2.9,0.5,4.5
					c1.5-0.5,3.2-0.9,5.1-0.9c3.6,0,6.8,1.4,9.6,4.2c3,3,4,6.7,2.7,9.9c-1.7,4.4-7.1,7.2-13.9,7.3c-0.8,0-1.5,0-2.2,0
					c-4,0-6.7-0.3-8.6-0.6c-0.8,4.8-3.1,13.9-9.3,16.7C109,90.5,107.7,90.7,106.5,90.7z M98.4,69.8c-1.5,0-2.2,1.1-2.3,3.2
					c-0.1,2.9,1.7,6.9,4.4,9.8c2,2.1,4.1,3.2,6,3.2c0.6,0,1.2-0.1,1.7-0.4c4.8-2.1,6.6-12.3,6.9-15.7l0.4-4.4l3.2,2.6
					c0.4,0.2,2.8,1,9.3,1c0.7,0,1.4,0,2.1,0c5.5-0.1,8.8-2.3,9.6-4.4c0.8-1.9-0.5-3.7-1.7-4.9c-1.9-1.9-3.9-2.8-6.2-2.8
					c-4.1,0-7.6,2.9-7.7,2.9l-3.5-3c0.6-1,1.5-3.9,1.6-5.3c-0.4,0.1-1.1,0.4-2.1,1c-6.5,3.9-7.9,9.1-7.9,9.3l-0.1,0.3l-0.1,0.3
					c-3.3,6.1-3.1,11-3.1,11.1l-4.4,1.2c-0.3-0.6-1.4-2.5-2.5-3.4C100.8,70.4,99.5,69.8,98.4,69.8z"/>
			</g>
			<polygon class="st1" points="104.3,74.6 108,80.5 108.8,73.5 			"/>
			<g>
				<path class="st1" d="M36.9,53.1c0.7,0.6,1.5,1.1,2.3,1.6s1.6,0.9,2.5,1.3c1.7,0.7,3.5,1.3,5.2,1.6c1.8,0.3,3.6,0.4,5.4,0.4
					c0.9,0,1.8-0.1,2.7-0.2l0.7-0.1h0.4h0.3c0.4-0.1,0.9-0.2,1.3-0.2c1.7-0.4,3.3-1,4.9-1.8c0.8-0.4,1.5-0.9,2.2-1.4s1.3-1.1,2-1.7
					c0.6-0.6,1.2-1.3,1.7-1.9c0.5-0.7,1-1.4,1.5-2.1c0.9-1.5,1.7-3.1,2.3-4.7l0,0c0.4-1,1.4-1.5,2.4-1.1c0.9,0.3,1.4,1.3,1.2,2.3
					c-0.6,2-1.4,3.9-2.5,5.7s-2.4,3.4-3.9,4.9c-3,2.9-7,4.9-11.1,5.5c-2.1,0.4-4.1,0.4-6.1,0.2c-2-0.1-4-0.5-5.9-1.1
					s-3.8-1.5-5.4-2.6c-1.7-1.1-3.2-2.4-4.3-4c-0.1-0.1-0.1-0.2,0-0.3C36.7,53,36.8,53.1,36.9,53.1L36.9,53.1z"/>
				<path class="st1" d="M69,42.3c0.5-1.3,1.3-2.4,2.5-3.3c0.6-0.4,1.3-0.8,2.1-0.9c0.8-0.2,1.7-0.1,2.5,0.2h0.1h0.1l0.1,0.1
					c0.1,0,0.2,0.1,0.3,0.1c0.2,0.1,0.4,0.2,0.5,0.3c0.3,0.3,0.7,0.5,0.9,0.9c0.5,0.7,0.8,1.4,1,2.1c0.2,0.7,0.2,1.4,0.1,2.1
					c-0.1,0.7-0.2,1.3-0.5,2c-0.1,0.2-0.3,0.3-0.5,0.2c-0.1,0-0.2-0.1-0.2-0.2l0,0c-0.3-1.2-0.6-2.4-1.1-3.3
					c-0.2-0.5-0.5-0.9-0.8-1.1c-0.3-0.3-0.6-0.5-1-0.6s-0.8-0.2-1.2-0.2c-0.4,0-0.9,0.1-1.4,0.3c-1,0.4-2,1-3,1.7l0,0
					c-0.2,0.1-0.4,0.1-0.5-0.1C69,42.6,69,42.4,69,42.3z"/>
			</g>
			<path class="st1" d="M155.5,30.9c-3.5,18.2-5.7,26.2-23.7,29.3c-16.2,2.8-21.6-3.4-21.6-17.4c0,0-1.4-5.6,26.5-11.9
				C139.5,30.2,155.5,30.9,155.5,30.9z"/>
			<path class="st2" d="M127.6,49c0.2,0.9-0.4,2.3-1.9,2.6c-1,0.2-2.1-0.4-2.3-1.6c-0.2-1.1,0.7-2.5,1.9-2.6
				C126.3,47.3,127.3,47.9,127.6,49z"/>
			<polygon class="st1" points="158.3,32.8 152.7,37.7 151.3,31.4 			"/>
			<g>
				<polygon class="st3" points="129.5,30.6 137.5,34.3 137.5,25.1 129.5,21.4 				"/>
				<polygon class="st3" points="137.4,34.1 145.4,30.4 145.4,21.3 137.4,24.9 				"/>
			</g>
			<g>
				<polygon class="st0" points="137.2,35.5 132.2,33.1 132.6,32.2 137.2,34.4 147,29.7 147.4,30.7 				"/>
			</g>
			<g>
				<polygon class="st3" points="119,26.7 126.3,29.9 132.5,26.7 126.2,23.4 				"/>
			</g>
			<g>
				<polygon class="st3" points="128.7,22.1 137.4,25.9 146,22.1 137.3,18.2 				"/>
				<polygon class="st3" points="125.3,30.2 133.3,26.5 133.3,17.4 125.3,21 				"/>
				<polygon class="st3" points="125.3,39.3 133.3,35.6 133.3,26.5 125.3,30.1 				"/>
			</g>
		</g>
	</g>
	<polygon class="st3" points="117,35.4 125,39 125,29.9 117,26.2 	"/>
	<polygon class="st3" points="117,26.6 125,30.2 125,21.1 117,17.4 	"/>
	<g>
		<polygon class="st0" points="125.3,40.8 116,36.5 116.4,35.1 125.3,39.3 133.8,35.1 133.8,36.9 		"/>
	</g>
	<polygon class="st3" points="116.5,17.4 125.2,21.2 133.8,17.4 125.1,13.6 	"/>
</g>
<polygon class="st0" points="134.2,36.8 132.9,37.3 132.8,17.2 134.2,17.2 "/>
<path class="st1" d="M146.9,32.9h-2.1v-3.1c0,0,4.3,0.2,7.7,1.3C153.9,31.5,146.9,32.9,146.9,32.9z"/>
<path class="st1" d="M152.2,29c0,0-0.5-3.7,0.7-7c1.7-4.5,2.3-2.3,4.2,1.4c0.9,1.7,0,4.9,0,4.9s0.6-2.1,3.5-2.8
	c3.1-0.8,5.5,0.3,5.5,0.3s-0.8,3.9-6.2,6.7c-3.2,1.7-7,0.7-7,0.7L152.2,29z"/>
</svg>
