<?xml version="1.0" encoding="utf-8"?>
<!-- Generator: Adobe Illustrator 19.1.0, SVG Export Plug-In . SVG Version: 6.00 Build 0)  -->
<svg version="1.0" id="レイヤー_1" xmlns="http://www.w3.org/2000/svg" xmlns:xlink="http://www.w3.org/1999/xlink" x="0px"
	 y="0px" viewBox="0 0 96 28" enable-background="new 0 0 96 28" xml:space="preserve">
<g>
	<g>
		<path fill="#1B2B79" d="M4,0l1,0l0.1,2.4l4.5-0.1l0,0.9L5.2,3.4l0.1,2.7C5.8,6,6.7,5.8,8.1,5.7c0.9,0,2.8,0,4.2,0.9
			c1.4,0.9,1.8,2.3,1.9,3.4c0.1,2.1-1.3,3.1-2,3.5c-1.1,0.6-2.3,0.8-4.9,0.9l-0.2-1c2.6-0.1,3.6-0.2,4.6-0.8
			c0.7-0.4,1.5-1.3,1.4-2.6c0-1-0.6-2.3-1.9-3c-0.7-0.3-1.8-0.5-2.9-0.5C6.6,6.7,5.8,6.9,5.3,7l0.2,5.8c0,0.8,0,1.4-1.5,1.5
			c-2.1,0.1-3.8-1.1-3.8-3.2C0,8.7,1.9,7.3,4.2,6.4l-0.1-3L0,3.6l0-0.9l4.1-0.1L4,0z M4.2,7.3C2.3,8.1,1,9.4,1,11
			c0,1.2,0.9,2.4,2.8,2.3c0.5,0,0.6-0.1,0.6-0.5L4.2,7.3z M11,0c1.1,0.8,2.6,2.5,3.7,4.5l-0.9,0.7c-1.1-2.2-2.1-3.4-3.6-4.7L11,0z"
			/>
		<path fill="#1B2B79" d="M22.8,0.3L22.6,6l-5.1-0.2l-0.4,9.2l-0.9,0l0.6-14.8L22.8,0.3z M21.7,3.5l-4.2-0.2L17.5,5l4.2,0.2
			L21.7,3.5z M21.8,1.1l-4.2-0.2l-0.1,1.7l4.2,0.2L21.8,1.1z M26.8,13l-7.3-0.3l0.2-5.2l7.3,0.3L26.8,13z M26.1,8.5l-5.5-0.2
			l-0.2,3.7l5.5,0.2L26.1,8.5z M30.1,14.3c0,0.6,0,1.2-1.1,1.2l-2.6-0.1l-0.1-0.9l2.3,0.1c0.6,0,0.6-0.1,0.6-0.6l0.3-7.7L24.4,6
			l0.2-5.6l6,0.2L30.1,14.3z M29.6,3.8l-4.1-0.2l-0.1,1.7l4.1,0.2L29.6,3.8z M29.7,1.4l-4.1-0.2l-0.1,1.7L29.6,3L29.7,1.4z"/>
		<path fill="#1B2B79" d="M34.7,1.5c-0.2,0.7-0.6,2.3-0.8,4.7c-0.4,3.2-0.6,7.5,1.7,7.7c0.7,0.1,1.2-0.3,1.7-0.8
			c0.4-0.4,1.2-1.4,2.1-3l0.8,0.5c-1.2,2.4-2.4,3.5-2.9,3.8c-0.3,0.2-1,0.7-2,0.6c-2.8-0.3-3.1-4.1-2.5-9c0.2-1.9,0.6-3.7,0.8-4.7
			L34.7,1.5z M45.2,14.4c0.1-0.5,0.2-1.1,0.3-1.9c0.6-5.6-1.2-7.7-2.3-8.9L44,3c2.1,2,3.2,4.8,2.6,10c-0.1,0.6-0.1,1-0.2,1.5
			L45.2,14.4z"/>
		<path fill="#1B2B79" d="M48.2,7.6c3.9-0.6,6.8-2.5,8.3-4.2l1,0.2c1.8,3.7,4.3,5.7,6.3,6.9l-0.6,0.8c-2.1-1.3-4.8-4-6.3-7.1
			c-2.2,2-5,3.5-8.4,4.3L48.2,7.6z M61.3,12.6l-1.4,7.2l-0.9-0.2l0.2-0.9L49.8,17l-0.2,0.9l-0.9-0.2l1.4-7.2L61.3,12.6z M60.2,13.2
			l-9.3-1.8l-0.9,4.7l9.3,1.8L60.2,13.2z M60,10.2l-8-1.5l0.2-0.8l8,1.5L60,10.2z"/>
		<path fill="#1B2B79" d="M69.3,19.9c1.7,0.5,6.7,2,8.1-3c0.3-1.3,0.6-4.2-2.8-5.1c-0.8-0.2-2.6-0.6-6.1,1.4l-2.1,7.6l-0.9-0.2
			l1.8-6.4c-1.5,1.7-2.6,2.4-3.4,2.9l-0.3-1.1c2.7-1.5,4.1-3.5,4.3-3.8l0.5-1.9l-2.7-0.7l0.3-0.9l2.7,0.7l0.7-2.7l0.9,0.3l-0.7,2.7
			l0.6,0.2L70,10.2c-0.3,0.4-1.1,1.5-1.2,1.9c1.6-0.8,3.6-1.8,6.4-1.1c3.2,0.8,3.9,3.8,3.3,6.2c-1.1,4.2-4.8,5.1-9.3,3.7L69.3,19.9z
			"/>
		<path fill="#1B2B79" d="M93.7,13.8c-0.2,0.5-0.3,0.8-1.2,3.6l3.1,1l-0.3,0.9l-3.1-1c-0.2,0.5-0.9,2.7-1,3.1c-0.5,1.4-1,2.3-3,1.6
			c-1-0.4-1.6-0.7-2-1l0.4-0.9c0.9,0.5,1.1,0.6,1.9,0.9c1,0.3,1.3,0.4,1.9-1.2c0.3-0.9,0.7-2,1-2.9l-6.6-2.2L82.8,21
			c-1,3,0.7,3.6,3.4,4.5c2.4,0.8,3.5,1.1,4.8,1.5l-0.3,0.9c-2.4-0.7-2.6-0.8-4.8-1.5c-3.1-1.1-5.4-1.9-3.9-6.1l1.7-4.8l-2.7-0.9
			l0.3-0.9l2.7,0.9l1.2-3.5l1,0.3l-1.2,3.5l6.6,2.2c0.2-0.6,1-3.1,1.2-3.6L93.7,13.8z"/>
	</g>
</g>
</svg>
