<?xml version="1.0" encoding="utf-8"?>
<!-- Generator: Adobe Illustrator 19.1.0, SVG Export Plug-In . SVG Version: 6.00 Build 0)  -->
<svg version="1.0" id="レイヤー_1" xmlns="http://www.w3.org/2000/svg" xmlns:xlink="http://www.w3.org/1999/xlink" x="0px"
	 y="0px" viewBox="0 0 297 95" enable-background="new 0 0 297 95" xml:space="preserve">
<g>
	<g>
		<path fill="#1B2B79" d="M13.8,1.8l3.4,0l0,7.9l14.7-0.1l0,3.1l-14.7,0.1l0,8.9c1.8-0.4,4.7-1.1,9.2-1.1c3,0,9,0.3,13.4,3.3
			c4.4,3.1,5.8,7.7,5.8,11.3c0,6.8-4.5,10-6.9,11.2c-3.8,1.8-7.4,2.5-16,2.5l-0.5-3.2c8.6-0.1,11.7-0.5,14.9-2.3
			c2.4-1.3,4.9-4.1,4.9-8.4c0-3.3-1.7-7.5-6-9.8c-2.1-1.1-5.7-1.8-9.4-1.8c-4.8,0-7.8,0.7-9.3,1.1l0.1,18.9c0,2.5-0.2,4.6-5.1,4.6
			C5.2,48.1,0,44.3,0,37.4c0-7.6,6.3-12.2,13.8-14.9l0-9.6L0.5,12.9l0-3.1l13.3-0.1L13.8,1.8z M13.9,25.5C7.5,27.9,3.1,32,3.1,37.1
			c0,3.8,2.7,7.9,8.9,7.8c1.6,0,2-0.3,2-1.5L13.9,25.5z M36.4,2.3C40,5.1,44.8,10.5,48,17.3l-3.1,2.1C41.5,12.2,38.3,8.3,33.4,4
			L36.4,2.3z"/>
		<path fill="#1B2B79" d="M69.7,2.6L69.8,21l-16.7,0.1L53.2,51l-3,0L49.9,2.7L69.7,2.6z M66.7,5.1L53,5.2l0,5.4l13.7-0.1L66.7,5.1z
			 M66.7,13L53,13l0,5.4l13.7-0.1L66.7,13z M84.7,43.1l-23.9,0.1l-0.1-17l23.9-0.1L84.7,43.1z M81.6,28.6l-17.9,0.1l0.1,11.9
			l17.9-0.1L81.6,28.6z M95.4,46.9c0,1.8,0,3.9-3.4,3.9l-8.6,0L83,47.8l7.5,0.1c1.9,0,1.9-0.6,1.9-1.9l-0.1-25.1L75.8,21L75.7,2.6
			l19.5-0.1L95.4,46.9z M92.2,5L78.8,5l0,5.4l13.5-0.1L92.2,5z M92.3,12.9l-13.5,0.1l0,5.4l13.5-0.1L92.3,12.9z"/>
		<path fill="#1B2B79" d="M104.7,3.9c-0.3,2.4-1,7.5-0.9,15.6c0,10.4,0.9,24.3,8.5,24.3c2.3,0,3.8-1.3,5.3-3.2
			c1.3-1.5,3.5-4.9,5.6-10.6l2.8,1.5c-3,8.3-6.5,12.1-7.8,13.3c-0.9,0.9-3,2.7-6.1,2.7c-9,0-11.4-12.2-11.5-28.2
			c0-6.3,0.4-12.2,0.7-15.6L104.7,3.9z M143.6,41.8c0.1-1.6,0.3-3.5,0.2-6.3c-0.1-18.2-6.9-24.6-10.9-27.8l2.4-2.2
			c7.4,5.6,12.1,14.2,12.1,31.2c0,1.9,0,3.3-0.1,5L143.6,41.8z"/>
		<path fill="#1B2B79" d="M147.8,18.4C159.9,14,167.9,6.3,171.6,0l3.4,0c8,10.7,17.2,15.4,24.5,18.2l-1.5,3.1
			c-7.6-2.9-17.8-9.8-24.4-18.7c-5.6,7.8-13.8,14.3-24.2,18.9L147.8,18.4z M192.4,26.4l0.1,24l-3.1,0l0-3l-30.9,0.1l0,3l-3.1,0
			l-0.1-24L192.4,26.4z M189.3,29.1l-30.9,0.1l0.1,15.6l30.9-0.1L189.3,29.1z M187,19.5l-26.5,0.1l0-2.8l26.5-0.1L187,19.5z"/>
		<path fill="#1B2B79" d="M220.6,43.3c5.6,0.2,22.9,0.7,22.8-16.3c0-4.3-1.6-13.9-13-13.8c-2.8,0-8.7,0.3-18,9.4l-0.1,25.6l-3.2,0
			l0.1-21.7c-3.2,6.4-6.2,9.7-8.4,12.1l-2-3.2c7.1-7.1,9.9-14.4,10.4-15.6l0-6.4l-9.1,0l0-3.2l9.1,0l0-9.2l3.2,0l0,9.2l2,0l0,1.8
			c-0.5,1.4-2.1,5.6-2.1,6.9c4.4-4,9.8-8.8,19-8.9c10.6,0,15.5,8.7,15.5,16.8C247,41.1,236.2,47,221,46.4L220.6,43.3z"/>
		<path fill="#1B2B79" d="M285.9,0.5c0,1.9,0,2.9,0.1,12.3l10.6-0.1l0,3.1L286,15.9c0,1.7,0.2,9.1,0.2,10.7c0,4.9-0.6,8.1-7.6,8.2
			c-3.6,0-5.7-0.4-7.3-0.7l0.3-3.1c3.2,0.6,4.2,0.8,6.9,0.7c3.4,0,4.5-0.1,4.5-5.7c0-3.2-0.1-6.8-0.1-10L260,16.1l0.1,17.9
			c0,10.2,6,10.2,15.3,10.2c8.2,0,11.8-0.3,16.2-0.6l0.1,3.2c-8.1,0.4-8.9,0.4-16.4,0.5c-10.6,0-18.5-0.1-18.5-14.4l-0.1-16.6
			l-9.4,0l0-3.1l9.4-0.1l-0.1-11.9l3.3,0L260,13l22.7-0.2c0-1.9-0.2-10.6-0.2-12.3L285.9,0.5z"/>
	</g>
</g>
<g>
	<g>
		<path fill="#1B2B79" d="M33.1,74.4l0,1.4l-8.8,0l0,3.9l8.3,0l0,1.4l-8.3,0l0,4.2c2.5,0.8,4.8,2.1,8.2,4.9l-1.1,1.6
			c-2.9-3-5.2-4.2-7.2-5.1l0,2c0,2.8-1.3,4.8-5.2,4.8c-4.8,0-6-2.4-6-4.2c0-2.7,2.6-4.7,6.7-4.7c1.4,0,2.4,0.2,3,0.3l0-3.8l-10.2,0
			l0-1.4l10.2,0l0-3.9l-10.5,0l0-1.4l10.5,0l0-3.1l1.5,0l0,3.1L33.1,74.4z M22.8,86.4c-0.6-0.2-1.4-0.3-2.9-0.3
			c-2.9,0-5.3,1.1-5.3,3.3c0,2.5,2.9,2.9,4.3,2.9c3,0,3.9-1.2,3.8-3.5L22.8,86.4z"/>
		<path fill="#1B2B79" d="M59.1,74.9l0,1.5l-7.1,0l0,4.8c0.1,0.4,0.3,1,0.4,1.6c0.1,0.7,0.2,1.5,0.2,2.5c0,4.9-2.8,8.2-10.6,8.6
			l-0.5-1.6c9,0.1,9.6-4.7,9.9-6.9c-1.3,3.3-4.5,3.3-4.9,3.3c-3.1,0-4.9-2.5-4.9-5.1c0-2.7,1.6-5.4,5.5-5.5c2.2,0,2.9,0.8,3.4,1.3
			l0-3.1l-13.7,0.1l0-1.5l13.6-0.1l0-3.7l1.6,0l0,3.7L59.1,74.9z M50.5,82.4c-0.2-0.7-0.8-2.7-3.5-2.7c-2,0-3.9,1.2-3.8,3.8
			c0,1.3,0.7,3.8,3.5,3.8c2.3,0,3.9-1.7,3.9-3.6L50.5,82.4z M54.3,68.8c0.8,0.9,1.9,2.2,3.2,4.5l-1.4,0.9c-1.1-2-1.9-3.1-3.1-4.5
			L54.3,68.8z M58.7,68.6c1.6,1.9,2.5,3.5,3.1,4.5L60.5,74c-1-2-1.9-3.2-3-4.5L58.7,68.6z"/>
		<path fill="#1B2B79" d="M65.7,71.4c-0.5,2.7-1.1,6.6-1.1,12.5c0,5.5,0.6,7.9,0.9,8.9l-1.6,0.3C63.2,90,63,86.9,63,83.7
			c0-4.3,0.3-8.1,1-12.4L65.7,71.4z M84.1,75.9l0,1.5l-5.2,0l0.1,7.7c3,1.5,4.8,3.2,5.5,4l-1.1,1.5c-1-1.5-2.7-2.9-4.4-3.9l0,1.2
			c0,2.1,0,4.9-4.9,4.9c-4.2,0-5.5-2.5-5.5-4.3c0-2.7,2.4-4.5,5.7-4.6c0.3,0,1.7,0,3.2,0.5l-0.2-7.1l-8.4,0l0-1.5l8.4,0l-0.1-4.7
			l1.6,0l0.1,4.7L84.1,75.9z M77.5,86.1c-0.7-0.3-1.5-0.7-3.1-0.7c-2.3,0-4.3,0.9-4.3,3.2c0,2.8,3.2,3,3.9,3c3.5,0,3.5-2,3.5-3.6
			L77.5,86.1z"/>
		<path fill="#1B2B79" d="M92.2,82.9c-1.3,1.6-1.5,3-1.4,3.8c0,1.4,0.8,2.7,1.8,3.3c1.5,1,3.1,1.2,6.3,1.2c4.4,0,7-0.4,9.3-0.6
			l0.1,1.7c-1.9,0.2-5,0.4-9.1,0.4c-3.5,0-5.6-0.3-7.4-1.3c-1.7-1-2.6-2.8-2.6-4.8c0-2.1,0.9-3.6,1.7-4.7L92.2,82.9z M104.6,74.4
			c-1.8,0.6-4,1.3-6.8,3.3l-1.2-1.1c1.5-1,2.5-1.6,4-2.2c-4.2,0-7.1,0.1-10,0.2l0-1.7c2,0,3.2,0,14,0L104.6,74.4z M106.2,69.7
			c0.8,1.2,1.7,2.7,2.6,5.1l-1.4,0.8c-0.8-2.2-1.5-3.6-2.5-5.1L106.2,69.7z M109.7,68.7c1.4,2,2.2,3.7,2.7,5l-1.4,0.8
			c-0.9-2.3-1.7-3.7-2.6-5.1L109.7,68.7z"/>
		<path fill="#1B2B79" d="M120.5,85.3c-1.5-1.9-2.4-3.8-2.7-4.4l0.1,13.4l-1.4,0l-0.1-13.8c-0.9,2.4-2.5,5.8-4.1,7.7l-0.9-1.4
			c2.3-2.5,4.4-7.7,5-10.2l-4.5,0l0-1.3l4.6,0l0-5.4l1.4,0l0,5.4l3.8,0l0,1.3l-3.8,0l0,1.8c0.5,1.3,2,4,3.6,5.7L120.5,85.3z
			 M135.2,93.8l-12,0.1l-0.1-23.3l12-0.1L135.2,93.8z M133.6,71.8l-9,0l0,5.9l9,0L133.6,71.8z M133.6,78.9l-9,0l0,6l9,0L133.6,78.9z
			 M133.7,86.2l-9,0l0,6.3l9,0L133.7,86.2z"/>
		<path fill="#1B2B79" d="M146.6,74.4l0,1.3l-9.5,0l0-1.3L146.6,74.4z M145.7,70.8l0,1.3l-7.8,0l0-1.3L145.7,70.8z M145.7,78.1
			l0,1.3l-7.8,0l0-1.3L145.7,78.1z M145.7,81.9l0,1.3l-7.8,0l0-1.3L145.7,81.9z M145.7,85.6l0,8.2l-7.8,0l0-8.2L145.7,85.6z
			 M144.3,86.9l-4.9,0l0,5.6l4.9,0L144.3,86.9z M154.5,69.8l0,2c0,3.7,2.5,7.6,7.2,9.1l-0.7,1.4c-5.2-2.3-6.6-5.4-7.1-7.1
			c-1.2,3.8-3.9,5.9-6.6,7.2l-0.9-1.2c2-0.8,3.5-1.8,4.8-3.5c1.5-2.1,2.1-4.2,2.1-6l0-1.9L154.5,69.8z M154.6,80.9l0,2.3
			c0,2,0.7,4.5,2.4,6.4c1.4,1.6,3.2,2.5,5,3.1l-0.7,1.3c-3.9-1.4-6-3.5-7.2-7c-1.6,3.9-3.4,5.8-6.5,6.9l-0.9-1.3
			c1.8-0.6,3.7-1.6,4.9-3.5c1.3-2.1,1.8-4.6,1.8-6l0-2.3L154.6,80.9z M149.2,76.6c-0.4-2.4-1-3.9-1.6-5.2l1.3-0.4
			c0.6,1.2,1.2,2.6,1.6,5.1L149.2,76.6z M149.6,88.1c-0.5-2-1.1-3.2-1.8-4.7l1.3-0.5c0.9,1.7,1.4,3,1.9,4.6L149.6,88.1z M160.5,83.1
			c-0.8,2.3-1.5,3.8-2.3,5.1l-1.3-0.7c1.1-1.8,1.7-3.2,2.3-4.9L160.5,83.1z M157,75.8c0.9-1.5,1.6-3,2.2-4.8l1.4,0.6
			c-0.8,2-1.6,3.5-2.3,4.8L157,75.8z"/>
		<path fill="#1B2B79" d="M181.8,93.2c-2.1-1.8-5.9-5-13.9-9.2c-0.9-0.5-2.1-1.1-2.1-2.3c0-1.2,0.9-1.8,2.5-2.9
			c5.3-3.5,8.8-6.3,11-8.7l1.5,1c-3.7,3.7-7,5.9-11.6,9c-1.6,1.1-1.7,1.3-1.7,1.5c0,0.3,0,0.5,1.6,1.3c7.7,4.1,11.2,6.8,13.9,9
			L181.8,93.2z"/>
		<path fill="#1B2B79" d="M188.5,92.6c2.9-5,4.5-15.4,4.7-16.9l-4.1,0l0-1.5l4.3,0c0.1-0.6,0.3-3.3,0.4-3.8l1.8,0.1
			c-0.1,0.9-0.1,1.2-0.4,3.7l7.9,0l0,1.5l-8.2,0c-0.7,4.8-2.4,12.6-4.7,17.5L188.5,92.6z M200.2,85.5c-1,1.5-1,2.4-1,2.7
			c0,2.8,3.2,2.8,6.7,2.8c1.7,0,3.5-0.1,5.4-0.2l0,1.7c-0.9,0-4.5,0.1-5.2,0.1c-3.3,0-8.4,0-8.4-4.4c0-1.4,0.6-2.4,1.2-3.3
			L200.2,85.5z M210.5,79.2c-0.7,0-1.4-0.1-2.5-0.1c-3.1,0-5.4,0.4-7.6,1.2l-0.4-1.4c1.9-0.7,4.8-1.5,10.5-1.4L210.5,79.2z
			 M206.4,69.7c0.5,0.7,1.5,2.5,2.4,5.2l-1.5,0.8c-0.8-2.2-1.4-3.6-2.3-5.2L206.4,69.7z M210,68.6c1.2,1.9,1.9,3.5,2.5,5.1l-1.5,0.8
			c-0.8-2.2-1.3-3.5-2.3-5.2L210,68.6z"/>
		<path fill="#1B2B79" d="M231.3,84.8c-1.1-1.2-2.9-3.6-4.8-8.4c-0.8,0-3.5,0-5.1,0l-7,0.1l0-1.6l7,0.1l4.6,0
			c-0.4-1.2-0.6-2-1.2-4.6l1.8-0.1c0.2,1.1,0.4,2.7,1.1,4.6c4.4-0.2,6.5-0.6,8.1-1l0.3,1.5c-3.2,0.7-5,0.7-7.9,0.9
			c1.2,3,2.8,5.7,4.5,7.5L231.3,84.8z M220.2,83.1c-2,1-2.8,2.5-2.8,3.6c0,4.3,6.2,4.2,8.9,4.2c3.2,0,5.3-0.3,7.1-0.5l0.1,1.6
			c-1,0.1-3.6,0.4-7.1,0.4c-5.1,0-6.7-0.7-7.7-1.3c-1.1-0.6-2.8-1.9-2.8-4.3c0-1.1,0.4-3.3,3.5-5L220.2,83.1z"/>
		<path fill="#1B2B79" d="M242.1,71.8c-0.2,1.4-0.4,3.7-0.4,7.2c0,4.7,0.4,11.1,3.8,11c1,0,1.7-0.6,2.4-1.5c0.8-1,1.7-2.7,2.5-4.9
			l1.3,0.7c-0.7,1.9-2.9,7.4-6.4,7.4c-4.1,0-5.3-5.4-5.3-12.8c0-2.7,0.2-5.3,0.3-7.4L242.1,71.8z M259.8,89.2c0.1-0.7,0.1-1.7,0.1-3
			c0-7.9-2.8-11-5-12.7l1.2-1.1c3.3,2.6,5.5,6.4,5.6,14.4c0,1,0,1.7,0,2.3L259.8,89.2z"/>
		<path fill="#1B2B79" d="M273.7,89.7l2.5,0l0,2.8l-2.5,0L273.7,89.7z M276,69.8l-0.2,16.7l-1.7,0l-0.3-16.7L276,69.8z"/>
	</g>
</g>
</svg>
