<?xml version="1.0" encoding="utf-8"?>
<!-- Generator: Adobe Illustrator 19.1.0, SVG Export Plug-In . SVG Version: 6.00 Build 0)  -->
<svg version="1.0" id="レイヤー_1" xmlns="http://www.w3.org/2000/svg" xmlns:xlink="http://www.w3.org/1999/xlink" x="0px"
	 y="0px" viewBox="-12 -103 212 422" enable-background="new -12 -103 212 422" xml:space="preserve">
<path fill="none" stroke="#1B2B79" stroke-width="6" stroke-miterlimit="10" d="M68-71c-3.004-8.535-9.302-16.92-17.183-21.696
	c-8.955-5.429-18.625-6.987-28.737-4.632l-0.567,0.136C11.188-94.648,3.158-88.746-2.353-79.653
	c-5.527,9.12-7.047,18.976-4.516,29.292C-4.34-40.046,1.567-32.012,10.69-26.482C18.564-21.711,28.667-19.833,38-22"/>
<path fill="none" stroke="#1B2B79" stroke-width="6" stroke-miterlimit="10" d="M114.211-39.429
	c-7.488-7.488-16.657-11.285-27.251-11.285c-10.595,0-19.763,3.797-27.252,11.285c-7.491,7.491-11.278,16.652-11.257,27.231
	c0.018,10.572,3.825,19.73,11.312,27.217c7.487,7.487,16.644,11.293,27.218,11.312c10.578,0.02,19.739-3.767,27.23-11.257
	c7.487-7.487,11.285-16.656,11.285-27.251C125.495-22.773,121.698-31.941,114.211-39.429z"/>
<line fill="none" stroke="#1B2B79" stroke-width="6" stroke-miterlimit="10" x1="155.639" y1="11.14" x2="82.246" y2="48.034"/>
<polyline fill="none" stroke="#1B2B79" stroke-width="6" stroke-miterlimit="10" points="153.639,13.14 154.352,14.6 104,89 "/>
<line fill="none" stroke="#1B2B79" stroke-width="6" stroke-miterlimit="10" x1="176.136" y1="54.313" x2="103" y2="91"/>
<line fill="none" stroke="#1B2B79" stroke-width="6" stroke-miterlimit="10" x1="181" y1="74" x2="191.041" y2="118.587"/>
<line fill="none" stroke="#1B2B79" stroke-width="6" stroke-miterlimit="10" x1="186" y1="97" x2="109" y2="115"/>
<polyline fill="none" stroke="#1B2B79" stroke-width="6" stroke-miterlimit="10" points="114,128.48 192.508,154.501 115.641,185 
	"/>
<line fill="none" stroke="#1B2B79" stroke-width="6" stroke-miterlimit="10" x1="147.147" y1="141" x2="148" y2="170.371"/>
<path fill="none" stroke="#1B2B79" stroke-width="6" stroke-miterlimit="10" d="M170,266c8.667-7.417,13.962-16.298,15.56-25.442
	c1.818-10.391-0.257-20.036-6.167-28.665l-0.335-0.482c-6.166-8.76-14.643-14.137-25.193-15.983
	c-10.582-1.85-20.388,0.329-29.144,6.48c-8.755,6.148-14.135,14.632-15.986,25.217c-1.597,9.136-0.136,17.772,4.343,25.703"/>
<line fill="none" stroke="#1B2B79" stroke-width="6" stroke-miterlimit="10" x1="175" y1="276.685" x2="155.626" y2="317"/>
<line fill="none" stroke="#1B2B79" stroke-width="6" stroke-miterlimit="10" x1="166" y1="297" x2="91.911" y2="261.472"/>
</svg>
