<?xml version="1.0" encoding="utf-8"?>
<!-- Generator: Adobe Illustrator 19.1.0, SVG Export Plug-In . SVG Version: 6.00 Build 0)  -->
<svg version="1.0" id="レイヤー_1" xmlns="http://www.w3.org/2000/svg" xmlns:xlink="http://www.w3.org/1999/xlink" x="0px"
	 y="0px" viewBox="0 0 225 163" enable-background="new 0 0 225 163" xml:space="preserve">
<g>
	<g>
		<g>
			<path fill="#1B2B79" d="M0,126.8L0,126.8l11-6.6l11.3,19l-11,6.5L0,126.8z"/>
			<path fill="#1B2B79" d="M23.4,130.6L23.4,130.6c0.9-0.5,1.8-0.7,2.7-0.4c0.9,0.2,1.6,0.7,2.1,1.5c0.5,0.8,0.6,1.7,0.4,2.6
				c-0.2,0.9-0.8,1.6-1.6,2.1c-0.5,0.3-1.1,0.5-1.7,0.5c-0.6,0-1.2-0.1-1.7-0.4c-0.5-0.3-1-0.7-1.3-1.2c-0.3-0.5-0.5-1.1-0.5-1.7
				c0-0.6,0.1-1.2,0.4-1.7C22.5,131.3,22.9,130.9,23.4,130.6z"/>
			<path fill="#1B2B79" d="M25.1,123.5l-5.1-8.6l21.9-13.1l5.1,8.5l-10-4.4l0,0l10.8,18.1l-10.9,6.5l-10.8-18.1l0,0L25.1,123.5z"/>
			<path fill="#1B2B79" d="M66.8,105.6l0.9-0.1c0.2,0.8,0.2,1.4,0.3,1.9c0,0.5,0,1-0.1,1.6c-0.2,1.2-0.6,2.2-1.3,3
				c-0.9,1.2-2.2,2.3-3.8,3.3c-1,0.6-1.9,1-2.7,1.3c-0.9,0.3-1.7,0.5-2.5,0.5c-0.8,0.1-1.6,0-2.4-0.2c-1-0.3-2-0.7-2.8-1.4
				c-0.8-0.6-1.5-1.4-2.1-2.4c-0.6-1-0.9-2-1.1-3.1c-0.1-1.1-0.1-2.2,0.2-3.2c0.3-1,0.7-2,1.4-2.9c0.7-0.9,1.5-1.6,2.5-2.2l0.3-0.2
				l8,13.4c0.7-0.3,1.1-0.6,1.4-0.7c2-1.2,3.3-2.7,3.8-4.6c0.2-0.6,0.3-1.2,0.3-1.7C67,107.3,66.9,106.5,66.8,105.6z M66.7,103.1
				l-7.5,4.4l-4.2-7c0.7-0.4,1.3-0.6,1.9-0.8c0.5-0.2,1-0.3,1.5-0.3c1.1-0.2,2.2-0.1,3.3,0.2c0.8,0.2,1.5,0.5,2.2,0.9
				c0.8,0.5,1.3,0.9,1.8,1.4C66.1,102.2,66.4,102.6,66.7,103.1z"/>
			<path fill="#1B2B79" d="M83.6,97.1l0.9-0.3c0,0.7,0,1.3,0,1.6c0,0.3-0.1,0.7-0.3,1.2c-0.6,2.1-2.1,3.9-4.5,5.3
				c-1.5,0.9-3,1.4-4.5,1.5c-0.8,0-1.5,0-2.2-0.2c-0.7-0.1-1.4-0.4-2-0.8c-1.3-0.7-2.4-1.7-3.2-3.1c-0.5-0.9-0.9-1.9-1-3
				c-0.2-1.1-0.1-2.2,0.1-3.2c0.5-2.1,1.8-3.8,3.9-5l0.3-0.2l7.9,13.3c0.5-0.2,0.8-0.4,0.9-0.4c1.3-0.8,2.3-1.9,2.9-3.5
				c0.2-0.6,0.4-1,0.5-1.5C83.5,98.4,83.6,97.8,83.6,97.1z M75.7,88.4c0.5-0.3,1.1-0.5,1.6-0.5c0.6,0,1.1,0.1,1.6,0.4
				c0.5,0.3,0.9,0.7,1.2,1.2c0.3,0.5,0.5,1.1,0.5,1.6c0,0.6-0.1,1.1-0.4,1.6c-0.3,0.5-0.7,0.9-1.2,1.2c-0.5,0.3-1,0.5-1.6,0.5
				c-0.6,0-1.1-0.1-1.6-0.4c-0.5-0.3-0.9-0.7-1.2-1.2c-0.3-0.5-0.5-1.1-0.5-1.6c0-0.6,0.1-1.1,0.4-1.6S75.1,88.7,75.7,88.4z"/>
			<path fill="#1B2B79" d="M88.6,99.7L77.4,80.8l7.5-4.5l11.2,18.8L88.6,99.7z M105.4,89.7l-7.6,4.6l-8.3-13.9
				c0.6-0.5,1.2-1,1.8-1.3c0.9-0.5,1.8-0.9,2.6-1.1c0.8-0.2,1.7-0.2,2.4-0.1c0.8,0.2,1.5,0.5,2.1,0.9c0.6,0.5,1.2,1.1,1.7,1.9
				L105.4,89.7z"/>
			<path fill="#1B2B79" d="M106.6,69.9l8.4,14.2l-0.4,0.2c-1.4,0.8-2.9,1.3-4.4,1.4c-1.5,0.1-2.9-0.2-4.2-0.9s-2.4-1.7-3.1-3
				c-0.6-1-0.9-2-1.1-3.1c-0.1-1.1-0.1-2.1,0.2-3.2c0.3-1.1,0.8-2.1,1.5-2.9c0.7-0.9,1.6-1.7,2.6-2.3L106.6,69.9z M116.7,83
				l-8.4-14.2l0.3-0.2c1.1-0.7,2.3-1.1,3.4-1.3c1.2-0.2,2.3-0.2,3.3,0c1.1,0.2,2.1,0.7,3,1.3c0.9,0.7,1.7,1.5,2.3,2.5
				c0.8,1.3,1.2,2.7,1.2,4.2c0,1.5-0.4,2.8-1.2,4.2c-0.8,1.3-1.9,2.4-3.4,3.3L116.7,83z"/>
			<path fill="#1B2B79" d="M126.4,77.1l-8.3-13.9l7.6-4.5l8.3,13.9L126.4,77.1z M135.6,71.6l-8.3-13.9l2.1-1.2
				c1.1-0.7,2.2-1.1,3.3-1.2c1.1-0.1,2,0,2.9,0.5c0.9,0.4,1.6,1.1,2.1,2.1l5.5,9.3L135.6,71.6z"/>
			<path fill="#1B2B79" d="M144.6,47.2l8.4,14.2l-0.4,0.2c-1.4,0.8-2.9,1.3-4.4,1.4c-1.5,0.1-2.9-0.2-4.2-0.9
				c-1.3-0.7-2.4-1.7-3.1-3c-0.6-1-0.9-2-1.1-3.1c-0.1-1.1-0.1-2.1,0.2-3.2c0.3-1.1,0.8-2.1,1.5-2.9c0.7-0.9,1.6-1.7,2.6-2.3
				L144.6,47.2z M154.7,60.4l-8.4-14.2l0.3-0.2c1.1-0.7,2.3-1.1,3.4-1.3c1.2-0.2,2.3-0.2,3.3,0c1.1,0.2,2.1,0.7,3,1.3
				c0.9,0.7,1.7,1.5,2.3,2.5c0.8,1.3,1.2,2.7,1.2,4.2c0,1.5-0.4,2.8-1.2,4.2c-0.8,1.3-1.9,2.4-3.4,3.3L154.7,60.4z"/>
			<path fill="#1B2B79" d="M164.6,54.4l-11.2-18.8l7.6-4.5l11.2,18.8L164.6,54.4z"/>
			<path fill="#1B2B79" d="M173.6,29.9l8.4,14.2l-0.4,0.2c-1.4,0.8-2.9,1.3-4.4,1.4c-1.5,0.1-2.9-0.2-4.2-0.9
				c-1.3-0.7-2.4-1.7-3.1-3c-0.6-1-0.9-2-1.1-3.1c-0.1-1.1-0.1-2.1,0.2-3.2c0.3-1.1,0.8-2.1,1.5-2.9c0.7-0.9,1.6-1.7,2.6-2.3
				L173.6,29.9z M183.7,43.1l-8.4-14.2l0.3-0.2c1.1-0.7,2.3-1.1,3.4-1.3c1.2-0.2,2.3-0.2,3.3,0c1.1,0.2,2.1,0.7,3,1.3
				c0.9,0.7,1.7,1.5,2.3,2.5c0.8,1.3,1.2,2.7,1.2,4.2c0,1.5-0.4,2.8-1.2,4.2c-0.8,1.3-1.9,2.4-3.4,3.3L183.7,43.1z"/>
			<path fill="#1B2B79" d="M192.3,18.7l8.4,14.1l-0.8,0.5c-1.3,0.8-2.6,1.1-4.1,1.1c-1.5,0-2.8-0.3-4.1-1c-1.3-0.7-2.3-1.7-3.1-2.9
				c-0.6-1-1-2-1.1-3.1c-0.2-1.1-0.1-2.1,0.2-3.2c0.3-1,0.8-2,1.4-2.9c0.7-0.9,1.5-1.6,2.6-2.3L192.3,18.7z M204.5,35.6l-10.6-17.8
				l7.6-4.5l6.8,11.4c0.5,0.8,0.8,1.6,1.1,2.3c0.2,0.7,0.4,1.3,0.4,2c0,0.6-0.1,1.2-0.3,1.8c-0.2,0.6-0.6,1.2-1,1.7
				c-0.8,0.9-1.8,1.8-3.1,2.6L204.5,35.6z"/>
			<path fill="#1B2B79" d="M216.8,20.6l-13.7-8.1l8.3-4.9l12.8,7.5c0.1,0.7,0.1,1.5,0.1,2.2c0,0.8,0,1.4,0,1.8
				c-0.1,0.6-0.1,1.2-0.2,1.6c-0.1,0.4-0.2,0.8-0.3,1.2c-0.1,0.3-0.3,0.8-0.5,1.4c-0.1-0.7-0.3-1.2-0.5-1.6
				c-0.4-0.6-0.9-1.1-1.5-1.5c-0.6-0.3-1.3-0.5-2-0.5c-0.7,0-1.4,0.2-2,0.5C217.2,20.3,217,20.4,216.8,20.6z M224.2,12.8l-11-6.4
				L224,0L224.2,12.8z M217.9,21.2c0.4-0.3,0.9-0.4,1.4-0.4c0.5,0,1,0.1,1.4,0.4c0.4,0.2,0.8,0.6,1.1,1c0.3,0.5,0.4,0.9,0.4,1.4
				c0,0.5-0.1,1-0.4,1.4c-0.2,0.4-0.6,0.8-1,1c-0.4,0.3-0.9,0.4-1.4,0.4c-0.5,0-1-0.1-1.4-0.3c-0.4-0.2-0.8-0.6-1.1-1
				c-0.3-0.5-0.4-0.9-0.4-1.4c0-0.5,0.1-1,0.4-1.4C217.1,21.8,217.5,21.5,217.9,21.2z"/>
		</g>
	</g>
	<g>
		<g>
			<path fill="#1B2B79" d="M79.9,141.9l4.3-11.2c0.5-1.4,0.5-2.5-0.1-3.4c-0.9-1.5-3.1-1.7-4.8-0.7c-1.6,0.9-2.4,2.6-2.5,4.4
				l-3.6,0.6c0.2-3.1,1.7-6,4.7-7.8c3.9-2.3,7.7-1.2,9.4,1.7c1.1,1.8,0.9,4,0,6.4l-3.2,8l0,0.1l8.7-5.2l1.7,2.8L81.8,145L79.9,141.9
				z"/>
			<path fill="#1B2B79" d="M97.4,131.7c0.9-0.5,2.1-0.3,2.6,0.7c0.6,0.9,0.3,2.1-0.7,2.6s-2.1,0.3-2.6-0.7S96.5,132.2,97.4,131.7z"
				/>
			<path fill="#1B2B79" d="M94.1,114.1l12.1,3.1l3-12.2l10.4,17.4l-3.1,1.9l-6.3-10.5l-1.7,7.2l-7.2-1.9l6.3,10.5l-3.1,1.9
				L94.1,114.1z"/>
			<path fill="#1B2B79" d="M115.3,107.2l2.8-1.7l4.4,7.3c1.1,1.9,3.4,2.5,5.1,1.4c1.8-1.1,2.3-3.3,1.2-5.2l-4.4-7.3l2.8-1.7l4.5,7.6
				c2.2,3.7,0.6,7.6-2.5,9.5c-3.1,1.9-7.3,1.4-9.5-2.3L115.3,107.2z"/>
			<path fill="#1B2B79" d="M131.1,92.5l7,11.7c0.9,1.5,1.6,1.9,2.7,1.9l2,0l0.1,3c-3.7,0.3-5.7,0.2-7.3-2.6l-7.3-12.3L131.1,92.5z"
				/>
			<path fill="#1B2B79" d="M136.1,94.8l1.6-1l-2.1-3.5l2.4-2.5l2.5,4.3l2.2-1.3l1.6,2.7l-2.3,1.3l3.1,5.2c0.8,1.4,1.6,1.9,2.7,1.9
				l2,0l0.1,3c-3.7,0.3-5.7,0.2-7.3-2.6l-3.4-5.7l-1.6,1L136.1,94.8z"/>
			<path fill="#1B2B79" d="M144,84.3c0.9-0.5,2-0.2,2.5,0.6c0.5,0.9,0.2,2-0.6,2.5s-2,0.2-2.5-0.6C142.9,85.9,143.1,84.8,144,84.3z
				 M145.1,89.4l2.8-1.7l7.8,13.1l-2.8,1.7L145.1,89.4z"/>
			<path fill="#1B2B79" d="M163.6,84.2c-1.5-0.7-3-0.9-4.6,0.1c-2.5,1.5-3.1,4.4-1.7,6.8c1.4,2.4,4.3,3.2,6.8,1.7
				c1.5-0.9,2.2-2.4,2.2-4l3.3,0c-0.1,2.5-1.5,5.2-4,6.7c-4.6,2.7-9.3,0.9-11.4-2.6c-2.1-3.5-1.5-8.5,3.1-11.2
				c2.8-1.7,5.4-1.4,7.8-0.3L163.6,84.2z"/>
			<path fill="#1B2B79" d="M166.2,71.5l7,11.7c0.9,1.5,1.6,1.9,2.7,1.9l2,0l0.1,3c-3.7,0.3-5.7,0.2-7.3-2.6l-7.3-12.3L166.2,71.5z"
				/>
			<path fill="#1B2B79" d="M178.4,69c4.6-2.7,9.3-0.9,11.4,2.6c2.1,3.5,1.5,8.5-3.1,11.2s-9.3,0.9-11.4-2.6
				C173.3,76.8,173.9,71.8,178.4,69z M185.1,80.2c2.5-1.5,3.1-4.4,1.7-6.8c-1.4-2.4-4.3-3.2-6.8-1.7c-2.5,1.5-3.1,4.4-1.7,6.8
				C179.7,80.8,182.6,81.7,185.1,80.2z"/>
			<path fill="#1B2B79" d="M188.2,63.7L191,62l4.4,7.3c1.1,1.9,3.4,2.5,5.1,1.4c1.8-1.1,2.3-3.3,1.2-5.2l-4.4-7.3l2.8-1.7l4.5,7.6
				c2.2,3.7,0.6,7.6-2.5,9.5c-3.1,1.9-7.3,1.4-9.5-2.3L188.2,63.7z"/>
			<path fill="#1B2B79" d="M220.6,60L220.6,60c-0.2,1.8-1.4,3.5-3.2,4.6c-4.3,2.6-8.9,0.5-10.9-2.9c-1.9-3.2-1.4-8.5,2.8-11.1
				c2-1.2,3.9-1.2,5.3-0.5l0.1,0l-3.3-5.5l2.8-1.7l10.2,17l-2.8,1.7L220.6,60z M216.1,61.7c2.2-1.3,3-4.4,1.6-6.7
				c-1.4-2.4-4.4-3.1-6.7-1.8c-2.3,1.4-3,4.4-1.6,6.7C210.8,62.3,213.9,63,216.1,61.7z"/>
		</g>
	</g>
	<g>
		<g>
			<path fill="#1B2B79" d="M111.5,149.1l-1.4-2.4c0.7-1,1.4-1.9,2.1-2.7c0.7-0.7,1.5-1.3,2.3-1.8c1-0.6,1.9-0.9,2.8-1.1
				c0.9-0.1,1.7,0,2.4,0.3s1.3,0.9,1.8,1.6c0.4,0.7,0.7,1.4,0.7,2.1s-0.1,1.4-0.4,2.1c-0.3,0.7-0.7,1.5-1.3,2.4l0.1,0.1
				c0.6-0.2,1.2-0.4,1.8-0.4s1.2,0,1.8,0.1s1.1,0.4,1.7,0.7c0.5,0.4,1,0.9,1.3,1.5c0.6,1,0.9,2,0.9,3s-0.3,2-0.9,3s-1.6,1.8-2.8,2.6
				c-0.7,0.4-1.6,0.8-2.5,1.2c-0.9,0.3-1.8,0.6-2.7,0.7l-1.6-2.7l1.5-0.9c0.8,0.7,1.6,1.1,2.3,1.2c0.7,0.1,1.5-0.1,2.3-0.6
				c1.1-0.7,1.7-1.4,2-2.4c0.2-0.9,0-2-0.7-3.2c-0.7-1.2-1.7-2-2.8-2.2c-1.1-0.2-2.4,0.1-3.8,1l-1.1,0.7l-0.7-1.1
				c1.1-0.7,1.9-1.5,2.5-2.4c0.6-0.8,0.9-1.7,0.9-2.5c0-0.8-0.2-1.6-0.6-2.3c-0.6-0.9-1.2-1.5-2-1.7c-0.8-0.2-1.7,0-2.6,0.5
				c-0.8,0.5-1.3,1.1-1.6,1.8c-0.2,0.7-0.2,1.6,0.1,2.6L111.5,149.1z"/>
			<path fill="#1B2B79" d="M133.9,150.3l1.8,2.9l-2.6,1.5l-1.8-2.9L133.9,150.3z"/>
			<path fill="#1B2B79" d="M137.1,147c0.6,0.6,1.2,1.1,1.7,1.4s1.1,0.4,1.7,0.3s1.2-0.3,1.9-0.7c1-0.6,1.6-1.3,1.8-2.1
				s0-1.7-0.6-2.7c-0.4-0.6-0.8-1.1-1.3-1.4c-0.5-0.3-1.1-0.5-1.8-0.6c-0.7-0.1-1.7-0.1-3.1,0c-1.3,0.1-2.3,0.1-3.2,0
				s-1.6-0.4-2.2-0.8c-0.6-0.4-1.1-0.9-1.5-1.5c-0.6-0.9-0.8-1.9-0.8-2.9c0-1,0.4-1.9,1-2.8c0.6-0.9,1.5-1.7,2.6-2.3
				c0.6-0.4,1.3-0.7,1.9-1c0.7-0.3,1.5-0.6,2.6-0.9l2,3.4l-1.3,0.7c-0.6-0.6-1.2-1.1-1.8-1.3c-0.5-0.2-1.1-0.3-1.6-0.2
				c-0.5,0.1-1.1,0.3-1.7,0.7c-0.5,0.3-1,0.7-1.3,1.2c-0.3,0.5-0.5,1-0.5,1.5s0.2,1.1,0.5,1.7c0.4,0.6,0.8,1,1.2,1.3s1,0.5,1.7,0.6
				s1.6,0.1,2.7,0c1.4-0.1,2.5-0.1,3.4,0c0.9,0.1,1.7,0.4,2.3,0.8c0.7,0.4,1.3,1,1.7,1.8c0.5,0.9,0.8,1.7,0.9,2.5
				c0.1,0.8,0,1.5-0.3,2.2c-0.3,0.7-0.7,1.3-1.3,1.9c-0.6,0.6-1.3,1.1-2.1,1.6c-1.3,0.8-3,1.5-5,2.1l-2.1-3.5L137.1,147z"/>
			<path fill="#1B2B79" d="M143.1,132.4l3.6-2.2l3.8,6.4c0.6,1,1.1,1.7,1.5,2.2c0.4,0.5,0.7,0.8,1,1c0.3,0.2,0.7,0.3,1,0.3
				c0.4,0,0.8-0.1,1.3-0.4c0.3-0.2,0.6-0.4,0.8-0.7s0.4-0.7,0.6-1.3c0.2-0.5,0.2-1,0.2-1.4c0-0.4-0.2-0.8-0.4-1.2l-2.8-4.7
				c-0.3-0.5-0.5-0.8-0.7-1.1c-0.2-0.2-0.3-0.4-0.5-0.5c-0.1-0.1-0.3-0.2-0.4-0.2c-0.1,0-0.3-0.1-0.5,0c-0.2,0-0.5,0.1-0.9,0.2
				l-0.4-0.6l3.6-2.2l5.2,8.6c0.4,0.7,0.7,1.1,0.9,1.4s0.4,0.5,0.6,0.6c0.2,0.1,0.4,0.2,0.6,0.2c0.2,0,0.6-0.1,1.1-0.3l0.4,0.7
				l-2.8,1.9l-0.8,0.5l-1.2-2.1l-0.2,0.1c-0.2,1.2-0.6,2.1-1,2.9c-0.4,0.7-1,1.3-1.6,1.7c-0.8,0.5-1.5,0.7-2.2,0.7
				c-0.7,0-1.3-0.2-1.9-0.7s-1.2-1.2-1.9-2.3l-2.9-4.8c-0.4-0.7-0.7-1.2-1-1.4c-0.2-0.2-0.4-0.4-0.7-0.4c-0.2-0.1-0.7,0-1.3,0.2
				L143.1,132.4z"/>
			<path fill="#1B2B79" d="M167.9,133.5l1.6,2.7c0.3,0.5,0.6,0.9,0.8,1.2c0.2,0.2,0.4,0.4,0.6,0.5s0.4,0.1,0.6,0.1
				c0.2,0,0.6-0.1,1-0.2l0.4,0.6l-5.2,3.1l-0.4-0.6c0.3-0.3,0.4-0.5,0.6-0.7c0.1-0.2,0.2-0.4,0.2-0.7s-0.1-0.5-0.2-0.8
				c-0.1-0.3-0.4-0.7-0.7-1.2l-6.5-10.9c-0.4-0.6-0.6-1-0.8-1.3c-0.2-0.2-0.3-0.4-0.5-0.6c-0.2-0.1-0.3-0.2-0.5-0.3s-0.3-0.1-0.6,0
				c-0.2,0-0.5,0.1-1,0.3l-0.4-0.7l2.9-1.9l0.8-0.5l1.1,2.2l0.2-0.1c0.2-0.8,0.4-1.5,0.5-1.9s0.4-0.8,0.6-1.2
				c0.2-0.4,0.5-0.7,0.7-0.9c0.3-0.2,0.6-0.5,0.9-0.7c1.4-0.8,2.8-0.9,4.1-0.4c1.4,0.6,2.7,1.9,3.9,3.9c0.8,1.4,1.3,2.7,1.5,3.9
				c0.1,1.2,0,2.3-0.6,3.2c-0.5,1-1.3,1.8-2.5,2.4c-0.6,0.4-1.2,0.7-1.8,0.9C168.9,133.3,168.4,133.4,167.9,133.5z M165.4,129.3
				c0.5,0.8,0.9,1.4,1.3,1.8s0.8,0.6,1.2,0.7c0.4,0.1,0.8,0.1,1.3,0.1s0.9-0.3,1.5-0.6c1-0.6,1.5-1.5,1.5-2.6s-0.5-2.6-1.5-4.2
				c-2-3.3-3.9-4.4-5.9-3.2c-0.5,0.3-0.8,0.6-1.1,1c-0.3,0.4-0.5,0.8-0.6,1.3c-0.1,0.5-0.2,1-0.1,1.4c0,0.4,0.2,0.8,0.4,1.1
				L165.4,129.3z"/>
			<path fill="#1B2B79" d="M182,125l1.6,2.7c0.3,0.5,0.6,0.9,0.8,1.2c0.2,0.2,0.4,0.4,0.6,0.5c0.2,0.1,0.4,0.1,0.6,0.1
				c0.2,0,0.6-0.1,1-0.2l0.4,0.6l-5.2,3.1l-0.4-0.6c0.3-0.3,0.4-0.5,0.6-0.7c0.1-0.2,0.2-0.4,0.2-0.7c0-0.2-0.1-0.5-0.2-0.8
				c-0.1-0.3-0.4-0.7-0.7-1.2l-6.5-10.9c-0.4-0.6-0.6-1-0.8-1.3c-0.2-0.2-0.3-0.4-0.5-0.6c-0.2-0.1-0.3-0.2-0.5-0.3
				c-0.2-0.1-0.3-0.1-0.6,0c-0.2,0-0.5,0.1-1,0.3l-0.4-0.7l2.9-1.9l0.8-0.5l1.1,2.2l0.2-0.1c0.2-0.8,0.4-1.5,0.5-1.9
				c0.2-0.4,0.4-0.8,0.6-1.2c0.2-0.4,0.5-0.7,0.7-0.9c0.3-0.2,0.6-0.5,0.9-0.7c1.4-0.8,2.8-0.9,4.1-0.4c1.4,0.6,2.7,1.9,3.8,3.9
				c0.8,1.4,1.3,2.7,1.5,3.9s0,2.3-0.6,3.2c-0.5,1-1.3,1.8-2.5,2.4c-0.6,0.4-1.2,0.7-1.8,0.9C183.1,124.8,182.5,125,182,125z
				 M179.5,120.9c0.5,0.8,0.9,1.4,1.3,1.8s0.8,0.6,1.2,0.7c0.4,0.1,0.8,0.1,1.3,0.1c0.4-0.1,0.9-0.3,1.5-0.6c1-0.6,1.5-1.5,1.5-2.6
				c0-1.2-0.5-2.6-1.5-4.2c-2-3.3-3.9-4.4-5.9-3.2c-0.5,0.3-0.8,0.6-1.1,1c-0.3,0.4-0.5,0.8-0.6,1.3c-0.1,0.5-0.2,1-0.1,1.4
				c0,0.4,0.2,0.8,0.4,1.1L179.5,120.9z"/>
			<path fill="#1B2B79" d="M198.6,115.9c-1.8,1-3.4,1.3-4.9,0.8c-1.5-0.5-2.9-1.7-4.1-3.8c-0.8-1.4-1.3-2.7-1.4-4
				c-0.1-1.2,0.1-2.4,0.7-3.3c0.6-1,1.4-1.8,2.5-2.4c1.8-1.1,3.5-1.4,5-0.9c1.6,0.5,2.9,1.7,4.1,3.7c0.8,1.4,1.3,2.7,1.4,4
				c0.1,1.2-0.1,2.4-0.7,3.3C200.6,114.4,199.8,115.2,198.6,115.9z M191.8,111.3c1,1.7,2.1,2.9,3.2,3.5c1.1,0.6,2.2,0.6,3.2,0
				c0.6-0.3,1-0.8,1.2-1.3c0.2-0.5,0.3-1.1,0.3-1.7c0-0.6-0.2-1.3-0.4-1.9c-0.3-0.7-0.6-1.3-1-2c-0.7-1.2-1.5-2.2-2.3-2.8
				c-0.8-0.7-1.5-1-2.2-1.1c-0.7-0.1-1.4,0-2,0.4c-1,0.6-1.5,1.5-1.6,2.7C190.3,108.3,190.8,109.7,191.8,111.3z"/>
			<path fill="#1B2B79" d="M203.9,98.9l0.2-0.1c0.1-0.8,0.3-1.5,0.5-2.1s0.5-1.1,0.8-1.5s0.8-0.9,1.4-1.2c0.5-0.3,0.9-0.5,1.4-0.7
				l1.7,2.9l-1.4,0.9c-0.5-0.3-0.9-0.5-1.2-0.6c-0.4-0.1-0.7,0-1.1,0.2c-0.3,0.2-0.6,0.5-0.7,0.8s-0.3,0.8-0.4,1.3
				c-0.1,0.5-0.1,0.9,0,1.3c0.1,0.4,0.2,0.7,0.5,1.1l2.6,4.4c0.5,0.8,0.8,1.3,1.1,1.5c0.3,0.2,0.5,0.4,0.8,0.4
				c0.3,0,0.7-0.1,1.2-0.3l0.4,0.6l-5.1,3l-0.4-0.6c0.3-0.3,0.4-0.5,0.5-0.7c0.1-0.2,0.2-0.3,0.2-0.5c0-0.2,0-0.4-0.1-0.8
				c-0.1-0.3-0.4-0.8-0.7-1.3l-3.3-5.5c-0.3-0.5-0.6-1-0.8-1.3c-0.2-0.3-0.4-0.5-0.7-0.7c-0.2-0.1-0.5-0.2-0.7-0.2
				c-0.3,0-0.6,0.1-1,0.3l-0.4-0.7l2.9-1.9l0.8-0.5L203.9,98.9z"/>
			<path fill="#1B2B79" d="M209.3,93.7c0.4-0.3,0.7-0.6,0.8-1c0.2-0.3,0.2-0.7,0.2-1c0-0.4-0.1-0.8-0.2-1.2
				c-0.2-0.5-0.4-1.1-0.8-1.9l1.8-1.1l1.9,3.1l4.1-2.4l0.8,1.3l-4.1,2.4l3.4,5.6c0.5,0.8,0.9,1.5,1.3,1.9c0.4,0.4,0.7,0.7,1.1,0.9
				c0.3,0.2,0.7,0.2,1,0.2c0.3,0,0.6-0.1,1-0.4c0.3-0.2,0.6-0.5,0.8-0.8c0.2-0.3,0.4-0.7,0.5-1.1l1,0.3c-0.3,0.9-0.6,1.7-0.9,2.3
				c-0.4,0.6-0.9,1-1.4,1.4c-1.1,0.6-2.1,0.8-3,0.5c-0.9-0.3-1.8-1.2-2.6-2.6l-4.2-7l-1.9,1.1L209.3,93.7z"/>
		</g>
	</g>
</g>
</svg>
