<?xml version="1.0" encoding="utf-8"?>
<!-- Generator: Adobe Illustrator 19.1.0, SVG Export Plug-In . SVG Version: 6.00 Build 0)  -->
<svg version="1.0" id="レイヤー_1" xmlns="http://www.w3.org/2000/svg" xmlns:xlink="http://www.w3.org/1999/xlink" x="0px"
	 y="0px" viewBox="0 0 178 26" enable-background="new 0 0 178 26" xml:space="preserve">
<g>
	<g>
		<path fill="#1B2B79" d="M13.8,16.1h12.1v1.3H15c3.6,3.8,7.7,5.3,11.1,6l-0.8,1.7c-4.4-1.3-8.5-3.5-11.5-7v7.8h-1.4v-7.3
			c-1.7,1.8-5.3,4.6-11.5,6.5L0,23.6c6.7-1.7,10.2-4.7,11.5-6.2H0.3v-1.3h12v-1.8h-2.1l-0.4-1.5l2.7,0.1c0.7,0,0.7-0.3,0.7-0.7V8.5
			c-1.9,1.7-5,3.8-11.9,5.3l-0.7-1.4c2.5-0.4,8.5-1.7,12.1-5.1H0.3V6h12.4C11,5,9,4.1,8.2,3.8l0.8-1.1c1.5,0.6,2.6,1.2,3.8,2
			c2.7-0.7,5-1.3,7.2-2.5H2.8V0.8H23V2c-1.3,0.9-3.1,2.1-8.7,3.6c0.2,0.1,0.3,0.2,0.6,0.4h10.4v1.2c-1.9,2-3.9,3.6-7,5.3l-0.9-1.2
			c1-0.5,3.6-1.9,5.7-4h-8.3v5.7c0,0.9-0.5,1.1-0.9,1.3V16.1z"/>
		<path fill="#1B2B79" d="M31.1,2.8V0.2h1.5v2.5h5.6v1.4h-5.6v2.5h4.9v10.1h-4.9v2.6h5.6v1.4h-5.6v5.1h-1.5v-5.1h-5.7v-1.4h5.7v-2.6
			h-4.7V6.7h4.7V4.1h-5.4V2.8H31.1z M31.1,8h-3.3v3.1h3.3V8z M31.1,12.3h-3.3v3.2h3.3V12.3z M36.1,8h-3.5v3.1h3.5V8z M36.1,12.3
			h-3.5v3.2h3.5V12.3z M36.1,24.4c1-0.6,3.3-2,4.7-4.6c0.4-0.8,2.1-3.9,2.1-8.5V7.8h1.6v3.2c0,2.7,0.8,6.1,2.2,8.5
			c1.5,2.6,3.5,4,4.6,4.9l-0.9,1.3c-4-2.8-5.6-6-6.7-9.7c-0.9,3.7-2.7,7.4-6.6,9.7L36.1,24.4z M37.9,10c2.3-2.9,3.5-7.8,4-9.9
			l1.5,0.3c-0.2,1-0.5,2.3-1.2,4.3h8.6V6c0,0.5-1.8,5.7-2.8,7.3l-1.5-0.8c0.5-1,1.5-2.8,2.5-6.3h-7.4c-0.8,2.2-1.7,3.8-2.6,5.1
			L37.9,10z"/>
		<path fill="#1B2B79" d="M58.8,0.8c-0.3,1.5-0.5,2.7-0.7,3.9h6.6v1.6h-7c-1.6,7.1-3.3,11.7-5.5,15.3l-1.7-0.9
			c3.2-5,4.7-11.1,5.5-14.4h-5.4V4.7h5.7c0.3-1.7,0.5-3,0.6-4L58.8,0.8z M75.1,6.2c-0.7-0.1-1.1-0.1-2-0.1c-2.3,0-3.2,0.1-4.1,0.2
			l0.2,9.7c2.4,1,5,2.8,6.6,4.7l-1.1,1.4c-2-2.4-4-3.6-5.4-4.4v1.6c0,1.7,0,2.3-0.4,3.2c-1.1,2.5-4.1,2.5-5,2.5
			c-4.7,0-6.4-2.7-6.4-4.9c0-2,1.5-5.1,6.7-5.1c1.8,0,2.7,0.3,3.5,0.4L67.2,5c3.5-0.6,6.6-0.5,7.9-0.5V6.2z M67.6,17.1
			c-0.7-0.3-1.8-0.6-3.6-0.6c-3.5,0-5,1.8-5,3.6c0,3.4,4.1,3.4,4.7,3.4c3.6,0,3.8-1.9,3.8-4.3V17.1z"/>
		<path fill="#1B2B79" d="M75.9,24.1c8.7-0.8,10.4-4.4,11.2-6H75.8v-1.4h11.8c0.2-0.6,0.3-1.1,0.4-1.7h1.5c-0.1,0.6-0.2,1-0.4,1.7
			h12.4v1.4H90.1c1.7,3.2,6,5.6,11.6,6.1l-0.8,1.8c-7.6-1.5-11.2-5-12.3-7.7c-1.3,2.9-3.6,6.1-11.9,7.6L75.9,24.1z M87.9,13
			c-4.6,1-8.7,1.4-11.6,1.7l-0.2-1.5c2.1-0.2,3.7-0.3,5.8-0.6V8.4h-5V7.1h5V3.8h-5.6V2.4H82V0.3h1.5v2.1h5.1v1.4h-5.1v3.3h4.5v1.3
			h-4.5v4.1c1.7-0.2,3.1-0.5,4.4-0.8L87.9,13z M100.4,1.5c0,4.4-0.4,9.9-1.1,11.4c-0.6,1.5-1.7,1.6-2.5,1.6h-3.3L93.2,13l3.4,0.1
			c0.8,0,1.1-0.1,1.5-1.1c0.4-1.5,0.8-5.9,0.8-9h-4.4c-0.1,3.6-1.1,8.3-4.8,11.4l-1.1-1.1C91.5,11.1,93,7.1,93,2.9h-3.7V1.5H100.4z"
			/>
		<path fill="#1B2B79" d="M110.7,3.6c-1.4,2.6-3.6,6.2-5.5,8.5c1.7-0.1,3.2-0.2,5-0.4c-0.5-1.1-0.7-1.5-1-2l1.1-0.6
			c1,1.4,2.1,4.4,2.4,5.2l-1.3,0.6c-0.1-0.5-0.3-1-0.7-2.1c-0.5,0.1-1.7,0.2-3.2,0.4v12.7h-1.5V13.3c-2.8,0.2-4,0.3-4.8,0.3
			l-0.3-1.5c1.5,0.1,2,0,2.5,0c0.7-0.8,1.1-1.5,1.6-2.1c-0.8-1-2.2-2.5-4.3-4l0.9-1.1c0.6,0.5,0.8,0.6,1.1,0.9
			c0.7-1,1.7-2.8,2.9-5.5l1.4,0.4c-1.1,2.3-2.3,4.4-3.4,6c0.7,0.6,1.3,1.2,2.1,2.2c0.2-0.3,1.7-2.6,3.6-6.1L110.7,3.6z M101,23.2
			c1.1-2.2,1.5-5.3,1.7-7.3l1.3,0.2c-0.1,1.7-0.4,5.3-1.7,7.6L101,23.2z M110.9,22.6c-0.3-2.1-0.8-4.6-1.5-6.4l1.3-0.4
			c0.3,0.7,1.2,3.8,1.5,6.4L110.9,22.6z M125.6,4.6c0,9.5,0,14.8-0.6,18.2c-0.3,1.7-1,3.2-3.8,3.2h-3.3l-0.4-1.7l3.7,0.1
			c1.1,0,1.8-0.2,2.2-1.5c0.7-2.9,0.7-10.2,0.7-16.8h-8.3c-1.1,2.6-2.2,4.1-2.8,4.8l-1.2-1c2.4-3.1,3.6-5.8,4.2-9.5l1.4,0.2
			c-0.2,0.9-0.5,2.2-1.1,4.1H125.6z M118.4,17.7c-0.9-2.8-2-5.1-3-6.7l1.3-0.6c1,1.6,2.6,5,3.2,6.8L118.4,17.7z"/>
		<path fill="#1B2B79" d="M131.3,11.7v0.8c0,5.2-1.2,9.8-3.9,13l-1.3-1.1c0.7-0.8,1.9-2.3,2.6-4.8c0.6-2.2,1.1-4.5,1.1-7v-0.8h-3.4
			v-1.5h3.4V2.6h-3V1.2h14v1.4h-2.6v7.7h2.9v1.5h-2.9v14.1h-1.6V11.7H131.3z M136.6,2.6h-5.3v7.7h5.3V2.6z M139.3,24.2
			c3.2-1,7.8-3,11.5-8.5l1.2,0.9c-4.2,6-9.1,8.1-11.9,9.1L139.3,24.2z M139.5,15.1c3.5-1.4,7.6-3.9,10.3-7.4l1.2,0.9
			c-2.7,3.6-7.3,6.5-10.7,7.9L139.5,15.1z M140.1,6.4c3.6-1.2,7-3.8,9-6.4l1.2,0.9c-0.7,0.8-4.2,4.7-9.3,6.7L140.1,6.4z"/>
		<path fill="#1B2B79" d="M160.8,1.1c1.8,1.5,2.7,2.7,3.8,4l-1.1,0.8c-0.6-0.8-0.8-1-1-1.3c-6.2,0.4-6.9,0.5-10.8,0.7l-0.1-1.2
			c0.3,0,1.9-0.1,2.3-0.1c1.1-1.8,1.2-2,2.2-3.8l1.5,0.4c-0.5,0.9-1.5,2.5-2,3.3c1.6-0.1,3.3-0.1,6.2-0.4c-0.8-0.9-1.3-1.3-1.7-1.7
			L160.8,1.1z M151.6,24.2c1.5-1.7,2.5-3.2,3.4-5.3l1.4,0.6c-0.4,0.9-1.6,3.6-3.6,5.7L151.6,24.2z M163,6.6v9.2c0,1.7-0.8,1.9-2,1.9
			h-2.5l-0.3-1.3l2.6,0c0.6,0,0.8-0.1,0.8-1v-1.4h-7v3.6h-1.5V6.6H163z M161.6,7.8h-7v1.9h7V7.8z M161.6,10.9h-7v2h7V10.9z
			 M160.4,19.5v3.8c0,0.8,0,0.8,1.1,0.8h6.2c1.1,0,1.5,0,1.9-3.1l1.5,0.4c-0.7,3.8-1.2,4.1-3.1,4.1H161c-2,0-2.1-1.1-2.1-2v-4H160.4
			z M165.8,22.4c-1.8-1.7-3.1-2.4-3.8-2.8l0.8-1c1,0.6,2.2,1.3,3.8,2.7L165.8,22.4z M167.4,0.2v2.8c3.3-0.5,5.7-1.5,7.8-2.6l0.9,1.1
			c-2,1-4.6,2-8.7,2.7v1.8c0,0.8,0,0.9,1.1,0.9h5.9c1,0,1.1,0,1.2-3.1l1.4,0.3c-0.1,3.1-0.4,4-2.3,4h-6.4c-2.2,0-2.4-0.9-2.4-2V0.2
			H167.4z M167.4,12c1.8-0.1,5.1-0.6,7.7-2.2l1,1c-2.6,1.7-7.1,2.3-8.7,2.4v2.4c0,0.7,0.1,0.7,1.1,0.7h5.7c1,0,1.5-0.2,1.5-3.4
			l1.4,0.3c-0.1,3.1-0.3,4.5-2.6,4.5H168c-1.2,0-2.1-0.4-2.1-1.8v-7h1.5V12z M175.7,25.2c-0.9-1.7-1.8-3.2-3.6-5.3l1.3-0.8
			c1.1,1.3,2.3,2.8,3.7,5.1L175.7,25.2z"/>
	</g>
</g>
</svg>
