<?xml version="1.0" encoding="utf-8"?>
<!-- Generator: Adobe Illustrator 19.1.0, SVG Export Plug-In . SVG Version: 6.00 Build 0)  -->
<svg version="1.0" id="レイヤー_1" xmlns="http://www.w3.org/2000/svg" xmlns:xlink="http://www.w3.org/1999/xlink" x="0px"
	 y="0px" viewBox="0 0 58 59" enable-background="new 0 0 58 59" xml:space="preserve">
<g>
	<path fill="#1B2B79" d="M0,0.1L0,0.1L33.8,0v58.5H0V0.1z"/>
	<path fill="#1B2B79" d="M48.1,40.4h0.2c2.6,0.1,4.8,1,6.6,2.7c1.8,1.8,2.6,3.9,2.6,6.3c0,2.6-0.9,4.8-2.6,6.5
		c-1.8,1.7-3.9,2.6-6.6,2.6c-1.7,0-3.2-0.4-4.6-1.2c-1.4-0.8-2.5-1.9-3.3-3.3c-0.8-1.4-1.3-2.9-1.3-4.5c0-1.7,0.4-3.2,1.2-4.6
		c0.8-1.4,1.9-2.5,3.3-3.3C45,40.8,46.5,40.4,48.1,40.4z"/>
</g>
</svg>
