<?xml version="1.0" encoding="utf-8"?>
<!-- Generator: Adobe Illustrator 19.1.0, SVG Export Plug-In . SVG Version: 6.00 Build 0)  -->
<svg version="1.0" id="レイヤー_1" xmlns="http://www.w3.org/2000/svg" xmlns:xlink="http://www.w3.org/1999/xlink" x="0px"
	 y="0px" viewBox="0 0 201 63" enable-background="new 0 0 201 63" xml:space="preserve">
<g>
	<g>
		<path fill="#1B2B79" d="M12.2,4.1V0.1h1.5v3.9h10.5v1.4H13.7v6.1h12V13h-9v10.2c0,0.8,0.1,0.8,0.8,0.8H22c0.9,0,1.1,0,1.4-0.8
			c0.1-0.3,0.3-1.1,0.5-3.6l1.6,0.4c-0.4,5.4-1.6,5.4-3.2,5.4h-4.8c-1.9,0-2.5-0.2-2.5-2.2V13h-5c-0.3,6-2.2,10.8-9.4,13L0,24.3
			c6.9-1.7,8.3-6,8.5-11.3H0v-1.4h12.2V5.5H6c-1.3,2.9-2.6,4.3-3.2,5L1.4,9.6c3.1-3.1,4.4-7.8,4.8-9.1l1.5,0.3
			C7.4,2,7.1,2.8,6.6,4.1H12.2z"/>
		<path fill="#1B2B79" d="M30,11.3v7.1c0,5.2,5.2,5.2,8,5.2h13.1l-0.4,1.5H38.1c-3,0-6.4-0.1-8.5-3.2c-0.6,0.7-1.4,1.7-3.8,3.8
			l-0.9-1.5c1-0.7,2.1-1.5,3.6-3.1v-8.3h-3.2v-1.5H30z M29.8,6c-1.3-1.6-2.5-2.8-4.3-4.2l1-1.1C28.3,2,29.6,3.4,31,4.9L29.8,6z
			 M41.9,4.4c0.8-1.3,1.3-2.5,2-4.3l1.4,0.4c-0.5,1.2-1,2.4-1.9,3.9h7.1v1.4h-7.1v3.5h6.2v1.3h-6.2v3.6h6.2v1.3h-6.2v3.9h7.5v1.3H34
			V7.6C32.8,9,32,9.7,31.3,10.3L30.2,9c2.3-1.8,4.9-4.3,6.7-9l1.5,0.5c-0.4,0.9-0.9,2.1-2,3.8H41.9z M41.9,5.8h-6.3v3.5h6.3V5.8z
			 M41.9,10.6h-6.3v3.6h6.3V10.6z M41.9,15.5h-6.3v3.9h6.3V15.5z"/>
		<path fill="#1B2B79" d="M54.4,4.5c0.3-0.6,0.7-1.4,1.3-4.3l1.5,0.3c-0.2,0.8-0.6,2.3-1.3,4.1h4.4V22h-7.6v2h-1.4V4.5H54.4z
			 M58.9,5.9h-6.1v6.4h6.1V5.9z M58.9,13.7h-6.1v6.9h6.1V13.7z M75.2,4.5c0,4,0,15.1-1,18.5c-0.6,2-1.4,2.8-3.7,2.8h-3.3l-0.3-1.6
			l3.6,0.1c1.2,0,1.8-0.1,2.4-2.1c0.8-2.9,0.8-13.6,0.8-16.2h-8.6c-0.5,1.2-1.6,3.9-3.2,5.7l-1.1-1.2C63,7.8,64.5,4.2,65,0.1
			l1.5,0.2c-0.2,1.1-0.3,2.3-0.9,4.2H75.2z M69.1,18c-1.4-2.7-2.6-4.4-4.8-7l1.1-1c2.6,2.7,4.5,6,4.9,6.9L69.1,18z"/>
		<path fill="#1B2B79" d="M84.3,0.7c-0.3,1.5-0.5,2.7-0.7,3.9h6.6v1.6h-7c-1.6,7.1-3.3,11.7-5.5,15.3l-1.7-0.9
			c3.2-5,4.7-11.1,5.5-14.4h-5.4V4.6h5.7c0.3-1.7,0.5-3,0.6-4L84.3,0.7z M100.6,6.2c-0.7-0.1-1.1-0.1-2-0.1c-2.3,0-3.2,0.1-4.1,0.2
			l0.2,9.7c2.4,1,5,2.8,6.6,4.7l-1.1,1.4c-2-2.4-4-3.6-5.4-4.4v1.6c0,1.7,0,2.3-0.4,3.2c-1.1,2.5-4.1,2.5-5,2.5
			c-4.7,0-6.4-2.7-6.4-4.9c0-2,1.5-5.1,6.7-5.1c1.8,0,2.7,0.3,3.5,0.4L92.7,4.9c3.5-0.6,6.6-0.5,7.9-0.5V6.2z M93.1,17
			c-0.7-0.3-1.8-0.6-3.6-0.6c-3.5,0-5,1.8-5,3.6c0,3.4,4.1,3.4,4.7,3.4c3.6,0,3.8-1.9,3.8-4.3V17z"/>
		<path fill="#1B2B79" d="M109.8,13.4c-0.6,0.3-1.6,0.8-3.6,1.6v8.6c0,2.2-1.3,2.2-2.3,2.2h-2.4l-0.4-1.6l2.3,0.1
			c0.7,0,1.2-0.1,1.2-1v-7.6c-1.9,0.7-2.8,1-3.8,1.3l-0.3-1.5c1.3-0.3,2.8-0.8,4.1-1.3V7h-3.8V5.7h3.8V0.1h1.5v5.5h3.7V7h-3.7v6.5
			c1.6-0.6,2.8-1.1,3.6-1.5L109.8,13.4z M108.9,24.1c1.9-0.4,4.9-1.3,8.2-3.8c-1.5-1.5-2.9-3.5-4.3-7.3l1.5-0.5
			c1.5,4.3,3.2,6.1,3.9,6.8c3.4-3.2,4.5-6.4,5-7.7h-11.9v-1.3h6.2V5.5h-7V4.1h7V0.2h1.6v3.9h7.4v1.4h-7.4v4.8h5.7v1.3
			c-2,5.4-4.3,7.6-5.4,8.7c1.9,1.6,4.1,2.7,7.3,3.7l-0.9,1.5c-4.2-1.7-6.1-3-7.5-4.2c-3.2,2.6-6.7,3.7-8.7,4.2L108.9,24.1z"/>
		<path fill="#1B2B79" d="M125.7,14.1c2.5-2.2,4.3-5.1,5.5-8.2l1.3,0.7c-0.5,1.3-1.1,2.5-2,4.1v15.1H129V12.9
			c-1.4,1.8-1.9,2.2-2.5,2.7L125.7,14.1z M131.8,0.7c-1,2.2-2.8,4.7-5.2,6.3l-0.8-1.4c2.6-1.7,3.8-4.1,4.5-5.6L131.8,0.7z
			 M135.3,10.4c0,1-0.1,5.5-1.1,9.4c-0.1,0.6-0.4,1.6-1,2.9l-1.3-0.9c1.7-3.6,1.9-10,1.9-11.4H135.3z M138.9,0.2V6h4.6v1.4h-4.6
			v18.4h-1.5V7.4H133V6h4.4V0.2H138.9z M142.4,4.8c-0.5-1-1.8-2.9-2.3-3.7l1.1-0.7c1.1,1.4,1.8,2.7,2.4,3.6L142.4,4.8z M142.5,10.4
			c0.7,3.3,1.2,8,1.3,11.1l-1.6,0.2c0-2.9-0.4-8.3-1.1-11.1L142.5,10.4z M151.7,10.2H149v13.6c0,0.9-0.1,2.1-1.9,2.1h-3.4l-0.3-1.6
			l3.3,0.1c0.3,0,0.7,0,0.7-0.8V10.2h-3.9V8.7h8.2V10.2z M151.2,2.9h-7.1V1.4h7.1V2.9z"/>
		<path fill="#1B2B79" d="M174.9,20.7c-4.3-3.7-7.3-6.7-11-10.5c-3-3.1-3.6-3.1-4.4-3.1c-1.1,0-1.8,0.5-2.6,1.4
			c-1.2,1.3-5.1,6.3-5.7,7.1l-1.5-1.5c1-1,5.1-5.8,6-6.7c1.1-1.1,2-1.9,3.8-1.9c1.8,0,2.5,0.6,6.4,4.3c6,5.7,7.8,7.3,10.4,9.3
			L174.9,20.7z"/>
		<path fill="#1B2B79" d="M187.5,23.1c3.3-0.3,11.3-1.1,11.3-10c0-2.4-0.8-9.7-9.9-9.7c-0.5,6-1.3,11.5-3.9,15.8
			c-1.7,2.8-3.5,3.3-4.5,3.3c-2.7,0-4.9-3.3-4.9-7.9c0-7.2,5-12.8,13.3-12.8c8.7,0,11.6,5.9,11.6,11.1c0,10.5-9.2,11.5-12.5,11.8
			L187.5,23.1z M177.2,14.6c0,2.3,0.9,6.1,3.3,6.1c1.1,0,2.1-0.8,3.2-2.5c2.6-4.2,3.3-10.4,3.6-14.8C179.9,4.3,177.2,9.7,177.2,14.6
			z"/>
		<path fill="#1B2B79" d="M51.5,57.4c1-0.1,1.5-0.2,2.2-0.3V39.2h-2.1v-1.4h13.1v1.4h-1.5v23.5h-1.5V57c-1.2,0.4-6.7,1.7-10,2
			L51.5,57.4z M61.6,39.2h-6.5v4.7h6.5V39.2z M61.6,45.3h-6.5V50h6.5V45.3z M55.1,56.9c0.2,0,4.2-0.7,6.5-1.4v-4.2h-6.5V56.9z
			 M63.5,61.3c1.5-1,3.9-2.5,6.2-5.5c-2.1-3.2-3.6-7.8-4.3-13.3l1.5-0.2c0.5,5.6,2,9.5,3.8,12.1c0.8-1.3,3.4-5.8,3.9-13.2h-9.9v-1.5
			h11.6c-0.5,7.4-2.5,12.9-4.6,16.1c2.2,2.8,4.5,4.4,5.7,5.2l-1,1.6c-1.9-1.5-3.9-3.1-5.7-5.5c-2.4,3.2-4.9,4.8-6,5.5L63.5,61.3z"/>
		<path fill="#1B2B79" d="M81.6,38.1c-0.7,2.5-1.1,4.7-1.6,9.5c0.7-1.8,1.5-4,4.3-5.9c1.9-1.3,3.7-1.5,4.8-1.5c7,0,7,8.9,7,10.3
			c0,8.9-5.2,11.3-15.3,11.3l-0.3-1.7c11.5,0.4,13.9-3.5,13.9-9.6c0-4-0.9-8.8-5.4-8.8c-5,0-8.8,6.2-8.8,10.2c0,0.7,0.1,1.5,0.3,3.1
			l-1.8,0.2c-0.1-1-0.2-2.3-0.2-4.3c0-4.5,0.5-7.9,1.3-13L81.6,38.1z"/>
		<path fill="#1B2B79" d="M98.3,59.9c1.2-2.5,1.5-5.6,1.6-7.3l1.5,0.3c-0.1,0.7-0.4,4.8-1.8,7.9L98.3,59.9z M108,40.2
			c-2.4,4.1-3.6,6.1-5.5,9c1.7-0.1,3.6-0.2,5-0.4c-0.5-1.1-0.8-1.6-1.1-2.2l1.2-0.6c1.2,2,1.8,3.5,2.5,5.4l-1.4,0.8
			c-0.3-0.8-0.4-1.3-0.8-2.1c-1.5,0.2-2.5,0.3-3.2,0.3v12.4h-1.6V50.5c-2,0.1-3.4,0.2-4.7,0.2l-0.1-1.4c0.5,0,0.7,0,2.5-0.1
			c1-1.5,1.3-2,1.6-2.4c-1.7-2-3.3-3.3-4-3.9l0.8-1c0.4,0.3,0.4,0.4,1.1,0.9c0.6-1,1.5-2.6,2.8-5.6l1.4,0.6c-0.2,0.4-1.9,4.1-3.2,6
			c1.1,1.1,1.2,1.2,1.8,1.8c1.3-2.1,2.2-3.7,3.3-6L108,40.2z M107.7,59.3c-0.2-1.9-0.5-3.8-1.4-6.4l1.4-0.4c0.3,0.8,0.8,2.2,1.7,6.3
			L107.7,59.3z M122.4,38.1v22.7h1.8v1.4h-16.5v-1.4h3.4V38.1H122.4z M120.9,39.5h-8.4v5.9h8.4V39.5z M120.9,46.8h-8.4v6.1h8.4V46.8
			z M120.9,54.2h-8.4v6.6h8.4V54.2z"/>
		<path fill="#1B2B79" d="M146.6,43.1c-0.2,2.1-0.4,4.5-0.9,6.9c1.8,0.7,3.1,1.3,3.7,1.7l-0.6,1.6c-1.3-0.8-1.8-1-3.4-1.7
			c-0.8,3.2-2.1,8.6-8.7,10.5l-1-1.3c4-1.1,6.8-3.3,8.1-9.7c-4.3-1.7-6.9-1.9-8.1-2c-1.8,7.5-2.8,11.1-7,11.1
			c-2.5,0-4.5-1.7-4.5-4.7c0-3.2,2.2-5.9,4.7-6.9c2.3-0.9,4.5-1,5.6-1c0.5-2.3,1-5.3,1.1-7.7l-9.5,0.1v-1.6h11.4
			c-0.3,2.2-0.7,5.1-1.5,9.3c3.3,0.2,6.1,1.2,8.1,1.8c0.4-2.7,0.6-5.1,0.7-6.5L146.6,43.1z M125.7,55.3c0,1.1,0.4,3.4,2.9,3.4
			c3.2,0,3.9-2.7,5.7-9.8C126.1,49,125.7,54.1,125.7,55.3z"/>
	</g>
</g>
</svg>
