<?xml version="1.0" encoding="utf-8"?>
<!-- Generator: Adobe Illustrator 19.1.0, SVG Export Plug-In . SVG Version: 6.00 Build 0)  -->
<svg version="1.0" id="レイヤー_1" xmlns="http://www.w3.org/2000/svg" xmlns:xlink="http://www.w3.org/1999/xlink" x="0px"
	 y="0px" viewBox="0 0 1800 250" enable-background="new 0 0 1800 250" xml:space="preserve">
<g>
	<g>
		<g>
			<defs>
				<path id="SVGID_1_" d="M-76.8,97C-19,12.7,95.2-8.1,179,49.4s105.5,171.5,47.7,255.8L-76.8,97z"/>
			</defs>
			<clipPath id="SVGID_2_">
				<use xlink:href="#SVGID_1_"  overflow="visible"/>
			</clipPath>
			<g clip-path="url(#SVGID_2_)">
				<g>
					
						<line fill="none" stroke="#0A5DC1" stroke-linecap="round" stroke-linejoin="round" stroke-miterlimit="10" x1="212.1" y1="-499.8" x2="17" y2="166"/>
					
						<line fill="none" stroke="#0A5DC1" stroke-linecap="round" stroke-linejoin="round" stroke-miterlimit="10" x1="216.6" y1="-497" x2="21.5" y2="168.8"/>
					
						<line fill="none" stroke="#0A5DC1" stroke-linecap="round" stroke-linejoin="round" stroke-miterlimit="10" x1="221" y1="-494.3" x2="25.9" y2="171.5"/>
					
						<line fill="none" stroke="#0A5DC1" stroke-linecap="round" stroke-linejoin="round" stroke-miterlimit="10" x1="225.5" y1="-491.5" x2="30.4" y2="174.3"/>
					
						<line fill="none" stroke="#0A5DC1" stroke-linecap="round" stroke-linejoin="round" stroke-miterlimit="10" x1="230" y1="-488.8" x2="34.8" y2="177"/>
					
						<line fill="none" stroke="#0A5DC1" stroke-linecap="round" stroke-linejoin="round" stroke-miterlimit="10" x1="234.4" y1="-486" x2="39.3" y2="179.8"/>
					
						<line fill="none" stroke="#0A5DC1" stroke-linecap="round" stroke-linejoin="round" stroke-miterlimit="10" x1="238.9" y1="-483.3" x2="43.7" y2="182.5"/>
					
						<line fill="none" stroke="#0A5DC1" stroke-linecap="round" stroke-linejoin="round" stroke-miterlimit="10" x1="243.3" y1="-480.6" x2="48.2" y2="185.3"/>
					
						<line fill="none" stroke="#0A5DC1" stroke-linecap="round" stroke-linejoin="round" stroke-miterlimit="10" x1="247.8" y1="-477.8" x2="52.6" y2="188"/>
					
						<line fill="none" stroke="#0A5DC1" stroke-linecap="round" stroke-linejoin="round" stroke-miterlimit="10" x1="252.2" y1="-475.1" x2="57.1" y2="190.8"/>
					
						<line fill="none" stroke="#0A5DC1" stroke-linecap="round" stroke-linejoin="round" stroke-miterlimit="10" x1="256.7" y1="-472.3" x2="61.5" y2="193.5"/>
					
						<line fill="none" stroke="#0A5DC1" stroke-linecap="round" stroke-linejoin="round" stroke-miterlimit="10" x1="261.1" y1="-469.6" x2="66" y2="196.2"/>
					
						<line fill="none" stroke="#0A5DC1" stroke-linecap="round" stroke-linejoin="round" stroke-miterlimit="10" x1="265.6" y1="-466.8" x2="70.4" y2="199"/>
					
						<line fill="none" stroke="#0A5DC1" stroke-linecap="round" stroke-linejoin="round" stroke-miterlimit="10" x1="270" y1="-464.1" x2="74.9" y2="201.7"/>
					
						<line fill="none" stroke="#0A5DC1" stroke-linecap="round" stroke-linejoin="round" stroke-miterlimit="10" x1="274.5" y1="-461.3" x2="79.4" y2="204.5"/>
					
						<line fill="none" stroke="#0A5DC1" stroke-linecap="round" stroke-linejoin="round" stroke-miterlimit="10" x1="278.9" y1="-458.6" x2="83.8" y2="207.2"/>
					
						<line fill="none" stroke="#0A5DC1" stroke-linecap="round" stroke-linejoin="round" stroke-miterlimit="10" x1="283.4" y1="-455.8" x2="88.3" y2="210"/>
					
						<line fill="none" stroke="#0A5DC1" stroke-linecap="round" stroke-linejoin="round" stroke-miterlimit="10" x1="287.9" y1="-453.1" x2="92.7" y2="212.7"/>
					
						<line fill="none" stroke="#0A5DC1" stroke-linecap="round" stroke-linejoin="round" stroke-miterlimit="10" x1="292.3" y1="-450.4" x2="97.2" y2="215.5"/>
					
						<line fill="none" stroke="#0A5DC1" stroke-linecap="round" stroke-linejoin="round" stroke-miterlimit="10" x1="296.8" y1="-447.6" x2="101.6" y2="218.2"/>
					
						<line fill="none" stroke="#0A5DC1" stroke-linecap="round" stroke-linejoin="round" stroke-miterlimit="10" x1="301.2" y1="-444.9" x2="106.1" y2="221"/>
					
						<line fill="none" stroke="#0A5DC1" stroke-linecap="round" stroke-linejoin="round" stroke-miterlimit="10" x1="305.7" y1="-442.1" x2="110.5" y2="223.7"/>
					
						<line fill="none" stroke="#0A5DC1" stroke-linecap="round" stroke-linejoin="round" stroke-miterlimit="10" x1="310.1" y1="-439.4" x2="115" y2="226.4"/>
					
						<line fill="none" stroke="#0A5DC1" stroke-linecap="round" stroke-linejoin="round" stroke-miterlimit="10" x1="314.6" y1="-436.6" x2="119.4" y2="229.2"/>
					
						<line fill="none" stroke="#0A5DC1" stroke-linecap="round" stroke-linejoin="round" stroke-miterlimit="10" x1="319" y1="-433.9" x2="123.9" y2="231.9"/>
					
						<line fill="none" stroke="#0A5DC1" stroke-linecap="round" stroke-linejoin="round" stroke-miterlimit="10" x1="323.5" y1="-431.1" x2="128.3" y2="234.7"/>
					
						<line fill="none" stroke="#0A5DC1" stroke-linecap="round" stroke-linejoin="round" stroke-miterlimit="10" x1="327.9" y1="-428.4" x2="132.8" y2="237.4"/>
					
						<line fill="none" stroke="#0A5DC1" stroke-linecap="round" stroke-linejoin="round" stroke-miterlimit="10" x1="332.4" y1="-425.6" x2="137.3" y2="240.2"/>
					
						<line fill="none" stroke="#0A5DC1" stroke-linecap="round" stroke-linejoin="round" stroke-miterlimit="10" x1="336.8" y1="-422.9" x2="141.7" y2="242.9"/>
					
						<line fill="none" stroke="#0A5DC1" stroke-linecap="round" stroke-linejoin="round" stroke-miterlimit="10" x1="341.3" y1="-420.1" x2="146.2" y2="245.7"/>
					
						<line fill="none" stroke="#0A5DC1" stroke-linecap="round" stroke-linejoin="round" stroke-miterlimit="10" x1="345.8" y1="-417.4" x2="150.6" y2="248.4"/>
					
						<line fill="none" stroke="#0A5DC1" stroke-linecap="round" stroke-linejoin="round" stroke-miterlimit="10" x1="350.2" y1="-414.7" x2="155.1" y2="251.2"/>
					
						<line fill="none" stroke="#0A5DC1" stroke-linecap="round" stroke-linejoin="round" stroke-miterlimit="10" x1="354.7" y1="-411.9" x2="159.5" y2="253.9"/>
					
						<line fill="none" stroke="#0A5DC1" stroke-linecap="round" stroke-linejoin="round" stroke-miterlimit="10" x1="359.1" y1="-409.2" x2="164" y2="256.6"/>
					
						<line fill="none" stroke="#0A5DC1" stroke-linecap="round" stroke-linejoin="round" stroke-miterlimit="10" x1="363.6" y1="-406.4" x2="168.4" y2="259.4"/>
					
						<line fill="none" stroke="#0A5DC1" stroke-linecap="round" stroke-linejoin="round" stroke-miterlimit="10" x1="368" y1="-403.7" x2="172.9" y2="262.1"/>
					
						<line fill="none" stroke="#0A5DC1" stroke-linecap="round" stroke-linejoin="round" stroke-miterlimit="10" x1="376.9" y1="-398.2" x2="181.8" y2="267.6"/>
					
						<line fill="none" stroke="#0A5DC1" stroke-linecap="round" stroke-linejoin="round" stroke-miterlimit="10" x1="381.4" y1="-395.4" x2="186.2" y2="270.4"/>
					
						<line fill="none" stroke="#0A5DC1" stroke-linecap="round" stroke-linejoin="round" stroke-miterlimit="10" x1="385.8" y1="-392.7" x2="190.7" y2="273.1"/>
					
						<line fill="none" stroke="#0A5DC1" stroke-linecap="round" stroke-linejoin="round" stroke-miterlimit="10" x1="390.3" y1="-389.9" x2="195.2" y2="275.9"/>
					
						<line fill="none" stroke="#0A5DC1" stroke-linecap="round" stroke-linejoin="round" stroke-miterlimit="10" x1="394.7" y1="-387.2" x2="199.6" y2="278.6"/>
					
						<line fill="none" stroke="#0A5DC1" stroke-linecap="round" stroke-linejoin="round" stroke-miterlimit="10" x1="399.2" y1="-384.5" x2="204.1" y2="281.4"/>
					
						<line fill="none" stroke="#0A5DC1" stroke-linecap="round" stroke-linejoin="round" stroke-miterlimit="10" x1="403.7" y1="-381.7" x2="208.5" y2="284.1"/>
					
						<line fill="none" stroke="#0A5DC1" stroke-linecap="round" stroke-linejoin="round" stroke-miterlimit="10" x1="408.1" y1="-379" x2="213" y2="286.9"/>
					
						<line fill="none" stroke="#0A5DC1" stroke-linecap="round" stroke-linejoin="round" stroke-miterlimit="10" x1="412.6" y1="-376.2" x2="217.4" y2="289.6"/>
					
						<line fill="none" stroke="#0A5DC1" stroke-linecap="round" stroke-linejoin="round" stroke-miterlimit="10" x1="417" y1="-373.5" x2="221.9" y2="292.3"/>
					
						<line fill="none" stroke="#0A5DC1" stroke-linecap="round" stroke-linejoin="round" stroke-miterlimit="10" x1="421.5" y1="-370.7" x2="226.3" y2="295.1"/>
					
						<line fill="none" stroke="#0A5DC1" stroke-linecap="round" stroke-linejoin="round" stroke-miterlimit="10" x1="425.9" y1="-368" x2="230.8" y2="297.8"/>
					
						<line fill="none" stroke="#0A5DC1" stroke-linecap="round" stroke-linejoin="round" stroke-miterlimit="10" x1="430.4" y1="-365.2" x2="235.2" y2="300.6"/>
					
						<line fill="none" stroke="#0A5DC1" stroke-linecap="round" stroke-linejoin="round" stroke-miterlimit="10" x1="434.8" y1="-362.5" x2="239.7" y2="303.3"/>
					
						<line fill="none" stroke="#0A5DC1" stroke-linecap="round" stroke-linejoin="round" stroke-miterlimit="10" x1="439.3" y1="-359.7" x2="244.1" y2="306.1"/>
					
						<line fill="none" stroke="#0A5DC1" stroke-linecap="round" stroke-linejoin="round" stroke-miterlimit="10" x1="443.7" y1="-357" x2="248.6" y2="308.8"/>
					
						<line fill="none" stroke="#0A5DC1" stroke-linecap="round" stroke-linejoin="round" stroke-miterlimit="10" x1="448.2" y1="-354.3" x2="253.1" y2="311.6"/>
					
						<line fill="none" stroke="#0A5DC1" stroke-linecap="round" stroke-linejoin="round" stroke-miterlimit="10" x1="452.6" y1="-351.5" x2="257.5" y2="314.3"/>
					
						<line fill="none" stroke="#0A5DC1" stroke-linecap="round" stroke-linejoin="round" stroke-miterlimit="10" x1="457.1" y1="-348.8" x2="262" y2="317.1"/>
					
						<line fill="none" stroke="#0A5DC1" stroke-linecap="round" stroke-linejoin="round" stroke-miterlimit="10" x1="461.6" y1="-346" x2="266.4" y2="319.8"/>
					
						<line fill="none" stroke="#0A5DC1" stroke-linecap="round" stroke-linejoin="round" stroke-miterlimit="10" x1="470.5" y1="-340.5" x2="275.3" y2="325.3"/>
					
						<line fill="none" stroke="#0A5DC1" stroke-linecap="round" stroke-linejoin="round" stroke-miterlimit="10" x1="474.9" y1="-337.8" x2="279.8" y2="328"/>
					
						<line fill="none" stroke="#0A5DC1" stroke-linecap="round" stroke-linejoin="round" stroke-miterlimit="10" x1="479.4" y1="-335" x2="284.2" y2="330.8"/>
					
						<line fill="none" stroke="#0A5DC1" stroke-linecap="round" stroke-linejoin="round" stroke-miterlimit="10" x1="483.8" y1="-332.3" x2="288.7" y2="333.5"/>
					
						<line fill="none" stroke="#0A5DC1" stroke-linecap="round" stroke-linejoin="round" stroke-miterlimit="10" x1="488.3" y1="-329.5" x2="293.1" y2="336.3"/>
					
						<line fill="none" stroke="#0A5DC1" stroke-linecap="round" stroke-linejoin="round" stroke-miterlimit="10" x1="492.7" y1="-326.8" x2="297.6" y2="339"/>
					
						<line fill="none" stroke="#0A5DC1" stroke-linecap="round" stroke-linejoin="round" stroke-miterlimit="10" x1="497.2" y1="-324" x2="302" y2="341.8"/>
					
						<line fill="none" stroke="#0A5DC1" stroke-linecap="round" stroke-linejoin="round" stroke-miterlimit="10" x1="501.6" y1="-321.3" x2="306.5" y2="344.5"/>
					
						<line fill="none" stroke="#0A5DC1" stroke-linecap="round" stroke-linejoin="round" stroke-miterlimit="10" x1="506.1" y1="-318.6" x2="311" y2="347.3"/>
					
						<line fill="none" stroke="#0A5DC1" stroke-linecap="round" stroke-linejoin="round" stroke-miterlimit="10" x1="510.5" y1="-315.8" x2="315.4" y2="350"/>
					
						<line fill="none" stroke="#0A5DC1" stroke-linecap="round" stroke-linejoin="round" stroke-miterlimit="10" x1="515" y1="-313.1" x2="319.9" y2="352.7"/>
					
						<line fill="none" stroke="#0A5DC1" stroke-linecap="round" stroke-linejoin="round" stroke-miterlimit="10" x1="519.5" y1="-310.3" x2="324.3" y2="355.5"/>
					
						<line fill="none" stroke="#0A5DC1" stroke-linecap="round" stroke-linejoin="round" stroke-miterlimit="10" x1="523.9" y1="-307.6" x2="328.8" y2="358.2"/>
					
						<line fill="none" stroke="#0A5DC1" stroke-linecap="round" stroke-linejoin="round" stroke-miterlimit="10" x1="528.4" y1="-304.8" x2="333.2" y2="361"/>
					
						<line fill="none" stroke="#0A5DC1" stroke-linecap="round" stroke-linejoin="round" stroke-miterlimit="10" x1="532.8" y1="-302.1" x2="337.7" y2="363.7"/>
					
						<line fill="none" stroke="#0A5DC1" stroke-linecap="round" stroke-linejoin="round" stroke-miterlimit="10" x1="537.3" y1="-299.3" x2="342.1" y2="366.5"/>
					
						<line fill="none" stroke="#0A5DC1" stroke-linecap="round" stroke-linejoin="round" stroke-miterlimit="10" x1="541.7" y1="-296.6" x2="346.6" y2="369.2"/>
					
						<line fill="none" stroke="#0A5DC1" stroke-linecap="round" stroke-linejoin="round" stroke-miterlimit="10" x1="546.2" y1="-293.8" x2="351" y2="372"/>
					
						<line fill="none" stroke="#0A5DC1" stroke-linecap="round" stroke-linejoin="round" stroke-miterlimit="10" x1="550.6" y1="-291.1" x2="355.5" y2="374.7"/>
					
						<line fill="none" stroke="#0A5DC1" stroke-linecap="round" stroke-linejoin="round" stroke-miterlimit="10" x1="555.1" y1="-288.4" x2="359.9" y2="377.5"/>
					
						<line fill="none" stroke="#0A5DC1" stroke-linecap="round" stroke-linejoin="round" stroke-miterlimit="10" x1="559.5" y1="-285.6" x2="364.4" y2="380.2"/>
					
						<line fill="none" stroke="#0A5DC1" stroke-linecap="round" stroke-linejoin="round" stroke-miterlimit="10" x1="564" y1="-282.9" x2="368.9" y2="383"/>
					
						<line fill="none" stroke="#0A5DC1" stroke-linecap="round" stroke-linejoin="round" stroke-miterlimit="10" x1="568.4" y1="-280.1" x2="373.3" y2="385.7"/>
					
						<line fill="none" stroke="#0A5DC1" stroke-linecap="round" stroke-linejoin="round" stroke-miterlimit="10" x1="572.9" y1="-277.4" x2="377.8" y2="388.4"/>
					
						<line fill="none" stroke="#0A5DC1" stroke-linecap="round" stroke-linejoin="round" stroke-miterlimit="10" x1="577.4" y1="-274.6" x2="382.2" y2="391.2"/>
					
						<line fill="none" stroke="#0A5DC1" stroke-linecap="round" stroke-linejoin="round" stroke-miterlimit="10" x1="581.8" y1="-271.9" x2="386.7" y2="393.9"/>
					
						<line fill="none" stroke="#0A5DC1" stroke-linecap="round" stroke-linejoin="round" stroke-miterlimit="10" x1="586.3" y1="-269.1" x2="391.1" y2="396.7"/>
					
						<line fill="none" stroke="#0A5DC1" stroke-linecap="round" stroke-linejoin="round" stroke-miterlimit="10" x1="371.1" y1="-395.5" x2="176" y2="270.3"/>
					
						<line fill="none" stroke="#0A5DC1" stroke-linecap="round" stroke-linejoin="round" stroke-miterlimit="10" x1="465.3" y1="-340" x2="270.2" y2="325.8"/>
				</g>
				<g>
					
						<line fill="none" stroke="#0A5DC1" stroke-linecap="round" stroke-linejoin="round" stroke-miterlimit="10" x1="590.3" y1="-267" x2="395.2" y2="398.9"/>
					
						<line fill="none" stroke="#0A5DC1" stroke-linecap="round" stroke-linejoin="round" stroke-miterlimit="10" x1="594.8" y1="-264.2" x2="399.6" y2="401.6"/>
					
						<line fill="none" stroke="#0A5DC1" stroke-linecap="round" stroke-linejoin="round" stroke-miterlimit="10" x1="599.2" y1="-261.5" x2="404.1" y2="404.4"/>
					
						<line fill="none" stroke="#0A5DC1" stroke-linecap="round" stroke-linejoin="round" stroke-miterlimit="10" x1="603.7" y1="-258.7" x2="408.5" y2="407.1"/>
					
						<line fill="none" stroke="#0A5DC1" stroke-linecap="round" stroke-linejoin="round" stroke-miterlimit="10" x1="608.1" y1="-256" x2="413" y2="409.8"/>
					
						<line fill="none" stroke="#0A5DC1" stroke-linecap="round" stroke-linejoin="round" stroke-miterlimit="10" x1="612.6" y1="-253.2" x2="417.4" y2="412.6"/>
					
						<line fill="none" stroke="#0A5DC1" stroke-linecap="round" stroke-linejoin="round" stroke-miterlimit="10" x1="617" y1="-250.5" x2="421.9" y2="415.3"/>
					
						<line fill="none" stroke="#0A5DC1" stroke-linecap="round" stroke-linejoin="round" stroke-miterlimit="10" x1="621.5" y1="-247.7" x2="426.3" y2="418.1"/>
					
						<line fill="none" stroke="#0A5DC1" stroke-linecap="round" stroke-linejoin="round" stroke-miterlimit="10" x1="625.9" y1="-245" x2="430.8" y2="420.8"/>
					
						<line fill="none" stroke="#0A5DC1" stroke-linecap="round" stroke-linejoin="round" stroke-miterlimit="10" x1="630.4" y1="-242.2" x2="435.2" y2="423.6"/>
					
						<line fill="none" stroke="#0A5DC1" stroke-linecap="round" stroke-linejoin="round" stroke-miterlimit="10" x1="634.8" y1="-239.5" x2="439.7" y2="426.3"/>
					
						<line fill="none" stroke="#0A5DC1" stroke-linecap="round" stroke-linejoin="round" stroke-miterlimit="10" x1="639.3" y1="-236.7" x2="444.2" y2="429.1"/>
					
						<line fill="none" stroke="#0A5DC1" stroke-linecap="round" stroke-linejoin="round" stroke-miterlimit="10" x1="643.7" y1="-234" x2="448.6" y2="431.8"/>
					
						<line fill="none" stroke="#0A5DC1" stroke-linecap="round" stroke-linejoin="round" stroke-miterlimit="10" x1="648.2" y1="-231.3" x2="453.1" y2="434.6"/>
					
						<line fill="none" stroke="#0A5DC1" stroke-linecap="round" stroke-linejoin="round" stroke-miterlimit="10" x1="652.7" y1="-228.5" x2="457.5" y2="437.3"/>
					
						<line fill="none" stroke="#0A5DC1" stroke-linecap="round" stroke-linejoin="round" stroke-miterlimit="10" x1="657.1" y1="-225.8" x2="462" y2="440"/>
					
						<line fill="none" stroke="#0A5DC1" stroke-linecap="round" stroke-linejoin="round" stroke-miterlimit="10" x1="661.6" y1="-223" x2="466.4" y2="442.8"/>
					
						<line fill="none" stroke="#0A5DC1" stroke-linecap="round" stroke-linejoin="round" stroke-miterlimit="10" x1="666" y1="-220.3" x2="470.9" y2="445.5"/>
					
						<line fill="none" stroke="#0A5DC1" stroke-linecap="round" stroke-linejoin="round" stroke-miterlimit="10" x1="670.5" y1="-217.5" x2="475.3" y2="448.3"/>
					
						<line fill="none" stroke="#0A5DC1" stroke-linecap="round" stroke-linejoin="round" stroke-miterlimit="10" x1="674.9" y1="-214.8" x2="479.8" y2="451"/>
					
						<line fill="none" stroke="#0A5DC1" stroke-linecap="round" stroke-linejoin="round" stroke-miterlimit="10" x1="679.4" y1="-212" x2="484.2" y2="453.8"/>
					
						<line fill="none" stroke="#0A5DC1" stroke-linecap="round" stroke-linejoin="round" stroke-miterlimit="10" x1="683.8" y1="-209.3" x2="488.7" y2="456.5"/>
					
						<line fill="none" stroke="#0A5DC1" stroke-linecap="round" stroke-linejoin="round" stroke-miterlimit="10" x1="688.3" y1="-206.5" x2="493.1" y2="459.3"/>
					
						<line fill="none" stroke="#0A5DC1" stroke-linecap="round" stroke-linejoin="round" stroke-miterlimit="10" x1="692.7" y1="-203.8" x2="497.6" y2="462"/>
					
						<line fill="none" stroke="#0A5DC1" stroke-linecap="round" stroke-linejoin="round" stroke-miterlimit="10" x1="697.2" y1="-201.1" x2="502.1" y2="464.8"/>
					
						<line fill="none" stroke="#0A5DC1" stroke-linecap="round" stroke-linejoin="round" stroke-miterlimit="10" x1="701.6" y1="-198.3" x2="506.5" y2="467.5"/>
					
						<line fill="none" stroke="#0A5DC1" stroke-linecap="round" stroke-linejoin="round" stroke-miterlimit="10" x1="706.1" y1="-195.6" x2="511" y2="470.3"/>
					
						<line fill="none" stroke="#0A5DC1" stroke-linecap="round" stroke-linejoin="round" stroke-miterlimit="10" x1="710.6" y1="-192.8" x2="515.4" y2="473"/>
					
						<line fill="none" stroke="#0A5DC1" stroke-linecap="round" stroke-linejoin="round" stroke-miterlimit="10" x1="715" y1="-190.1" x2="519.9" y2="475.7"/>
					
						<line fill="none" stroke="#0A5DC1" stroke-linecap="round" stroke-linejoin="round" stroke-miterlimit="10" x1="719.5" y1="-187.3" x2="524.3" y2="478.5"/>
					
						<line fill="none" stroke="#0A5DC1" stroke-linecap="round" stroke-linejoin="round" stroke-miterlimit="10" x1="723.9" y1="-184.6" x2="528.8" y2="481.2"/>
					
						<line fill="none" stroke="#0A5DC1" stroke-linecap="round" stroke-linejoin="round" stroke-miterlimit="10" x1="728.4" y1="-181.8" x2="533.2" y2="484"/>
					
						<line fill="none" stroke="#0A5DC1" stroke-linecap="round" stroke-linejoin="round" stroke-miterlimit="10" x1="732.8" y1="-179.1" x2="537.7" y2="486.7"/>
					
						<line fill="none" stroke="#0A5DC1" stroke-linecap="round" stroke-linejoin="round" stroke-miterlimit="10" x1="737.3" y1="-176.3" x2="542.1" y2="489.5"/>
					
						<line fill="none" stroke="#0A5DC1" stroke-linecap="round" stroke-linejoin="round" stroke-miterlimit="10" x1="741.7" y1="-173.6" x2="546.6" y2="492.2"/>
					
						<line fill="none" stroke="#0A5DC1" stroke-linecap="round" stroke-linejoin="round" stroke-miterlimit="10" x1="746.2" y1="-170.9" x2="551" y2="495"/>
					
						<line fill="none" stroke="#0A5DC1" stroke-linecap="round" stroke-linejoin="round" stroke-miterlimit="10" x1="755.1" y1="-165.4" x2="560" y2="500.5"/>
					
						<line fill="none" stroke="#0A5DC1" stroke-linecap="round" stroke-linejoin="round" stroke-miterlimit="10" x1="759.5" y1="-162.6" x2="564.4" y2="503.2"/>
					
						<line fill="none" stroke="#0A5DC1" stroke-linecap="round" stroke-linejoin="round" stroke-miterlimit="10" x1="764" y1="-159.9" x2="568.9" y2="505.9"/>
					
						<line fill="none" stroke="#0A5DC1" stroke-linecap="round" stroke-linejoin="round" stroke-miterlimit="10" x1="768.5" y1="-157.1" x2="573.3" y2="508.7"/>
					
						<line fill="none" stroke="#0A5DC1" stroke-linecap="round" stroke-linejoin="round" stroke-miterlimit="10" x1="772.9" y1="-154.4" x2="577.8" y2="511.4"/>
					
						<line fill="none" stroke="#0A5DC1" stroke-linecap="round" stroke-linejoin="round" stroke-miterlimit="10" x1="777.4" y1="-151.6" x2="582.2" y2="514.2"/>
					
						<line fill="none" stroke="#0A5DC1" stroke-linecap="round" stroke-linejoin="round" stroke-miterlimit="10" x1="781.8" y1="-148.9" x2="586.7" y2="516.9"/>
					
						<line fill="none" stroke="#0A5DC1" stroke-linecap="round" stroke-linejoin="round" stroke-miterlimit="10" x1="786.3" y1="-146.1" x2="591.1" y2="519.7"/>
					
						<line fill="none" stroke="#0A5DC1" stroke-linecap="round" stroke-linejoin="round" stroke-miterlimit="10" x1="790.7" y1="-143.4" x2="595.6" y2="522.4"/>
					
						<line fill="none" stroke="#0A5DC1" stroke-linecap="round" stroke-linejoin="round" stroke-miterlimit="10" x1="795.2" y1="-140.7" x2="600" y2="525.2"/>
					
						<line fill="none" stroke="#0A5DC1" stroke-linecap="round" stroke-linejoin="round" stroke-miterlimit="10" x1="799.6" y1="-137.9" x2="604.5" y2="527.9"/>
					
						<line fill="none" stroke="#0A5DC1" stroke-linecap="round" stroke-linejoin="round" stroke-miterlimit="10" x1="804.1" y1="-135.2" x2="609" y2="530.7"/>
					
						<line fill="none" stroke="#0A5DC1" stroke-linecap="round" stroke-linejoin="round" stroke-miterlimit="10" x1="808.5" y1="-132.4" x2="613.4" y2="533.4"/>
					
						<line fill="none" stroke="#0A5DC1" stroke-linecap="round" stroke-linejoin="round" stroke-miterlimit="10" x1="813" y1="-129.7" x2="617.9" y2="536.1"/>
					
						<line fill="none" stroke="#0A5DC1" stroke-linecap="round" stroke-linejoin="round" stroke-miterlimit="10" x1="817.4" y1="-126.9" x2="622.3" y2="538.9"/>
					
						<line fill="none" stroke="#0A5DC1" stroke-linecap="round" stroke-linejoin="round" stroke-miterlimit="10" x1="821.9" y1="-124.2" x2="626.8" y2="541.6"/>
					
						<line fill="none" stroke="#0A5DC1" stroke-linecap="round" stroke-linejoin="round" stroke-miterlimit="10" x1="826.4" y1="-121.4" x2="631.2" y2="544.4"/>
					
						<line fill="none" stroke="#0A5DC1" stroke-linecap="round" stroke-linejoin="round" stroke-miterlimit="10" x1="830.8" y1="-118.7" x2="635.7" y2="547.1"/>
					
						<line fill="none" stroke="#0A5DC1" stroke-linecap="round" stroke-linejoin="round" stroke-miterlimit="10" x1="835.3" y1="-115.9" x2="640.1" y2="549.9"/>
					
						<line fill="none" stroke="#0A5DC1" stroke-linecap="round" stroke-linejoin="round" stroke-miterlimit="10" x1="839.7" y1="-113.2" x2="644.6" y2="552.6"/>
					
						<line fill="none" stroke="#0A5DC1" stroke-linecap="round" stroke-linejoin="round" stroke-miterlimit="10" x1="848.6" y1="-107.7" x2="653.5" y2="558.1"/>
					
						<line fill="none" stroke="#0A5DC1" stroke-linecap="round" stroke-linejoin="round" stroke-miterlimit="10" x1="853.1" y1="-105" x2="657.9" y2="560.9"/>
					
						<line fill="none" stroke="#0A5DC1" stroke-linecap="round" stroke-linejoin="round" stroke-miterlimit="10" x1="857.5" y1="-102.2" x2="662.4" y2="563.6"/>
					
						<line fill="none" stroke="#0A5DC1" stroke-linecap="round" stroke-linejoin="round" stroke-miterlimit="10" x1="862" y1="-99.5" x2="666.9" y2="566.3"/>
					
						<line fill="none" stroke="#0A5DC1" stroke-linecap="round" stroke-linejoin="round" stroke-miterlimit="10" x1="866.4" y1="-96.7" x2="671.3" y2="569.1"/>
					
						<line fill="none" stroke="#0A5DC1" stroke-linecap="round" stroke-linejoin="round" stroke-miterlimit="10" x1="870.9" y1="-94" x2="675.8" y2="571.8"/>
					
						<line fill="none" stroke="#0A5DC1" stroke-linecap="round" stroke-linejoin="round" stroke-miterlimit="10" x1="875.3" y1="-91.2" x2="680.2" y2="574.6"/>
					
						<line fill="none" stroke="#0A5DC1" stroke-linecap="round" stroke-linejoin="round" stroke-miterlimit="10" x1="879.8" y1="-88.5" x2="684.7" y2="577.3"/>
					
						<line fill="none" stroke="#0A5DC1" stroke-linecap="round" stroke-linejoin="round" stroke-miterlimit="10" x1="884.3" y1="-85.7" x2="689.1" y2="580.1"/>
					
						<line fill="none" stroke="#0A5DC1" stroke-linecap="round" stroke-linejoin="round" stroke-miterlimit="10" x1="888.7" y1="-83" x2="693.6" y2="582.8"/>
					
						<line fill="none" stroke="#0A5DC1" stroke-linecap="round" stroke-linejoin="round" stroke-miterlimit="10" x1="893.2" y1="-80.2" x2="698" y2="585.6"/>
					
						<line fill="none" stroke="#0A5DC1" stroke-linecap="round" stroke-linejoin="round" stroke-miterlimit="10" x1="897.6" y1="-77.5" x2="702.5" y2="588.3"/>
					
						<line fill="none" stroke="#0A5DC1" stroke-linecap="round" stroke-linejoin="round" stroke-miterlimit="10" x1="902.1" y1="-74.8" x2="706.9" y2="591.1"/>
					
						<line fill="none" stroke="#0A5DC1" stroke-linecap="round" stroke-linejoin="round" stroke-miterlimit="10" x1="906.5" y1="-72" x2="711.4" y2="593.8"/>
					
						<line fill="none" stroke="#0A5DC1" stroke-linecap="round" stroke-linejoin="round" stroke-miterlimit="10" x1="911" y1="-69.3" x2="715.8" y2="596.6"/>
					
						<line fill="none" stroke="#0A5DC1" stroke-linecap="round" stroke-linejoin="round" stroke-miterlimit="10" x1="915.4" y1="-66.5" x2="720.3" y2="599.3"/>
					
						<line fill="none" stroke="#0A5DC1" stroke-linecap="round" stroke-linejoin="round" stroke-miterlimit="10" x1="919.9" y1="-63.8" x2="724.8" y2="602"/>
					
						<line fill="none" stroke="#0A5DC1" stroke-linecap="round" stroke-linejoin="round" stroke-miterlimit="10" x1="924.3" y1="-61" x2="729.2" y2="604.8"/>
					
						<line fill="none" stroke="#0A5DC1" stroke-linecap="round" stroke-linejoin="round" stroke-miterlimit="10" x1="928.8" y1="-58.3" x2="733.7" y2="607.5"/>
					
						<line fill="none" stroke="#0A5DC1" stroke-linecap="round" stroke-linejoin="round" stroke-miterlimit="10" x1="933.2" y1="-55.5" x2="738.1" y2="610.3"/>
					
						<line fill="none" stroke="#0A5DC1" stroke-linecap="round" stroke-linejoin="round" stroke-miterlimit="10" x1="937.7" y1="-52.8" x2="742.6" y2="613"/>
					
						<line fill="none" stroke="#0A5DC1" stroke-linecap="round" stroke-linejoin="round" stroke-miterlimit="10" x1="942.2" y1="-50" x2="747" y2="615.8"/>
					
						<line fill="none" stroke="#0A5DC1" stroke-linecap="round" stroke-linejoin="round" stroke-miterlimit="10" x1="946.6" y1="-47.3" x2="751.5" y2="618.5"/>
					
						<line fill="none" stroke="#0A5DC1" stroke-linecap="round" stroke-linejoin="round" stroke-miterlimit="10" x1="951.1" y1="-44.6" x2="755.9" y2="621.3"/>
					
						<line fill="none" stroke="#0A5DC1" stroke-linecap="round" stroke-linejoin="round" stroke-miterlimit="10" x1="955.5" y1="-41.8" x2="760.4" y2="624"/>
					
						<line fill="none" stroke="#0A5DC1" stroke-linecap="round" stroke-linejoin="round" stroke-miterlimit="10" x1="960" y1="-39.1" x2="764.8" y2="626.8"/>
					
						<line fill="none" stroke="#0A5DC1" stroke-linecap="round" stroke-linejoin="round" stroke-miterlimit="10" x1="964.4" y1="-36.3" x2="769.3" y2="629.5"/>
					
						<line fill="none" stroke="#0A5DC1" stroke-linecap="round" stroke-linejoin="round" stroke-miterlimit="10" x1="749.7" y1="-163.5" x2="554.5" y2="502.3"/>
					
						<line fill="none" stroke="#0A5DC1" stroke-linecap="round" stroke-linejoin="round" stroke-miterlimit="10" x1="844.5" y1="-112.8" x2="649.3" y2="553"/>
				</g>
			</g>
		</g>
	</g>
	<g>
		<polyline fill="none" stroke="#00A0E9" stroke-width="0.196" stroke-miterlimit="10" points="364,5.4 378.9,63.9 312.6,70.8 
			363.8,3.7 		"/>
		<g>
			<path fill="#1B2B79" d="M315.1,70.5c-0.2-1.4-1.5-2.4-2.8-2.2c-1.4,0.2-2.4,1.5-2.2,2.8c0.2,1.4,1.5,2.4,2.8,2.2
				C314.3,73.1,315.3,71.8,315.1,70.5z"/>
			<circle fill="#00A0E9" cx="363.8" cy="3.7" r="1.7"/>
		</g>
		<g>
			<path fill="#00A0E9" d="M380.7,63.7c-0.1-0.9-1-1.6-1.9-1.4c-0.9,0.1-1.6,1-1.4,1.9c0.1,0.9,1,1.6,1.9,1.4
				C380.2,65.5,380.9,64.6,380.7,63.7z"/>
		</g>
	</g>
	<g>
		<polyline fill="none" stroke="#11BAD1" stroke-width="0.196" stroke-miterlimit="10" points="423.6,8.4 277.8,166.6 559.5,94.4 
			422.9,6.8 		"/>
		<g>
			<path fill="#1B2B79" d="M557.2,95.4c-0.5-1.3,0.1-2.8,1.4-3.3c1.3-0.5,2.8,0.1,3.3,1.4s-0.1,2.8-1.4,3.3
				C559.2,97.3,557.7,96.7,557.2,95.4z"/>
			<path fill="#11BAD1" d="M421.4,7.5c-0.4-0.9,0.1-1.8,0.9-2.2c0.9-0.4,1.8,0.1,2.2,0.9c0.4,0.9-0.1,1.8-0.9,2.2
				C422.7,8.7,421.7,8.3,421.4,7.5z"/>
		</g>
		<g>
			<path fill="#11BAD1" d="M276.1,167.3c-0.4-0.9,0.1-1.8,0.9-2.2c0.9-0.4,1.8,0.1,2.2,0.9c0.4,0.9-0.1,1.8-0.9,2.2
				C277.5,168.6,276.5,168.2,276.1,167.3z"/>
		</g>
	</g>
	<g>
		<circle fill="#1B2B79" cx="1518.3" cy="113.3" r="7.6"/>
		<circle fill="#00A0E9" cx="1501.5" cy="116.8" r="7.6"/>
		<circle fill="#11BAD1" cx="1486.3" cy="125.8" r="7.6"/>
		
			<circle opacity="0.4" fill="#00A0E9" stroke="#00A0E9" stroke-width="0.5341" stroke-linecap="round" stroke-linejoin="round" stroke-miterlimit="10" enable-background="new    " cx="1473" cy="137.3" r="7.6"/>
		
			<circle opacity="0.2" fill="#00A0E9" stroke="#00A0E9" stroke-width="0.5341" stroke-linecap="round" stroke-linejoin="round" stroke-miterlimit="10" enable-background="new    " cx="1465.4" cy="152.8" r="7.6"/>
		
			<circle opacity="0.1" fill="#00A0E9" stroke="#00A0E9" stroke-width="0.5341" stroke-linecap="round" stroke-linejoin="round" stroke-miterlimit="10" enable-background="new    " cx="1461.7" cy="169.9" r="7.6"/>
	</g>
	<g>
		<path fill="#0A5DC1" d="M1797,220v21h-21v-21H1797 M1798,219h-23v23h23V219L1798,219z"/>
	</g>
	<g>
		<path fill="#0A5DC1" d="M1775,220v21h-21v-21H1775 M1776,219h-23v23h23V219L1776,219z"/>
	</g>
	<g>
		<path fill="#0A5DC1" d="M1753,220v21h-21v-21H1753 M1754,219h-23v23h23V219L1754,219z"/>
	</g>
	<g>
		<path fill="#0A5DC1" d="M1710,220h21v21h-21V220 M1709,219v23h23v-23H1709L1709,219z"/>
	</g>
	<g>
		<path fill="#0A5DC1" d="M1709,220v21h-21v-21H1709 M1710,219h-23v23h23V219L1710,219z"/>
	</g>
	<g>
		<path fill="#0A5DC1" d="M1687,220v21h-22v-21H1687 M1688,219h-24v23h24V219L1688,219z"/>
	</g>
	<g>
		<path fill="#0A5DC1" d="M1687,198v21h-22v-21H1687 M1688,197h-24v23h24V197L1688,197z"/>
	</g>
	<g>
		<path fill="#0A5DC1" d="M1687,176v21h-22v-21H1687 M1688,175h-24v23h24V175L1688,175z"/>
	</g>
	<g>
		<path fill="#11BAD1" d="M1664,220v21h-21v-21H1664 M1665,219h-23v23h23V219L1665,219z"/>
	</g>
	<g>
		<path fill="#11BAD1" d="M1664,154v21h-21v-21H1664 M1665,153h-23v23h23V153L1665,153z"/>
	</g>
	<g>
		<path fill="#11BAD1" d="M1642,220v21h-21v-21H1642 M1643,219h-23v23h23V219L1643,219z"/>
	</g>
	<g>
		<path fill="#1B2B79" d="M1599,220h21v21h-21V220 M1598,219v23h23v-23H1598L1598,219z"/>
	</g>
	<g>
		<path fill="#11BAD1" d="M1732,198h21v21h-21V198 M1731,197v23h23v-23H1731L1731,197z"/>
	</g>
	<g>
		<path fill="#11BAD1" d="M1731,198v21h-21v-21H1731 M1732,197h-23v23h23V197L1732,197z"/>
	</g>
	<g>
		<path fill="#1B2B79" d="M1709,198v21h-21v-21H1709 M1710,197h-23v23h23V197L1710,197z"/>
	</g>
	<g>
		<path fill="#1B2B79" d="M1598,220v21h-21v-21H1598 M1599,219h-23v23h23V219L1599,219z"/>
	</g>
</g>
</svg>
