<?xml version="1.0" encoding="utf-8"?>
<!-- Generator: Adobe Illustrator 19.2.1, SVG Export Plug-In . SVG Version: 6.00 Build 0)  -->
<svg version="1.1" id="レイヤー_1" xmlns="http://www.w3.org/2000/svg" xmlns:xlink="http://www.w3.org/1999/xlink" x="0px"
	 y="0px" viewBox="0 0 574 38" style="enable-background:new 0 0 574 38;" xml:space="preserve">
<style type="text/css">
	.st0{fill:#1B2B79;}
</style>
<path class="st0" d="M85.5,21.3c-3.7,0.7-6.1,1.4-6.1,8.2v1h20.9v2.3H76.7v-0.9c0-3.7,0.1-5.5,0.7-7.5c1.2-4.2,5-5,7.4-5.5l6.2-1.2
	c3.2-0.6,6.6-1.4,6.6-6.8c0-5.7-3.3-6.9-8.3-6.9c-7.3,0-9.4,2.5-9.4,7.9h-2.7c0.1-8.5,5.3-10.2,11.5-10.2c3.7,0,11.6,0,11.6,9.1
	c0,5-2,7.9-8.5,9.2L85.5,21.3z"/>
<path class="st0" d="M122,2v20.7h5.5V25H122v7.7h-2.6V25h-18.6v-3l17.5-20H122z M119.5,4.3l-16.2,18.5h16.2V4.3z"/>
<path class="st0" d="M185.9,22.7c-0.1,4.4,0.2,8.1,9.3,8.1c3.7,0,9.1-0.1,9.1-6.4c0-1.3-0.2-4.3-2.8-5.4c-0.5-0.2-2.4-1-4.6-1h-4.3
	v-2.3h4.3c2.2,0,7.1,0,7.1-5.7c0-4.8-3.3-6-8.4-6c-5.7,0-8.9,1.1-9,6.9h-2.7c0.4-7.7,5-9.2,11.6-9.2c2.8,0,11,0,11,8.2
	c0,5.7-3.5,6.6-4.8,6.9c1.3,0.4,5.1,1.6,5.1,7.5c0,8.7-8.2,8.8-11.3,8.8c-8,0-12.4-2.2-12.4-10.4C183.1,22.7,185.9,22.7,185.9,22.7z
	"/>
<path class="st0" d="M229.5,10.1c0.1-4.3-2.2-6.1-8.3-6.1c-2.2,0-6,0.1-7.7,3c-1.4,2.5-2.1,6.9-2.1,11c1.8-2.8,4.6-4.4,9.9-4.4
	c3.9,0,11.3,0.5,11.3,9.4c0,9.3-6.8,10.1-11.6,10.1c-9.8,0-12.3-4.4-12.3-14.6c0-15.7,5.9-16.7,12.4-16.7c2.7,0,11,0,10.9,8.4
	L229.5,10.1L229.5,10.1z M211.8,23.7c0,6.9,6.1,7.1,9,7.1c6,0,9.3-1.5,9.3-7.7c0-7.2-5.9-7.2-9.1-7.2
	C212.3,15.9,211.8,20.7,211.8,23.7z"/>
<path class="st0" d="M257,2v2.3h-18.7L238,15c1.2-1.1,3-2.8,8.8-2.8c3.6,0,11.4,0.4,11.4,10.4c0,7.6-4,10.5-11.9,10.5
	c-10.8,0-11.5-5.6-11.7-9.4h2.6c0.1,3.1,0.2,7.1,9.1,7.1c6.3,0,9.2-2,9.2-7.8c0-4.8-1.3-8.5-8.5-8.5c-6.4,0-7.9,1.8-9.1,4h-2.5
	L235.7,2H257z"/>
<path class="st0" d="M317.2,32.7h3.7v2h-35.7v-2h3.8V22.3h28.2V32.7z M303.2,1.4v1.7h-6.9v3.4h5.5v6.9h-5.5v4.1h7v1.8H287V1.4H303.2
	z M294.4,3.1H289v3.4h5.4V3.1z M299.8,8.1H289v3.5h10.8V8.1z M294.4,13.4H289v4.1h5.4V13.4z M297.7,24.3H291v8.4h6.7V24.3z
	 M306.4,24.3h-6.7v8.4h6.7V24.3z M302.5,10.6C306.8,7,308.3,2.9,309,0l2,0.4c-0.4,1.4-0.7,2.5-1.3,3.8h11.2v1.9h-12.2
	c-0.5,0.9-2,3.7-4.7,5.7L302.5,10.6z M320,16.8h-13.8v-2H320V16.8z M315.2,24.3h-6.9v8.4h6.9V24.3z"/>
<path class="st0" d="M333.2,22.9c-2-1.7-3.3-3.2-4.8-5.4l-0.3,0.3v18.1h-2v-16c-2.3,2-4.1,3-5.4,3.7l-1-2c2.6-1.3,9-5,11.3-12.8
	h-10.8V6.6h5.8V0h2.1v6.6h5v1.8c-0.6,2-1.2,4.3-3.5,7.4c1.4,1.9,3.3,3.9,4.9,5.2L333.2,22.9z M354.8,22.8H349v9.5
	c0,0.5,0.2,1.2,1.3,1.2h2.3c0.7,0,0.9-0.2,1.1-0.8c0.1-0.6,0.3-2.8,0.4-5l2,0.6c-0.1,0.9-0.5,5-0.7,5.8c-0.2,0.7-0.5,1.4-2.6,1.4
	h-3.2c-1.3,0-2.7-0.1-2.7-2.5V22.8h-4.2c-1.1,6.2-3.2,9.7-10,12.6l-1.4-1.9c7.4-2.1,8.7-7.1,9.4-10.7h-4.2V1.4h18.3L354.8,22.8
	L354.8,22.8z M352.7,3.2h-14.1v4.7h14.1V3.2z M352.7,9.6h-14.1v4.7h14.1V9.6z M352.7,16h-14.1v5h14.1V16z"/>
<path class="st0" d="M368.8,18.3c-4.1-2.5-6.9-3.6-11.3-4.8l1.1-2.1c3.9,1.1,7,2.2,11.4,4.6L368.8,18.3z M359.5,30.9
	c17.5-1.7,23.9-9.7,28.2-22.5l2.1,0.9C384.6,24,378.9,31,360,33.5L359.5,30.9z M372,8.9c-1.8-1.1-4.8-2.8-11.4-4.8l1-2.1
	c4.9,1.2,8.2,2.6,11.5,4.4L372,8.9z"/>
<path class="st0" d="M391.3,32.4c7.7-3.4,19.2-11.5,24.6-27.1h-22.8V3.1H419c-1.6,6-4.2,11.5-8,16.4c1.4,1.1,7.5,6,14.1,12.6l-2,1.9
	c-3.5-3.9-10.1-9.9-13.6-12.7c-4.6,5.5-10.3,10-16.8,12.9L391.3,32.4z"/>
<path class="st0" d="M459.7,12.8V15H446v1.4c-0.3,11.1-4.8,16-15.3,18.2l-1-2.2c10.8-1.9,13.5-6.9,13.8-15.8l0.1-1.7h-16.5v-2.2
	h32.6V12.8z M456.4,2.3v2.3h-25.9V2.3H456.4z"/>
<path class="st0" d="M484.8,15.5c5.3,6.9,8.1,12.3,10.5,17.8l-2.3,1.1c-0.4-1.2-0.8-2.2-1.5-3.8c-13.9,1.9-24.5,2.3-29.5,2.5
	l-0.2-2.5c0.7,0,3.2-0.1,3.5-0.1c4.5-10.3,7.3-20.7,9.5-28.9l2.6,0.4c-1.9,7.1-6.1,20.7-9.6,28.4c8.9-0.3,18.8-1,22.7-1.6
	c-2.2-4.2-4.8-8.3-7.6-12.1L484.8,15.5z"/>
<g>
	<g>
		<path class="st0" d="M145.2,30.2c-0.9-1.4-2.5-3.4-4-4.6l-0.2-0.1l-1.4,1.2l0.2,0.2c1.5,1.6,2.5,2.5,3.7,4.5l0.1,0.2l1.6-1.2
			L145.2,30.2z"/>
		<path class="st0" d="M147.1,14.3h6.1v-1.8h-6.1v-3h-1.9v3h-6v1.8h6V18h-6.9V20h10.9v3.1h-10.7v1.8h10.7v7.7c0,0.2,0,0.4,0,0.4
			c-0.1,0-0.4,0-0.6,0l-3.9-0.1l0.4,2.1h3.8c1.4,0,2.2-0.7,2.2-1.9v-8.2h2.8v-1.8h-2.8V20h3V18h-7V14.3z"/>
		<path class="st0" d="M129.6,33.2h1.9v-2h6.2V10.7h-8.1V33.2z M135.9,21.6v7.7h-4.4v-7.7H135.9z M135.9,12.5v7.4h-4.4v-7.4H135.9z"
			/>
		<path class="st0" d="M172.4,21.4h-12.8v10.3h12.8V21.4z M161.6,25.6v-2.4h8.9v2.4H161.6z M161.6,30v-2.6h8.9V30H161.6z"/>
		<path class="st0" d="M167.3,10.5v9.4h8.3v12.7c0,0.6-0.1,0.7-0.7,0.7l-4.1-0.1l0.5,2h4c2,0,2.3-1.3,2.3-2.1V10.5H167.3z M175.6,16
			v2.1h-6.3V16H175.6z M175.6,12.2v2h-6.3v-2H175.6z"/>
		<path class="st0" d="M164.8,10.5h-10.3v24.7h2.1V19.8h8.3V10.5z M162.8,16v2.1h-6.3V16H162.8z M162.8,12.2v2h-6.3v-2H162.8z"/>
	</g>
	<path class="st0" d="M261,10.2v24.1h2.1v-1.5h16v1.5h2.1V10.2H261z M263.1,20.4v-8.3h16v8.3H263.1z M279.1,22.4V31h-16v-8.6H279.1z
		"/>
</g>
</svg>
