<?xml version="1.0" encoding="utf-8"?>
<!-- Generator: Adobe Illustrator 19.1.0, SVG Export Plug-In . SVG Version: 6.00 Build 0)  -->
<svg version="1.0" id="レイヤー_1" xmlns="http://www.w3.org/2000/svg" xmlns:xlink="http://www.w3.org/1999/xlink" x="0px"
	 y="0px" viewBox="0 0 574 38" enable-background="new 0 0 574 38" xml:space="preserve">
<g>
	<g>
		<path fill="#1B2B79" d="M194.7,23.2c-1.8-2.3-2.7-3.7-3.4-5.3v18.7h-2.1V18.1c-0.3,0.7-2.3,5.7-6,9.9l-1.2-1.9
			c1-1.2,5.4-6.7,7.1-13.1h-6.8v-1.9h6.9V4.4c-3.2,0.6-4.8,0.7-6.3,0.8l-0.5-1.9c3.6-0.2,8.9-0.9,12.4-2.2l1.2,1.6
			c-1,0.4-1.8,0.7-4.8,1.4v7.1h4.5v1.9h-4.5v0.8c0.6,1.5,2.1,4.5,4.8,7.9L194.7,23.2z M194.2,34.8c2.8-0.5,7.7-1.6,13.1-4.7
			c-1.3-1.6-3.8-4.2-5.6-5.6c-2.7,1.8-3.9,2.3-5.2,2.9l-1.2-1.7c5.1-2.2,9.9-6,12.8-9.6l1.7,0.9c-0.5,0.8-1.2,1.6-2.7,3.1h10.5v1.9
			c-5.1,9.8-15.3,13.4-22.5,14.7L194.2,34.8z M216,4.1v1.6c-3.9,7.4-11.9,11.3-19.1,13.5l-1-1.8c3.8-1,6.6-2.2,9.6-3.9
			c-1.4-1.4-2.4-2.1-5.7-4.8c-1.2,0.9-2.1,1.4-2.9,1.8L195.4,9c3.4-1.8,6.9-4.6,9-8.2l1.9,0.7c-0.4,0.7-0.9,1.5-1.8,2.6H216z
			 M202.9,6c-0.6,0.6-0.9,0.9-1.6,1.5c0.9,0.7,4.6,3.5,5.9,4.9c4.1-2.7,5.6-5.3,6.3-6.4H202.9z M205.1,21.9
			c-0.5,0.4-1.1,0.9-1.8,1.4c1.8,1.3,4.4,3.9,5.8,5.6c3.5-2.5,5.4-5.5,6.3-7H205.1z"/>
		<path fill="#1B2B79" d="M231.4,7.5v1.9h-14V7.5H231.4z M230.2,2.1v1.9h-11.4V2.1H230.2z M230.2,12.8v1.9h-11.4v-1.9H230.2z
			 M230.2,18.1V20h-11.4v-1.9H230.2z M230.2,23.5v11.2h-9.4v1.9h-2V23.5H230.2z M228.2,25.3h-7.4v7.5h7.4V25.3z M252.1,36.7
			c-2.4-0.9-6.7-2.8-9.7-5.2c-3.8,3.2-7.8,4.5-10,5.2l-0.9-2.1c1.6-0.5,5.7-1.7,9.3-4.6c-3.2-3-4.6-6.1-5.5-8.5l1.9-0.9
			c1.2,3.3,2.7,5.7,5.2,8c3.2-3.3,4.8-6.7,5.7-9.2h-15.2v-2h17.5v2c-0.7,1.9-2.5,6.6-6.3,10.6c1.9,1.3,4.8,3,9.3,4.5L252.1,36.7z
			 M247.4,2v9c0,0.9,0.2,1.1,1.1,1.1h1.1c0.7,0,1.2,0,1.5-4.6l2.1,0.7c-0.4,5-1.1,6-2.9,6h-2.5c-1.9,0-2.4-0.8-2.4-2.5V4h-7.5
			c0,6.2-1.1,9.1-4.4,11.9l-1.5-1.6c3.8-2.9,3.8-5.7,3.8-12.2H247.4z"/>
		<path fill="#1B2B79" d="M278.5,1.7h2.3v8.1h7.3v2.3h-7.3v5.9c0,3.9-1.2,10.1-6.5,13.7c-4.7,3.2-10.4,3.8-12.2,4l-0.9-2.4
			c1.9-0.2,7.4-0.6,12-3.7c5.3-3.6,5.3-11.3,5.3-11.6v-5.9h-15.8v11.5h-2.4V12.1h-7.2V9.8h7.2V1.9h2.4v7.9h15.8V1.7z"/>
		<path fill="#1B2B79" d="M289.3,31.7c1.9-2.2,5-6.2,6.4-15.7l2.2,0.2c-1.5,11-5,15.2-6.6,17L289.3,31.7z M306.6,2v7.1h14.6v2.2
			h-14.6v24.4h-2.3V11.4h-14.4V9.2h14.4V2H306.6z M315.7,15.9c0.6,4.8,2.5,11.2,6.2,16l-2.2,1.3c-3.8-4.6-5.7-11.6-6.4-17.1
			L315.7,15.9z M323.4,4.1c0,2.2-1.8,4.1-4.1,4.1c-2.2,0-4.1-1.8-4.1-4.1c0-2.3,1.8-4.1,4.1-4.1S323.4,1.8,323.4,4.1z M317,4.1
			c0,1.3,1.1,2.3,2.3,2.3c1.3,0,2.3-1.1,2.3-2.3c0-1.3-1.1-2.3-2.3-2.3C318,1.7,317,2.7,317,4.1z"/>
		<path fill="#1B2B79" d="M357.9,17.5V20h-34.6v-2.5H357.9z"/>
		<path fill="#1B2B79" d="M371.9,1.5v10.8c7.6,2.3,15.3,6.2,20,8.8l-1.2,2.4c-5.3-3.2-12.1-6.6-18.9-8.8v21.2h-2.5V1.5H371.9z"/>
	</g>
</g>
</svg>
