<?xml version="1.0" encoding="utf-8"?>
<!-- Generator: Adobe Illustrator 19.1.0, SVG Export Plug-In . SVG Version: 6.00 Build 0)  -->
<svg version="1.0" id="レイヤー_1" xmlns="http://www.w3.org/2000/svg" xmlns:xlink="http://www.w3.org/1999/xlink" x="0px"
	 y="0px" viewBox="0 0 164 134" enable-background="new 0 0 164 134" xml:space="preserve">
<g>
	<g>
		<g>
			<g>
				<path fill="#1B2B79" d="M34.3,24c-0.1,0.2-0.3,0.3-0.6,0.1c-0.2-0.1-0.2-0.4-0.1-0.7c2.3-6.2,4.4-16.8,1.2-18.8
					c-1.7-1.1-2.7,0.3-3.8,2.1c-2.1,3.3-3.2,7.2-4.8,21.1c-1.5,13-2.3,15.6-5.6,21C16,56,10.9,55.9,8.4,54.3c-1.8-1.1-2.5-2.6-3-3.7
					c-0.5-0.9-0.7-1.4-0.9-1.5c-0.3-0.2-1.1,0-3.1,0.2c-0.4,0-0.8,0.1-1.1,0c-0.3-0.2-0.3-0.3-0.1-0.6l10.6-17.2
					c0.1-0.2,0.4-0.4,0.6-0.3c0.2,0.1,0.2,0.5,0.1,0.7c-2.1,6.2-5.4,16.2-1.4,18.7c1.3,0.8,2.9-0.2,4.2-2.3c2.8-4.6,3.9-10.8,5-21.4
					c1.1-10.1,3-16.1,6-21.1c4-6.5,8.1-6.8,11.5-4.6c1.3,0.8,2.3,2.5,2.9,3.9c0.2,0.4,0.5,0.9,0.8,1c0.3,0.2,1.3,0.1,2.2-0.1
					c1-0.2,1.6-0.3,2,0c0.3,0.2,0.3,0.6,0,1L34.3,24z"/>
				<path fill="#1B2B79" d="M29.8,47.1c-5.3,8.6-6.2,12.6-3,14.5c2.3,1.4,4,1,6.8-0.3c0.3-0.1,0.5-0.2,0.7,0c0.2,0.1,0.2,0.3,0,0.5
					c-2.8,2.8-6.7,4.3-10,2.2c-6.2-3.8-5-11.6,4.4-26.9c6.4-10.4,13.2-14.7,18-11.7c4,2.4,5.6,7.4-0.6,17.4l-2.6,4.2
					c-0.3,0.5-0.6,0.7-1.1,0.4l-9.2-5.7L29.8,47.1z M39.7,42.4l4.2-6.8c2.2-3.6,2.5-6.1,0.8-7.1c-1.8-1.1-3.6,0.4-5.9,4l-4.2,6.8
					L39.7,42.4z"/>
				<path fill="#1B2B79" d="M39.5,68.3c-0.2,0.3-0.3,0.5-0.3,0.7l0.8,3.8c0.1,0.3,0.1,0.5,0,0.6c-0.1,0.2-0.3,0.2-0.6,0l-9.1-5.7
					c-0.3-0.2-0.4-0.3-0.2-0.5c0.1-0.1,0.3-0.3,0.6-0.3l3.6-1.1c0.2-0.1,0.3-0.3,0.5-0.5l19.1-30.9c0.2-0.3,0.2-0.5,0.1-0.7
					l-0.8-3.1c-0.1-0.3,0-0.6,0.1-0.7c0.1-0.2,0.3-0.2,0.6,0l6.5,4c0.2,0.1,0.3,0.3,0.1,0.6L59,36.9l0.1,0.1
					c1.9-0.7,3.9-1.3,5.5-0.4c2.3,1.4,1.4,5.9,0.1,8.1c-0.2,0.3-0.4,0.6-0.7,0.4c-0.3-0.2-0.2-0.5-0.2-1c0.4-2.3-0.5-3.9-1.9-4.8
					c-2-1.2-4.9,0.8-7.1,4.3L39.5,68.3z"/>
				<path fill="#1B2B79" d="M55,81.4c-0.4,0.6-1,1.1-1.5,0.8L51.6,81c-0.5-0.3-0.4-1.1-0.2-1.5L67,43.2c0.2-0.5,0.3-1,0.2-1.6
					l-0.4-2.5c0-0.3,0-0.6,0.1-0.7c0.1-0.2,0.3-0.2,0.6,0l7.8,4.8c0.2,0.1,0.4,0.3,0.3,0.5c-0.1,0.2-0.3,0.3-0.6,0.4L72,45
					c-0.3,0.1-0.8,0.5-0.9,0.9l-8.9,20.7l0.1,0.1l14.2-17.4c0.3-0.4,0.5-0.8,0.4-1.3l-0.6-3.1c0-0.3-0.1-0.5,0.1-0.7
					c0.1-0.1,0.3-0.1,0.5,0l7.1,4.4c0.2,0.1,0.4,0.3,0.2,0.5c-0.1,0.1-0.3,0.3-0.7,0.3l-2.6,0.6c-0.6,0.1-0.9,0.5-1.3,0.9L55,81.4z"
					/>
				<path fill="#1B2B79" d="M74.8,74.9c-5.3,8.6-6.2,12.6-3,14.5c2.3,1.4,4,1,6.8-0.3c0.3-0.1,0.5-0.2,0.7,0c0.2,0.1,0.2,0.3,0,0.5
					c-2.8,2.8-6.7,4.3-10,2.2c-6.2-3.8-5-11.6,4.4-26.9c6.4-10.4,13.2-14.7,18-11.7c4,2.4,5.6,7.4-0.6,17.4l-2.6,4.2
					c-0.3,0.5-0.6,0.7-1.1,0.4L78,69.6L74.8,74.9z M84.7,70.1l4.2-6.8c2.2-3.6,2.5-6.1,0.8-7.1c-1.8-1.1-3.6,0.4-5.9,4L79.6,67
					L84.7,70.1z"/>
				<path fill="#1B2B79" d="M85.8,97c-0.2,0.3-0.3,0.5-0.3,0.7l0.8,3.8c0.1,0.3,0.1,0.5,0,0.6c-0.1,0.2-0.3,0.2-0.6,0l-9.1-5.7
					c-0.3-0.2-0.4-0.3-0.2-0.5c0.1-0.1,0.3-0.3,0.6-0.3l3.6-1.1c0.2-0.1,0.3-0.3,0.5-0.5l19.1-30.9c0.2-0.3,0.2-0.5,0.1-0.7
					l-0.8-3.1c-0.1-0.3,0-0.6,0.1-0.7c0.1-0.2,0.3-0.2,0.6,0l6.5,4c0.2,0.1,0.3,0.3,0.1,0.6l-1.4,2.3l0.1,0.1
					c1.9-0.7,3.9-1.3,5.5-0.4c2.3,1.4,1.4,5.9,0.1,8.1c-0.2,0.3-0.4,0.6-0.7,0.4c-0.3-0.2-0.2-0.5-0.2-1c0.4-2.3-0.5-3.9-1.9-4.8
					c-2-1.2-4.9,0.8-7.1,4.3L85.8,97z"/>
				<path fill="#1B2B79" d="M99.6,105.5c-0.2,0.3-0.3,0.5-0.2,0.7l0.6,3.7c0.1,0.2,0.1,0.5,0,0.6c-0.1,0.2-0.3,0.2-0.6,0l-9-5.6
					c-0.2-0.1-0.4-0.3-0.2-0.5c0.1-0.1,0.3-0.3,0.6-0.3l3.6-1.1c0.2-0.1,0.3-0.3,0.5-0.5l27.3-44.1c0.2-0.3,0.2-0.5,0.1-0.7
					l-0.8-3.2c-0.1-0.2-0.1-0.5,0-0.6c0.1-0.2,0.4-0.1,0.6,0l6.5,4c0.2,0.1,0.3,0.3,0.1,0.6L99.6,105.5z"/>
				<path fill="#1B2B79" d="M113.7,98.9c-5.3,8.6-6.2,12.6-3,14.5c2.3,1.4,4,1,6.8-0.3c0.3-0.1,0.5-0.2,0.7,0c0.2,0.1,0.2,0.3,0,0.5
					c-2.8,2.8-6.7,4.3-10,2.2c-6.2-3.8-5-11.6,4.4-26.9c6.4-10.4,13.2-14.7,18-11.7c4,2.4,5.6,7.4-0.6,17.4l-2.6,4.2
					c-0.3,0.5-0.6,0.7-1.1,0.4l-9.2-5.7L113.7,98.9z M123.6,94.2l4.2-6.8c2.2-3.6,2.5-6.1,0.8-7.1c-1.8-1.1-3.6,0.4-5.9,4l-4.2,6.8
					L123.6,94.2z"/>
				<path fill="#1B2B79" d="M142.2,103.2c-0.2,0.3-0.5,0.5-0.7,0.3c-0.2-0.1-0.2-0.5,0-0.9c0.9-2.4,1.7-4.7,2.3-8.4
					c0.5-2.7,0.3-4.5-1-5.4c-1.4-0.9-2.7,0.6-4,2.6c-1.8,2.9-2.7,7.6-2.7,13.7c0,5.8-1.1,11.7-3.8,16.1c-2.6,4.2-7.2,5-10.1,3.2
					c-1.9-1.2-2.5-2.8-2.7-4.7l-2.9,0.7c-0.3,0-0.6,0.1-0.9-0.1c-0.1-0.1-0.1-0.3,0.1-0.6l8.1-13.1c0.1-0.2,0.4-0.4,0.6-0.3
					c0.3,0.2,0.2,0.5,0,0.9c-2.3,6.2-3.8,12.2-1.3,13.7c1.5,0.9,2.9,0.2,4-1.6c2.6-4.2,3.2-10.1,3.2-15c0.1-5.6,1.3-10.7,3.8-14.9
					c2.7-4.4,7.2-5.6,9.7-4.1c1.6,1,2.4,2.6,2.7,4.7l3.1-0.6c0.2-0.1,0.5-0.2,0.7-0.1c0.1,0.1,0.1,0.5-0.1,0.9L142.2,103.2z"/>
				<path fill="#1B2B79" d="M155.8,111.7c-0.2,0.3-0.5,0.5-0.7,0.3c-0.2-0.1-0.2-0.5,0-0.9c0.9-2.4,1.7-4.7,2.3-8.4
					c0.5-2.7,0.3-4.5-1-5.4c-1.4-0.9-2.7,0.6-4,2.6c-1.8,2.9-2.7,7.6-2.7,13.7c0,5.8-1.1,11.7-3.8,16.1c-2.6,4.2-7.2,5-10.1,3.2
					c-1.9-1.2-2.5-2.8-2.7-4.7l-2.9,0.7c-0.3,0-0.6,0.1-0.9-0.1c-0.1-0.1-0.1-0.3,0.1-0.6l8.1-13.1c0.1-0.2,0.4-0.4,0.6-0.3
					c0.3,0.2,0.2,0.5,0,0.9c-2.3,6.2-3.8,12.2-1.3,13.7c1.5,0.9,2.9,0.2,4-1.6c2.6-4.2,3.2-10.1,3.2-15c0.1-5.6,1.3-10.7,3.8-14.9
					c2.7-4.4,7.2-5.6,9.7-4.1c1.6,1,2.4,2.6,2.7,4.7l3.1-0.5c0.2-0.1,0.5-0.2,0.7-0.1c0.1,0.1,0.1,0.5-0.1,0.9L155.8,111.7z"/>
			</g>
		</g>
	</g>
</g>
</svg>
