<?xml version="1.0" encoding="utf-8"?>
<!-- Generator: Adobe Illustrator 19.1.0, SVG Export Plug-In . SVG Version: 6.00 Build 0)  -->
<svg version="1.0" id="レイヤー_1" xmlns="http://www.w3.org/2000/svg" xmlns:xlink="http://www.w3.org/1999/xlink" x="0px"
	 y="0px" viewBox="0 0 261 31" enable-background="new 0 0 261 31" xml:space="preserve">
<g>
	<g>
		<g>
			<g>
				<path fill="#3A3A3A" d="M2.3,4.5c0.3,0.3,0.4,0.6,0.4,1c0,0.4-0.1,0.7-0.4,1c-0.3,0.3-0.6,0.4-1,0.4c-0.4,0-0.7-0.1-1-0.4
					C0.1,6.2,0,5.9,0,5.5c0-0.4,0.1-0.7,0.4-1s0.6-0.4,1-0.4C1.7,4.1,2.1,4.2,2.3,4.5z M2.1,9.4v15H0.7v-15H2.1z"/>
				<path fill="#3A3A3A" d="M12.4,12.8v11.6H11v-15h1.4v1c1.2-1.2,2.7-1.9,4.4-1.9c1.8,0,3.2,0.6,4.3,1.7s1.7,2.5,1.7,4.2v10h-1.4
					v-9.9c0-1.3-0.5-2.4-1.4-3.3c-0.9-0.9-2-1.3-3.3-1.3s-2.3,0.4-3.3,1.3C13,11.7,12.6,12.2,12.4,12.8z"/>
				<path fill="#3A3A3A" d="M33.4,10.8v13.6H32V10.8h-1.5V9.4H32V5.4c0.1-1.1,0.5-2.1,1.3-2.9c0.8-0.8,1.8-1.2,2.9-1.2
					c0.6,0,1.2,0.1,1.8,0.3l-0.4,1.2c-0.4-0.2-0.8-0.3-1.2-0.3c-0.7,0-1.4,0.3-2,0.9c-0.6,0.6-0.9,1.2-0.9,2v4h3v1.4H33.4z"/>
				<path fill="#3A3A3A" d="M50.9,8.1c2.3,0,4.3,0.8,5.9,2.5c1.6,1.6,2.4,3.6,2.4,5.9c0,2.3-0.8,4.3-2.4,5.9s-3.6,2.5-5.9,2.5
					c-2.3,0-4.3-0.8-5.9-2.5c-1.6-1.6-2.5-3.6-2.5-5.9c0-2.3,0.8-4.3,2.5-5.9C46.6,8.9,48.6,8.1,50.9,8.1z M46,11.6
					c-1.4,1.4-2,3-2,4.9c0,1.9,0.7,3.5,2,4.9c1.4,1.3,3,2,4.9,2c1.9,0,3.5-0.7,4.9-2c1.4-1.3,2-3,2-4.9c0-1.9-0.7-3.5-2-4.9
					s-3-2-4.9-2C49,9.5,47.3,10.2,46,11.6z"/>
				<path fill="#3A3A3A" d="M74.1,20.3c-1.5,0-2.8-0.4-3.9-1.3c-1.1-0.9-1.6-2.1-1.6-3.6c0-1.5,0.5-2.7,1.6-3.7
					c1.1-0.9,2.4-1.4,3.9-1.4c1.3,0,2.2,0.3,2.6,1v-0.7h2.7l0,6.9v0c0,0.5,0.1,0.7,0.2,0.7c0.1,0,0.3-0.2,0.6-0.5
					c0.5-0.7,0.8-1.9,0.8-3.4c0-1.5-0.6-2.9-1.7-4s-2.9-1.7-5.1-1.7c-2.2,0-4,0.6-5.1,1.7s-1.7,2.8-1.7,4.8c0,2.1,0.7,3.8,2,5.1
					s2.9,2,4.8,2c1.3,0,2.4-0.3,3.3-0.9l2,2.1c-1.8,1-3.5,1.6-5.3,1.6c-2.6,0-4.9-0.9-6.8-2.8s-2.8-4.1-2.8-6.8
					c0-2.6,0.9-4.9,2.8-6.8s4.1-2.8,6.8-2.8c2.7,0,4.9,0.9,6.8,2.8s2.8,3.8,2.8,5.7c0,1.9-0.5,3.5-1.5,4.7c-0.8,1-1.7,1.5-2.7,1.5
					c-0.2,0-0.4,0-0.7-0.1c-1.3-0.3-2-0.7-2.1-1.3C76.3,19.9,75.4,20.3,74.1,20.3z M76.8,16.1v-1.5c-0.1-0.4-0.3-0.8-0.7-1.2
					c-0.5-0.5-1.2-0.8-1.9-0.8c-0.7,0-1.4,0.3-1.9,0.8c-0.5,0.5-0.8,1.2-0.8,1.9c0,0.8,0.3,1.4,0.8,1.9s1.2,0.8,1.9,0.8
					c0.8,0,1.4-0.3,1.9-0.8C76.5,16.9,76.7,16.5,76.8,16.1z"/>
				<path fill="#3A3A3A" d="M91.4,9.4h1.4v2.1c0.3-0.3,0.5-0.7,0.9-1c1.6-1.6,3.6-2.4,5.9-2.4c2.3,0,4.3,0.8,5.9,2.4
					c1.6,1.6,2.4,3.6,2.4,5.9c0,2.3-0.8,4.3-2.4,5.9c-1.6,1.6-3.6,2.5-5.9,2.5c-2.3,0-4.3-0.8-5.9-2.5c-0.3-0.3-0.6-0.7-0.9-1v8.8
					h-1.4V9.4z M92.8,15v2.9c0.3,1.3,0.9,2.5,1.9,3.5c1.4,1.4,3,2,4.9,2c1.9,0,3.5-0.7,4.9-2c1.4-1.4,2-3,2-4.9c0-1.9-0.7-3.5-2-4.9
					s-3-2-4.9-2c-1.9,0-3.5,0.7-4.9,2C93.7,12.6,93,13.7,92.8,15z"/>
				<path fill="#3A3A3A" d="M115.8,9.4h1.4v2.7c0.3-0.4,0.6-0.8,1-1.2c1.2-1.2,2.5-1.8,3.7-1.9v1.5c-0.9,0-1.8,0.5-2.7,1.4
					c-1.3,1.3-2,2.8-2,4.7v7.7h-1.4V9.4z"/>
				<path fill="#3A3A3A" d="M136.5,8.1c2.3,0,4.3,0.8,5.9,2.5c1.6,1.6,2.4,3.6,2.4,5.9c0,2.3-0.8,4.3-2.4,5.9
					c-1.6,1.6-3.6,2.5-5.9,2.5c-2.3,0-4.3-0.8-5.9-2.5s-2.5-3.6-2.5-5.9c0-2.3,0.8-4.3,2.5-5.9C132.2,8.9,134.2,8.1,136.5,8.1z
					 M131.6,11.6c-1.4,1.4-2,3-2,4.9c0,1.9,0.7,3.5,2,4.9c1.4,1.3,3,2,4.9,2c1.9,0,3.5-0.7,4.9-2c1.4-1.3,2-3,2-4.9
					c0-1.9-0.7-3.5-2-4.9s-3-2-4.9-2C134.6,9.5,132.9,10.2,131.6,11.6z"/>
				<path fill="#3A3A3A" d="M158.7,24.6c-1.9,0-3.4-0.6-4.5-1.7c-1.1-1.1-1.7-2.5-1.7-4.2V9.4h1.4v9.2c0,1.3,0.5,2.4,1.4,3.2
					c0.9,0.9,2,1.4,3.4,1.4c1.3,0,2.4-0.5,3.3-1.3c0.9-0.9,1.4-2,1.4-3.3V9.4h1.4v9.3c0,1.7-0.6,3.1-1.7,4.2
					C161.9,24.1,160.5,24.6,158.7,24.6z"/>
				<path fill="#3A3A3A" d="M189.6,24.4h-1.4v-3.1c-0.3,0.4-0.6,0.7-0.9,1c-1.6,1.6-3.6,2.5-5.9,2.5c-2.3,0-4.3-0.8-5.9-2.5
					c-1.6-1.6-2.5-3.6-2.5-5.9c0-2.3,0.8-4.3,2.5-5.9c1.6-1.6,3.6-2.5,5.9-2.5c2.3,0,4.3,0.8,5.9,2.5c0.3,0.3,0.6,0.7,0.9,1V0h1.4
					V24.4z M188.2,17.8v-2.7c-0.3-1.3-0.9-2.5-1.9-3.5c-1.4-1.4-3-2-4.9-2c-1.9,0-3.5,0.7-4.9,2s-2,3-2,4.9c0,1.9,0.7,3.5,2,4.9
					c1.4,1.3,3,2,4.9,2c1.9,0,3.5-0.7,4.9-2C187.3,20.3,187.9,19.1,188.2,17.8z"/>
				<path fill="#3A3A3A" d="M200.2,4.5c0.3,0.3,0.4,0.6,0.4,1c0,0.4-0.1,0.7-0.4,1c-0.3,0.3-0.6,0.4-1,0.4s-0.7-0.1-1-0.4
					c-0.3-0.3-0.4-0.6-0.4-1c0-0.4,0.1-0.7,0.4-1s0.6-0.4,1-0.4S199.9,4.2,200.2,4.5z M199.9,9.4v15h-1.4v-15H199.9z"/>
				<path fill="#3A3A3A" d="M210.9,9.4V3.1h1.4v6.4h3v1.4h-3v13.6h-1.4V10.8h-3V9.4H210.9z"/>
				<path fill="#3A3A3A" d="M224.7,22.3c0.3,0.3,0.4,0.6,0.4,1c0,0.4-0.1,0.7-0.4,1c-0.3,0.3-0.6,0.4-1,0.4c-0.4,0-0.7-0.1-1-0.4
					c-0.3-0.3-0.4-0.6-0.4-1c0-0.4,0.1-0.7,0.4-1c0.3-0.3,0.6-0.4,1-0.4C224.1,21.9,224.4,22,224.7,22.3z"/>
				<path fill="#3A3A3A" d="M231.4,26.5c1.2-0.1,1.8-0.8,1.8-2.1v-15h1.4v15c0,2.1-1.1,3.3-3.2,3.5V26.5z M234.9,4.5
					c0.3,0.3,0.4,0.6,0.4,1c0,0.4-0.1,0.7-0.4,1c-0.3,0.3-0.6,0.4-1,0.4s-0.7-0.1-1-0.4c-0.3-0.3-0.4-0.6-0.4-1c0-0.4,0.1-0.7,0.4-1
					s0.6-0.4,1-0.4S234.6,4.2,234.9,4.5z"/>
				<path fill="#3A3A3A" d="M244,9.4h1.4v2.1c0.3-0.3,0.5-0.7,0.9-1c1.6-1.6,3.6-2.4,5.9-2.4c2.3,0,4.3,0.8,5.9,2.4
					c1.6,1.6,2.4,3.6,2.4,5.9c0,2.3-0.8,4.3-2.4,5.9s-3.6,2.5-5.9,2.5c-2.3,0-4.3-0.8-5.9-2.5c-0.3-0.3-0.6-0.7-0.9-1v8.8H244V9.4z
					 M245.3,15v2.9c0.3,1.3,0.9,2.5,1.9,3.5c1.4,1.4,3,2,4.9,2c1.9,0,3.5-0.7,4.9-2c1.4-1.4,2-3,2-4.9c0-1.9-0.7-3.5-2-4.9
					c-1.4-1.4-3-2-4.9-2c-1.9,0-3.5,0.7-4.9,2C246.2,12.6,245.6,13.7,245.3,15z"/>
			</g>
		</g>
	</g>
</g>
</svg>
