<svg version="1.0" id="main-aws" xmlns="http://www.w3.org/2000/svg" xmlns:xlink="http://www.w3.org/1999/xlink" x="0px" y="0px" viewBox="0 0 1800 1200" enable-background="new 0 0 1800 1200" xml:space="preserve">
<path id="bg" fill="#EF6C00" d="M941,161.1v46.2l-40.5,23.1L860,207.4v-46.2l40.5-23.1L941,161.1z">
	<animate id="svg-hex" attributeName="d"
		values="M901.2,183.5c0.4,0.4,0.4,1,0,1.4c-0.2,0.2-0.5,0.3-0.7,0.3c-0.3,0-0.5-0.1-0.7-0.3 c-0.4-0.4-0.4-1,0-1.4c0.2-0.2,0.5-0.3,0.7-0.3C900.8,183.2,901,183.3,901.2,183.5z;
			M941,161.1c2.2,2.2,2.2,44,0,46.2c-1.1,1.1-39,23.1-40.5,23.1c-1.5,0-39.4-22-40.5-23.1 c-2.2-2.2-2.2-44,0-46.2c1.1-1.1,39-23.1,40.5-23.1C902,138,939.9,160,941,161.1z"
		dur="0.8s"
		calcMode="spline"
		keySplines="0.42 0.0 0.58 1.0"
		repeatCount="1"
		begin="indefinite" />
</path>

<path id="border" fill="#FFFFFF" d="M900.5,142.6L864,163.5V205l36.5,20.9L937,205v-41.6L900.5,142.6z M935,203.9l-34.5,19.6 L866,203.9v-39.3l34.5-19.6l34.5,19.6V203.9z"/>
<g id="typo">
	<path fill="#FFFFFF" d="M886,187.1h-8.7l-3.5,9.6h-1.5l9.4-25.7l9.3,25.7h-1.5L886,187.1z M885.5,185.6l-3.8-10.5l-3.8,10.5H885.5z
		"/>
	<path fill="#FFFFFF" d="M901,192.9v-21.3h1.4v21.3c0.2,0.5,0.5,0.9,0.9,1.2c0.9,0.9,2.1,1.4,3.4,1.4s2.4-0.5,3.4-1.4
		c0.9-0.9,1.4-2,1.4-3.4v-19.2h1.4v19.3c0,1.6-0.6,3-1.8,4.2s-2.7,1.8-4.4,1.8s-3.2-0.6-4.4-1.8c-0.2-0.2-0.4-0.4-0.6-0.6
		c-0.2,0.2-0.4,0.4-0.6,0.6c-1.2,1.2-2.7,1.8-4.4,1.8s-3.2-0.6-4.4-1.8s-1.8-2.6-1.8-4.2v-19.3h1.4v19.2c0,1.3,0.5,2.4,1.4,3.4
		c0.9,0.9,2.1,1.4,3.4,1.4c1.3,0,2.4-0.5,3.4-1.4C900.4,193.8,900.7,193.4,901,192.9z"/>
	<path fill="#FFFFFF" d="M920.2,182.8c-1.8-0.6-3.2-1.4-4.2-2.4s-1.6-2.3-1.6-3.8c0-1.4,0.5-2.7,1.6-3.7c1-1,2.3-1.6,3.8-1.6
		s2.7,0.5,3.8,1.6c0.6,0.6,1,1.2,1.2,1.9l-1.3,0.5c-0.2-0.5-0.5-1-0.9-1.4c-0.8-0.8-1.7-1.1-2.8-1.1s-2,0.4-2.8,1.1
		c-0.8,0.8-1.1,1.7-1.1,2.8s0.4,2,1.1,2.8c0.7,0.7,1.7,1.3,3,1.9c2,0.6,3.7,1.7,5.1,3c1.5,1.4,2.2,3.2,2.2,5.2
		c0,2.1-0.7,3.8-2.2,5.3s-3.2,2.2-5.3,2.2s-3.8-0.7-5.3-2.2c-1.2-1.2-1.9-2.5-2.1-4.1l1.3-0.5c0.1,1.4,0.7,2.5,1.7,3.6
		c1.2,1.2,2.6,1.8,4.3,1.8s3.1-0.6,4.3-1.8s1.8-2.6,1.8-4.3s-0.6-3.1-1.8-4.3C923,184.2,921.7,183.4,920.2,182.8z"/>
</g>
</svg>
