<?xml version="1.0" encoding="utf-8"?>
<!-- Generator: Adobe Illustrator 19.1.0, SVG Export Plug-In . SVG Version: 6.00 Build 0)  -->
<svg version="1.0" id="レイヤー_1" xmlns="http://www.w3.org/2000/svg" xmlns:xlink="http://www.w3.org/1999/xlink" x="0px"
	 y="0px" viewBox="0 0 1800 1200" enable-background="new 0 0 1800 1200" xml:space="preserve">
<polyline fill="none" stroke="#00A0E9" stroke-miterlimit="10" points="332.2,622.5 282.1,627.7 320.8,577 "/>
<line fill="none" stroke="#00A0E9" stroke-miterlimit="10" x1="320.8" y1="577" x2="332.2" y2="622.5"/>
<line fill="none" stroke="#11BAD1" stroke-miterlimit="10" x1="468.7" y1="645.6" x2="366" y2="580.6"/>
<line fill="none" stroke="#11BAD1" stroke-miterlimit="10" x1="255.8" y1="700.1" x2="468.7" y2="645.6"/>
<line fill="none" stroke="#11BAD1" stroke-miterlimit="10" x1="366" y1="580.6" x2="255.8" y2="700.1"/>
<path fill="none" stroke="#1B2B79" stroke-width="4" stroke-miterlimit="10" d="M470.3,644.9c0.4,0.9-0.1,1.9-0.9,2.3
	c-0.9,0.5-1.9,0-2.3-0.9c-0.4-0.9,0.1-1.9,0.9-2.3C469,643.6,470,644.1,470.3,644.9"/>
<line fill="none" stroke="#00A0E9" stroke-miterlimit="10" x1="731.4" y1="125.6" x2="806.6" y2="59.4"/>
<line fill="none" stroke="#00A0E9" stroke-miterlimit="10" x1="741.6" y1="99.8" x2="896" y2="50.4"/>
<line fill="none" stroke="#11BAD1" stroke-miterlimit="10" x1="749.2" y1="122.1" x2="568.3" y2="94.5"/>
<line fill="none" stroke="#00A0E9" stroke-miterlimit="10" x1="547.9" y1="117" x2="396.7" y2="228.4"/>
<path fill="none" stroke="#11BAD1" stroke-width="5" stroke-miterlimit="10" d="M1556.8,417.2c-1.1,0-2-0.9-2-2s0.9-2,2-2s2,0.9,2,2
	S1557.9,417.2,1556.8,417.2"/>
<line fill="none" stroke="#11BAD1" stroke-miterlimit="10" x1="1359" y1="370" x2="1556.8" y2="415.2"/>
<path fill="none" stroke="#00A0E9" stroke-width="4" stroke-miterlimit="10" d="M1515.8,395.6c-1.1,0-1.9-0.9-1.9-1.9
	s0.9-1.9,1.9-1.9s1.9,0.9,1.9,1.9S1516.9,395.6,1515.8,395.6"/>
<line fill="none" stroke="#00A0E9" stroke-miterlimit="10" x1="1515.8" y1="393.7" x2="1419.6" y2="418.3"/>
<path fill="none" stroke="#00A0E9" stroke-width="0.5" stroke-miterlimit="10" d="M1330.6,51.2"/>
<line fill="none" stroke="#00A0E9" stroke-width="0.5" stroke-miterlimit="10" x1="1363.4" y1="64.8" x2="1330.6" y2="51.2"/>
<path fill="none" stroke="#00A0E9" stroke-width="0.5" stroke-miterlimit="10" d="M1356.7,39.6"/>
<path fill="none" stroke="#00A0E9" stroke-width="0.5" stroke-miterlimit="10" d="M1389.4,53.2"/>
<path fill="none" stroke="#00A0E9" stroke-width="0.5" stroke-miterlimit="10" d="M1363.9,64.7"/>
<line fill="none" stroke="#00A0E9" stroke-width="0.5" stroke-miterlimit="10" x1="1363.9" y1="64.7" x2="1389.4" y2="53.2"/>
<line fill="none" stroke="#00A0E9" stroke-width="0.5" stroke-miterlimit="10" x1="1389.4" y1="53.2" x2="1356.7" y2="39.6"/>
<path fill="none" stroke="#00A0E9" stroke-width="0.5" stroke-miterlimit="10" d="M1357,40.3"/>
<line fill="none" stroke="#00A0E9" stroke-width="0.5" stroke-miterlimit="10" x1="1357" y1="40.3" x2="1363.9" y2="64.7"/>
<path fill="none" stroke="#00A0E9" stroke-width="0.5" stroke-miterlimit="10" d="M1422.4,39.6"/>
<path fill="none" stroke="#00A0E9" stroke-width="0.5" stroke-miterlimit="10" d="M1389.6,53.2"/>
<line fill="none" stroke="#00A0E9" stroke-width="0.5" stroke-miterlimit="10" x1="1389.6" y1="53.2" x2="1422.4" y2="39.6"/>
<path fill="none" stroke="#00A0E9" stroke-width="0.5" stroke-miterlimit="10" d="M1415.2,64.7"/>
<path fill="none" stroke="#00A0E9" stroke-width="0.5" stroke-miterlimit="10" d="M1422.1,40.3"/>
<line fill="none" stroke="#00A0E9" stroke-width="0.5" stroke-miterlimit="10" x1="1422.1" y1="40.3" x2="1415.2" y2="64.7"/>
<line fill="none" stroke="#00A0E9" stroke-width="0.5" stroke-miterlimit="10" x1="1415.2" y1="64.7" x2="1389.6" y2="53.2"/>
<path fill="none" stroke="#1B2B79" stroke-width="0.5" stroke-miterlimit="10" d="M1600,681"/>
<line fill="none" stroke="#1B2B79" stroke-miterlimit="10" x1="1857" y1="348" x2="1200" y2="533"/>
<line fill="none" stroke="#00A0E9" stroke-miterlimit="10" x1="1200" y1="533" x2="1600" y2="681"/>
<line fill="none" stroke="#1B2B79" stroke-miterlimit="10" x1="1600" y1="681" x2="1857" y2="348"/>
<path fill="none" stroke="#11BAD1" stroke-width="5" stroke-miterlimit="10" d="M1598.5,679.5c1.1,0,2,0.9,2,2s-0.9,2-2,2
	s-2-0.9-2-2S1597.4,679.5,1598.5,679.5"/>
<path fill="none" stroke="#1B2B79" stroke-width="2" stroke-miterlimit="10" d="M282.4,628.5c-0.4,0.2-0.9,0-1.1-0.4
	c-0.2-0.4,0-0.9,0.4-1.1c0.4-0.2,0.9,0,1.1,0.4C283.1,627.8,282.8,628.3,282.4,628.5"/>
<path fill="none" stroke="#1B2B79" stroke-width="3" stroke-miterlimit="10" d="M1419.6,419.6c-0.7,0-1.3-0.6-1.3-1.3
	s0.6-1.3,1.3-1.3s1.3,0.6,1.3,1.3S1420.3,419.6,1419.6,419.6"/>
<path fill="none" stroke="#00A0E9" stroke-width="2" stroke-miterlimit="10" d="M806.6,60.4c-0.6,0-1-0.4-1-1s0.4-1,1-1s1,0.4,1,1
	S807.2,60.4,806.6,60.4"/>
<path fill="none" stroke="#00A0E9" stroke-width="0.5" stroke-miterlimit="10" d="M1363.4,64.8"/>
<line fill="none" stroke="#00A0E9" stroke-width="0.5" stroke-miterlimit="10" x1="1330.9" y1="51.9" x2="1337.8" y2="76.3"/>
<line fill="none" stroke="#00A0E9" stroke-width="0.5" stroke-miterlimit="10" x1="1337.8" y1="76.3" x2="1363.4" y2="64.8"/>
<path fill="none" stroke="#11BAD1" stroke-width="2" stroke-miterlimit="10" d="M1330.6,50.6c0.3,0,0.6,0.3,0.6,0.6
	s-0.3,0.6-0.6,0.6s-0.6-0.3-0.6-0.6S1330.3,50.6,1330.6,50.6"/>
<path fill="none" stroke="#11BAD1" stroke-width="1.5" stroke-miterlimit="10" d="M1337.7,76.7c-0.2,0-0.3-0.2-0.3-0.3
	s0.2-0.3,0.3-0.3s0.3,0.2,0.3,0.3S1337.9,76.7,1337.7,76.7"/>
<path fill="none" stroke="#00A0E9" stroke-width="1.5" stroke-miterlimit="10" d="M1363.4,65.4c-0.3,0-0.5-0.2-0.5-0.6
	s0.2-0.6,0.5-0.6s0.5,0.2,0.5,0.6S1363.7,65.4,1363.4,65.4"/>
<path fill="none" stroke="#1B2B79" stroke-width="1.5" stroke-miterlimit="10" d="M1356.7,39.9c-0.2,0-0.3-0.2-0.3-0.3
	s0.2-0.3,0.3-0.3s0.3,0.2,0.3,0.3S1356.9,39.9,1356.7,39.9"/>
<path fill="none" stroke="#11BAD1" stroke-width="1.5" stroke-miterlimit="10" d="M1388.9,53.2c0-0.3,0.2-0.5,0.5-0.5
	s0.5,0.2,0.5,0.5s-0.2,0.5-0.5,0.5S1388.9,53.5,1388.9,53.2"/>
<path fill="none" stroke="#1B2B79" stroke-width="1.5" stroke-miterlimit="10" d="M1415.7,64.7c0,0.2-0.2,0.3-0.3,0.3
	s-0.3-0.2-0.3-0.3s0.2-0.3,0.3-0.3S1415.7,64.5,1415.7,64.7"/>
<path fill="none" stroke="#11BAD1" stroke-width="1.5" stroke-miterlimit="10" d="M1422.4,39.2c0.2,0,0.3,0.2,0.3,0.3
	s-0.2,0.3-0.3,0.3s-0.3-0.2-0.3-0.3S1422.2,39.2,1422.4,39.2"/>
<polyline fill="none" stroke="#1B2B79" stroke-width="4.5125" stroke-miterlimit="10" points="672.6,844.1 676.8,848.3 674.1,851 
	671.4,848.3 674.1,845.6 "/>
<polyline fill="none" stroke="#00A0E9" stroke-miterlimit="10" points="680.2,836.4 674.1,842.5 668,836.4 "/>
<polyline fill="none" stroke="#00A0E9" stroke-width="4.5125" stroke-miterlimit="10" points="672.6,879.3 676.8,883.5 674.1,886.2 
	671.4,883.5 674.1,880.8 "/>
<polyline fill="none" stroke="#00A0E9" stroke-miterlimit="10" points="674.1,865.6 680.2,871.7 674.1,877.8 668.1,871.7 
	674.1,865.6 "/>
<polyline fill="none" stroke="#11BAD1" stroke-width="2" stroke-miterlimit="10" points="673.2,829.9 704.1,859.9 674.2,889.8 
	644.3,859.9 674.2,829.9 "/>
<polyline fill="none" stroke="#1B2B79" stroke-width="4.5125" stroke-miterlimit="10" points="672.6,855.7 676.8,859.9 674.1,862.6 
	671.4,859.9 674.1,857.2 "/>
<polyline fill="none" stroke="#1B2B79" stroke-width="4.5125" stroke-miterlimit="10" points="400.4,27.9 398.3,33.5 394.8,32.2 
	396.1,28.6 399.7,29.9 "/>
<polyline fill="none" stroke="#00A0E9" stroke-miterlimit="10" points="410.6,31.7 402.5,28.7 405.5,20.6 "/>
<polyline fill="none" stroke="#00A0E9" stroke-width="4.5125" stroke-miterlimit="10" points="368.4,42.6 366.4,48.1 362.8,46.8 
	364.1,43.2 367.7,44.6 "/>
<polyline fill="none" stroke="#00A0E9" stroke-miterlimit="10" points="381.5,38.3 378.5,46.4 370.5,43.4 373.5,35.3 381.5,38.3 "/>
<polyline fill="none" stroke="#11BAD1" stroke-width="2" stroke-miterlimit="10" points="413.6,22.6 399.2,63.2 359.6,48.4 
	374.3,8.8 414,23.5 "/>
<polyline fill="none" stroke="#1B2B79" stroke-width="4.5125" stroke-miterlimit="10" points="389.9,32.8 387.8,38.3 384.3,37 
	385.6,33.4 389.1,34.7 "/>
<path fill="none" stroke="#1B2B79" stroke-width="4" stroke-miterlimit="10" d="M398.3,227.7c0.4,0.9-0.1,1.9-0.9,2.3
	c-0.9,0.5-1.9,0-2.3-0.9c-0.4-0.9,0.1-1.9,0.9-2.3C396.9,226.4,397.9,226.9,398.3,227.7"/>
<path fill="none" stroke="#00A0E9" stroke-width="3" stroke-miterlimit="10" d="M549.5,116.3c0.4,0.9-0.1,1.9-0.9,2.3
	c-0.9,0.5-1.9,0-2.3-0.9s0.1-1.9,0.9-2.3C548.1,115,549.1,115.5,549.5,116.3"/>
<path fill="none" stroke="#00A0E9" stroke-width="3" stroke-miterlimit="10" d="M604.3,79c0.4,0.9-0.1,1.9-0.9,2.3
	c-0.9,0.5-1.9,0-2.3-0.9s0.1-1.9,0.9-2.3C603,77.7,604,78.2,604.3,79"/>
<path fill="none" stroke="#1B2B79" stroke-width="4" stroke-miterlimit="10" d="M569.9,93.8c0.4,0.9-0.1,1.9-0.9,2.3
	c-0.9,0.5-1.9,0-2.3-0.9s0.1-1.9,0.9-2.3C568.5,92.5,569.5,93,569.9,93.8"/>
<path fill="none" stroke="#1B2B79" stroke-width="4" stroke-miterlimit="10" d="M899.6,48.7c0.4,0.9-0.1,1.9-0.9,2.3
	c-0.9,0.5-1.9,0-2.3-0.9c-0.4-0.9,0.1-1.9,0.9-2.3C898.2,47.4,899.2,47.9,899.6,48.7"/>
<path fill="none" stroke="#1B2B79" stroke-width="4" stroke-miterlimit="10" d="M1360.6,369.3c0.4,0.9-0.1,1.9-0.9,2.3
	c-0.9,0.5-1.9,0-2.3-0.9c-0.4-0.9,0.1-1.9,0.9-2.3C1359.2,368,1360.2,368.5,1360.6,369.3"/>
<path fill="none" stroke="#00A0E9" stroke-width="4" stroke-miterlimit="10" d="M744.4,98.3c0.4,0.9-0.1,1.9-0.9,2.3
	c-0.9,0.5-1.9,0-2.3-0.9c-0.4-0.9,0.1-1.9,0.9-2.3C743.1,97.1,744,97.5,744.4,98.3"/>
<path fill="none" stroke="#00A0E9" stroke-width="4" stroke-miterlimit="10" d="M734,125.9c0.4,0.9-0.1,1.9-0.9,2.3
	c-0.9,0.5-1.9,0-2.3-0.9c-0.4-0.9,0.1-1.9,0.9-2.3C732.6,124.6,733.6,125.1,734,125.9"/>
<path fill="none" stroke="#00A0E9" stroke-width="12" stroke-miterlimit="10" d="M1206.8,532.2c1.2,3-0.3,6.3-3,7.5
	c-3,1.5-6.3,0-7.5-3c-1.2-3,0.3-6.3,3-7.5C1202.3,527.9,1205.6,529.4,1206.8,532.2"/>
</svg>
