<svg version="1.0" id="レイヤー_1" xmlns="http://www.w3.org/2000/svg" xmlns:xlink="http://www.w3.org/1999/xlink" x="0px" y="0px" viewBox="0 0 1800 1200" enable-background="new 0 0 1800 1200" xml:space="preserve">
<g>
	<defs>
	<path id="mask" fill="none" d="M1447.2,832H950l42.1-143h497.2L1447.2,832z">
		<animate id="svg-mask" attributeName="d"
			values="M949.6,832H946l42.1-143h3.6L949.6,832z;
				M1447.2,832H950l42.1-143h497.2L1447.2,832z"
			dur="1.5s"
			repeatCount="1"
			begin="indefinite" />
	</path>
	</defs>
	<clipPath id="mask_1_">
		<use xlink:href="#mask"  overflow="visible"/>
	</clipPath>
	<g id="base" clip-path="url(#mask_1_)">
		<g>
			<g>
				<g>
					<path fill="#3A3A3A" stroke="#3A3A3A" stroke-width="0.5" stroke-miterlimit="10" d="M1026.3,716.5h-7.6l-3,8.4h-1.3l8.1-22.4
						l8.1,22.4h-1.3L1026.3,716.5z M1025.8,715.2l-3.3-9.2l-3.3,9.2H1025.8z"/>
					<path fill="#3A3A3A" stroke="#3A3A3A" stroke-width="0.5" stroke-miterlimit="10" d="M1042.3,721.6V703h1.2v18.6
						c0.2,0.4,0.5,0.7,0.8,1.1c0.8,0.8,1.8,1.2,2.9,1.2s2.1-0.4,2.9-1.2s1.2-1.8,1.2-2.9V703h1.2v16.8c0,1.4-0.6,2.6-1.6,3.7
						c-1.1,1.1-2.3,1.6-3.8,1.6s-2.8-0.5-3.8-1.6c-0.2-0.2-0.4-0.4-0.5-0.6c-0.1,0.2-0.3,0.4-0.5,0.6c-1.1,1-2.3,1.6-3.8,1.6
						s-2.8-0.5-3.8-1.6c-1-1-1.6-2.2-1.6-3.7V703h1.2v16.7c0,1.1,0.4,2.1,1.2,2.9s1.8,1.2,2.9,1.2s2.1-0.4,2.9-1.2
						C1041.8,722.3,1042.1,722,1042.3,721.6z"/>
					<path fill="#3A3A3A" stroke="#3A3A3A" stroke-width="0.5" stroke-miterlimit="10" d="M1062.5,712.7c-1.6-0.5-2.8-1.2-3.7-2.1
						s-1.4-2-1.4-3.3s0.5-2.3,1.4-3.2s2-1.4,3.3-1.4s2.4,0.5,3.3,1.4c0.5,0.5,0.8,1,1,1.6l-1.1,0.4c-0.2-0.4-0.4-0.9-0.8-1.2
						c-0.7-0.7-1.5-1-2.4-1s-1.7,0.3-2.4,1s-1,1.5-1,2.4s0.3,1.7,1,2.4c0.6,0.6,1.5,1.2,2.6,1.7c1.8,0.6,3.2,1.4,4.4,2.6
						c1.3,1.3,1.9,2.8,1.9,4.6s-0.6,3.3-1.9,4.6s-2.8,1.9-4.6,1.9s-3.3-0.6-4.6-1.9c-1-1-1.6-2.2-1.8-3.5l1.2-0.4
						c0.1,1.2,0.6,2.2,1.5,3.1c1,1,2.3,1.5,3.7,1.5c1.5,0,2.7-0.5,3.7-1.5s1.5-2.3,1.5-3.7s-0.5-2.7-1.5-3.7
						C1064.9,714,1063.8,713.3,1062.5,712.7z"/>
					<path fill="#3A3A3A" d="M1080.1,702.2c-0.2,0.8-0.3,1.6-0.7,3.2h11.7v1.4H1079c-1,3-1.7,4.1-2.1,4.7c0.8-0.6,2.5-2,5-2
						c3.2,0,3.6,2.3,3.7,3.4c4-1.6,4.4-1.8,7-2.8l0.6,1.6c-2.5,0.8-5.1,1.7-7.4,2.6c0.1,1.1,0.2,2.7,0.2,3.6c0,0.4,0,1-0.1,1.8h-1.6
						c0.1-0.8,0.1-1.3,0.1-2.6c0-0.2,0-1.1-0.1-2.1c-3.4,1.5-6.4,3.5-6.4,5.7c0,2.6,3.7,2.6,6.4,2.6c3.6,0,6-0.3,7.2-0.4l0.1,1.6
						c-1.4,0.1-3.5,0.3-6.7,0.3c-2.8,0-8.6,0-8.6-4c0-3.2,3.9-5.6,7.7-7.3c-0.2-1.2-0.5-2.8-2.6-2.8c-2.6,0-5.1,2.4-5.4,2.7
						c-0.3,0.4-3.5,4.5-4.2,5.3l-1.1-1.3c1.4-1.3,4.2-3.9,6.4-10.7h-5.9v-1.4h6.3c0.4-1.6,0.5-2.5,0.6-3.3L1080.1,702.2z"/>
					<path fill="#3A3A3A" d="M1094,716.1c1.1-1.3,6.2-7.9,6.7-8.4c0.9-1,1.6-1.2,2.3-1.2c1.1,0,2,0.5,3.4,1.8l12,11.8l-1.2,1.4
						l-12.3-12.6c-0.2-0.2-1-0.9-1.8-0.9c-0.3,0-0.8,0.1-1.4,0.8c-0.8,0.9-2.2,2.7-6.4,8.6L1094,716.1z M1113.4,707.9
						c-0.9-1.6-2-2.8-2.6-3.6l1.2-0.8c0.9,1,1.8,2.1,2.7,3.5L1113.4,707.9z M1116.4,706.4c-0.7-1.2-1.7-2.5-2.6-3.5l1.1-0.8
						c0.5,0.5,1.4,1.5,2.7,3.4L1116.4,706.4z"/>
					<path fill="#3A3A3A" d="M1141.6,713v1.7h-23V713H1141.6z"/>
					<path fill="#3A3A3A" d="M1142.8,723.5c5.1-2.2,12.7-7.6,16.3-17.9H1144v-1.5h17.1c-1,4-2.8,7.7-5.3,10.9c0.9,0.7,5,4,9.4,8.3
						l-1.3,1.2c-2.4-2.6-6.7-6.6-9-8.4c-3,3.6-6.8,6.6-11.1,8.6L1142.8,723.5z"/>
					<path fill="#3A3A3A" d="M1170.9,703.2c-0.6,2.5-1.3,5.8-1.3,12c0,5.9,0.6,8.2,0.9,9.4l-1.7,0.2c-0.3-1.8-0.7-4.6-0.7-9.4
						c0-4.2,0.2-8.3,1.2-12.4L1170.9,703.2z M1177.6,714.5c-1.3,1.9-1.3,3.6-1.3,3.9c0,2.8,3.3,3.1,6.2,3.1c0.4,0,4.1-0.1,5.9-0.3
						v1.7c-1.5,0.1-2.7,0.2-4.7,0.2c-3.3,0-8.9,0-8.9-4.7c0-1.1,0.3-2.5,1.4-4.4L1177.6,714.5z M1187.8,705.3v1.5h-12.1v-1.5H1187.8
						z"/>
					<path fill="#3A3A3A" d="M1196.4,702.8c0,2-0.3,10.9-0.3,12.7c0,4,0.2,7.8,5.8,7.8c5.5,0,7-3,7.5-4.1c0.7-1.5,1.2-3.9,1.4-5.1
						l1.5,0.4c-0.6,3.7-1.7,10.3-10.2,10.3c-7,0-7.7-3.9-7.7-9.5c0-2,0.2-10.6,0.2-12.4h1.8V702.8z"/>
					<path fill="#3A3A3A" d="M1221.3,702.6c-0.1,1-0.2,2.1-0.4,3.7h8v1.5h-8.2c-1.2,7.4-2.9,13.5-4.8,17.5l-1.6-0.6
						c2.4-4.1,4.1-11.8,4.8-16.9h-4.1v-1.5h4.3c0.1-0.6,0.4-3.3,0.4-3.8L1221.3,702.6z M1226.4,716.9c-0.9,1.4-1.4,2.2-1.4,3.4
						c0,2.8,3.2,2.9,6.8,2.9c1.9,0,3.6-0.1,5.2-0.2v1.6c-0.8,0-4.8,0.1-5.1,0.1c-4,0-5.2-0.4-6.1-0.8c-1.6-0.7-2.4-2.2-2.4-3.6
						c0-1.7,0.9-3,1.6-4.1L1226.4,716.9z M1236.3,711.4c-0.7,0-1.4-0.1-2.6-0.1c-4.2,0-6.6,0.9-7.5,1.2l-0.4-1.4
						c1.4-0.5,4.2-1.5,10.5-1.3V711.4z"/>
					<path fill="#3A3A3A" d="M1378.8,746.9c-0.2,0.8-0.3,1.6-0.7,3.2h11.7v1.4h-12.1c-1,3-1.7,4.1-2.1,4.7c0.8-0.6,2.5-2,5-2
						c3.2,0,3.6,2.3,3.7,3.4c4-1.6,4.4-1.8,7-2.8l0.6,1.6c-2.5,0.8-5.1,1.7-7.4,2.6c0.1,1.1,0.2,2.7,0.2,3.6c0,0.4,0,1-0.1,1.8h-1.6
						c0.1-0.8,0.1-1.3,0.1-2.6c0-0.2,0-1.1-0.1-2.1c-3.4,1.5-6.4,3.5-6.4,5.7c0,2.6,3.7,2.6,6.4,2.6c3.6,0,6-0.3,7.2-0.4l0.1,1.6
						c-1.4,0.1-3.5,0.3-6.7,0.3c-2.8,0-8.6,0-8.6-4c0-3.2,3.9-5.6,7.7-7.3c-0.2-1.2-0.5-2.8-2.6-2.8c-2.6,0-5.1,2.4-5.4,2.7
						c-0.3,0.4-3.5,4.5-4.2,5.3l-1.1-1.3c1.4-1.3,4.2-3.9,6.4-10.7h-5.9V750h6.3c0.4-1.6,0.5-2.5,0.6-3.3L1378.8,746.9z"/>
					<path fill="#3A3A3A" d="M975.4,808.1c-4.3,0-5.5-1.6-6.1-2.3c-1,0.9-2.2,2-4.2,3.2l-0.5-1.5c1.6-0.8,2.8-1.6,4-2.6v-4.3h-3.5
						v-1.3h5v5.6c1,1.8,3.5,2.1,5.3,2.1h13.2l-0.2,1.1h-4.9v1.6h5v1.2h-5v3.5c0,0.9-0.2,1.7-1.9,1.7h-3.1l-0.3-1.5l3.2,0.1
						c0.6,0,0.8-0.1,0.8-0.7v-3h-17.1v-1.2H982v-1.6h-6.6V808.1z M970.1,796.4c-1.7-1.2-3-1.9-4.4-2.5l0.7-1.1
						c2,0.8,3.3,1.6,4.5,2.4L970.1,796.4z M974.2,815.4c-1.8-1.3-3-2.1-4.8-2.9l0.8-1c2.4,1,3.9,2,4.9,2.8L974.2,815.4z
						 M976.5,794.4c-0.3-0.6-0.6-1.1-1-1.7l1.3-0.3c0.5,0.7,0.8,1.2,1.2,1.9h4.5c0.4-0.8,0.5-1.2,0.7-1.9l1.3,0.3
						c-0.2,0.6-0.4,1.1-0.7,1.7h4.3v1.1h-7.8c-0.2,0.6-0.4,0.9-0.7,1.4h6.9v8.7h-13.6v-8.7h5.4c0.4-0.6,0.6-1,0.7-1.4h-7.4v-1.1
						H976.5z M985.4,799.5v-1.6h-11v1.6H985.4z M974.4,800.4v1.6h11v-1.6H974.4z M974.4,802.9v1.6h11v-1.6H974.4z"/>
					<path fill="#3A3A3A" d="M1002.9,793.7c0,14,7.2,18.9,10.9,21l-0.9,1.4c-9-5.9-10.2-12.4-10.7-16c-1,5-2.6,11.2-11.4,16
						l-0.8-1.3c5-2.8,11.2-7.5,11.2-19.7h-7.1v-1.4H1002.9z"/>
					<path fill="#3A3A3A" d="M1022.9,793.2c-0.3,2.1-0.8,4.7-0.9,4.9h3.3c2.6,0,5.8,0,5.8,6.4c0,2.5-0.4,6-1.3,8.2s-2.6,2.6-4.3,2.6
						c-1.6,0-3.7-0.3-4.4-0.3v-1.6c0.8,0.2,2.1,0.4,4,0.4c0.8,0,2.3,0,3.1-1.7c0.9-1.9,1.2-5.4,1.2-7.5c0-5.1-1.7-5.1-5.7-5.1h-2
						c-1.7,8.2-3.5,12.7-4.8,15.8l-1.5-0.6c2.2-4.8,3.8-9.9,4.7-15.1l-4.5,0.1v-1.5h4.8c0.4-2.6,0.5-2.8,0.7-5L1022.9,793.2z
						 M1036.4,806.9c-0.6-6.8-3-9.3-4.1-10.4l1.2-0.8c3.1,2.8,4.2,7.3,4.5,10.9L1036.4,806.9z"/>
					<path fill="#3A3A3A" d="M1044.2,796.8c-0.8,2.3-0.9,4.3-0.9,8.3c4.3-3.7,10-3.7,10.4-3.7c3.2,0,6.6,1.8,6.6,6
						c0,7.7-9,7.7-13,7.7c-1.9,0-3.1-0.1-5-0.3l-0.1-1.5c1.7,0.2,3.1,0.3,5.1,0.3c4.9,0,11.4-0.4,11.4-6.1c0-1.9-1.2-4.6-5.2-4.6
						c-3.2,0-8.6,1.4-10.2,4.6l-1.6-0.1c0-0.5,0-1,0.1-5.4c0-3,0.5-4.9,0.8-5.6L1044.2,796.8z M1056.1,796.3
						c-3.3-1.3-6.8-1.7-10.3-1.8l0.3-1.6c1.9,0.1,6.8,0.4,10.5,1.7L1056.1,796.3z"/>
					<path fill="#3A3A3A" d="M1067.8,802.8v7.3c0.2,0.8,0.7,2.4,2.2,3.1c1.4,0.7,3.2,1,4.3,1h13.3l-0.4,1.3h-12.8
						c-4.5,0-6-1.9-6.8-2.9c-0.4,0.4-2.3,2.4-3.6,3.5l-0.6-1.4c1-0.8,2.2-1.8,3-2.7v-7.9h-2.8v-1.3L1067.8,802.8L1067.8,802.8z
						 M1067.8,797.6c-1.6-1.8-2.2-2.5-3.9-3.6l0.9-1c1.4,0.8,2.7,2.1,4,3.6L1067.8,797.6z M1087.3,810.7h-8.6v2.8h-1.4v-2.8h-8.2
						v-1.2h8.2v-1.9h-7.1v-8h7.1v-1.9h-5.7v-1.2h5.7v-2.1h-6.5v3.3h-1.4v-4.5h17.5v4.5h-1.5v-3.3h-6.7v2.1h5.6v1.2h-5.6v1.9h7.2v8
						h-7.2v1.9h8.6V810.7z M1077.3,800.8h-5.7v2.3h5.7V800.8z M1077.3,804.2h-5.7v2.3h5.7V804.2z M1084.5,800.8h-5.8v2.3h5.8V800.8z
						 M1084.5,804.2h-5.8v2.3h5.8V804.2z"/>
					<path fill="#3A3A3A" d="M1111.5,814.1c0,1.4-0.4,2.1-1.8,2.1h-3.6l-0.2-1.4l3.5,0.1c0.6,0,0.6-0.5,0.6-0.8v-6h-7.8v7.9h-1.4v-8
						h-7.4c-0.5,4.4-1.9,6.6-3.3,8.2l-1-1c2.2-2.8,2.9-5.7,2.9-10.2v-11.5h19.4v20.6H1111.5z M1093.5,804.8c0,0.8,0,1.3,0,2h7.3
						v-5.5h-7.3V804.8z M1100.8,794.9h-7.3v5.1h7.3V794.9z M1110,794.9h-7.8v5.1h7.8V794.9z M1110,801.3h-7.8v5.5h7.8V801.3z"/>
					<path fill="#3A3A3A" d="M1126.9,796.3v-3.1h1.5v3.1h8.8v1.3h-8.8v4h8.3v1.3h-8.3v4.3c1.1,0.4,4,1.4,8.2,5l-1,1.5
						c-2.4-2.5-4.1-3.8-7.2-5.1v2c0,3.2-1.8,4.8-5.2,4.8c-4.7,0-6-2.4-6-4.3c0-2.7,2.7-4.7,6.7-4.7c1.4,0,2.5,0.2,3,0.3v-3.9h-10.2
						v-1.3h10.2v-4h-10.5v-1.3h10.5V796.3z M1126.9,808.2c-0.6-0.2-1.4-0.4-2.9-0.4c-2.9,0-5.3,1.1-5.3,3.3c0,2.5,2.9,2.9,4.3,2.9
						c3.1,0,3.9-1.2,3.9-3.5V808.2z"/>
					<path fill="#3A3A3A" d="M1162.5,796.3c-1.6-0.1-2.5-0.2-3.2-0.2c-1.4,0-1.9,0.2-3,0.6c-3.2,1.3-5.5,3.5-6.9,5.2
						c-1.7,2.1-2,3.7-2,5.2c0,3,1.7,4.5,4.1,5.4c2.7,0.9,5.8,1.1,8.5,1.1l-0.4,1.7c-6.9-0.3-13.8-1.5-13.8-7.9
						c0-4.5,3.5-8.4,8.9-11.2c-4,0.1-11.8,0.6-14.2,0.9l-0.2-1.7c0.8,0,6.5-0.3,9.5-0.4c5.7-0.3,7.2-0.3,12.7-0.3V796.3z
						 M1158.9,803.8c-0.2-0.4-1-2.2-2.1-3.7l1.2-0.6c1,1.2,1.5,2.1,2.2,3.6L1158.9,803.8z M1161.7,802.4c-0.5-1.2-1.3-2.4-2.1-3.5
						l1.2-0.6c0.7,0.9,1.7,2.2,2.2,3.4L1161.7,802.4z"/>
				</g>
			</g>
			<g>
				<g>
					<path fill="#1B2B79" d="M1174.4,791.9v7.2c6.1,1.7,10.4,4.1,13.8,6l-1.3,2.4c-4.9-2.9-7.6-4.2-12.5-5.9v14.1h-2.6v-23.8H1174.4
						z"/>
					<path fill="#1B2B79" d="M1213.7,802.3v2.6h-24v-2.6H1213.7z"/>
					<path fill="#1B2B79" d="M1224.7,801.2c3.5,1.6,6.2,3.7,6.9,4.3c1.7-2.2,2.9-4.5,3.7-8H1225c-3.2,4.5-6.1,6.2-7.3,6.9l-1.6-1.8
						c5.6-3.1,8-7.7,9.1-10.7l2.6,0.5c-0.3,0.7-0.6,1.5-1.4,2.9h12c-0.9,4.8-3.4,16.5-19.1,20.3l-1.4-2.1c4.9-1,8.6-2.8,12.1-6.1
						c-3.2-2.7-5.8-3.9-6.9-4.5L1224.7,801.2z"/>
					<path fill="#1B2B79" d="M1246.3,800.3c0,3-0.5,6.6-1.4,9.4c-1.1,3.2-3.1,5.1-4,6l-1.8-1.8c1.1-1.1,3-2.9,3.8-6.3
						c0.4-1.5,0.9-4.8,0.9-6.9V793h2.5V800.3z M1253.5,812.1c5-1.2,7.5-4.9,8.6-10.9l2.3,0.9c-2.3,11.6-10.3,12.6-13.4,12.8v-22.8
						h2.5V812.1z"/>
					<path fill="#1B2B79" d="M1281.2,791.9h2.5v5.3h4.8v2.3h-4.8v3c0,2.2-0.6,6.6-3.7,9.2c-3,2.5-7,3.2-9,3.5l-1-2.3
						c5.6-0.7,11.2-2.6,11.2-10.4v-3h-9.5v7.4h-2.5v-7.4h-4.8v-2.3h4.8V792h2.5v5.2h9.5V791.9z"/>
					<path fill="#1B2B79" d="M1291,812.3c2-2.1,3.6-4.6,4.1-10.4l2.5,0.2c-0.7,7.3-2.8,10.1-4.4,12L1291,812.3z M1303.8,792.3v4.8
						h9.2v2.3h-9.2v16.1h-2.5v-16.1h-9.6v-2.3h9.6v-4.8H1303.8z M1310.1,801.8c0.4,4,1.8,7.8,4.2,10.8l-2.3,1.5
						c-3.5-4.7-4.1-10.3-4.3-12L1310.1,801.8z M1315.5,793.4c0,1.5-1.2,2.8-2.8,2.8c-1.5,0-2.8-1.2-2.8-2.8s1.3-2.8,2.8-2.8
						C1314.2,790.6,1315.5,791.8,1315.5,793.4z M1311.2,793.4c0,0.8,0.6,1.5,1.4,1.5s1.4-0.6,1.4-1.5c0-0.8-0.6-1.4-1.4-1.4
						S1311.2,792.6,1311.2,793.4z"/>
					<path fill="#1B2B79" d="M1340,802.3v2.6h-24v-2.6H1340z"/>
					<path fill="#1B2B79" d="M1347.9,791.9v7.2c6.1,1.7,10.4,4.1,13.8,6l-1.3,2.4c-4.9-2.9-7.6-4.2-12.5-5.9v14.1h-2.6v-23.8H1347.9
						z"/>
					<path fill="#1B2B79" d="M1367.3,792.2c0,0.2-0.3,11.9-0.3,14.1c0,3.2,0.1,6.5,5.5,6.5c6.7,0,7.8-5,8.5-8.8l2.4,0.6
						c-0.6,3.2-2,10.4-10.8,10.4c-2.5,0-5.6-0.6-7.1-3.3c-1-1.9-1.1-4.7-1.1-7.9c0-1.9,0.2-10,0.1-11.7h2.8V792.2z"/>
					<path fill="#1B2B79" d="M1396.1,795l-0.1-2.9h2.4v2.9h9v2.2h-8.9v3.4h8.4v2.1h-8.4v4c3.1,1.3,5.8,3,8.3,5.2l-1.6,2.1
						c-2.5-2.3-3.9-3.6-6.6-4.9v1.2c0,4.8-4.4,5-5.9,5c-3.6,0-6-1.9-6-4.6c0-2.1,1.7-5,6.9-5c1.3,0,2.1,0.2,2.6,0.3v-3.3h-10v-2.1
						h10v-3.4h-10.5V795H1396.1z M1396.2,808.1c-0.6-0.2-1.5-0.5-2.9-0.5c-2.5,0-4.5,1-4.5,3s2.2,2.5,3.8,2.5c3.6,0,3.6-1.9,3.6-3.1
						V808.1z"/>
					<path fill="#1B2B79" d="M1424.1,791.9h2.5v3.1h7.6v2.2h-7.6v5.7c0.1,0.4,0.2,0.9,0.4,1.5c0.1,0.6,0.2,1.2,0.2,2.1
						c0,7.9-6.2,8.8-11,9l-0.8-2.3c7.7-0.1,8.9-2.6,9.4-5.2c-0.5,0.7-1.4,2.1-4,2.1c-3.3,0-5.3-2.6-5.3-5.5c0-3.1,2.2-5.5,5.7-5.5
						c1.9,0,2.6,0.6,3.1,1v-2.8h-13.5v-2.2h13.5L1424.1,791.9z M1424.3,804c-0.1-0.6-0.5-2.7-3.1-2.7c-1.7,0-3.4,1-3.4,3.3
						c0,1.5,0.8,3.4,3.2,3.4c3.3,0,3.4-3,3.4-3.1C1424.3,804.7,1424.3,804.2,1424.3,804z"/>
					<path fill="#1B2B79" d="M1443.1,811.4c0,2.2-1.8,4-4,4s-4-1.8-4-4s1.8-4,4-4C1441.3,807.3,1443.1,809.1,1443.1,811.4z
						 M1436.4,811.4c0,1.5,1.2,2.6,2.7,2.6s2.6-1.2,2.6-2.6c0-1.5-1.2-2.7-2.6-2.7C1437.6,808.7,1436.4,809.9,1436.4,811.4z"/>
				</g>
			</g>
		</g>
		<g>
			<g>
				<path fill="#1B2B79" d="M995.6,766.9c1.9-2.4,3.3-4.9,4.8-8.6l1.9,1.2c-0.9,2.6-3,6.8-5,9.4L995.6,766.9z M997.4,746.4
					c1.5,0.8,3.7,2.2,5.2,3.8l-1.6,1.8c-1.3-1.4-3.5-3-5.1-3.9L997.4,746.4z M1012.3,753.1v2.4c0,6.9,5,10.8,9,12.6l-1.3,2.1
					c-2.8-1.2-6.6-3.9-8.6-9.4c-0.5,1.8-2.2,7-9.9,9.4l-1.3-2.3c3.8-0.9,9.7-3.1,9.7-12.1v-2.7H1012.3z M1001.5,755.7
					c1.1-1,4-3.6,5.7-10.5l2.4,0.4c-0.4,1.6-0.8,2.7-1.3,4h12.3v2.1c-0.6,2-2.1,4.9-3.4,6.5l-2-1.2c1.2-1.4,2.5-3.5,3-5.4h-10.8
					c-0.8,1.5-2.1,4-4,5.6L1001.5,755.7z"/>
				<path fill="#1B2B79" d="M1043.5,745.2v6.3h3.8v2.1h-3.8v8.9h-9.7v-8.9h-5.4v13h18.3v2.2h-18.3v1.5h-2.2v-16.6h-3.9v-2.1h3.9
					v-6.1h2.2v6.1h5.4v-6.3h2.2v6.3h5.3v-6.3h2.2V745.2z M1036,753.6v6.9h5.3v-6.9H1036z"/>
				<path fill="#1B2B79" d="M1053.9,770.3h-2.3v-14.1c-1.1,1.6-1.6,2.2-2.3,2.9l-1.1-2.5c2.8-3.2,4.7-7.3,5.6-11.4l2.3,0.4
					c-0.2,1-0.7,3.1-2.2,6.4V770.3z M1073.5,752.1l0.1,2.1l-9.2,0.7c0.7,4.3,1.4,7.7,3.8,11.4c0.8,1.2,1.4,1.3,1.8,1.3
					c0.9,0,1.6-2.9,1.8-4.2l2.1,1.1c-0.5,2.4-1.5,5.9-3.6,5.9c-1.9,0-3.1-1.3-4.1-2.9c-2.7-3.9-3.5-8-4.2-12.4l-6.1,0.5l-0.2-2.2
					l6-0.4c-0.5-4.6-0.5-6.3-0.6-7.7h2.3c0,1.2,0.1,3.3,0.6,7.6L1073.5,752.1z M1070.5,751.2c-1.3-1.5-2.9-2.9-4.6-4.1l1.4-1.6
					c1.3,0.8,3.3,2.3,4.8,4L1070.5,751.2z"/>
				<path fill="#1B2B79" d="M1100.7,766.9c4.2-0.4,6.5-1.1,8-2.6c2.1-2.1,2.3-5.2,2.3-6.8c0-3.2-1.6-8-8.2-8.2
					c-0.1,5.4-2.1,17.7-8,17.7c-3.2,0-5-3.8-5-7.7c0-6.7,4.7-12.1,12.7-12.1c7.5,0,11.2,4.6,11.2,10.5c0,10.3-8.6,11.2-12.2,11.5
					L1100.7,766.9z M1095.9,751.2c-3.9,2.8-3.9,7.5-3.9,8.2c0,2,0.7,5.1,2.8,5.1c1.4,0,2.3-1.4,2.9-2.5c0.8-1.6,2.5-6.3,2.7-12.6
					C1099.4,749.6,1097.7,749.9,1095.9,751.2z"/>
				<path fill="#1B2B79" d="M1138.6,749.7c-2,11.2-7.7,17.8-19.1,19.7l-1-2.2c10.9-1.8,14.9-7.2,17-15.2h-10.3
					c-1.6,2.1-4.1,4.9-6.6,6.4l-1.5-1.9c5.2-3.3,7.6-7.5,8.8-10.7l2.7,0.5c-0.4,1-0.6,1.6-1.8,3.5L1138.6,749.7L1138.6,749.7z"/>
				<path fill="#1B2B79" d="M1162.3,753.5c-0.9,8.3-4,14.4-17.6,15.8l-1-2.2c7.9-0.7,14.4-2.7,15.7-11.3h-18.9v-2.3H1162.3z
					 M1160.8,747.1v2.3h-18.3v-2.3H1160.8z"/>
				<path fill="#1B2B79" d="M1177.1,745.8v4.3h9c0.2,5.2-0.9,11.3-4.9,14.8c-2.6,2.2-6.8,3.9-12.1,4.3l-0.8-2.3
					c11.9-1,15.2-6.5,15.2-14.6h-15.6v6.8h-2.3v-9h8.9v-4.3H1177.1z"/>
				<path fill="#1B2B79" d="M1196.7,745.9v7.2c4.9,1.5,9.9,3.8,13.7,5.9l-1.2,2.6c-3.8-2.4-8.4-4.6-12.5-6v14.1h-2.6v-23.8H1196.7z
					 M1205.7,751.8c-0.3-0.7-0.9-2.1-2.2-4.1l1.7-0.9c0.3,0.5,1.5,2.1,2.3,4.1L1205.7,751.8z M1209.2,750.4c-0.5-1.2-1.1-2.3-2.2-4
					l1.6-0.8c1.1,1.5,1.8,2.8,2.3,3.8L1209.2,750.4z"/>
				<path fill="#1B2B79" d="M1226.9,769.5h-2.6v-13.3c-0.9,0.6-5.2,3.4-10.8,5.4l-1.5-2.1c3.9-1.4,13.5-5.3,20.1-13.5l2.4,1.6
					c-1.1,1.1-4.1,4.2-7.5,6.7L1226.9,769.5L1226.9,769.5z"/>
				<path fill="#1B2B79" d="M1245.8,753.9c-2.2-1.7-6.3-3.4-8.3-4l1.2-2.2c0.5,0.1,4.9,1.4,8.6,3.8L1245.8,753.9z M1237.7,766
					c7.6-0.5,16-2.9,20.2-16.4l2.4,1.1c-2.2,6.2-5.7,16.3-21.7,18L1237.7,766z"/>
				<path fill="#1B2B79" d="M1282.8,748c-0.6,6.6-2.4,18.2-17.7,21l-1-2.3c13.7-2.3,15.1-11.7,15.7-16.4h-18.3V748H1282.8z"/>
				<path fill="#1B2B79" d="M1307.3,753.5c-0.9,8.3-4,14.4-17.6,15.8l-1-2.2c7.9-0.7,14.4-2.7,15.7-11.3h-18.9v-2.3H1307.3z
					 M1305.8,747.1v2.3h-18.3v-2.3H1305.8z"/>
				<path fill="#1B2B79" d="M1318.6,764.6c-1.9,0.9-4.5,1.9-7.5,2.7l-0.3-2.3c0.6-0.1,1.2-0.3,2.9-0.7V757h-2.3v-2h2.3v-6.2h-2.6
					v-2.1h7.2v2.1h-2.5v6.2h2v2.1h-2v6.5c0.9-0.3,1.8-0.6,2.7-0.9L1318.6,764.6z M1326.2,770.3h-2.2v-5c-2.4,1.9-4.4,3.2-7.5,4.3
					l-1.1-2c3.8-1.2,6.9-3,8.8-5.1h-4.6v-5.7h14.6v5.6l1.4,1.2c-1,1.1-2.6,2.4-3.2,2.9c1.4,0.9,2.7,1.5,3.7,1.8l-1,1.9
					c-4.8-2-7.4-4.8-8.8-7.3c-0.1,0.1-0.2,0.2-0.2,0.3L1326.2,770.3L1326.2,770.3z M1335.9,755.4h-17.6v-1.8h17.6V755.4z
					 M1335.2,752.2h-16.1v-6.1h16.1V752.2z M1323.9,747.8h-2.8v2.9h2.8V747.8z M1332.3,758.5h-10.5v2.5h10.5V758.5z M1328.5,747.8
					h-2.8v2.9h2.8V747.8z M1328.3,762.5c0.4,0.6,1.1,1.5,2.6,2.8c1.2-0.9,2.5-2.1,3.2-2.8H1328.3z M1333.2,747.8h-2.9v2.9h2.9V747.8
					z"/>
				<path fill="#1B2B79" d="M1347,764c-2.5,1.3-5.1,2.2-7.9,3l-0.3-2.3c0.7-0.2,1.5-0.3,3.4-0.9v-9.7h-3.2V752h3.2v-6.8h2.1v6.8h2.5
					v2.1h-2.5v8.9c1.3-0.5,1.9-0.8,2.6-1.1L1347,764z M1362.7,763.7h-4.2v3.7c0,0.7,0,0.8,0.6,0.8h1.8c0.9,0,1.1,0,1.2-3.2l2,0.5
					c-0.2,4.4-0.9,4.8-2.5,4.8h-3.2c-1.9,0-1.9-1.3-1.9-1.9v-4.6h-2.8c-0.7,3-2.2,5.5-7.2,6.8l-1.1-2.1c4.5-0.9,5.7-2.5,6.2-4.8
					h-2.9v-8.4h14.2v8.4H1362.7z M1354.4,747.4v-2.1h2.1v2.1h6.9v1.8h-2.6c-0.3,1.2-0.5,1.8-0.8,2.6h3.9v1.8h-16.6v-1.8h3.5
					c-0.1-0.7-0.4-1.9-0.6-2.6h-2.2v-1.8H1354.4z M1360.6,756.9h-10.1v1.7h10.1V756.9z M1360.6,760.1h-10.1v1.8h10.1V760.1z
					 M1357.8,751.8c0.3-0.6,0.6-1.9,0.7-2.6h-6c0.2,0.8,0.5,1.9,0.6,2.6H1357.8z"/>
			</g>
		</g>
		<g>
			<rect x="987.5" y="734.5" fill="none" stroke="#1B2B79" stroke-miterlimit="10" width="3" height="11"/>
			<rect x="987.5" y="734.5" fill="none" stroke="#1B2B79" stroke-miterlimit="10" width="11" height="3"/>
		</g>
		<g>
			<rect x="1083.5" y="765.5" fill="none" stroke="#1B2B79" stroke-miterlimit="10" width="3" height="11"/>
			<rect x="1075.5" y="773.5" fill="none" stroke="#1B2B79" stroke-miterlimit="10" width="11" height="3"/>
		</g>
	</g>
</g>
</svg>
