<?xml version="1.0" encoding="utf-8"?>
<!-- Generator: Adobe Illustrator 19.1.0, SVG Export Plug-In . SVG Version: 6.00 Build 0)  -->
<svg version="1.0" id="レイヤー_1" xmlns="http://www.w3.org/2000/svg" xmlns:xlink="http://www.w3.org/1999/xlink" x="0px"
	 y="0px" viewBox="0 0 1800 1200" enable-background="new 0 0 1800 1200" xml:space="preserve">
<path opacity="0.13" fill="none" stroke="#00A0E9" stroke-width="20" stroke-miterlimit="10" enable-background="new    " d="
	M337.5,386.1c3.7,1.4,91.1,34.3,156.8,109.4c46.4,53,64.8,107.7,72.2,144.3c8,39.9,5,67.1,4.8,68.2"/>
<path fill="none" stroke="#1B2B79" stroke-width="3" stroke-miterlimit="10" d="M-23.9,126c60.3,48.4,137.8,77.3,221.6,77.3
	c149.7,0,277.7-92.1,330.7-222.6"/>
<path fill="none" stroke="#00A0E9" stroke-width="9" stroke-miterlimit="10" d="M245.4,407.1c6,0,10.8,4.8,10.8,10.8
	s-4.8,10.8-10.8,10.8s-10.8-4.8-10.8-10.8S239.4,407.1,245.4,407.1"/>
<path fill="none" stroke="#1B2B79" stroke-width="8" stroke-miterlimit="10" d="M1432.2,641.6c-2.3,0-4.4-0.5-6.4-1.3
	c-5.9-2.5-10-8.3-10-15.1c0-9.1,7.3-16.4,16.4-16.4s16.4,7.3,16.4,16.4S1441.3,641.6,1432.2,641.6"/>
<path fill="none" stroke="#11BAD1" stroke-width="2" stroke-miterlimit="10" d="M1376.3,651.3c0,5.4-4.4,9.8-9.8,9.8
	s-9.8-4.4-9.8-9.8s4.4-9.8,9.8-9.8S1376.3,645.9,1376.3,651.3"/>
<path fill="none" stroke="#00A0E9" stroke-width="3" stroke-miterlimit="10" d="M378.9,418.6l8,3c3.7,1.4,91.1,34.3,156.8,109.4
	c46.4,53,64.8,107.7,72.2,144.3c8,39.9,5,67.1,4.8,68.2l-1,8.5l-17-2l1-8.5c0-0.2,2.8-26.2-4.7-63.6c-7-34.4-24.5-85.8-68.1-135.7
	c-62.7-71.7-149-104.3-149.9-104.6l-8-3L378.9,418.6"/>
<polyline fill="none" stroke="#00A0E9" stroke-width="9" stroke-miterlimit="10" points="960.5,66.8 968,71 968.3,76 964.2,78.7 
	959.7,76.5 959.4,71.5 965.5,66.8 "/>
<line opacity="0.81" fill="none" stroke="#00A0E9" stroke-width="9" stroke-linecap="square" stroke-linejoin="round" stroke-miterlimit="10" enable-background="new    " x1="1234" y1="252.4" x2="1591" y2="252.4"/>
<path opacity="0.2" fill="none" stroke="#00A0E9" stroke-width="8" stroke-linecap="square" stroke-linejoin="round" stroke-miterlimit="10" enable-background="new    " d="
	M711.6,244.6c0,0,80.4,48.3,205.7,47.4s172.2-35.6,172.2-35.6"/>
<path opacity="0.49" fill="none" stroke="#0A5DC1" stroke-width="29" stroke-linecap="square" stroke-linejoin="round" stroke-miterlimit="10" enable-background="new    " d="
	M1264,111c0,0,25,171,172,171"/>
<polyline fill="none" stroke="#00A0E9" stroke-width="4" stroke-miterlimit="10" points="1418.1,130.7 1435.8,139.5 1437.1,159.1 
	1420.7,169.8 1403,161 1401.7,141.4 1418.1,130.7 "/>
<polyline fill="none" stroke="#11BAD1" stroke-width="2" stroke-miterlimit="10" points="1418.7,140.5 1427.6,144.9 1428.2,154.7 
	1420.1,160 1411.2,155.6 1410.5,145.9 1418.7,140.5 "/>
<polyline fill="none" stroke="#1B2B79" stroke-width="2" stroke-miterlimit="10" points="172,320 155.2,361.4 111.1,337 172,320 "/>
<polyline fill="none" stroke="#1B2B79" stroke-miterlimit="10" points="1737.5,184.5 1737.5,194.5 1465.5,194.5 1465.5,184.5 
	1737.5,184.5 "/>
</svg>
