<?xml version="1.0" encoding="utf-8"?>
<!-- Generator: Adobe Illustrator 19.1.0, SVG Export Plug-In . SVG Version: 6.00 Build 0)  -->
<svg version="1.0" id="レイヤー_1" xmlns="http://www.w3.org/2000/svg" xmlns:xlink="http://www.w3.org/1999/xlink" x="0px"
	 y="0px" viewBox="73 -80 380 373" enable-background="new 73 -80 380 373" xml:space="preserve">
<g>
	<path fill="none" stroke="#1B2B79" stroke-width="6" stroke-miterlimit="10" d="M209.711-65.429
		c-7.488-7.488-16.657-11.285-27.251-11.285c-10.595,0-19.763,3.797-27.252,11.285c-7.491,7.491-11.278,16.652-11.257,27.231
		c0.018,10.572,3.825,19.73,11.312,27.217c7.487,7.487,16.645,11.293,27.218,11.312c10.578,0.02,19.739-3.767,27.23-11.257
		c7.487-7.487,11.285-16.656,11.285-27.251C220.995-48.773,217.198-57.941,209.711-65.429z"/>
</g>
<g>
	<line fill="none" stroke="#1B2B79" stroke-width="6" stroke-miterlimit="10" x1="248.648" y1="-30.186" x2="191.239" y2="27.223"/>
</g>
<g>
	<path fill="none" stroke="#1B2B79" stroke-width="6" stroke-miterlimit="10" d="M246.648-28.186l13.532,13.532
		c3.433,4.565,5.174,9.716,5.174,15.314c0,6.823-2.341,12.481-7.157,17.296c-4.84,4.84-10.509,7.193-17.332,7.193
		c-6.823,0-12.481-2.341-17.296-7.157L212.348,6.772"/>
</g>
<g>
	<line fill="none" stroke="#1B2B79" stroke-width="6" stroke-miterlimit="10" x1="293.421" y1="18.103" x2="235.342" y2="76.226"/>
</g>
<g>
	<line fill="none" stroke="#1B2B79" stroke-width="6" stroke-miterlimit="10" x1="277" y1="0.5" x2="310" y2="33.142"/>
</g>
<g>
	<line fill="none" stroke="#1B2B79" stroke-width="6" stroke-miterlimit="10" x1="318.079" y1="36.5" x2="260" y2="94.623"/>
</g>
<g>
	<path fill="none" stroke="#1B2B79" stroke-width="6" stroke-miterlimit="10" d="M355.711,77.571
		c-7.488-7.488-16.657-11.285-27.251-11.285c-10.595,0-19.763,3.797-27.252,11.285c-7.491,7.491-11.278,16.652-11.257,27.231
		c0.018,10.572,3.825,19.73,11.312,27.217c7.487,7.487,16.645,11.293,27.218,11.312c10.578,0.02,19.739-3.767,27.23-11.257
		c7.487-7.487,11.285-16.656,11.285-27.251C366.995,94.227,363.198,85.059,355.711,77.571z"/>
</g>
<g>
	
		<line fill="none" stroke="#1B2B79" stroke-width="6" stroke-miterlimit="10" x1="339.049" y1="171.077" x2="397.239" y2="112.887"/>
</g>
<g>
	<polyline fill="none" stroke="#1B2B79" stroke-width="6" stroke-miterlimit="10" points="395.239,114.887 396.388,116.036 
		373,204.5 	"/>
</g>
<g>
	<line fill="none" stroke="#1B2B79" stroke-width="6" stroke-miterlimit="10" x1="429.889" y1="146.522" x2="373" y2="203.5"/>
</g>
<line fill="none" stroke="#1B2B79" stroke-miterlimit="10" x1="454" y1="176.5" x2="382" y2="208.5"/>
<g>
	<path fill="none" stroke="#1B2B79" stroke-width="6" stroke-miterlimit="10" d="M141,11.5c1.083-1.583,1.44-5.284,1.423-6.776
		C142.349,0.729,140.86-2.706,138-5.5c-2.828-2.763-6.258-4.164-10.192-4.164l-0.146,0.001c-4.003,0.034-7.463,1.517-10.284,4.406
		c-2.798,2.864-4.192,6.351-4.146,10.36c0.064,3.442,0.934,7.396,2.582,11.769l0.102,0.226c3.005,5.704,4.562,11.584,4.632,17.476
		c0.095,6.106-1.933,11.195-6.199,15.563c-4.292,4.394-9.356,6.564-15.482,6.637l-0.307,0.002c-5.993,0-10.995-2.04-15.292-6.237
		c-4.368-4.267-6.516-9.328-6.565-15.477C76.651,30.739,77.917,25.895,80,22.5"/>
</g>
<line fill="none" stroke="#1B2B79" stroke-width="6" stroke-miterlimit="10" x1="164" y1="19.5" x2="107" y2="76.5"/>
<g>
	<line fill="none" stroke="#1B2B79" stroke-width="6" stroke-miterlimit="10" x1="107.731" y1="73.067" x2="136" y2="101.5"/>
</g>
<g>
	<line fill="none" stroke="#1B2B79" stroke-width="6" stroke-miterlimit="10" x1="137.175" y1="49.486" x2="162" y2="74.5"/>
</g>
<g>
	<line fill="none" stroke="#1B2B79" stroke-width="6" stroke-miterlimit="10" x1="161" y1="19.5" x2="189" y2="47.5"/>
</g>
<g>
	<line fill="none" stroke="#1B2B79" stroke-width="6" stroke-miterlimit="10" x1="202.03" y1="56.5" x2="145" y2="113.5"/>
</g>
<line fill="none" stroke="#1B2B79" stroke-width="6" stroke-miterlimit="10" x1="179.532" y1="104.877" x2="173" y2="140.5"/>
<g>
	<path fill="none" stroke="#1B2B79" stroke-width="6" stroke-miterlimit="10" d="M200.03,58.5l12.998,13.01
		c1.967,2.62,3.367,5.448,4.159,8.405c0.541,2.019,0.815,4.154,0.814,6.346c-0.003,6.573-2.26,12.023-6.902,16.663
		c-4.664,4.661-10.127,6.925-16.699,6.922c-4.5-0.002-8.599-1.116-12.183-3.312l-3.628-2.801c-0.274-0.233-0.552-0.492-0.85-0.79
		l-10.673-10.764"/>
</g>
<polyline fill="none" stroke="#1B2B79" stroke-width="6" stroke-miterlimit="10" points="237,90.5 204,163.5 277,128.5 "/>
<g>
	<line fill="none" stroke="#1B2B79" stroke-width="6" stroke-miterlimit="10" x1="288" y1="138.5" x2="229.921" y2="196.623"/>
</g>
<g>
	<path fill="none" stroke="#1B2B79" stroke-width="6" stroke-miterlimit="10" d="M339,205.5
		c-0.75-10.125-4.908-18.228-11.616-24.778c-7.622-7.446-16.845-11.222-27.409-11.222l-0.593,0.004
		c-10.82,0.139-20.14,4.134-27.699,11.873c-7.582,7.763-11.362,17.179-11.234,27.986c0.126,10.806,4.126,20.131,11.891,27.716
		c6.702,6.545,16.495,9.626,25.661,10.421"/>
</g>
<line fill="none" stroke="#1B2B79" stroke-width="6" stroke-miterlimit="10" x1="358.269" y1="209.5" x2="301.269" y2="266.5"/>
<g>
	<line fill="none" stroke="#1B2B79" stroke-width="6" stroke-miterlimit="10" x1="355.269" y1="209.5" x2="383.269" y2="237.5"/>
</g>
<g>
	<line fill="none" stroke="#1B2B79" stroke-width="6" stroke-miterlimit="10" x1="331.444" y1="239.486" x2="356.269" y2="264.5"/>
</g>
<g>
	<line fill="none" stroke="#1B2B79" stroke-width="6" stroke-miterlimit="10" x1="302" y1="263.067" x2="330.269" y2="291.5"/>
</g>
</svg>
