<?xml version="1.0" encoding="utf-8"?>
<!-- Generator: Adobe Illustrator 19.1.0, SVG Export Plug-In . SVG Version: 6.00 Build 0)  -->
<svg version="1.0" id="レイヤー_1" xmlns="http://www.w3.org/2000/svg" xmlns:xlink="http://www.w3.org/1999/xlink" x="0px"
	 y="0px" viewBox="0 0 139 53" enable-background="new 0 0 139 53" xml:space="preserve">
<g>
	<g>
		<path fill="#1B2B79" d="M32.6,0.3v6.9C35,8,40.2,9.8,45.5,12.8l-0.8,1.6c-4.7-2.8-7.4-4-12.1-5.7v13.6H31v-22H32.6z M42.3,5.5
			c-0.6-1.4-1.3-2.7-2.1-3.9L41.4,1c0.3,0.4,1.5,2.4,2.1,3.8L42.3,5.5z M45.3,4.3c-0.7-1.6-1.1-2.3-2-3.7L44.4,0
			c0.8,1,1.7,2.8,2.1,3.6L45.3,4.3z"/>
		<path fill="#1B2B79" d="M65.6,17.6c-0.8-0.8-2.6-2.8-5.7-5.4c-4,5.7-9.5,8.3-12,9.5L47,20.4c2.3-1,7.5-3.3,11.6-9.1
			c-3.9-3.1-6.3-4.5-7.9-5.4l0.8-1.2c2.8,1.5,5.4,3.3,7.9,5.3c2.6-4.1,3.9-8.1,4.3-9.4l1.6,0.5c-1.7,4.8-3.6,8.1-4.7,9.8
			c3.4,2.7,5.2,4.6,6,5.4L65.6,17.6z"/>
		<path fill="#1B2B79" d="M82.6,22.2H81V9.4c-3.3,2.5-7,4.5-11,5.9l-0.7-1.5c3.5-1.1,12.1-4.8,18.5-13.4l1.5,0.9
			c-3.3,4.1-6.2,6.3-6.7,6.8V22.2z"/>
		<path fill="#1B2B79" d="M100.6,7.3c-2.2-1.5-5.5-2.9-7.9-3.6l0.8-1.4c1.9,0.6,5.2,1.8,7.9,3.5L100.6,7.3z M93,19.6
			c7.4-0.2,15.5-4,19.1-15.5l1.4,0.6c-0.9,2.6-2.9,8-7.9,12c-3.5,2.8-7.7,4.3-12.2,4.6L93,19.6z"/>
		<path fill="#1B2B79" d="M12.8,36.8c0-2.4-0.5-4.4-5.6-4.4c-3.6,0-5.3,1.1-5.3,4c0,2,0.8,3,3,3.3l5.3,0.6c1.6,0.2,5.2,0.6,5.2,5.2
			c0,3.8-2,5.6-7.6,5.6c-6.3,0-7.8-2.5-7.8-6.3h1.7c0,2.8,0.6,4.9,6.1,4.9c5,0,5.9-1.6,5.9-4c0-2.1-0.7-3.5-3.5-3.8l-5.5-0.6
			c-3-0.3-4.5-2.1-4.5-4.8C0.2,31,5.2,31,7.1,31c6.8,0,7.4,2.9,7.4,5.9H12.8z"/>
		<path fill="#1B2B79" d="M29.3,36.8c0-2.4-0.5-4.4-5.6-4.4c-3.6,0-5.3,1.1-5.3,4c0,2,0.8,3,3,3.3l5.3,0.6c1.6,0.2,5.2,0.6,5.2,5.2
			c0,3.8-2,5.6-7.6,5.6c-6.3,0-7.8-2.5-7.8-6.3h1.7c0,2.8,0.6,4.9,6.1,4.9c5,0,5.9-1.6,5.9-4c0-2.1-0.7-3.5-3.5-3.8l-5.5-0.6
			c-3-0.3-4.5-2.1-4.5-4.8c0-5.4,4.9-5.4,6.9-5.4c6.8,0,7.4,2.9,7.4,5.9H29.3z"/>
		<path fill="#1B2B79" d="M35.6,31.2v18.2h10.9v1.5H33.9V31.2H35.6z"/>
		<path fill="#1B2B79" d="M47.9,48c0.9-0.1,1.3-0.1,1.9-0.2v-16H48v-1.3h11.7v1.3h-1.3v21H57v-5.1c-1.1,0.3-6,1.5-8.9,1.8L47.9,48z
			 M57,31.8h-5.8V36H57V31.8z M57,37.1h-5.8v4.2H57V37.1z M51.2,47.5c0.2,0,3.8-0.6,5.8-1.2v-3.8h-5.8V47.5z M58.7,51.5
			c1.3-0.8,3.5-2.2,5.5-4.9c-1.9-2.8-3.2-7-3.9-11.8l1.3-0.2c0.4,5,1.8,8.4,3.3,10.8c0.7-1.2,3-5.2,3.5-11.8h-8.9v-1.3H70
			c-0.4,6.6-2.3,11.5-4.1,14.4c1.9,2.5,4,3.9,5.1,4.7l-0.8,1.4c-1.7-1.3-3.5-2.8-5.1-4.9c-2.1,2.8-4.4,4.3-5.3,4.9L58.7,51.5z"/>
		<path fill="#1B2B79" d="M70.2,43.1c2.7-2,4.6-4.7,5.9-7.7l1.1,0.6c-1,2.2-1.9,3.5-2.5,4.4v12.5h-1.3V42c-1.3,1.5-2.1,2-2.6,2.4
			L70.2,43.1z M76.4,30.4c-1.4,2.7-3.4,5.2-5.5,6.8l-0.6-1.3c2.3-1.6,4.3-4.5,4.9-6L76.4,30.4z M92.8,41.9h-3.1v2.3h3.7v1.2h-3.7
			v5.5c0,0.6,0,1.8-1.7,1.8h-3l-0.2-1.5l2.9,0c0.4,0,0.7,0,0.7-0.7v-5.2H76.6v-1.2h11.7v-2.3H77.3v-1.2h15.5V41.9z M91.4,38.8H78.8
			v-8.1h12.6V38.8z M80,46c1.5,1.5,2.6,3.2,2.9,3.7l-1.1,0.8c-0.6-1-2-2.9-2.8-3.8L80,46z M90.1,31.9h-10v2.3h10V31.9z M90.1,35.3
			h-10v2.3h10V35.3z"/>
		<path fill="#1B2B79" d="M97.6,52.8h-1.4V38.6c-1.3,2-2.2,2.8-2.6,3.3l-0.9-1.2c2.4-2.3,4.8-6.6,6.1-10.7l1.4,0.4
			c-0.6,1.7-1.3,3.6-2.6,5.9V52.8z M115.7,36.7l0.1,1.2l-8.9,0.6c1.7,12,5.7,12.6,5.9,12.6c1.2,0,1.8-2.8,2.1-4.2l1.3,0.6
			c-0.2,1.1-1.2,5.2-3.4,5.2c-2.4,0-6.2-4.4-7.3-14.1L99.6,39l-0.1-1.3l5.7-0.4c-0.1-0.8-0.4-3.8-0.6-7.5h1.5
			c0.1,2.9,0.4,6.4,0.5,7.4L115.7,36.7z M113.2,35.1c-1.2-1.5-2.4-2.5-4.2-3.8l0.9-0.9c1.4,0.8,3.3,2.4,4.3,3.6L113.2,35.1z"/>
		<path fill="#1B2B79" d="M115.2,43.1c3.4-2.4,5.4-5.5,6.5-7.8l1.1,0.6c-0.4,0.7-1,2-2.5,4.1v12.9h-1.4V41.7
			c-1.7,1.8-2.7,2.4-3.2,2.8L115.2,43.1z M122.2,30.5c-2.9,4.7-5.3,6.2-6.3,6.8l-0.5-1.4c2.3-1.2,4.5-3.9,5.7-6L122.2,30.5z
			 M138.4,39.1h-4.2V51c0,0.6,0,1.8-1.7,1.8h-4l-0.2-1.5l3.9,0.1c0.5,0,0.6-0.1,0.6-0.7V39.1h-9.2v-1.3h14.9V39.1z M137.4,32.4
			h-12.8v-1.3h12.8V32.4z"/>
	</g>
</g>
</svg>
