<?xml version="1.0" encoding="utf-8"?>
<!-- Generator: Adobe Illustrator 19.1.0, SVG Export Plug-In . SVG Version: 6.00 Build 0)  -->
<svg version="1.0" id="レイヤー_1" xmlns="http://www.w3.org/2000/svg" xmlns:xlink="http://www.w3.org/1999/xlink" x="0px"
	 y="0px" viewBox="0 0 135 54" enable-background="new 0 0 135 54" xml:space="preserve">
<g>
	<g>
		<path fill="#1B2B79" d="M0,21.4c3.3-3.8,5.5-8.5,6-19l1.5,0.2c-0.9,10.2-2.2,15-6.3,19.7L0,21.4z M16.4,2.4
			c0.4,11.6,4.2,16.5,6.3,18.9l-1.3,1c-4-5-5.8-10.2-6.5-19.7L16.4,2.4z"/>
		<path fill="#1B2B79" d="M36.3,23.1h-1.6V10.2c-3.3,2.5-7,4.5-11,5.9L23,14.6c3.5-1.1,12.1-4.8,18.5-13.4l1.5,0.9
			c-3.3,4.1-6.2,6.3-6.7,6.8V23.1z"/>
		<path fill="#1B2B79" d="M65.9,3.9c-0.7,10.7-6.3,17.5-16.5,18.8l-0.5-1.4c3.6-0.5,13.8-2,15.3-16H46.3V3.9H65.9z M63.5,3.7
			c-0.2-0.6-0.8-1.8-1.7-3.2L63,0c1,1.3,1.6,2.6,1.8,3.1L63.5,3.7z M66.9,3.8c-0.6-1.5-1.3-2.6-1.9-3.4L66.4,0
			c0.7,0.9,1.3,1.9,1.9,3.2L66.9,3.8z"/>
		<path fill="#1B2B79" d="M72.6,15.9h-1.5V2h1.5V15.9z M86.3,12.7c0,8.3-6.7,9.9-13.6,10.2l-0.3-1.5c9-0.2,12.4-2.8,12.4-8.6V1.6
			h1.5V12.7z"/>
		<path fill="#1B2B79" d="M95.4,14.5c-0.4-2.5-1.2-4.4-2-6.1l1.3-0.4c1.3,2.5,1.9,4.9,2.2,6.2L95.4,14.5z M95.5,21.8
			c5.8-1.1,11.6-3.9,12.9-14.5l1.4,0.3C108,18.1,103.2,21.5,96,23.1L95.5,21.8z M101,13.3c-0.3-2-0.9-4.1-1.6-6l1.3-0.3
			c0.6,1.4,1.5,4.2,1.8,6L101,13.3z"/>
		<path fill="#1B2B79" d="M121.4,1.1V8c4.8,1.5,9.8,4,12.8,5.6l-0.8,1.5c-3.4-2.1-7.8-4.2-12.1-5.6v13.6h-1.6v-22H121.4z"/>
		<path fill="#1B2B79" d="M43.3,34.8c-0.8,4.5-2.7,8.9-5.8,12.3c-3.3,3.6-7.7,5-11.6,5.9l-0.7-1.5c4.3-0.9,8-2.2,11.1-5.6
			c2.5-2.7,4.2-6.1,5.1-9.8H31c-1.4,1.9-3,4-6.2,6.2L24,41.1c2.1-1.5,5.8-4.5,8.2-10.1l1.7,0.2c-0.4,0.9-0.8,1.8-1.8,3.5H43.3z"/>
		<path fill="#1B2B79" d="M66.2,38.3C64.9,49.2,58.6,51.9,50,52.8l-0.4-1.5c7.2-0.7,13.5-2.5,14.9-11.6H46.1v-1.4H66.2z M64.6,32.3
			v1.4H47.9v-1.4H64.6z"/>
		<path fill="#1B2B79" d="M79.5,31v4.2h8.6v1.7c0,4.6-1.2,8.9-4.5,11.7c-4,3.4-9,3.9-11.1,4l-0.5-1.4c1.8-0.2,6.8-0.7,10.7-3.8
			c2-1.6,3.8-4.3,3.8-10.2v-0.6H70.9v6.7h-1.5v-8.1h8.5V31H79.5z"/>
		<path fill="#1B2B79" d="M98.9,31.1V38c2.4,0.8,7.5,2.6,12.8,5.6l-0.8,1.6c-4.7-2.8-7.4-4-12.1-5.7v13.6h-1.6v-22H98.9z
			 M108.5,36.3c-0.6-1.4-1.3-2.7-2.1-3.9l1.2-0.6c0.3,0.4,1.5,2.4,2.1,3.8L108.5,36.3z M111.5,35.2c-0.7-1.6-1.1-2.3-2-3.7l1.2-0.6
			c0.8,1,1.7,2.8,2.1,3.6L111.5,35.2z"/>
	</g>
</g>
</svg>
