<?xml version="1.0" encoding="utf-8"?>
<!-- Generator: Adobe Illustrator 19.1.0, SVG Export Plug-In . SVG Version: 6.00 Build 0)  -->
<svg version="1.0" id="レイヤー_1" xmlns="http://www.w3.org/2000/svg" xmlns:xlink="http://www.w3.org/1999/xlink" x="0px"
	 y="0px" viewBox="0 0 104 116" enable-background="new 0 0 104 116" xml:space="preserve">
<g>
	<g>
		<path fill="#1B2B79" d="M23,68.3c1.2-3.4,1.3-8.6,0.6-12.2l-6.1,6l-0.7-0.7l6.2-6l-2.2-2.3l0.8-0.7l2.2,2.3l3.2-3.1l0.7,0.7
			l-3.2,3.1l6.1,6.2c1,1,0.9,1.8-0.2,2.9c-0.7,0.7-1.5,1.2-1.9,1.5l-0.8-0.7c0.5-0.4,1.3-0.9,2-1.6c0.6-0.6,0.6-0.9,0.2-1.3l-5-5.1
			c0.6,3.2,0.5,7.8-0.7,11.3L23,68.3z"/>
		<path fill="#1B2B79" d="M36.4,56.8c5.9-7.4,1.3-13.4,0-15.1l-8.7,8.5l-0.7-0.7l8.3-8.1c-0.1,0-0.2-0.1-0.3-0.3
			c-0.7-0.7-0.6-1.8,0-2.5c0.7-0.7,1.8-0.7,2.5,0c0.6,0.7,0.7,1.8-0.1,2.5c1.8,2.5,5.8,8.1,0,16L36.4,56.8z M35.4,40.7
			c0.4,0.4,1,0.4,1.4,0c0.4-0.4,0.4-1,0-1.4c-0.4-0.4-1-0.4-1.4,0C35,39.6,35,40.3,35.4,40.7z"/>
		<path fill="#1B2B79" d="M43.5,35.8c-0.9,0.2-2.4,0.6-5,2l-0.3-0.9c1.9-1.1,3.3-1.7,4.9-2.1L43.5,35.8z M45.4,39.6
			c-2,0.5-3.2,1-5,1.9l-0.3-1c1.5-0.9,2.9-1.4,4.9-2L45.4,39.6z M46.3,46.4c4.9-5.8,4.5-10.3,1.9-15.5l0.9-0.3
			c2.8,6.1,3.2,10-1.9,16.5L46.3,46.4z"/>
		<path fill="#1B2B79" d="M58.4,22.1l6.8,7l-6.6,6.5L58,34.9l6-5.8l-2.6-2.7L55.5,32l-0.6-0.6l5.8-5.6l-2.3-2.4L52.5,29l-0.6-0.6
			L58.4,22.1z"/>
		<path fill="#1B2B79" d="M65.5,15.9c-1.8,0.3-4,1.2-5.5,2l-0.2-1.1c1.2-0.6,3.4-1.6,5.5-2L65.5,15.9z M67.7,25.5
			c3.5-3.6,5.6-9.3,2-16.5l1-0.4c0.8,1.7,2.4,5.2,1.8,9.5c-0.4,3-1.7,5.8-3.7,8L67.7,25.5z"/>
		<path fill="#1B2B79" d="M73.4,1.7C73.7,2,74,2.3,74.5,2.8c1.5,1.6,2.3,2.2,3.2,2.5c0.9-1.7,1.9-3.1,3.5-5.3l0.8,0.7
			c-1.5,1.9-7.1,9-4.2,12c1.6,1.7,3.4,0.2,6.5-2.8c2-1.9,3.2-3.3,3.7-3.9l0.8,0.8c-1.6,1.7-2.7,2.8-3.8,3.9
			c-2.2,2.2-5.4,5.3-7.9,2.8c-1.2-1.2-1.6-3.5,0.1-7.1C76,5.8,75,4.7,74.8,4.5c-0.7-0.7-1.9-1.8-2.1-2.1L73.4,1.7z"/>
		<path fill="#1B2B79" d="M5.6,100l0.7-0.7l2.4,2.5l2.3-2.2l0.7,0.7l-2.3,2.2l1.8,1.8c1.2,1.2,2.7,3.5,2.1,6.2
			c-0.5,2.4-2.1,4.3-2.6,5l-1-0.5c0.6-0.6,2.1-2.4,2.6-4.8c0.5-2.7-1.8-5.1-1.9-5.2l-1.8-1.8L3.8,108l3.5,3.6l-0.7,0.7l-3.5-3.6
			l-2.2,2.2l-0.7-0.7l2.2-2.2L0,105.6l0.7-0.7l2.4,2.4l4.9-4.8L5.6,100z"/>
		<path fill="#1B2B79" d="M24.1,91.5l0.8,0.8l-10.7,10.5l-0.8-0.8L24.1,91.5z"/>
		<path fill="#1B2B79" d="M21.8,84.9l4,4.1c1.4-2.1,3.4-5.5,4.3-9.1l1.1,0.1c-0.8,3.2-3.4,7.7-4.8,9.7l3,3.1c0.9,1,1.2,1.1,3.1-0.8
			l3.2-3.1c0.8-0.8,1.9-2,2.6-2.9l0.7,0.7c-0.6,0.8-2.1,2.3-2.8,3l-3.2,3.1C31,95,30.2,95,28.8,93.5l-7.7-7.9L21.8,84.9z M30.2,79.1
			c-0.4-0.1-1.3-0.5-2.5-0.8l0.3-0.8c0.8,0.1,1.7,0.4,2.5,0.7L30.2,79.1z M31.4,77.3c-0.2-0.1-1.4-0.5-2.5-0.7l0.3-0.9
			c0.9,0.2,1.6,0.3,2.4,0.7L31.4,77.3z"/>
		<path fill="#1B2B79" d="M40,85.5c1.4-3.4,2.5-9.4-0.6-15.8l-7.1,6.9l-0.7-0.7l8-7.8c1.3,2.3,2.2,4.9,2.5,7.5
			c0.8-0.1,4.1-0.4,8.2-0.4l0,1.2c-2.3-0.1-6.2,0-8,0.2c0.2,3.1-0.2,6.2-1.3,9.1L40,85.5z"/>
		<path fill="#1B2B79" d="M46.7,59.4l1.8,1.9l4.7-4.5l8,8.2c0.8,0.9,0.9,1.2,0.1,2l-2,2l-0.8-0.5l2.1-2c0.3-0.3,0.3-0.4,0-0.7L53,58
			l-3.9,3.8c1.3,1.1,3.6,2.5,8.9,1.8l0,1c-2.7,0.2-5.6,0.1-8-1.2c1.3,2.3,1.8,4.1,0.8,8.2l-1-0.2c1.6-4.4-0.2-7.2-1.4-8.8l-3.9,3.8
			l8.5,8.7l-0.7,0.7l-9-9.2l4.6-4.5L46,60.1L46.7,59.4z"/>
		<path fill="#1B2B79" d="M57.5,48.8l1.1,1.1l4.9-4.7l2.4,2.5l-0.7,0.6l-1.8-1.9l-9.1,8.9l1.8,1.9l-0.7,0.7l-2.4-2.5l4.9-4.8
			l-1.1-1.1L57.5,48.8z M56.6,58.5c0.6-1.3,1.2-3,1.1-5.1l0.8-0.2c0.2,2.3-0.7,4.6-1,5.4L56.6,58.5z M71.9,56.4l-0.7,0.7l-0.6-0.6
			l-6.4,6.3l0.6,0.6L64.2,64l-4-4.1c-0.4,0.8-0.7,1.5-0.9,1.9l-0.9-0.2c1.5-2.6,2.7-6,2.3-8.2l0.7-0.7c2.1,0.3,5.1-0.5,8.1-2.2
			l0.3,0.9c-0.6,0.3-1.1,0.5-1.9,0.9L71.9,56.4z M67.6,52.5c-1.5,0.6-2.6,0.8-3,0.9c-1.6,0.3-2.4,0.2-2.9,0.1c0.2,2.3-1,5.4-1.3,6
			L67.6,52.5z M61.5,49.8c1.9,0,3.4-0.3,5.2-0.9l0.1,0.9c-2.7,0.8-4.4,0.9-5.4,0.8L61.5,49.8z M67.7,53.5l-6.4,6.3l2.3,2.4l6.4-6.3
			L67.7,53.5z"/>
		<path fill="#1B2B79" d="M77.6,48.6c1.3-1.5,4.4-5.2,0.6-9.1c-1-1-4.4-3.8-8.4,0c2.3,2.8,4.3,5.5,5,8.5c0.4,1.9-0.1,2.9-0.5,3.3
			c-1.2,1.1-3.5,0.6-5.4-1.3c-3-3.1-3.2-7.6,0.4-11.1c3.8-3.7,7.5-2.3,9.7-0.1c4.4,4.5,0.9,8.8-0.4,10.4L77.6,48.6z M69.5,49.3
			c1,1,3,2.3,4,1.3c0.5-0.4,0.6-1.2,0.3-2.4c-0.6-2.9-3-5.9-4.7-7.9C66.3,43.7,67.4,47.2,69.5,49.3z"/>
		<path fill="#1B2B79" d="M79,30.6c0.4,1.7,1,4.2,1.2,6.1c0.6-0.6,0.9-1,1.8-2c-0.6-0.3-0.9-0.4-1.3-0.5l0.2-0.8
			c1.1,0.3,2.7,1,3.2,1.3l-0.4,0.8c-0.3-0.2-0.5-0.3-1.1-0.6c-0.2,0.2-0.5,0.6-1.1,1.4l5.3,5.5l-0.7,0.6L81,37
			c-0.3,0.3-1.6,1.7-1.8,2l-0.7-0.5c0.4-0.4,0.7-0.6,1.1-1.1c0-0.4-0.1-1-0.2-1.5c-0.5-0.1-2.4-0.1-3.6,0.1l-0.1-0.8
			c0.4,0,0.6-0.1,0.8-0.1c-0.2-1.2-0.6-2.7-1.1-3.7l0.9-0.4c0.5,1.5,0.8,3,1,4.1c0.5,0,1.6,0,1.9,0c-0.2-1.4-0.6-2.8-1-4.2L79,30.6z
			 M86.7,30.5L85.8,30l1.4-1.3c0.5-0.5,0.9-0.9-2.3-4.4l-2.5,2.5c1.8,2.4,2.2,4.4,1.5,7.1l-0.9-0.1c0.3-1.1,0.9-3.6-1.2-6.4
			l-2.1,2.1l-0.6-0.6l6-5.8c1,1,3,3.2,3.4,4.1c0.5,1.1,0.1,1.6-0.4,2.2L86.7,30.5z M83.1,43.3c-0.4-1.3-1.7-3.1-2.3-3.8l0.7-0.5
			c0.4,0.5,1.8,2.2,2.5,4L83.1,43.3z M86.9,38.9c-1.3-1.1-3.2-2-3.4-2l0.4-0.7c0.6,0.3,2.5,1.2,3.5,2L86.9,38.9z M95,33.9l-0.7,0.6
			l-0.6-0.7l-4.1,4l0.6,0.7l-0.7,0.6l-5.1-5.3l5.4-5.3L95,33.9z M89.8,29.9l-4.1,4l3.3,3.4l4.1-4L89.8,29.9z"/>
		<path fill="#1B2B79" d="M88.2,26.8c1.3-2.7,1.8-6.7,1.3-9.2l0.7-0.7c2.8,0.5,6.3,0.1,9.3-1.3l0.3,1.1c-3,1.2-6.4,1.6-9.3,1.1
			c0.4,2.4,0,6.4-1.3,9.2L88.2,26.8z M93.8,25.1c2.3,2.4,3.3,4.7,2,8l-1-0.3c0.9-1.9,1.3-4.1-1.7-7.1l-1.8-1.9l0.7-0.7L93.8,25.1z
			 M103.3,25.8l-0.7,0.7l-6.9-7l0.7-0.7L103.3,25.8z"/>
	</g>
</g>
</svg>
