<?xml version="1.0" encoding="utf-8"?>
<!-- Generator: Adobe Illustrator 19.1.0, SVG Export Plug-In . SVG Version: 6.00 Build 0)  -->
<svg version="1.0" id="レイヤー_1" xmlns="http://www.w3.org/2000/svg" xmlns:xlink="http://www.w3.org/1999/xlink" x="0px"
	 y="0px" viewBox="0 0 112 53" enable-background="new 0 0 112 53" xml:space="preserve">
<g>
	<g>
		<path fill="#1B2B79" d="M17.2,2v1.2c-0.9,1.3-2.2,2.7-2.4,2.9h5.4v12.4H3.2V6.6C2.1,7.3,1.5,7.7,0.8,8L0,6.8C3.2,5.3,6.1,3.1,8,0
			l1.5,0.2C9.1,1,8.8,1.5,8.4,2H17.2z M0.3,21.7c1.5-0.3,5.6-1.3,7.5-2.6l1,0.9c-2.3,1.6-6.8,2.7-7.7,2.9L0.3,21.7z M7.4,3.1
			C6.6,4,5.5,5,4,6.1h8.9c1.3-1,2.2-2.4,2.5-2.9H7.4z M18.8,7.2H4.6v2.5h14.1V7.2z M18.8,10.9H4.6v2.5h14.1V10.9z M18.8,14.5H4.6
			v2.8h14.1V14.5z M15.3,19.1c1.2,0.6,4.9,2.2,7.7,2.4l-0.7,1.2c-2.4-0.3-6.3-1.8-8-2.8L15.3,19.1z"/>
		<path fill="#1B2B79" d="M22.3,13.8c1.4-1.2,3.3-3.2,5.3-8.2l1.2,0.6c-0.4,0.8-0.8,1.8-1.8,3.6v13h-1.3V11.9
			c-1.3,1.9-2.3,2.7-2.7,3.1L22.3,13.8z M29.1,2V0h1.4v2h6.8V0h1.4v2h6.8v1.2h-6.8v2.3h-1.4V3.3h-6.8v2.3h-1.4V3.3h-6.5V2H29.1z
			 M45.5,8h-2.8v13c0,1-0.1,1.8-1.8,1.8h-3l-0.3-1.3l2.9,0.1c0.8,0,0.8-0.1,0.8-0.9V8H29.5V6.8h16V8z M38.6,18.2h-8.3v-7.6h8.3V18.2
			z M37.3,11.8h-5.7v5.3h5.7V11.8z"/>
		<path fill="#1B2B79" d="M67,8.1v1.4h-8.8l0,0.9c-0.2,7.1-3,10.2-9.8,11.7l-0.6-1.4c6.9-1.2,8.6-4.4,8.9-10.1l0-1.1H46.1V8.1H67z
			 M64.9,1.4v1.5H48.2V1.4H64.9z"/>
		<path fill="#1B2B79" d="M68.2,20.7c4.9-2.1,12.3-7.4,15.8-17.3H69.4V1.9h16.5c-1,3.8-2.7,7.4-5.1,10.5c0.9,0.7,4.8,3.8,9,8.1
			l-1.2,1.2c-2.3-2.5-6.5-6.4-8.7-8.1c-2.9,3.5-6.6,6.4-10.7,8.3L68.2,20.7z"/>
		<path fill="#1B2B79" d="M99.1,0.4v6.9c4.8,1.4,9.8,4,12.8,5.6l-0.8,1.5c-3.4-2.1-7.8-4.2-12.1-5.6v13.6h-1.6v-22H99.1z"/>
		<path fill="#1B2B79" d="M28,30.5h1.5v5.2h4.7v1.4h-4.7v3.8c0,2.5-0.8,6.5-4.1,8.8c-3,2.1-6.6,2.5-7.8,2.6L17,50.7
			c1.2-0.1,4.7-0.4,7.7-2.4C28,46,28,41.1,28,40.9v-3.8H17.9l0,7.3h-1.5v-7.3h-4.6v-1.4h4.6v-5h1.5v5H28V30.5z"/>
		<path fill="#1B2B79" d="M56.4,40.6v1.6H34.2v-1.6H56.4z"/>
		<path fill="#1B2B79" d="M60.8,31.3l0,8.5c3.7-0.8,9.3-2.4,14-5.2l1.1,1.2c-4.1,2.6-11.6,4.6-15.1,5.4v6.3c0,2,0.1,2.4,4.1,2.4h6.6
			c1.7,0,4.1-0.1,5.8-0.3l0.1,1.5c-1.4,0.2-4.6,0.3-6,0.3h-6.5c-4.7,0-5.5-0.9-5.5-3.8V31.3H60.8z M75.7,33.9
			c-0.2-0.5-0.8-1.9-1.8-3.4l1.2-0.6c0.8,1,1.4,2.2,1.9,3.3L75.7,33.9z M78.7,33.2c-0.1-0.3-1-2-1.9-3.3l1.2-0.6
			c0.8,1.1,1.3,2,1.9,3.2L78.7,33.2z"/>
		<path fill="#1B2B79" d="M79.5,50.7c4.9-2.2,12.3-7.4,15.8-17.3H80.6v-1.4h16.5c-1,3.8-2.7,7.4-5.1,10.5c0.9,0.7,4.8,3.8,9,8.1
			l-1.2,1.2c-2.3-2.5-6.5-6.4-8.7-8.1c-2.9,3.5-6.6,6.4-10.7,8.3L79.5,50.7z"/>
	</g>
</g>
</svg>
