<?xml version="1.0" encoding="utf-8"?>
<!-- Generator: Adobe Illustrator 19.1.0, SVG Export Plug-In . SVG Version: 6.00 Build 0)  -->
<svg version="1.0" id="レイヤー_1" xmlns="http://www.w3.org/2000/svg" xmlns:xlink="http://www.w3.org/1999/xlink" x="0px"
	 y="0px" viewBox="148 52 530 110" enable-background="new 148 52 530 110" xml:space="preserve">
<path fill="none" stroke="#1B2B79" stroke-width="6" stroke-miterlimit="10" d="M202.287,56.536
	c-14.017,0-26.152,5.028-36.067,14.943c-9.915,9.916-14.944,22.051-14.944,36.068c0,14.022,5.03,26.141,14.951,36.022
	c9.911,9.877,22.045,14.886,36.06,14.886c14.014,0,26.148-5.009,36.062-14.887c9.92-9.882,14.949-22,14.949-36.021
	c0-14.015-5.027-26.15-14.942-36.067C228.438,61.564,216.303,56.536,202.287,56.536z"/>
<path fill="none" stroke="#1B2B79" stroke-width="6" stroke-miterlimit="10" d="M265.614,55.17l-0.33,72.155
	c0.02,8.884,3.047,16.174,9.254,22.287c2.1,2.069,4.372,3.789,6.754,5.114c4.584,2.55,9.808,3.758,15.528,3.591
	c8.742-0.254,15.995-3.523,22.174-9.996c5.139-5.384,8.137-11.651,9.161-19.155l0.324-75.824"/>
<line fill="none" stroke="#1B2B79" stroke-width="6" stroke-miterlimit="10" x1="346.624" y1="54.7" x2="346.586" y2="160.7"/>
<path fill="none" stroke="#1B2B79" stroke-width="6" stroke-miterlimit="10" d="M346.624,57.7l25.157,0.012
	c4.438,0.632,8.526,2.013,12.153,4.107c2.476,1.429,4.806,3.23,6.925,5.351c6.356,6.36,9.444,13.816,9.441,22.794
	c-0.003,9.02-3.651,15.801-10.012,22.155c-4.354,4.351-9.397,7.238-14.988,8.581l-6.219,0.801c-0.49,0.039-1.009,0.058-1.587,0.058
	l-20.736-0.087"/>
<line fill="none" stroke="#1B2B79" stroke-width="6" stroke-miterlimit="10" x1="371.657" y1="122.387" x2="397.3" y2="160.7"/>
<line fill="none" stroke="#1B2B79" stroke-width="6" stroke-miterlimit="10" x1="414" y1="55" x2="414" y2="161"/>
<path fill="none" stroke="#1B2B79" stroke-width="6" stroke-miterlimit="10" d="M414,58h25.545c7.345,1,13.674,3.955,18.815,9.095
	c6.266,6.265,9.311,13.503,9.311,22.347c0,8.889-3.046,16.118-9.311,22.384c-6.266,6.266-13.611,9.174-22.456,9.174H414"/>
<line fill="none" stroke="#1B2B79" stroke-width="6" stroke-miterlimit="10" x1="482.098" y1="54.7" x2="482.098" y2="160.569"/>
<line fill="none" stroke="#1B2B79" stroke-width="6" stroke-miterlimit="10" x1="482.098" y1="157.569" x2="526.3" y2="157.569"/>
<polyline fill="none" stroke="#1B2B79" stroke-width="6" stroke-miterlimit="10" points="531.3,160.7 567.526,61.7 604.3,160.7 "/>
<line fill="none" stroke="#1B2B79" stroke-width="6" stroke-miterlimit="10" x1="549.404" y1="117.397" x2="585.612" y2="117.413"/>
<line fill="none" stroke="#1B2B79" stroke-width="6" stroke-miterlimit="10" x1="613.3" y1="54.5" x2="613.3" y2="160.7"/>
<polyline fill="none" stroke="#1B2B79" stroke-width="6" stroke-miterlimit="10" points="613.3,57.5 615.41,57.5 674.3,159.7 "/>
<line fill="none" stroke="#1B2B79" stroke-width="6" stroke-miterlimit="10" x1="674.344" y1="54.7" x2="674.3" y2="160.7"/>
</svg>
