<?xml version="1.0" encoding="utf-8"?>
<!-- Generator: Adobe Illustrator 19.1.0, SVG Export Plug-In . SVG Version: 6.00 Build 0)  -->
<svg version="1.0" id="レイヤー_1" xmlns="http://www.w3.org/2000/svg" xmlns:xlink="http://www.w3.org/1999/xlink" x="0px"
	 y="0px" viewBox="0 0 188 38" enable-background="new 0 0 188 38" xml:space="preserve">
<g>
	<g>
		<g>
			<path fill="#3A3A3A" d="M4.8,1.2c2.6,0,5.1,0.3,5.1,5.9c0,4.7-1.3,5.9-4.8,5.9H0V1.2H4.8z M1,2.1v10h4.2c2.8,0,3.7-1,3.7-5
				c0-4.8-1.8-5-4.1-5H1z"/>
			<path fill="#3A3A3A" d="M15.6,4c3.4,0,3.9,1.8,3.9,4.3c0,2.5-0.1,4.7-3.9,4.7c-3.6,0-3.9-2-3.9-4.5C11.7,6.1,12,4,15.6,4z
				 M12.7,8.7c0,2.6,0.5,3.5,3,3.5c2.7,0,2.9-1.2,2.9-3.9c0-2.5-0.5-3.5-2.9-3.5C12.8,4.9,12.7,6.1,12.7,8.7z"/>
			<path fill="#3A3A3A" d="M28.6,9.8c-0.1,2.8-1.7,3.3-3.7,3.3C22,13.1,21,12,21,8.6C21,5.1,22.1,4,24.8,4c0.9,0,3.7,0,3.6,3.2h-0.9
				c0-2-1.5-2.3-2.7-2.3c-1.7,0-2.9,0.4-2.9,3.7c0,2.8,0.7,3.6,2.9,3.6c1.9,0,2.8-0.4,2.8-2.4H28.6z"/>
			<path fill="#3A3A3A" d="M35.2,4.2h1.4l-4.5,4.1L37,13h-1.4L31,8.4V13H30V1.2H31v7L35.2,4.2z"/>
			<path fill="#3A3A3A" d="M38.2,8.9c0,2.1,0.3,3.4,2.9,3.4c1.6,0,2.6-0.4,2.7-2h1c-0.2,2.1-1.4,2.8-3.6,2.8c-3.1,0-4-1.5-4-4.4
				c0-2.2,0.3-4.6,3.8-4.6c3.5,0,3.7,2.3,3.7,4.1v0.7H38.2z M43.9,8c0-2.2-0.7-3.1-2.8-3.1c-2.5,0-2.8,1.5-2.9,3.1H43.9z"/>
			<path fill="#3A3A3A" d="M47.2,4.2l0,1C48.1,4,49,4,50.6,4V5c-0.2,0-0.5,0-0.9,0c-0.6,0-2.4,0-2.4,2.3V13h-0.9V4.2H47.2z"/>
			<path fill="#3A3A3A" d="M63.3,2v10.5H52v-0.9h10.4V2.9H52.1V2H63.3z"/>
			<path fill="#3A3A3A" d="M69.9,4.9c-1.3-0.9-3.3-1.8-4.7-2.2l0.5-0.8c1.1,0.3,3.1,1.1,4.7,2.1L69.9,4.9z M65.4,12.3
				c4.5-0.1,9.3-2.4,11.5-9.3l0.9,0.4C77.2,4.9,76,8.1,73,10.5c-2.1,1.7-4.7,2.6-7.3,2.7L65.4,12.3z"/>
			<path fill="#3A3A3A" d="M90.9,5.3v0.9h-5.3l0,0.6c-0.1,4.3-1.8,6.2-5.9,7l-0.4-0.8c4.2-0.8,5.2-2.7,5.3-6.1l0-0.7h-6.3V5.3H90.9z
				 M89.6,1.3v0.9h-10V1.3H89.6z"/>
			<path fill="#3A3A3A" d="M97.6,4.2V0.8h0.9v3.4h5.8v0.9h-5.8v0.7c0,5.5-3.8,7.1-5.8,7.9l-0.5-0.8c0.7-0.3,2.6-1,3.9-2.4
				c1.4-1.6,1.5-4.3,1.5-4.8V5.1h-6.2V4.2H97.6z"/>
			<path fill="#3A3A3A" d="M111.3,1.6v0.7h-2.6c0.2,0.4,0.5,1.4,0.6,1.7l-0.8,0.1c-0.1-0.5-0.3-1.3-0.6-1.8h-1.1
				c-0.6,0.9-1.1,1.3-1.7,1.8l-0.6-0.6c1.5-1.1,2.2-2.8,2.4-3.1l0.8,0.2c-0.2,0.4-0.3,0.7-0.6,1.1H111.3z M111.2,4.7V3.8h0.8v0.9
				h6.2v2.7h-0.8v-2h-11.4v2h-0.8V4.7H111.2z M116.4,6.4v2.8h-8.8v1.2h9.8v3.8h-0.8v-0.7h-9v0.7h-0.8V6.4H116.4z M107.6,7.1v1.5h8
				V7.1H107.6z M107.6,11.1v1.7h9v-1.7H107.6z M118.5,1.6v0.7H115c0.2,0.3,0.6,1.2,0.7,1.7L115,4.1c-0.2-0.5-0.2-0.6-0.8-1.8h-1.4
				c-0.6,0.8-0.9,1.1-1.2,1.4l-0.7-0.5c1.1-1,1.7-2,2-2.8l0.8,0.2c-0.1,0.4-0.2,0.6-0.5,1.1H118.5z"/>
			<path fill="#3A3A3A" d="M123.1,11.4c-1.9,0.7-3.7,1.1-4.8,1.3l-0.2-0.8c0.5-0.1,1.7-0.4,2.2-0.5V6.6h-1.9V5.9h1.9V2h-2.1V1.2h4.8
				V2h-1.9v3.9h1.6v0.7h-1.6v4.7c1.1-0.3,1.5-0.5,1.9-0.7L123.1,11.4z M131.5,0.8v6.9h-3.6v2h3.8v0.7h-3.8v2.6h4.1v0.7h-9.4v-0.7
				h4.5v-2.6h-3.6V9.7h3.6v-2h-3.5V0.8H131.5z M127.1,1.5h-2.7v2.3h2.7V1.5z M127.1,4.6h-2.7V7h2.7V4.6z M130.7,1.5h-2.8v2.3h2.8
				V1.5z M130.7,4.6h-2.8V7h2.8V4.6z"/>
			<path fill="#3A3A3A" d="M141.8,0.7h0.9v3.1h2.8v0.9h-2.8V7c0,1.5-0.5,3.9-2.5,5.3c-1.8,1.2-4,1.5-4.7,1.5l-0.3-0.9
				c0.8-0.1,2.8-0.2,4.6-1.4c2-1.4,2-4.3,2-4.5V4.7h-6.1v4.4h-0.9V4.7H132V3.8h2.8v-3h0.9v3h6.1V0.7z"/>
			<path fill="#3A3A3A" d="M158.8,6.8v1h-13.3v-1H158.8z"/>
			<path fill="#3A3A3A" d="M161.4,1.2v5.1c2.2-0.5,5.6-1.4,8.4-3.1l0.6,0.8c-2.5,1.6-7,2.8-9,3.2V11c0,1.2,0.1,1.5,2.5,1.5h4
				c1,0,2.5-0.1,3.5-0.2l0.1,0.9c-0.9,0.1-2.7,0.2-3.6,0.2h-3.9c-2.8,0-3.3-0.6-3.3-2.3V1.2H161.4z M170.3,2.8
				c-0.1-0.3-0.5-1.1-1.1-2.1l0.7-0.3c0.4,0.6,0.8,1.3,1.1,2L170.3,2.8z M172.2,2.3c-0.1-0.2-0.6-1.2-1.1-2l0.7-0.4
				c0.5,0.7,0.8,1.2,1.1,2L172.2,2.3z"/>
			<path fill="#3A3A3A" d="M172.6,12.9c3-1.3,7.4-4.4,9.5-10.4h-8.8V1.6h9.9c-0.6,2.3-1.6,4.4-3.1,6.3c0.5,0.4,2.9,2.3,5.4,4.8
				l-0.8,0.7c-1.4-1.5-3.9-3.8-5.2-4.9c-1.8,2.1-3.9,3.8-6.4,5L172.6,12.9z"/>
		</g>
	</g>
	<g>
		<g>
			<path fill="#3A3A3A" d="M78.7,33.5l-1.2,3.2h-1.2L81,24.9h1.4l4.6,11.8h-1.1l-1.2-3.2H78.7z M84.2,32.6l-2.6-6.9l-2.6,6.9H84.2z"
				/>
			<path fill="#3A3A3A" d="M87.3,24.9l2.7,11l2.6-11h1.5l2.6,11l2.7-11h1.1l-3,11.8H96l-2.6-11l-2.6,11h-1.5l-3-11.8H87.3z"/>
			<path fill="#3A3A3A" d="M108.1,28.3c0-1.5-0.3-2.6-3.4-2.6c-2.2,0-3.2,0.6-3.2,2.4c0,1.2,0.5,1.8,1.8,2l3.2,0.3
				c1,0.1,3.1,0.3,3.1,3.1c0,2.3-1.2,3.4-4.6,3.4c-3.8,0-4.7-1.5-4.7-3.8h1c0,1.7,0.4,2.9,3.7,2.9c3,0,3.6-1,3.6-2.4
				c0-1.3-0.4-2.1-2.1-2.3l-3.3-0.4c-1.8-0.2-2.7-1.3-2.7-2.9c0-3.2,3-3.2,4.1-3.2c4.1,0,4.4,1.7,4.5,3.5H108.1z"/>
			<path fill="#3A3A3A" d="M122.1,24.9v0.9H115v4.4h6.7v0.9H115v4.8h7.2v0.9H114V24.9H122.1z"/>
			<path fill="#3A3A3A" d="M131.5,28.7c0-2.3-1.3-3-3.6-3c-3.2,0-3.9,1.3-3.9,5.3c0,3.1,0.3,5,3.8,5c2.4,0,3.6-0.5,3.6-3.3h1
				c0,3.9-2.6,4.2-4.5,4.2c-3.9,0-5.1-1.4-5.1-5.9c0-3.6,0.5-6.2,4.9-6.2c3.8,0,4.6,1.9,4.6,3.9H131.5z"/>
			<path fill="#3A3A3A" d="M140.7,28.3c0-1.5-0.3-2.6-3.4-2.6c-2.2,0-3.2,0.6-3.2,2.4c0,1.2,0.5,1.8,1.8,2l3.2,0.3
				c1,0.1,3.1,0.3,3.1,3.1c0,2.3-1.2,3.4-4.6,3.4c-3.8,0-4.7-1.5-4.7-3.8h1c0,1.7,0.4,2.9,3.7,2.9c3,0,3.6-1,3.6-2.4
				c0-1.3-0.4-2.1-2.1-2.3l-3.3-0.4c-1.8-0.2-2.7-1.3-2.7-2.9c0-3.2,3-3.2,4.1-3.2c4.1,0,4.4,1.7,4.5,3.5H140.7z"/>
			<path fill="#3A3A3A" d="M148.4,24.3c-0.1,0.5-0.2,0.9-0.4,1.9h6.8V27h-7c-0.6,1.7-1,2.4-1.2,2.7c0.5-0.4,1.5-1.1,2.9-1.1
				c1.9,0,2.1,1.3,2.2,2c2.3-0.9,2.6-1,4.1-1.6l0.3,0.9c-1.4,0.5-3,1-4.3,1.5c0.1,0.7,0.1,1.5,0.1,2.1c0,0.2,0,0.6-0.1,1h-0.9
				c0-0.5,0.1-0.8,0.1-1.5c0-0.1,0-0.7,0-1.2c-2,0.9-3.7,2-3.7,3.3c0,1.5,2.1,1.5,3.7,1.5c2.1,0,3.5-0.2,4.2-0.2l0.1,0.9
				c-0.8,0.1-2,0.2-3.9,0.2c-1.6,0-5,0-5-2.3c0-1.9,2.2-3.3,4.5-4.2c-0.1-0.7-0.3-1.6-1.5-1.6c-1.5,0-2.9,1.4-3.1,1.6
				c-0.2,0.2-2,2.6-2.5,3.1l-0.6-0.7c0.8-0.7,2.4-2.2,3.7-6.2h-3.4v-0.8h3.7c0.3-0.9,0.3-1.4,0.4-1.9L148.4,24.3z"/>
			<path fill="#3A3A3A" d="M160.2,28.2h2.9v0.7h-2.8c0.5,0.9,1.5,2.6,2.6,3.5l-0.5,0.8c-0.5-0.6-1.2-1.4-2.2-3v7.7h-0.8v-7.5
				c-1.2,2.5-2.6,3.8-3.2,4.4l-0.4-0.9c1.7-1.5,2.8-3.2,3.5-4.9H156v-0.7h3.4v-2.5c-1.3,0.2-2.2,0.3-2.9,0.3l-0.3-0.8
				c2.3-0.1,4.3-0.4,6.3-1.1l0.5,0.6c-0.5,0.2-1.3,0.5-2.8,0.8V28.2z M165.1,25.3v9.4h-0.9v-9.4H165.1z M169.2,24.2v12.6
				c0,0.3,0,1.1-1.1,1.1h-2.3l-0.2-0.9l2.1,0.1c0.6,0,0.7-0.1,0.7-0.5V24.2H169.2z"/>
			<path fill="#3A3A3A" d="M182.4,36.7c0,0.8-0.2,1.2-1,1.2h-2.1l-0.1-0.8l2,0c0.3,0,0.3-0.3,0.3-0.5v-3.5H177v4.6h-0.8v-4.6h-4.3
				c-0.3,2.6-1.1,3.8-1.9,4.8l-0.6-0.6c1.3-1.6,1.7-3.3,1.7-5.9v-6.6h11.3V36.7z M171.9,31.3c0,0.5,0,0.8,0,1.2h4.2v-3.2h-4.2V31.3z
				 M176.1,25.5h-4.2v3h4.2V25.5z M181.5,25.5H177v3h4.5V25.5z M181.5,29.2H177v3.2h4.5V29.2z"/>
			<path fill="#3A3A3A" d="M187.7,35.3c0,1.2-1,2.1-2.1,2.1c-1.2,0-2.1-0.9-2.1-2.1c0-1.2,1-2.1,2.1-2.1
				C186.7,33.2,187.7,34.1,187.7,35.3z M184.1,35.3c0,0.8,0.7,1.5,1.5,1.5c0.8,0,1.5-0.7,1.5-1.5c0-0.8-0.7-1.5-1.5-1.5
				C184.8,33.9,184.1,34.5,184.1,35.3z"/>
		</g>
	</g>
</g>
</svg>
