<?xml version="1.0" encoding="utf-8"?>
<!-- Generator: Adobe Illustrator 19.1.0, SVG Export Plug-In . SVG Version: 6.00 Build 0)  -->
<svg version="1.0" id="レイヤー_1" xmlns="http://www.w3.org/2000/svg" xmlns:xlink="http://www.w3.org/1999/xlink" x="0px"
	 y="0px" viewBox="0 0 136 39" enable-background="new 0 0 136 39" xml:space="preserve">
<g>
	<path fill="#1B2B79" d="M14.7,14.1c0,0.9-0.2,1.4-1.2,1.4h-2.3l-0.1-0.9l2.3,0c0.4,0,0.4-0.4,0.4-0.5v-4H8.6v5.2H7.7v-5.2H2.9
		c-0.3,2.9-1.3,4.3-2.1,5.4l-0.7-0.6C1.5,13,2,11.1,2,8.2V0.7h12.7V14.1z M2.9,8c0,0.5,0,0.9,0,1.3h4.8V5.7H2.9V8z M7.7,1.6H2.9v3.4
		h4.8V1.6z M13.7,1.6H8.6v3.4h5.1V1.6z M13.7,5.7H8.6v3.6h5.1V5.7z"/>
	<path fill="#1B2B79" d="M18.5,6.7v4.6c0.2,0.7,0.7,2.8,4.1,2.8h8.3L30.8,15h-8.2c-0.8,0-2.8,0-4.3-1.9c-0.7,0.8-1.7,1.8-2.4,2.4
		l-0.5-0.9c0.6-0.5,1.9-1.5,2.2-2V7.5h-2.2V6.7H18.5z M18.3,3.5C17.8,2.9,17,1.9,15.8,1l0.6-0.7c1,0.8,1.8,1.6,2.6,2.6L18.3,3.5z
		 M19.2,4c2.4-0.6,4.5-2.6,5.2-3.9h1.1c1,1.6,3.2,3.3,5.4,3.9l-0.6,0.8c-2.1-0.9-4-2.2-5.3-4c-1.5,2-3.1,3.1-5.4,4L19.2,4z
		 M19.5,11.7c1-0.7,2-1.7,2.7-3L22.9,9c-0.6,1.3-1.7,2.5-2.7,3.3L19.5,11.7z M25.4,12.1c0,0.7-0.2,1.1-1.1,1.1h-1.9l-0.1-0.9l1.7,0
		c0.3,0,0.4-0.2,0.4-0.4V7.8h-4.8V6.9h4.8V5.2h-3.6V4.4H29v0.8h-3.6v1.8h4.8v0.8h-4.8V12.1z M27.6,8.6c0.3,0.5,1.4,2.1,2.7,3.3
		l-0.7,0.6c-1.1-1-2-2.2-2.8-3.4L27.6,8.6z"/>
	<path fill="#1B2B79" d="M33.7,0.7c-0.4,1.7-0.8,3.8-0.8,7.8c0,3.9,0.4,5.4,0.6,6.2l-1.1,0.1c-0.2-1.2-0.5-3-0.5-6.1
		c0-2.7,0.1-5.4,0.8-8.1L33.7,0.7z M38.2,8.1c-0.9,1.3-0.9,2.3-0.9,2.5c0,1.8,2.1,2,4,2c0.3,0,2.7,0,3.9-0.2v1.1
		c-1,0.1-1.8,0.1-3,0.1c-2.1,0-5.8,0-5.8-3.1c0-0.7,0.2-1.7,0.9-2.9L38.2,8.1z M44.8,2.1v1h-7.9v-1H44.8z"/>
	<path fill="#1B2B79" d="M45.5,5.6c3.7-1.4,6.2-3.7,7.4-5.6h1c2.4,3.3,5.3,4.8,7.5,5.6L61,6.6c-2.3-0.9-5.4-3-7.5-5.8
		c-1.7,2.4-4.3,4.4-7.5,5.8L45.5,5.6z M59.3,8.1v7.4h-1v-0.9h-9.5v0.9h-0.9V8.1H59.3z M58.3,9h-9.5v4.8h9.5V9z M57.6,6h-8.1V5.2h8.1
		V6z"/>
	<path fill="#1B2B79" d="M67.9,13.4c1.7,0.1,7,0.3,7-5c0-1.3-0.5-4.3-4-4.3c-0.9,0-2.7,0.1-5.6,2.9l-0.1,7.9h-1l0.1-6.7
		c-1,2-1.9,3-2.6,3.7l-0.6-1c2.2-2.2,3.1-4.4,3.2-4.8l0-2h-2.8v-1h2.8l0-2.8h1l0,2.8H66v0.6c-0.2,0.4-0.6,1.7-0.7,2.1
		c1.4-1.2,3-2.7,5.9-2.7c3.3,0,4.8,2.7,4.8,5.2c0,4.4-3.3,6.2-8,6L67.9,13.4z"/>
	<path fill="#1B2B79" d="M88.4,0.3c0,0.6,0,0.9,0,3.8l3.2,0V5l-3.2,0c0,0.5,0,2.8,0,3.3c0,1.5-0.2,2.5-2.4,2.5
		c-1.1,0-1.7-0.1-2.2-0.2l0.1-0.9c1,0.2,1.3,0.2,2.1,0.2c1,0,1.4,0,1.4-1.8c0-1,0-2.1,0-3.1l-7,0v5.5c0,3.1,1.8,3.1,4.7,3.1
		c2.5,0,3.6-0.1,5-0.2l0,1c-2.5,0.1-2.7,0.1-5,0.1c-3.2,0-5.7,0-5.7-4.5V5.1h-2.9V4.1l2.9,0V0.5h1v3.7l7,0c0-0.6,0-3.2,0-3.8H88.4z"
		/>
	<path fill="#1B2B79" d="M106.4,2.5c-1.4-0.1-1.6-0.1-2-0.1c-1,0-1.4,0.1-1.6,0.2c-2.8,1-6.3,3.8-6.3,7c0,2,1.1,2.9,2.7,3.5
		c1.8,0.6,3.8,0.7,5.5,0.7l-0.3,1.1c-4.4-0.2-9-0.9-9-5.2c0-3.3,2.8-5.7,5.8-7.4c-1.8,0-7.6,0.4-9.3,0.6l-0.1-1.1
		c0.7,0,3.7-0.1,5.1-0.2c4.6-0.2,5.8-0.2,9.4-0.2V2.5z"/>
	<path fill="#1B2B79" d="M3.2,29.7v4.9c0,1.1,0.7,2,1.6,2.3c1.1,0.4,2.4,0.5,2.9,0.5h8l-0.2,0.9h-8c-0.4,0-1.6-0.1-2.9-0.5
		c-1.1-0.4-1.7-1.1-1.8-1.4c-1,1.2-1.2,1.4-2.2,2.3L0,37.7c0.7-0.5,1.7-1.3,2.3-2v-5.2H0.2v-0.9H3.2z M3,26.4
		c-0.8-1-1.6-1.7-2.5-2.5l0.6-0.7c0.6,0.5,1.8,1.5,2.6,2.6L3,26.4z M9,23.3v2.7H5.3v1.3c0,0.4,0,0.4,0.3,0.4h2.6
		c0.3,0,0.4,0,0.5-1.2l0.8,0.2c-0.1,1.6-0.5,1.7-1.3,1.7H5.5c-0.2,0-1,0-1-0.9v-2.3h3.7v-1.2h-4v-0.8H9z M15.6,33.7H4.2v-0.8h3v-1.9
		H4.6v-0.8h2.7v-1.2h0.9v1.2h3.3v-1.2h0.9v1.2h2.9v0.8h-2.9v1.9h3.3V33.7z M4.8,35.7c0.9-0.3,2.2-0.9,3.1-1.6l0.6,0.6
		c-1.1,0.8-1.8,1.2-3.2,1.7L4.8,35.7z M11.5,31.1H8.2v1.9h3.3V31.1z M14.6,23.3v2.7h-3.7v1.3c0,0.4,0.2,0.4,0.4,0.4H14
		c0.5,0,0.6-0.1,0.7-1.3l0.8,0.3c0,0.9-0.1,1.8-1.3,1.8h-3c-1,0-1-0.5-1-1v-2.2h3.7v-1.2h-4v-0.8H14.6z M11.8,34.2
		c1.2,0.8,2.2,1.3,3.6,1.6l-0.5,0.8c-0.7-0.2-2.3-0.6-3.7-1.8L11.8,34.2z"/>
	<path fill="#1B2B79" d="M30.4,35.4c-2.4-2-4.4-4-5.4-5.1c-2.7-2.8-3.1-3.1-3.9-3.1c-0.7,0-1.1,0.3-1.6,0.8
		c-0.7,0.8-3.1,3.8-3.4,4.3l-0.9-0.9c0.6-0.6,3.1-3.5,3.6-4c0.7-0.7,1.2-1.1,2.3-1.1c1.1,0,1.5,0.4,3.8,2.6c4,3.8,5.2,4.7,6.4,5.6
		L30.4,35.4z M27.4,27.3c-0.5-1.2-1-1.8-1.6-2.6l0.8-0.4c1,1.1,1.4,2.1,1.7,2.5L27.4,27.3z M29.3,26.3c-0.6-1.3-1.2-2-1.5-2.4
		l0.8-0.4c0.7,0.7,1.1,1.4,1.6,2.4L29.3,26.3z"/>
	<path fill="#1B2B79" d="M41.9,23.6v0.9c-0.5,0.4-1.6,1.4-2.3,1.9c-2.1,1.9-2.3,2.1-3,2.7c0.9-0.4,2-0.8,3.6-0.8
		c3.3,0,4.6,2.3,4.6,4.5c0,0.8-0.2,5.1-6.3,5.1c-1.9,0-2.7-0.3-3.4-0.7c-0.6-0.4-1.2-1.1-1.2-2.1c0-1.6,1.5-2.6,3-2.6
		c2.3,0,3.4,1.8,3.4,3.2c0,0.5-0.2,0.9-0.3,1.2c2.6-0.5,3.8-2.3,3.8-4.2c0-2.4-1.6-3.6-3.8-3.6c-1.9,0-3.7,0.8-4.9,1.7
		c-0.6,0.4-2.5,2.5-3.2,3.2L31,33.4c0.8-0.7,4.2-4,4.9-4.6c0.7-0.7,3.9-3.6,4.5-4.2l-8,0.1v-1H41.9z M39.4,35.9c0-1-0.8-2.4-2.4-2.4
		c-1.1,0-2,0.7-2,1.7c0,1.9,3.1,1.9,4.1,1.9C39.2,36.8,39.4,36.5,39.4,35.9z"/>
	<path fill="#1B2B79" d="M47.6,32.8c-0.1,1.9,0.1,3.5,4,3.5c1.6,0,3.9,0,3.9-2.8c0-0.6-0.1-1.9-1.2-2.3c-0.2-0.1-1-0.4-2-0.4h-1.8
		v-1h1.9c1,0,3.1,0,3.1-2.5c0-2.1-1.4-2.6-3.6-2.6c-2.5,0-3.9,0.5-3.9,3h-1.1c0.2-3.3,2.2-4,5-4c1.2,0,4.8,0,4.8,3.5
		c0,2.5-1.5,2.9-2.1,3c0.6,0.2,2.2,0.7,2.2,3.2c0,3.8-3.6,3.8-4.9,3.8c-3.5,0-5.4-0.9-5.4-4.5H47.6z"/>
	<path fill="#1B2B79" d="M61.2,35.6c0.7,0.1,1.5,0.1,2.6,0.1c2.6,0,5.6-0.1,7.5-2.5c0.7-0.9,1-1.9,1-2.9c0-4-3.7-4-4.6-4
		c-2.2,0-6.5,0.9-8.9,1.6l-0.3-1.2c0.5-0.1,3.4-0.6,4.2-0.7c1.1-0.2,3.4-0.6,5-0.6c4.5,0,5.6,2.9,5.6,5c0,2.1-1.1,3.8-2.3,4.6
		c-2,1.4-3.9,1.8-7.9,1.8c-0.7,0-1.2,0-1.8,0L61.2,35.6z"/>
	<path fill="#1B2B79" d="M82.3,36.8c2-0.2,6.8-0.6,6.8-6.1c0-1.4-0.5-5.8-6-5.9c-0.3,3.6-0.8,6.9-2.4,9.5c-1,1.7-2.1,2-2.7,2
		c-1.6,0-3-2-3-4.8c0-4.3,3-7.7,8-7.7c5.2,0,7,3.6,7,6.7c0,6.3-5.5,7-7.5,7.2L82.3,36.8z M76,31.7c0,1.4,0.5,3.7,2,3.7
		c0.6,0,1.3-0.5,1.9-1.5c1.6-2.5,2-6.3,2.1-8.9C77.7,25.4,76,28.7,76,31.7z"/>
	<path fill="#1B2B79" d="M92.7,36.9c9.4-1.2,10.3-8.7,10.5-10.8H91v-1h11.5c0-0.1-0.1-0.2-0.1-0.4c0-1,0.8-1.8,1.8-1.8
		c1,0,1.8,0.8,1.8,1.8c0,0.9-0.7,1.8-1.8,1.8c-0.4,3-1.6,9.9-11.2,11.5L92.7,36.9z M103.3,24.6c0,0.6,0.5,1,1,1c0.6,0,1-0.5,1-1
		c0-0.6-0.5-1-1-1C103.8,23.6,103.3,24.1,103.3,24.6z"/>
	<path fill="#1B2B79" d="M119.7,28.1c-0.8,7.4-5.1,9.2-11,9.8l-0.3-1c4.9-0.5,9.1-1.7,10.1-7.8h-12.5v-0.9H119.7z M118.7,24v1h-11.3
		v-1H118.7z"/>
	<path fill="#1B2B79" d="M126.9,28c-1.5-1-3.7-2-5.3-2.5l0.6-0.9c1.3,0.4,3.6,1.2,5.3,2.4L126.9,28z M121.8,36.3
		c5-0.2,10.5-2.7,13-10.5l1,0.4c-0.6,1.8-2,5.4-5.3,8.1c-2.3,1.9-5.2,2.9-8.2,3.1L121.8,36.3z"/>
</g>
</svg>
