<?xml version="1.0" encoding="utf-8"?>
<!-- Generator: Adobe Illustrator 19.1.0, SVG Export Plug-In . SVG Version: 6.00 Build 0)  -->
<svg version="1.0" id="レイヤー_1" xmlns="http://www.w3.org/2000/svg" xmlns:xlink="http://www.w3.org/1999/xlink" x="0px"
	 y="0px" viewBox="0 0 400 464" enable-background="new 0 0 400 464" xml:space="preserve">
<g>
	<polygon fill="#1B2B79" points="0,115.6 200,0 400,115.6 400,346.7 200,462.2 0,346.7 	"/>
</g>
<g>
	<defs>
		<polygon id="SVGID_1_" points="0,115.6 200,0 400,115.6 400,346.7 200,462.2 0,346.7 		"/>
	</defs>
	<clipPath id="SVGID_2_">
		<use xlink:href="#SVGID_1_"  overflow="visible"/>
	</clipPath>
	<g clip-path="url(#SVGID_2_)">
		<line fill="none" stroke="#00A0E9" stroke-width="0.5" stroke-miterlimit="10" x1="-218.9" y1="517.4" x2="75.8" y2="-46.9"/>
		<line fill="none" stroke="#00A0E9" stroke-width="0.5" stroke-miterlimit="10" x1="-212.9" y1="517.4" x2="81.8" y2="-46.9"/>
		<line fill="none" stroke="#00A0E9" stroke-width="0.5" stroke-miterlimit="10" x1="-206.9" y1="517.4" x2="87.8" y2="-46.9"/>
		<line fill="none" stroke="#00A0E9" stroke-width="0.5" stroke-miterlimit="10" x1="-200.9" y1="517.4" x2="93.8" y2="-46.9"/>
		<line fill="none" stroke="#00A0E9" stroke-width="0.5" stroke-miterlimit="10" x1="-194.9" y1="517.4" x2="99.8" y2="-46.9"/>
		<line fill="none" stroke="#00A0E9" stroke-width="0.5" stroke-miterlimit="10" x1="-188.9" y1="517.4" x2="105.8" y2="-46.9"/>
		<line fill="none" stroke="#00A0E9" stroke-width="0.5" stroke-miterlimit="10" x1="-182.9" y1="517.4" x2="111.8" y2="-46.9"/>
		<line fill="none" stroke="#00A0E9" stroke-width="0.5" stroke-miterlimit="10" x1="-176.9" y1="517.4" x2="117.8" y2="-46.9"/>
		<line fill="none" stroke="#00A0E9" stroke-width="0.5" stroke-miterlimit="10" x1="-170.9" y1="517.4" x2="123.8" y2="-46.9"/>
		<line fill="none" stroke="#00A0E9" stroke-width="0.5" stroke-miterlimit="10" x1="-164.9" y1="517.4" x2="129.8" y2="-46.9"/>
		<line fill="none" stroke="#00A0E9" stroke-width="0.5" stroke-miterlimit="10" x1="-158.9" y1="517.4" x2="135.8" y2="-46.9"/>
		<line fill="none" stroke="#00A0E9" stroke-width="0.5" stroke-miterlimit="10" x1="-152.9" y1="517.4" x2="141.8" y2="-46.9"/>
		<line fill="none" stroke="#00A0E9" stroke-width="0.5" stroke-miterlimit="10" x1="-146.9" y1="517.4" x2="147.8" y2="-46.9"/>
		<line fill="none" stroke="#00A0E9" stroke-width="0.5" stroke-miterlimit="10" x1="-140.9" y1="517.4" x2="153.8" y2="-46.9"/>
		<line fill="none" stroke="#00A0E9" stroke-width="0.5" stroke-miterlimit="10" x1="-134.9" y1="517.4" x2="159.8" y2="-46.9"/>
		<line fill="none" stroke="#00A0E9" stroke-width="0.5" stroke-miterlimit="10" x1="-128.9" y1="517.4" x2="165.8" y2="-46.9"/>
		<line fill="none" stroke="#00A0E9" stroke-width="0.5" stroke-miterlimit="10" x1="-122.9" y1="517.4" x2="171.8" y2="-46.9"/>
		<line fill="none" stroke="#00A0E9" stroke-width="0.5" stroke-miterlimit="10" x1="-116.9" y1="517.4" x2="177.8" y2="-46.9"/>
		<line fill="none" stroke="#00A0E9" stroke-width="0.5" stroke-miterlimit="10" x1="-110.9" y1="517.4" x2="183.8" y2="-46.9"/>
		<line fill="none" stroke="#00A0E9" stroke-width="0.5" stroke-miterlimit="10" x1="-104.9" y1="517.4" x2="189.8" y2="-46.9"/>
		<line fill="none" stroke="#00A0E9" stroke-width="0.5" stroke-miterlimit="10" x1="-98.9" y1="517.4" x2="195.8" y2="-46.9"/>
		<line fill="none" stroke="#00A0E9" stroke-width="0.5" stroke-miterlimit="10" x1="-92.9" y1="517.4" x2="201.8" y2="-46.9"/>
		<line fill="none" stroke="#00A0E9" stroke-width="0.5" stroke-miterlimit="10" x1="-86.9" y1="517.4" x2="207.8" y2="-46.9"/>
		<line fill="none" stroke="#00A0E9" stroke-width="0.5" stroke-miterlimit="10" x1="-80.9" y1="517.4" x2="213.8" y2="-46.9"/>
		<line fill="none" stroke="#00A0E9" stroke-width="0.5" stroke-miterlimit="10" x1="-74.9" y1="517.4" x2="219.8" y2="-46.9"/>
		<line fill="none" stroke="#00A0E9" stroke-width="0.5" stroke-miterlimit="10" x1="-68.9" y1="517.4" x2="225.8" y2="-46.9"/>
		<line fill="none" stroke="#00A0E9" stroke-width="0.5" stroke-miterlimit="10" x1="-62.9" y1="517.4" x2="231.8" y2="-46.9"/>
		<line fill="none" stroke="#00A0E9" stroke-width="0.5" stroke-miterlimit="10" x1="-56.9" y1="517.4" x2="237.8" y2="-46.9"/>
		<line fill="none" stroke="#00A0E9" stroke-width="0.5" stroke-miterlimit="10" x1="-50.9" y1="517.4" x2="243.8" y2="-46.9"/>
		<line fill="none" stroke="#00A0E9" stroke-width="0.5" stroke-miterlimit="10" x1="-44.9" y1="517.4" x2="249.8" y2="-46.9"/>
		<line fill="none" stroke="#00A0E9" stroke-width="0.5" stroke-miterlimit="10" x1="-38.9" y1="517.4" x2="255.8" y2="-46.9"/>
		<line fill="none" stroke="#00A0E9" stroke-width="0.5" stroke-miterlimit="10" x1="-32.9" y1="517.4" x2="261.8" y2="-46.9"/>
		<line fill="none" stroke="#00A0E9" stroke-width="0.5" stroke-miterlimit="10" x1="-26.9" y1="517.4" x2="267.8" y2="-46.9"/>
		<line fill="none" stroke="#00A0E9" stroke-width="0.5" stroke-miterlimit="10" x1="-20.9" y1="517.4" x2="273.8" y2="-46.9"/>
		<line fill="none" stroke="#00A0E9" stroke-width="0.5" stroke-miterlimit="10" x1="-14.9" y1="517.4" x2="279.8" y2="-46.9"/>
		<line fill="none" stroke="#00A0E9" stroke-width="0.5" stroke-miterlimit="10" x1="-8.9" y1="517.4" x2="285.8" y2="-46.9"/>
		<line fill="none" stroke="#00A0E9" stroke-width="0.5" stroke-miterlimit="10" x1="-2.9" y1="517.4" x2="291.8" y2="-46.9"/>
		<line fill="none" stroke="#00A0E9" stroke-width="0.5" stroke-miterlimit="10" x1="3.1" y1="517.4" x2="297.8" y2="-46.9"/>
		<line fill="none" stroke="#00A0E9" stroke-width="0.5" stroke-miterlimit="10" x1="9.1" y1="517.4" x2="303.8" y2="-46.9"/>
		<line fill="none" stroke="#00A0E9" stroke-width="0.5" stroke-miterlimit="10" x1="15.1" y1="517.4" x2="309.8" y2="-46.9"/>
		<line fill="none" stroke="#00A0E9" stroke-width="0.5" stroke-miterlimit="10" x1="21.1" y1="517.4" x2="315.8" y2="-46.9"/>
		<line fill="none" stroke="#00A0E9" stroke-width="0.5" stroke-miterlimit="10" x1="27.1" y1="517.4" x2="321.8" y2="-46.9"/>
		<line fill="none" stroke="#00A0E9" stroke-width="0.5" stroke-miterlimit="10" x1="33.1" y1="517.4" x2="327.8" y2="-46.9"/>
		<line fill="none" stroke="#00A0E9" stroke-width="0.5" stroke-miterlimit="10" x1="39.1" y1="517.4" x2="333.8" y2="-46.9"/>
		<line fill="none" stroke="#00A0E9" stroke-width="0.5" stroke-miterlimit="10" x1="45.1" y1="517.4" x2="339.8" y2="-46.9"/>
		<line fill="none" stroke="#00A0E9" stroke-width="0.5" stroke-miterlimit="10" x1="51.1" y1="517.4" x2="345.8" y2="-46.9"/>
		<line fill="none" stroke="#00A0E9" stroke-width="0.5" stroke-miterlimit="10" x1="57.1" y1="517.4" x2="351.8" y2="-46.9"/>
		<line fill="none" stroke="#00A0E9" stroke-width="0.5" stroke-miterlimit="10" x1="63.1" y1="517.4" x2="357.8" y2="-46.9"/>
		<line fill="none" stroke="#00A0E9" stroke-width="0.5" stroke-miterlimit="10" x1="69.1" y1="517.4" x2="363.8" y2="-46.9"/>
		<line fill="none" stroke="#00A0E9" stroke-width="0.5" stroke-miterlimit="10" x1="75.1" y1="517.4" x2="369.8" y2="-46.9"/>
		<line fill="none" stroke="#00A0E9" stroke-width="0.5" stroke-miterlimit="10" x1="81.1" y1="517.4" x2="375.8" y2="-46.9"/>
		<line fill="none" stroke="#00A0E9" stroke-width="0.5" stroke-miterlimit="10" x1="87.1" y1="517.4" x2="381.8" y2="-46.9"/>
		<line fill="none" stroke="#00A0E9" stroke-width="0.5" stroke-miterlimit="10" x1="93.1" y1="517.4" x2="387.8" y2="-46.9"/>
		<line fill="none" stroke="#00A0E9" stroke-width="0.5" stroke-miterlimit="10" x1="99.1" y1="517.4" x2="393.8" y2="-46.9"/>
		<line fill="none" stroke="#00A0E9" stroke-width="0.5" stroke-miterlimit="10" x1="105.1" y1="517.4" x2="399.8" y2="-46.9"/>
		<line fill="none" stroke="#00A0E9" stroke-width="0.5" stroke-miterlimit="10" x1="111.1" y1="517.4" x2="405.8" y2="-46.9"/>
		<line fill="none" stroke="#00A0E9" stroke-width="0.5" stroke-miterlimit="10" x1="117.1" y1="517.4" x2="411.8" y2="-46.9"/>
		<line fill="none" stroke="#00A0E9" stroke-width="0.5" stroke-miterlimit="10" x1="123.1" y1="517.4" x2="417.8" y2="-46.9"/>
		<line fill="none" stroke="#00A0E9" stroke-width="0.5" stroke-miterlimit="10" x1="129.1" y1="517.4" x2="423.8" y2="-46.9"/>
		<line fill="none" stroke="#00A0E9" stroke-width="0.5" stroke-miterlimit="10" x1="135.1" y1="517.4" x2="429.8" y2="-46.9"/>
		<line fill="none" stroke="#00A0E9" stroke-width="0.5" stroke-miterlimit="10" x1="141.1" y1="517.4" x2="435.8" y2="-46.9"/>
		<line fill="none" stroke="#00A0E9" stroke-width="0.5" stroke-miterlimit="10" x1="147.1" y1="517.4" x2="441.8" y2="-46.9"/>
		<line fill="none" stroke="#00A0E9" stroke-width="0.5" stroke-miterlimit="10" x1="153.1" y1="517.4" x2="447.8" y2="-46.9"/>
		<line fill="none" stroke="#00A0E9" stroke-width="0.5" stroke-miterlimit="10" x1="159.1" y1="517.4" x2="453.8" y2="-46.9"/>
		<line fill="none" stroke="#00A0E9" stroke-width="0.5" stroke-miterlimit="10" x1="165.1" y1="517.4" x2="459.8" y2="-46.9"/>
		<line fill="none" stroke="#00A0E9" stroke-width="0.5" stroke-miterlimit="10" x1="171.1" y1="517.4" x2="465.8" y2="-46.9"/>
		<line fill="none" stroke="#00A0E9" stroke-width="0.5" stroke-miterlimit="10" x1="177.1" y1="517.4" x2="471.8" y2="-46.9"/>
		<line fill="none" stroke="#00A0E9" stroke-width="0.5" stroke-miterlimit="10" x1="183.1" y1="517.4" x2="477.8" y2="-46.9"/>
		<line fill="none" stroke="#00A0E9" stroke-width="0.5" stroke-miterlimit="10" x1="189.1" y1="517.4" x2="483.8" y2="-46.9"/>
		<line fill="none" stroke="#00A0E9" stroke-width="0.5" stroke-miterlimit="10" x1="195.1" y1="517.4" x2="489.8" y2="-46.9"/>
		<line fill="none" stroke="#00A0E9" stroke-width="0.5" stroke-miterlimit="10" x1="201.1" y1="517.4" x2="495.8" y2="-46.9"/>
		<line fill="none" stroke="#00A0E9" stroke-width="0.5" stroke-miterlimit="10" x1="207.1" y1="517.4" x2="501.8" y2="-46.9"/>
		<line fill="none" stroke="#00A0E9" stroke-width="0.5" stroke-miterlimit="10" x1="213.1" y1="517.4" x2="507.8" y2="-46.9"/>
		<line fill="none" stroke="#00A0E9" stroke-width="0.5" stroke-miterlimit="10" x1="219.1" y1="517.4" x2="513.8" y2="-46.9"/>
		<line fill="none" stroke="#00A0E9" stroke-width="0.5" stroke-miterlimit="10" x1="225.1" y1="517.4" x2="519.8" y2="-46.9"/>
		<line fill="none" stroke="#00A0E9" stroke-width="0.5" stroke-miterlimit="10" x1="231.1" y1="517.4" x2="525.8" y2="-46.9"/>
		<line fill="none" stroke="#00A0E9" stroke-width="0.5" stroke-miterlimit="10" x1="237.1" y1="517.4" x2="531.8" y2="-46.9"/>
		<line fill="none" stroke="#00A0E9" stroke-width="0.5" stroke-miterlimit="10" x1="243.1" y1="517.4" x2="537.8" y2="-46.9"/>
		<line fill="none" stroke="#00A0E9" stroke-width="0.5" stroke-miterlimit="10" x1="249.1" y1="517.4" x2="543.8" y2="-46.9"/>
		<line fill="none" stroke="#00A0E9" stroke-width="0.5" stroke-miterlimit="10" x1="255.1" y1="517.4" x2="549.8" y2="-46.9"/>
		<line fill="none" stroke="#00A0E9" stroke-width="0.5" stroke-miterlimit="10" x1="261.1" y1="517.4" x2="555.8" y2="-46.9"/>
		<line fill="none" stroke="#00A0E9" stroke-width="0.5" stroke-miterlimit="10" x1="267.1" y1="517.4" x2="561.8" y2="-46.9"/>
		<line fill="none" stroke="#00A0E9" stroke-width="0.5" stroke-miterlimit="10" x1="273.1" y1="517.4" x2="567.8" y2="-46.9"/>
		<line fill="none" stroke="#00A0E9" stroke-width="0.5" stroke-miterlimit="10" x1="279.1" y1="517.4" x2="573.8" y2="-46.9"/>
		<line fill="none" stroke="#00A0E9" stroke-width="0.5" stroke-miterlimit="10" x1="285.1" y1="517.4" x2="579.8" y2="-46.9"/>
		<line fill="none" stroke="#00A0E9" stroke-width="0.5" stroke-miterlimit="10" x1="291.1" y1="517.4" x2="585.8" y2="-46.9"/>
		<line fill="none" stroke="#00A0E9" stroke-width="0.5" stroke-miterlimit="10" x1="297.1" y1="517.4" x2="591.8" y2="-46.9"/>
		<line fill="none" stroke="#00A0E9" stroke-width="0.5" stroke-miterlimit="10" x1="303.1" y1="517.4" x2="597.8" y2="-46.9"/>
		<line fill="none" stroke="#00A0E9" stroke-width="0.5" stroke-miterlimit="10" x1="309.1" y1="517.4" x2="603.8" y2="-46.9"/>
		<line fill="none" stroke="#00A0E9" stroke-width="0.5" stroke-miterlimit="10" x1="315.1" y1="517.4" x2="609.8" y2="-46.9"/>
	</g>
</g>
<g>
	<path fill="#FFFFFF" d="M75.2,125.2h-2.9l-1.9-5.5H61l-1.9,5.5h-2.9l7.8-21.3h3.4L75.2,125.2z M65.7,106.3l-3.9,11.1h7.8
		L65.7,106.3z"/>
	<path fill="#FFFFFF" d="M89.2,106.4l-4.1,18.8h-3.6l-5.1-21.3h2.7l4.2,18.9l4.1-18.9H91l4.1,18.9l4.2-18.9h2.7l-5.1,21.3h-3.6
		L89.2,106.4z"/>
	<path fill="#FFFFFF" d="M119.9,110.2c0-3.4-1.4-4.3-5.7-4.3c-2.4,0-5.3,0.1-5.3,3.8c0,2.1,1.1,2.8,3,3.1l5.9,0.6
		c1.8,0.2,5.6,0.7,5.6,5.7c0,5.4-4.1,6.2-8.5,6.2c-6.7,0-8.7-2.2-8.7-7.1h2.6c0,3.1,0.6,4.8,6.2,4.8c4.5,0,5.9-1.1,5.9-3.8
		c0-2.5-1.1-3.3-3.3-3.6l-6.4-0.7c-4.2-0.4-4.8-3.5-4.8-5.5c0-5.9,5.5-5.9,7.7-5.9c7.7,0,8.3,3.1,8.3,6.6H119.9z"/>
	<path fill="#FFFFFF" d="M135.9,103.3c-0.3,2.5-0.3,2.8-0.4,3.6h7.5v2.2h-7.8c-0.9,6.2-2.5,11.7-4.8,17.6l-2.3-0.9
		c2.5-5.3,4.2-13,4.7-16.7h-4.1v-2.2h4.4c0.2-1.7,0.2-2.7,0.2-3.6L135.9,103.3z M141.5,118.2c-0.6,0.6-1.6,1.6-1.6,3
		c0,1.7,0.8,2.7,6.2,2.7c2.1,0,3.9-0.1,5.3-0.2l0.1,2.3c-0.8,0.1-1.9,0.1-4.4,0.1c-2.9,0-4.3-0.1-5.9-0.5c-2.1-0.5-3.7-2.1-3.7-4.3
		c0-2.3,1.7-3.9,2.3-4.5L141.5,118.2z M151,112.7c-0.7,0-1.4-0.1-2.4-0.1c-4.2,0-6.2,0.6-8,1.3l-0.8-2.1c4.6-1.6,8.9-1.6,11.2-1.5
		L151,112.7z M147.1,108.1c-0.3-0.8-1-2.8-1.8-4.2l1.7-0.7c0.9,1.2,1.7,3.2,2,4.1L147.1,108.1z M150.5,107.1c-0.7-1.8-0.9-2.5-2-4
		l1.8-0.7c0.9,1.2,1.6,2.5,2,3.9L150.5,107.1z"/>
	<path fill="#FFFFFF" d="M165.3,103.3c-0.1,0.9-0.2,1.9-0.7,4.9l3.2,0c4.2,0,5.9,2.1,5.9,7.3c0,2.7-0.6,7.4-2,9.2
		c-1.3,1.6-3,1.6-4,1.6c-1.7,0-3.6-0.3-4.2-0.4l-0.2-2.4c2.3,0.4,3.9,0.6,4.5,0.6c0.4,0,1.7,0,2.4-1.4c0.8-1.6,1.2-5.4,1.2-7.3
		c0-4.5-1.4-4.9-4.4-4.8l-2.7,0.1c-1,5-2.1,10-5,15.7l-2.4-1c2.5-4.3,4-9.4,5-14.7l-4.5,0.1l-0.1-2.3l4.9,0c0.4-2.4,0.5-3.8,0.6-5.2
		L165.3,103.3z M178.5,117.9c-0.7-7.3-3.1-10-4.1-11.1l1.9-1.2c1.3,1.2,3.9,4,4.8,11.8L178.5,117.9z"/>
	<path fill="#FFFFFF" d="M188.2,107.2c-0.7,2.6-0.8,3.5-0.8,7.7c4-3.3,9.5-3.3,9.9-3.3c4.4,0,7.3,2.7,7.3,6.6c0,8-9.5,8-12.8,8
		c-0.9,0-3.5,0-6.4-0.5l-0.1-2.3c1.3,0.2,3.1,0.5,6.5,0.5c4.3,0,6.9-0.4,8.9-2.3c0.9-0.9,1.5-2.2,1.5-3.5c0-2.5-1.9-4.4-5.2-4.4
		c-3.2,0-7.2,1.2-9.5,3.8c-0.1,0.2-0.1,0.3-0.1,0.5l-2.4-0.1c0-0.9,0.1-5.1,0.1-5.7c0.1-3.1,0.5-4.5,0.7-5.5L188.2,107.2z
		 M200.4,107.2c-2.3-0.9-4.7-1.6-11.3-1.8l0.4-2.3c5.6,0.2,8.6,0.8,11.4,1.7L200.4,107.2z"/>
	<path fill="#FFFFFF" d="M231.1,106.9c-0.9-0.1-1.7-0.1-2.8-0.1c-1.5,0-1.9,0.1-2.5,0.3c-5.1,1.7-10.1,6-10.1,10.7
		c0,3.4,2.7,5.1,7.3,5.7c2.4,0.3,4.3,0.3,5.5,0.2l-0.4,2.6c-5.7-0.1-8.9-0.8-11.4-2.2c-2.2-1.2-3.6-3.6-3.6-6c0-4.9,4-8.7,8.3-11.1
		c-5.3,0.2-7.9,0.5-13.6,0.9l-0.1-2.5c2.2,0,14.5-0.7,17.2-0.7c0.8,0,5.5-0.1,6-0.2L231.1,106.9z M226.4,115
		c-0.3-0.5-1.1-2.3-2.3-3.9l1.6-0.9c1.3,1.6,2,2.9,2.4,3.8L226.4,115z M229.7,113.4c-0.9-1.7-1.3-2.4-2.3-3.7l1.7-0.9
		c0.7,0.8,1.9,2.5,2.4,3.6L229.7,113.4z"/>
	<path fill="#FFFFFF" d="M248.6,103.3c0.1,0.9,0.1,1.8,0.4,3.4c2.5-0.2,4.7-0.3,7.2-0.9l0.4,2.2c-1.6,0.4-2.6,0.6-7.2,0.8
		c0.2,0.6,0.5,2.1,1,3.4c2.7-0.1,5.4-0.4,8-1.1l0.5,2.2c-0.9,0.2-2.6,0.7-7.6,1c1.2,3,2.2,4.1,2.7,4.8l-2.3,1
		c-0.6-0.9-1.6-2.4-2.9-5.6c-1.3,0.1-2.9,0.1-4.2,0.1l-8.5,0v-2.2l8.6,0.1c1.9,0,2,0,3.4,0c0-0.1-0.4-1.3-1-3.4
		c-0.4,0-2.3,0.1-2.7,0.1H237v-2.2l7.2,0c0.7,0,1.1,0,2.4,0c-0.3-1.5-0.4-2.4-0.5-3.3L248.6,103.3z M243.2,117.7
		c-0.8,0.4-2.5,1.4-2.5,3.2c0,2.8,3.5,3.2,9.3,3.2c3.4,0,4.9-0.2,6-0.3v2.3c-1.3,0.1-2.4,0.2-5,0.2c-6.6,0-8.1-0.5-9.2-0.9
		c-1.8-0.6-3.4-2.2-3.4-4.1c0-2.2,1.5-4,3.6-5.1L243.2,117.7z"/>
	<path fill="#FFFFFF" d="M278.1,103.6v2.1c-1.1,1-5.8,5.2-6.8,6.2c1-0.4,2-0.8,4-0.8c6.9,0,7.4,5.5,7.4,7c0,2.9-1.6,8.2-10,8.2
		c-5.4,0-7-2.5-7-4.5c0-2.4,2.3-4,4.8-4c4.8,0,5.1,4.6,5.1,5c0,0.5-0.1,0.8-0.2,1.2c3.6-0.8,4.9-3.5,4.9-5.9c0-2.9-1.7-5-5.7-5
		c-4.2,0-7.2,2.5-7.3,2.6c-1.2,1.1-3.2,3-4.8,4.8l-2.1-1.6c0.8-0.6,4.2-3.9,5.5-5.1c1.3-1.3,7.4-6.9,8.6-8l-11.6,0.1v-2.3H278.1z
		 M273.5,123.1c0-1.9-1.2-3.3-3-3.3c-1.4,0-2.5,0.9-2.5,2.1c0,2.6,4.1,2.5,5.3,2.5C273.5,123.8,273.5,123.6,273.5,123.1z"/>
	<path fill="#FFFFFF" d="M291.5,114.5c-2.4,2.5-2.4,4.4-2.4,4.9c0,4.1,5.7,4.1,8.8,4.1c4.8,0,7.4-0.4,9.2-0.6l0.1,2.5
		c-1.4,0.1-4.1,0.4-7.9,0.4c-5.6,0-7.6-0.4-9.3-1.2c-2.2-1-3.1-3.2-3.1-4.9c0-3,1.9-5.2,3-6.5L291.5,114.5z M305.6,106.8
		c-3.7,0.6-6.9,2.2-9,3.5l-1.5-1.6c1.3-0.8,2.2-1.2,3.9-1.9c-8.8,0.2-9.7,0.2-10.9,0.2v-2.5c1.1,0.1,1.4,0.1,3,0.1
		c2.3,0,12.4-0.1,14.5-0.1V106.8z"/>
	<path fill="#FFFFFF" d="M319.8,103.2c-0.1,1.9-0.1,3.2-0.1,5.2c0,2.1,0.4,2.8,0.6,3.3c1.7-0.5,4.6-1.5,10-2.2l0.3,2.5
		c-4.3,0.5-8.2,1.3-11.3,2.5c-1.8,0.7-6.3,2.5-6.3,5.9c0,3.3,3.5,3.6,10.1,3.6c4.4,0,6.9-0.3,8.3-0.4l0,2.5
		c-1.7,0.2-2.7,0.3-6.6,0.3c-7.3,0-9.1-0.4-11-1.1c-2.2-0.8-3.3-2.6-3.3-4.6c0-4,3.8-6.6,7.6-8.1c-0.9-1.5-1-1.9-1-9.3H319.8z"/>
	<path fill="#FFFFFF" d="M341.7,126.6c-1.9-2.9-3.6-4.6-4.5-5.6l2.1-1.5c1.8,1.6,3.7,3.9,4.8,5.4L341.7,126.6z"/>
	<path fill="#FFFFFF" d="M65.1,161.2h-2.9l-1.9-5.5h-9.4l-1.9,5.5H46l7.8-21.3h3.4L65.1,161.2z M55.6,142.3l-3.9,11.1h7.8
		L55.6,142.3z"/>
	<path fill="#FFFFFF" d="M79.1,142.4l-4.1,18.8h-3.6l-5.1-21.3H69l4.2,18.9l4.1-18.9h3.6l4.1,18.9l4.2-18.9h2.7l-5.1,21.3h-3.6
		L79.1,142.4z"/>
	<path fill="#FFFFFF" d="M109.2,146.2c0-3.4-1.4-4.3-5.7-4.3c-2.4,0-5.3,0.1-5.3,3.8c0,2.1,1.1,2.8,3,3.1l5.9,0.6
		c1.8,0.2,5.6,0.7,5.6,5.7c0,5.4-4.1,6.2-8.5,6.2c-6.7,0-8.7-2.2-8.7-7.1h2.6c0,3.1,0.6,4.8,6.2,4.8c4.5,0,5.9-1.1,5.9-3.8
		c0-2.5-1.1-3.3-3.3-3.6l-6.4-0.7c-4.2-0.4-4.8-3.5-4.8-5.5c0-5.9,5.5-5.9,7.7-5.9c7.7,0,8.3,3.1,8.3,6.6H109.2z"/>
	<path fill="#FFFFFF" d="M124.7,139.3c-0.3,2.5-0.3,2.8-0.4,3.6h7.5v2.2H124c-0.9,6.2-2.5,11.7-4.8,17.6l-2.3-0.9
		c2.5-5.3,4.2-13,4.7-16.7h-4.1v-2.2h4.4c0.2-1.7,0.2-2.7,0.2-3.6L124.7,139.3z M130.2,154.2c-0.6,0.6-1.6,1.6-1.6,3
		c0,1.7,0.8,2.7,6.2,2.7c2.1,0,3.9-0.1,5.3-0.2l0.1,2.3c-0.8,0.1-1.9,0.1-4.4,0.1c-2.9,0-4.3-0.1-5.9-0.5c-2.1-0.5-3.7-2.1-3.7-4.3
		c0-2.3,1.7-3.9,2.3-4.5L130.2,154.2z M139.8,148.7c-0.7,0-1.4-0.1-2.4-0.1c-4.2,0-6.2,0.6-8,1.3l-0.8-2.1c4.6-1.6,8.9-1.6,11.2-1.5
		L139.8,148.7z M135.9,144.1c-0.3-0.8-1-2.8-1.8-4.2l1.7-0.7c0.9,1.2,1.7,3.2,2,4.1L135.9,144.1z M139.3,143.1c-0.7-1.8-0.9-2.5-2-4
		l1.8-0.7c0.9,1.2,1.6,2.5,2,3.9L139.3,143.1z"/>
	<path fill="#FFFFFF" d="M153.6,139.3c-0.1,0.9-0.2,1.9-0.7,4.9l3.2,0c4.2,0,5.9,2.1,5.9,7.3c0,2.7-0.6,7.4-2,9.2
		c-1.3,1.6-3,1.6-4,1.6c-1.7,0-3.6-0.3-4.2-0.4l-0.2-2.4c2.3,0.4,3.9,0.6,4.5,0.6c0.4,0,1.7,0,2.4-1.4c0.8-1.6,1.2-5.4,1.2-7.3
		c0-4.5-1.4-4.9-4.4-4.8l-2.7,0.1c-1,5-2.1,10-5,15.7l-2.4-1c2.5-4.3,4-9.4,5-14.7l-4.5,0.1l-0.1-2.3l4.9,0c0.4-2.4,0.5-3.8,0.6-5.2
		L153.6,139.3z M166.7,153.9c-0.7-7.3-3.1-10-4.1-11.1l1.9-1.2c1.3,1.2,3.9,4,4.8,11.8L166.7,153.9z"/>
	<path fill="#FFFFFF" d="M177,143.2c-0.7,2.6-0.8,3.5-0.8,7.7c4-3.3,9.5-3.3,9.9-3.3c4.4,0,7.3,2.7,7.3,6.6c0,8-9.5,8-12.8,8
		c-0.9,0-3.5,0-6.4-0.5l-0.1-2.3c1.3,0.2,3.1,0.5,6.5,0.5c4.3,0,6.9-0.4,8.9-2.3c0.9-0.9,1.5-2.2,1.5-3.5c0-2.5-1.9-4.4-5.2-4.4
		c-3.2,0-7.2,1.2-9.5,3.8c-0.1,0.2-0.1,0.3-0.1,0.5l-2.4-0.1c0-0.9,0.1-5.1,0.1-5.7c0.1-3.1,0.5-4.5,0.7-5.5L177,143.2z
		 M189.2,143.2c-2.3-0.9-4.7-1.6-11.3-1.8l0.4-2.3c5.6,0.2,8.6,0.8,11.4,1.7L189.2,143.2z"/>
	<path fill="#FFFFFF" d="M201.4,140.4v7.6h6.8v-9.6h2.3v9.6h6.9v-7.6h2.3v9.7h-9.2v9.8h7.9v-7.9h2.3v11.5h-2.3V162h-18.2v1.5h-2.3
		v-11.5h2.3v7.9h7.9v-9.8h-9.1v-9.7H201.4z"/>
	<path fill="#FFFFFF" d="M248.2,142.9c-0.9-0.1-1.7-0.1-2.8-0.1c-1.5,0-1.9,0.1-2.5,0.3c-5.1,1.7-10.1,6-10.1,10.7
		c0,3.4,2.7,5.1,7.3,5.7c2.4,0.3,4.3,0.3,5.5,0.2l-0.4,2.6c-5.7-0.1-8.9-0.8-11.4-2.2c-2.2-1.2-3.6-3.6-3.6-6c0-4.9,4-8.7,8.3-11.1
		c-5.3,0.2-7.9,0.5-13.6,0.9l-0.1-2.5c2.2,0,14.5-0.7,17.2-0.7c0.8,0,5.5-0.1,6-0.2L248.2,142.9z"/>
	<path fill="#FFFFFF" d="M265.8,162.8c-3.5-2.9-7.2-5.4-11.1-7.7c-3.8-2.2-4.9-2.9-4.9-4.4c0-1.2,0.8-2,3-3.8
		c7.1-5.6,7.9-6.2,9.9-8.3l2.4,1.6c-3.2,3-3.9,3.5-10.3,8.2c-1.4,1-1.6,1.2-1.8,1.4c-0.2,0.2-0.4,0.5-0.4,0.7c0,0.5,0,0.6,2,1.7
		c2,1.1,7.7,4.3,13.3,8.6L265.8,162.8z"/>
	<path fill="#FFFFFF" d="M285.5,139.6v2.1c-1.1,1-5.8,5.2-6.8,6.2c1-0.4,2-0.8,4-0.8c6.9,0,7.4,5.5,7.4,7c0,2.9-1.6,8.2-10,8.2
		c-5.4,0-7-2.5-7-4.5c0-2.4,2.3-4,4.8-4c4.8,0,5.1,4.6,5.1,5c0,0.5-0.1,0.8-0.2,1.2c3.6-0.8,4.9-3.5,4.9-5.9c0-2.9-1.7-5-5.7-5
		c-4.2,0-7.2,2.5-7.3,2.6c-1.2,1.1-3.2,3-4.8,4.8l-2.1-1.6c0.8-0.6,4.2-3.9,5.5-5.1c1.3-1.3,7.4-6.9,8.6-8l-11.6,0.1v-2.3H285.5z
		 M280.9,159.1c0-1.9-1.2-3.3-3-3.3c-1.4,0-2.5,0.9-2.5,2.1c0,2.6,4.1,2.5,5.3,2.5C280.9,159.8,280.9,159.6,280.9,159.1z"/>
	<path fill="#FFFFFF" d="M291.5,150.9c0.7-2.1,0.9-5.5,0.9-6.9l1.7,0.2c0,0.8-0.1,5-0.9,7.6L291.5,150.9z M297.5,138.4v25h-2.2v-25
		H297.5z M299,148.1c-0.5-2.3-0.8-3.3-1.2-4.1l1.6-0.6c0.6,1.2,1,2.2,1.4,4.1L299,148.1z M302.6,145.7c-0.9-2.3-1.6-3.6-2.8-5.4
		l1.9-0.8c1.2,1.6,2.2,3.3,3,5.4L302.6,145.7z M316.2,163.4H314v-1.3h-11.4v1.3h-2.1v-15.5h2.1v12.3H314v-12.3h2.1V163.4z
		 M311.6,158.1c-0.5-0.7-1.1-1.5-2.7-3.4c-2,2.6-3.4,3.8-4.2,4.4l-1.5-1.5c0.8-0.6,2.4-1.9,4.2-4.4c-1.7-1.7-3-2.7-3.8-3.3l1.4-1.4
		c0.9,0.6,1.8,1.3,3.4,3c0.6-1.1,1.1-2.2,1.9-4.4l1.9,0.8c-0.3,0.9-0.8,2.5-2.3,5.1c1.8,1.9,2.6,3.1,3.1,3.8L311.6,158.1z
		 M307.6,144.6c-0.4-1.8-1.3-4-2.1-5.6l2-0.5c0.6,1.2,1.7,3.6,2.2,5.5L307.6,144.6z M311.8,145.4c1.8-2.6,2.8-5.7,3.1-6.5l2,0.9
		c-0.6,1.9-1.9,4.7-3.3,6.6L311.8,145.4z"/>
	<path fill="#FFFFFF" d="M342,144.4c-0.1,1.1-0.3,3.7-0.9,6.6c1.5,0.5,1.9,0.8,3.5,1.5l-0.9,2.4c-1.2-0.6-2.1-1.1-3.2-1.5
		c-2,7.3-6.3,8.7-8,9.3l-1.4-1.9c3.1-0.9,5.7-2.5,7.2-8.3c-3.6-1.3-5.8-1.5-6.6-1.6c-1.5,6.3-3.1,9.9-7,9.9c-3,0-4.4-2.5-4.4-4.8
		c0-3,2.2-7.2,9.5-7.4c0.6-2.9,0.8-5.6,0.9-6.6l-8.6,0.1v-2.3h11.3c-0.8,5.9-0.8,6.6-1.3,8.9c2.9,0.2,5.6,1.1,6.7,1.4
		c0.1-0.5,0.5-2.5,0.6-6L342,144.4z M322.5,156.1c0,1.1,0.5,2.6,2.2,2.6c1.9,0,3.3-1.7,4.8-8C322.7,151,322.5,155.4,322.5,156.1z"/>
	<path fill="#FFFFFF" d="M355.5,158.5c0,2.2-1.8,4-4,4c-2.2,0-4-1.8-4-4c0-2.2,1.8-4,4-4C353.7,154.5,355.5,156.2,355.5,158.5z
		 M348.8,158.5c0,1.5,1.2,2.6,2.7,2.6c1.5,0,2.6-1.2,2.6-2.6c0-1.5-1.2-2.7-2.6-2.7C350,155.8,348.8,157,348.8,158.5z"/>
</g>
<g>
	<g>
		<path fill="#FFFFFF" d="M42.1,198.5c-1.1-1.4-2.4-3.2-3-4.2v12.1h-1.3v-11.8c-1.1,2.5-1.7,3.7-4.3,6.8l-0.8-1.4
			c2.1-2.1,3.7-4.3,5-8.1h-4.7v-1.2h4.8v-4.1c-2,0.3-3.5,0.4-4.5,0.4l-0.3-1.2c3.1,0,6.2-0.4,9.1-1.4l0.5,1.1
			c-0.8,0.3-1.6,0.5-3.6,0.9v4.3h4.2v1.2h-4.2v0.2c1.2,2.2,2.2,3.7,3.7,5.3L42.1,198.5z M48.3,184.6c-0.4,2.4-2,12.4-4.1,18.6
			c3-0.3,3.6-0.4,8.5-1c-0.9-2.9-1.7-4.6-3.1-7.3l1.2-0.5c1.5,2.6,3.5,7.7,4.2,11.3l-1.3,0.5c-0.2-0.8-0.4-1.6-0.7-2.9
			c-7.6,1-8.1,1.1-12,1.5l-0.2-1.3c0.3,0,1.6-0.1,1.8-0.2c1.9-6.2,3.3-12.5,4.1-19L48.3,184.6z"/>
		<path fill="#FFFFFF" d="M64.9,184.9c-0.1,1-0.2,2-0.4,3.4h7.4v1.4h-7.6c-1.1,6.9-2.7,12.6-4.5,16.2l-1.5-0.6
			c2.2-3.8,3.8-10.9,4.4-15.7h-3.8v-1.4h4c0.1-0.6,0.3-3,0.4-3.5L64.9,184.9z M69.6,198.2c-0.8,1.3-1.3,2.1-1.3,3.2
			c0,2.6,2.9,2.7,6.3,2.7c1.7,0,3.4-0.1,4.8-0.2v1.5c-0.7,0-4.5,0.1-4.7,0.1c-3.7,0-4.8-0.4-5.7-0.7c-1.5-0.6-2.2-2.1-2.2-3.4
			c0-1.6,0.8-2.8,1.5-3.8L69.6,198.2z M78.9,193c-0.6,0-1.3-0.1-2.4-0.1c-3.9,0-6.1,0.8-7,1.1l-0.4-1.3c1.3-0.5,3.9-1.4,9.8-1.2V193
			z"/>
		<path fill="#FFFFFF" d="M90.4,185c-0.1,0.9-0.1,1.3-0.3,3h12.9v1.3H89.8c-0.4,3.1-1.2,4.9-1.5,5.6c1-0.6,1.6-1,2.4-1.3
			c2.1-0.6,3.6-0.7,4.5-0.7c5.3,0,6.5,3.6,6.5,5.8c0,6.5-7.2,6.7-11.7,6.7c-1.8,0-2.8-0.1-3.3-0.1l-0.3-1.4c1.8,0.1,3,0.2,4.2,0.2
			c5.6,0,9.6-0.9,9.6-5.3c0-3.8-2.8-4.6-5.2-4.6c-0.9,0-4.4,0-7.2,2.9c-0.2,0.4-0.3,0.6-0.5,1.1l-1.4-0.5c1.5-2.8,2.2-5.9,2.6-8.4
			h-6.2V188h6.4c0.2-1.3,0.2-2.3,0.2-3L90.4,185z"/>
		<path fill="#FFFFFF" d="M111.3,185.2c-0.4,2.2-1.1,6-1.1,11.7c0,5,0.5,7.2,0.8,8.2l-1.4,0.2c-0.2-0.9-0.7-3.5-0.7-8.8
			c0-5.8,0.6-9.8,0.9-11.5L111.3,185.2z M122.2,189.5l-0.1-4.4h1.5l0.1,4.4h4.9v1.4h-4.8l0,7.2c1.6,0.8,3.5,2,5.1,3.8l-1,1.4
			c-1.1-1.5-2.7-2.8-4.1-3.6v1.2c0,1.8,0.1,4.5-4.5,4.5c-4,0-5.1-2.4-5.1-4c0-2.5,2.2-4.2,5.3-4.2c0.3,0,1.5,0,3,0.5l-0.1-6.6h-7.9
			v-1.4H122.2z M122.3,198.9c-0.7-0.3-1.5-0.6-2.9-0.6c-2.2,0-4.1,0.8-4.1,2.9c0,2.6,2.8,2.8,3.6,2.8c3.3,0,3.3-1.9,3.3-3.4V198.9z"
			/>
		<path fill="#FFFFFF" d="M137.1,199.4l-1.9,5.2h-1.8l7.3-18.9h2.2l7.3,18.9h-1.8l-1.9-5.2H137.1z M145.9,197.9l-4.1-11l-4.1,11
			H145.9z"/>
		<path fill="#FFFFFF" d="M153.7,185.6l4.2,17.6l4.2-17.6h2.4l4.2,17.6l4.2-17.6h1.7l-4.8,18.9h-2.3l-4.2-17.6l-4.2,17.6h-2.3
			l-4.8-18.9H153.7z"/>
		<path fill="#FFFFFF" d="M191.3,191c0-2.4-0.5-4.2-5.4-4.2c-3.5,0-5.1,1-5.1,3.8c0,1.9,0.8,2.9,2.9,3.1l5.1,0.6c1.5,0.2,5,0.6,5,5
			c0,3.7-2,5.4-7.3,5.4c-6,0-7.5-2.4-7.5-6.1h1.7c0,2.7,0.6,4.7,5.9,4.7c4.8,0,5.7-1.6,5.7-3.8c0-2-0.6-3.3-3.4-3.6l-5.3-0.6
			c-2.9-0.3-4.3-2-4.3-4.7c0-5.2,4.7-5.2,6.6-5.2c6.5,0,7.1,2.8,7.1,5.6H191.3z"/>
		<path fill="#FFFFFF" d="M210.1,204.1c2.8-0.3,9.6-0.9,9.6-8.6c0-2-0.7-8.3-8.4-8.3c-0.4,5.1-1.1,9.9-3.4,13.5
			c-1.5,2.4-3,2.9-3.9,2.9c-2.3,0-4.2-2.9-4.2-6.7c0-6.2,4.2-10.9,11.4-10.9c7.4,0,10,5.1,10,9.5c0,9-7.8,9.9-10.7,10.2L210.1,204.1
			z M201.3,196.8c0,2,0.7,5.2,2.8,5.2c0.9,0,1.8-0.6,2.7-2.2c2.3-3.6,2.8-8.9,3-12.6C203.6,187.9,201.3,192.5,201.3,196.8z"/>
		<path fill="#FFFFFF" d="M231.2,197.8c-1.2-1.5-1.8-3.1-2-3.4v12h-1.2v-12.5c-0.2,0.5-1.6,4.5-3.7,6.9l-0.8-1.2
			c1.8-2.2,3.7-6.1,4.4-9.1h-4.2v-1.2h4.3v-5h1.2v5h3.4v1.2h-3.4v1.5c0.3,0.7,1.7,3.3,3,4.8L231.2,197.8z M232.3,195.2
			c3.6-2.5,3.8-5.2,4-7.2h-3.3v-1.2h3.4c0-0.9,0-1.7,0-2.5h1.2c0,0.8,0,1.5,0,2.5h4.8v6.6c0,0.3,0,0.6,0.6,0.6h0.6
			c0.4,0,0.6,0,0.7-0.4c0.1-0.2,0.1-2.4,0.1-3.1l1.3,0.2c-0.1,3.9-0.1,4.5-1.8,4.5h-1.3c-1,0-1.4-0.3-1.4-1.3v-6h-3.6
			c-0.1,2.3-0.3,5.1-4.5,8.2L232.3,195.2z M245.6,199.2h-6.1v7.2h-1.3v-7.2h-5.9V198h5.9v-3h1.3v3h6.1V199.2z"/>
		<path fill="#FFFFFF" d="M252.1,185.4c-0.6,2.4-1.2,5.4-1.2,11.1c0,5.5,0.5,7.6,0.8,8.8l-1.6,0.1c-0.3-1.7-0.7-4.2-0.7-8.7
			c0-3.9,0.2-7.7,1.1-11.5L252.1,185.4z M258.4,195.9c-1.2,1.8-1.2,3.3-1.2,3.6c0,2.6,3,2.9,5.7,2.9c0.4,0,3.8-0.1,5.5-0.3v1.6
			c-1.4,0.1-2.5,0.2-4.3,0.2c-3,0-8.3,0-8.3-4.3c0-1.1,0.3-2.4,1.3-4.1L258.4,195.9z M267.8,187.4v1.4h-11.3v-1.4H267.8z"/>
		<path fill="#FFFFFF" d="M279.1,197.1c-0.1-0.4-0.1-0.5-0.4-1.6c-0.3,0-0.7,0.1-1.9,0.2v10.7h-1.2v-10.5c-1.8,0.1-2.7,0.2-3.7,0.2
			l-0.1-1.1c1.1,0,1.4,0,1.8,0c0.5-0.8,1.1-1.7,1.5-2.5c-1.2-1.4-2.5-2.4-3.3-3l0.7-0.9c0.5,0.3,0.6,0.4,0.8,0.6
			c1.2-2.3,1.7-3.8,2.1-4.7l1.2,0.5c-0.8,1.9-1.3,3.1-2.3,4.9c0.6,0.5,0.9,0.8,1.5,1.5c1.3-2.4,1.4-2.6,2.5-4.9l1.1,0.5
			c-1.5,3-2.8,5.6-4.3,8c1.6-0.1,2.3-0.1,3.5-0.3c-0.3-0.9-0.4-1.2-0.6-1.7l1-0.4c0.4,0.8,0.9,2.1,1.3,4.2L279.1,197.1z M272.9,205
			l-1.1-0.7c1.1-2,1.2-5.4,1.3-6.4l1.1,0.1C274.1,199.7,273.9,202.8,272.9,205z M278.9,203.7c-0.2-2.3-0.4-3.8-0.9-5.6l1.2-0.2
			c0.6,2,0.9,4.3,1,5.5L278.9,203.7z M290.7,200.4v4.6c0,1.4-1.2,1.5-1.9,1.5h-2.4l-0.3-1.4l2.6,0c0.6,0,0.7-0.3,0.7-0.6v-4.1h-9.1
			v-1.1h9.1v-1.8h-8.6v-7.7h5.2v-1.9h-5.8v-1.1h5.8v-2.4h1.2v2.4h4.3c-0.8-0.7-2-1.4-2.3-1.5l0.7-0.9c0.2,0.1,1.5,0.7,2.4,1.5
			l-0.7,0.9h1.8v1.1h-6.1v1.9h5.3v7.7h-1.9v1.8h2.9v1.1H290.7z M284.5,204.7c-1.4-1.7-2.4-2.6-3-3.1l0.8-0.8c1.3,1,2.1,2,3.1,3.1
			L284.5,204.7z M286.1,190.7h-4v2.3h4V190.7z M286.1,194h-4v2.3h4V194z M291.4,190.7h-4.1v2.3h4.1V190.7z M291.4,194h-4.1v2.3h4.1
			V194z"/>
		<path fill="#FFFFFF" d="M301,188.4c-0.7,2.1-0.8,4-0.8,7.8c4-3.5,9.2-3.5,9.7-3.5c3,0,6.2,1.7,6.2,5.5c0,7.1-8.4,7.1-12.1,7.1
			c-1.7,0-2.9,0-4.7-0.2l-0.1-1.4c1.6,0.2,2.9,0.3,4.7,0.3c4.6,0,10.6-0.4,10.6-5.7c0-1.8-1.1-4.3-4.8-4.3c-3,0-8,1.3-9.5,4.3
			l-1.4,0c0-0.4,0-0.9,0.1-5c0-2.8,0.5-4.5,0.7-5.2L301,188.4z M312.1,187.9c-3-1.2-6.3-1.5-9.6-1.7l0.3-1.4
			c1.8,0.1,6.4,0.4,9.7,1.6L312.1,187.9z"/>
		<path fill="#FFFFFF" d="M326.4,185c-0.1,1.2-0.2,2.8-0.2,6.6c0.7-0.9,4.4-5.1,8.4-5.1c1.8,0,3.5,1,3.5,3.7c0,0.4,0,1.1,0,1.6
			l-0.2,3.3c-0.2,3.2-0.2,3.6-0.2,4.8c0,2.1,0,3.4,3.8,3.4l-0.5,1.4c-4.4-0.1-4.8-1.8-4.8-4.4c0-1.2,0-1.6,0.2-5.2l0.2-3.4
			c0.1-2.1,0-3.8-2.2-3.8c-1.1,0-3.8,0.5-8.1,5.5c0,1.9-0.1,10.5-0.1,12.2h-1.4c0-0.7,0-1.6,0.1-10.1c-1.3,2.6-2.4,4.1-3.9,5.9
			l-1.1-1.2c1.1-1,3.3-3,5-7.6l0-2.1l-4.4,0.1v-1.4h4.5c0-0.5,0-3.5,0-4.1H326.4z"/>
		<path fill="#FFFFFF" d="M355.4,184.8h1.5v3h6.6v1.3h-6.6v5c0.1,0.5,0.3,1,0.4,1.6c0.1,0.6,0.2,1.3,0.2,2.1c0,3.7-1.6,7.6-9.9,8
			l-0.5-1.4c8.5,0.1,9-4.6,9.2-6.6c-0.4,0.9-1.2,3.2-4.6,3.2c-3.3,0-4.6-2.6-4.6-4.8c0-2.5,1.6-5,5.1-5c2,0,2.9,0.9,3.2,1.3l0-3.4
			h-12.7v-1.3h12.7L355.4,184.8z M355.5,195.1c0-0.1-0.4-2.6-3.2-2.6c-1.9,0-3.6,1.2-3.6,3.6c0,1.3,0.7,3.6,3.2,3.6
			c0.7,0,1.5-0.2,2.2-0.6c1-0.6,1.5-2.4,1.5-2.7V195.1z M361,195.3c-0.7-1.4-1.1-2.2-2-3.2l1.2-0.6c0.7,0.8,1.6,2,2.1,3.1L361,195.3
			z M363.6,193.9c-0.4-0.8-1.1-2-2-3.1l1.1-0.6c0.9,0.9,1.5,1.8,2.1,3L363.6,193.9z"/>
		<path fill="#FFFFFF" d="M367.7,205.7c-1.4-2.1-2.4-3.2-3.7-4.6l1.3-1.1c1.6,1.5,3,3.2,3.9,4.5L367.7,205.7z"/>
		<path fill="#FFFFFF" d="M37.6,242.4h-1.3v-13.7c-0.6,0.9-1.5,2.1-2.5,3.1l-0.9-1.2c2.3-2.3,4.7-6.3,5.9-10.2l1.3,0.4
			c-0.4,1.2-1.1,3.1-2.5,5.7V242.4z M47.2,226.7v-6.3h1.3v6l5.7-1.5c0.1,1.9,0,7.7-0.4,9.1c-0.3,1.1-0.9,1.7-2.3,1.7h-1.8l-0.2-1.4
			l2.2,0.1c0.3,0,0.9,0,1-0.8c0-0.2,0.3-2.5,0.2-7.1l-4.4,1.2v9.6h-1.3V228l-4.1,1.1v10.4c0,0.4,0,1.2,1,1.2h8c0.4,0,0.9,0,1.1-0.5
			c0.3-0.8,0.4-2.5,0.5-3.5L55,237c-0.3,4.1-0.8,4.8-2.6,4.8h-8.4c-0.8,0-1.3,0-1.8-0.5c-0.2-0.2-0.5-0.8-0.5-1.5v-10.5l-2.9,0.7
			l-0.3-1.2l3.2-0.8v-5.5h1.3v5.2L47.2,226.7z"/>
		<path fill="#FFFFFF" d="M67.6,240.1c2.8-0.3,9.6-0.9,9.6-8.6c0-2-0.7-8.3-8.4-8.3c-0.4,5.1-1.1,9.9-3.4,13.5
			c-1.5,2.4-3,2.9-3.9,2.9c-2.3,0-4.2-2.9-4.2-6.7c0-6.2,4.2-10.9,11.4-10.9c7.4,0,10,5.1,10,9.5c0,9-7.8,9.9-10.7,10.2L67.6,240.1z
			 M58.7,232.8c0,2,0.7,5.2,2.8,5.2c0.9,0,1.8-0.6,2.7-2.2c2.3-3.6,2.8-8.9,3-12.6C61.1,223.9,58.7,228.5,58.7,232.8z"/>
		<path fill="#FFFFFF" d="M82.4,240.1c2.6-2.8,5.3-7.2,5.7-18.1l1.6,0.3c-0.6,10.2-2.6,15.2-6,18.8L82.4,240.1z M98,222.1
			c0.7,10.7,3.5,15,6.4,18l-1.3,1.1c-3.3-3.5-5.8-8.4-6.6-18.9L98,222.1z M104.5,222.8c0,1.4-1.1,2.5-2.5,2.5
			c-1.4,0-2.5-1.1-2.5-2.5c0-1.4,1.1-2.5,2.5-2.5S104.5,221.4,104.5,222.8z M100.6,222.8c0,0.8,0.6,1.4,1.4,1.4
			c0.8,0,1.4-0.7,1.4-1.4c0-0.8-0.6-1.4-1.4-1.4C101.2,221.4,100.6,222,100.6,222.8z"/>
		<path fill="#FFFFFF" d="M129.1,223.4c-0.6,10.3-6,16.8-15.9,18.1l-0.5-1.4c3.4-0.4,13.3-1.9,14.7-15.3h-17.2v-1.3H129.1z
			 M126.8,223.2c-0.2-0.6-0.7-1.8-1.6-3.1l1.2-0.4c1,1.2,1.6,2.5,1.8,3L126.8,223.2z M130.1,223.3c-0.6-1.4-1.3-2.5-1.8-3.3l1.3-0.4
			c0.7,0.9,1.3,1.8,1.8,3.1L130.1,223.3z"/>
		<path fill="#FFFFFF" d="M139,234.9h-1.4v-13.3h1.4V234.9z M152.1,231.8c0,8-6.4,9.5-13.1,9.8l-0.3-1.4c8.7-0.2,11.9-2.7,11.9-8.3
			v-10.7h1.5V231.8z"/>
		<path fill="#FFFFFF" d="M163.2,233.6c-0.4-2.4-1.1-4.2-2-5.9l1.3-0.4c1.2,2.4,1.8,4.8,2.1,5.9L163.2,233.6z M163.3,240.6
			c5.6-1.1,11.2-3.7,12.4-13.9l1.4,0.3c-1.8,10-6.4,13.3-13.3,14.9L163.3,240.6z M168.6,232.4c-0.3-1.9-0.8-3.9-1.6-5.8l1.2-0.3
			c0.6,1.4,1.4,4.1,1.8,5.8L168.6,232.4z"/>
		<path fill="#FFFFFF" d="M202,224.2c-0.8,4.4-2.6,8.5-5.6,11.8c-3.2,3.5-7.4,4.8-11.2,5.7l-0.6-1.4c4.2-0.8,7.7-2.1,10.7-5.4
			c2.4-2.6,4.1-5.9,4.9-9.4h-9.9c-1.4,1.8-2.9,3.8-6,5.9l-0.9-1.2c2-1.4,5.6-4.3,7.9-9.7l1.6,0.2c-0.4,0.8-0.7,1.7-1.8,3.4H202z"/>
		<path fill="#FFFFFF" d="M224.6,224.2c-0.8,4.4-2.6,8.5-5.6,11.8c-3.2,3.5-7.4,4.8-11.2,5.7l-0.6-1.4c4.2-0.8,7.7-2.1,10.7-5.4
			c2.4-2.6,4.1-5.9,4.9-9.4h-9.9c-1.4,1.8-2.9,3.8-6,5.9l-0.9-1.2c2-1.4,5.6-4.3,7.9-9.7l1.6,0.2c-0.4,0.8-0.7,1.7-1.8,3.4H224.6z"
			/>
		<path fill="#FFFFFF" d="M248.9,227.6c-1.2,10.4-7.2,13-15.6,13.9l-0.4-1.4c6.9-0.7,12.9-2.4,14.4-11.1h-17.7v-1.3H248.9z
			 M247.5,221.8v1.4h-16.1v-1.4H247.5z"/>
		<path fill="#FFFFFF" d="M264.1,220.6v4.1h8.3v1.7c0,4.4-1.1,8.6-4.3,11.3c-3.9,3.2-8.7,3.7-10.7,3.9l-0.4-1.4
			c1.8-0.2,6.5-0.6,10.2-3.7c1.9-1.6,3.6-4.1,3.6-9.8V226h-15v6.4h-1.4v-7.8h8.2v-4.1H264.1z"/>
		<path fill="#FFFFFF" d="M283.7,220.8v6.6c2.3,0.8,7.2,2.5,12.3,5.4l-0.7,1.5c-4.6-2.7-7.1-3.8-11.6-5.4v13.1h-1.5v-21.1H283.7z
			 M292.9,225.7c-0.6-1.3-1.3-2.6-2-3.7l1.2-0.6c0.3,0.4,1.4,2.3,2,3.7L292.9,225.7z M295.8,224.6c-0.7-1.5-1.1-2.2-2-3.6l1.1-0.6
			c0.7,1,1.7,2.7,2,3.4L295.8,224.6z"/>
		<path fill="#FFFFFF" d="M310.8,220.6c0.6,0.7,1.7,2,2.6,4c1-0.1,1.4-0.1,1.7-0.1c3.9,0,5.4,3,5.4,5.2c0,3.5-2.9,5.4-6.2,5.4
			c-1.8,0-3-0.5-3.8-0.8l0.3-1.4c0.8,0.3,1.8,0.8,3.4,0.8c2.8,0,4.8-1.6,4.8-4.1c0-1.5-0.9-3.8-4-3.8c-0.3,0-0.6,0-1.1,0.1
			c0.3,0.7,0.4,1.3,0.6,2.1l-1.5,0.6c-0.1-0.7-0.2-1.3-0.7-2.4c-2.2,0.5-5.2,1.6-6.3,2c1.2,4.6,1.4,5.4,3.1,13.5l-1.7,0.3
			c-0.5-3.9-1.7-9.4-2.8-13.3c-2,0.7-2.7,1-4.5,1.9l-0.6-1.5c0.8-0.2,4.1-1.4,4.8-1.7c-0.4-1.8-1-3.6-1.5-5.3l1.5-0.4
			c0.1,0.3,1.3,4.9,1.4,5.2c2.4-0.8,4.7-1.4,6.1-1.8c-0.8-1.7-1.7-2.8-2.4-3.7L310.8,220.6z"/>
		<path fill="#FFFFFF" d="M324.3,238.5c4.6-2.3,9.9-7.4,12.7-11.8h-12.1v-1.4h12.3v-4.5h1.5v4.5h6.3v1.4h-6.3V239
			c0,1.9-0.8,2.7-3.1,2.7c-1.4,0-2.7-0.2-3.4-0.3l-0.1-1.5c0.9,0.1,2.2,0.3,3.7,0.3c1.2,0,1.5-0.3,1.5-1.2v-10.2
			c-2.6,3.9-7.2,8.4-11.9,10.8L324.3,238.5z"/>
		<path fill="#FFFFFF" d="M355.6,227.5c-2.1-1.5-5.3-2.8-7.6-3.5l0.8-1.3c1.8,0.6,5,1.8,7.6,3.4L355.6,227.5z M348.4,239.3
			c7.1-0.2,14.9-3.9,18.4-14.9l1.4,0.6c-0.9,2.5-2.8,7.7-7.6,11.5c-3.3,2.7-7.4,4.2-11.7,4.4L348.4,239.3z"/>
		<path fill="#FFFFFF" d="M36.8,276.1c13.3-1.7,14.6-12.4,14.9-15.4H34.5v-1.4h16.4c0-0.1-0.1-0.3-0.1-0.6c0-1.5,1.2-2.5,2.5-2.5
			c1.4,0,2.5,1.1,2.5,2.5c0,1.3-1,2.5-2.5,2.5c-0.6,4.3-2.2,14-15.9,16.3L36.8,276.1z M51.8,258.8c0,0.8,0.6,1.4,1.4,1.4
			c0.8,0,1.4-0.7,1.4-1.4c0-0.8-0.6-1.4-1.4-1.4C52.5,257.3,51.8,257.9,51.8,258.8z"/>
		<path fill="#FFFFFF" d="M62.6,275.7c10.1-1.1,13-6.4,15.1-12.8l1.3,0.8c-2.1,5.9-5,12.9-17.8,13.6v-20h1.5V275.7z"/>
		<path fill="#FFFFFF" d="M102,277.5c-6.3-2.3-11.9-3-18.8-3.5l0.3-1.3c7.5,0.5,13.3,1.5,18.8,3.3L102,277.5z M99.8,268.7
			c-5-1.7-9.7-2.4-15-2.8l0.3-1.3c5.5,0.5,9.9,1.1,15,2.7L99.8,268.7z M101,261.2c-4.6-1.3-11.1-2.1-16.1-2.4l0.3-1.3
			c6.6,0.4,10.5,1,16.1,2.2L101,261.2z"/>
		<path fill="#FFFFFF" d="M107.6,276.3c4.7-2.1,11.8-7.1,15.1-16.7h-14v-1.4h15.9c-1,3.7-2.6,7.1-4.9,10.1c0.8,0.7,4.6,3.7,8.7,7.8
			l-1.2,1.2c-2.2-2.4-6.2-6.1-8.4-7.8c-2.8,3.4-6.3,6.1-10.3,8L107.6,276.3z"/>
		<path fill="#FFFFFF" d="M142,276.1c2.8-0.3,9.6-0.9,9.6-8.6c0-2-0.7-8.3-8.4-8.3c-0.4,5.1-1.1,9.9-3.4,13.5
			c-1.5,2.4-3,2.9-3.9,2.9c-2.3,0-4.2-2.9-4.2-6.7c0-6.2,4.2-10.9,11.4-10.9c7.4,0,10,5.1,10,9.5c0,9-7.8,9.9-10.7,10.2L142,276.1z
			 M133.1,268.8c0,2,0.7,5.2,2.8,5.2c0.9,0,1.8-0.6,2.7-2.2c2.3-3.6,2.8-8.9,3-12.6C135.5,259.9,133.1,264.5,133.1,268.8z"/>
		<path fill="#FFFFFF" d="M175.6,273.4c-0.7-0.8-2.5-2.7-5.5-5.2c-3.9,5.5-9.1,8-11.5,9.1l-0.8-1.3c2.2-1,7.2-3.2,11.2-8.7
			c-3.8-3-6.1-4.3-7.6-5.2l0.8-1.1c2.7,1.4,5.2,3.2,7.6,5.1c2.5-4,3.8-7.8,4.2-9l1.5,0.5c-1.6,4.6-3.5,7.8-4.5,9.4
			c3.2,2.6,5,4.5,5.8,5.2L175.6,273.4z"/>
		<path fill="#FFFFFF" d="M186,270.9h-1.4v-13.3h1.4V270.9z M199.1,267.8c0,8-6.4,9.5-13.1,9.8l-0.3-1.4c8.7-0.2,11.9-2.7,11.9-8.3
			v-10.7h1.5V267.8z"/>
		<path fill="#FFFFFF" d="M210.2,269.6c-0.4-2.4-1.1-4.2-2-5.9l1.3-0.4c1.2,2.4,1.8,4.8,2.1,5.9L210.2,269.6z M210.3,276.6
			c5.6-1.1,11.2-3.7,12.4-13.9l1.4,0.3c-1.8,10-6.4,13.3-13.3,14.9L210.3,276.6z M215.6,268.4c-0.3-1.9-0.8-3.9-1.6-5.8l1.2-0.3
			c0.6,1.4,1.4,4.1,1.8,5.8L215.6,268.4z"/>
		<path fill="#FFFFFF" d="M235.7,256.8v6.6c4.7,1.4,9.4,3.8,12.3,5.4l-0.7,1.5c-3.3-2-7.5-4.1-11.6-5.4v13.1h-1.5v-21.1H235.7z"/>
		<path fill="#FFFFFF" d="M259.5,256.5c-0.1,0.8-0.3,1.4-0.7,3h10.9v1.3h-11.3c-0.9,2.8-1.6,3.8-2,4.3c0.7-0.6,2.3-1.8,4.7-1.8
			c3,0,3.3,2.1,3.5,3.2c3.7-1.5,4.1-1.6,6.5-2.6l0.5,1.5c-2.3,0.7-4.7,1.5-6.8,2.4c0.1,1.1,0.1,2.5,0.1,3.4c0,0.3,0,1-0.1,1.6h-1.4
			c0.1-0.7,0.1-1.2,0.1-2.4c0-0.2,0-1.1,0-2c-3.1,1.4-5.9,3.2-5.9,5.3c0,2.4,3.4,2.4,6,2.4c3.3,0,5.6-0.3,6.7-0.4l0.1,1.4
			c-1.3,0.1-3.2,0.3-6.2,0.3c-2.6,0-7.9,0-7.9-3.7c0-3,3.6-5.2,7.1-6.8c-0.2-1.1-0.4-2.6-2.4-2.6c-2.4,0-4.7,2.3-5,2.5
			c-0.3,0.4-3.2,4.2-3.9,4.9l-1-1.2c1.3-1.2,3.9-3.6,6-9.9h-5.5v-1.3h5.9c0.4-1.5,0.5-2.3,0.6-3L259.5,256.5z"/>
		<path fill="#FFFFFF" d="M279,266.5c-1.5-1.4-2.7-2.1-4-2.9l0.7-1c1.5,0.7,2.7,1.4,4.2,2.8L279,266.5z M275.1,277
			c2-2.2,3.8-6.1,4.8-8.4l1,0.7c-1.1,2.7-2.8,6.4-4.9,8.9L275.1,277z M280.3,260.3c-1.4-1.3-2.7-2.1-4.2-2.8l0.7-1
			c1.6,0.8,2.9,1.5,4.3,2.7L280.3,260.3z M289.8,263h7.2v1.2h-7.2v4.3h5.9v9.9h-1.3V277H284v1.4h-1.3v-9.9h5.8v-4.3h-7.1V263h7.1
			v-4.2c-2.8,0.3-5.2,0.3-6.2,0.3l-0.2-1.2c7.5,0,11-0.8,13.1-1.5l0.5,1.2c-2.2,0.6-3.4,0.8-5.9,1.2V263z M294.4,269.6H284v6.2h10.4
			V269.6z"/>
		<path fill="#FFFFFF" d="M309.5,257c-0.3,2-0.8,4.4-0.8,4.5h3c2.4,0,5.4,0,5.4,5.9c0,2.4-0.4,5.6-1.2,7.6c-0.9,2.1-2.4,2.4-4,2.4
			c-1.4,0-3.4-0.2-4.1-0.3v-1.5c0.8,0.1,2,0.4,3.7,0.4c0.7,0,2.2,0,2.9-1.5c0.8-1.8,1.1-5,1.1-7c0-4.8-1.6-4.8-5.3-4.7l-1.9,0
			c-1.6,7.6-3.2,11.8-4.4,14.6l-1.4-0.6c2.1-4.5,3.5-9.2,4.4-14.1l-4.2,0v-1.4h4.4c0.4-2.4,0.4-2.6,0.7-4.6L309.5,257z M322,269.7
			c-0.6-6.3-2.8-8.6-3.8-9.7l1.2-0.7c2.9,2.6,3.9,6.7,4.2,10.1L322,269.7z"/>
		<path fill="#FFFFFF" d="M330.9,257.1c0,1.8-0.3,10.1-0.3,11.8c0,3.7,0.2,7.2,5.4,7.2c5.1,0,6.5-2.8,7-3.8c0.7-1.4,1.1-3.6,1.3-4.7
			l1.4,0.3c-0.6,3.5-1.6,9.5-9.5,9.5c-6.5,0-7.2-3.6-7.2-8.9c0-1.8,0.2-9.9,0.2-11.5H330.9z"/>
		<path fill="#FFFFFF" d="M355.3,256.9c-0.1,1-0.2,2-0.4,3.4h7.4v1.4h-7.6c-1.1,6.9-2.7,12.6-4.5,16.2l-1.5-0.6
			c2.2-3.8,3.8-10.9,4.4-15.7h-3.8v-1.4h4c0.1-0.6,0.3-3,0.4-3.5L355.3,256.9z M360,270.2c-0.8,1.3-1.3,2.1-1.3,3.2
			c0,2.6,2.9,2.7,6.3,2.7c1.7,0,3.4-0.1,4.8-0.2v1.5c-0.7,0-4.5,0.1-4.7,0.1c-3.7,0-4.8-0.4-5.7-0.7c-1.5-0.6-2.2-2.1-2.2-3.4
			c0-1.6,0.8-2.8,1.5-3.8L360,270.2z M369.3,265c-0.6,0-1.3-0.1-2.4-0.1c-3.9,0-6.1,0.8-7,1.1l-0.4-1.3c1.3-0.5,3.9-1.4,9.8-1.2V265
			z"/>
		<path fill="#FFFFFF" d="M43.5,293.2H37v21.2h-1.2V292h7.8V293.2z"/>
		<path fill="#FFFFFF" d="M60,313.2c-3.2-4.5-7.6-8.3-10.2-10.5l1-1c2.1,1.7,3.1,2.6,5.2,4.5c2.8-1.8,6.8-5.3,9-9.5H46.2v-1.4h21
			c-1.7,4.4-6.1,9.3-10.3,11.9c1.9,2,2.9,3.1,4.4,5L60,313.2z"/>
		<path fill="#FFFFFF" d="M75.2,300.1c0,5-0.7,9.4-4.9,13.6l-1-1.1c4.4-3.9,4.5-9.1,4.5-12.4v-6.4h1.4V300.1z M81.6,311.5
			c6.4-1.2,7.8-5.7,8.6-10.2l1.3,0.6c-0.9,4.3-2.5,10.4-11.4,11.4v-20.2h1.4V311.5z"/>
		<path fill="#FFFFFF" d="M106.5,301h8.3v1.4h-8.3c-0.2,5.1-1.6,9.2-9.9,11.3l-0.7-1.3c6.8-1.6,9.1-4.4,9.2-10H94.4V301H105v-4.9
			c-4.3,0.7-8,0.8-9.2,0.8l-0.3-1.3c5.2,0,11.9-0.9,16.4-2.7l0.8,1.3c-2,0.7-4.2,1.2-6.3,1.7V301z"/>
		<path fill="#FFFFFF" d="M137.7,296.2c-0.8,4.4-2.6,8.5-5.6,11.8c-3.2,3.5-7.4,4.8-11.2,5.7l-0.6-1.4c4.2-0.8,7.7-2.1,10.7-5.4
			c2.4-2.6,4.1-5.9,4.9-9.4h-9.9c-1.4,1.8-2.9,3.8-6,5.9l-0.9-1.2c2-1.4,5.6-4.3,7.9-9.7l1.6,0.2c-0.4,0.8-0.7,1.7-1.8,3.4H137.7z"
			/>
		<path fill="#FFFFFF" d="M162,299.6c-1.2,10.4-7.2,13-15.6,13.9l-0.4-1.4c6.9-0.7,12.9-2.4,14.4-11.1h-17.7v-1.3H162z M160.6,293.8
			v1.4h-16.1v-1.4H160.6z"/>
		<path fill="#FFFFFF" d="M177.3,292.6v4.1h8.3v1.7c0,4.4-1.1,8.6-4.3,11.3c-3.9,3.2-8.7,3.7-10.7,3.9l-0.4-1.4
			c1.8-0.2,6.5-0.6,10.2-3.7c1.9-1.6,3.6-4.1,3.6-9.8V298h-15v6.4h-1.4v-7.8h8.2v-4.1H177.3z"/>
		<path fill="#FFFFFF" d="M197.3,292.8v6.6c2.3,0.8,7.2,2.5,12.3,5.4l-0.7,1.5c-4.6-2.7-7.1-3.8-11.6-5.4v13.1h-1.5v-21.1H197.3z
			 M206.5,297.7c-0.6-1.3-1.3-2.6-2-3.7l1.2-0.6c0.3,0.4,1.4,2.3,2,3.7L206.5,297.7z M209.4,296.6c-0.7-1.5-1.1-2.2-2-3.6l1.1-0.6
			c0.7,1,1.7,2.7,2,3.4L209.4,296.6z"/>
		<path fill="#FFFFFF" d="M224.8,293.6l-9.6,18.9h-1.4l9.6-18.9H224.8z"/>
		<path fill="#FFFFFF" d="M228.6,312.2c3.2-3.6,5.3-8.2,5.8-18.2l1.5,0.2c-0.8,9.8-2.2,14.4-6,18.9L228.6,312.2z M244.3,294
			c0.4,11.1,4.1,15.8,6.1,18.1l-1.3,1c-3.8-4.8-5.6-9.8-6.3-18.9L244.3,294z"/>
		<path fill="#FFFFFF" d="M265.9,313.8h-1.5v-12.4c-3.2,2.4-6.8,4.3-10.6,5.7l-0.7-1.4c3.4-1,11.6-4.7,17.8-12.8l1.4,0.9
			c-3.2,3.9-5.9,6.1-6.5,6.5V313.8z"/>
		<path fill="#FFFFFF" d="M296.7,295.4c-0.6,10.3-6,16.8-15.9,18.1l-0.5-1.4c3.4-0.4,13.3-1.9,14.7-15.3h-17.2v-1.3H296.7z
			 M294.3,295.2c-0.2-0.6-0.7-1.8-1.6-3.1l1.2-0.4c1,1.2,1.6,2.5,1.8,3L294.3,295.2z M297.7,295.3c-0.6-1.4-1.3-2.5-1.8-3.3l1.3-0.4
			c0.7,0.9,1.3,1.8,1.8,3.1L297.7,295.3z"/>
		<path fill="#FFFFFF" d="M306,306.9h-1.4v-13.3h1.4V306.9z M319.1,303.8c0,8-6.4,9.5-13.1,9.8l-0.3-1.4c8.7-0.2,11.9-2.7,11.9-8.3
			v-10.7h1.5V303.8z"/>
		<path fill="#FFFFFF" d="M330.7,305.6c-0.4-2.4-1.1-4.2-2-5.9l1.3-0.4c1.2,2.4,1.8,4.8,2.1,5.9L330.7,305.6z M330.8,312.6
			c5.6-1.1,11.2-3.7,12.4-13.9l1.4,0.3c-1.8,10-6.4,13.3-13.3,14.9L330.8,312.6z M336.1,304.4c-0.3-1.9-0.8-3.9-1.6-5.8l1.2-0.3
			c0.6,1.4,1.4,4.1,1.8,5.8L336.1,304.4z"/>
		<path fill="#FFFFFF" d="M353.3,292.8v6.6c2.3,0.8,7.2,2.5,12.3,5.4l-0.7,1.5c-4.6-2.7-7.1-3.8-11.6-5.4v13.1h-1.5v-21.1H353.3z
			 M362.5,297.7c-0.6-1.3-1.3-2.6-2-3.7l1.2-0.6c0.3,0.4,1.4,2.3,2,3.7L362.5,297.7z M365.4,296.6c-0.7-1.5-1.1-2.2-2-3.6l1.1-0.6
			c0.7,1,1.7,2.7,2,3.4L365.4,296.6z"/>
		<path fill="#FFFFFF" d="M39.9,341.6c-0.7-1-1.2-1.9-2.1-3.7v12.5h-1.3v-12c-0.3,1.1-1.2,3.8-3,6.3l-0.8-1.4c1-1.2,2.7-4,3.7-8.6
			h-3.3v-1.2h3.4v-5h1.3v5h3v1.2h-3v0.9c0.8,1.8,1.8,3.6,3.2,5L39.9,341.6z M47,337.2h-6.8v-1h4v-2.1h-2.6v-1h2.6v-1.9H41v-1h3.2
			v-1.8h1.2v1.8h4.5v-1.8h1.2v1.8h3.3v1h-3.3v1.9h2.6v1h-2.6v2.1h4v1h-6.8v1.8h5.2v6.1h1.6v1.1h-1.6v2.5c0,1.3-0.4,1.7-1.6,1.7h-2.6
			l-0.2-1.4l2.6,0.1c0.4,0,0.7,0,0.7-0.6v-2.2h-9.1v4.2h-1.3v-4.2h-2v-1.1h2V339H47V337.2z M47,340h-3.8v2H47V340z M47,343h-3.8v2.1
			H47V343z M49.9,331.2h-4.5v1.9h4.5V331.2z M49.9,334.1h-4.5v2.1h4.5V334.1z M48.3,342h3.9v-2h-3.9V342z M48.3,345.1h3.9V343h-3.9
			V345.1z"/>
		<path fill="#FFFFFF" d="M77.7,336c-0.7,2.3-1.9,5.9-4.7,9.2c1,2.5,2.4,4,3.4,4c1,0,1.5-3.1,1.7-4.4l1.2,0.4
			c-0.6,5.2-2,5.4-2.9,5.4c-1.8,0-3.5-2.5-4.3-4.2c-2.8,2.6-5.5,3.8-6.8,4.3l-0.8-1.2c1.8-0.7,4.5-1.9,7-4.4
			c-0.3-0.9-1.4-4.6-1.8-11.5h-9.4v3.8h7.1c0,3.3,0,7.2-0.6,8.7c-0.3,0.7-0.7,1.4-2.4,1.4h-2.4l-0.2-1.5l2.4,0.1
			c1,0,1.3-0.6,1.4-0.9c0.4-0.9,0.5-5,0.5-6.7h-5.8v1.1c0,1-0.2,3.9-0.5,5.6c-0.3,1.7-0.9,3.9-1.8,5.4l-1.2-1c1.7-3,2.1-6.5,2.1-10
			v-7.3h10.7c-0.1-1.3-0.1-2.5-0.1-3.8h1.4c0,1.2,0,2.3,0,3.8h8.1v1.2H71c0.2,5,1.2,9.3,1.5,10.4c2.4-2.9,3.4-6.3,4-8.3L77.7,336z
			 M76.6,332.1c-1.2-1.2-1.9-1.8-3.2-2.7l0.8-0.9c1.3,0.7,2.7,2,3.4,2.7L76.6,332.1z"/>
		<path fill="#FFFFFF" d="M80.7,349.6h6.6v-21.2h1.2v22.5h-7.8V349.6z"/>
		<path fill="#FFFFFF" d="M103,328.5c-0.1,0.8-0.3,1.4-0.7,3h10.9v1.3h-11.3c-0.9,2.8-1.6,3.8-2,4.3c0.7-0.6,2.3-1.8,4.7-1.8
			c3,0,3.3,2.1,3.5,3.2c3.7-1.5,4.1-1.6,6.5-2.6l0.5,1.5c-2.3,0.7-4.7,1.5-6.8,2.4c0.1,1.1,0.1,2.5,0.1,3.4c0,0.3,0,1-0.1,1.6h-1.4
			c0.1-0.7,0.1-1.2,0.1-2.4c0-0.2,0-1.1,0-2c-3.1,1.4-5.9,3.2-5.9,5.3c0,2.4,3.4,2.4,6,2.4c3.3,0,5.6-0.3,6.7-0.4l0.1,1.4
			c-1.3,0.1-3.2,0.3-6.2,0.3c-2.6,0-7.9,0-7.9-3.7c0-3,3.6-5.2,7.1-6.8c-0.2-1.1-0.4-2.6-2.4-2.6c-2.4,0-4.7,2.3-5,2.5
			c-0.3,0.4-3.2,4.2-3.9,4.9l-1-1.2c1.3-1.2,3.9-3.6,6-9.9h-5.5v-1.3h5.9c0.4-1.5,0.5-2.3,0.6-3L103,328.5z"/>
		<path fill="#FFFFFF" d="M122,338.6c-1.4,1.3-2.4,3-2.4,4.8c0,4,5.2,4.1,8.4,4.1c3.7,0,6.8-0.4,8.5-0.6l0.1,1.6
			c-2.2,0.1-5.7,0.4-8.2,0.4c-2.6,0-5.4-0.2-7.2-1c-2-0.9-2.9-2.8-2.9-4.5c0-2.5,1.4-4.3,2.6-5.7L122,338.6z M134.6,331.6
			c-2.9,0.4-6.5,2.1-8.1,3.1l-0.9-1.1c1.9-1.1,3-1.5,4.8-2c-7.1,0.1-7.5,0.1-11.1,0.2v-1.5c2,0,13.1,0,15.3,0V331.6z M134.1,338.3
			c-0.5-1.3-0.9-2.1-1.8-3.6l1.2-0.5c0.6,0.8,1.2,1.8,1.9,3.6L134.1,338.3z M136.6,337c-0.6-1.5-1-2.3-1.8-3.4l1.2-0.5
			c0.8,1.1,1.3,2.1,1.8,3.4L136.6,337z"/>
		<path fill="#FFFFFF" d="M148.6,340.2c-0.5,0.3-1,0.6-2.9,1.4v6.9c0,1-0.2,1.9-2,1.9h-2l-0.3-1.4l1.9,0c0.6,0,1.1-0.1,1.1-0.9v-6.1
			c-2.1,0.8-2.7,1-3.3,1.2l-0.2-1.3c0.9-0.2,1.8-0.5,3.6-1.2v-6.5h-3.3v-1.2h3.3v-4.7h1.3v4.7h3.1v1.2h-3.1v5.9
			c1-0.4,1.9-0.8,2.7-1.2L148.6,340.2z M147.4,349.4c2.3-1.9,3.3-4.9,3.5-8.3l1.3,0.2c-0.1,0.7-0.2,1.5-0.6,3
			c0.7,1.8,1.9,3.1,3.5,3.8v-8.6H149v-1.2h14.2v1.2h-6.6v3.4h5.7v1.2h-5.7v4.4c0.8,0.2,1.7,0.2,2,0.2h4.8l-0.3,1.2h-4.7
			c-1.7,0-5.3,0-7.3-3.8c-0.8,2.6-2.1,3.7-2.9,4.5L147.4,349.4z M161.7,336.6H150v-7.7h11.7V336.6z M160.4,330h-9.2v2.2h9.2V330z
			 M160.4,333.3h-9.2v2.2h9.2V333.3z"/>
		<path fill="#FFFFFF" d="M186.5,349.6c-4-1-7.3-2.8-9.7-5.7v6.5h-1.4V344c-1,1-4.6,4.5-10,5.7l-0.6-1.2c5.5-1.3,9.3-4.8,9.8-5.3
			h-9.7v-1.1h10.4v-1.9h1.4v1.9h10.3v1.1h-9.4c3.3,3.6,6.8,4.6,9.6,5.1L186.5,349.6z M175.5,330.2v-1.8h1.4v1.8h9.8v4.7h-1.4v-3.5
			h-18.5v3.5h-1.4v-4.7H175.5z M175.7,332.2c-0.2,0.3-0.4,0.5-0.9,1.2h9.9v1.1h-2.6c-0.6,0.9-1.6,2.2-3.2,3.4c4,1.1,5.7,1.7,6.6,2
			l-0.9,1.2c-1-0.5-3-1.3-7-2.4c-1,0.5-4.6,1.9-10.7,2.2l-0.4-1.2c2-0.1,6.1-0.3,9.3-1.4c-2.2-0.5-4.4-0.9-6.1-1.2
			c0.6-0.5,1-0.9,2.5-2.5h-4.5v-1.1h5.5c0.8-0.9,1-1.1,1.2-1.5L175.7,332.2z M173.8,334.5c-0.7,0.7-1.1,1.2-1.8,2
			c1.5,0.2,3,0.5,5.4,1.1c1.6-1,2.6-2.2,3.3-3H173.8z"/>
		<path fill="#FFFFFF" d="M193,330c-0.1,1.1-0.4,3.3-0.4,6.8c0,4.5,0.3,10.6,3.6,10.6c1,0,1.7-0.6,2.3-1.4c0.6-0.7,1.5-2.1,2.4-4.6
			l1.2,0.6c-1.3,3.6-2.9,5.3-3.4,5.8c-0.4,0.4-1.3,1.2-2.7,1.2c-3.9,0-5-5.4-5-12.3c0-2.8,0.2-5.3,0.3-6.8L193,330z M209.9,346.5
			c0-0.7,0.1-1.5,0.1-2.8c0-7.9-3-10.7-4.7-12.2l1-1c3.2,2.5,5.2,6.2,5.2,13.7c0,0.8,0,1.4,0,2.2L209.9,346.5z"/>
		<path fill="#FFFFFF" d="M220.9,328.9c-0.1,1-0.2,2-0.4,3.4h7.4v1.4h-7.6c-1.1,6.9-2.7,12.6-4.5,16.2l-1.5-0.6
			c2.2-3.8,3.8-10.9,4.4-15.7h-3.8v-1.4h4c0.1-0.6,0.3-3,0.4-3.5L220.9,328.9z M225.6,342.2c-0.8,1.3-1.3,2.1-1.3,3.2
			c0,2.6,2.9,2.7,6.3,2.7c1.7,0,3.4-0.1,4.8-0.2v1.5c-0.7,0-4.5,0.1-4.7,0.1c-3.7,0-4.8-0.4-5.7-0.7c-1.5-0.6-2.2-2.1-2.2-3.4
			c0-1.6,0.8-2.8,1.5-3.8L225.6,342.2z M234.9,337c-0.6,0-1.3-0.1-2.4-0.1c-3.9,0-6.1,0.8-7,1.1l-0.4-1.3c1.3-0.5,3.9-1.4,9.8-1.2
			V337z"/>
		<path fill="#FFFFFF" d="M244,329.1c0,1.8-0.3,10.1-0.3,11.8c0,3.7,0.2,7.2,5.4,7.2c5.1,0,6.5-2.8,7-3.8c0.7-1.4,1.1-3.6,1.3-4.7
			l1.4,0.3c-0.6,3.5-1.6,9.5-9.5,9.5c-6.5,0-7.2-3.6-7.2-8.9c0-1.8,0.2-9.9,0.2-11.5H244z"/>
		<path fill="#FFFFFF" d="M273,331.9V329h1.4v2.9h8.2v1.2h-8.2v3.7h7.7v1.2h-7.7v4c1.1,0.4,3.7,1.3,7.6,4.6l-1,1.4
			c-2.3-2.3-3.8-3.5-6.7-4.8v1.9c0,3-1.6,4.4-4.9,4.4c-4.4,0-5.5-2.2-5.5-4c0-2.5,2.5-4.3,6.2-4.3c1.3,0,2.3,0.2,2.8,0.3V338h-9.5
			v-1.2h9.5v-3.7h-9.8v-1.2H273z M273,342.9c-0.6-0.1-1.3-0.3-2.7-0.3c-2.7,0-4.9,1-4.9,3c0,2.4,2.7,2.7,4,2.7
			c2.9,0,3.6-1.2,3.6-3.3V342.9z"/>
		<path fill="#FFFFFF" d="M299.2,328.8h1.5v3h6.6v1.3h-6.6v5c0.1,0.4,0.2,0.9,0.3,1.5c0.1,0.6,0.2,1.4,0.2,2.3
			c0,4.4-2.5,7.5-9.8,7.9l-0.5-1.4c8.5,0.1,9-4.6,9.2-6.6c-0.4,0.9-1.2,3.2-4.6,3.2c-3.3,0-4.6-2.6-4.6-4.8c0-2.5,1.6-5,5.1-5
			c2,0,2.9,0.9,3.2,1.3l0-3.4h-12.7v-1.3h12.7L299.2,328.8z M299.3,339.1c0-0.1-0.5-2.6-3.2-2.6c-1.9,0-3.6,1.2-3.6,3.6
			c0,1.3,0.7,3.6,3.2,3.6c0.7,0,1.5-0.2,2.2-0.6c1-0.6,1.5-2.4,1.5-2.7V339.1z"/>
		<path fill="#FFFFFF" d="M317.6,346.3c0,1.9-1.5,3.4-3.4,3.4c-1.9,0-3.4-1.5-3.4-3.4c0-1.9,1.5-3.4,3.4-3.4
			C316,342.9,317.6,344.4,317.6,346.3z M311.8,346.3c0,1.3,1.1,2.4,2.4,2.4c1.3,0,2.3-1.1,2.3-2.4c0-1.3-1.1-2.3-2.3-2.3
			C312.9,343.9,311.8,345,311.8,346.3z"/>
	</g>
</g>
</svg>
