<?xml version="1.0" encoding="utf-8"?>
<!-- Generator: Adobe Illustrator 19.1.0, SVG Export Plug-In . SVG Version: 6.00 Build 0)  -->
<svg version="1.0" id="レイヤー_1" xmlns="http://www.w3.org/2000/svg" xmlns:xlink="http://www.w3.org/1999/xlink" x="0px"
	 y="0px" viewBox="0 0 400 464" enable-background="new 0 0 400 464" xml:space="preserve">
<polygon fill="#00A0E9" points="0,115.6 200,0 400,115.6 400,346.7 200,462.2 0,346.7 "/>
<g>
	<defs>
		<polygon id="SVGID_1_" points="0,115.6 200,0 400,115.6 400,346.7 200,462.2 0,346.7 		"/>
	</defs>
	<clipPath id="SVGID_2_">
		<use xlink:href="#SVGID_1_"  overflow="visible"/>
	</clipPath>
	<g clip-path="url(#SVGID_2_)">
		<line fill="none" stroke="#0A5DC1" stroke-width="0.5" stroke-miterlimit="10" x1="-218.9" y1="517.4" x2="75.8" y2="-46.9"/>
		<line fill="none" stroke="#0A5DC1" stroke-width="0.5" stroke-miterlimit="10" x1="-212.9" y1="517.4" x2="81.8" y2="-46.9"/>
		<line fill="none" stroke="#0A5DC1" stroke-width="0.5" stroke-miterlimit="10" x1="-206.9" y1="517.4" x2="87.8" y2="-46.9"/>
		<line fill="none" stroke="#0A5DC1" stroke-width="0.5" stroke-miterlimit="10" x1="-200.9" y1="517.4" x2="93.8" y2="-46.9"/>
		<line fill="none" stroke="#0A5DC1" stroke-width="0.5" stroke-miterlimit="10" x1="-194.9" y1="517.4" x2="99.8" y2="-46.9"/>
		<line fill="none" stroke="#0A5DC1" stroke-width="0.5" stroke-miterlimit="10" x1="-188.9" y1="517.4" x2="105.8" y2="-46.9"/>
		<line fill="none" stroke="#0A5DC1" stroke-width="0.5" stroke-miterlimit="10" x1="-182.9" y1="517.4" x2="111.8" y2="-46.9"/>
		<line fill="none" stroke="#0A5DC1" stroke-width="0.5" stroke-miterlimit="10" x1="-176.9" y1="517.4" x2="117.8" y2="-46.9"/>
		<line fill="none" stroke="#0A5DC1" stroke-width="0.5" stroke-miterlimit="10" x1="-170.9" y1="517.4" x2="123.8" y2="-46.9"/>
		<line fill="none" stroke="#0A5DC1" stroke-width="0.5" stroke-miterlimit="10" x1="-164.9" y1="517.4" x2="129.8" y2="-46.9"/>
		<line fill="none" stroke="#0A5DC1" stroke-width="0.5" stroke-miterlimit="10" x1="-158.9" y1="517.4" x2="135.8" y2="-46.9"/>
		<line fill="none" stroke="#0A5DC1" stroke-width="0.5" stroke-miterlimit="10" x1="-152.9" y1="517.4" x2="141.8" y2="-46.9"/>
		<line fill="none" stroke="#0A5DC1" stroke-width="0.5" stroke-miterlimit="10" x1="-146.9" y1="517.4" x2="147.8" y2="-46.9"/>
		<line fill="none" stroke="#0A5DC1" stroke-width="0.5" stroke-miterlimit="10" x1="-140.9" y1="517.4" x2="153.8" y2="-46.9"/>
		<line fill="none" stroke="#0A5DC1" stroke-width="0.5" stroke-miterlimit="10" x1="-134.9" y1="517.4" x2="159.8" y2="-46.9"/>
		<line fill="none" stroke="#0A5DC1" stroke-width="0.5" stroke-miterlimit="10" x1="-128.9" y1="517.4" x2="165.8" y2="-46.9"/>
		<line fill="none" stroke="#0A5DC1" stroke-width="0.5" stroke-miterlimit="10" x1="-122.9" y1="517.4" x2="171.8" y2="-46.9"/>
		<line fill="none" stroke="#0A5DC1" stroke-width="0.5" stroke-miterlimit="10" x1="-116.9" y1="517.4" x2="177.8" y2="-46.9"/>
		<line fill="none" stroke="#0A5DC1" stroke-width="0.5" stroke-miterlimit="10" x1="-110.9" y1="517.4" x2="183.8" y2="-46.9"/>
		<line fill="none" stroke="#0A5DC1" stroke-width="0.5" stroke-miterlimit="10" x1="-104.9" y1="517.4" x2="189.8" y2="-46.9"/>
		<line fill="none" stroke="#0A5DC1" stroke-width="0.5" stroke-miterlimit="10" x1="-98.9" y1="517.4" x2="195.8" y2="-46.9"/>
		<line fill="none" stroke="#0A5DC1" stroke-width="0.5" stroke-miterlimit="10" x1="-92.9" y1="517.4" x2="201.8" y2="-46.9"/>
		<line fill="none" stroke="#0A5DC1" stroke-width="0.5" stroke-miterlimit="10" x1="-86.9" y1="517.4" x2="207.8" y2="-46.9"/>
		<line fill="none" stroke="#0A5DC1" stroke-width="0.5" stroke-miterlimit="10" x1="-80.9" y1="517.4" x2="213.8" y2="-46.9"/>
		<line fill="none" stroke="#0A5DC1" stroke-width="0.5" stroke-miterlimit="10" x1="-74.9" y1="517.4" x2="219.8" y2="-46.9"/>
		<line fill="none" stroke="#0A5DC1" stroke-width="0.5" stroke-miterlimit="10" x1="-68.9" y1="517.4" x2="225.8" y2="-46.9"/>
		<line fill="none" stroke="#0A5DC1" stroke-width="0.5" stroke-miterlimit="10" x1="-62.9" y1="517.4" x2="231.8" y2="-46.9"/>
		<line fill="none" stroke="#0A5DC1" stroke-width="0.5" stroke-miterlimit="10" x1="-56.9" y1="517.4" x2="237.8" y2="-46.9"/>
		<line fill="none" stroke="#0A5DC1" stroke-width="0.5" stroke-miterlimit="10" x1="-50.9" y1="517.4" x2="243.8" y2="-46.9"/>
		<line fill="none" stroke="#0A5DC1" stroke-width="0.5" stroke-miterlimit="10" x1="-44.9" y1="517.4" x2="249.8" y2="-46.9"/>
		<line fill="none" stroke="#0A5DC1" stroke-width="0.5" stroke-miterlimit="10" x1="-38.9" y1="517.4" x2="255.8" y2="-46.9"/>
		<line fill="none" stroke="#0A5DC1" stroke-width="0.5" stroke-miterlimit="10" x1="-32.9" y1="517.4" x2="261.8" y2="-46.9"/>
		<line fill="none" stroke="#0A5DC1" stroke-width="0.5" stroke-miterlimit="10" x1="-26.9" y1="517.4" x2="267.8" y2="-46.9"/>
		<line fill="none" stroke="#0A5DC1" stroke-width="0.5" stroke-miterlimit="10" x1="-20.9" y1="517.4" x2="273.8" y2="-46.9"/>
		<line fill="none" stroke="#0A5DC1" stroke-width="0.5" stroke-miterlimit="10" x1="-14.9" y1="517.4" x2="279.8" y2="-46.9"/>
		<line fill="none" stroke="#0A5DC1" stroke-width="0.5" stroke-miterlimit="10" x1="-8.9" y1="517.4" x2="285.8" y2="-46.9"/>
		<line fill="none" stroke="#0A5DC1" stroke-width="0.5" stroke-miterlimit="10" x1="-2.9" y1="517.4" x2="291.8" y2="-46.9"/>
		<line fill="none" stroke="#0A5DC1" stroke-width="0.5" stroke-miterlimit="10" x1="3.1" y1="517.4" x2="297.8" y2="-46.9"/>
		<line fill="none" stroke="#0A5DC1" stroke-width="0.5" stroke-miterlimit="10" x1="9.1" y1="517.4" x2="303.8" y2="-46.9"/>
		<line fill="none" stroke="#0A5DC1" stroke-width="0.5" stroke-miterlimit="10" x1="15.1" y1="517.4" x2="309.8" y2="-46.9"/>
		<line fill="none" stroke="#0A5DC1" stroke-width="0.5" stroke-miterlimit="10" x1="21.1" y1="517.4" x2="315.8" y2="-46.9"/>
		<line fill="none" stroke="#0A5DC1" stroke-width="0.5" stroke-miterlimit="10" x1="27.1" y1="517.4" x2="321.8" y2="-46.9"/>
		<line fill="none" stroke="#0A5DC1" stroke-width="0.5" stroke-miterlimit="10" x1="33.1" y1="517.4" x2="327.8" y2="-46.9"/>
		<line fill="none" stroke="#0A5DC1" stroke-width="0.5" stroke-miterlimit="10" x1="39.1" y1="517.4" x2="333.8" y2="-46.9"/>
		<line fill="none" stroke="#0A5DC1" stroke-width="0.5" stroke-miterlimit="10" x1="45.1" y1="517.4" x2="339.8" y2="-46.9"/>
		<line fill="none" stroke="#0A5DC1" stroke-width="0.5" stroke-miterlimit="10" x1="51.1" y1="517.4" x2="345.8" y2="-46.9"/>
		<line fill="none" stroke="#0A5DC1" stroke-width="0.5" stroke-miterlimit="10" x1="57.1" y1="517.4" x2="351.8" y2="-46.9"/>
		<line fill="none" stroke="#0A5DC1" stroke-width="0.5" stroke-miterlimit="10" x1="63.1" y1="517.4" x2="357.8" y2="-46.9"/>
		<line fill="none" stroke="#0A5DC1" stroke-width="0.5" stroke-miterlimit="10" x1="69.1" y1="517.4" x2="363.8" y2="-46.9"/>
		<line fill="none" stroke="#0A5DC1" stroke-width="0.5" stroke-miterlimit="10" x1="75.1" y1="517.4" x2="369.8" y2="-46.9"/>
		<line fill="none" stroke="#0A5DC1" stroke-width="0.5" stroke-miterlimit="10" x1="81.1" y1="517.4" x2="375.8" y2="-46.9"/>
		<line fill="none" stroke="#0A5DC1" stroke-width="0.5" stroke-miterlimit="10" x1="87.1" y1="517.4" x2="381.8" y2="-46.9"/>
		<line fill="none" stroke="#0A5DC1" stroke-width="0.5" stroke-miterlimit="10" x1="93.1" y1="517.4" x2="387.8" y2="-46.9"/>
		<line fill="none" stroke="#0A5DC1" stroke-width="0.5" stroke-miterlimit="10" x1="99.1" y1="517.4" x2="393.8" y2="-46.9"/>
		<line fill="none" stroke="#0A5DC1" stroke-width="0.5" stroke-miterlimit="10" x1="105.1" y1="517.4" x2="399.8" y2="-46.9"/>
		<line fill="none" stroke="#0A5DC1" stroke-width="0.5" stroke-miterlimit="10" x1="111.1" y1="517.4" x2="405.8" y2="-46.9"/>
		<line fill="none" stroke="#0A5DC1" stroke-width="0.5" stroke-miterlimit="10" x1="117.1" y1="517.4" x2="411.8" y2="-46.9"/>
		<line fill="none" stroke="#0A5DC1" stroke-width="0.5" stroke-miterlimit="10" x1="123.1" y1="517.4" x2="417.8" y2="-46.9"/>
		<line fill="none" stroke="#0A5DC1" stroke-width="0.5" stroke-miterlimit="10" x1="129.1" y1="517.4" x2="423.8" y2="-46.9"/>
		<line fill="none" stroke="#0A5DC1" stroke-width="0.5" stroke-miterlimit="10" x1="135.1" y1="517.4" x2="429.8" y2="-46.9"/>
		<line fill="none" stroke="#0A5DC1" stroke-width="0.5" stroke-miterlimit="10" x1="141.1" y1="517.4" x2="435.8" y2="-46.9"/>
		<line fill="none" stroke="#0A5DC1" stroke-width="0.5" stroke-miterlimit="10" x1="147.1" y1="517.4" x2="441.8" y2="-46.9"/>
		<line fill="none" stroke="#0A5DC1" stroke-width="0.5" stroke-miterlimit="10" x1="153.1" y1="517.4" x2="447.8" y2="-46.9"/>
		<line fill="none" stroke="#0A5DC1" stroke-width="0.5" stroke-miterlimit="10" x1="159.1" y1="517.4" x2="453.8" y2="-46.9"/>
		<line fill="none" stroke="#0A5DC1" stroke-width="0.5" stroke-miterlimit="10" x1="165.1" y1="517.4" x2="459.8" y2="-46.9"/>
		<line fill="none" stroke="#0A5DC1" stroke-width="0.5" stroke-miterlimit="10" x1="171.1" y1="517.4" x2="465.8" y2="-46.9"/>
		<line fill="none" stroke="#0A5DC1" stroke-width="0.5" stroke-miterlimit="10" x1="177.1" y1="517.4" x2="471.8" y2="-46.9"/>
		<line fill="none" stroke="#0A5DC1" stroke-width="0.5" stroke-miterlimit="10" x1="183.1" y1="517.4" x2="477.8" y2="-46.9"/>
		<line fill="none" stroke="#0A5DC1" stroke-width="0.5" stroke-miterlimit="10" x1="189.1" y1="517.4" x2="483.8" y2="-46.9"/>
		<line fill="none" stroke="#0A5DC1" stroke-width="0.5" stroke-miterlimit="10" x1="195.1" y1="517.4" x2="489.8" y2="-46.9"/>
		<line fill="none" stroke="#0A5DC1" stroke-width="0.5" stroke-miterlimit="10" x1="201.1" y1="517.4" x2="495.8" y2="-46.9"/>
		<line fill="none" stroke="#0A5DC1" stroke-width="0.5" stroke-miterlimit="10" x1="207.1" y1="517.4" x2="501.8" y2="-46.9"/>
		<line fill="none" stroke="#0A5DC1" stroke-width="0.5" stroke-miterlimit="10" x1="213.1" y1="517.4" x2="507.8" y2="-46.9"/>
		<line fill="none" stroke="#0A5DC1" stroke-width="0.5" stroke-miterlimit="10" x1="219.1" y1="517.4" x2="513.8" y2="-46.9"/>
		<line fill="none" stroke="#0A5DC1" stroke-width="0.5" stroke-miterlimit="10" x1="225.1" y1="517.4" x2="519.8" y2="-46.9"/>
		<line fill="none" stroke="#0A5DC1" stroke-width="0.5" stroke-miterlimit="10" x1="231.1" y1="517.4" x2="525.8" y2="-46.9"/>
		<line fill="none" stroke="#0A5DC1" stroke-width="0.5" stroke-miterlimit="10" x1="237.1" y1="517.4" x2="531.8" y2="-46.9"/>
		<line fill="none" stroke="#0A5DC1" stroke-width="0.5" stroke-miterlimit="10" x1="243.1" y1="517.4" x2="537.8" y2="-46.9"/>
		<line fill="none" stroke="#0A5DC1" stroke-width="0.5" stroke-miterlimit="10" x1="249.1" y1="517.4" x2="543.8" y2="-46.9"/>
		<line fill="none" stroke="#0A5DC1" stroke-width="0.5" stroke-miterlimit="10" x1="255.1" y1="517.4" x2="549.8" y2="-46.9"/>
		<line fill="none" stroke="#0A5DC1" stroke-width="0.5" stroke-miterlimit="10" x1="261.1" y1="517.4" x2="555.8" y2="-46.9"/>
		<line fill="none" stroke="#0A5DC1" stroke-width="0.5" stroke-miterlimit="10" x1="267.1" y1="517.4" x2="561.8" y2="-46.9"/>
		<line fill="none" stroke="#0A5DC1" stroke-width="0.5" stroke-miterlimit="10" x1="273.1" y1="517.4" x2="567.8" y2="-46.9"/>
		<line fill="none" stroke="#0A5DC1" stroke-width="0.5" stroke-miterlimit="10" x1="279.1" y1="517.4" x2="573.8" y2="-46.9"/>
		<line fill="none" stroke="#0A5DC1" stroke-width="0.5" stroke-miterlimit="10" x1="285.1" y1="517.4" x2="579.8" y2="-46.9"/>
		<line fill="none" stroke="#0A5DC1" stroke-width="0.5" stroke-miterlimit="10" x1="291.1" y1="517.4" x2="585.8" y2="-46.9"/>
		<line fill="none" stroke="#0A5DC1" stroke-width="0.5" stroke-miterlimit="10" x1="297.1" y1="517.4" x2="591.8" y2="-46.9"/>
		<line fill="none" stroke="#0A5DC1" stroke-width="0.5" stroke-miterlimit="10" x1="303.1" y1="517.4" x2="597.8" y2="-46.9"/>
		<line fill="none" stroke="#0A5DC1" stroke-width="0.5" stroke-miterlimit="10" x1="309.1" y1="517.4" x2="603.8" y2="-46.9"/>
		<line fill="none" stroke="#0A5DC1" stroke-width="0.5" stroke-miterlimit="10" x1="315.1" y1="517.4" x2="609.8" y2="-46.9"/>
	</g>
</g>
<g>
	<g>
		<g>
			<path fill="#FFFFFF" d="M83.5,109.3h4.4v2.1h-4.4v0.3c1.2,1.9,2.6,3.6,4.2,5.2l-1.3,2.1c-1.5-1.8-2.1-2.8-2.9-4.3v12.8h-2.2
				v-12.1c-1.6,3.8-3.5,5.7-4.3,6.7l-1-2.5c1.3-1.2,3.1-3.1,5.2-8.2h-4.8v-2.1h4.9v-3.8c-2.4,0.1-3.5,0.2-4.6,0.2l-0.4-2
				c3.8,0.1,7-0.3,10.7-1.4l0.9,2.1c-1.5,0.4-2.8,0.7-4.3,0.9V109.3z M93.7,102.5c-1,7.2-2.1,14.4-4.1,21c5.1-0.5,5.6-0.6,8.5-1.1
				c-0.1-0.5-0.9-3.6-2.7-8.1l2.2-0.7c1.3,3.1,3.4,8.9,4,13l-2.4,0.7c-0.1-0.8-0.2-1.3-0.5-3c-2.7,0.5-9.4,1.4-13,1.8l-0.4-2.3
				c0.3,0,1.7-0.2,2.1-0.2c1.7-6,3.2-16,3.8-21.5L93.7,102.5z"/>
			<path fill="#FFFFFF" d="M112.2,103.3c-0.1,0.9-0.2,1.8-0.4,3.6h7.5v2.3h-7.8c-0.7,3.7-2.2,12.1-4.7,17.4l-2.5-0.8
				c2.6-5,4.1-13.1,4.6-16.6h-4v-2.3h4.3c0.2-1.5,0.2-2.7,0.3-3.7L112.2,103.3z M117.5,118c-1.2,1.8-1.6,2.3-1.6,3.2
				c0,2.4,2.6,2.7,6.3,2.7c2.9,0,4.6-0.2,5.5-0.2l0,2.4c-1,0.1-1.9,0.1-4.1,0.1c-3.9,0-9.9,0-9.9-4.8c0-1.7,0.7-2.9,2-4.6L117.5,118
				z M127.2,112.7c-0.6-0.1-1.3-0.1-2.3-0.1c-2.6,0-5.9,0.3-8.2,1.3l-0.7-2.1c2.7-1,5.2-1.6,11.3-1.5V112.7z"/>
			<path fill="#FFFFFF" d="M139.2,103.2c-0.1,0.9-0.1,1.6-0.2,3.4h13.9v2.2h-14.1c-0.4,3-0.7,4.2-1.2,5.3c2.1-1.3,4.6-2,7-2
				c5.3,0,7.6,3.3,7.6,6.7c0,3.4-2.2,5.4-4,6.2c-2.1,0.8-4.3,1.2-8.2,1.2c-2.5,0-4-0.2-4.8-0.3l-0.4-2.3c0.9,0.1,2.7,0.3,5.5,0.3
				c3.7,0,9.3-0.2,9.3-5.3c0-2.9-1.9-4.4-5.1-4.4c-0.7,0-5.2,0.1-7.5,3c-0.2,0.5-0.4,0.7-0.6,1.3l-2.3-0.8c0.6-1.3,1.7-3.8,2.3-9.1
				h-6.2v-2.2h6.4c0.1-1.8,0.1-2.5,0.1-3.4H139.2z"/>
			<path fill="#FFFFFF" d="M162.7,103.6c-0.4,1.9-1.2,5.9-1.2,12.4c0,5.2,0.6,8.2,0.9,9.8l-2.4,0.4c-0.3-1-0.9-3.2-0.9-9.8
				c0-6.8,0.6-11,0.9-13L162.7,103.6z M173.6,108.1l-0.1-4.7h2.4l0.1,4.7h5.3v2.3H176l0.1,7.4c2.5,1.3,3.8,2.3,5.7,4.1l-1.6,2.2
				c-1.6-1.9-3-3-4.1-3.7v0.8c0,1.4,0,5-5.5,5c-4.5,0-5.7-2.9-5.7-4.6c0-2.7,2.4-4.9,6-4.9c0.9,0,1.9,0.1,2.8,0.4l-0.1-6.6h-8.4
				v-2.3H173.6z M173.8,119.2c-0.6-0.3-1.4-0.6-2.7-0.6c-2.5,0-3.9,1.2-3.9,2.8c0,0.9,0.5,2.6,3.6,2.6c3,0,3-2.1,3-2.9V119.2z"/>
			<path fill="#FFFFFF" d="M195.8,103.9c4.9,0,8.9,0.8,8.9,10.6c0,7.7-1.8,10.7-8.3,10.7h-9.8v-21.3H195.8z M189.2,106.2v16.6h7
				c4.7,0,5.9-1.7,5.9-8.3c0-7.3-2.1-8.3-6.3-8.3H189.2z"/>
			<path fill="#FFFFFF" d="M210.9,117.9c0,3.3,0.2,5.3,5,5.3c3.5,0,4.5-0.7,4.6-3.1h2.5c-0.3,4.2-2.8,5.3-6.9,5.3
				c-5.9,0-7.6-2-7.6-7.9c0-5.2,0.9-8.4,7.3-8.4c7.2,0,7.2,3.5,7.2,8.9H210.9z M220.5,115.9c-0.1-3.2-0.7-4.7-4.7-4.7
				c-4.3,0-4.8,1.8-4.9,4.7H220.5z"/>
			<path fill="#FFFFFF" d="M234.1,125.2h-3l-5.6-15.9h2.7l4.4,13.6l4.4-13.6h2.6L234.1,125.2z"/>
			<path fill="#FFFFFF" d="M252.7,103.7c8,0,8.9,4.2,8.9,10.9c0,8.6-2.1,10.9-9.6,10.9c-8,0-8.9-4.2-8.9-10.9
				C243.2,106,245.3,103.7,252.7,103.7z M252.1,106c-6.1,0-6.3,3.1-6.3,8.5c0,6.5,0.6,8.5,6.9,8.5c6.1,0,6.3-3.1,6.3-8.5
				C259.1,108,258.4,106,252.1,106z"/>
			<path fill="#FFFFFF" d="M268.4,109.3l0.1,1.9c0.6-0.8,1.5-2.1,5.1-2.1c5.5,0,6.4,3.2,6.4,8.4c0,4.8-1.1,8-6.3,8
				c-3.8,0-4.6-1.2-5.2-2.1v5.5h-2.3v-19.5H268.4z M268.5,117.5c0,4.8,1.6,5.7,4.6,5.7c4.3,0,4.5-2.5,4.5-6.1c0-4.3-0.8-5.9-4.6-5.9
				C269,111.2,268.5,113.5,268.5,117.5z"/>
			<path fill="#FFFFFF" d="M294.7,113.9c0-1.5-0.3-2.7-4.1-2.7c-3.2,0-4.4,0.6-4.4,2.7c0,1.2,0.5,1.6,2.3,1.8l5.3,0.6
				c2,0.2,3.8,1.1,3.8,4.2c0,4.6-4.2,4.8-6.9,4.8c-6.1,0-7-2.1-7.1-5.4h2.4c0,1.9,0,3.3,5,3.3c3.6,0,4.2-1.1,4.2-2.6
				c0-1.8-0.8-2-2.5-2.2l-5.2-0.6c-0.8-0.1-3.6-0.4-3.6-3.9c0-4.9,4.8-4.9,6.7-4.9c6.2,0,6.4,2.8,6.5,4.8H294.7z"/>
			<path fill="#FFFFFF" d="M307.1,103.8c-0.8,4-1.2,8-1.2,12.1c0,3.6,0.2,7,1,10.1l-2.5,0.3c-0.4-1.8-0.9-3.8-0.9-9.9
				c0-7.3,0.7-11.2,1-12.9L307.1,103.8z M314,115.7c-0.5,0.6-1.3,1.9-1.3,3.5c0,2.3,1.6,3.1,6,3.1c1.3,0,3.7,0,6-0.3v2.4
				c-1,0.1-2.3,0.2-4.9,0.2c-3.4,0-9.4,0-9.4-5.3c0-2.2,1-3.9,1.5-4.7L314,115.7z M324.2,105.6v2.3h-13.1v-2.3H324.2z"/>
			<path fill="#FFFFFF" d="M91.8,138.3h2.4v3.1c0,0.6,0,1.4-0.1,2.7h12.2c0,2.8-0.5,13.5-1.2,16.1c-0.8,2.8-3,3.3-4.1,3.3h-4.1
				l-0.4-2.4h3.9c1.5,0,2-0.9,2.2-1.6c0.8-2.4,1.1-10.2,1.2-13.1h-10c-0.8,6.7-2.6,12.6-10.8,17l-1.4-2.1c8-4.4,9.2-9.6,9.8-15h-9.2
				v-2.2h9.3c0.1-0.6,0.1-1.5,0.1-2.8V138.3z"/>
			<path fill="#FFFFFF" d="M121.4,139c-0.1,0.7-0.2,1.4-0.5,2.8h11.5v2.2h-12.1c-0.5,1.8-1,2.6-1.5,3.4c0.8-0.5,2-1.3,4-1.3
				c1.4,0,3.5,0.4,4.2,3.3c2.6-1.1,5-1.9,6.8-2.5l0.9,2.3c-2,0.5-4.5,1.2-7.4,2.3c0.1,1.1,0.1,2.3,0.1,3.1c0,1,0,1.7-0.1,2.2h-2.4
				c0.1-0.8,0.1-1.2,0.1-2.4c0-0.6,0-1.4-0.1-2c-1.4,0.7-5.4,2.6-5.4,5c0,2.5,3.3,2.5,6.1,2.5c1.2,0,3.8-0.1,7.1-0.4l0.1,2.3
				c-1.1,0.1-3,0.2-6.6,0.2c-3,0-9.1,0-9.1-4.6c0-2.7,2.6-4.9,7.6-7.3c-0.2-1.4-0.9-2.2-2.4-2.2c-1.6,0-3.5,0.9-5.5,3
				c-1.8,2.5-2,2.8-3.8,4.8l-1.8-1.6c3.9-3.5,5.6-7.8,6.5-10.3h-5.7v-2.2h6.3c0.3-1.5,0.4-2.2,0.4-3L121.4,139z"/>
			<path fill="#FFFFFF" d="M151.4,139.4c-0.2,10.6,3.6,17.4,11.6,21.7l-1.6,2.2c-9.4-5.7-10.8-13-11.2-15.2
				c-1.1,4.7-3.3,10.6-11.5,15.2l-1.5-2.1c1.7-0.8,5.7-2.7,8.7-7.7c3-5,3-9.6,3-11.8h-7.3v-2.3H151.4z"/>
			<path fill="#FFFFFF" d="M171.6,139.3c-0.2,2.9-0.2,3.7-0.2,6.3c0.2-0.2,4.6-4.6,8.5-4.6c4.7,0,4.5,4.6,4.4,6.2l-0.2,5.5
				c0,0.8-0.1,2.2-0.1,3c0,1.8,0.2,2.6,1.2,2.9c0.6,0.2,1.9,0.4,2.9,0.4l-0.6,2.3c-3.9-0.3-5.9-0.6-5.9-5.9c0-0.6,0.1-2,0.1-2.7
				l0.3-5.5c0.1-1.7,0.1-3.9-2.4-3.9c-3.5,0-8,5.1-8.2,5.3c-0.1,3.6-0.1,5-0.1,8.4c0,3,0,4.2,0.1,5.4h-2.4c0.1-2.5,0.1-3.3,0.1-9.6
				c-1.1,2.2-2,3.4-4,5.8l-1.6-2.2c2.5-2.1,4.4-4.9,5.6-7.9v-2.6l-4.7,0v-2.3h4.7c0-0.5,0.1-4.2,0.1-4.3H171.6z"/>
			<path fill="#FFFFFF" d="M213.4,142.9c-0.9-0.1-1.7-0.1-2.8-0.1c-1.5,0-1.9,0.1-2.5,0.3c-5.1,1.7-10.1,6-10.1,10.7
				c0,3.4,2.7,5.1,7.3,5.7c2.4,0.3,4.3,0.3,5.5,0.2l-0.4,2.6c-5.7-0.1-8.9-0.8-11.4-2.2c-2.2-1.2-3.6-3.6-3.6-6
				c0-4.9,4-8.7,8.3-11.1c-5.3,0.2-7.9,0.5-13.6,0.9l-0.1-2.5c2.2,0,14.5-0.7,17.2-0.7c0.8,0,5.5-0.1,6-0.2L213.4,142.9z"/>
			<path fill="#FFFFFF" d="M220.8,140.8c-0.2,1.3-0.5,3.5-0.5,6.8c0,4.1,0.3,8.4,1.8,10.8c0.3,0.5,0.9,0.9,1.8,0.9
				c2,0,3.5-3.2,4.7-6.3l2,1.3c-1.6,4.4-3.8,7.6-7,7.6c-5.3,0-5.9-9.5-5.9-14c0-2.8,0.2-5.6,0.4-7.4L220.8,140.8z M238.4,159.1
				c0-0.6,0.1-1.2,0.1-2.1c0-9.2-2.6-12-5-14.5l2.2-1.2c1.6,1.5,5.6,5.2,5.6,15.8c0,0.7,0,1.2-0.1,1.7L238.4,159.1z"/>
			<path fill="#FFFFFF" d="M255.9,142.2l-0.1-2.9h2.4l0,2.9h9v2.2h-8.9l0,3.4h8.4v2.1h-8.4v4c3.1,1.3,5.8,3,8.3,5.2l-1.6,2.1
				c-2.5-2.3-3.9-3.6-6.6-4.9v1.2c0,4.8-4.4,5-5.9,5c-3.6,0-6-1.9-6-4.6c0-2.1,1.7-5,6.9-5c1.3,0,2.1,0.2,2.6,0.3v-3.3h-10v-2.1h10
				v-3.4h-10.5v-2.2H255.9z M256,155.3c-0.6-0.2-1.5-0.5-2.9-0.5c-2.5,0-4.5,1-4.5,3c0,2,2.2,2.5,3.8,2.5c3.6,0,3.6-1.9,3.6-3.1
				V155.3z"/>
			<path fill="#FFFFFF" d="M284.8,139.1h2.5v3.1h7.6v2.2h-7.6v5.7c0.1,0.4,0.2,0.9,0.4,1.5c0.1,0.6,0.2,1.2,0.2,2.1
				c0,7.9-6.2,8.8-11,9l-0.8-2.3c7.7-0.1,8.9-2.6,9.4-5.2c-0.5,0.7-1.4,2.1-4,2.1c-3.3,0-5.3-2.6-5.3-5.5c0-3.1,2.2-5.5,5.7-5.5
				c1.9,0,2.6,0.6,3.1,1l0-2.8h-13.5v-2.2h13.5L284.8,139.1z M285,151.1c-0.1-0.6-0.5-2.7-3.1-2.7c-1.7,0-3.4,1-3.4,3.3
				c0,1.5,0.8,3.4,3.2,3.4c3.3,0,3.4-3.1,3.4-3.1C285,151.8,285.1,151.4,285,151.1z"/>
			<path fill="#FFFFFF" d="M304.8,158.5c0,2.2-1.8,4-4,4c-2.2,0-4-1.8-4-4c0-2.2,1.8-4,4-4C303,154.5,304.8,156.2,304.8,158.5z
				 M298.1,158.5c0,1.5,1.2,2.6,2.7,2.6c1.5,0,2.6-1.2,2.6-2.6c0-1.5-1.2-2.7-2.6-2.7C299.3,155.8,298.1,157,298.1,158.5z"/>
		</g>
	</g>
	<g>
		<g>
			<path fill="#FFFFFF" d="M44.8,188v-3.6h1.4v3.6h3.2c0.8-1,1.8-2.8,2.3-3.6l1.2,0.5c-0.8,1.5-1.5,2.4-2,3.1h5.1v5.4h-1.4v-4.2h-18
				v4.2h-1.3V188h5c-0.6-1.1-1.5-2.3-2-3l1-0.5c0.9,1,1.9,2.5,2.5,3.5H44.8z M46.2,199.4v7h-1.3v-7h-7.2v5.9h-1.3v-7.1h8.5v-1.8H39
				v-5.5h13.1v5.5h-5.9v1.8h8.6v5.6c0,1.2-0.5,1.6-2,1.6H50l-0.5-1.3l3,0.1c0.7,0,0.9,0,0.9-0.8v-3.9H46.2z M50.8,192H40.2v3.2h10.6
				V192z"/>
			<path fill="#FFFFFF" d="M63,185.4c-0.6,2.4-1.2,5.4-1.2,11.1c0,5.5,0.5,7.6,0.8,8.8l-1.6,0.1c-0.3-1.7-0.7-4.2-0.7-8.7
				c0-3.9,0.2-7.7,1.1-11.5L63,185.4z M69.3,195.9c-1.2,1.8-1.2,3.3-1.2,3.6c0,2.6,3,2.9,5.7,2.9c0.4,0,3.8-0.1,5.5-0.3v1.6
				c-1.4,0.1-2.5,0.2-4.3,0.2c-3,0-8.3,0-8.3-4.3c0-1.1,0.3-2.4,1.3-4.1L69.3,195.9z M78.7,187.4v1.4H67.5v-1.4H78.7z"/>
			<path fill="#FFFFFF" d="M104.1,187.1c-1,1.2-2.6,2.9-3.9,3.8c2.2,1.5,3.7,2.1,4.5,2.4l-0.6,1.3c-2.1-1-7.1-3.6-10.4-8.4
				c-2.8,4.1-6.8,6.6-10.5,8.3l-0.6-1.2c1.3-0.5,3.1-1.3,5.2-2.7c-0.7-0.6-2-1.7-3.6-2.7l0.9-0.8c1.4,0.8,3,2.1,3.7,2.7
				c2.1-1.7,3.1-3.1,3.6-3.7h-7.2V185h9.1c0.4,0.6,0.8,1.3,2.2,2.7c0.5-0.4,1.9-1.5,3.3-3.1l1.2,0.6c-0.7,0.8-1.9,2.1-3.6,3.4
				c1,0.9,1.8,1.6,1.9,1.6c1.2-0.9,2.8-2.6,3.8-3.7L104.1,187.1z M97,194.2v3.5h6.9v1.2H97v5.3c0,0.6,0.1,0.6,0.8,0.6h3.7
				c1.2,0,1.5,0,1.7-3.3l1.4,0.5c-0.3,3.5-0.7,4.1-2.7,4.1h-4.7c-1.1,0-1.5-0.4-1.5-1.6v-5.6h-4.4c-0.5,3.6-2.5,6-8,7.5l-0.6-1.3
				c3.7-0.8,6.9-2.5,7.3-6.2h-6.7v-1.2H90v-3.5h-3.3V193h13.9v1.1H97z M95.7,194.2h-4.4v3.5h4.4V194.2z"/>
			<path fill="#FFFFFF" d="M126.3,199.4c-1.1,1.2-2.6,2.5-3.4,3c2.4,1.8,4.8,2.3,5.9,2.5l-0.6,1.5c-3.8-1.1-7.7-3.1-9.8-8.1h-3.6
				v6.1c1.9-0.1,3.9-0.4,5.8-0.7v1.3c-4.1,0.7-8.6,0.9-10,1l-0.1-1.4c1.9,0,2.6-0.1,3.1-0.1v-6.2h-3.6c-0.3,2.6-0.9,5.9-2.1,7.9
				l-1.2-1c1.9-3.5,2.2-8.8,2.2-12.1v-8.3h18.5v5.3h-3.9v2.7h4.4v1.2h-4.4v3.1h5.3v1.2h-8.9c0.3,0.7,0.9,2.1,2.3,3.4
				c0.7-0.5,2.3-1.9,3.3-3.1L126.3,199.4z M115.2,190.1h-5v2.9c0,1.8-0.1,2.4-0.2,4.1h5.2V194h-3.9v-1.2h3.9V190.1z M125.9,185.9
				h-15.8v3h15.8V185.9z M122,190.1h-5.5v2.7h5.5V190.1z M122,194h-5.5v3.1h5.5V194z"/>
			<path fill="#FFFFFF" d="M136.5,185.1c0,1.8-0.3,10.1-0.3,11.8c0,3.7,0.2,7.2,5.4,7.2c5.1,0,6.5-2.8,7-3.8
				c0.7-1.4,1.1-3.6,1.3-4.7l1.4,0.3c-0.6,3.5-1.6,9.5-9.5,9.5c-6.5,0-7.2-3.6-7.2-8.9c0-1.8,0.2-9.9,0.2-11.5H136.5z"/>
			<path fill="#FFFFFF" d="M162,187c-0.7,1.5-3.1,6-4.4,7.9c2.3-0.1,3.3-0.2,3.9-0.2c-0.5-1.2-0.6-1.4-0.7-1.7l1-0.4
				c0.3,0.6,1.4,3.1,1.6,4l-1.1,0.5c-0.1-0.4-0.1-0.5-0.5-1.5c-0.5,0.1-1.8,0.2-2.3,0.3v10.6h-1.2v-10.5c-1.8,0.1-2.8,0.1-3.6,0.2
				l-0.1-1.2c1.3,0,1.5,0,1.9,0c0.8-1.3,1.2-1.9,1.5-2.4c-0.6-0.7-1.8-1.8-3.3-3l0.7-0.9c0.3,0.2,0.5,0.3,0.8,0.6
				c1-1.8,1.7-3.9,2-4.7l1.1,0.5c-0.6,1.5-1.8,4.1-2.3,4.9c0.3,0.2,1.1,1.1,1.6,1.6c0.7-1.2,1.7-3.3,2.4-4.9L162,187z M154.6,204.4
				c0.8-2,1.1-4,1.2-6.3l1.1,0.1c-0.1,2.9-0.7,5.5-1.3,6.8L154.6,204.4z M161.6,203.8c-0.2-2.4-0.4-3.7-0.9-5.9l1.1-0.1
				c0.5,1.7,1,4.2,1,5.9L161.6,203.8z M168.2,196.4c0,5.6-1.1,8.1-5,10l-0.8-1.2c4-1.8,4.5-4,4.5-8.8H168.2z M170.3,184.4v2.4h6.2
				v1.2h-6.2v2.6h5.5v1.2h-12v-1.2h5.3v-2.6h-6v-1.2h6v-2.4H170.3z M176,197.2h-1.3v-2.5H165v2.5h-1.4v-3.7H176V197.2z M172,196.4
				v7.8c0,0.6,0,0.8,0.6,0.8h1.5c0.7,0,1.1-0.1,1.1-3.7l1.3,0.5c0,3.4-0.3,4.4-1.8,4.4h-2.1c-1.8,0-1.8-1.2-1.8-1.8v-8.1H172z"/>
			<path fill="#FFFFFF" d="M182.3,185.3c-0.6,3.8-0.9,7.2-0.9,11c0,3,0.1,5.9,0.8,8.8l-1.6,0.2c-0.6-3-0.7-6.1-0.7-9.2
				c0-3.7,0.2-7.3,0.7-11L182.3,185.3z M200.3,190.3v1.4h-4.2c0,4.1,0,6.1-0.6,8.2c-1.6,5-6.2,5.7-9,5.9l-0.4-1.2
				c3.6-0.5,7.3-1.2,8.3-6.4c0.4-2,0.3-5.9,0.3-6.5h-9.5v-1.4h9.5c0-2.8-0.1-3.6-0.1-5.3h1.5c0,1.7,0,2.4,0.1,5.3H200.3z"/>
			<path fill="#FFFFFF" d="M218.7,185.3v1.3c-0.7,0.6-2.3,1.9-3.3,2.8c-3,2.7-3.3,3-4.3,3.8c1.2-0.5,2.8-1.2,5.2-1.2
				c4.7,0,6.5,3.3,6.5,6.3c0,1.2-0.3,7.2-8.9,7.2c-2.6,0-3.8-0.4-4.8-1c-0.9-0.6-1.7-1.6-1.7-2.9c0-2.3,2.2-3.6,4.3-3.6
				c3.2,0,4.8,2.6,4.8,4.5c0,0.8-0.2,1.2-0.5,1.7c3.7-0.7,5.3-3.2,5.3-5.9c0-3.4-2.3-5.1-5.4-5.1c-2.7,0-5.3,1.1-6.9,2.4
				c-0.8,0.6-3.6,3.5-4.5,4.6l-1.3-1c1.2-1,5.9-5.6,6.9-6.6c1-1,5.6-5.1,6.5-6l-11.3,0.1v-1.4H218.7z M215,202.7
				c0-1.5-1.1-3.4-3.4-3.4c-1.6,0-2.9,1-2.9,2.4c0,2.7,4.5,2.7,5.8,2.7C214.8,204,215,203.5,215,202.7z"/>
			<path fill="#FFFFFF" d="M234.3,195.8c-0.5,0.3-1.3,0.6-3.1,1.3v7.4c0,1.9-1.1,1.9-2,1.9h-2l-0.3-1.4l1.9,0c0.6,0,1.1,0,1.1-0.9
				v-6.6c-1.7,0.6-2.4,0.9-3.3,1.2l-0.2-1.3c1.2-0.3,2.4-0.7,3.5-1.1v-6h-3.3v-1.2h3.3v-4.8h1.3v4.8h3.1v1.2h-3.1v5.6
				c1.4-0.5,2.4-1,3-1.3L234.3,195.8z M233.5,204.9c1.6-0.4,4.2-1.1,7-3.2c-1.2-1.3-2.4-3-3.7-6.3l1.3-0.4c1.3,3.7,2.8,5.2,3.4,5.9
				c2.9-2.7,3.9-5.5,4.3-6.6h-10.2v-1.2h5.3V189h-6v-1.2h6v-3.3h1.3v3.3h6.3v1.2h-6.3v4.1h4.9v1.2c-1.8,4.6-3.7,6.6-4.6,7.5
				c1.6,1.4,3.6,2.3,6.2,3.1l-0.7,1.3c-3.6-1.5-5.2-2.6-6.5-3.6c-2.8,2.3-5.8,3.1-7.4,3.6L233.5,204.9z"/>
			<path fill="#FFFFFF" d="M250.3,196.4c2.1-1.9,3.6-4.4,4.7-7.1l1.1,0.6c-0.4,1.1-0.9,2.2-1.7,3.5v13h-1.3v-11
				c-1.2,1.5-1.6,1.9-2.1,2.3L250.3,196.4z M255.5,184.9c-0.9,1.8-2.4,4-4.4,5.4l-0.7-1.2c2.2-1.5,3.3-3.5,3.9-4.8L255.5,184.9z
				 M258.5,193.2c0,0.9-0.1,4.7-0.9,8.1c-0.1,0.5-0.3,1.3-0.9,2.4l-1.1-0.8c1.4-3.1,1.6-8.6,1.6-9.8H258.5z M261.6,184.4v5h4v1.2h-4
				v15.8h-1.3v-15.8h-3.8v-1.2h3.8v-5H261.6z M264.6,188.4c-0.4-0.8-1.5-2.5-2-3.1l1-0.6c0.9,1.2,1.6,2.3,2,3.1L264.6,188.4z
				 M264.7,193.2c0.6,2.8,1.1,6.9,1.1,9.5l-1.4,0.1c0-2.5-0.4-7.1-0.9-9.6L264.7,193.2z M272.6,193h-2.3v11.6c0,0.8-0.1,1.8-1.6,1.8
				h-2.9l-0.2-1.4l2.8,0.1c0.2,0,0.6,0,0.6-0.6V193h-3.4v-1.3h7V193z M272.2,186.7h-6.1v-1.2h6.1V186.7z"/>
			<path fill="#FFFFFF" d="M284,184.5c-0.1,0.8-0.3,1.4-0.7,3h10.9v1.3h-11.3c-0.9,2.8-1.6,3.8-2,4.3c0.7-0.6,2.3-1.8,4.7-1.8
				c3,0,3.3,2.1,3.5,3.2c3.7-1.5,4.1-1.6,6.5-2.6l0.5,1.5c-2.3,0.7-4.7,1.5-6.8,2.4c0.1,1.1,0.1,2.5,0.1,3.4c0,0.3,0,1-0.1,1.6h-1.4
				c0.1-0.7,0.1-1.2,0.1-2.4c0-0.2,0-1.1,0-2c-3.1,1.4-5.9,3.2-5.9,5.3c0,2.4,3.4,2.4,6,2.4c3.3,0,5.6-0.3,6.7-0.4l0.1,1.4
				c-1.3,0.1-3.2,0.3-6.2,0.3c-2.6,0-7.9,0-7.9-3.7c0-3,3.6-5.2,7.1-6.8c-0.2-1.1-0.4-2.6-2.4-2.6c-2.4,0-4.7,2.3-5,2.5
				c-0.3,0.4-3.2,4.2-3.9,4.9l-1-1.2c1.3-1.2,3.9-3.6,6-9.9h-5.5v-1.3h5.9c0.4-1.5,0.5-2.3,0.6-3L284,184.5z"/>
			<path fill="#FFFFFF" d="M303.4,190.6h2.5v1.2h-2.5c0.6,2.1,2.7,5.1,3.5,6l-1,1.1c-1-1.3-1.8-2.9-2.5-4.3v11.8h-1.2v-11
				c-1.2,3.3-2.2,4.6-3.2,5.9l-0.9-1.1c1.8-2.1,3.7-6.6,4-8.3h-3.5v-1.2h3.6v-4.1c-1.6,0.3-2.5,0.4-3.3,0.5l-0.3-1.2
				c2,0,5.4-0.7,7.3-1.5l0.5,1.1c-0.7,0.3-1.3,0.5-3,0.9V190.6z M305.7,205.3c2.1-0.6,4.2-1.6,5.1-2.4l0.9,0.9
				c-1.9,1.5-4.7,2.4-5.4,2.6L305.7,205.3z M314,184.4v1.4h6.2v1H314v1.6h5.6v1H314v1.9h6.5v1h-14.1v-1h6.3v-1.9h-5.4v-1h5.4v-1.6
				h-5.9v-1h5.9v-1.4H314z M319.1,202.6h-11.5v-8.9h11.5V202.6z M317.9,194.7h-9v1.6h9V194.7z M317.9,197.3h-9v1.7h9V197.3z
				 M317.9,199.9h-9v1.8h9V199.9z M315.8,203c1.2,0.9,3.3,2,4.8,2.4l-0.8,1c-1.8-0.6-3.4-1.4-4.8-2.5L315.8,203z"/>
			<path fill="#FFFFFF" d="M329.2,196.6c-1.1-1.2-1.8-2.5-1.9-2.9v12.6h-1.2v-12c-0.2,0.6-1.1,3.4-2.9,5.6l-0.8-1.2
				c2.2-2.8,3.2-6.1,3.6-8.2h-3.4v-1.2h3.5v-5h1.2v5h2.7v1.2h-2.7v0.7c0.2,0.5,1.1,2.4,2.7,4.1L329.2,196.6z M344.6,205.4h-15.4
				v-1.2h15.4V205.4z M344.2,186.5h-8.7c-0.2,0.9-0.5,2.1-0.7,2.9h2.8v11.8c0,0.9-0.2,1.8-1.6,1.8h-2.4l-0.3-1.4l2.3,0
				c0.7,0,0.7-0.2,0.7-0.6v-10.4h-3.3c0.4-1.3,0.9-3.1,1-4.1h-4.6v-1.2h14.6V186.5z M334.7,199.8h-4.6V192h4.6V199.8z M333.5,193.1
				h-2.3v5.6h2.3V193.1z M343.7,203c-1.3-1.5-1.9-2.5-2.4-3.4c-1.1,2-2.1,2.8-2.6,3.3l-0.7-1.2c0.8-0.8,1.7-1.8,2.6-3.5
				c-0.4-0.9-1.2-2.6-1.9-6.1l1.2-0.2c0.2,1.1,0.5,2.7,1.3,4.9c0.1-0.3,0.9-2.6,1.1-6.1h-4v-1.2h5.3c0,1.3-0.1,5.1-1.7,8.9
				c1,1.9,2.1,3,2.7,3.6L343.7,203z"/>
			<path fill="#FFFFFF" d="M350,188.1c0.2-0.5,0.6-1.2,1.1-3.7l1.3,0.2c-0.1,0.6-0.5,1.9-1.1,3.5h3.8v15h-6.5v1.8h-1.2v-16.8H350z
				 M353.8,189.3h-5.2v5.5h5.2V189.3z M353.8,196h-5.2v6h5.2V196z M367.8,188.1c0,3.4,0,13-0.8,15.9c-0.5,1.7-1.2,2.4-3.2,2.4H361
				l-0.2-1.4l3,0c1,0,1.6,0,2.1-1.8c0.6-2.5,0.7-11.7,0.7-13.8h-7.4c-0.4,1.1-1.3,3.4-2.7,4.9l-1-1c1.9-2.4,3.2-5.4,3.6-8.9l1.3,0.2
				c-0.1,1-0.3,2-0.8,3.6H367.8z M362.6,199.7c-1.2-2.3-2.2-3.8-4.1-6l1-0.8c2.2,2.3,3.8,5.2,4.2,5.9L362.6,199.7z"/>
			<path fill="#FFFFFF" d="M39,221.4c-0.6,2.4-1.2,5.4-1.2,11.1c0,5.5,0.5,7.6,0.8,8.8l-1.6,0.1c-0.3-1.7-0.7-4.2-0.7-8.7
				c0-3.9,0.2-7.7,1.1-11.5L39,221.4z M45.3,231.9c-1.2,1.8-1.2,3.3-1.2,3.6c0,2.6,3,2.9,5.7,2.9c0.4,0,3.8-0.1,5.5-0.3v1.6
				c-1.4,0.1-2.5,0.2-4.3,0.2c-3,0-8.3,0-8.3-4.3c0-1.1,0.3-2.4,1.3-4.1L45.3,231.9z M54.7,223.4v1.4H43.5v-1.4H54.7z"/>
			<path fill="#FFFFFF" d="M58.5,237.8c0.8-0.1,1.2-0.1,1.8-0.2v-15.4h-1.8V221h11.2v1.2h-1.2v20.2h-1.3v-4.9
				c-1,0.3-5.8,1.5-8.6,1.7L58.5,237.8z M67.2,222.2h-5.6v4h5.6V222.2z M67.2,227.3h-5.6v4h5.6V227.3z M61.6,237.3
				c0.1,0,3.6-0.6,5.6-1.2v-3.6h-5.6V237.3z M68.9,241.1c1.3-0.8,3.4-2.2,5.3-4.7c-1.8-2.7-3.1-6.7-3.7-11.4l1.3-0.2
				c0.4,4.8,1.8,8.1,3.2,10.4c0.7-1.1,2.9-5,3.3-11.3h-8.5v-1.3h10c-0.4,6.4-2.2,11.1-3.9,13.8c1.8,2.4,3.8,3.8,4.9,4.5l-0.8,1.4
				c-1.7-1.3-3.3-2.7-4.9-4.7c-2.1,2.7-4.2,4.1-5.1,4.8L68.9,241.1z"/>
			<path fill="#FFFFFF" d="M88.7,221.2c-0.6,2.2-1,4.1-1.3,8.2c0.6-1.5,1.3-3.4,3.6-5c1.6-1.1,3.2-1.3,4.1-1.3c6,0,6,7.6,6,8.9
				c0,7.6-4.5,9.7-13.1,9.7l-0.3-1.4c9.8,0.3,11.9-3,11.9-8.2c0-3.4-0.7-7.6-4.6-7.6c-4.3,0-7.6,5.3-7.6,8.7c0,0.6,0.1,1.3,0.3,2.7
				l-1.6,0.1c-0.1-0.8-0.2-2-0.2-3.7c0-3.8,0.5-6.8,1.2-11.2L88.7,221.2z"/>
			<path fill="#FFFFFF" d="M118.5,221.5c0,13,6.6,17.5,10.1,19.5l-0.8,1.3c-8.4-5.4-9.5-11.5-10-14.8c-0.9,4.7-2.4,10.4-10.6,14.9
				l-0.8-1.2c4.6-2.6,10.4-6.9,10.4-18.3h-6.6v-1.3H118.5z"/>
			<path fill="#FFFFFF" d="M137.4,221c-0.1,1.2-0.2,2.8-0.2,6.6c0.7-0.9,4.4-5.1,8.4-5.1c1.8,0,3.5,1,3.5,3.7c0,0.4,0,1.1,0,1.6
				l-0.2,3.3c-0.2,3.2-0.2,3.6-0.2,4.8c0,2.1,0,3.4,3.8,3.4l-0.5,1.4c-4.4-0.1-4.8-1.8-4.8-4.4c0-1.2,0-1.6,0.2-5.2l0.2-3.4
				c0.1-2.1,0-3.8-2.2-3.8c-1.1,0-3.8,0.5-8.1,5.5c0,1.9-0.1,10.5-0.1,12.2h-1.4c0-0.7,0-1.6,0.1-10.1c-1.3,2.6-2.4,4.1-3.9,5.9
				l-1.1-1.2c1.1-1,3.3-3,5-7.6l0-2.1l-4.4,0.1v-1.4h4.5c0-0.5,0-3.5,0-4.1H137.4z"/>
			<path fill="#FFFFFF" d="M159,241.7c-1.4-2.1-2.4-3.2-3.7-4.6l1.3-1.1c1.6,1.5,3,3.2,3.9,4.5L159,241.7z"/>
			<path fill="#FFFFFF" d="M177,221.2h-6.6v21.2h-1.2V220h7.8V221.2z"/>
			<path fill="#FFFFFF" d="M180.2,231.6c2.7-2.4,4.4-6.2,5.4-9.3l1.3,0.6c-1.2,3.6-3.2,7.4-5.7,9.9L180.2,231.6z M180.4,240.9
				c8-0.6,12.8-3.4,16.6-10.2l1.2,0.7c-4,6.9-9.1,9.8-17.2,10.9L180.4,240.9z M192.2,233.1c0,1.3-0.6,1.7-1.8,1.7h-3.6l-0.3-1.4
				l3.5,0c0.7,0,0.8-0.2,0.8-0.9v-12.1h1.5V233.1z M196.7,222.4c1.2,3.3,3,6.5,6,9.2l-0.9,1.2c-3.1-3.2-4.9-6.4-6.3-10L196.7,222.4z
				"/>
			<path fill="#FFFFFF" d="M213.4,220.9c-0.2,1.3-0.4,2.3-0.6,3.4h5.7v1.4h-6c-1.4,6.1-2.9,10-4.7,13.1l-1.4-0.8
				c2.8-4.2,4-9.5,4.7-12.3h-4.7v-1.4h4.9c0.3-1.4,0.4-2.6,0.5-3.5L213.4,220.9z M227.3,225.5c-0.6,0-0.9-0.1-1.8-0.1
				c-1.9,0-2.7,0.1-3.5,0.2l0.2,8.3c2,0.8,4.2,2.4,5.6,4l-1,1.2c-1.7-2.1-3.5-3.1-4.7-3.7v1.4c0,1.4,0,2-0.3,2.7
				c-1,2.1-3.5,2.2-4.3,2.2c-4.1,0-5.5-2.3-5.5-4.2c0-1.7,1.3-4.4,5.7-4.4c1.5,0,2.4,0.2,3,0.4l-0.2-9c3-0.5,5.6-0.5,6.7-0.4V225.5z
				 M220.9,234.8c-0.6-0.2-1.5-0.5-3-0.5c-3,0-4.3,1.5-4.3,3.1c0,2.9,3.5,2.9,4,2.9c3.1,0,3.3-1.6,3.3-3.6V234.8z"/>
			<path fill="#FFFFFF" d="M233.8,222c-0.1,1.1-0.4,3.3-0.4,6.8c0,4.5,0.3,10.6,3.6,10.6c1,0,1.7-0.6,2.3-1.4
				c0.6-0.7,1.5-2.1,2.4-4.6l1.2,0.6c-1.3,3.6-2.9,5.3-3.4,5.8c-0.4,0.4-1.3,1.2-2.7,1.2c-3.9,0-5-5.4-5-12.3c0-2.8,0.2-5.3,0.3-6.8
				L233.8,222z M250.7,238.5c0-0.7,0.1-1.5,0.1-2.8c0-7.9-3-10.7-4.7-12.2l1-1c3.2,2.5,5.2,6.2,5.2,13.7c0,0.8,0,1.4,0,2.2
				L250.7,238.5z"/>
			<path fill="#FFFFFF" d="M258.8,229.9v6.8c0.2,0.7,0.6,2.2,2.1,2.9c1.3,0.6,3,0.9,4,0.9h12.4l-0.3,1.2H265c-4.2,0-5.6-1.8-6.3-2.7
				c-0.3,0.4-2.2,2.3-3.4,3.2l-0.5-1.3c1-0.7,2-1.7,2.8-2.5v-7.3h-2.6v-1.2H258.8z M258.8,225.1c-1.5-1.7-2.1-2.3-3.6-3.4l0.8-0.9
				c1.3,0.8,2.5,1.9,3.7,3.4L258.8,225.1z M276.9,237.3h-7.9v2.6h-1.3v-2.6H260v-1.1h7.6v-1.8H261V227h6.6v-1.8h-5.3v-1.1h5.3v-2h-6
				v3.1h-1.3v-4.2h16.2v4.2h-1.4v-3.1h-6.2v2h5.2v1.1h-5.2v1.8h6.6v7.4h-6.6v1.8h7.9V237.3z M267.6,228.1h-5.3v2.2h5.3V228.1z
				 M267.6,231.2h-5.3v2.2h5.3V231.2z M274.3,228.1h-5.4v2.2h5.4V228.1z M274.3,231.2h-5.4v2.2h5.4V231.2z"/>
			<path fill="#FFFFFF" d="M299.5,240.4c0,1.3-0.3,2-1.7,2h-3.3l-0.2-1.3l3.2,0c0.5,0,0.5-0.5,0.5-0.7v-5.6h-7.3v7.3h-1.3v-7.3h-6.9
				c-0.5,4.1-1.8,6.1-3,7.6l-0.9-0.9c2.1-2.6,2.7-5.3,2.7-9.4v-10.6h18V240.4z M282.8,231.8c0,0.7,0,1.2,0,1.8h6.8v-5.1h-6.7V231.8z
				 M289.6,222.6h-6.7v4.8h6.7V222.6z M298.1,222.6h-7.3v4.8h7.3V222.6z M298.1,228.5h-7.3v5.1h7.3V228.5z"/>
			<path fill="#FFFFFF" d="M324,223.9c-1.5-0.1-2.3-0.2-3-0.2c-1.3,0-1.8,0.2-2.8,0.6c-3,1.2-5.1,3.2-6.4,4.8
				c-1.6,2-1.9,3.5-1.9,4.9c0,2.8,1.5,4.2,3.8,5c2.5,0.9,5.4,1,7.9,1l-0.4,1.6c-6.4-0.3-12.8-1.4-12.8-7.4c0-4.2,3.3-7.8,8.3-10.4
				c-3.7,0.1-10.9,0.6-13.2,0.8l-0.2-1.6c0.7,0,6.1-0.2,8.9-0.4c5.3-0.2,6.7-0.2,11.8-0.2V223.9z M320.7,230.9
				c-0.2-0.4-0.9-2.1-2-3.5l1.1-0.6c0.9,1.1,1.4,1.9,2.1,3.4L320.7,230.9z M323.3,229.6c-0.5-1.2-1.2-2.3-2-3.2l1.1-0.6
				c0.7,0.8,1.6,2.1,2.1,3.2L323.3,229.6z"/>
			<path fill="#FFFFFF" d="M325.8,240.1c2.6-2.8,5.3-7.2,5.7-18.1l1.6,0.3c-0.6,10.2-2.6,15.2-6,18.8L325.8,240.1z M341.4,222.1
				c0.7,10.7,3.5,15,6.4,18l-1.3,1.1c-3.3-3.5-5.8-8.4-6.6-18.9L341.4,222.1z M347.9,222.8c0,1.4-1.1,2.5-2.5,2.5
				c-1.4,0-2.5-1.1-2.5-2.5c0-1.4,1.1-2.5,2.5-2.5S347.9,221.4,347.9,222.8z M344,222.8c0,0.8,0.6,1.4,1.4,1.4
				c0.8,0,1.4-0.7,1.4-1.4c0-0.8-0.6-1.4-1.4-1.4C344.6,221.4,344,222,344,222.8z"/>
			<path fill="#FFFFFF" d="M369.5,222.4v1.4c0,7.5-1.7,10.6-3.6,12.7c-2.4,2.5-6.1,4.2-11,5.1l-0.6-1.3c12-2.4,13.6-7.7,13.6-16.5
				h-15.1v7.4h-1.5v-8.8H369.5z"/>
			<path fill="#FFFFFF" d="M55.1,258.7c-0.4,4.8-1.6,16-15.6,18.7l-0.5-1.4c12.6-2.5,14-11.1,14.4-15.9h-17v-1.4H55.1z"/>
			<path fill="#FFFFFF" d="M61.8,264.1c0,5-0.7,9.4-4.9,13.6l-1-1.1c4.4-3.9,4.5-9.1,4.5-12.4v-6.4h1.4V264.1z M68.2,275.5
				c6.4-1.2,7.8-5.7,8.6-10.2l1.3,0.6c-0.9,4.3-2.5,10.4-11.4,11.4v-20.2h1.4V275.5z"/>
			<path fill="#FFFFFF" d="M86.7,256.9c-0.2,1.3-0.4,2.3-0.6,3.4h5.7v1.4h-6c-1.4,6.1-2.9,10-4.7,13.1l-1.4-0.8
				c2.8-4.2,4-9.5,4.7-12.3h-4.7v-1.4h4.9c0.3-1.4,0.4-2.6,0.5-3.5L86.7,256.9z M100.6,261.5c-0.6,0-0.9-0.1-1.8-0.1
				c-1.9,0-2.7,0.1-3.5,0.2l0.2,8.3c2,0.8,4.2,2.4,5.6,4l-1,1.2c-1.7-2.1-3.5-3.1-4.7-3.7v1.4c0,1.4,0,2-0.3,2.7
				c-1,2.1-3.5,2.2-4.3,2.2c-4.1,0-5.5-2.3-5.5-4.2c0-1.7,1.3-4.4,5.7-4.4c1.5,0,2.4,0.2,3,0.4l-0.2-9c3-0.5,5.6-0.5,6.7-0.4V261.5z
				 M94.2,270.8c-0.6-0.2-1.5-0.5-3-0.5c-3,0-4.3,1.5-4.3,3.1c0,2.9,3.5,2.9,4,2.9c3.1,0,3.3-1.6,3.3-3.6V270.8z"/>
			<path fill="#FFFFFF" d="M112.7,257.4v7.3h-7.6v13.6h-1.3v-21H112.7z M111.4,258.6h-6.3v1.9h6.3V258.6z M111.4,261.6h-6.3v2.1h6.3
				V261.6z M121.6,270.9v1.2h-4v6h-1.3v-6H112c-0.3,2.3-1.1,4.5-3.8,6l-0.9-1.1c2.7-1.3,3.1-3.3,3.4-4.9h-4.1v-1.2h4.2
				c0-0.5,0-0.5,0-0.8v-2.3h-3.4v-1.2h13.4v1.2h-3.2v3.1H121.6z M116.3,270.9v-3.1h-4.2v2.4c0,0.2,0,0.4,0,0.7H116.3z M124.4,257.4
				v18.9c0,1.1-0.4,2-1.8,2h-3.2l-0.4-1.5l3.1,0.1c0.5,0,0.9,0,0.9-0.7v-11.5h-7.6v-7.3H124.4z M123,258.6h-6.3v1.9h6.3V258.6z
				 M123,261.6h-6.3v2.1h6.3V261.6z"/>
			<path fill="#FFFFFF" d="M148.7,259.1c-1,1.2-2.6,2.9-3.9,3.8c2.2,1.5,3.7,2.1,4.5,2.4l-0.6,1.3c-2.1-1-7.1-3.6-10.4-8.4
				c-2.8,4.1-6.8,6.6-10.5,8.3l-0.6-1.2c1.3-0.5,3.1-1.3,5.2-2.7c-0.7-0.6-2-1.7-3.6-2.7l0.9-0.8c1.4,0.8,3,2.1,3.7,2.7
				c2.1-1.7,3.1-3.1,3.6-3.7h-7.2V257h9.1c0.4,0.6,0.8,1.3,2.2,2.7c0.5-0.4,1.9-1.5,3.3-3.1l1.2,0.6c-0.7,0.8-1.9,2.1-3.6,3.4
				c1,0.9,1.8,1.6,1.9,1.6c1.2-0.9,2.8-2.6,3.8-3.7L148.7,259.1z M141.6,266.2v3.5h6.9v1.2h-6.9v5.3c0,0.6,0.1,0.6,0.8,0.6h3.7
				c1.2,0,1.5,0,1.7-3.3l1.4,0.5c-0.3,3.5-0.7,4.1-2.7,4.1h-4.7c-1.1,0-1.5-0.4-1.5-1.6v-5.6h-4.4c-0.5,3.6-2.5,6-8,7.5l-0.6-1.3
				c3.7-0.8,6.9-2.5,7.3-6.2h-6.7v-1.2h6.7v-3.5h-3.3V265h13.9v1.1H141.6z M140.3,266.2h-4.4v3.5h4.4V266.2z"/>
			<path fill="#FFFFFF" d="M150.3,277.6h6.6v-21.2h1.2v22.5h-7.8V277.6z"/>
			<path fill="#FFFFFF" d="M171.2,256.5c-0.1,0.8-0.3,1.4-0.7,3h10.9v1.3h-11.3c-0.9,2.8-1.6,3.8-2,4.3c0.7-0.6,2.3-1.8,4.7-1.8
				c3,0,3.3,2.1,3.5,3.2c3.7-1.5,4.1-1.6,6.5-2.6l0.5,1.5c-2.3,0.7-4.7,1.5-6.8,2.4c0.1,1.1,0.1,2.5,0.1,3.4c0,0.3,0,1-0.1,1.6h-1.4
				c0.1-0.7,0.1-1.2,0.1-2.4c0-0.2,0-1.1,0-2c-3.1,1.4-5.9,3.2-5.9,5.3c0,2.4,3.4,2.4,6,2.4c3.3,0,5.6-0.3,6.7-0.4l0.1,1.4
				c-1.3,0.1-3.2,0.3-6.2,0.3c-2.6,0-7.9,0-7.9-3.7c0-3,3.6-5.2,7.1-6.8c-0.2-1.1-0.4-2.6-2.4-2.6c-2.4,0-4.7,2.3-5,2.5
				c-0.3,0.4-3.2,4.2-3.9,4.9l-1-1.2c1.3-1.2,3.9-3.6,6-9.9h-5.5v-1.3h5.9c0.4-1.5,0.5-2.3,0.6-3L171.2,256.5z"/>
			<path fill="#FFFFFF" d="M187.4,263.6v-1.1h7.7v-1.9h1.4v1.9h7.8v1.1h-7.8v2.6h7.8v1.1h-7.8c0,0.8,0,1.6-0.4,2.8h10.7v1.1h-9.7
				c1.6,3,4.2,4.7,9.7,5.9l-0.5,1.2c-6.5-1.5-8.9-4-10.5-7.2h-0.1c-1.8,4.4-6.9,6.2-10.2,7l-0.7-1.2c7.3-1.6,8.8-4.3,9.5-5.8h-9.4
				v-1.1h9.8c0.3-1.1,0.4-1.9,0.5-2.8h-7.7v-1.1h7.7v-2.6H187.4z M196.5,256.4v2h9.6v4.7h-1.4v-3.6h-18v3.6h-1.3v-4.7h9.6v-2H196.5z
				"/>
			<path fill="#FFFFFF" d="M216.6,273.2c-2.3,0.8-4.8,1.4-7.8,2l-0.1-1.3c0.8-0.1,1.4-0.2,3.1-0.6v-7H209V265h2.8v-6.2H209v-1.2h7.4
				v1.2h-3.2v6.2h2.7v1.2h-2.7v6.7c1-0.3,2.5-0.6,3.4-1L216.6,273.2z M229.9,257.1v13.2h-4v5.9c0,0.5,0.1,0.6,0.7,0.6h1.6
				c0.7,0,0.9,0,0.9-0.2c0.2-0.4,0.3-1.8,0.3-3.4l1.4,0.4c-0.4,4-0.4,4.5-2.4,4.5h-2.2c-1.2,0-1.6-0.6-1.6-1.7v-6H222
				c-0.7,4-2.5,6.5-7.8,8l-0.6-1.2c4.2-1.3,6.6-2.9,7.1-6.7h-3.2v-13.2H229.9z M228.6,258.3h-9.9v2.9h9.9V258.3z M228.6,262.3h-9.9
				v2.9h9.9V262.3z M228.6,266.3h-9.9v2.9h9.9V266.3z"/>
			<path fill="#FFFFFF" d="M246,256.8h1.5v3h6.6v1.3h-6.6v5c0.1,0.4,0.2,0.9,0.3,1.5c0.1,0.6,0.2,1.4,0.2,2.3c0,4.4-2.5,7.5-9.8,7.9
				l-0.5-1.4c8.5,0.1,9-4.6,9.2-6.6c-0.4,0.9-1.2,3.2-4.6,3.2c-3.3,0-4.6-2.6-4.6-4.8c0-2.5,1.6-5,5.1-5c2,0,2.9,0.9,3.2,1.3l0-3.4
				h-12.7v-1.3H246L246,256.8z M246.1,267.1c0-0.1-0.5-2.6-3.2-2.6c-1.9,0-3.6,1.2-3.6,3.6c0,1.3,0.7,3.6,3.2,3.6
				c0.7,0,1.5-0.2,2.2-0.6c1-0.6,1.5-2.4,1.5-2.7V267.1z"/>
			<path fill="#FFFFFF" d="M270,257.3v1.3c-0.7,0.6-2.3,1.9-3.3,2.8c-3,2.7-3.3,3-4.3,3.8c1.2-0.5,2.8-1.2,5.2-1.2
				c4.7,0,6.5,3.3,6.5,6.3c0,1.2-0.3,7.2-8.9,7.2c-2.6,0-3.8-0.4-4.8-1c-0.9-0.6-1.7-1.6-1.7-2.9c0-2.3,2.2-3.6,4.3-3.6
				c3.2,0,4.8,2.6,4.8,4.5c0,0.8-0.2,1.2-0.5,1.7c3.7-0.7,5.3-3.2,5.3-5.9c0-3.4-2.3-5.1-5.4-5.1c-2.7,0-5.3,1.1-6.9,2.4
				c-0.8,0.6-3.6,3.5-4.5,4.6l-1.3-1c1.2-1,5.9-5.6,6.9-6.6c1-1,5.6-5.1,6.5-6l-11.3,0.1v-1.4H270z M266.4,274.7
				c0-1.5-1.1-3.4-3.4-3.4c-1.6,0-2.9,1-2.9,2.4c0,2.7,4.5,2.7,5.8,2.7C266.1,276,266.4,275.5,266.4,274.7z"/>
			<path fill="#FFFFFF" d="M283.4,256.9c-0.1,1-0.2,2-0.4,3.4h7.4v1.4h-7.6c-1.1,6.9-2.7,12.6-4.5,16.2l-1.5-0.6
				c2.2-3.8,3.8-10.9,4.4-15.7h-3.8v-1.4h4c0.1-0.6,0.3-3,0.4-3.5L283.4,256.9z M288.1,270.2c-0.8,1.3-1.3,2.1-1.3,3.2
				c0,2.6,2.9,2.7,6.3,2.7c1.7,0,3.4-0.1,4.8-0.2v1.5c-0.7,0-4.5,0.1-4.7,0.1c-3.7,0-4.8-0.4-5.7-0.7c-1.5-0.6-2.2-2.1-2.2-3.4
				c0-1.6,0.8-2.8,1.5-3.8L288.1,270.2z M297.3,265c-0.6,0-1.3-0.1-2.4-0.1c-3.9,0-6.1,0.8-7,1.1l-0.4-1.3c1.3-0.5,3.9-1.4,9.8-1.2
				V265z"/>
			<path fill="#FFFFFF" d="M313.2,256.9c-0.2,2.3-0.3,3.1-0.4,4c6.5,0.5,7.9,5.6,7.9,8.4c0,8.1-8.7,8.1-11.1,8.1l-0.2-1.4
				c3,0,9.8-0.1,9.8-6.7c0-1.1-0.2-6.5-6.6-7.2c-0.6,3.5-1.3,6.5-2.7,9.1c-1.8,3.2-3.7,4.5-5.8,4.5c-3.4,0-3.9-3.6-3.9-5
				c0-2.5,1.1-5.2,3.3-7.1c-0.8-2.6-1.1-4.6-1.2-5.6l1.4-0.1c0.1,0.9,0.2,2.4,0.9,4.9c3-1.8,5.8-1.9,6.8-1.9
				c0.2-1.7,0.2-2.7,0.3-4.1L313.2,256.9z M303.9,265c-1.5,1.6-2.4,3.7-2.4,5.9c0,3,1.7,3.5,2.6,3.5c1.5,0,2.7-1.2,3.5-2.1
				C305.8,270.2,304.7,267.4,303.9,265z M308.4,271.2c0.7-1.1,2-3.5,2.9-9.1c-3.1,0.2-5.2,1.3-6.3,2
				C306.4,268.5,307.7,270.4,308.4,271.2z"/>
			<path fill="#FFFFFF" d="M333.5,276.1c2.8-0.3,9.6-0.9,9.6-8.6c0-2-0.7-8.3-8.4-8.3c-0.4,5.1-1.1,9.9-3.4,13.5
				c-1.5,2.4-3,2.9-3.9,2.9c-2.3,0-4.2-2.9-4.2-6.7c0-6.2,4.2-10.9,11.4-10.9c7.4,0,10,5.1,10,9.5c0,9-7.8,9.9-10.7,10.2
				L333.5,276.1z M324.7,268.8c0,2,0.7,5.2,2.8,5.2c0.9,0,1.8-0.6,2.7-2.2c2.3-3.6,2.8-8.9,3-12.6
				C327,259.9,324.7,264.5,324.7,268.8z"/>
			<path fill="#FFFFFF" d="M353.5,273c-2,0.8-5.6,1.8-6.8,2l-0.2-1.3c0.4-0.1,0.6-0.1,3-0.7v-6.9h-2.6v-1.2h2.6v-6h-2.8v-1.2h6.5
				v1.2h-2.4v6h2.1v1.2h-2.1v6.6c0.4-0.1,2.4-0.6,2.8-0.8V273z M359.7,278.3h-1.3v-5c-3.3,2.9-6.3,3.9-7.3,4.3l-0.7-1.2
				c4.2-1.3,7.4-3.6,8.7-5.3h-4.5v-4.7h12.5v4.7h-5.6c0.8,1.5,1.8,2.4,2.3,3c1.1-0.7,2.5-1.9,3.2-2.6l0.8,0.8
				c-0.8,0.8-2.4,2.1-3.1,2.6c1.8,1.3,3.3,1.8,4.2,2l-0.7,1.2c-1.2-0.4-5.7-2-7.8-6.8c-0.1,0.2-0.2,0.3-0.6,0.8V278.3z M368.5,264.9
				h-15.5v-1.1h15.5V264.9z M367.8,262.3h-13.9v-5h13.9V262.3z M358.1,258.3h-3v2.9h3V258.3z M365.9,267.6h-10.2v2.6h10.2V267.6z
				 M362.3,258.3h-2.9v2.9h2.9V258.3z M366.5,258.3h-3.1v2.9h3.1V258.3z"/>
			<path fill="#FFFFFF" d="M41.8,309c-1.9,1-5.3,2-7.2,2.5l-0.3-1.3c0.6-0.1,1.4-0.3,3.3-0.9V300h-3.1v-1.2h3.1v-6.5h1.2v6.5h2.5
				v1.2h-2.5v8.9c1.8-0.6,2.3-0.9,2.9-1.1V309z M55.2,308.3h-3.7v4.3c0,0.4,0.1,0.5,0.4,0.5h2.4c0.5,0,0.8-0.1,0.8-0.4
				c0-0.3,0.2-2.1,0.2-2.7l1.2,0.3c-0.1,4-0.8,4-2.1,4h-2.8c-1.1,0-1.5-0.4-1.5-1.5v-4.4h-3c-0.5,3-2.3,5.1-6.3,6.2l-0.8-1.2
				c4.4-0.8,5.4-2.9,5.9-4.9h-2.9v-7.2h12.1V308.3z M48.4,294.4v-2.1h1.3v2.1h6.3v1.1h-2.5c-0.4,1.2-0.5,1.8-0.9,2.8h4v1.1H41.8
				v-1.1h3.6c-0.2-0.8-0.3-1.2-0.8-2.8h-2.1v-1.1H48.4z M54,302.2h-9.6v1.9H54V302.2z M54,305.2h-9.6v2H54V305.2z M51.4,298.4
				c0.3-0.7,0.7-2.1,0.8-2.8h-6.3c0.2,0.7,0.7,2.4,0.8,2.8H51.4z"/>
			<path fill="#FFFFFF" d="M65.4,305.6c-0.7-1-1.2-1.9-2.1-3.7v12.5H62v-12c-0.3,1.1-1.2,3.8-3,6.3l-0.8-1.4c1-1.2,2.7-4,3.7-8.6
				h-3.3v-1.2H62v-5h1.3v5h3v1.2h-3v0.9c0.8,1.8,1.8,3.6,3.2,5L65.4,305.6z M72.5,301.2h-6.8v-1h4v-2.1H67v-1h2.6v-1.9h-3.2v-1h3.2
				v-1.8h1.2v1.8h4.5v-1.8h1.2v1.8H80v1h-3.3v1.9h2.6v1h-2.6v2.1h4v1h-6.8v1.8H79v6.1h1.6v1.1H79v2.5c0,1.3-0.4,1.7-1.6,1.7h-2.6
				l-0.2-1.4L77,313c0.4,0,0.7,0,0.7-0.6v-2.2h-9.1v4.2h-1.3v-4.2h-2v-1.1h2V303h5.1V301.2z M72.5,304h-3.8v2h3.8V304z M72.5,307
				h-3.8v2.1h3.8V307z M75.4,295.2h-4.5v1.9h4.5V295.2z M75.4,298.1h-4.5v2.1h4.5V298.1z M73.8,306h3.9v-2h-3.9V306z M73.8,309.1
				h3.9V307h-3.9V309.1z"/>
			<path fill="#FFFFFF" d="M92.9,306.5v-1.3h1.3v1.3h10.4v1.1h-9.7c1.5,1.6,5.6,3.6,9.9,4.9l-0.6,1.2c-1.5-0.5-7.3-2.5-9.9-5.5v6.3
				h-1.3v-6.2c-2.1,2.2-5.6,4.2-9.9,5.5l-0.6-1.2c4.8-1.2,8.3-3.6,9.6-4.9h-9.5v-1.1H92.9z M93.1,294.2v1.1H89
				c0.5,1.3,0.6,1.4,0.7,2l-1.2,0.3c-0.2-0.7-0.4-1.4-0.8-2.3H86c-1.3,1.8-2,2.5-2.4,2.9l-1.1-1c1.9-1.6,3.3-3.8,3.7-4.8l1.2,0.3
				c-0.2,0.4-0.3,0.8-0.7,1.5H93.1z M91.2,303.6c-1.4,0.3-6.4,1-8.3,1.2l-0.2-1.2c0.7,0,1.6-0.1,4.1-0.4v-3.5h-3.2v-1.1h7.5v1.1
				h-3.1v3.4c1.8-0.2,2.3-0.3,3.1-0.5V303.6z M101.4,298.2v4.6c0,0.3,0,0.7,0.5,0.7h0.8c0.3,0,0.4-0.2,0.4-0.4c0-0.2,0-0.4,0.1-2
				l1.3,0.4c-0.2,2.7-0.3,3.1-1.6,3.1h-1.4c-1,0-1.5-0.3-1.5-1.3v-4.1H95c0,4-2.3,5.6-3,6.1l-0.9-1.1c1.9-1,2.7-2.4,2.7-6H101.4z
				 M104.4,294.2v1.2H99c0.3,0.6,0.8,1.7,0.9,2.1l-1.2,0.3c-0.2-0.6-0.7-1.8-1.1-2.4h-2.3c-0.7,1.1-1.5,2-2.4,2.7l-1.1-0.8
				c1.7-1.2,2.9-3.3,3.6-4.9l1.4,0.4c-0.2,0.5-0.3,0.8-0.7,1.5H104.4z M98.6,303.7c-0.3-0.4-1.7-1.7-3.1-2.6l0.7-0.9
				c1.6,0.9,3,2.4,3.2,2.7L98.6,303.7z"/>
			<path fill="#FFFFFF" d="M118.4,292.6c0.6,0.7,1.7,2,2.6,4c1-0.1,1.4-0.1,1.7-0.1c3.9,0,5.4,3,5.4,5.2c0,3.5-2.9,5.4-6.2,5.4
				c-1.8,0-3-0.5-3.8-0.8l0.3-1.4c0.8,0.3,1.8,0.8,3.4,0.8c2.8,0,4.8-1.6,4.8-4.1c0-1.5-0.9-3.8-4-3.8c-0.3,0-0.6,0-1.1,0.1
				c0.3,0.7,0.4,1.3,0.6,2.1l-1.5,0.6c-0.1-0.7-0.2-1.3-0.7-2.4c-2.2,0.5-5.2,1.6-6.3,2c1.2,4.6,1.4,5.4,3.1,13.5l-1.7,0.3
				c-0.5-3.9-1.7-9.4-2.8-13.3c-2,0.7-2.7,1-4.5,1.9l-0.6-1.5c0.8-0.2,4.1-1.4,4.8-1.7c-0.4-1.8-1-3.6-1.5-5.3l1.5-0.4
				c0.1,0.3,1.3,4.9,1.4,5.2c2.4-0.8,4.7-1.4,6.1-1.8c-0.8-1.7-1.7-2.8-2.4-3.7L118.4,292.6z"/>
			<path fill="#FFFFFF" d="M140.3,306.9c-4,0-5.1-1.5-5.6-2.2c-0.9,0.9-2.1,1.9-3.9,2.9l-0.5-1.4c1.5-0.7,2.6-1.5,3.7-2.4v-4h-3.3
				v-1.2h4.6v5.2c0.9,1.7,3.3,2,4.9,2h12.2l-0.2,1.1h-4.5v1.5h4.7v1.2h-4.7v3.2c0,0.8-0.2,1.6-1.8,1.6h-2.9l-0.3-1.4l2.9,0.1
				c0.6,0,0.7,0,0.7-0.6v-2.9h-15.9v-1.2h15.9v-1.5H140.3z M135.5,296c-1.6-1.1-2.8-1.7-4.1-2.3l0.6-1c1.8,0.7,3,1.5,4.2,2.3
				L135.5,296z M139.2,313.6c-1.6-1.2-2.8-1.9-4.4-2.7l0.7-1c2.2,1,3.6,1.9,4.6,2.6L139.2,313.6z M141.4,294.1
				c-0.3-0.6-0.6-1-0.9-1.5l1.2-0.3c0.5,0.6,0.8,1.2,1.1,1.8h4.2c0.4-0.8,0.5-1.1,0.7-1.8l1.2,0.3c-0.2,0.6-0.4,1.1-0.6,1.5h4v1.1
				h-7.2c-0.2,0.5-0.3,0.8-0.6,1.3h6.4v8h-12.7v-8h5c0.4-0.6,0.5-1,0.6-1.3h-6.9v-1.1H141.4z M149.7,298.8v-1.5h-10.2v1.5H149.7z
				 M139.4,299.7v1.5h10.2v-1.5H139.4z M139.4,302v1.5h10.2V302H139.4z"/>
			<path fill="#FFFFFF" d="M166.5,293.5c0,13,6.6,17.5,10.1,19.5l-0.8,1.3c-8.4-5.4-9.5-11.5-10-14.8c-0.9,4.7-2.4,10.4-10.6,14.9
				l-0.8-1.2c4.6-2.6,10.4-6.9,10.4-18.3h-6.6v-1.3H166.5z"/>
			<path fill="#FFFFFF" d="M199.9,314c-1.7-0.3-6.1-1.2-10.2-3.8c-3.1,2-6.9,3.1-10.4,3.8l-0.6-1.4c4.8-0.8,7.6-2,9.8-3.3
				c-3.2-2.5-4.4-5-4.9-6.1l1.2-0.6c0.6,1.2,1.9,3.6,4.9,5.9c2.1-1.6,3.8-3.7,5.5-6.8h-14.8v-1.2h8.6v-3.8h-10.4v-1.2h10.4v-3h1.3v3
				h10.3v1.2h-10.3v3.8h6.6v1.2c-2.5,4.7-4.6,6.6-6,7.7c2.9,1.8,6.2,2.8,9.6,3.3L199.9,314z"/>
			<path fill="#FFFFFF" d="M209.7,304.2c-1.5,0.6-2.2,1-2.7,1.1v7.3c0,1.4-0.3,1.8-2,1.8h-2l-0.2-1.3l2.2,0c0.4,0,0.7,0,0.7-0.6
				v-6.7c-1.5,0.6-2.4,0.8-3,1l-0.2-1.3c1.1-0.3,2.2-0.6,3.2-1v-6.2h-3.2v-1.2h3.2v-4.7h1.3v4.7h2.5v1.2H207v5.8
				c1.4-0.5,1.9-0.8,2.5-1L209.7,304.2z M207.9,313.5c1.7-1.4,4.8-4.2,6-9.4h-3.7V303h3.9c0.2-1.2,0.2-1.8,0.2-2.4h-3.9v-1.1h9.9
				c1.3-1.8,2-3.3,2.7-4.8l1.2,0.4c-0.5,1.3-1.2,2.6-2.4,4.4h2.3v1.1h-8.5c0,0.7,0,1.4-0.2,2.4h9.2v1.1h-9.4
				c-0.2,1.1-0.4,1.7-0.6,2.2h8.8v1.1c-0.8,1.8-2.5,3.2-3.5,3.9c2.2,1.4,4.2,1.7,5.1,1.8l-0.8,1.3c-1.6-0.4-3.4-1.1-5.4-2.4
				c-2.7,1.6-5,2.1-6.3,2.3l-0.6-1.2c2.9-0.4,4.7-1.2,5.9-1.9c-1.6-1.2-2.3-2.3-2.8-3l1.1-0.6c0.6,0.9,1.3,1.8,2.7,2.9
				c2-1.4,2.8-2.7,3.1-3.2h-7.8c-1,2.2-2.4,4.6-5.3,7.2L207.9,313.5z M209.5,293.8c4.4,0,8.8-0.2,13.5-1.3l0.7,1.1
				c-5.1,1-10.1,1.2-13.9,1.4L209.5,293.8z M212,299.2c-0.4-1.1-0.8-2.1-1.3-3l1.2-0.4c0.7,1.3,0.9,2,1.3,3L212,299.2z M216.9,298.9
				c-0.1-0.4-0.6-1.6-1.5-3.3l1.3-0.4c0.8,1.5,1.1,2.5,1.4,3.3L216.9,298.9z"/>
			<path fill="#FFFFFF" d="M236,292.5c-0.1,0.8-0.3,1.4-0.7,3h10.9v1.3h-11.3c-0.9,2.8-1.6,3.8-2,4.3c0.7-0.6,2.3-1.8,4.7-1.8
				c3,0,3.3,2.1,3.5,3.2c3.7-1.5,4.1-1.6,6.5-2.6l0.5,1.5c-2.3,0.7-4.7,1.5-6.8,2.4c0.1,1.1,0.1,2.5,0.1,3.4c0,0.3,0,1-0.1,1.6h-1.4
				c0.1-0.7,0.1-1.2,0.1-2.4c0-0.2,0-1.1,0-2c-3.1,1.4-5.9,3.2-5.9,5.3c0,2.4,3.4,2.4,6,2.4c3.3,0,5.6-0.3,6.7-0.4l0.1,1.4
				c-1.3,0.1-3.2,0.3-6.2,0.3c-2.6,0-7.9,0-7.9-3.7c0-3,3.6-5.2,7.1-6.8c-0.2-1.1-0.4-2.6-2.4-2.6c-2.4,0-4.7,2.3-5,2.5
				c-0.3,0.4-3.2,4.2-3.9,4.9l-1-1.2c1.3-1.2,3.9-3.6,6-9.9h-5.5v-1.3h5.9c0.4-1.5,0.5-2.3,0.6-3L236,292.5z"/>
			<path fill="#FFFFFF" d="M262.8,292.9c0.2,1.7,0.5,2.9,1,4.3c3.9-0.1,5.8-0.5,7.5-0.9l0.3,1.4c-2.9,0.6-4.8,0.7-7.4,0.8
				c1,2.6,2.3,5.1,4.2,7l-1.2,0.9c-2.3-2.4-3.8-6.2-4.4-7.8c-2,0-3.8,0-4.7,0h-6.5v-1.4l6.5,0.1c1.2,0,3.6,0,4.3,0
				c-0.3-1-0.6-1.9-1.1-4.3L262.8,292.9z M259.2,303.8c-1.2,0.4-2.9,0.9-4,2.2c-0.4,0.5-1,1.3-1,2.3c0,0.6,0.3,2.5,3.1,3.4
				c1.7,0.5,4.4,0.5,5.2,0.5c3,0,4.8-0.2,6.5-0.4l0,1.4c-0.9,0.1-3.4,0.3-6.6,0.3c-4.8,0-6.3-0.7-7.2-1.2c-1.1-0.6-2.6-1.9-2.6-3.9
				c0-1.6,1.1-4.2,5.6-5.6L259.2,303.8z"/>
			<path fill="#FFFFFF" d="M291.8,292.8c0,0.8,0,1.3,0,5.4l4.6,0v1.3l-4.6,0c0,0.7,0,4,0,4.7c0,2.1-0.3,3.6-3.3,3.6
				c-1.6,0-2.5-0.2-3.2-0.3l0.1-1.3c1.4,0.3,1.8,0.3,3,0.3c1.5,0,2,0,2-2.5c0-1.4,0-3,0-4.4l-9.9,0v7.8c0,4.5,2.6,4.5,6.7,4.5
				c3.6,0,5.2-0.1,7.1-0.2l0,1.4c-3.5,0.2-3.9,0.2-7.2,0.2c-4.6,0-8.1-0.1-8.1-6.3v-7.2h-4.1v-1.3l4.1,0V293h1.4v5.2l9.9,0
				c0-0.8,0-4.6-0.1-5.4H291.8z"/>
			<path fill="#FFFFFF" d="M319.7,295.9c-2-0.1-2.2-0.2-2.8-0.2c-1.4,0-1.9,0.2-2.3,0.3c-4,1.4-9,5.4-9,10c0,2.8,1.6,4.2,3.8,5
				c2.5,0.9,5.4,1,7.9,1l-0.4,1.6c-6.3-0.3-12.8-1.3-12.8-7.4c0-4.7,4-8.2,8.3-10.4c-2.5,0-10.8,0.6-13.2,0.8l-0.2-1.6
				c1.1,0,5.2-0.2,7.2-0.3c6.6-0.3,8.2-0.3,13.4-0.3V295.9z"/>
			<path fill="#FFFFFF" d="M325.5,294c-0.1,1.1-0.4,3.3-0.4,6.8c0,4.5,0.3,10.6,3.6,10.6c1,0,1.7-0.6,2.3-1.4
				c0.6-0.7,1.5-2.1,2.4-4.6l1.2,0.6c-1.3,3.6-2.9,5.3-3.4,5.8c-0.4,0.4-1.3,1.2-2.7,1.2c-3.9,0-5-5.4-5-12.3c0-2.8,0.2-5.3,0.3-6.8
				L325.5,294z M342.4,310.5c0-0.7,0.1-1.5,0.1-2.8c0-7.9-3-10.7-4.7-12.2l1-1c3.2,2.5,5.2,6.2,5.2,13.7c0,0.8,0,1.4,0,2.2
				L342.4,310.5z"/>
			<path fill="#FFFFFF" d="M353.4,292.9c-0.1,1-0.2,2-0.4,3.4h7.4v1.4h-7.6c-1.1,6.9-2.7,12.6-4.5,16.2l-1.5-0.6
				c2.2-3.8,3.8-10.9,4.4-15.7h-3.8v-1.4h4c0.1-0.6,0.3-3,0.4-3.5L353.4,292.9z M358.1,306.2c-0.8,1.3-1.3,2.1-1.3,3.2
				c0,2.6,2.9,2.7,6.3,2.7c1.7,0,3.4-0.1,4.8-0.2v1.5c-0.7,0-4.5,0.1-4.7,0.1c-3.7,0-4.8-0.4-5.7-0.7c-1.5-0.6-2.2-2.1-2.2-3.4
				c0-1.6,0.8-2.8,1.5-3.8L358.1,306.2z M367.4,301c-0.6,0-1.3-0.1-2.4-0.1c-3.9,0-6.1,0.8-7,1.1l-0.4-1.3c1.3-0.5,3.9-1.4,9.8-1.2
				V301z"/>
			<path fill="#FFFFFF" d="M41.5,328.9c-0.1,0.9-0.2,1.9-0.4,3.4h7.4v1.4h-7.6c-0.3,1.9-1.8,10.6-4.5,16.2l-1.4-0.7
				c1.4-2.8,3.1-7.7,4.4-15.6h-3.9v-1.4h4.1c0.2-1.3,0.2-2.5,0.3-3.5L41.5,328.9z M46.2,342.2c-0.7,1.1-1.3,2.1-1.3,3.2
				c0,2.6,3.1,2.7,6.2,2.7c1.4,0,3.3-0.1,4.7-0.2l0.1,1.5c-0.8,0-2,0.1-4.5,0.1c-3.5,0-4.6-0.2-5.7-0.7c-1.4-0.6-2.2-2-2.2-3.4
				c0-1.5,0.7-2.5,1.5-3.8L46.2,342.2z M55.4,337c-0.7,0-1.4-0.1-2.5-0.1c-3.6,0-5.9,0.8-6.9,1.1l-0.4-1.3c2.5-0.9,5.4-1.4,9.8-1.2
				V337z M52.5,333.2c-0.8-1.9-1.5-3-1.9-3.5l1.2-0.6c0.9,1.1,1.6,2.5,2,3.5L52.5,333.2z M55.4,332.4c-0.6-1.4-1.1-2.2-2-3.4
				l1.1-0.6c0.4,0.4,1.2,1.4,2,3.3L55.4,332.4z"/>
			<path fill="#FFFFFF" d="M70.2,329.1c0.1,0.8,0.2,1.8,0.4,3.2c1.2,0,4-0.2,7.1-0.7l0.1,1.5c-3.3,0.5-5.2,0.5-6.9,0.6
				c0.4,1.7,0.8,2.7,1.1,3.4c2.3-0.1,5.3-0.3,7.6-0.8l0.1,1.5c-1.8,0.3-5.2,0.6-7.1,0.6c1.1,2.4,2.3,3.9,2.9,4.8l-1.2,1
				c-0.7-0.9-2-2.6-3.3-5.6c-2.5,0.1-3.1,0.1-4.9,0.1l-6.6-0.1v-1.4l6.6,0.1c0.9,0,2.7,0,4.4-0.1c-0.5-1.4-0.7-2-1-3.4
				c-1.8,0.1-3.1,0.1-3.8,0.1l-5.2,0v-1.4l5.1,0c1.8,0,3.6-0.1,3.7-0.1c-0.3-1.3-0.4-2.4-0.5-3.2H70.2z M65.7,341.5
				c-1.2,0.8-2.6,2-2.6,3.4c0,3.1,5.3,3.2,9.1,3.2c2.8,0,4.1-0.1,5-0.2v1.4c-0.9,0.1-2,0.2-5,0.2c-5.4,0-6.9-0.6-7.9-1
				c-0.7-0.3-2.8-1.4-2.8-3.5c0-2,1.5-3.5,3-4.6L65.7,341.5z"/>
			<path fill="#FFFFFF" d="M93.5,331.9V329h1.4v2.9h8.2v1.2h-8.2v3.7h7.7v1.2h-7.7v4c1.1,0.4,3.7,1.3,7.6,4.6l-1,1.4
				c-2.3-2.3-3.8-3.5-6.7-4.8v1.9c0,3-1.6,4.4-4.9,4.4c-4.4,0-5.5-2.2-5.5-4c0-2.5,2.5-4.3,6.2-4.3c1.3,0,2.3,0.2,2.8,0.3V338h-9.5
				v-1.2h9.5v-3.7h-9.8v-1.2H93.5z M93.5,342.9c-0.6-0.1-1.3-0.3-2.7-0.3c-2.7,0-4.9,1-4.9,3c0,2.4,2.7,2.7,4,2.7
				c2.9,0,3.6-1.2,3.6-3.3V342.9z"/>
			<path fill="#FFFFFF" d="M119.8,328.8h1.5v3h6.6v1.3h-6.6v5c0.1,0.4,0.2,0.9,0.3,1.5c0.1,0.6,0.2,1.4,0.2,2.3
				c0,4.4-2.5,7.5-9.8,7.9l-0.5-1.4c8.5,0.1,9-4.6,9.2-6.6c-0.4,0.9-1.2,3.2-4.6,3.2c-3.3,0-4.6-2.6-4.6-4.8c0-2.5,1.6-5,5.1-5
				c2,0,2.9,0.9,3.2,1.3l0-3.4h-12.7v-1.3h12.7L119.8,328.8z M119.9,339.1c0-0.1-0.5-2.6-3.2-2.6c-1.9,0-3.6,1.2-3.6,3.6
				c0,1.3,0.7,3.6,3.2,3.6c0.7,0,1.5-0.2,2.2-0.6c1-0.6,1.5-2.4,1.5-2.7V339.1z"/>
			<path fill="#FFFFFF" d="M138.1,346.3c0,1.9-1.5,3.4-3.4,3.4c-1.9,0-3.4-1.5-3.4-3.4c0-1.9,1.5-3.4,3.4-3.4
				C136.6,342.9,138.1,344.4,138.1,346.3z M132.4,346.3c0,1.3,1.1,2.4,2.4,2.4c1.3,0,2.3-1.1,2.3-2.4c0-1.3-1.1-2.3-2.3-2.3
				C133.4,343.9,132.4,345,132.4,346.3z"/>
		</g>
	</g>
</g>
</svg>
