<?xml version="1.0" encoding="utf-8"?>
<!-- Generator: Adobe Illustrator 19.1.0, SVG Export Plug-In . SVG Version: 6.00 Build 0)  -->
<svg version="1.0" id="レイヤー_1" xmlns="http://www.w3.org/2000/svg" xmlns:xlink="http://www.w3.org/1999/xlink" x="0px"
	 y="0px" viewBox="0 0 1800 420" enable-background="new 0 0 1800 420" xml:space="preserve">
<g>
	<g>
		<g>
			<g>
				<path fill="#1B2B79" stroke="#1B2B79" stroke-miterlimit="10" d="M741.3,61.7l3,2.7c-6.9,6.2-14.9,9.4-24.2,9.4
					c-10,0-18.5-3.5-25.5-10.5c-7-7-10.5-15.5-10.5-25.5c0-9.9,3.5-18.4,10.5-25.4c7-7,15.5-10.5,25.5-10.5c9.3,0,17.4,3.1,24.2,9.4
					l-3,2.7c-6-5.4-13.1-8-21.2-8c-8.8,0-16.3,3.1-22.6,9.4s-9.4,13.8-9.4,22.6c0,8.8,3.1,16.4,9.4,22.6s13.8,9.4,22.6,9.4
					C728.2,69.8,735.3,67.1,741.3,61.7z"/>
				<path fill="#1B2B79" stroke="#1B2B79" stroke-miterlimit="10" d="M786.5,46h-24.3l-9.8,26.9h-4.2L774.4,1l26.1,71.9h-4.2
					L786.5,46z M785.1,42l-10.7-29.5L763.6,42H785.1z"/>
				<path fill="#1B2B79" stroke="#1B2B79" stroke-miterlimit="10" d="M824.1,34c-5-1.7-9-4-11.9-6.9s-4.4-6.4-4.4-10.5
					c0-4,1.5-7.5,4.4-10.4c2.9-2.9,6.4-4.4,10.5-4.4c4.1,0,7.6,1.5,10.5,4.4c1.6,1.6,2.7,3.3,3.3,5.2l-3.6,1.4
					c-0.5-1.4-1.4-2.8-2.6-4c-2.1-2.1-4.7-3.2-7.7-3.2c-3,0-5.6,1.1-7.7,3.2c-2.1,2.1-3.2,4.7-3.2,7.8c0,3,1.1,5.6,3.2,7.7
					c2,2,4.7,3.8,8.3,5.4c5.6,1.8,10.4,4.6,14.2,8.5c4.1,4,6.1,8.9,6.1,14.7c0,5.8-2,10.7-6.1,14.8c-4.1,4.1-9,6.1-14.7,6.1
					c-5.7,0-10.7-2.1-14.7-6.2c-3.3-3.3-5.2-7-5.8-11.3l3.7-1.4c0.4,3.8,2,7.1,4.9,10c3.3,3.3,7.3,5,12,5c4.7,0,8.7-1.7,12-5
					c3.3-3.3,5-7.3,5-12c0-4.7-1.7-8.6-5-12C831.9,38,828.3,35.7,824.1,34z"/>
				<path fill="#1B2B79" stroke="#1B2B79" stroke-miterlimit="10" d="M886.7,2.6v4h-31.2v29.2h31.2v4h-31.2V69h31.2v4h-35.2V2.6
					H886.7z"/>
				<path fill="#1B2B79" stroke="#1B2B79" stroke-miterlimit="10" d="M913.5,34c-5-1.7-9-4-11.9-6.9s-4.4-6.4-4.4-10.5
					c0-4,1.5-7.5,4.4-10.4c2.9-2.9,6.4-4.4,10.5-4.4c4.1,0,7.6,1.5,10.5,4.4c1.6,1.6,2.7,3.3,3.3,5.2l-3.6,1.4
					c-0.5-1.4-1.4-2.8-2.6-4c-2.1-2.1-4.7-3.2-7.7-3.2s-5.6,1.1-7.7,3.2s-3.2,4.7-3.2,7.8c0,3,1.1,5.6,3.2,7.7c2,2,4.7,3.8,8.3,5.4
					c5.6,1.8,10.4,4.6,14.2,8.5c4.1,4,6.1,8.9,6.1,14.7c0,5.8-2,10.7-6.1,14.8s-9,6.1-14.7,6.1s-10.6-2.1-14.7-6.2
					c-3.3-3.3-5.2-7-5.8-11.3l3.7-1.4c0.4,3.8,2,7.1,4.9,10c3.3,3.3,7.3,5,12,5c4.7,0,8.7-1.7,12-5s5-7.3,5-12c0-4.7-1.7-8.6-5-12
					C921.3,38,917.7,35.7,913.5,34z"/>
				<path fill="#1B2B79" stroke="#1B2B79" stroke-miterlimit="10" d="M954.7,6.6v66.4h-4V6.6h-17.8v-4h39.6v4H954.7z"/>
				<path fill="#1B2B79" stroke="#1B2B79" stroke-miterlimit="10" d="M1020.5,2.6h4v50.5c-0.7,5.4-3,9.9-6.7,13.7
					c-4.5,4.5-9.9,6.7-16.2,6.7c-6.4,0-11.8-2.2-16.3-6.7s-6.7-9.9-6.7-16.2v-48h4v48c0,5.2,1.9,9.7,5.6,13.4
					c3.7,3.7,8.2,5.6,13.4,5.6s9.7-1.9,13.4-5.6c3.7-3.7,5.5-8.2,5.5-13.4V2.6z"/>
				<path fill="#1B2B79" stroke="#1B2B79" stroke-miterlimit="10" d="M1037.1,2.7h0.3c11.6,0,20.5,3.2,26.9,9.6
					c7,7.1,10.5,15.6,10.5,25.5c0,10-3.5,18.5-10.5,25.5c-6.4,6.4-15.3,9.6-26.9,9.6h-0.3v0.1h-4V2.6L1037.1,2.7L1037.1,2.7z
					 M1037.1,6.8v62.1h0.3c10.4,0,18.4-2.8,24-8.4c6.2-6.2,9.4-13.8,9.4-22.6c0-8.8-3.1-16.4-9.4-22.6c-5.6-5.6-13.6-8.4-24-8.4
					H1037.1z"/>
				<path fill="#1B2B79" stroke="#1B2B79" stroke-miterlimit="10" d="M1093.9,44.5l-24.2-41.9h4.5l21.6,37.5l21.7-37.5h4.5
					l-24.2,41.9v28.4h-4V44.5z"/>
			</g>
		</g>
		<g>
			<g>
				<path fill="#1B2B79" d="M802.1,107.4c1.7-1.1,5.4-3.7,8.5-10.6l1.3,0.7c-1.5,3.8-4.7,8.4-8.8,11.2L802.1,107.4z M814.6,105.8
					c-1,3-3.4,9.4-5.7,13.5c4.5-0.4,9.2-0.7,13.5-1.6c-1.2-1.7-2.1-3.1-4.9-6.3l1.3-0.9c2.7,2.8,6.2,7.7,7.7,10.8l-1.5,0.9
					c-0.4-0.8-0.7-1.5-1.8-3.3c-5.9,1.3-16,2.1-19.8,2.3l-0.3-1.5c0.8-0.1,1.7-0.1,4-0.2c1.8-3.4,4.3-9.7,5.8-14.2L814.6,105.8z
					 M819.5,96.9c3.7,7.1,6.9,9.5,8.5,10.6l-1.2,1.3c-4.1-3.2-6.6-6.9-8.7-11.3L819.5,96.9z"/>
				<path fill="#1B2B79" d="M838,98.2v8.4h-8.6v15.5h-1.5V98.2H838z M836.5,99.5h-7.1v2.2h7.1V99.5z M836.5,102.9h-7.1v2.4h7.1
					V102.9z M848.1,113.5v1.3h-4.6v6.8H842v-6.8h-4.9c-0.4,2.6-1.3,5.2-4.4,6.8l-1-1.2c3.1-1.5,3.6-3.7,3.9-5.6H831v-1.3h4.8
					c0-0.5,0-0.6,0-0.9V110h-3.9v-1.3h15.3v1.3h-3.7v3.5H848.1z M842,113.5V110h-4.8v2.7c0,0.3,0,0.5,0,0.8H842z M851.3,98.2v21.6
					c0,1.3-0.4,2.3-2,2.3h-3.6l-0.4-1.7l3.5,0.1c0.5,0,1.1,0,1.1-0.8v-13.1h-8.7v-8.4H851.3z M849.8,99.5h-7.2v2.2h7.2V99.5z
					 M849.8,102.9h-7.2v2.4h7.2V102.9z"/>
				<path fill="#1B2B79" d="M876.7,100.5l-11.7,0v1.9l9.2,0v5.2l-9.2,0v1.7l9.8,0v3.5h2v1.3h-2v5h-1.5v-1.3l-8.4,0v2.4
					c0,0.7,0,2-2.4,2h-3.8l-0.2-1.6l3.9,0.1c0.7,0,1-0.2,1-0.8v-2h-10v-1.3h10V114h-11.7v-1.3h11.7v-2.3h-10v-1.2h10v-1.7h-9.3v-5.2
					h9.3v-1.9H852v-1.3h11.5V97h1.5v2.2l11.7,0V100.5z M863.5,103.6h-7.7v2.7h7.7V103.6z M872.6,103.6l-7.6,0v2.7l7.6,0V103.6z
					 M873.4,110.4l-8.4,0v2.3l8.4,0V110.4z M873.4,114l-8.4,0v2.4l8.4,0V114z"/>
				<path fill="#1B2B79" d="M880.8,122h-1.5v-15.2c-0.9,1.8-1.5,2.4-2.1,3.2l-0.9-1.4c2.1-2.5,4.1-6.9,4.8-11.7l1.5,0.3
					c-0.2,1.2-0.7,3.2-1.8,6.2V122z M881.6,111.5c3-3.2,4.5-7.5,4.5-11.8h-3v-1.3h9.8v1.3h-5.3c-0.1,2.1-0.4,3.6-0.5,4.5h5.1
					c-0.3,11.1-6,16-8.3,17.7l-1-1.1c1.2-0.9,4.1-3.1,6.1-7.6c-1-1.1-2.6-2.3-4.1-3.4c-0.8,1.3-1.6,2.2-2.2,2.8L881.6,111.5z
					 M886.7,105.5c-0.2,0.8-0.6,1.8-1.3,3.2c1.7,1.2,2.8,2,4,3.1c0.7-2,1.1-4.2,1.2-6.3H886.7z M895.6,116.1h-1.5V98.9h1.5V116.1z
					 M900.6,97v23c0,0.8-0.1,2-1.8,2h-3.3l-0.2-1.5l3.2,0.1c0.6,0,0.7-0.2,0.7-0.7V97H900.6z"/>
				<path fill="#1B2B79" d="M914.1,119.4c3.2-0.3,11-1,11-9.8c0-2.3-0.8-9.4-9.6-9.5c-0.5,5.9-1.2,11.2-3.8,15.4
					c-1.7,2.7-3.4,3.3-4.4,3.3c-2.7,0-4.8-3.3-4.8-7.7c0-7,4.8-12.5,13-12.5c8.5,0,11.4,5.8,11.4,10.8c0,10.3-8.9,11.3-12.2,11.6
					L914.1,119.4z M904,111.1c0,2.3,0.8,6,3.2,6c1,0,2-0.7,3.1-2.5c2.6-4.1,3.2-10.2,3.5-14.4C906.6,101,904,106.3,904,111.1z"/>
				<path fill="#1B2B79" d="M933.4,108.6c-1.6,1.5-2.7,3.5-2.7,5.5c0,4.6,5.9,4.7,9.5,4.7c4.2,0,7.8-0.4,9.7-0.6l0.1,1.8
					c-2.5,0.2-6.5,0.4-9.3,0.4c-3,0-6.1-0.2-8.2-1.2c-2.3-1-3.3-3.2-3.3-5.1c0-2.8,1.6-5,3-6.5L933.4,108.6z M947.8,100.6
					c-3.3,0.4-7.4,2.4-9.2,3.5l-1-1.2c2.2-1.3,3.4-1.7,5.5-2.3c-8.1,0.1-8.6,0.1-12.7,0.2v-1.7c2.3,0,14.9,0,17.5,0V100.6z
					 M947.2,108.2c-0.6-1.5-1.1-2.4-2.1-4.1l1.3-0.6c0.6,0.9,1.4,2.1,2.2,4L947.2,108.2z M950.1,106.8c-0.7-1.7-1.1-2.6-2.1-3.9
					l1.3-0.6c0.9,1.2,1.5,2.4,2.1,3.8L950.1,106.8z"/>
				<path fill="#1B2B79" d="M960.8,100.2c-1.5,2.5-3.6,6-5.5,8.4c1.4-0.1,2.1-0.1,4.3-0.3c-0.4-1-0.6-1.4-0.9-2l1.1-0.6
					c1,1.6,2,4.2,2.3,5.1l-1.4,0.5c-0.1-0.6-0.2-1-0.6-1.9c-0.5,0.1-1.2,0.1-2.9,0.3v12.4h-1.5v-12.3c-0.7,0-3.7,0.2-4.4,0.2
					l-0.3-1.3c0.8,0,1.5,0,2.6-0.1c0.4-0.5,1-1.3,1.5-2c-0.6-0.7-2.7-2.8-4.2-3.9l0.9-1.1c0.5,0.4,0.7,0.6,1,0.8
					c1-1.6,2.4-3.9,2.9-5.5l1.5,0.5c-1.1,2.3-2.4,4.5-3.4,5.9c0.6,0.5,1.8,1.9,2.1,2.2c1.3-1.9,2.5-3.9,3.6-6L960.8,100.2z
					 M951.1,119.5c1-2.1,1.5-5.6,1.6-7.1l1.3,0.2c-0.1,1.1-0.4,4.6-1.7,7.5L951.1,119.5z M960.5,118.6c-0.4-2.8-1.5-5.9-1.6-6.2
					l1.3-0.4c0.4,1.1,1.5,4.2,1.8,6.2L960.5,118.6z M969.7,108.7l-0.4-1.6l3,0.1c1.1,0,2.1,0.1,2.2-7.7h-5.7
					c-0.7,4.8-2.5,7.6-6.3,10l-1-1.2c1.6-0.9,5.1-3.1,5.7-8.8l-4.8,0v-1.3l13.5,0c0,2.3-0.1,7.1-0.7,8.6c-0.7,1.8-1.6,2-3,2H969.7z
					 M975.5,122.1H974v-1.5h-9.2v1.5h-1.5v-11.9h12.2V122.1z M974,111.5h-9.2v7.7h9.2V111.5z"/>
				<path fill="#1B2B79" d="M975.7,106.2c4.6-1.6,9.7-5.7,11.9-9.2h1.6c2.7,3.7,7.2,7.3,12.1,9l-0.8,1.6c-4.8-1.9-9.2-5.4-12-9.2
					c-2.3,3.3-7.2,7.4-12,9.2L975.7,106.2z M984.1,110.6c0,5.4-1.4,9.2-6.7,11.5l-0.9-1.5c3.3-1.2,6.1-3.3,6.1-10.2v-4.2h1.5V110.6z
					 M994.3,122.1h-1.6v-15.9h1.6V122.1z"/>
			</g>
		</g>
	</g>
	<g>
		<line fill="none" stroke="#1B2B79" stroke-width="3" stroke-miterlimit="10" x1="1382" y1="152.9" x2="1567" y2="392.9"/>
		<line fill="none" stroke="#00A0E9" stroke-width="7" stroke-miterlimit="10" x1="719" y1="155.5" x2="1385" y2="155.5"/>
		<circle fill="#138BCE" cx="716.7" cy="155.4" r="9"/>
		<circle fill="none" stroke="#138BCE" stroke-width="4" stroke-miterlimit="10" cx="1571.4" cy="398.4" r="8.3"/>
		<path opacity="0.54" fill="#FFFFFF" stroke="#11BAD1" stroke-width="5" stroke-miterlimit="10" d="M725.9,152.4"/>
	</g>
</g>
</svg>
