<?xml version="1.0" encoding="utf-8"?>
<!-- Generator: Adobe Illustrator 19.1.0, SVG Export Plug-In . SVG Version: 6.00 Build 0)  -->
<svg version="1.0" id="レイヤー_1" xmlns="http://www.w3.org/2000/svg" xmlns:xlink="http://www.w3.org/1999/xlink" x="0px"
	 y="0px" viewBox="0 0 1800 320" enable-background="new 0 0 1800 320" xml:space="preserve">
<g>
	<g>
		<rect x="1170.5" y="62.5" fill="none" stroke="#00A0E9" stroke-width="3" stroke-miterlimit="10" width="16" height="252"/>
	</g>
	<g>
		<g>
			<g>
				<path fill="#1B2B79" stroke="#1B2B79" stroke-miterlimit="10" d="M775.2,111.2c7,7,10.6,15.5,10.6,25.5s-3.5,18.5-10.6,25.5
					c-7,7-15.5,10.6-25.5,10.6c-10,0-18.5-3.5-25.5-10.6c-7-7-10.6-15.5-10.6-25.5s3.5-18.5,10.6-25.5c7-7,15.5-10.6,25.5-10.6
					C759.7,100.7,768.2,104.2,775.2,111.2z M749.7,104.7c-8.8,0-16.4,3.1-22.7,9.4c-6.3,6.3-9.4,13.8-9.4,22.7s3.1,16.4,9.4,22.7
					c6.3,6.3,13.8,9.4,22.7,9.4c8.8,0,16.4-3.1,22.7-9.4c6.3-6.3,9.4-13.8,9.4-22.7s-3.1-16.4-9.4-22.7
					C766.1,107.9,758.5,104.7,749.7,104.7z"/>
				<path fill="#1B2B79" stroke="#1B2B79" stroke-miterlimit="10" d="M833.5,101.7h4v50.5c-0.7,5.4-3,9.9-6.7,13.7
					c-4.5,4.5-9.9,6.7-16.2,6.7c-6.4,0-11.8-2.2-16.3-6.7s-6.7-9.9-6.7-16.2v-48h4v48c0,5.2,1.9,9.7,5.6,13.4
					c3.7,3.7,8.2,5.6,13.4,5.6c5.2,0,9.7-1.9,13.4-5.6c3.7-3.7,5.5-8.2,5.5-13.4V101.7z"/>
				<path fill="#1B2B79" stroke="#1B2B79" stroke-miterlimit="10" d="M865.1,147.6c-0.4,0-0.8,0-1.2,0h-12V172h-4v-70.3h18.5
					c5.4,0.7,9.9,3,13.7,6.7c4.5,4.5,6.7,9.9,6.7,16.2c0,6.4-2.2,11.8-6.7,16.3c-3.1,3.1-6.7,5.1-10.7,6.1l16.2,25h-4.9L865.1,147.6
					z M851.9,105.7v37.9h12c5.2,0,9.7-1.9,13.4-5.6c3.7-3.7,5.6-8.2,5.6-13.4s-1.9-9.7-5.6-13.4c-3.7-3.7-8.2-5.5-13.4-5.5H851.9z"
					/>
				<path fill="#1B2B79" stroke="#1B2B79" stroke-miterlimit="10" d="M898.9,147.6V172h-4v-70.3h18.5c5.4,0.7,9.9,3,13.7,6.7
					c4.5,4.5,6.7,9.9,6.7,16.2c0,6.4-2.2,11.8-6.7,16.3s-9.9,6.7-16.2,6.7H898.9z M898.9,105.7v37.9h12c5.2,0,9.7-1.9,13.4-5.6
					s5.6-8.2,5.6-13.4s-1.9-9.7-5.6-13.4s-8.2-5.5-13.4-5.5H898.9z"/>
				<path fill="#1B2B79" stroke="#1B2B79" stroke-miterlimit="10" d="M941.9,172v-70.3h4V168h27.2v4H941.9z"/>
				<path fill="#1B2B79" stroke="#1B2B79" stroke-miterlimit="10" d="M1014.9,145.1h-24.3l-9.8,26.9h-4.2l26.2-71.9l26.1,71.9h-4.2
					L1014.9,145.1z M1013.4,141.1l-10.7-29.5L992,141.1H1013.4z"/>
				<path fill="#1B2B79" stroke="#1B2B79" stroke-miterlimit="10" d="M1035,101.7h4.4l36.1,62.5v-62.5h4V172h-4l-36.5-63.1V172h-4
					V101.7z"/>
			</g>
		</g>
		<g>
			<g>
				<path fill="#1B2B79" d="M799.1,206.9v7.9c0,1.8,1.1,3.2,2.7,3.7c1.9,0.6,3.9,0.7,4.8,0.7l12.9,0l-0.2,1.5l-12.9,0
					c-0.6,0-2.7-0.1-4.7-0.8c-1.8-0.7-2.7-1.8-3-2.3c-1.6,1.9-2,2.2-3.6,3.7l-1-1.3c1.1-0.8,2.7-2.1,3.7-3.3v-8.3h-3.4v-1.5H799.1z
					 M798.8,201.6c-1.3-1.6-2.5-2.8-4.1-4l1-1.1c1,0.8,2.9,2.4,4.2,4.2L798.8,201.6z M808.5,196.6v4.4h-6v2.1c0,0.6,0,0.7,0.5,0.7
					h4.1c0.5,0,0.6,0,0.8-1.9l1.3,0.4c-0.2,2.6-0.9,2.7-2.1,2.7h-4.3c-0.4,0-1.7,0-1.7-1.5v-3.8h6v-1.9h-6.5v-1.2H808.5z
					 M819.2,213.4l-18.4,0v-1.2h4.9v-3h-4.3v-1.3h4.3v-2h1.5v2h5.3v-2h1.5v2l4.7,0v1.3l-4.7,0v3l5.3,0V213.4z M801.6,216.7
					c1.4-0.5,3.5-1.5,5-2.6l1,1c-1.7,1.3-2.9,1.9-5.1,2.7L801.6,216.7z M812.5,209.2h-5.3v3h5.3V209.2z M817.6,196.6v4.4l-6,0v2.1
					c0,0.7,0.3,0.6,0.6,0.6h4.3c0.9,0,0.9-0.2,1.1-2l1.3,0.4c-0.1,1.5-0.2,2.8-2.1,2.8h-4.9c-1.6,0-1.7-0.8-1.7-1.7v-3.6h6v-1.9
					h-6.4v-1.2L817.6,196.6z M813,214.2c1.9,1.3,3.5,2.1,5.8,2.6l-0.8,1.3c-1.1-0.3-3.7-1-6-2.8L813,214.2z"/>
				<path fill="#1B2B79" d="M843.1,216.2c-3.9-3.2-7.1-6.5-8.8-8.2c-4.4-4.5-5-5.1-6.3-5.1c-1.1,0-1.8,0.5-2.5,1.3
					c-1.2,1.3-5,6.2-5.6,6.9l-1.5-1.5c1-1,5-5.7,5.8-6.5c1.1-1.1,2-1.9,3.7-1.9c1.8,0,2.4,0.6,6.2,4.2c6.4,6.2,8.3,7.7,10.3,9.1
					L843.1,216.2z M838.3,203c-0.9-1.9-1.6-2.9-2.6-4.2l1.3-0.7c1.6,1.8,2.3,3.3,2.7,4.1L838.3,203z M841.4,201.5
					c-1-2.1-1.9-3.2-2.5-3.9l1.3-0.7c1.1,1.2,1.8,2.2,2.6,3.8L841.4,201.5z"/>
				<path fill="#1B2B79" d="M861.8,197.1v1.5c-0.8,0.7-2.7,2.2-3.7,3.1c-3.4,3.1-3.8,3.4-4.9,4.4c1.4-0.6,3.2-1.3,5.9-1.3
					c5.3,0,7.4,3.7,7.4,7.2c0,1.3-0.3,8.3-10.2,8.3c-3,0-4.4-0.5-5.5-1.1c-1-0.7-1.9-1.8-1.9-3.3c0-2.6,2.5-4.1,4.9-4.1
					c3.7,0,5.5,3,5.5,5.2c0,0.9-0.2,1.4-0.5,2c4.2-0.8,6.1-3.7,6.1-6.8c0-3.9-2.6-5.9-6.2-5.9c-3.1,0-6,1.3-7.9,2.8
					c-0.9,0.7-4.1,4-5.1,5.2l-1.5-1.2c1.3-1.1,6.8-6.4,7.9-7.5c1.1-1.1,6.3-5.9,7.4-6.9l-12.9,0.1v-1.6H861.8z M857.7,216.9
					c0-1.7-1.3-3.9-3.9-3.9c-1.8,0-3.3,1.1-3.3,2.8c0,3,5.1,3.1,6.6,3C857.4,218.4,857.7,217.9,857.7,216.9z"/>
				<path fill="#1B2B79" d="M870.9,211.9c-0.1,3.1,0.2,5.7,6.5,5.7c2.6,0,6.4-0.1,6.4-4.5c0-0.9-0.1-3-2-3.8
					c-0.3-0.1-1.7-0.7-3.3-0.7h-3V207h3c1.6,0,5,0,5-4c0-3.4-2.3-4.2-5.9-4.2c-4,0-6.3,0.8-6.3,4.8h-1.9c0.3-5.4,3.5-6.5,8.2-6.5
					c1.9,0,7.7,0,7.7,5.7c0,4-2.5,4.6-3.4,4.9c0.9,0.3,3.6,1.1,3.6,5.3c0,6.1-5.8,6.2-7.9,6.2c-5.6,0-8.7-1.5-8.7-7.3H870.9z"/>
				<path fill="#1B2B79" d="M890.8,216.5c1.2,0.1,2.4,0.2,4.2,0.2c4.2,0,9.1-0.2,12.1-4c1.1-1.4,1.6-3.1,1.6-4.8
					c0-6.5-5.9-6.5-7.4-6.5c-3.6,0-10.6,1.5-14.4,2.5l-0.4-1.9c0.8-0.1,5.6-1,6.7-1.2c1.8-0.4,5.6-1,8.2-1c7.3,0,9.1,4.7,9.1,8.1
					c0,3.4-1.8,6.2-3.7,7.5c-3.2,2.3-6.3,2.9-12.8,2.9c-1.2,0-1.9,0-2.9-0.1L890.8,216.5z"/>
				<path fill="#1B2B79" d="M924.4,218.5c3.2-0.3,11-1,11-9.8c0-2.3-0.8-9.4-9.6-9.5c-0.5,5.9-1.2,11.2-3.8,15.4
					c-1.7,2.7-3.4,3.3-4.4,3.3c-2.7,0-4.8-3.3-4.8-7.7c0-7,4.8-12.5,13-12.5c8.5,0,11.4,5.8,11.4,10.8c0,10.3-8.9,11.3-12.2,11.6
					L924.4,218.5z M914.3,210.2c0,2.3,0.8,6,3.2,6c1,0,2-0.7,3.1-2.5c2.6-4.1,3.2-10.2,3.5-14.4
					C916.9,200.1,914.3,205.3,914.3,210.2z"/>
				<path fill="#1B2B79" d="M941.3,218.5c15.2-1.9,16.6-14.1,17-17.5h-19.7v-1.6h18.7c-0.1-0.2-0.1-0.3-0.1-0.7
					c0-1.7,1.3-2.9,2.8-2.9c1.6,0,2.8,1.3,2.8,2.8c0,1.5-1.1,2.8-2.9,2.8c-0.7,4.9-2.5,16-18.1,18.6L941.3,218.5z M958.4,198.7
					c0,0.9,0.7,1.6,1.6,1.6c0.9,0,1.6-0.8,1.6-1.6c0-0.9-0.7-1.6-1.6-1.6C959.2,197.1,958.4,197.8,958.4,198.7z"/>
				<path fill="#1B2B79" d="M985,204.3c-1.4,11.9-8.3,14.9-17.7,15.8l-0.4-1.6c7.9-0.8,14.7-2.7,16.4-12.7l-20.2,0v-1.5L985,204.3z
					 M983.3,197.7v1.6H965v-1.6H983.3z"/>
				<path fill="#1B2B79" d="M996.6,204.1c-2.4-1.7-6-3.2-8.6-4l0.9-1.5c2.1,0.6,5.7,2,8.6,3.9L996.6,204.1z M988.4,217.6
					c8.1-0.2,16.9-4.4,21-16.9l1.6,0.7c-1,2.9-3.2,8.7-8.6,13.1c-3.8,3-8.5,4.8-13.4,5L988.4,217.6z"/>
			</g>
		</g>
	</g>
	<path opacity="0.49" fill="#0A5DC1" d="M1227.9,164.3c-29.8,0-66.3-5.4-100.5-25.2c-69.2-40-90.2-110.1-91-113.1l-4-13.9l27.9-8
		l4,13.9c0.3,1.2,19.1,62.2,77.7,96c63.4,36.6,139.5,14.7,140.3,14.5l13.9-4.1l8.3,27.7l-13.9,4.2
		C1288.6,156.8,1262.9,164.3,1227.9,164.3z"/>
</g>
</svg>
