<?xml version="1.0" encoding="utf-8"?>
<!-- Generator: Adobe Illustrator 19.1.0, SVG Export Plug-In . SVG Version: 6.00 Build 0)  -->
<svg version="1.0" id="レイヤー_1" xmlns="http://www.w3.org/2000/svg" xmlns:xlink="http://www.w3.org/1999/xlink" x="0px"
	 y="0px" viewBox="0 0 1800 280" enable-background="new 0 0 1800 280" xml:space="preserve">
<g>
	<g>
		<g>
			<g>
				<path fill="#1B2B79" stroke="#1B2B79" stroke-miterlimit="10" d="M766.8,139.3l3,2.7c-6.9,6.2-14.9,9.4-24.2,9.4
					c-10,0-18.5-3.5-25.5-10.5c-7-7-10.5-15.5-10.5-25.5c0-9.9,3.5-18.4,10.5-25.4c7-7,15.5-10.5,25.5-10.5c9.3,0,17.4,3.1,24.2,9.4
					l-3,2.7c-6-5.4-13.1-8-21.2-8c-8.8,0-16.3,3.1-22.6,9.4s-9.4,13.8-9.4,22.6c0,8.8,3.1,16.4,9.4,22.6s13.8,9.4,22.6,9.4
					C753.7,147.4,760.8,144.7,766.8,139.3z"/>
				<path fill="#1B2B79" stroke="#1B2B79" stroke-miterlimit="10" d="M836.8,89.8c7,7,10.6,15.5,10.6,25.5s-3.5,18.5-10.6,25.5
					c-7,7-15.5,10.6-25.5,10.6c-10,0-18.5-3.5-25.5-10.6c-7-7-10.6-15.5-10.6-25.5s3.5-18.5,10.6-25.5c7-7,15.5-10.6,25.5-10.6
					C821.2,79.2,829.8,82.7,836.8,89.8z M811.3,83.2c-8.8,0-16.4,3.1-22.7,9.4c-6.3,6.3-9.4,13.8-9.4,22.7s3.1,16.4,9.4,22.7
					c6.3,6.3,13.8,9.4,22.7,9.4c8.8,0,16.4-3.1,22.7-9.4c6.3-6.3,9.4-13.8,9.4-22.7s-3.1-16.4-9.4-22.7
					C827.7,86.4,820.1,83.2,811.3,83.2z"/>
				<path fill="#1B2B79" stroke="#1B2B79" stroke-miterlimit="10" d="M856.8,80.2h4.4l36.1,62.5V80.2h4v70.3h-4l-36.5-63.1v63.1h-4
					V80.2z"/>
				<path fill="#1B2B79" stroke="#1B2B79" stroke-miterlimit="10" d="M932.6,84.2v66.4h-4V84.2h-17.8v-4h39.6v4H932.6z"/>
				<path fill="#1B2B79" stroke="#1B2B79" stroke-miterlimit="10" d="M985.1,123.6h-24.3l-9.8,26.9h-4.2l26.2-71.9l26.1,71.9h-4.2
					L985.1,123.6z M983.6,119.6l-10.7-29.5l-10.7,29.5H983.6z"/>
				<path fill="#1B2B79" stroke="#1B2B79" stroke-miterlimit="10" d="M1057.7,139.3l3,2.7c-6.9,6.2-14.9,9.4-24.2,9.4
					c-10,0-18.5-3.5-25.5-10.5s-10.5-15.5-10.5-25.5c0-9.9,3.5-18.4,10.5-25.4s15.5-10.5,25.5-10.5c9.3,0,17.4,3.1,24.2,9.4l-3,2.7
					c-6-5.4-13.1-8-21.2-8c-8.8,0-16.3,3.1-22.6,9.4s-9.4,13.8-9.4,22.6c0,8.8,3.1,16.4,9.4,22.6s13.8,9.4,22.6,9.4
					C1044.5,147.4,1051.6,144.7,1057.7,139.3z"/>
				<path fill="#1B2B79" stroke="#1B2B79" stroke-miterlimit="10" d="M1084.5,84.2v66.4h-4V84.2h-17.8v-4h39.6v4H1084.5z"/>
			</g>
		</g>
		<g>
			<g>
				<path fill="#1B2B79" d="M784.7,175.1h1.7v3.9h7.3v1.5h-7.3v4.4c0.9-0.2,2.4-0.5,4.6-0.5c1.5,0,4.5,0.2,6.7,1.7
					c2.2,1.5,2.8,3.8,2.8,5.6c0,3.4-2.3,5-3.5,5.6c-1.9,0.9-3.7,1.2-8,1.2l-0.2-1.6c4.3,0,5.8-0.2,7.4-1.1c1.2-0.7,2.5-2,2.5-4.2
					c0-1.6-0.8-3.7-3-4.9c-1-0.6-2.8-0.9-4.7-0.9c-2.4,0-3.9,0.4-4.7,0.5v9.4c0,1.2-0.1,2.3-2.6,2.3c-3.4,0-6-1.9-6-5.4
					c0-3.8,3.2-6,6.9-7.4v-4.8h-6.6V179h6.6V175.1z M784.7,186.9c-3.1,1.2-5.4,3.2-5.4,5.7c0,1.9,1.3,3.9,4.4,3.9c0.8,0,1-0.2,1-0.8
					V186.9z M795.9,175.4c1.8,1.4,4.2,4.1,5.7,7.5l-1.6,1c-1.7-3.6-3.3-5.6-5.7-7.7L795.9,175.4z"/>
				<path fill="#1B2B79" d="M812.5,175.6v9.1h-8.3v14.9h-1.5v-24H812.5z M811,176.9h-6.8v2.7h6.8V176.9z M811,180.8h-6.8v2.7h6.8
					V180.8z M819.9,195.8l-11.9,0v-8.5l11.9,0V195.8z M818.4,188.6l-8.9,0v5.9l8.9,0V188.6z M825.2,197.7c0,0.9,0,1.9-1.7,1.9h-4.3
					l-0.2-1.5l3.7,0.1c0.9,0,1-0.3,1-1v-12.5h-8.2v-9.1h9.7V197.7z M823.7,176.9H817v2.7h6.7V176.9z M823.7,180.8H817v2.7h6.7V180.8
					z"/>
				<path fill="#1B2B79" d="M829.4,176.4c-0.2,1.2-0.5,3.7-0.5,7.7c0,5.2,0.4,12.1,4.2,12.1c1.1,0,1.9-0.6,2.7-1.6
					c0.6-0.8,1.8-2.4,2.8-5.3l1.4,0.7c-1.5,4.1-3.3,6-3.9,6.6c-0.4,0.4-1.5,1.3-3.1,1.3c-4.5,0-5.7-6.1-5.7-14.1
					c0-3.1,0.2-6,0.4-7.8L829.4,176.4z M848.6,195.3c0.1-0.8,0.1-1.8,0.1-3.1c0-9.1-3.4-12.2-5.4-13.9l1.2-1.1c3.7,2.8,6,7.1,6,15.6
					c0,1,0,1.6-0.1,2.5L848.6,195.3z"/>
				<path fill="#1B2B79" d="M850.2,183.7c6-2.2,10-6,11.9-9.1h1.7c3.9,5.4,8.5,7.7,12.1,9.1l-0.7,1.5c-3.8-1.5-8.8-4.9-12.1-9.4
					c-2.8,3.9-6.9,7.1-12.1,9.4L850.2,183.7z M872.5,187.7v11.9h-1.6v-1.5l-15.4,0v1.5H854v-11.9L872.5,187.7z M870.9,189.1l-15.4,0
					v7.7l15.4,0V189.1z M869.8,184.3l-13.2,0v-1.4l13.2,0V184.3z"/>
				<path fill="#1B2B79" d="M886.4,196.2c2.8,0.1,11.4,0.4,11.4-8c0-2.1-0.8-6.9-6.5-6.9c-1.4,0-4.4,0.1-9,4.7l-0.1,12.8h-1.6
					l0.1-10.8c-1.6,3.2-3.1,4.8-4.2,6l-1-1.6c3.5-3.5,5-7.1,5.2-7.7l0-3.2h-4.5v-1.6h4.5l0-4.6h1.6l0,4.6h1v0.9
					c-0.3,0.7-1,2.8-1.1,3.4c2.2-2,4.9-4.4,9.5-4.4c5.3,0,7.7,4.4,7.7,8.4c0,7.1-5.4,10-12.9,9.7L886.4,196.2z"/>
				<path fill="#1B2B79" d="M919.5,175c0,0.9,0,1.5,0,6.1l5.3,0v1.5l-5.3,0c0,0.8,0.1,4.5,0.1,5.3c0,2.4-0.3,4-3.8,4
					c-1.8,0-2.8-0.2-3.6-0.4l0.1-1.5c1.6,0.3,2.1,0.4,3.4,0.4c1.7,0,2.2-0.1,2.2-2.8c0-1.6,0-3.4,0-5l-11.3,0.1v8.9
					c0,5.1,3,5.1,7.6,5.1c4.1,0,5.9-0.1,8-0.3l0.1,1.6c-4,0.2-4.4,0.2-8.2,0.2c-5.3,0-9.2-0.1-9.2-7.2v-8.2h-4.7v-1.5l4.7,0v-5.9
					h1.6v5.9l11.3-0.1c0-1-0.1-5.3-0.1-6.1H919.5z"/>
				<path fill="#1B2B79" d="M947.9,177.2c-0.4,5.5-1.8,18.2-17.8,21.3l-0.6-1.6c14.4-2.8,16-12.6,16.4-18.1h-19.4v-1.6H947.9z"/>
				<path fill="#1B2B79" d="M949.8,196c4.9-2.2,9.1-6.8,11.6-10.6l-11,0v-1.4l11.1,0V180h1.5v4.1h5.7v1.4H963v10.8
					c0,2.2-0.8,2.8-3.1,2.8c-0.9,0-2.1-0.1-3-0.2l-0.1-1.5c0.4,0.1,0.5,0.1,1.8,0.2c0.4,0.1,1,0.1,1.5,0.1c1.5,0,1.5-0.1,1.5-1.6
					v-8.6c-4.1,5.5-7.9,8.1-10.7,9.8L949.8,196z"/>
				<path fill="#1B2B79" d="M996.3,186.2v1.8H972v-1.8H996.3z"/>
				<path fill="#1B2B79" d="M1012.7,185.4c3.7,4.8,5.7,8.6,7.4,12.5l-1.6,0.8c-0.3-0.8-0.5-1.6-1.1-2.7c-9.8,1.3-17.2,1.6-20.7,1.8
					l-0.1-1.8c0.5,0,2.2-0.1,2.4-0.1c3.1-7.2,5.1-14.5,6.7-20.3l1.8,0.3c-1.3,5-4.3,14.5-6.7,19.9c6.2-0.2,13.2-0.7,16-1.2
					c-1.5-3-3.3-5.8-5.4-8.5L1012.7,185.4z"/>
			</g>
		</g>
	</g>
	<g>
		<path fill="#0A5DC1" d="M718.8,278.6l8.8-9l-4.5-4.4c-17.1-16.7-30.5-36.3-39.6-58.2c-8.9-21.2-13.5-43.6-13.8-66.6
			c-0.3-23,3.8-45.5,12.2-66.9c8.7-22.1,21.5-42,38.3-59.1l4.4-4.5l-9-8.8l-4.4,4.5c-17.9,18.3-31.7,39.6-41,63.3
			c-9,22.9-13.4,47-13.1,71.6c0.3,24.7,5.2,48.7,14.7,71.3c9.8,23.5,24.1,44.4,42.5,62.4L718.8,278.6z"/>
	</g>
</g>
</svg>
