<?xml version="1.0" encoding="utf-8"?>
<!-- Generator: Adobe Illustrator 19.1.0, SVG Export Plug-In . SVG Version: 6.00 Build 0)  -->
<svg version="1.0" id="レイヤー_1" xmlns="http://www.w3.org/2000/svg" xmlns:xlink="http://www.w3.org/1999/xlink" x="0px"
	 y="0px" viewBox="0 0 212 26" enable-background="new 0 0 212 26" xml:space="preserve">
<g>
	<g>
		<path fill="#1B2B79" d="M18.2,1.1h1.7v5.8h5.3v1.6h-5.3v4.2c0,2.8-0.9,7.3-4.6,9.8c-3.4,2.3-7.4,2.7-8.8,2.9l-0.6-1.7
			c1.4-0.1,5.3-0.4,8.6-2.7c3.8-2.6,3.8-8.1,3.8-8.3V8.5H6.9v8.2H5.2V8.5H0V6.9h5.2V1.2h1.7v5.7h11.3V1.1z"/>
		<path fill="#1B2B79" d="M47.8,12.4v1.8H22.9v-1.8H47.8z"/>
		<path fill="#1B2B79" d="M46.4,23.5c2.7-2.9,6.3-8,6.6-21.1l1.9,0.3c-0.7,11.7-3,17.6-7.1,22L46.4,23.5z M64.6,2.5
			c0.8,12.8,4.3,17.8,7.5,21.1l-1.5,1.3c-3.9-4.2-6.7-9.9-7.8-22.1L64.6,2.5z M67.7,5.8c-0.3-0.7-0.9-2.4-2-4.2l1.3-0.6
			c0.8,1.1,1.7,2.9,2.1,4L67.7,5.8z M71.1,4.7c-0.4-1-1.3-2.8-2-4.1L70.4,0c1,1.5,1.4,2.3,2.1,3.9L71.1,4.7z"/>
		<path fill="#1B2B79" d="M93.7,12.4v1.8H68.8v-1.8H93.7z"/>
		<path fill="#1B2B79" d="M97.8,23c11.8-1.3,15.1-7.4,17.6-15l1.5,0.9c-2.4,6.9-5.8,15-20.8,15.8V1.5h1.7V23z"/>
		<path fill="#1B2B79" d="M115.6,23.7c5.5-2.4,13.8-8.3,17.7-19.4h-16.4V2.7h18.5c-1.1,4.3-3.1,8.3-5.8,11.8c1,0.8,5.4,4.3,10.1,9
			l-1.4,1.3c-2.5-2.8-7.3-7.1-9.7-9.1c-3.3,3.9-7.4,7.2-12,9.3L115.6,23.7z"/>
		<path fill="#1B2B79" d="M142.2,23.5c15.6-1.9,17-14.4,17.4-17.9h-20.2V3.9h19.1c-0.1-0.2-0.1-0.3-0.1-0.7c0-1.7,1.4-2.9,2.9-2.9
			c1.6,0,2.9,1.3,2.9,2.9c0,1.5-1.2,2.9-3,2.9c-0.7,5-2.6,16.3-18.6,19L142.2,23.5z M159.7,3.2c0,0.9,0.8,1.7,1.7,1.7
			c1,0,1.7-0.8,1.7-1.7c0-1-0.8-1.7-1.7-1.7C160.5,1.6,159.7,2.3,159.7,3.2z"/>
		<path fill="#1B2B79" d="M186.9,9c-1.4,12.2-8.5,15.2-18.1,16.2l-0.4-1.7c8-0.8,15.1-2.8,16.7-13h-20.6V9H186.9z M185.2,2.2v1.6
			h-18.8V2.2H185.2z"/>
		<path fill="#1B2B79" d="M197.1,8.8c-2.5-1.7-6.2-3.3-8.8-4.1l1-1.6c2.1,0.6,5.9,2,8.8,4L197.1,8.8z M188.7,22.6
			c8.3-0.3,17.3-4.5,21.4-17.3l1.6,0.7c-1,2.9-3.2,8.9-8.8,13.4c-3.9,3.1-8.7,4.9-13.7,5.1L188.7,22.6z"/>
	</g>
</g>
</svg>
