<?xml version="1.0" encoding="utf-8"?>
<!-- Generator: Adobe Illustrator 19.2.1, SVG Export Plug-In . SVG Version: 6.00 Build 0)  -->
<svg version="1.1" id="レイヤー_1" xmlns="http://www.w3.org/2000/svg" xmlns:xlink="http://www.w3.org/1999/xlink" x="0px"
	 y="0px" viewBox="0 0 207.7 29" style="enable-background:new 0 0 207.7 29;" xml:space="preserve">
<style type="text/css">
	.st0{fill:#1B2B79;}
</style>
<g>
	<path class="st0" d="M20.1,1.2H22v6.4h5.8v1.8H22V14c0,3.1-1,8-5.1,10.8c-3.7,2.6-8.2,3-9.7,3.2l-0.7-1.9c1.5-0.1,5.9-0.5,9.5-3
		c4.2-2.9,4.2-8.9,4.2-9.2V9.4H7.6v9.1H5.7V9.4H0V7.6h5.7V1.3h1.9v6.2h12.5V1.2z"/>
	<path class="st0" d="M52.7,13.7v2H25.3v-2H52.7z"/>
	<path class="st0" d="M51.2,26c2.9-3.2,6.9-8.8,7.3-23.3L60.6,3c-0.8,12.9-3.3,19.5-7.8,24.2L51.2,26z M71.3,2.7
		c0.9,14.1,4.7,19.6,8.2,23.2l-1.6,1.4c-4.3-4.6-7.4-11-8.6-24.3L71.3,2.7z M74.8,6.4c-0.3-0.8-1-2.7-2.2-4.6L74,1.2
		c0.9,1.2,1.8,3.2,2.3,4.4L74.8,6.4z M78.5,5.2c-0.5-1.1-1.4-3.1-2.3-4.5L77.7,0c1.1,1.7,1.6,2.6,2.3,4.4L78.5,5.2z"/>
	<path class="st0" d="M85,25.4c13-1.4,16.7-8.2,19.4-16.5l1.6,1c-2.7,7.6-6.4,16.6-22.9,17.5V1.6H85V25.4z"/>
	<path class="st0" d="M103.6,26.2c6.1-2.7,15.2-9.1,19.5-21.4h-18V3h20.5c-1.2,4.7-3.4,9.1-6.4,13c1.1,0.9,5.9,4.7,11.2,10l-1.5,1.5
		c-2.8-3.1-8-7.9-10.8-10c-3.6,4.3-8.1,7.9-13.3,10.3L103.6,26.2z"/>
	<path class="st0" d="M131,25.9c17.2-2.1,18.8-15.9,19.2-19.8h-22.3V4.4H149c-0.1-0.2-0.1-0.4-0.1-0.7c0-1.9,1.5-3.2,3.2-3.2
		c1.8,0,3.2,1.4,3.2,3.2c0,1.7-1.3,3.2-3.3,3.2c-0.8,5.5-2.8,18-20.5,21L131,25.9z M150.3,3.6c0,1,0.8,1.9,1.9,1.9
		c1.1,0,1.9-0.9,1.9-1.9c0-1.1-0.8-1.9-1.9-1.9C151.2,1.7,150.3,2.5,150.3,3.6z"/>
	<path class="st0" d="M180.3,9.9c-1.5,13.4-9.3,16.8-20,17.9l-0.5-1.9c8.9-0.9,16.7-3.1,18.5-14.3h-22.8V9.9H180.3z M178.5,2.4v1.8
		h-20.7V2.4H178.5z"/>
	<path class="st0" d="M191.6,9.7c-2.7-1.9-6.8-3.6-9.7-4.5l1-1.7c2.3,0.7,6.5,2.3,9.8,4.4L191.6,9.7z M182.3,25
		c9.2-0.3,19.1-5,23.7-19.1l1.8,0.7c-1.1,3.2-3.6,9.9-9.8,14.8c-4.3,3.4-9.6,5.4-15.1,5.7L182.3,25z"/>
</g>
</svg>
