<?xml version="1.0" encoding="UTF-8" standalone="no"?>
<!DOCTYPE svg PUBLIC "-//W3C//DTD SVG 1.1//EN" "http://www.w3.org/Graphics/SVG/1.1/DTD/svg11.dtd">
<svg version="1.1" xmlns="http://www.w3.org/2000/svg" xmlns:xlink="http://www.w3.org/1999/xlink" preserveAspectRatio="xMidYMid meet" viewBox="0 0 640 640" width="640" height="640"><defs><path d="M21.13 291.42L21.62 291.44L22.12 291.48L22.6 291.53L23.09 291.59L23.57 291.66L24.04 291.74L24.52 291.83L24.98 291.93L25.45 292.04L25.9 292.16L26.36 292.3L26.81 292.44L27.25 292.6L27.69 292.76L28.13 292.94L28.56 293.12L28.98 293.32L29.4 293.53L29.82 293.75L30.23 293.98L30.64 294.22L31.04 294.47L31.44 294.73L31.83 295.01L32.21 295.29L32.6 295.58L32.97 295.89L33.34 296.2L33.71 296.53L34.07 296.86L34.42 297.21L34.77 297.57L35.11 297.93L35.44 298.29L35.76 298.66L36.07 299.04L36.37 299.42L36.66 299.81L36.94 300.2L37.21 300.6L37.47 301L37.72 301.41L37.96 301.82L38.19 302.23L38.41 302.65L38.62 303.08L38.81 303.51L39 303.95L39.18 304.39L39.34 304.83L39.5 305.28L39.64 305.73L39.78 306.19L39.9 306.65L40.01 307.12L40.11 307.59L40.19 308.07L40.27 308.55L40.34 309.03L40.39 309.52L40.43 310.01L40.46 310.51L40.48 311.01L40.48 311.52L40.48 330.91L40.37 331.53L40.24 332.15L40.12 332.75L39.99 333.34L39.85 333.92L39.72 334.48L39.57 335.04L39.43 335.58L39.28 336.11L39.13 336.63L38.98 337.13L38.82 337.62L38.66 338.11L38.49 338.58L38.32 339.03L38.15 339.48L37.97 339.91L37.79 340.33L37.61 340.74L37.42 341.14L37.23 341.53L37.04 341.9L36.84 342.26L36.64 342.61L36.43 342.95L36.22 343.27L36.01 343.59L35.8 343.89L35.58 344.18L35.36 344.45L35.13 344.72L34.9 344.97L34.67 345.21L34.31 345.56L33.95 345.9L33.58 346.23L33.21 346.55L32.84 346.86L32.46 347.16L32.07 347.45L31.68 347.73L31.28 348L30.88 348.26L30.47 348.51L30.06 348.75L29.65 348.98L29.22 349.2L28.8 349.4L28.37 349.6L27.93 349.79L27.49 349.97L27.05 350.13L26.6 350.29L26.15 350.43L25.69 350.56L25.23 350.69L24.76 350.8L24.29 350.89L23.81 350.98L23.33 351.06L22.85 351.12L22.36 351.18L21.87 351.22L21.37 351.25L20.87 351.27L20.36 351.27L19.86 351.27L19.36 351.25L18.86 351.22L18.37 351.19L17.88 351.14L17.4 351.08L16.92 351.01L16.44 350.93L15.97 350.84L15.5 350.74L15.04 350.63L14.58 350.5L14.13 350.37L13.68 350.23L13.23 350.07L12.79 349.91L12.36 349.73L11.93 349.54L11.5 349.34L11.08 349.14L10.67 348.92L10.25 348.69L9.85 348.45L9.45 348.2L9.05 347.93L8.66 347.66L8.27 347.38L7.89 347.08L7.51 346.78L7.14 346.46L6.78 346.14L6.42 345.8L6.06 345.45L5.71 345.1L5.37 344.74L5.05 344.37L4.73 344L4.42 343.63L4.12 343.24L3.83 342.86L3.55 342.47L3.28 342.07L3.02 341.67L2.77 341.26L2.53 340.85L2.3 340.43L2.08 340.01L1.87 339.59L1.67 339.16L1.48 338.72L1.31 338.28L1.14 337.84L0.99 337.39L0.84 336.93L0.71 336.48L0.59 336.01L0.48 335.55L0.38 335.07L0.29 334.6L0.21 334.12L0.15 333.64L0.1 333.15L0.05 332.65L0.02 332.16L0.01 331.66L0 331.15L0 311.52L0.01 311.01L0.02 310.51L0.05 310.01L0.09 309.52L0.13 309.03L0.19 308.55L0.26 308.07L0.34 307.59L0.43 307.12L0.53 306.65L0.65 306.19L0.77 305.73L0.9 305.28L1.05 304.83L1.2 304.39L1.37 303.95L1.54 303.51L1.73 303.08L1.93 302.65L2.14 302.23L2.36 301.82L2.59 301.41L2.83 301L3.08 300.6L3.34 300.2L3.61 299.81L3.89 299.42L4.19 299.04L4.49 298.66L4.81 298.29L5.13 297.93L5.47 297.57L5.82 297.21L6.17 296.86L6.53 296.53L6.9 296.2L7.27 295.89L7.65 295.58L8.03 295.29L8.42 295.01L8.81 294.73L9.2 294.47L9.6 294.22L10.01 293.98L10.42 293.75L10.84 293.53L11.26 293.32L11.69 293.12L12.12 292.94L12.55 292.76L12.99 292.6L13.44 292.44L13.89 292.3L14.34 292.16L14.8 292.04L15.26 291.93L15.73 291.83L16.2 291.74L16.67 291.66L17.15 291.59L17.64 291.53L18.13 291.48L18.62 291.44L19.12 291.42L19.62 291.4L20.12 291.39L20.63 291.4L21.13 291.42ZM19.39 294.81L18.91 294.85L18.43 294.89L17.96 294.95L17.5 295.02L17.04 295.1L16.59 295.2L16.14 295.31L15.7 295.43L15.26 295.56L14.82 295.7L14.39 295.86L13.97 296.03L13.55 296.21L13.13 296.4L12.72 296.61L12.32 296.83L11.92 297.06L11.52 297.3L11.13 297.55L10.74 297.81L10.35 298.09L9.97 298.38L9.59 298.67L9.22 298.98L8.85 299.3L8.48 299.64L8.15 299.98L7.83 300.33L7.52 300.68L7.22 301.04L6.94 301.41L6.66 301.79L6.4 302.17L6.15 302.56L5.9 302.96L5.68 303.36L5.46 303.77L5.25 304.18L5.06 304.6L4.88 305.03L4.71 305.46L4.55 305.9L4.41 306.34L4.27 306.79L4.15 307.24L4.05 307.7L3.95 308.16L3.87 308.63L3.8 309.1L3.74 309.57L3.69 310.05L3.66 310.54L3.64 311.02L3.64 311.52L3.64 331.15L3.64 331.64L3.66 332.13L3.69 332.61L3.74 333.08L3.8 333.55L3.87 334.01L3.95 334.47L4.05 334.93L4.15 335.38L4.27 335.82L4.41 336.26L4.55 336.69L4.71 337.12L4.88 337.55L5.06 337.97L5.25 338.38L5.46 338.79L5.68 339.2L5.9 339.6L6.15 340L6.4 340.39L6.66 340.78L6.94 341.16L7.22 341.55L7.52 341.92L7.83 342.3L8.15 342.66L8.48 343.03L8.83 343.39L9.17 343.73L9.53 344.06L9.89 344.37L10.26 344.67L10.64 344.95L11.02 345.22L11.41 345.48L11.81 345.72L12.21 345.95L12.62 346.16L13.03 346.36L13.45 346.55L13.88 346.73L14.31 346.89L14.75 347.04L15.19 347.18L15.64 347.3L16.09 347.41L16.55 347.51L17.01 347.6L17.47 347.67L17.95 347.74L18.42 347.79L18.9 347.83L19.38 347.86L19.87 347.87L20.36 347.88L20.85 347.87L21.34 347.85L21.82 347.82L22.29 347.78L22.76 347.72L23.23 347.65L23.69 347.56L24.14 347.47L24.59 347.36L25.03 347.24L25.47 347.11L25.9 346.96L26.33 346.81L26.76 346.64L27.18 346.46L27.59 346.26L28 346.06L28.41 345.84L28.81 345.61L29.21 345.37L29.6 345.12L29.99 344.85L30.38 344.58L30.76 344.29L31.13 343.99L31.51 343.68L31.88 343.36L32.24 343.03L32.57 342.69L32.9 342.34L33.21 341.98L33.5 341.62L33.79 341.25L34.07 340.88L34.33 340.49L34.58 340.1L34.82 339.71L35.05 339.3L35.27 338.9L35.47 338.48L35.67 338.06L35.85 337.64L36.02 337.21L36.17 336.77L36.32 336.33L36.45 335.88L36.57 335.43L36.68 334.97L36.78 334.51L36.86 334.04L36.93 333.57L36.99 333.09L37.03 332.61L37.07 332.13L37.08 331.64L37.09 331.15L37.09 311.52L36.97 310.92L36.84 310.33L36.71 309.76L36.58 309.19L36.44 308.65L36.3 308.11L36.15 307.59L36 307.08L35.85 306.59L35.69 306.1L35.53 305.63L35.37 305.18L35.2 304.73L35.03 304.3L34.86 303.89L34.68 303.48L34.49 303.09L34.31 302.71L34.12 302.34L33.92 301.99L33.73 301.65L33.53 301.32L33.32 301.01L33.11 300.71L32.9 300.42L32.69 300.15L32.47 299.89L32.24 299.64L31.88 299.3L31.51 298.98L31.13 298.67L30.76 298.38L30.38 298.09L29.99 297.81L29.6 297.55L29.21 297.3L28.81 297.06L28.41 296.83L28 296.61L27.59 296.4L27.18 296.21L26.76 296.03L26.33 295.86L25.9 295.7L25.47 295.56L25.03 295.43L24.59 295.31L24.14 295.2L23.69 295.1L23.23 295.02L22.76 294.95L22.29 294.89L21.82 294.85L21.34 294.81L20.85 294.79L20.36 294.79L19.87 294.79L19.39 294.81Z" id="g2CV1PG4cf"></path><path d="M221.04 316.85C221.04 314.81 221.04 313.68 221.04 313.45C223.22 313.45 225.16 313.21 226.61 312.48C228.07 311.76 229.77 310.79 231.46 308.85C233.16 306.91 233.89 304.97 233.89 302.3C233.89 299.88 232.92 297.7 231.22 296C229.52 294.3 227.34 293.33 224.67 293.33C222.25 293.33 220.07 294.3 218.37 296C217.4 296.97 216.67 298.18 216.19 299.39C215.87 299.27 213.35 298.3 213.04 298.18C213.52 296.48 214.49 295.03 215.95 293.58C218.37 291.15 221.28 289.94 224.92 289.94C228.31 289.94 231.46 291.15 233.89 293.58C236.31 296 237.52 298.91 237.52 302.3C237.52 305.7 236.55 308.61 234.86 310.55C232.92 312.48 231.22 313.94 229.52 314.67C233.16 315.88 236.07 317.58 238.25 320.24C241.64 323.88 243.34 328 243.34 332.85C243.34 337.7 241.64 341.82 238.25 345.21C234.86 348.61 230.74 350.3 225.89 350.55C221.04 350.55 216.92 348.85 213.52 345.45C210.86 342.79 209.16 339.39 208.43 335.76C208.77 335.64 211.49 334.67 211.83 334.55C212.07 337.7 213.52 340.61 215.95 343.03C218.86 345.7 222.01 347.15 225.89 347.15C229.77 347.15 233.16 345.7 235.83 343.03C238.49 340.36 239.95 336.97 239.95 333.09C239.95 329.21 238.49 325.82 235.83 322.91C233.16 320 229.04 317.82 223.7 316.85C223.35 316.85 222.46 316.85 221.04 316.85Z" id="bbYR30pF8"></path><path d="M182.62 322.18L182.62 329.7L157.89 329.7L157.89 322.18L182.62 322.18Z" id="eqJZFoJj4"></path><path d="M318.75 290.6L319.18 290.62L319.61 290.65L320.03 290.69L320.45 290.73L320.87 290.79L321.29 290.85L321.7 290.92L322.11 291L322.51 291.08L322.91 291.18L323.31 291.28L323.71 291.39L324.1 291.51L324.49 291.63L324.87 291.77L325.26 291.91L325.63 292.06L326.01 292.22L326.38 292.39L326.75 292.57L327.11 292.75L327.48 292.94L327.83 293.14L328.19 293.35L328.54 293.56L328.89 293.79L329.23 294.02L329.57 294.26L329.9 294.51L330.24 294.77L330.56 295.03L330.89 295.3L331.21 295.58L331.53 295.87L331.84 296.17L332.15 296.47L332.45 296.78L332.74 297.08L333.02 297.39L333.3 297.7L333.56 298.02L333.82 298.33L334.08 298.65L334.32 298.97L334.56 299.3L334.78 299.62L335 299.95L335.22 300.29L335.42 300.62L335.62 300.96L335.81 301.3L335.99 301.64L336.17 301.99L336.33 302.34L336.49 302.69L336.65 303.05L336.79 303.41L336.93 303.77L337.06 304.14L337.18 304.51L337.3 304.88L337.41 305.26L337.51 305.64L337.6 306.02L337.69 306.41L337.77 306.8L337.84 307.19L337.9 307.59L337.96 308L338.01 308.4L338.05 308.81L338.09 309.23L338.12 309.65L338.36 309.64L338.35 310.33L338.33 311.01L338.31 311.68L338.27 312.34L338.23 313L338.18 313.65L338.13 314.3L338.07 314.94L338 315.57L337.92 316.19L337.84 316.81L337.74 317.42L337.64 318.03L337.54 318.62L337.42 319.21L337.3 319.8L337.17 320.38L337.03 320.95L336.89 321.52L336.74 322.07L336.58 322.63L336.41 323.17L336.23 323.71L336.05 324.25L335.86 324.77L335.66 325.3L335.45 325.81L335.24 326.32L335.01 326.82L334.78 327.32L334.54 327.81L334.3 328.29L334.04 328.77L333.78 329.24L333.51 329.71L333.23 330.17L332.94 330.62L332.65 331.07L332.35 331.52L332.04 331.96L331.73 332.41L331.42 332.87L331.1 333.32L330.78 333.78L330.46 334.24L330.13 334.7L329.8 335.16L329.46 335.62L329.12 336.09L328.77 336.55L328.42 337.02L328.07 337.49L327.71 337.97L327.35 338.44L326.99 338.92L326.62 339.39L326.24 339.87L325.87 340.35L325.49 340.84L325.1 341.32L324.71 341.8L324.32 342.29L323.92 342.78L323.52 343.27L323.12 343.76L322.71 344.25L322.29 344.74L321.88 345.24L321.46 345.74L321.03 346.23L320.6 346.73L320.17 347.23L319.73 347.73L319.29 348.24L318.84 348.74L318.4 349.24L318.38 349.28L318.36 349.32L318.34 349.35L318.31 349.39L318.29 349.42L318.27 349.46L318.24 349.49L318.22 349.52L318.19 349.56L318.17 349.59L318.14 349.62L318.12 349.65L318.09 349.68L318.06 349.71L318.03 349.74L318.01 349.77L317.98 349.8L317.95 349.83L317.89 349.89L317.86 349.92L317.84 349.94L317.81 349.97L317.78 350L317.75 350.03L317.73 350.06L317.7 350.09L317.67 350.13L317.65 350.16L317.62 350.19L317.6 350.22L317.57 350.26L317.55 350.29L317.53 350.32L317.51 350.36L317.48 350.4L317.46 350.43L317.45 350.47L312.84 350.55L312.88 350.49L312.92 350.43L312.95 350.38L312.99 350.32L313.03 350.27L313.06 350.21L313.1 350.16L313.14 350.11L313.18 350.06L313.21 350.01L313.25 349.96L313.29 349.91L313.33 349.86L313.36 349.81L313.4 349.76L313.44 349.71L313.48 349.66L313.51 349.61L313.59 349.52L313.63 349.47L313.66 349.42L313.7 349.37L313.74 349.32L313.78 349.27L313.81 349.22L313.85 349.17L313.89 349.12L313.93 349.07L313.96 349.02L314 348.97L314.04 348.91L314.08 348.86L314.11 348.81L314.15 348.75L314.19 348.7L314.23 348.64L314.26 348.58L314.77 348L315.27 347.43L315.76 346.85L316.24 346.29L316.73 345.72L317.2 345.16L317.67 344.61L318.13 344.06L318.59 343.51L319.04 342.96L319.48 342.43L319.92 341.89L320.35 341.36L320.78 340.83L321.2 340.31L321.62 339.79L322.02 339.28L322.43 338.77L322.82 338.26L323.22 337.76L323.6 337.26L323.98 336.77L324.35 336.28L324.72 335.79L325.08 335.31L325.43 334.83L325.78 334.36L326.13 333.89L326.46 333.43L326.79 332.97L327.12 332.51L327.44 332.06L327.75 331.61L328.06 331.16L328.36 330.72L328.66 330.29L328.94 329.86L329.23 329.43L329.3 329.35L329.38 329.27L329.45 329.19L329.52 329.11L329.59 329.03L329.66 328.95L329.73 328.86L329.8 328.78L329.86 328.69L329.93 328.61L329.99 328.52L330.06 328.43L330.12 328.34L330.18 328.25L330.24 328.17L330.3 328.08L330.36 327.98L330.42 327.89L330.47 327.8L330.53 327.71L330.58 327.62L330.64 327.52L330.69 327.43L330.74 327.34L330.79 327.24L330.84 327.15L330.89 327.05L330.94 326.96L330.98 326.86L331.03 326.77L331.07 326.67L331.12 326.58L331.16 326.48L331.2 326.38L331.24 326.29L331.28 326.19L331.32 326.1L331.35 326L331.07 326.25L330.78 326.49L330.49 326.73L330.2 326.97L329.9 327.19L329.6 327.41L329.3 327.63L328.99 327.83L328.68 328.03L328.37 328.23L328.05 328.42L327.73 328.6L327.41 328.78L327.09 328.95L326.76 329.11L326.43 329.27L326.09 329.42L325.75 329.56L325.41 329.7L325.07 329.83L324.72 329.96L324.37 330.08L324.02 330.19L323.66 330.29L323.3 330.39L322.94 330.49L322.57 330.57L322.21 330.65L321.83 330.72L321.46 330.79L321.08 330.84L320.7 330.9L320.31 330.94L319.93 330.98L319.53 331.01L319.14 331.03L318.74 331.05L318.34 331.06L317.9 331.06L317.47 331.06L317.04 331.04L316.61 331.02L316.18 330.99L315.76 330.96L315.33 330.91L314.92 330.86L314.5 330.8L314.09 330.73L313.68 330.65L313.28 330.56L312.88 330.47L312.48 330.37L312.08 330.25L311.69 330.14L311.3 330.01L310.92 329.87L310.53 329.73L310.15 329.58L309.78 329.42L309.41 329.25L309.04 329.08L308.67 328.9L308.31 328.7L307.95 328.5L307.6 328.3L307.25 328.08L306.9 327.86L306.56 327.62L306.22 327.38L305.88 327.14L305.55 326.88L305.22 326.61L304.9 326.34L304.58 326.06L304.26 325.77L303.95 325.47L303.64 325.17L303.34 324.86L303.05 324.55L302.76 324.24L302.48 323.92L302.21 323.59L301.94 323.27L301.69 322.93L301.44 322.6L301.19 322.26L300.96 321.92L300.73 321.57L300.51 321.22L300.3 320.86L300.1 320.5L299.9 320.14L299.71 319.78L299.53 319.41L299.36 319.03L299.19 318.66L299.04 318.27L298.89 317.89L298.75 317.5L298.62 317.11L298.49 316.72L298.38 316.32L298.27 315.92L298.17 315.51L298.08 315.1L298 314.69L297.92 314.27L297.86 313.85L297.8 313.43L297.76 313.01L297.72 312.58L297.69 312.15L297.67 311.71L297.66 311.27L297.65 310.83L297.66 310.4L297.67 309.96L297.69 309.53L297.72 309.11L297.76 308.68L297.81 308.26L297.86 307.84L297.92 307.43L297.99 307.02L298.07 306.61L298.15 306.21L298.25 305.8L298.35 305.4L298.46 305.01L298.58 304.62L298.71 304.23L298.84 303.84L298.98 303.46L299.14 303.08L299.29 302.71L299.46 302.33L299.64 301.97L299.82 301.6L300.01 301.24L300.21 300.88L300.42 300.53L300.64 300.18L300.86 299.83L301.09 299.49L301.33 299.15L301.58 298.81L301.84 298.48L302.1 298.15L302.37 297.83L302.66 297.51L302.94 297.19L303.24 296.88L303.55 296.57L303.85 296.27L304.16 295.97L304.48 295.69L304.8 295.41L305.12 295.14L305.45 294.87L305.78 294.61L306.12 294.36L306.46 294.12L306.8 293.89L307.15 293.66L307.5 293.44L307.85 293.23L308.21 293.02L308.57 292.83L308.94 292.64L309.31 292.46L309.68 292.29L310.06 292.12L310.44 291.96L310.83 291.82L311.21 291.68L311.61 291.54L312 291.42L312.4 291.3L312.8 291.2L313.21 291.1L313.62 291.01L314.03 290.93L314.44 290.85L314.86 290.79L315.28 290.73L315.71 290.68L316.14 290.65L316.57 290.62L317.01 290.6L317.45 290.58L317.88 290.58L318.32 290.59L318.75 290.6ZM316.45 294.04L315.81 294.11L315.19 294.2L314.58 294.31L313.97 294.44L313.38 294.6L312.79 294.78L312.22 294.98L311.65 295.2L311.09 295.44L310.54 295.71L310 295.99L309.46 296.3L308.94 296.63L308.42 296.97L307.91 297.34L307.41 297.73L306.91 298.14L306.42 298.57L305.94 299.01L305.51 299.48L305.1 299.95L304.71 300.44L304.33 300.94L303.98 301.46L303.65 301.98L303.34 302.51L303.05 303.06L302.79 303.61L302.54 304.18L302.32 304.75L302.11 305.34L301.93 305.93L301.77 306.53L301.64 307.15L301.52 307.76L301.43 308.39L301.36 309.03L301.31 309.67L301.29 310.32L301.29 310.97L301.31 311.62L301.36 312.27L301.42 312.9L301.51 313.52L301.63 314.13L301.76 314.74L301.92 315.33L302.09 315.92L302.29 316.49L302.52 317.06L302.76 317.62L303.02 318.17L303.31 318.71L303.61 319.25L303.94 319.77L304.29 320.29L304.66 320.8L305.04 321.3L305.45 321.8L305.88 322.29L306.33 322.77L306.82 323.2L307.33 323.61L307.83 324.01L308.35 324.38L308.87 324.73L309.4 325.06L309.94 325.37L310.48 325.66L311.03 325.92L311.59 326.17L312.16 326.39L312.73 326.6L313.31 326.78L313.9 326.94L314.5 327.08L315.11 327.19L315.73 327.28L316.35 327.35L316.99 327.4L317.63 327.42L318.28 327.42L318.94 327.43L319.59 327.42L320.23 327.38L320.86 327.31L321.48 327.22L322.1 327.1L322.7 326.96L323.3 326.79L323.89 326.6L324.47 326.38L325.03 326.13L325.59 325.87L326.14 325.57L326.67 325.26L327.2 324.92L327.71 324.55L328.21 324.17L328.7 323.76L329.17 323.32L329.63 322.86L330.08 322.38L330.52 321.89L330.93 321.39L331.32 320.88L331.69 320.36L332.04 319.84L332.37 319.31L332.68 318.78L332.97 318.23L333.24 317.68L333.48 317.12L333.71 316.56L333.91 315.98L334.09 315.4L334.25 314.81L334.39 314.21L334.5 313.6L334.6 312.98L334.67 312.36L334.71 311.72L334.74 311.08L334.74 310.43L334.72 309.77L334.67 309.13L334.6 308.5L334.51 307.88L334.4 307.26L334.27 306.66L334.11 306.06L333.93 305.48L333.73 304.9L333.51 304.34L333.27 303.78L333 303.23L332.72 302.68L332.41 302.15L332.09 301.62L331.74 301.11L331.37 300.6L330.98 300.09L330.57 299.6L330.15 299.11L329.7 298.63L329.2 298.2L328.7 297.78L328.19 297.39L327.68 297.02L327.16 296.67L326.63 296.34L326.09 296.03L325.55 295.74L325 295.47L324.44 295.23L323.87 295L323.3 294.8L322.71 294.62L322.12 294.46L321.52 294.32L320.92 294.21L320.3 294.12L319.67 294.05L319.04 294L318.4 293.97L317.74 293.97L317.09 294L316.45 294.04Z" id="gPXX5cZ4v"></path><path d="M464.71 314.42C464.71 312.39 464.71 311.26 464.71 311.03C466.89 311.03 468.83 310.79 470.29 310.06C471.74 309.58 473.44 308.36 475.14 306.42C476.83 304.48 477.56 302.55 477.56 299.88C477.56 297.45 476.59 295.27 474.89 293.58C473.2 291.88 471.01 290.91 468.35 290.91C465.92 290.91 463.74 291.88 462.04 293.58C461.08 294.55 460.35 295.76 459.86 296.97C459.55 296.85 457.03 295.88 456.71 295.76C457.2 294.06 458.17 292.61 459.62 291.15C462.04 288.73 464.95 287.52 468.59 287.52C471.98 287.52 475.14 288.73 477.56 291.15C479.98 293.58 481.2 296.48 481.2 299.88C481.2 303.27 480.23 306.18 478.53 308.12C476.59 310.06 474.89 311.52 473.2 312.24C476.83 313.45 479.74 315.15 481.92 317.82C485.32 321.45 487.01 325.58 487.01 330.42C487.01 335.27 485.32 339.39 481.92 342.79C478.53 346.18 474.41 347.88 469.56 348.12C464.71 348.12 460.59 346.42 457.2 343.03C454.53 340.36 452.83 336.97 452.11 333.33C452.44 333.21 455.16 332.24 455.5 332.12C455.74 335.27 457.2 338.18 459.62 340.61C462.53 343.27 465.68 344.73 469.56 344.73C473.44 344.73 476.83 343.27 479.5 340.61C482.17 337.94 483.62 334.55 483.62 330.67C483.62 326.79 482.17 323.39 479.5 320.48C476.83 317.33 472.71 315.39 467.38 314.42C467.02 314.42 466.13 314.42 464.71 314.42Z" id="ap4qFo528"></path><path d="M377.85 290.78L377.81 290.83L377.77 290.89L377.73 290.94L377.7 290.99L377.66 291.05L377.62 291.1L377.58 291.15L377.54 291.2L377.51 291.25L377.47 291.3L377.43 291.35L377.39 291.4L377.35 291.44L377.31 291.49L377.28 291.54L377.24 291.59L377.16 291.68L377.12 291.73L377.08 291.78L377.05 291.83L377.01 291.88L376.97 291.93L376.93 291.97L376.89 292.02L376.85 292.07L376.82 292.12L376.78 292.17L376.74 292.23L376.7 292.28L376.66 292.33L376.62 292.38L376.59 292.44L376.55 292.49L376.51 292.55L376.47 292.61L375.96 293.18L375.45 293.75L374.95 294.31L374.45 294.87L373.96 295.43L373.48 295.98L373 296.53L372.53 297.07L372.07 297.61L371.61 298.15L371.15 298.68L370.71 299.21L370.26 299.73L369.83 300.25L369.4 300.77L368.98 301.28L368.56 301.78L368.15 302.29L367.74 302.79L367.35 303.28L366.95 303.78L366.57 304.26L366.19 304.75L365.81 305.23L365.44 305.7L365.08 306.17L364.72 306.64L364.37 307.1L364.03 307.56L363.69 308.02L363.36 308.47L363.03 308.92L362.71 309.36L362.4 309.8L362.09 310.23L361.79 310.66L361.49 311.09L361.2 311.52L361.14 311.57L361.08 311.63L361.03 311.7L360.97 311.76L360.91 311.83L360.85 311.89L360.8 311.96L360.74 312.04L360.68 312.11L360.62 312.19L360.57 312.26L360.51 312.34L360.45 312.42L360.4 312.5L360.34 312.59L360.28 312.67L360.22 312.76L360.17 312.85L360.11 312.94L360.05 313.03L359.99 313.12L359.94 313.22L359.88 313.31L359.82 313.41L359.76 313.51L359.71 313.61L359.65 313.71L359.59 313.82L359.53 313.92L359.48 314.02L359.42 314.13L359.36 314.24L359.3 314.35L359.25 314.46L359.19 314.57L359.13 314.68L359.07 314.79L359.02 314.91L359.31 314.66L359.6 314.42L359.89 314.19L360.19 313.96L360.49 313.74L360.79 313.53L361.1 313.32L361.41 313.11L361.72 312.92L362.04 312.73L362.36 312.54L362.68 312.37L363 312.2L363.33 312.03L363.66 311.87L364 311.72L364.33 311.57L364.67 311.44L365.02 311.3L365.36 311.18L365.71 311.06L366.06 310.95L366.42 310.84L366.78 310.74L367.14 310.65L367.5 310.56L367.87 310.48L368.24 310.41L368.61 310.34L368.99 310.28L369.37 310.23L369.75 310.19L370.14 310.15L370.52 310.12L370.92 310.09L371.31 310.07L371.71 310.06L372.11 310.06L372.55 310.06L372.98 310.08L373.41 310.1L373.84 310.13L374.27 310.16L374.69 310.21L375.11 310.26L375.53 310.32L375.94 310.39L376.35 310.46L376.76 310.55L377.17 310.64L377.57 310.74L377.96 310.85L378.36 310.97L378.75 311.09L379.13 311.23L379.52 311.37L379.9 311.52L380.27 311.67L380.64 311.84L381.01 312.01L381.38 312.19L381.74 312.38L382.1 312.58L382.45 312.78L382.8 313L383.15 313.22L383.5 313.45L383.83 313.69L384.17 313.93L384.5 314.19L384.83 314.45L385.15 314.72L385.47 315L385.79 315.28L386.1 315.58L386.41 315.88L386.71 316.19L387.01 316.5L387.3 316.82L387.58 317.14L387.85 317.46L388.12 317.79L388.38 318.12L388.63 318.46L388.88 318.79L389.11 319.14L389.34 319.49L389.56 319.84L389.78 320.19L389.98 320.55L390.18 320.91L390.37 321.28L390.55 321.65L390.73 322.02L390.9 322.39L391.05 322.77L391.21 323.16L391.35 323.54L391.48 323.93L391.61 324.33L391.73 324.72L391.83 325.12L391.93 325.53L392.03 325.94L392.11 326.35L392.19 326.76L392.25 327.18L392.31 327.6L392.36 328.02L392.4 328.45L392.43 328.87L392.45 329.31L392.47 329.74L392.47 330.18L392.47 330.62L392.46 331.06L392.44 331.49L392.41 331.92L392.37 332.34L392.33 332.77L392.27 333.19L392.21 333.6L392.15 334.02L392.07 334.43L391.98 334.84L391.89 335.24L391.79 335.64L391.68 336.04L391.57 336.43L391.44 336.82L391.31 337.21L391.17 337.59L391.02 337.97L390.86 338.35L390.69 338.72L390.52 339.09L390.34 339.45L390.15 339.82L389.95 340.17L389.75 340.53L389.53 340.88L389.31 341.23L389.08 341.57L388.85 341.91L388.6 342.24L388.35 342.58L388.08 342.9L387.81 343.23L387.54 343.55L387.25 343.86L386.96 344.18L386.65 344.48L386.35 344.79L386.03 345.08L385.72 345.37L385.4 345.65L385.07 345.93L384.74 346.19L384.41 346.45L384.08 346.7L383.74 346.95L383.39 347.19L383.05 347.41L382.7 347.64L382.34 347.85L381.98 348.06L381.62 348.26L381.26 348.45L380.89 348.63L380.51 348.8L380.14 348.97L379.76 349.13L379.38 349.28L378.99 349.42L378.6 349.56L378.2 349.68L377.81 349.8L377.41 349.91L377 350.01L376.6 350.1L376.19 350.18L375.77 350.26L375.36 350.33L374.94 350.38L374.51 350.43L374.09 350.47L373.66 350.5L373.22 350.53L372.79 350.54L372.35 350.55L371.91 350.54L371.48 350.53L371.04 350.51L370.61 350.48L370.19 350.44L369.76 350.4L369.34 350.35L368.93 350.29L368.51 350.22L368.1 350.14L367.7 350.06L367.29 349.97L366.89 349.86L366.5 349.76L366.1 349.64L365.71 349.51L365.33 349.38L364.94 349.24L364.56 349.09L364.19 348.93L363.81 348.77L363.44 348.6L363.08 348.41L362.72 348.22L362.36 348.03L362 347.82L361.65 347.61L361.31 347.39L360.96 347.16L360.62 346.92L360.29 346.67L359.96 346.42L359.63 346.16L359.3 345.89L358.98 345.61L358.67 345.32L358.36 345.03L358.05 344.73L357.75 344.42L357.45 344.11L357.16 343.8L356.89 343.49L356.62 343.17L356.35 342.85L356.1 342.53L355.85 342.21L355.61 341.88L355.38 341.56L355.16 341.23L354.95 340.89L354.74 340.56L354.54 340.22L354.35 339.88L354.16 339.53L353.98 339.19L353.82 338.84L353.65 338.48L353.5 338.13L353.35 337.77L353.21 337.41L353.08 337.04L352.96 336.68L352.84 336.3L352.73 335.93L352.63 335.55L352.54 335.17L352.45 334.78L352.37 334.4L352.3 334L352.23 333.61L352.17 333.21L352.12 332.8L352.08 332.4L352.04 331.99L352.01 331.57L351.99 331.15L351.74 331.15L351.77 330.47L351.8 329.79L351.83 329.12L351.88 328.45L351.93 327.79L351.99 327.14L352.05 326.5L352.13 325.86L352.21 325.23L352.29 324.61L352.39 323.99L352.49 323.38L352.6 322.78L352.72 322.18L352.84 321.59L352.97 321.01L353.11 320.44L353.26 319.87L353.41 319.3L353.57 318.75L353.74 318.2L353.92 317.65L354.1 317.12L354.3 316.59L354.5 316.06L354.7 315.54L354.92 315.03L355.14 314.53L355.37 314.03L355.61 313.54L355.86 313.05L356.11 312.57L356.37 312.1L356.64 311.63L356.92 311.17L357.21 310.71L357.5 310.26L357.81 309.82L358.11 309.38L358.43 308.93L358.74 308.49L359.06 308.04L359.39 307.59L359.71 307.14L360.05 306.69L360.38 306.23L360.72 305.78L361.07 305.32L361.42 304.86L361.77 304.4L362.13 303.94L362.49 303.47L362.85 303L363.22 302.54L363.59 302.07L363.97 301.59L364.35 301.12L364.74 300.65L365.12 300.17L365.52 299.69L365.91 299.21L366.31 298.73L366.72 298.25L367.13 297.77L367.54 297.29L367.96 296.8L368.38 296.31L368.8 295.83L369.23 295.34L369.67 294.85L370.1 294.35L370.55 293.86L370.99 293.37L371.44 292.87L371.89 292.38L372.35 291.88L372.37 291.84L372.39 291.8L372.41 291.77L372.43 291.73L372.46 291.7L372.48 291.67L372.51 291.63L372.53 291.6L372.56 291.57L372.58 291.54L372.61 291.51L372.64 291.48L372.66 291.45L372.69 291.42L372.72 291.39L372.75 291.36L372.78 291.33L372.81 291.3L372.86 291.24L372.89 291.22L372.92 291.19L372.95 291.16L372.98 291.13L373.01 291.1L373.03 291.07L373.06 291.04L373.09 291.01L373.11 290.98L373.14 290.95L373.16 290.91L373.19 290.88L373.21 290.85L373.24 290.81L373.26 290.78L373.28 290.74L373.3 290.7L373.32 290.67L377.93 290.67L377.89 290.72L377.85 290.78ZM370.99 313.5L370.33 313.56L369.68 313.64L369.05 313.74L368.43 313.86L367.82 314.01L367.22 314.18L366.63 314.37L366.06 314.58L365.49 314.82L364.94 315.07L364.4 315.35L363.87 315.65L363.36 315.96L362.85 316.3L362.35 316.66L361.87 317.04L361.39 317.44L360.93 317.86L360.47 318.3L360.03 318.79L359.61 319.29L359.21 319.79L358.83 320.3L358.47 320.81L358.13 321.34L357.81 321.87L357.52 322.41L357.24 322.95L356.99 323.51L356.75 324.07L356.54 324.64L356.35 325.22L356.18 325.81L356.03 326.41L355.91 327.01L355.81 327.63L355.73 328.25L355.67 328.89L355.63 329.53L355.62 330.18L355.63 330.83L355.67 331.48L355.73 332.11L355.81 332.74L355.91 333.35L356.03 333.96L356.18 334.55L356.35 335.14L356.54 335.72L356.75 336.29L356.99 336.86L357.24 337.41L357.52 337.96L357.81 338.5L358.13 339.03L358.47 339.55L358.83 340.07L359.21 340.58L359.61 341.08L360.03 341.57L360.47 342.06L360.96 342.5L361.45 342.92L361.96 343.32L362.47 343.7L362.98 344.06L363.51 344.4L364.04 344.72L364.57 345.02L365.12 345.29L365.68 345.55L366.24 345.78L366.81 345.99L367.39 346.18L367.98 346.35L368.57 346.5L369.18 346.62L369.8 346.73L370.42 346.81L371.05 346.86L371.7 346.9L372.35 346.91L373 346.9L373.65 346.86L374.28 346.81L374.91 346.73L375.52 346.62L376.13 346.5L376.72 346.35L377.31 346.18L377.89 345.99L378.46 345.78L379.02 345.55L379.58 345.29L380.13 345.02L380.66 344.72L381.2 344.4L381.72 344.06L382.24 343.7L382.74 343.32L383.25 342.92L383.74 342.5L384.23 342.06L384.67 341.6L385.09 341.13L385.49 340.65L385.87 340.16L386.23 339.65L386.57 339.13L386.89 338.6L387.18 338.06L387.46 337.51L387.72 336.95L387.95 336.38L388.16 335.8L388.35 335.21L388.52 334.61L388.67 334L388.79 333.38L388.89 332.76L388.97 332.12L389.03 331.48L389.07 330.84L389.08 330.18L389.07 329.53L389.03 328.89L388.97 328.25L388.89 327.63L388.79 327.01L388.67 326.41L388.52 325.81L388.35 325.22L388.16 324.64L387.95 324.07L387.72 323.51L387.46 322.95L387.18 322.41L386.89 321.87L386.57 321.34L386.23 320.81L385.87 320.3L385.49 319.79L385.09 319.29L384.67 318.79L384.23 318.3L383.74 317.86L383.25 317.44L382.74 317.04L382.24 316.66L381.72 316.3L381.2 315.96L380.66 315.65L380.13 315.35L379.58 315.07L379.02 314.82L378.46 314.58L377.89 314.37L377.31 314.18L376.72 314.01L376.13 313.86L375.52 313.74L374.91 313.64L374.28 313.56L373.65 313.5L373 313.47L372.35 313.45L371.66 313.47L370.99 313.5Z" id="a37vNMNaTH"></path><path d="M505.58 306.18C507.03 305.94 508.73 305.7 510.18 305.7C512.85 305.7 515.52 306.18 517.94 306.91C523.52 308.85 527.64 312.24 530.3 317.33C532 320.48 532.97 323.64 532.97 327.03C532.97 329.21 532.73 331.15 532 333.33C530.3 338.91 526.91 343.03 521.82 345.7C518.67 347.39 515.52 348.12 512.12 348.12C509.94 348.12 508 347.88 505.82 347.15C501.45 345.94 497.82 343.52 495.39 340.12C495.64 339.85 497.58 337.72 497.82 337.45C500 340.61 502.91 342.79 507.03 343.76C508.73 344.24 510.67 344.48 512.36 344.48C515.03 344.48 517.7 343.76 520.36 342.3C524.48 340.12 527.39 336.48 528.85 331.88C529.33 330.18 529.58 328.24 529.58 326.55C529.58 323.88 528.85 321.21 527.39 318.55C525.21 314.42 521.58 311.52 516.97 309.82C515.03 309.09 512.85 308.85 510.42 308.85C507.27 308.85 503.88 309.58 500 310.79C499.82 310.63 498.93 309.82 497.33 308.36L504.12 289.7L504.12 288.48L522.55 288.48L522.55 291.88L506.79 291.88L501.45 307.39C503.23 306.91 504.61 306.51 505.58 306.18Z" id="b1N90I8Dtu"></path><path d="M433.65 321.33L433.65 328.85L408.93 328.85L408.93 321.33L433.65 321.33Z" id="cmUrG7QRx"></path><path d="M65.05 308.61C66.51 308.36 68.21 308.12 69.66 308.12C72.33 308.12 74.99 308.61 77.42 309.33C82.99 311.27 87.11 314.67 89.78 319.76C91.48 322.91 92.45 326.06 92.45 329.45C92.45 331.64 92.21 333.58 91.48 335.76C89.78 341.33 86.39 345.45 81.3 348.12C78.14 349.82 74.99 350.55 71.6 350.55C69.42 350.55 67.48 350.3 65.3 349.58C60.93 348.36 57.3 345.94 54.87 342.55C55.11 342.28 57.05 340.15 57.3 339.88C59.48 343.03 62.39 345.21 66.51 346.18C68.21 346.67 70.14 346.91 71.84 346.91C74.51 346.91 77.18 346.18 79.84 344.73C83.96 342.55 86.87 338.91 88.33 334.3C88.81 332.61 89.05 330.67 89.05 328.97C89.05 326.3 88.33 323.64 86.87 320.97C84.69 316.85 81.05 313.94 76.45 312.24C74.51 311.52 72.33 311.27 69.9 311.27C66.75 311.27 63.36 312 59.48 313.21C59.3 313.05 58.41 312.24 56.81 310.79L63.6 292.12L63.6 290.91L82.02 290.91L82.02 294.3L66.27 294.3L60.93 309.82C62.71 309.33 64.08 308.93 65.05 308.61Z" id="b4lLQgrGoX"></path><path d="M273.63 350.3L270.24 350.3L270 297.21L266.6 297.21L271.21 291.39L273.39 291.39L273.63 350.3Z" id="c1wLdOCetM"></path><path d="M124.54 289.48L125.03 289.5L125.53 289.54L126.01 289.59L126.5 289.65L126.98 289.72L127.45 289.8L127.93 289.89L128.39 289.99L128.86 290.1L129.31 290.22L129.77 290.36L130.22 290.5L130.66 290.66L131.1 290.82L131.54 291L131.97 291.19L132.39 291.38L132.81 291.59L133.23 291.81L133.64 292.04L134.05 292.28L134.45 292.53L134.85 292.79L135.24 293.07L135.62 293.35L136 293.64L136.38 293.95L136.75 294.26L137.12 294.59L137.48 294.93L137.83 295.27L138.18 295.63L138.52 295.99L138.85 296.35L139.17 296.73L139.48 297.1L139.78 297.48L140.07 297.87L140.35 298.26L140.62 298.66L140.88 299.06L141.13 299.47L141.37 299.88L141.6 300.29L141.82 300.71L142.03 301.14L142.22 301.57L142.41 302.01L142.59 302.45L142.75 302.89L142.91 303.34L143.05 303.79L143.19 304.25L143.31 304.71L143.42 305.18L143.52 305.65L143.6 306.13L143.68 306.61L143.75 307.09L143.8 307.58L143.84 308.07L143.87 308.57L143.89 309.07L143.89 309.58L143.89 329.21L143.78 329.84L143.65 330.45L143.53 331.05L143.4 331.64L143.26 332.22L143.13 332.79L142.98 333.34L142.84 333.88L142.69 334.41L142.54 334.93L142.39 335.43L142.23 335.93L142.07 336.41L141.9 336.88L141.73 337.34L141.56 337.78L141.38 338.22L141.2 338.64L141.02 339.05L140.83 339.44L140.64 339.83L140.45 340.2L140.25 340.56L140.05 340.91L139.84 341.25L139.63 341.58L139.42 341.89L139.21 342.19L138.99 342.48L138.77 342.76L138.54 343.02L138.31 343.27L138.08 343.52L137.72 343.86L137.36 344.2L136.99 344.53L136.62 344.85L136.25 345.16L135.87 345.46L135.48 345.75L135.09 346.03L134.69 346.3L134.29 346.56L133.88 346.81L133.47 347.05L133.06 347.28L132.63 347.5L132.21 347.71L131.78 347.91L131.34 348.09L130.9 348.27L130.46 348.43L130.01 348.59L129.56 348.73L129.1 348.87L128.64 348.99L128.17 349.1L127.7 349.2L127.22 349.29L126.74 349.36L126.26 349.43L125.77 349.48L125.28 349.52L124.78 349.55L124.28 349.57L123.77 349.58L123.27 349.57L122.77 349.55L122.27 349.53L121.78 349.49L121.29 349.44L120.81 349.38L120.33 349.31L119.85 349.23L119.38 349.14L118.91 349.04L118.45 348.93L117.99 348.81L117.54 348.67L117.09 348.53L116.64 348.37L116.2 348.21L115.77 348.03L115.34 347.84L114.91 347.65L114.49 347.44L114.07 347.22L113.66 346.99L113.26 346.75L112.86 346.5L112.46 346.24L112.07 345.96L111.68 345.68L111.3 345.39L110.92 345.08L110.55 344.77L110.19 344.44L109.83 344.1L109.47 343.76L109.12 343.4L108.78 343.04L108.45 342.68L108.14 342.3L107.83 341.93L107.53 341.55L107.24 341.16L106.96 340.77L106.69 340.37L106.43 339.97L106.18 339.56L105.94 339.15L105.71 338.74L105.49 338.32L105.28 337.89L105.08 337.46L104.89 337.02L104.72 336.58L104.55 336.14L104.4 335.69L104.25 335.24L104.12 334.78L104 334.32L103.89 333.85L103.79 333.38L103.7 332.9L103.62 332.42L103.56 331.94L103.51 331.45L103.46 330.96L103.43 330.46L103.42 329.96L103.41 329.45L103.41 309.82L103.42 309.31L103.43 308.81L103.46 308.32L103.5 307.82L103.54 307.33L103.6 306.85L103.67 306.37L103.75 305.89L103.84 305.42L103.94 304.96L104.06 304.49L104.18 304.04L104.31 303.58L104.46 303.13L104.61 302.69L104.78 302.25L104.95 301.81L105.14 301.38L105.34 300.96L105.55 300.54L105.77 300.12L106 299.71L106.24 299.3L106.49 298.9L106.75 298.5L107.02 298.11L107.3 297.73L107.6 297.34L107.9 296.97L108.22 296.6L108.54 296.23L108.88 295.87L109.23 295.52L109.58 295.17L109.94 294.83L110.31 294.5L110.68 294.18L111.06 293.87L111.44 293.57L111.82 293.28L112.22 293L112.61 292.73L113.01 292.47L113.42 292.22L113.83 291.98L114.25 291.75L114.67 291.53L115.1 291.32L115.53 291.13L115.96 290.94L116.4 290.76L116.85 290.6L117.29 290.44L117.75 290.3L118.21 290.16L118.67 290.04L119.14 289.93L119.61 289.83L120.08 289.74L120.56 289.67L121.05 289.6L121.54 289.55L122.03 289.51L122.53 289.48L123.03 289.46L123.53 289.45L124.04 289.46L124.54 289.48ZM122.8 292.87L122.32 292.91L121.84 292.95L121.37 293.01L120.91 293.08L120.45 293.16L120 293.26L119.55 293.37L119.11 293.49L118.67 293.62L118.23 293.76L117.8 293.92L117.38 294.09L116.96 294.27L116.54 294.47L116.13 294.67L115.73 294.89L115.33 295.12L114.93 295.36L114.53 295.61L114.15 295.87L113.76 296.15L113.38 296.44L113 296.73L112.63 297.04L112.26 297.36L111.89 297.7L111.56 298.04L111.24 298.39L110.93 298.74L110.63 299.11L110.35 299.48L110.07 299.85L109.81 300.23L109.56 300.62L109.31 301.02L109.09 301.42L108.87 301.83L108.66 302.25L108.47 302.67L108.29 303.09L108.12 303.52L107.96 303.96L107.82 304.4L107.68 304.85L107.56 305.3L107.46 305.76L107.36 306.22L107.28 306.69L107.21 307.16L107.15 307.63L107.1 308.11L107.07 308.6L107.05 309.08L107.05 309.58L107.05 329.21L107.05 329.7L107.07 330.19L107.1 330.67L107.15 331.14L107.21 331.61L107.28 332.08L107.36 332.53L107.46 332.99L107.56 333.44L107.68 333.88L107.82 334.32L107.96 334.75L108.12 335.18L108.29 335.61L108.47 336.03L108.66 336.44L108.87 336.85L109.09 337.26L109.31 337.66L109.56 338.06L109.81 338.45L110.07 338.84L110.35 339.22L110.63 339.61L110.93 339.98L111.24 340.36L111.56 340.73L111.89 341.09L112.26 341.42L112.63 341.74L113 342.05L113.38 342.35L113.76 342.64L114.15 342.91L114.53 343.18L114.93 343.43L115.33 343.67L115.73 343.9L116.13 344.12L116.54 344.32L116.96 344.52L117.38 344.7L117.8 344.87L118.23 345.02L118.67 345.17L119.11 345.3L119.55 345.42L120 345.53L120.45 345.63L120.91 345.71L121.37 345.78L121.84 345.84L122.32 345.88L122.8 345.91L123.28 345.93L123.77 345.94L124.26 345.93L124.75 345.91L125.23 345.88L125.7 345.84L126.17 345.78L126.64 345.71L127.1 345.62L127.55 345.53L128 345.42L128.44 345.3L128.88 345.17L129.31 345.02L129.74 344.87L130.17 344.7L130.59 344.52L131 344.32L131.41 344.12L131.82 343.9L132.22 343.67L132.62 343.43L133.01 343.18L133.4 342.91L133.79 342.64L134.17 342.35L134.54 342.05L134.92 341.74L135.29 341.42L135.65 341.09L135.98 340.75L136.31 340.4L136.61 340.05L136.91 339.68L137.2 339.31L137.48 338.94L137.74 338.55L137.99 338.16L138.23 337.77L138.46 337.37L138.68 336.96L138.88 336.54L139.08 336.12L139.26 335.7L139.43 335.27L139.58 334.83L139.73 334.39L139.86 333.94L139.98 333.49L140.09 333.03L140.19 332.57L140.27 332.1L140.34 331.63L140.4 331.16L140.44 330.68L140.47 330.19L140.49 329.7L140.5 329.21L140.5 309.58L140.38 308.98L140.25 308.39L140.12 307.82L139.99 307.26L139.85 306.71L139.71 306.17L139.56 305.65L139.41 305.14L139.26 304.65L139.1 304.16L138.94 303.69L138.78 303.24L138.61 302.79L138.44 302.36L138.27 301.95L138.09 301.54L137.9 301.15L137.72 300.77L137.53 300.4L137.33 300.05L137.14 299.71L136.94 299.39L136.73 299.07L136.52 298.77L136.31 298.48L136.09 298.21L135.88 297.95L135.65 297.7L135.29 297.36L134.92 297.04L134.54 296.73L134.17 296.44L133.79 296.15L133.4 295.87L133.01 295.61L132.62 295.36L132.22 295.12L131.82 294.89L131.41 294.67L131 294.47L130.59 294.27L130.17 294.09L129.74 293.92L129.31 293.76L128.88 293.62L128.44 293.49L128 293.37L127.55 293.26L127.1 293.16L126.64 293.08L126.17 293.01L125.7 292.95L125.23 292.91L124.75 292.87L124.26 292.85L123.77 292.85L123.28 292.85L122.8 292.87Z" id="a1mqAVo4Ur"></path><path d="M561.07 287.53L561.5 287.55L561.93 287.58L562.35 287.62L562.77 287.67L563.19 287.72L563.6 287.78L564.01 287.85L564.42 287.93L564.83 288.02L565.23 288.11L565.63 288.21L566.02 288.32L566.42 288.44L566.8 288.57L567.19 288.7L567.57 288.85L567.95 289L568.33 289.16L568.7 289.32L569.07 289.5L569.43 289.68L569.79 289.87L570.15 290.07L570.5 290.28L570.85 290.5L571.2 290.72L571.55 290.95L571.88 291.19L572.22 291.44L572.55 291.7L572.88 291.96L573.21 292.24L573.53 292.52L573.84 292.81L574.16 293.1L574.46 293.41L574.76 293.71L575.05 294.02L575.34 294.33L575.61 294.64L575.88 294.95L576.14 295.27L576.39 295.59L576.64 295.91L576.87 296.23L577.1 296.56L577.32 296.89L577.53 297.22L577.74 297.56L577.94 297.89L578.13 298.23L578.31 298.58L578.48 298.92L578.65 299.27L578.81 299.63L578.96 299.98L579.11 300.34L579.25 300.71L579.38 301.07L579.5 301.44L579.61 301.81L579.72 302.19L579.82 302.57L579.92 302.95L580 303.34L580.08 303.73L580.15 304.13L580.22 304.53L580.28 304.93L580.33 305.34L580.37 305.75L580.41 306.16L580.44 306.58L580.68 306.58L580.67 307.26L580.65 307.94L580.62 308.61L580.59 309.28L580.55 309.94L580.5 310.59L580.45 311.23L580.38 311.87L580.31 312.5L580.24 313.13L580.15 313.74L580.06 314.35L579.96 314.96L579.85 315.56L579.74 316.15L579.62 316.73L579.49 317.31L579.35 317.88L579.2 318.45L579.05 319.01L578.89 319.56L578.72 320.11L578.55 320.65L578.36 321.18L578.17 321.71L577.97 322.23L577.77 322.74L577.55 323.25L577.33 323.76L577.1 324.25L576.86 324.74L576.61 325.23L576.36 325.7L576.1 326.18L575.83 326.64L575.55 327.1L575.26 327.56L574.96 328L574.66 328.45L574.36 328.9L574.05 329.35L573.74 329.8L573.42 330.26L573.1 330.71L572.77 331.17L572.44 331.63L572.11 332.09L571.77 332.55L571.43 333.02L571.09 333.49L570.74 333.96L570.39 334.43L570.03 334.9L569.67 335.37L569.3 335.85L568.93 336.33L568.56 336.81L568.18 337.29L567.8 337.77L567.42 338.25L567.03 338.74L566.64 339.22L566.24 339.71L565.84 340.2L565.43 340.69L565.02 341.19L564.61 341.68L564.19 342.17L563.77 342.67L563.35 343.17L562.92 343.67L562.48 344.17L562.05 344.67L561.61 345.17L561.16 345.67L560.71 346.18L560.69 346.22L560.67 346.25L560.65 346.29L560.63 346.32L560.61 346.36L560.58 346.39L560.56 346.43L560.54 346.46L560.51 346.49L560.48 346.52L560.46 346.55L560.43 346.58L560.4 346.61L560.38 346.64L560.35 346.67L560.32 346.7L560.29 346.73L560.27 346.76L560.21 346.82L560.18 346.85L560.15 346.88L560.12 346.91L560.1 346.94L560.07 346.97L560.04 347L560.02 347.03L559.99 347.06L559.96 347.09L559.94 347.12L559.91 347.16L559.89 347.19L559.87 347.22L559.84 347.26L559.82 347.29L559.8 347.33L559.78 347.37L559.76 347.4L555.16 347.48L555.19 347.42L555.23 347.37L555.27 347.31L555.31 347.25L555.34 347.2L555.38 347.15L555.42 347.09L555.46 347.04L555.49 346.99L555.53 346.94L555.57 346.89L555.61 346.84L555.64 346.79L555.68 346.74L555.72 346.69L555.76 346.64L555.79 346.6L555.83 346.55L555.91 346.45L555.94 346.4L555.98 346.35L556.02 346.3L556.06 346.25L556.09 346.21L556.13 346.16L556.17 346.11L556.21 346.06L556.24 346L556.28 345.95L556.32 345.9L556.36 345.85L556.39 345.8L556.43 345.74L556.47 345.69L556.5 345.63L556.54 345.57L556.58 345.52L557.08 344.94L557.58 344.36L558.07 343.79L558.56 343.22L559.04 342.66L559.52 342.1L559.98 341.54L560.45 340.99L560.9 340.44L561.35 339.9L561.8 339.36L562.24 338.82L562.67 338.29L563.1 337.77L563.52 337.24L563.93 336.73L564.34 336.21L564.74 335.7L565.14 335.19L565.53 334.69L565.92 334.2L566.3 333.7L566.67 333.21L567.04 332.73L567.4 332.24L567.75 331.77L568.1 331.29L568.44 330.83L568.78 330.36L569.11 329.9L569.44 329.44L569.75 328.99L570.07 328.54L570.38 328.1L570.68 327.66L570.97 327.22L571.26 326.79L571.54 326.36L571.62 326.28L571.69 326.21L571.77 326.12L571.84 326.04L571.91 325.96L571.98 325.88L572.05 325.8L572.11 325.71L572.18 325.63L572.25 325.54L572.31 325.45L572.37 325.37L572.44 325.28L572.5 325.19L572.56 325.1L572.62 325.01L572.68 324.92L572.73 324.83L572.79 324.74L572.85 324.64L572.9 324.55L572.95 324.46L573.01 324.37L573.06 324.27L573.11 324.18L573.16 324.08L573.21 323.99L573.25 323.89L573.3 323.8L573.34 323.7L573.39 323.61L573.43 323.51L573.47 323.41L573.52 323.32L573.56 323.22L573.59 323.13L573.63 323.03L573.67 322.93L573.39 323.18L573.1 323.43L572.81 323.67L572.51 323.9L572.22 324.13L571.92 324.35L571.61 324.56L571.31 324.77L571 324.97L570.68 325.16L570.37 325.35L570.05 325.54L569.73 325.71L569.4 325.88L569.07 326.05L568.74 326.2L568.41 326.35L568.07 326.5L567.73 326.64L567.39 326.77L567.04 326.89L566.69 327.01L566.34 327.12L565.98 327.23L565.62 327.33L565.26 327.42L564.89 327.5L564.52 327.58L564.15 327.65L563.77 327.72L563.4 327.78L563.01 327.83L562.63 327.87L562.24 327.91L561.85 327.94L561.46 327.97L561.06 327.98L560.66 327.99L560.22 328L559.79 327.99L559.35 327.98L558.92 327.96L558.5 327.93L558.07 327.89L557.65 327.85L557.23 327.79L556.82 327.73L556.41 327.66L556 327.58L555.59 327.5L555.19 327.4L554.79 327.3L554.4 327.19L554.01 327.07L553.62 326.94L553.23 326.81L552.85 326.67L552.47 326.51L552.1 326.36L551.72 326.19L551.36 326.01L550.99 325.83L550.63 325.64L550.27 325.44L549.92 325.23L549.57 325.01L549.22 324.79L548.88 324.56L548.54 324.32L548.2 324.07L547.87 323.81L547.54 323.55L547.22 323.28L546.89 322.99L546.58 322.71L546.26 322.41L545.96 322.1L545.66 321.8L545.36 321.49L545.08 321.17L544.8 320.85L544.53 320.53L544.26 320.2L544 319.87L543.75 319.53L543.51 319.19L543.28 318.85L543.05 318.5L542.83 318.15L542.62 317.8L542.41 317.44L542.22 317.08L542.03 316.71L541.85 316.34L541.67 315.97L541.51 315.59L541.35 315.21L541.2 314.82L541.06 314.44L540.93 314.04L540.81 313.65L540.69 313.25L540.58 312.85L540.49 312.44L540.4 312.04L540.31 311.62L540.24 311.21L540.18 310.79L540.12 310.37L540.07 309.94L540.03 309.51L540.01 309.08L539.98 308.64L539.97 308.21L539.97 307.77L539.97 307.33L539.99 306.9L540.01 306.47L540.04 306.04L540.08 305.62L540.12 305.2L540.18 304.78L540.24 304.36L540.31 303.95L540.38 303.54L540.47 303.14L540.57 302.74L540.67 302.34L540.78 301.94L540.9 301.55L541.02 301.16L541.16 300.78L541.3 300.39L541.45 300.02L541.61 299.64L541.78 299.27L541.95 298.9L542.14 298.54L542.33 298.17L542.53 297.82L542.74 297.46L542.95 297.11L543.18 296.76L543.41 296.42L543.65 296.08L543.9 295.75L544.15 295.41L544.42 295.09L544.69 294.76L544.97 294.44L545.26 294.12L545.56 293.81L545.86 293.5L546.17 293.2L546.48 292.91L546.8 292.62L547.12 292.34L547.44 292.07L547.77 291.81L548.1 291.55L548.43 291.3L548.77 291.06L549.12 290.82L549.46 290.59L549.81 290.37L550.17 290.16L550.53 289.96L550.89 289.76L551.26 289.57L551.63 289.39L552 289.22L552.38 289.06L552.76 288.9L553.14 288.75L553.53 288.61L553.92 288.48L554.32 288.35L554.72 288.24L555.12 288.13L555.52 288.03L555.93 287.94L556.34 287.86L556.76 287.79L557.18 287.72L557.6 287.67L558.03 287.62L558.46 287.58L558.89 287.55L559.32 287.53L559.76 287.52L560.2 287.52L560.64 287.52L561.07 287.53ZM558.76 290.97L558.13 291.04L557.51 291.13L556.89 291.24L556.29 291.38L555.7 291.54L555.11 291.71L554.53 291.91L553.97 292.13L553.41 292.38L552.86 292.64L552.31 292.93L551.78 293.23L551.26 293.56L550.74 293.91L550.23 294.28L549.72 294.66L549.23 295.07L548.74 295.5L548.26 295.95L547.83 296.41L547.41 296.89L547.02 297.38L546.65 297.88L546.3 298.39L545.97 298.91L545.66 299.45L545.37 299.99L545.1 300.55L544.86 301.11L544.63 301.69L544.43 302.27L544.25 302.87L544.09 303.47L543.95 304.08L543.84 304.7L543.75 305.33L543.68 305.96L543.63 306.6L543.61 307.25L543.6 307.9L543.63 308.56L543.67 309.2L543.74 309.83L543.83 310.46L543.94 311.07L544.08 311.67L544.23 312.27L544.41 312.85L544.61 313.43L544.83 314L545.07 314.56L545.34 315.11L545.62 315.65L545.93 316.18L546.26 316.71L546.6 317.23L546.97 317.74L547.36 318.24L547.77 318.73L548.2 319.22L548.65 319.7L549.14 320.13L549.64 320.55L550.15 320.94L550.67 321.31L551.19 321.66L551.72 321.99L552.25 322.3L552.8 322.59L553.35 322.86L553.91 323.1L554.47 323.33L555.05 323.53L555.63 323.71L556.22 323.87L556.82 324.01L557.43 324.12L558.04 324.22L558.67 324.29L559.3 324.33L559.95 324.36L560.6 324.36L561.26 324.37L561.9 324.35L562.54 324.31L563.18 324.25L563.8 324.15L564.41 324.03L565.02 323.89L565.62 323.72L566.2 323.53L566.78 323.31L567.35 323.07L567.91 322.8L568.45 322.51L568.99 322.19L569.51 321.85L570.02 321.49L570.53 321.1L571.01 320.69L571.49 320.26L571.95 319.8L572.4 319.32L572.83 318.82L573.24 318.32L573.64 317.81L574.01 317.3L574.36 316.78L574.69 316.25L575 315.71L575.29 315.17L575.56 314.62L575.8 314.06L576.03 313.49L576.23 312.92L576.41 312.33L576.57 311.74L576.71 311.14L576.82 310.54L576.91 309.92L576.98 309.29L577.03 308.66L577.05 308.01L577.05 307.36L577.03 306.71L576.99 306.07L576.92 305.43L576.83 304.81L576.72 304.2L576.58 303.59L576.43 303L576.25 302.41L576.05 301.84L575.83 301.27L575.58 300.71L575.32 300.16L575.04 299.62L574.73 299.08L574.4 298.56L574.06 298.04L573.69 297.53L573.3 297.03L572.89 296.53L572.46 296.04L572.01 295.56L571.52 295.13L571.02 294.72L570.51 294.33L569.99 293.95L569.47 293.6L568.94 293.27L568.41 292.96L567.86 292.67L567.31 292.41L566.75 292.16L566.19 291.94L565.61 291.73L565.03 291.55L564.44 291.39L563.84 291.26L563.23 291.14L562.62 291.05L561.99 290.98L561.36 290.93L560.71 290.91L560.06 290.91L559.41 290.93L558.76 290.97Z" id="d1BHp29Eu"></path><path d="M616.17 289.71L616.13 289.77L616.09 289.82L616.05 289.88L616.01 289.93L615.97 289.98L615.94 290.03L615.9 290.08L615.86 290.13L615.82 290.18L615.78 290.23L615.74 290.28L615.71 290.33L615.67 290.38L615.63 290.43L615.59 290.47L615.55 290.52L615.48 290.62L615.44 290.67L615.4 290.71L615.36 290.76L615.32 290.81L615.29 290.86L615.25 290.91L615.21 290.96L615.17 291.01L615.13 291.06L615.09 291.11L615.06 291.16L615.02 291.21L614.98 291.26L614.94 291.32L614.9 291.37L614.86 291.43L614.83 291.48L614.79 291.54L614.27 292.11L613.77 292.68L613.26 293.24L612.77 293.8L612.28 294.36L611.8 294.91L611.32 295.46L610.85 296L610.38 296.54L609.92 297.08L609.47 297.61L609.02 298.14L608.58 298.66L608.15 299.18L607.72 299.7L607.29 300.21L606.88 300.72L606.47 301.22L606.06 301.72L605.66 302.22L605.27 302.71L604.88 303.2L604.5 303.68L604.13 304.16L603.76 304.64L603.4 305.11L603.04 305.57L602.69 306.04L602.34 306.5L602.01 306.95L601.67 307.4L601.35 307.85L601.03 308.29L600.71 308.73L600.4 309.17L600.1 309.6L599.81 310.03L599.52 310.45L599.46 310.51L599.4 310.57L599.34 310.63L599.29 310.69L599.23 310.76L599.17 310.83L599.11 310.9L599.06 310.97L599 311.04L598.94 311.12L598.88 311.2L598.83 311.28L598.77 311.36L598.71 311.44L598.65 311.52L598.6 311.61L598.54 311.69L598.48 311.78L598.42 311.87L598.37 311.97L598.31 312.06L598.25 312.15L598.19 312.25L598.14 312.35L598.08 312.45L598.02 312.55L597.97 312.65L597.91 312.75L597.85 312.85L597.79 312.96L597.74 313.07L597.68 313.17L597.62 313.28L597.56 313.39L597.51 313.5L597.45 313.62L597.39 313.73L597.33 313.84L597.62 313.6L597.91 313.36L598.21 313.12L598.51 312.9L598.81 312.68L599.11 312.46L599.42 312.25L599.73 312.05L600.04 311.85L600.36 311.66L600.67 311.48L601 311.3L601.32 311.13L601.65 310.96L601.98 310.81L602.31 310.65L602.65 310.51L602.99 310.37L603.33 310.24L603.68 310.11L604.03 309.99L604.38 309.88L604.74 309.77L605.09 309.67L605.45 309.58L605.82 309.49L606.19 309.42L606.56 309.34L606.93 309.28L607.31 309.22L607.69 309.17L608.07 309.12L608.45 309.08L608.84 309.05L609.23 309.03L609.63 309.01L610.02 309L610.42 308.99L610.86 309L611.3 309.01L611.73 309.03L612.16 309.06L612.59 309.1L613.01 309.14L613.43 309.19L613.85 309.25L614.26 309.32L614.67 309.4L615.08 309.48L615.48 309.57L615.88 309.68L616.28 309.78L616.67 309.9L617.06 310.03L617.45 310.16L617.83 310.3L618.21 310.45L618.59 310.61L618.96 310.77L619.33 310.94L619.7 311.13L620.06 311.32L620.42 311.51L620.77 311.72L621.12 311.93L621.47 312.15L621.81 312.38L622.15 312.62L622.49 312.87L622.82 313.12L623.15 313.38L623.47 313.65L623.79 313.93L624.11 314.22L624.42 314.51L624.73 314.81L625.03 315.12L625.33 315.43L625.61 315.75L625.9 316.07L626.17 316.39L626.44 316.72L626.7 317.05L626.95 317.39L627.19 317.73L627.43 318.07L627.66 318.42L627.88 318.77L628.09 319.12L628.3 319.48L628.5 319.84L628.69 320.21L628.87 320.58L629.05 320.95L629.21 321.33L629.37 321.71L629.52 322.09L629.66 322.48L629.8 322.87L629.92 323.26L630.04 323.66L630.15 324.06L630.25 324.46L630.34 324.87L630.43 325.28L630.5 325.69L630.57 326.11L630.63 326.53L630.68 326.95L630.72 327.38L630.75 327.81L630.77 328.24L630.78 328.68L630.79 329.12L630.78 329.55L630.77 329.99L630.75 330.42L630.72 330.85L630.69 331.28L630.64 331.7L630.59 332.12L630.53 332.54L630.46 332.95L630.39 333.36L630.3 333.77L630.21 334.17L630.11 334.57L630 334.97L629.88 335.36L629.76 335.75L629.62 336.14L629.48 336.52L629.33 336.9L629.18 337.28L629.01 337.65L628.84 338.02L628.66 338.39L628.47 338.75L628.27 339.11L628.06 339.46L627.85 339.81L627.63 340.16L627.4 340.5L627.16 340.84L626.92 341.18L626.66 341.51L626.4 341.84L626.13 342.16L625.85 342.48L625.57 342.8L625.27 343.11L624.97 343.42L624.66 343.72L624.35 344.02L624.03 344.31L623.71 344.59L623.39 344.86L623.06 345.13L622.73 345.39L622.39 345.64L622.05 345.88L621.71 346.12L621.36 346.35L621.01 346.57L620.66 346.78L620.3 346.99L619.94 347.19L619.57 347.38L619.2 347.56L618.83 347.74L618.45 347.9L618.07 348.06L617.69 348.21L617.3 348.36L616.91 348.49L616.52 348.62L616.12 348.73L615.72 348.84L615.32 348.94L614.91 349.04L614.5 349.12L614.09 349.19L613.67 349.26L613.25 349.32L612.83 349.37L612.4 349.41L611.97 349.44L611.54 349.46L611.11 349.47L610.67 349.48L610.23 349.48L609.79 349.46L609.36 349.44L608.93 349.42L608.5 349.38L608.08 349.33L607.66 349.28L607.24 349.22L606.83 349.15L606.42 349.08L606.01 348.99L605.61 348.9L605.21 348.8L604.81 348.69L604.42 348.57L604.03 348.45L603.64 348.32L603.26 348.17L602.88 348.02L602.5 347.87L602.13 347.7L601.76 347.53L601.4 347.35L601.03 347.16L600.68 346.96L600.32 346.76L599.97 346.54L599.62 346.32L599.28 346.09L598.94 345.85L598.6 345.61L598.27 345.35L597.94 345.09L597.62 344.82L597.3 344.54L596.98 344.26L596.67 343.96L596.36 343.66L596.06 343.35L595.77 343.04L595.48 342.73L595.2 342.42L594.93 342.1L594.67 341.79L594.42 341.47L594.17 341.14L593.93 340.82L593.7 340.49L593.48 340.16L593.26 339.83L593.05 339.49L592.85 339.15L592.66 338.81L592.48 338.47L592.3 338.12L592.13 337.77L591.97 337.42L591.82 337.06L591.67 336.7L591.53 336.34L591.4 335.98L591.27 335.61L591.16 335.24L591.05 334.86L590.95 334.49L590.85 334.1L590.76 333.72L590.68 333.33L590.61 332.94L590.55 332.54L590.49 332.14L590.44 331.74L590.39 331.33L590.36 330.92L590.33 330.5L590.3 330.09L590.06 330.09L590.08 329.4L590.11 328.72L590.15 328.05L590.19 327.39L590.25 326.73L590.3 326.08L590.37 325.43L590.44 324.8L590.52 324.17L590.61 323.54L590.7 322.93L590.81 322.32L590.92 321.71L591.03 321.12L591.16 320.53L591.29 319.95L591.43 319.37L591.57 318.8L591.73 318.24L591.89 317.68L592.06 317.13L592.24 316.59L592.42 316.05L592.61 315.52L592.81 315L593.02 314.48L593.23 313.97L593.46 313.46L593.69 312.96L593.93 312.47L594.17 311.98L594.43 311.5L594.69 311.03L594.96 310.56L595.24 310.1L595.52 309.64L595.82 309.2L596.12 308.75L596.43 308.31L596.74 307.87L597.06 307.42L597.38 306.98L597.7 306.53L598.03 306.08L598.36 305.62L598.7 305.17L599.04 304.71L599.38 304.25L599.73 303.79L600.09 303.33L600.44 302.87L600.8 302.4L601.17 301.94L601.54 301.47L601.91 301L602.29 300.53L602.67 300.06L603.05 299.58L603.44 299.1L603.83 298.63L604.23 298.15L604.63 297.67L605.04 297.19L605.44 296.7L605.86 296.22L606.27 295.73L606.7 295.25L607.12 294.76L607.55 294.27L607.98 293.78L608.42 293.29L608.86 292.79L609.31 292.3L609.76 291.81L610.21 291.31L610.67 290.81L610.69 290.78L610.71 290.74L610.73 290.7L610.75 290.67L610.77 290.63L610.8 290.6L610.82 290.57L610.85 290.53L610.87 290.5L610.9 290.47L610.93 290.44L610.95 290.41L610.98 290.38L611.01 290.35L611.04 290.32L611.07 290.29L611.09 290.26L611.12 290.24L611.18 290.18L611.21 290.15L611.24 290.12L611.27 290.09L611.29 290.06L611.32 290.03L611.35 290L611.38 289.97L611.4 289.94L611.43 289.91L611.46 289.88L611.48 289.85L611.51 289.81L611.53 289.78L611.55 289.75L611.57 289.71L611.6 289.68L611.62 289.64L611.64 289.6L616.24 289.6L616.2 289.66L616.17 289.71ZM609.31 312.43L608.65 312.49L608 312.57L607.37 312.67L606.74 312.8L606.13 312.95L605.53 313.11L604.95 313.3L604.37 313.52L603.81 313.75L603.26 314.01L602.72 314.28L602.19 314.58L601.67 314.9L601.17 315.24L600.67 315.6L600.18 315.98L599.71 316.38L599.24 316.8L598.79 317.24L598.35 317.73L597.93 318.22L597.53 318.72L597.15 319.23L596.79 319.75L596.45 320.27L596.13 320.8L595.83 321.34L595.56 321.89L595.3 322.44L595.07 323L594.86 323.58L594.66 324.16L594.5 324.74L594.35 325.34L594.22 325.95L594.12 326.56L594.04 327.19L593.99 327.82L593.95 328.46L593.94 329.12L593.95 329.77L593.99 330.41L594.04 331.05L594.12 331.67L594.22 332.29L594.35 332.89L594.5 333.49L594.66 334.08L594.86 334.66L595.07 335.23L595.3 335.79L595.56 336.34L595.83 336.89L596.13 337.43L596.45 337.96L596.79 338.48L597.15 339L597.53 339.51L597.93 340.01L598.35 340.51L598.79 340.99L599.28 341.43L599.77 341.86L600.27 342.26L600.78 342.64L601.3 343L601.82 343.33L602.35 343.65L602.89 343.95L603.44 344.23L603.99 344.48L604.56 344.71L605.13 344.93L605.71 345.12L606.29 345.29L606.89 345.43L607.5 345.56L608.11 345.66L608.74 345.74L609.37 345.8L610.01 345.83L610.67 345.84L611.32 345.83L611.96 345.8L612.6 345.74L613.22 345.66L613.84 345.56L614.44 345.43L615.04 345.29L615.63 345.12L616.21 344.93L616.78 344.71L617.34 344.48L617.9 344.23L618.44 343.95L618.98 343.65L619.51 343.33L620.04 343L620.55 342.64L621.06 342.26L621.56 341.86L622.06 341.43L622.55 340.99L622.99 340.54L623.41 340.07L623.81 339.59L624.19 339.09L624.55 338.59L624.89 338.07L625.2 337.54L625.5 337L625.78 336.45L626.03 335.89L626.27 335.31L626.48 334.73L626.67 334.14L626.84 333.54L626.98 332.93L627.11 332.32L627.21 331.69L627.29 331.06L627.35 330.42L627.38 329.77L627.39 329.12L627.38 328.46L627.35 327.82L627.29 327.19L627.21 326.56L627.11 325.95L626.98 325.34L626.84 324.74L626.67 324.16L626.48 323.58L626.27 323L626.03 322.44L625.78 321.89L625.5 321.34L625.2 320.8L624.89 320.27L624.55 319.75L624.19 319.23L623.81 318.72L623.41 318.22L622.99 317.73L622.55 317.24L622.06 316.8L621.56 316.38L621.06 315.98L620.55 315.6L620.04 315.24L619.51 314.9L618.98 314.58L618.44 314.28L617.9 314.01L617.34 313.75L616.78 313.52L616.21 313.3L615.63 313.11L615.04 312.95L614.44 312.8L613.84 312.67L613.22 312.57L612.6 312.49L611.96 312.43L611.32 312.4L610.67 312.39L609.98 312.4L609.31 312.43Z" id="a1g9wubO0"></path></defs><g><g><g><use xlink:href="#g2CV1PG4cf" opacity="1" fill="#3a3a3a" fill-opacity="1"></use><g><use xlink:href="#g2CV1PG4cf" opacity="1" fill-opacity="0" stroke="#000000" stroke-width="1" stroke-opacity="0"></use></g></g><g><use xlink:href="#bbYR30pF8" opacity="1" fill="#3a3a3a" fill-opacity="1"></use><g><use xlink:href="#bbYR30pF8" opacity="1" fill-opacity="0" stroke="#000000" stroke-width="1" stroke-opacity="0"></use></g></g><g><use xlink:href="#eqJZFoJj4" opacity="1" fill="#3a3a3a" fill-opacity="1"></use><g><use xlink:href="#eqJZFoJj4" opacity="1" fill-opacity="0" stroke="#000000" stroke-width="1" stroke-opacity="0"></use></g></g><g><use xlink:href="#gPXX5cZ4v" opacity="1" fill="#3a3a3a" fill-opacity="1"></use><g><use xlink:href="#gPXX5cZ4v" opacity="1" fill-opacity="0" stroke="#000000" stroke-width="1" stroke-opacity="0"></use></g></g><g><use xlink:href="#ap4qFo528" opacity="1" fill="#3a3a3a" fill-opacity="1"></use><g><use xlink:href="#ap4qFo528" opacity="1" fill-opacity="0" stroke="#000000" stroke-width="1" stroke-opacity="0"></use></g></g><g><use xlink:href="#a37vNMNaTH" opacity="1" fill="#3a3a3a" fill-opacity="1"></use><g><use xlink:href="#a37vNMNaTH" opacity="1" fill-opacity="0" stroke="#000000" stroke-width="1" stroke-opacity="0"></use></g></g><g><use xlink:href="#b1N90I8Dtu" opacity="1" fill="#3a3a3a" fill-opacity="1"></use><g><use xlink:href="#b1N90I8Dtu" opacity="1" fill-opacity="0" stroke="#000000" stroke-width="1" stroke-opacity="0"></use></g></g><g><use xlink:href="#cmUrG7QRx" opacity="1" fill="#3a3a3a" fill-opacity="1"></use><g><use xlink:href="#cmUrG7QRx" opacity="1" fill-opacity="0" stroke="#000000" stroke-width="1" stroke-opacity="0"></use></g></g><g><use xlink:href="#b4lLQgrGoX" opacity="1" fill="#3a3a3a" fill-opacity="1"></use><g><use xlink:href="#b4lLQgrGoX" opacity="1" fill-opacity="0" stroke="#000000" stroke-width="1" stroke-opacity="0"></use></g></g><g><use xlink:href="#c1wLdOCetM" opacity="1" fill="#3a3a3a" fill-opacity="1"></use><g><use xlink:href="#c1wLdOCetM" opacity="1" fill-opacity="0" stroke="#000000" stroke-width="1" stroke-opacity="0"></use></g></g><g><use xlink:href="#a1mqAVo4Ur" opacity="1" fill="#3a3a3a" fill-opacity="1"></use><g><use xlink:href="#a1mqAVo4Ur" opacity="1" fill-opacity="0" stroke="#000000" stroke-width="1" stroke-opacity="0"></use></g></g><g><use xlink:href="#d1BHp29Eu" opacity="1" fill="#3a3a3a" fill-opacity="1"></use><g><use xlink:href="#d1BHp29Eu" opacity="1" fill-opacity="0" stroke="#000000" stroke-width="1" stroke-opacity="0"></use></g></g><g><use xlink:href="#a1g9wubO0" opacity="1" fill="#3a3a3a" fill-opacity="1"></use><g><use xlink:href="#a1g9wubO0" opacity="1" fill-opacity="0" stroke="#000000" stroke-width="1" stroke-opacity="0"></use></g></g></g></g></svg>