<?xml version="1.0" encoding="utf-8"?>
<!-- Generator: Adobe Illustrator 19.1.0, SVG Export Plug-In . SVG Version: 6.00 Build 0)  -->
<svg version="1.0" id="レイヤー_1" xmlns="http://www.w3.org/2000/svg" xmlns:xlink="http://www.w3.org/1999/xlink" x="0px"
	 y="0px" viewBox="0 0 264 26" enable-background="new 0 0 264 26" xml:space="preserve">
<g>
	<g>
		<path fill="#3A3A3A" d="M16.7,17.5c0,2.3-0.8,4.3-2.4,5.9c-1.6,1.6-3.6,2.5-5.9,2.5c-2.3,0-4.3-0.8-5.9-2.4
			C0.9,21.9,0,19.9,0,17.6l0-8.1c0-2.3,0.8-4.3,2.4-5.9S6,1.2,8.3,1.2c2.3,0,4.3,0.8,5.9,2.4s2.5,3.6,2.5,5.9L16.7,17.5z M15.3,9.5
			c0-1.9-0.7-3.5-2-4.9c-1.4-1.3-3-2-4.9-2s-3.5,0.7-4.9,2c-1.3,1.3-2,3-2,4.9l0,8.1c0,1.9,0.7,3.5,2,4.9s3,2,4.9,2s3.5-0.7,4.9-2
			c1.3-1.3,2-3,2-4.9L15.3,9.5z"/>
		<path fill="#3A3A3A" d="M31.3,11.8l-1.1,0l0-1.4c0.9,0,1.7-0.1,2.3-0.4s1.3-0.7,2-1.5c0.7-0.8,1-1.6,1-2.7c0-1-0.4-1.9-1.1-2.6
			s-1.6-1.1-2.7-1.1c-1,0-1.9,0.4-2.6,1.1c-0.4,0.4-0.7,0.9-0.9,1.4l-1.3-0.5c0.2-0.7,0.6-1.3,1.2-1.9c1-1,2.2-1.5,3.7-1.5
			c1.4,0,2.7,0.5,3.7,1.5c1,1,1.5,2.2,1.5,3.6c0,1.4-0.4,2.6-1.1,3.4c-0.8,0.8-1.5,1.4-2.2,1.7c1.5,0.5,2.7,1.2,3.6,2.3
			c1.4,1.5,2.1,3.2,2.1,5.2c0,2-0.7,3.7-2.1,5.1c-1.4,1.4-3.1,2.1-5.1,2.2c-2,0-3.7-0.7-5.1-2.1c-1.1-1.1-1.8-2.5-2.1-4l1.4-0.5
			c0.1,1.3,0.7,2.5,1.7,3.5c1.2,1.1,2.5,1.7,4.1,1.7c1.6,0,3-0.6,4.1-1.7c1.1-1.1,1.7-2.5,1.7-4.1c0-1.6-0.6-3-1.7-4.2
			S33.5,12.2,31.3,11.8z"/>
		<path fill="#3A3A3A" d="M49.6,14.5l10.2,0l0,3.1l-10.2,0L49.6,14.5z"/>
		<path fill="#3A3A3A" d="M76.8,10.9c1.5-1.3,3.3-2,5.4-2c2.3,0,4.3,0.8,5.9,2.4c1.6,1.6,2.5,3.6,2.5,5.9c0,2.3-0.8,4.3-2.4,5.9
			s-3.6,2.5-5.9,2.5c-2.3,0-4.3-0.8-5.9-2.4c-1.6-1.6-2.4-3.4-2.5-5.6l-0.1,0c0.1-3.6,0.9-6.5,2.5-8.8c1.6-2.3,3.6-4.8,6-7.4
			c0.1-0.2,0.3-0.3,0.4-0.5l1.9,0c-0.2,0.3-0.4,0.5-0.6,0.8c-2.7,3-4.8,5.6-6.3,7.8C77.3,9.9,77,10.4,76.8,10.9z M77.3,12.4
			c-1.3,1.4-2,3-2,4.9c0,1.9,0.7,3.5,2,4.9c1.4,1.3,3,2,4.9,2c1.9,0,3.5-0.7,4.9-2c1.3-1.3,2-3,2-4.9c0-1.9-0.7-3.5-2-4.9
			c-1.4-1.3-3-2-4.9-2C80.3,10.3,78.6,11,77.3,12.4z"/>
		<path fill="#3A3A3A" d="M101.9,11.5l-1.1,0l0-1.4c0.9,0,1.7-0.1,2.3-0.4c0.6-0.2,1.3-0.7,2-1.5c0.7-0.8,1-1.6,1-2.7
			c0-1-0.4-1.9-1.1-2.6c-0.7-0.7-1.6-1.1-2.7-1.1c-1,0-1.9,0.4-2.6,1.1c-0.4,0.4-0.7,0.9-0.9,1.4l-1.3-0.5c0.2-0.7,0.6-1.3,1.2-1.9
			c1-1,2.2-1.5,3.7-1.5c1.4,0,2.7,0.5,3.7,1.5c1,1,1.5,2.2,1.5,3.6c0,1.4-0.4,2.6-1.1,3.4c-0.8,0.8-1.5,1.4-2.2,1.7
			c1.5,0.5,2.7,1.2,3.6,2.3c1.4,1.5,2.1,3.2,2.1,5.2c0,2-0.7,3.7-2.1,5.1c-1.4,1.4-3.1,2.1-5.1,2.2c-2,0-3.7-0.7-5.1-2.1
			c-1.1-1.1-1.8-2.5-2.1-4l1.4-0.5c0.1,1.3,0.7,2.5,1.7,3.5c1.2,1.1,2.5,1.7,4.1,1.7c1.6,0,3-0.6,4.1-1.7c1.1-1.1,1.7-2.5,1.7-4.1
			c0-1.6-0.6-3-1.7-4.2C105.8,12.7,104.1,11.9,101.9,11.5z"/>
		<path fill="#3A3A3A" d="M125.4,25.3c-0.2,0-0.4,0-0.6,0c-2,0-3.7-0.7-5.1-2.1c-1.4-1.4-2.1-3.1-2.1-5.1c0-2,0.7-3.7,2.1-5.2
			c1-1,2.2-1.8,3.6-2.3c-0.7-0.3-1.4-0.8-2.2-1.6c-0.8-0.8-1.2-2-1.2-3.4c0-1.4,0.5-2.6,1.5-3.6c1-1,2.2-1.5,3.7-1.5l0.5,0
			c1.4,0,2.7,0.5,3.7,1.5c1,1,1.5,2.2,1.5,3.6c0,1.4-0.4,2.6-1.1,3.4c-0.8,0.8-1.5,1.4-2.2,1.7c1.5,0.5,2.7,1.2,3.6,2.3
			c1.4,1.5,2.1,3.2,2.1,5.2c0,2-0.7,3.7-2.1,5.1s-3.1,2.1-5.1,2.2C125.8,25.3,125.6,25.3,125.4,25.3z M125.4,23.8L125.4,23.8
			c0.2,0,0.4,0,0.6,0c1.6,0,3-0.6,4.1-1.7c1.1-1.1,1.7-2.5,1.7-4.1c0-1.6-0.6-3-1.7-4.2c-1.1-1.2-2.7-2-4.8-2.4
			c-2.1,0.4-3.7,1.2-4.8,2.4c-1.1,1.2-1.6,2.6-1.6,4.2c0,1.6,0.6,3,1.7,4.1c1.1,1.1,2.5,1.7,4.1,1.7
			C124.9,23.8,125.1,23.8,125.4,23.8z M125.3,1.7c-0.1,0-0.2,0-0.3,0c-1,0-1.9,0.4-2.6,1.1c-0.7,0.7-1.1,1.6-1.1,2.7
			c0,1,0.4,1.9,1.1,2.7c0.7,0.7,1.4,1.2,2,1.5c0.3,0.1,0.6,0.2,1,0.3c0.4-0.1,0.7-0.1,1-0.3c0.6-0.2,1.2-0.7,1.9-1.5
			c0.7-0.8,1-1.6,1-2.7c0-1-0.4-1.9-1.1-2.6c-0.7-0.7-1.6-1.1-2.7-1.1C125.4,1.7,125.4,1.7,125.3,1.7L125.3,1.7z"/>
		<path fill="#3A3A3A" d="M156.8,16.9c0,2.3-0.8,4.3-2.4,5.9c-1.6,1.6-3.6,2.5-5.9,2.5c-2.3,0-4.3-0.8-5.9-2.4
			c-1.6-1.6-2.5-3.6-2.5-5.9l0-8.1c0-2.3,0.8-4.3,2.4-5.9s3.6-2.5,5.9-2.5c2.3,0,4.3,0.8,5.9,2.4c1.6,1.6,2.5,3.6,2.5,5.9
			L156.8,16.9z M155.4,8.8c0-1.9-0.7-3.5-2-4.9c-1.4-1.3-3-2-4.9-2c-1.9,0-3.5,0.7-4.9,2c-1.3,1.3-2,3-2,4.9l0,8.1
			c0,1.9,0.7,3.5,2,4.9c1.4,1.3,3,2,4.9,2c1.9,0,3.5-0.7,4.9-2c1.3-1.3,2-3,2-4.9L155.4,8.8z"/>
		<path fill="#3A3A3A" d="M166.5,13.9l10.2,0l0,3.1l-10.2,0L166.5,13.9z"/>
		<path fill="#3A3A3A" d="M191.8,10.4c1.5-1.3,3.3-2,5.4-2c2.3,0,4.3,0.8,5.9,2.4c1.6,1.6,2.5,3.6,2.5,5.9c0,2.3-0.8,4.3-2.4,5.9
			c-1.6,1.6-3.6,2.5-5.9,2.5c-2.3,0-4.3-0.8-5.9-2.4c-1.6-1.6-2.4-3.4-2.5-5.6l-0.1,0c0.1-3.6,0.9-6.5,2.5-8.8
			c1.6-2.3,3.6-4.8,6-7.4c0.1-0.2,0.3-0.3,0.4-0.5l1.9,0c-0.2,0.3-0.4,0.5-0.6,0.8c-2.7,3-4.8,5.6-6.3,7.8
			C192.4,9.3,192.1,9.8,191.8,10.4z M192.4,11.8c-1.3,1.4-2,3-2,4.9s0.7,3.5,2,4.9c1.4,1.3,3,2,4.9,2c1.9,0,3.5-0.7,4.9-2
			c1.3-1.3,2-3,2-4.9s-0.7-3.5-2-4.9c-1.4-1.3-3-2-4.9-2C195.3,9.8,193.7,10.5,192.4,11.8z"/>
		<path fill="#3A3A3A" d="M215.1,7.8c0.5-0.2,1.1-0.3,1.7-0.5c0.6-0.1,1.3-0.2,1.9-0.2c1.1,0,2.2,0.2,3.2,0.5c2.3,0.8,4,2.2,5.1,4.3
			c0.7,1.3,1.1,2.6,1.1,4c0,0.9-0.1,1.7-0.4,2.6c-0.7,2.3-2.1,4-4.2,5.1c-1.3,0.7-2.6,1-4,1c-0.9,0-1.7-0.1-2.6-0.4
			c-1.8-0.5-3.3-1.5-4.3-2.9l1-1.1c0.9,1.3,2.1,2.2,3.8,2.6c0.7,0.2,1.5,0.3,2.2,0.3c1.1,0,2.2-0.3,3.3-0.9c1.7-0.9,2.9-2.4,3.5-4.3
			c0.2-0.7,0.3-1.5,0.3-2.2c0-1.1-0.3-2.2-0.9-3.3c-0.9-1.7-2.4-2.9-4.3-3.6c-0.8-0.3-1.7-0.4-2.7-0.4c-1.3,0-2.7,0.3-4.3,0.8
			l-1.1-1l2.8-7.7l0-0.5l7.6,0l0,1.4l-6.5,0L215.1,7.8z"/>
		<path fill="#3A3A3A" d="M247.2,8.5c-2.6,3-4.7,5.6-6.3,7.8s-2.4,4.9-2.5,8.1l-1.4,0c0.1-3.6,0.9-6.5,2.5-8.8s3.6-4.8,6-7.4
			c2.4-2.7,3.8-4.9,4.2-6.8l-12.8,0.1l0-1.4l14.3-0.1C251.2,2.7,249.8,5.5,247.2,8.5z"/>
		<path fill="#3A3A3A" d="M263,0l0.1,24.3l-1.4,0l-0.1-21.9l-1.4,0l1.9-2.4L263,0z"/>
	</g>
</g>
</svg>
