<?xml version="1.0" encoding="utf-8"?>
<!-- Generator: Adobe Illustrator 19.1.0, SVG Export Plug-In . SVG Version: 6.00 Build 0)  -->
<svg version="1.0" id="レイヤー_1" xmlns="http://www.w3.org/2000/svg" xmlns:xlink="http://www.w3.org/1999/xlink" x="0px"
	 y="0px" viewBox="0 0 420 330" enable-background="new 0 0 420 330" xml:space="preserve">
<path id="outline_3_" fill-rule="evenodd" clip-rule="evenodd" fill="#394D54" d="M53.4,100.8h7.5v7.7h3.8c1.8,0,3.6-0.3,5.2-0.9
	c0.8-0.3,1.7-0.7,2.5-1.1c-1.1-1.4-1.6-3.1-1.8-4.9c-0.2-2.4,0.3-5.4,1.8-7.3l0.8-0.9l0.9,0.8c2.4,1.9,4.4,4.6,4.7,7.6
	c2.9-0.8,6.2-0.6,8.7,0.8l1,0.6l-0.5,1.1c-2.1,4.2-6.6,5.5-11,5.2c-6.5,16.3-20.7,24-38,24c-8.9,0-17.1-3.3-21.7-11.2l-0.1-0.1
	l-0.7-1.4c-1.6-3.5-2.1-7.3-1.7-11.1l0.1-1.1h6.4v-7.7h7.5v-7.5h15.1v-7.5h9V100.8z"/>
<path fill="#00AADA" d="M77.8,103.7c0.5-3.9-2.4-7-4.3-8.5c-2.1,2.4-2.4,8.8,0.9,11.5c-1.8,1.6-5.7,3.1-9.7,3.1H16.4
	c-0.4,4.1,0.3,8,2,11.2l0.5,1c0.3,0.6,0.7,1.2,1.1,1.7l0,0c2,0.1,3.8,0.2,5.5,0.1h0c3.3-0.1,6-0.5,8-1.2c0.3-0.1,0.6,0.1,0.7,0.4
	c0.1,0.3-0.1,0.6-0.4,0.7c-0.3,0.1-0.6,0.2-0.8,0.3h0c-1.6,0.5-3.3,0.8-5.5,0.9c0.1,0-0.1,0-0.1,0c-0.1,0-0.2,0-0.2,0
	c-0.9,0-1.8,0.1-2.8,0.1c-1.1,0-2.1,0-3.3-0.1l0,0c4,4.5,10.3,7.2,18.2,7.2c16.7,0,30.9-7.4,37.1-24c4.4,0.5,8.7-0.7,10.7-4.5
	C84.1,101.9,80.1,102.5,77.8,103.7z"/>
<path fill="#24B8EB" d="M77.8,103.7c0.5-3.9-2.4-7-4.3-8.5c-2.1,2.4-2.4,8.8,0.9,11.5c-1.8,1.6-5.7,3.1-9.7,3.1H19.3
	c-0.2,6.3,2.2,11.2,6.3,14.1h0c3.3-0.1,6-0.5,8-1.2c0.3-0.1,0.6,0.1,0.7,0.4c0.1,0.3-0.1,0.6-0.4,0.7c-0.3,0.1-0.6,0.2-0.8,0.3h0
	c-1.6,0.5-3.5,0.8-5.7,0.9l-0.1-0.1c5.7,2.9,13.9,2.9,23.4-0.7c10.6-4.1,20.4-11.8,27.3-20.7C78,103.6,77.9,103.6,77.8,103.7z"/>
<path fill="#008BB8" d="M16.5,114.8c0.3,2.2,0.9,4.3,1.9,6.2l0.5,1c0.3,0.6,0.7,1.2,1.1,1.7c2,0.1,3.8,0.2,5.5,0.1
	c3.3-0.1,6-0.5,8-1.2c0.3-0.1,0.6,0.1,0.7,0.4c0.1,0.3-0.1,0.6-0.4,0.7c-0.3,0.1-0.6,0.2-0.8,0.3h0c-1.6,0.5-3.5,0.8-5.7,0.9
	c-0.1,0-0.2,0-0.3,0c-0.9,0-1.8,0.1-2.8,0.1c-1.1,0-2.1,0-3.3-0.1c4,4.5,10.4,7.2,18.2,7.2c14.3,0,26.7-5.4,34-17.4H16.5z"/>
<path fill="#039BC6" d="M19.7,114.8c0.9,3.9,2.9,7,5.9,9c3.3-0.1,6-0.5,8-1.2c0.3-0.1,0.6,0.1,0.7,0.4c0.1,0.3-0.1,0.6-0.4,0.7
	c-0.3,0.1-0.6,0.2-0.8,0.3h0c-1.6,0.5-3.5,0.8-5.7,0.9c5.7,2.9,13.9,2.9,23.3-0.8c5.7-2.2,11.2-5.5,16.1-9.4H19.7z"/>
<path fill-rule="evenodd" clip-rule="evenodd" fill="#00ACD3" d="M28.4,102.6h0.5v5.4h-0.5V102.6z M27.4,102.6H28v5.4h-0.5V102.6z
	 M26.4,102.6H27v5.4h-0.5V102.6z M25.5,102.6H26v5.4h-0.5V102.6z M24.5,102.6H25v5.4h-0.5V102.6z M23.5,102.6H24v5.4h-0.5V102.6z
	 M23,102.1h6.5v6.5H23V102.1z"/>
<path fill-rule="evenodd" clip-rule="evenodd" fill="#00ACD3" d="M36,95.1h0.5v5.4H36V95.1z M35,95.1h0.5v5.4H35V95.1z M34,95.1h0.5
	v5.4H34V95.1z M33,95.1h0.5v5.4H33V95.1z M32,95.1h0.5v5.4H32V95.1z M31,95.1h0.5v5.4H31V95.1z M30.5,94.5H37v6.5h-6.5V94.5z"/>
<path fill-rule="evenodd" clip-rule="evenodd" fill="#20C2EF" d="M36,102.6h0.5v5.4H36V102.6z M35,102.6h0.5v5.4H35V102.6z
	 M34,102.6h0.5v5.4H34V102.6z M33,102.6h0.5v5.4H33V102.6z M32,102.6h0.5v5.4H32V102.6z M31,102.6h0.5v5.4H31V102.6z M30.5,102.1H37
	v6.5h-6.5V102.1z"/>
<path fill-rule="evenodd" clip-rule="evenodd" fill="#00ACD3" d="M43.5,102.6H44v5.4h-0.5V102.6z M42.5,102.6H43v5.4h-0.5V102.6z
	 M41.5,102.6h0.5v5.4h-0.5V102.6z M40.5,102.6h0.5v5.4h-0.5V102.6z M39.5,102.6h0.5v5.4h-0.5V102.6z M38.6,102.6h0.5v5.4h-0.5V102.6
	z M38,102.1h6.5v6.5H38V102.1z"/>
<path fill-rule="evenodd" clip-rule="evenodd" fill="#20C2EF" d="M43.5,95.1H44v5.4h-0.5V95.1z M42.5,95.1H43v5.4h-0.5V95.1z
	 M41.5,95.1h0.5v5.4h-0.5V95.1z M40.5,95.1h0.5v5.4h-0.5V95.1z M39.5,95.1h0.5v5.4h-0.5V95.1z M38.6,95.1h0.5v5.4h-0.5V95.1z
	 M38,94.5h6.5v6.5H38V94.5z"/>
<path fill-rule="evenodd" clip-rule="evenodd" fill="#20C2EF" d="M51,102.6h0.5v5.4H51V102.6z M50,102.6h0.5v5.4H50V102.6z
	 M49.1,102.6h0.5v5.4h-0.5V102.6z M48.1,102.6h0.5v5.4h-0.5V102.6z M47.1,102.6h0.5v5.4h-0.5V102.6z M46.1,102.6h0.5v5.4h-0.5V102.6
	z M45.6,102.1h6.5v6.5h-6.5V102.1z"/>
<path fill-rule="evenodd" clip-rule="evenodd" fill="#00ACD3" d="M51,95.1h0.5v5.4H51V95.1z M50,95.1h0.5v5.4H50V95.1z M49.1,95.1
	h0.5v5.4h-0.5V95.1z M48.1,95.1h0.5v5.4h-0.5V95.1z M47.1,95.1h0.5v5.4h-0.5V95.1z M46.1,95.1h0.5v5.4h-0.5V95.1z M45.6,94.5h6.5
	v6.5h-6.5V94.5z"/>
<path fill-rule="evenodd" clip-rule="evenodd" fill="#20C2EF" d="M51,87.5h0.5V93H51V87.5z M50,87.5h0.5V93H50V87.5z M49.1,87.5h0.5
	V93h-0.5V87.5z M48.1,87.5h0.5V93h-0.5V87.5z M47.1,87.5h0.5V93h-0.5V87.5z M46.1,87.5h0.5V93h-0.5V87.5z M45.6,87h6.5v6.5h-6.5V87z
	"/>
<path fill-rule="evenodd" clip-rule="evenodd" fill="#00ACD3" d="M58.6,102.6h0.5v5.4h-0.5V102.6z M57.6,102.6h0.5v5.4h-0.5V102.6z
	 M56.6,102.6h0.5v5.4h-0.5V102.6z M55.6,102.6h0.5v5.4h-0.5V102.6z M54.6,102.6h0.5v5.4h-0.5V102.6z M53.6,102.6h0.5v5.4h-0.5V102.6
	z M53.1,102.1h6.5v6.5h-6.5V102.1z"/>
<path fill-rule="evenodd" clip-rule="evenodd" fill="#D4EDF1" d="M36.6,119.2c1,0,1.8,0.8,1.8,1.8c0,1-0.8,1.8-1.8,1.8
	c-1,0-1.8-0.8-1.8-1.8C34.8,120,35.6,119.2,36.6,119.2"/>
<path fill-rule="evenodd" clip-rule="evenodd" fill="#394D54" d="M36.6,119.7c0.2,0,0.3,0,0.5,0.1c-0.2,0.1-0.3,0.3-0.3,0.5
	c0,0.3,0.2,0.5,0.5,0.5c0.2,0,0.4-0.1,0.5-0.3c0.1,0.2,0.1,0.3,0.1,0.5c0,0.7-0.6,1.3-1.3,1.3c-0.7,0-1.3-0.6-1.3-1.3
	C35.3,120.3,35.9,119.7,36.6,119.7"/>
<path fill-rule="evenodd" clip-rule="evenodd" fill="#394D54" d="M4.7,115.5h39.5h4.9h39.5c-1.8-0.5-5.8-1.1-5.1-3.5
	c-3.3,3.8-11.3,2.7-13.3,0.8c-2.2,3.3-15.3,2-16.3-0.5c-2.8,3.3-11.6,3.3-14.4,0c-0.9,2.5-14,3.8-16.3,0.5c-2,1.9-10,3-13.3-0.8
	C10.5,114.4,6.6,115,4.7,115.5"/>
<path fill="#BFDBE0" d="M41.4,132.2c-4.5-2.1-6.9-5-8.3-8.1c-1.7,0.5-3.7,0.8-6,0.9c-0.9,0-1.8,0.1-2.8,0.1c-1.1,0-2.3,0-3.5-0.1
	c4.1,4.1,9.1,7.2,18.5,7.3C40,132.2,40.7,132.2,41.4,132.2z"/>
<path fill="#D4EDF1" d="M34.8,126.9c-0.6-0.8-1.2-1.9-1.7-2.9c-1.7,0.5-3.7,0.8-6,0.9C28.8,125.8,31,126.6,34.8,126.9z"/>
<path fill-rule="evenodd" clip-rule="evenodd" fill="#E7E7E7" d="M176.7,118.9c2.6-2.2,5.2-4.4,7.7-6.6c0.9-0.8,1.8-1.5,2.7-2.3
	c-0.7-0.9-1.9-1.5-2.9-1.9c-2-0.8-4-0.5-5.8,0.6c-2.4,1.4-3.4,3.6-3.3,6.4c0,1.1,0.3,2.1,0.9,3.1
	C176.2,118.3,176.4,118.6,176.7,118.9 M179.7,121c1.3,0.4,2.7,0.4,4,0.2c0.7-0.3,2.4-1,3-0.9l0.1,0l0.1,0c0.4,0.2,0.7,0.4,0.9,0.8
	c0.5,0.9,0.2,1.8-0.7,2.3l-0.3,0.2c-3.3,1.9-6.8,1.6-10.1-0.1c-1.6-0.8-2.8-2.1-3.7-3.6l-0.2-0.4c-2.1-3.7-1.8-7.5,0.6-11
	c0.8-1.2,1.9-2.1,3.2-2.9l0.5-0.3c3.1-1.8,6.4-1.7,9.6-0.1c1.7,0.8,3.1,2.1,4.1,3.8l0.2,0.3c0.7,1.2-0.2,2.3-1.1,3
	c-1.1,0.8-2.2,1.8-3.2,2.7C184.3,117,182,119,179.7,121z M204.4,104.4h0.3c1,0,1.7,0.7,1.7,1.7c0,1.4-1.4,1.8-2.6,1.8
	c-1.6,0-3.1,0.9-4.1,2c-1.3,1.3-1.9,3-1.9,4.9v8.4c0,1-0.6,1.7-1.6,1.7H196c-1,0-1.6-0.8-1.6-1.7v-8.9c0-3.4,1.7-6.2,4.4-8.2
	C200.4,105,202.3,104.4,204.4,104.4z M161.1,110.3c1.3-1.4,2.7-2.7,4.1-4c0.4-0.4,1.8-1.9,2.4-1.9h0.6l0.1,0
	c0.8,0.2,1.4,0.7,1.4,1.5v0.3c0,0.6-0.7,1.3-1.1,1.7c-0.8,0.8-1.6,1.7-2.5,2.5l-4.2,4.3c1.8,1.8,3.6,3.6,5.4,5.5
	c0.5,0.5,1,1,1.5,1.5c0.2,0.2,0.4,0.4,0.6,0.7c0.2,0.2,0.3,0.5,0.3,0.8v0.4l0,0.1c-0.2,0.8-0.7,1.4-1.6,1.4h-0.3
	c-0.6,0-1.2-0.7-1.6-1c-0.8-0.8-1.6-1.6-2.4-2.4l-2.7-2.6v4.2c0,1-0.6,1.7-1.6,1.7h-0.3c-1,0-1.6-0.8-1.6-1.7V99.5
	c0-1,0.6-1.7,1.6-1.7h0.3c1,0,1.6,0.8,1.6,1.7V110.3z M149.8,108c-0.5-0.2-1.5-0.3-2.1-0.3c-2.9-0.1-5,1.5-6.2,4.1
	c-0.4,0.9-0.6,1.8-0.6,2.8c0,3,1.6,5.1,4.2,6.3c1,0.5,2.2,0.6,3.3,0.6c0.9,0,2.3-0.6,3.1-1l0.1-0.1h0.6l0.1,0
	c0.8,0.2,1.4,0.7,1.4,1.5v0.3c0,2.1-3.9,2.6-5.3,2.7c-5.2,0.4-9.1-2.5-10.6-7.5c-0.3-0.9-0.4-1.7-0.4-2.6v-0.7
	c0-3.8,1.9-6.8,5.1-8.7c1.5-0.9,3.2-1.3,4.9-1.3h0.7c1.9,0,3.6,0.5,5.1,1.6l0.1,0.1l0.1,0.1c0.2,0.3,0.3,0.6,0.3,0.9v0.3
	c0,0.9-0.7,1.4-1.5,1.5l-0.1,0h-0.2C151.4,108.7,150.2,108.2,149.8,108z M118.1,114.6c0,2.6,1.3,4.6,3.5,6c1,0.6,2.2,0.9,3.4,0.9
	c2.6,0,4.5-1.3,5.9-3.5c0.6-1,0.9-2.2,0.9-3.4c0-2.5-1.2-4.3-3.2-5.7c-1.1-0.7-2.3-1.1-3.7-1.1c-2.9,0-5,1.5-6.3,4.1
	C118.3,112.7,118.1,113.6,118.1,114.6z M124.6,104.2h0.5c4,0,7.1,2,9,5.5c0.8,1.4,1.2,2.9,1.2,4.5v0.7c0,3.8-1.9,6.8-5.1,8.7
	c-1.5,0.9-3.2,1.3-4.9,1.3h-0.7c-3.8,0-6.8-1.9-8.7-5.1c-0.9-1.5-1.3-3.2-1.3-4.9v-0.7c0-3.8,1.9-6.8,5.1-8.7
	C121.2,104.7,122.9,104.2,124.6,104.2z M95.3,114.6c0,2.7,1.3,4.8,3.7,6.1c1,0.5,2,0.8,3.1,0.8c2.7,0,4.7-1.3,6-3.5
	c0.6-1.1,0.9-2.2,0.9-3.4c0-2.4-1.1-4.2-3-5.6c-1.2-0.8-2.4-1.2-3.9-1.2c-2.9,0-5,1.5-6.3,4.1C95.5,112.7,95.3,113.6,95.3,114.6z
	 M109.1,106.8v-7.3c0-1,0.6-1.7,1.6-1.7h0.3c1,0,1.6,0.8,1.6,1.7v15.5c0,3.8-1.9,6.8-5.1,8.7c-1.5,0.9-3.2,1.3-4.9,1.3h-0.7
	c-3.8,0-6.8-1.9-8.7-5.1c-0.9-1.5-1.3-3.2-1.3-4.9v-0.7c0-3.8,1.9-6.8,5.1-8.7c1.5-0.9,3.2-1.3,4.9-1.3h0.7
	C105.1,104.2,107.3,105.2,109.1,106.8z"/>
<path fill="#EEEEE4" d="M35.5,207.7c-1.6-1.6-3.6-2.4-5.7-2.5h-5c0,2.2,1.8,3.9,3.9,3.9H30v0c1,0.1,2,0.6,2.8,1.3
	c1.8,1.8,1.8,4.8,0,6.6c-1.8,1.8-4.8,1.8-6.6,0c-0.8-0.8-1.2-1.8-1.3-2.8h0l0-5.1v-3.9h-3.9v3.9h-3.9V201c0-2.6-0.7-4.7-2.5-6.4
	c-3.3-3.3-8.8-3.3-12.1,0c-3.3,3.3-3.3,8.8,0,12.1c1.6,1.6,3.6,2.4,5.7,2.5h4.6c-2.6,0-4.7,0.7-6.4,2.5c-3.3,3.3-3.3,8.8,0,12.1
	c3.3,3.3,8.8,3.3,12.1,0c1.6-1.6,2.4-3.6,2.5-5.7v-4.6c0,2.6,0.7,4.7,2.5,6.4c3.3,3.3,8.8,3.3,12.1,0
	C38.9,216.5,38.9,211,35.5,207.7z M30,209.1L30,209.1L30,209.1L30,209.1z M8,205.2L8,205.2L8,205.2L8,205.2z M9.3,205.2H8v0
	c-1-0.1-2-0.6-2.8-1.3c-1.8-1.8-1.8-4.8,0-6.6s4.8-1.8,6.6,0c0.8,0.8,1.2,1.8,1.3,2.8h0v5.1v3.9C13.2,207,11.4,205.2,9.3,205.2z
	 M17.1,218.2L17.1,218.2L17.1,218.2L17.1,218.2z M17,216.9v1.2h0c-0.1,1-0.6,2-1.3,2.8c-1.8,1.8-4.8,1.8-6.6,0
	c-1.8-1.8-1.8-4.8,0-6.6c0.8-0.8,1.8-1.2,2.8-1.3v0H17h3.9C18.8,213,17,214.8,17,216.9z"/>
<path fill="#E84228" d="M31.7,190.6c-3.3-3.3-8.8-3.3-12.1,0c-1.6,1.6-2.4,3.6-2.5,5.7v5c2.2,0,3.9-1.7,3.9-3.9v-1.2h0
	c0.1-1,0.6-2,1.3-2.8c1.8-1.8,4.8-1.8,6.6,0c1.8,1.8,1.8,4.8,0,6.6c-0.8,0.8-1.8,1.2-2.8,1.3v0H21h-3.9v3.9h8.2
	c2.6,0,4.7-0.7,6.4-2.5C35,199.4,35,194,31.7,190.6z M21,196.2L21,196.2L21,196.2L21,196.2z"/>
<linearGradient id="SVGID_1_" gradientUnits="userSpaceOnUse" x1="5172.1978" y1="6006.1221" x2="5172.1978" y2="6011.7275" gradientTransform="matrix(1 0 0 1 -5157.0752 -5801.0527)">
	<stop  offset="0" style="stop-color:#413C39;stop-opacity:0"/>
	<stop  offset="0.1206" style="stop-color:#4A4542;stop-opacity:0.1206"/>
	<stop  offset="0.3172" style="stop-color:#615D5B;stop-opacity:0.3172"/>
	<stop  offset="0.5655" style="stop-color:#878482;stop-opacity:0.5655"/>
	<stop  offset="0.8529" style="stop-color:#BCBAB9;stop-opacity:0.8529"/>
	<stop  offset="1" style="stop-color:#D9D8D7"/>
</linearGradient>
<rect x="13.2" y="205.2" fill="url(#SVGID_1_)" width="3.9" height="3.9"/>
<linearGradient id="SVGID_2_" gradientUnits="userSpaceOnUse" x1="5177.0586" y1="5938.1382" x2="5177.0586" y2="5943.7417" gradientTransform="matrix(0 -1 1 0 -5921.2495 5388.1367)">
	<stop  offset="0" style="stop-color:#413C39;stop-opacity:0"/>
	<stop  offset="0.1206" style="stop-color:#4A4542;stop-opacity:0.1206"/>
	<stop  offset="0.3172" style="stop-color:#615D5B;stop-opacity:0.3172"/>
	<stop  offset="0.5655" style="stop-color:#878482;stop-opacity:0.5655"/>
	<stop  offset="0.8529" style="stop-color:#BCBAB9;stop-opacity:0.8529"/>
	<stop  offset="1" style="stop-color:#D9D8D7"/>
</linearGradient>
<rect x="17" y="209.1" fill="url(#SVGID_2_)" width="3.9" height="3.9"/>
<linearGradient id="SVGID_3_" gradientUnits="userSpaceOnUse" x1="5376.3823" y1="6099.7197" x2="5376.3823" y2="6105.3232" gradientTransform="matrix(0 1 -1 0 6120.8496 -5173.1182)">
	<stop  offset="0" style="stop-color:#413C39;stop-opacity:0"/>
	<stop  offset="0.1206" style="stop-color:#4A4542;stop-opacity:0.1206"/>
	<stop  offset="0.3172" style="stop-color:#615D5B;stop-opacity:0.3172"/>
	<stop  offset="0.5655" style="stop-color:#878482;stop-opacity:0.5655"/>
	<stop  offset="0.8529" style="stop-color:#BCBAB9;stop-opacity:0.8529"/>
	<stop  offset="1" style="stop-color:#D9D8D7"/>
</linearGradient>
<rect x="17.1" y="201.3" fill="url(#SVGID_3_)" width="3.9" height="3.9"/>
<linearGradient id="SVGID_4_" gradientUnits="userSpaceOnUse" x1="5255.665" y1="5958.3311" x2="5255.665" y2="5963.9365" gradientTransform="matrix(-1 0 0 -1 5278.5566 6167.6074)">
	<stop  offset="0" style="stop-color:#413C39;stop-opacity:0"/>
	<stop  offset="0.1206" style="stop-color:#4A4542;stop-opacity:0.1206"/>
	<stop  offset="0.3172" style="stop-color:#615D5B;stop-opacity:0.3172"/>
	<stop  offset="0.5655" style="stop-color:#878482;stop-opacity:0.5655"/>
	<stop  offset="0.8529" style="stop-color:#BCBAB9;stop-opacity:0.8529"/>
	<stop  offset="1" style="stop-color:#D9D8D7"/>
</linearGradient>
<rect x="20.9" y="205.2" fill="url(#SVGID_4_)" width="3.9" height="3.9"/>
<path fill="#E84228" d="M60.1,202.1l-3,2.5c-0.9-1-1.9-1.6-3.3-1.6c-2.2,0-3.9,1.7-3.9,4.3c0,2.6,1.7,4.3,3.9,4.3
	c1.3,0,2.5-0.6,3.4-1.6l3,2.6c-1.5,1.9-3.6,2.9-6.2,2.9c-4.9,0-8.3-3.5-8.2-8.2c0-4.7,3.3-8.2,8.3-8.2
	C56.5,199.2,58.7,200.2,60.1,202.1z"/>
<path fill="#E84228" d="M66.7,201.3c1.1-1.5,2.8-2.1,4.5-2.1c3.5,0,6,2.5,6,6.1l0,9.9H73v-8.5c0-2.2-1.1-3.5-3-3.5
	c-1.8,0-3.3,1.2-3.3,3.5v8.5l-4.2,0V192l4.2,0L66.7,201.3z"/>
<path fill="#E84228" d="M95.6,215.1h-4.1l0-1.7c-1,1.2-2.5,2.1-4.6,2.1c-4.3,0-7.5-3.5-7.5-8.2c0-4.7,3.2-8.2,7.5-8.2
	c2.1,0,3.6,0.9,4.6,2.1l0-1.7l4.1,0V215.1z M83.6,207.3c0,2.4,1.5,4.3,4,4.3c2.4,0,4-1.8,4-4.3c0-2.5-1.6-4.3-4-4.3
	C85.2,203.1,83.6,205,83.6,207.3z"/>
<path fill="#E84228" d="M110.6,203.3H105l0,5.7c0,1.9,1,2.6,2.3,2.6c1,0,2.1-0.5,2.9-1l1.2,3.5c-1.3,0.8-2.8,1.4-4.8,1.4
	c-3.8,0-5.8-2.2-5.8-6.2l0-6.1h-3v-3.7h3l0-3.3h4.2v3.3h4.4L110.6,203.3z"/>
<path fill="#EEEEE4" d="M130.6,210.5l3.4-10.9l4.4,0l-5.3,15.5l-4.8,0l-3.4-10.5l-3.4,10.5l-4.7,0l-5.2-15.5l4.4,0l3.3,10.8
	l3.5-10.8h4.4L130.6,210.5z"/>
<path fill="#EEEEE4" d="M155.3,207.4c0,4.7-3.6,8.2-8.4,8.2c-4.8,0-8.4-3.5-8.4-8.2c0-4.7,3.6-8.2,8.4-8.2
	C151.7,199.2,155.3,202.7,155.3,207.4z M142.8,207.3c0,2.5,1.8,4.3,4.1,4.3c2.4,0,4.1-1.8,4.1-4.3c0-2.5-1.8-4.3-4.1-4.3
	C144.5,203.1,142.8,204.8,142.8,207.3z"/>
<path fill="#EEEEE4" d="M168,199.5l-0.6,4.1c-0.7-0.3-1.7-0.5-2.5-0.5c-1.9,0-3.3,1.2-3.3,3.5v8.5l-4.2,0v-15.5l4.1,0l0,1.7
	c1-1.5,2.5-2.1,4.4-2.1C166.8,199.2,167.5,199.3,168,199.5z"/>
<path fill="#EEEEE4" d="M174.4,205.1l1.5,0l4.4-5.5h5.1l-6.1,7.3l6.2,8.2l-5.1,0l-4.5-6.3l-1.4,0v6.3h-4.2V192h4.2V205.1z"/>
<path id="path22_3_"  fill="#D33833" d="M276.2,205.5c0,11.2-8.9,20.3-19.8,20.3
	c-11,0-19.8-9.1-19.8-20.3c0-11.2,8.9-20.3,19.8-20.3C267.3,185.2,276.2,194.3,276.2,205.5"/>
<path id="path24_3_"  fill="#EF3D3A" d="M237.3,210.5c0,0-1.4-21.2,18.1-21.8l-1.4-2.3l-10.6,3.6
	l-3,3.5l-2.6,5.1l-1.5,5.9l0.5,3.9"/>
<path id="path26_3_"  fill="#231F20" d="M242.7,191.6c-3.5,3.6-5.6,8.5-5.6,13.9l0,0
	c0,5.4,2.2,10.4,5.6,13.9l0,0c3.5,3.6,8.3,5.8,13.6,5.8l0,0c5.3,0,10.1-2.2,13.6-5.8l0,0c3.5-3.6,5.6-8.5,5.6-13.9l0,0
	c0-5.4-2.2-10.4-5.6-13.9l0,0c-3.5-3.6-8.3-5.8-13.6-5.8l0,0C251,185.9,246.2,188.1,242.7,191.6L242.7,191.6z M241.9,220.3
	c-3.7-3.8-6-9-6-14.8l0,0c0-5.8,2.3-11,6-14.8l0,0c3.7-3.8,8.8-6.1,14.5-6.1l0,0c5.6,0,10.8,2.3,14.5,6.1l0,0c3.7,3.8,6,9,6,14.8
	l0,0c0,5.8-2.3,11-6,14.8l0,0c-3.7,3.8-8.8,6.1-14.5,6.1l0,0C250.7,226.5,245.6,224.1,241.9,220.3L241.9,220.3"/>
<path id="path28_3_"  fill="#F0D6B7" d="M264.7,205.6l-3,0.5l-4.1,0.5l-2.6,0.1l-2.6-0.1l-2-0.6
	l-1.7-1.9l-1.4-3.9l-0.3-0.8l-1.8-0.6l-1.1-1.7l-0.8-2.5l0.8-2.2l2-0.7l1.6,0.8l0.8,1.7l0.9-0.2l0.3-0.4l-0.3-1.7l-0.1-2.2l0.5-3
	l0-1.7l1.4-2.2l2.4-1.7l4.2-1.8l4.7,0.7l4.1,2.9l1.9,3l1.2,2.2l0.3,5.4l-0.9,4.7l-1.7,4.2l-1.6,2.2"/>
<path id="path30_3_"  fill="#335061" d="M262.1,218.7l-10.8,0.5v1.8l0.9,6.3l-0.5,0.5l-7.6-2.6
	l-0.5-0.9l-0.8-8.5l-1.7-5.1l-0.4-1.2l6-4.2l1.9-0.8l1.7,2l1.4,1.3l1.7,0.5l0.8,0.2l0.9,3.9l0.7,0.8l1.7-0.6l-1.2,2.3l6.6,3.1
	L262.1,218.7"/>
<path id="path32_3_"  fill="#6D6B6D" d="M244.2,192.3l2-0.7l1.6,0.8l0.8,1.7l0.9-0.2l0.2-0.9
	l-0.5-1.7l0.5-4.2l-0.4-2.3l1.4-1.6l2.9-2.3l-0.8-1.1l-4.2,2l-1.7,1.4l-1,2.1l-1.5,2l-0.5,2.4L244.2,192.3"/>
<path id="path34_3_"  fill="#DCD9D8" d="M247.3,185.2c0,0,1.1-2.8,5.7-4.2c4.5-1.4,0.2-1,0.2-1
	l-4.9,1.9l-1.9,1.9l-0.8,1.5L247.3,185.2"/>
<path id="path36_3_"  fill="#DCD9D8" d="M245,191.8c0,0-1.6-5.3,4.5-6l-0.2-0.9l-4.2,1l-1.2,3.9
	l0.3,2.6L245,191.8"/>
<path id="path38_3_"  fill="#F7E4CD" d="M247.4,198.8l1-1c0,0,0.4,0.1,0.5,0.6
	c0.1,0.5,0.3,5.3,3.6,7.9c0.3,0.2-2.4-0.4-2.4-0.4l-2.4-3.8"/>
<path id="path40_3_"  fill="#F7E4CD" d="M261.3,197.4c0,0,0.2-2.3,0.8-2.1c0.6,0.2,0.6,0.8,0.6,0.8
	S261.3,197,261.3,197.4"/>
<path id="path42_3_"  fill="#F7E4CD" d="M267.6,189c0,0-1.2,0.3-1.4,1.4c-0.1,1.1,1.4,0.2,1.6,0.2"
	/>
<path id="path44_3_"  fill="#F7E4CD" d="M258.5,189c0,0-1.7,0.2-1.7,1.3c0,1.1,1.9,1,2.4,0.5"/>
<path id="path46_3_"  fill="#F7E4CD" d="M248.2,194c0,0-2.9-1.7-3.2-0.1c-0.3,1.7-1,2.9,0.5,4.6
	l-1-0.3l-0.9-2.3l-0.3-2.3l1.7-1.8l2,0.2l1.1,0.9L248.2,194"/>
<path id="path48_3_"  fill="#F7E4CD" d="M249.6,189.2c0,0,1.3-6.6,7.8-7.9c5.3-1.1,8.2,0.2,9.2,1.4
	c0,0-4.8-5.7-9.3-3.9c-4.5,1.7-7.9,4.9-7.8,7C249.6,189.2,249.6,189.2,249.6,189.2"/>
<path id="path50_3_"  fill="#F7E4CD" d="M267.1,183.4c0,0-2.2-0.1-2.3,1.9c0,0,0,0.3,0.2,0.6
	c0,0,1.7-2,2.8-0.9"/>
<path id="path52_3_"  fill="#F7E4CD" d="M257.5,186.1c0,0-0.4-3-2.9-1.3c-1.7,1.1-1.5,2.7-1.2,3
	c0.3,0.3,0.2,0.9,0.5,0.5c0.2-0.4,0.2-1.8,1-2.2C255.6,185.9,257,185.4,257.5,186.1"/>
<path id="path54_3_"  fill="#49728B" d="M250.4,206.6l-7.1,3.2c0,0,2.9,11.7,1.4,15.3l-1.1-0.4
	l-0.1-4.5l-2-8.5l-0.8-2.3l7.4-5L250.4,206.6"/>
<path id="path56_3_"  fill="#49728B" d="M251.1,213l1,1.2v4.5h-1.2c0,0-0.2-3.2-0.2-3.6
	c0-0.4,0.2-1.7,0.2-1.7"/>
<path id="path58_3_"  fill="#49728B" d="M251.1,219.5l-3.4,0.2l1,0.7l2.4,0.4"/>
<path id="path60_3_"  fill="#335061" d="M262.8,218.7l2.8-0.1l0.7,7l-2.9,0.4L262.8,218.7"/>
<path id="path62_3_"  fill="#335061" d="M263.5,218.7l4.2-0.2c0,0,1.7-4.4,1.7-4.6s1.5-6.3,1.5-6.3
	l-3.4-3.6l-0.7-0.6l-1.8,1.8v7L263.5,218.7"/>
<path id="path64_3_"  fill="#49728B" d="M265.4,218.2l-2.6,0.5l0.4,2.1c1,0.5,2.6-0.8,2.6-0.8"/>
<path id="path66_3_"  fill="#49728B" d="M265.5,205l5.3,3.9l0.2-1.8l-4-3.7L265.5,205"/>
<path id="path68_3_"  fill="#FFFFFF" d="M253.8,233.6l-1.6-6.3l-0.8-4.7l-0.1-3.5l7.1-0.4l4.4,0
	l-0.4,7.9l0.7,6.1l-0.1,1.1l-5.7,0.5L253.8,233.6"/>
<path id="path70_3_"  fill="#DCD9D8" d="M261.8,218.7c0,0-0.4,7.9,0.8,13.4c0,0-2.3,1.4-5.6,1.8
	l6.3-0.2l0.8-0.5l-0.9-12.4l-0.2-2.6"/>
<path id="path72_3_"  fill="#FFFFFF" d="M266.4,225l2.9-0.8l5.6-0.3l0.8-2.6l-1.5-4.5l-1.7-0.2
	l-2.4,0.8l-2.3,1.1l-1.2-0.2l-1,0.4"/>
<path id="path74_3_"  fill="#DCD9D8" d="M266.3,223.5c0,0,2-0.9,2.3-0.8l-0.8-4.2l1-0.4
	c0,0,0.7,3.9,0.7,4.4c0,0,4.2,0.2,4.6,0.2c0,0,0.9-1.7,0.7-3.6l0.8,2.4l0.1,1.4l-1.2,1.8l-1.4,0.3l-2.3-0.1l-0.8-1l-2.6,0.4
	l-0.8,0.3"/>
<path id="path76_3_"  fill="#FFFFFF" d="M263.4,218.1l-1.7-4.2l-1.7-2.5c0,0,0.4-1.1,0.9-1.1
	s1.7,0,1.7,0l1.7,0.6l-0.2,2.8L263.4,218.1"/>
<path id="path78_3_"  fill="#DCD9D8" d="M263.7,216.7c0,0-2.1-4.1-2.1-4.7c0,0,0.4-0.9,0.9-0.7
	c0.5,0.2,1.7,0.8,1.7,0.8v-1.4l-2.6-0.5l-1.7,0.2l2.9,7l0.6,0.1"/>
<path id="path80_3_"  fill="#FFFFFF" d="M254.5,206.7l-2.1-0.2l-2-0.6v0.7l1,1.1l3,1.4"/>
<path id="path82_3_"  fill="#DCD9D8" d="M251.1,206.9c0,0,2.3,1,3.1,0.8l0.1,0.9l-2.1-0.5l-1.3-0.9
	L251.1,206.9"/>
<path id="path84_3_"  fill="#D33833" d="M266.4,210.6c-1.3,0-2.4-0.2-3.5-0.5
	c0.1-0.4-0.1-0.8,0-1.1c0.3-0.2,0.8-0.2,1.2-0.2c-0.4-0.2-0.9-0.3-1.3-0.1c0-0.3-0.1-0.5-0.2-0.7c0.7-0.3,2.4-1.9,3.4-1.4
	c0.5,0.3,0.6,1.8,0.7,2.5C266.7,209.7,266.6,210.3,266.4,210.6"/>
<path id="path86_3_"  fill="none" stroke="#D33833" stroke-width="2" d="M266.4,210.6
	c-1.3,0-2.4-0.2-3.5-0.5c0.1-0.4-0.1-0.8,0-1.1c0.3-0.2,0.8-0.2,1.2-0.2c-0.4-0.2-0.9-0.3-1.3-0.1c0-0.3-0.1-0.5-0.2-0.7
	c0.7-0.3,2.4-1.9,3.4-1.4c0.5,0.3,0.6,1.8,0.7,2.5C266.7,209.7,266.6,210.3,266.4,210.6z"/>
<path id="path88_3_"  fill="#D33833" d="M260.2,208.5c0,0.1,0,0.2,0,0.3c-0.4,0.3-1,0.3-1.5,0.5
	c0.6,0,1.2,0.2,1.6,0.4c0,0.2,0,0.5,0,0.7c-0.7,0.5-1.4,1.3-2.3,1.7c-0.4,0.2-1.8,0.8-2.3,0.7c-0.2-0.1-0.3-0.4-0.4-0.6
	c-0.2-0.6-0.7-1.6-0.7-2.5c-0.1-1.2-0.2-3.1,1.1-2.9c1,0.2,2.2,0.7,3,1.1C259.2,208.1,259.5,208.5,260.2,208.5"/>
<path id="path90_3_"  fill="none" stroke="#D33833" stroke-width="2" d="M260.2,208.5
	c0,0.1,0,0.2,0,0.3c-0.4,0.3-1,0.3-1.5,0.5c0.6,0,1.2,0.2,1.6,0.4c0,0.2,0,0.5,0,0.7c-0.7,0.5-1.4,1.3-2.3,1.7
	c-0.4,0.2-1.8,0.8-2.3,0.7c-0.2-0.1-0.3-0.4-0.4-0.6c-0.2-0.6-0.7-1.6-0.7-2.5c-0.1-1.2-0.2-3.1,1.1-2.9c1,0.2,2.2,0.7,3,1.1
	C259.2,208.1,259.5,208.5,260.2,208.5z"/>
<path id="path92_3_"  fill="#D33833" d="M261,209.9c-0.1-0.6-0.2-0.8-0.2-1.4
	C262.5,207.4,262.8,210.5,261,209.9"/>
<path id="path94_3_"  fill="none" stroke="#D33833" stroke-width="2" d="M261,209.9
	c-0.1-0.6-0.2-0.8-0.2-1.4C262.5,207.4,262.8,210.5,261,209.9z"/>
<path id="path96_3_"  fill="#EF3D3A" d="M263.4,210.4c0,0-0.5-0.8-0.2-1c0.4-0.2,0.8,0,1-0.4
	c0.2-0.4,0-0.6,0.1-1.1c0.1-0.5,0.5-0.5,0.8-0.6s1.4-0.2,1.6,0.2l-0.5-1.4l-0.9-0.3l-2.9,1.7l-0.2,0.8v1.7"/>
<path id="path98_3_"  fill="#EF3D3A" d="M255.5,212.9c-0.1-1.2-0.2-2.4-0.3-3.5
	c-0.2-1.8,0.4-1.5,1.9-1.5c0.2,0,1.4,0.3,1.5,0.5c0.4,0.8-0.7,0.7,0.5,1.3c1,0.5,2.7-0.3,2.3-1.5c-0.2-0.3-1.2-0.1-1.5-0.3
	c-0.6-0.3-1.2-0.6-1.8-0.9c-0.8-0.4-2.5-1-3.3-0.4c-2,1.4,0.1,4.8,0.9,6.3"/>
<path id="path100_3_"  fill="#231F20" d="M257.5,186.1c-2.1-0.5-3.1,0.9-3.7,2.3
	c-0.6-0.1-0.3-0.9-0.2-1.3c0.4-1,1.9-2.4,3.1-2.2C257.2,185,257.9,185.5,257.5,186.1"/>
<path id="path102_3_"  fill="#231F20" d="M267.5,188.5C267.6,188.5,267.6,188.5,267.5,188.5
	c0.6,1,1,2,1.6,2.8c-0.4,0.9-3,1.7-2.9,0.1c0.6-0.2,1.5,0,2-0.4C267.9,190.3,267.5,189.6,267.5,188.5"/>
<path id="path104_3_"  fill="#231F20" d="M258.6,188.5c0.4,0.8,0.6,1.7,1.2,2.3
	c0.3,0.3,0.8,0.6,0.6,1.4c-0.1,0.2-0.5,0.6-0.8,0.7c-1,0.3-3.3,0.1-2.5-1.2c0.8,0,1.9,0.5,2.5-0.1
	C259.1,190.9,258.2,189.4,258.6,188.5"/>
<path id="path106_3_"  fill="#231F20" d="M267.2,196.7c-1.5,0.9-3.1,2-5.5,1.7
	c-0.5-0.4-0.7-1.5-0.2-2.1c0.3,0.4,0.1,1.3,0.8,1.4c1.4,0.2,3-0.8,4-1.2c0.6-1-0.1-1.4-0.6-2.1c-1.1-1.4-2.6-3.1-2.6-5.1
	c0.5-0.3,0.5,0.5,0.6,0.7c0.6,1.4,2.1,3.1,3.2,4.3c0.3,0.3,0.7,0.6,0.8,0.8C267.6,195.7,267.1,196.4,267.2,196.7"/>
<path id="path108_3_"  fill="#231F20" d="M247.7,195.7c-0.5-0.3-0.6-1.4-1.1-1.5
	c-0.8,0-0.6,1.5-0.6,2.4c-0.5-0.5-0.6-2-0.2-2.7c-0.4-0.2-0.6,0.2-0.9,0.4C245.1,192,248.2,193.3,247.7,195.7"/>
<path id="path110_3_"  fill="#231F20" d="M268.1,197.7c-0.7,1.3-1.7,2.8-3.7,2.8
	c0-0.4-0.1-1.1,0-1.3C266,199,266.9,198.2,268.1,197.7"/>
<path id="path112_3_"  fill="#231F20" d="M258.4,198.6c1.3,0.7,3.7,0.7,5.4,0.7
	c0.1,0.4,0.1,0.9,0.1,1.3C261.7,200.7,259,200.1,258.4,198.6"/>
<path id="path114_3_"  fill="#231F20" d="M258.2,199.8c0.9,2.2,3.9,2,6.5,1.9
	c-0.1,0.3-0.4,0.6-0.7,0.8c-0.8,0.3-3.1,0.6-4.3,0c-0.7-0.4-1.2-1.3-1.6-1.8C258,200.5,257.1,199.8,258.2,199.8"/>
<path id="path116_3_"  fill="#81B0C4" d="M267.1,212.1c-1,1.8-2,3.6-3.3,5.2c0.5-1.5,0.7-4.1,0.8-6
	C265.7,210.8,266.6,211.4,267.1,212.1"/>
<path id="path118_3_"  fill="#231F20" d="M272.7,218.6c-1.2,0.2-2,1.4-3.1,1.3
	C270.2,219,271.3,218.6,272.7,218.6"/>
<path id="path120_3_"  fill="#231F20" d="M273.2,220.4c-1,0.1-2.1,0.3-3,0.2
	C270.6,219.9,272.4,220.1,273.2,220.4"/>
<path id="path122_3_"  fill="#231F20" d="M273.5,222c-1.1,0-2.4,0-3.4-0.1
	C270.7,221.3,272.8,221.7,273.5,222"/>
<path id="path124_3_"  fill="#DCD9D8" d="M265,226.3c0.2,1.3,0.7,2.7,0.6,4.2
	c-0.6,0.2-0.9,0.4-1.7,0.4c-0.1-1.3-0.2-3.2-0.2-4.4C264.2,226.5,264.7,226.2,265,226.3"/>
<path id="path126_3_"  fill="#F0D6B7" d="M263.3,206.5c-0.5,0.4-1,0.8-1.5,1.2
	c-1.1,0.1-1.8-0.1-2.6-0.7c0-0.1,0.1,0,0.1-0.1C260.5,207.4,262.1,206.6,263.3,206.5"/>
<path id="path128_3_"  fill="#81B0C4" d="M256.9,214.8c0.3-1.5,1.7-2.2,2.9-3
	c1.2,1.6,2,3.6,2.8,5.5C260.6,216.8,258.6,215.8,256.9,214.8"/>
<path id="path130_3_"  fill="#231F20" d="M263.8,226.5c-0.1,1.2,0.1,3.1,0.2,4.4
	c0.8,0,1.1-0.2,1.7-0.4c0.1-1.5-0.5-2.8-0.6-4.2C264.7,226.2,264.2,226.5,263.8,226.5z M251.4,219.7c0.5,4.8,1.3,8.9,2.7,13.1
	c3.1,0.9,6.8,1,9.5,0.2c-0.5-2.4-0.3-5.3-0.6-7.9c-0.2-1.9-0.1-3.9-0.4-5.8C259.3,218.6,254.6,219.1,251.4,219.7z M263.4,219.3
	c0,2.1,0.1,4.1,0.3,6.2c0.8-0.1,1.3-0.2,2.1-0.4c-0.2-2-0.2-4.2-0.7-6C264.5,219.1,264,219.1,263.4,219.3z M267.4,219
	c-0.4-0.1-0.8,0-1.2,0c0.2,1.7,0.6,3.5,0.7,5.3c0.6,0,0.9-0.2,1.3-0.3C268.3,222.4,268.2,220.2,267.4,219L267.4,219z M273.5,224.5
	c1.2-0.3,1.9-1.7,1.6-3.2c-0.2-1-0.6-2.9-1-3.5c-0.3-0.5-1.2-1.1-1.8-0.7c-1.1,0.7-3,0.9-3.8,1.8c0.4,1.3,0.5,3.2,0.7,4.9
	c1.4,0.1,3.1-0.4,4.2,0.1c-0.8,0.3-1.8,0.3-2.5,0.6C271.3,224.8,272.7,224.7,273.5,224.5L273.5,224.5z M262.5,217.4
	c-0.8-1.9-1.6-4-2.8-5.5c-1.2,0.8-2.5,1.6-2.9,3C258.6,215.8,260.6,216.8,262.5,217.4z M264.6,211.3c-0.1,1.9-0.3,4.5-0.8,6
	c1.2-1.6,2.2-3.4,3.3-5.2C266.6,211.4,265.7,210.8,264.6,211.3z M262.3,210.5c-0.5-0.1-0.9,0.5-1.5,0.3c-0.1,0.2-0.3,0.3-0.4,0.5
	c1.3,1.6,2,3.9,3,5.8c0.6-1.8,0.5-3.8,0.6-5.8C263.2,211.3,262.8,210.6,262.3,210.5z M260.8,208.5c-0.1,0.6,0.1,0.7,0.2,1.4
	C262.8,210.5,262.5,207.4,260.8,208.5z M258.8,207.9c-0.8-0.4-2-0.9-3-1.1c-1.3-0.2-1.1,1.7-1.1,2.9c0,0.9,0.5,1.9,0.7,2.5
	c0.1,0.3,0.1,0.6,0.4,0.6c0.4,0.1,1.9-0.5,2.3-0.7c0.9-0.5,1.5-1.2,2.3-1.7c0-0.2,0-0.5,0-0.7c-0.4-0.2-1-0.4-1.6-0.4
	c0.4-0.2,1.1-0.2,1.5-0.5c0-0.1,0-0.2,0-0.3C259.5,208.5,259.2,208.1,258.8,207.9z M251.2,206.5c-0.7,0.7,1.8,1.6,2.6,1.6
	c0-0.4,0.2-0.8,0.2-1.1C253.1,206.8,251.9,206.9,251.2,206.5z M259.3,206.8c0,0.1-0.1,0-0.1,0.1c0.8,0.7,1.5,0.8,2.6,0.7
	c0.5-0.4,1-0.8,1.5-1.2C262.1,206.6,260.5,207.4,259.3,206.8z M266.7,209.1c0-0.7-0.2-2.3-0.7-2.5c-1-0.6-2.7,1.1-3.4,1.4
	c0.1,0.2,0.2,0.4,0.2,0.7c0.4-0.1,0.9,0,1.3,0.1c-0.4,0-0.9,0-1.2,0.2c-0.1,0.3,0,0.7,0,1.1c1,0.3,2.2,0.4,3.5,0.5
	C266.6,210.3,266.7,209.7,266.7,209.1z M250.1,207.1c-0.2-0.1-1.6-2-1.8-1.9c-2.5,1-4.9,2.7-7,4.3c2,4.3,2.8,9.6,3,14.6
	c2.3,1.1,4.3,2.6,7.4,2.8c-0.4-2.5-0.7-4.8-0.9-7.2c-0.8-0.3-1.9,0-2.6-0.1c0-0.9,1.1-0.4,1.2-1c0.1-0.4-0.6-0.5-0.4-1.2
	c0.6,0.2,0.9,0.7,1.5,0.8c0.6-1.2,0-3.4,0.1-4.4c0-0.2,0.1-1.1,0.5-0.9c0.4,0.1,0,2.3,0,3.3c0,0.9-0.1,1.8,0.3,2.3
	c3-0.4,6.1-0.7,9.3-0.8c-0.7-0.3-1.6-0.6-2.5-1.1c-0.5-0.3-2.1-0.9-2.2-1.4c-0.2-0.8,0.6-1.2,0.8-1.8c-1.5,0.8-1.8-0.8-2.2-1.9
	c-0.3-1-0.5-1.8-0.6-2.4C252.7,208.6,251.3,207.9,250.1,207.1L250.1,207.1z M265.4,205.5c2.1-1,2.5,3.8,1.7,5.3
	c0.1,0.5,0.6,0.6,0.7,1.1c-1.2,2.1-2.5,4-3.7,6.1c0.9-0.6,2.2-0.1,3.2-0.5c0.4-0.2,0.7-1,0.9-1.7c0.8-1.9,1.6-4.3,2-6.2
	c0.1-0.4,0.3-1.3,0.3-1.7c-0.1-0.7-1-1.2-1.5-1.6c-0.8-0.8-1.4-1.4-2.3-2.1C266.4,204.7,265.6,205,265.4,205.5L265.4,205.5z
	 M245.3,186.9c-1,1.1-0.8,3.2-0.7,4.6c1.8-1.1,4.2,0.1,4.2,2c0.9,0,0.3-1.1,0.2-1.8c-0.5-2.2,0.9-4.6,0.1-6.6
	C247.5,185.3,246.3,185.9,245.3,186.9L245.3,186.9z M252.5,180.5c-2.3,0.6-5.2,2.3-6.1,4.3c0.7-0.1,1.2-0.5,1.9-0.5
	c0.3,0,0.6,0.1,0.9,0c0.6-0.2,1.1-1.5,1.6-2c0.5-0.5,1-0.7,1.4-1.2c0.2-0.1,0.6-0.1,0.6-0.5C252.7,180.6,252.6,180.5,252.5,180.5z
	 M264.2,181.1c-2.3-1.3-6.3-2.3-8.8-1.1c-2,1-4.7,2.7-5.7,4.8c0.9,2-0.3,3.9-0.3,6c0,1.1,0.5,2.1,0.6,3.2c-0.3,0.5-1.2,0.5-1.8,0.5
	c-0.2-1.1-0.6-2.2-1.7-2.4c-1.5-0.2-2.7,1.1-2.7,2.4c-0.1,1.6,1.2,4.2,3,4c0.7-0.1,0.9-0.8,1.6-0.8c0.4,0.8-0.6,1.1-0.7,1.7
	c0,0.2,0.1,0.8,0.2,1c0.3,1.4,1.1,3.1,1.8,4.2c0.9,1.3,2.7,1.5,4.7,1.6c0.3-0.7,1.6-0.7,2.5-0.5c-1-0.4-1.9-1.4-2.7-2.2
	c-0.9-1-1.8-2-1.8-3.3c1.7,2.3,3.1,4.4,6.1,5.4c2.3,0.8,5-0.4,6.8-1.6c0.7-0.5,1.2-1.3,1.7-2.1c2-2.8,2.9-6.8,2.7-10.7
	c-0.1-1.6-0.1-3.2-0.6-4.3c-0.6-1.1-2.5-2.1-3.6-1.1c-0.2-1.1,0.9-1.8,2.3-1.4C266.6,183.4,265.6,181.9,264.2,181.1L264.2,181.1z
	 M268.6,217.3c1.8-0.9,5.3-2.5,6.4,0c0.4,0.9,0.9,2.4,1.1,3.4c0.3,1.3-0.3,4.1-1.7,4.5c-1.2,0.4-2.6,0.4-4,0.1
	c-0.2-0.1-0.4-0.4-0.5-0.6c-1,0-2,0.1-2.8,0.5c0.1,0.8-0.4,0.9-0.9,1c-0.4,1.4,0.7,3.3,0.5,4.6c-0.2,0.9-1.3,1.1-2.2,1.2
	c0,0.5,0,0.9,0.1,1.4c-0.2,0.7-1,1.1-1.9,1.2c-2.7,0.3-6.7,0.5-9.3-0.5c-0.7-1.8-1.3-3.9-1.9-5.9c-2.5,0.3-4.5-1.1-6.4-2
	c-0.7-0.3-1.6-0.5-1.8-1c-0.2-0.5-0.1-1.5-0.2-2.4c-0.2-2.4-0.3-4.6-0.9-7c-0.3-1.1-0.8-2-1.1-3.1c-0.3-1-0.9-2.2-1-3.1
	c-0.2-1.4,1.1-1.5,2-2.1c1.3-1,2.4-1.5,3.8-2.3c0.4-0.3,1.7-0.9,1.9-1.2c0.3-0.6-0.5-1.4-0.7-1.9c-0.3-0.7-0.5-1.4-0.6-2.1
	c-1.2-0.2-2.1-0.9-2.7-1.7c-0.9-1.3-1.5-3.8-0.8-5.7c0.1-0.1,0.4-0.4,0.4-0.7c0.1-0.4-0.2-1-0.2-1.5c-0.1-2.5,0.4-4.6,2.1-5.3
	c0.7-2.7,3.1-3.6,5.3-4.9c0.8-0.5,1.8-0.8,2.7-1.2c3.4-1.3,8.7-1,11.6,1.1c1.2,0.9,3.2,2.9,3.8,4.3c1.8,3.7,1.7,9.9,0.4,14.4
	c-0.2,0.6-0.4,1.5-0.8,2.2c-0.2,0.5-1,1.5-0.9,2c0.1,0.5,1.7,1.7,2.1,2c0.6,0.6,1.8,1.4,1.9,2.2c0.1,0.8-0.4,1.9-0.6,2.7
	C270.3,212.5,269.5,215,268.6,217.3"/>
<path id="path132_3_"  fill="#F7E4CD" d="M256.4,199.1c0.1-0.1,0.6-0.3,1.4,0c0,0-0.9,0.2-0.8,1.7
	l-0.4-0.1C256.6,200.8,256.2,199.4,256.4,199.1"/>
<path id="path134_3_"  fill="#1D1919" d="M263,212.1c0,0.2-0.2,0.4-0.4,0.4c-0.2,0-0.4-0.2-0.4-0.4
	c0-0.2,0.2-0.4,0.4-0.4C262.8,211.7,263,211.9,263,212.1"/>
<path id="path136_3_"  fill="#1D1919" d="M263.4,214c0,0.2-0.2,0.4-0.4,0.4c-0.2,0-0.4-0.2-0.4-0.4
	c0-0.2,0.2-0.4,0.4-0.4C263.2,213.6,263.4,213.8,263.4,214"/>
<path fill="#FFFFFF" d="M307,197.1c-0.4,0.1-0.8,0.1-1.1,0.2c-0.3,0.1-0.6,0.1-1,0.2c-0.4,0.1-0.7,0.3-0.8,0.6
	c-0.1,0.3-0.2,0.6-0.2,1v12.5c0,1.1-0.2,2.2-0.7,3.2c-0.5,1-1.1,1.8-1.9,2.4c-0.8,0.6-1.7,1.1-2.7,1.4s-2.1,0.5-3.2,0.5
	c-2,0-3.6-0.5-4.8-1.4c-1.2-1-1.8-2.3-1.8-3.9c0-1,0.3-1.8,0.8-2.5c0.6-0.6,1.3-1,2.3-1c0.9,0,1.7,0.3,2.2,0.8
	c0.5,0.5,0.8,1.2,0.8,2c0,0.7-0.2,1.3-0.7,1.9s-1,1.1-1.6,1.6v0.2c0.1,0.2,0.3,0.4,0.6,0.5c0.3,0.1,0.6,0.2,1,0.2
	c1.3,0,2.3-0.5,3-1.4c0.7-0.9,1.1-2.3,1.1-4.1v-12.8c0-0.4-0.1-0.7-0.2-1c-0.1-0.3-0.4-0.5-0.8-0.7c-0.3-0.1-0.7-0.3-1.2-0.4
	c-0.5-0.1-0.8-0.2-1.1-0.2v-1.2H307V197.1z"/>
<path fill="#FFFFFF" d="M325.9,214.7c-0.4,0.6-0.8,1.2-1.3,1.7s-1.1,1-1.8,1.4c-0.7,0.4-1.4,0.7-2.2,0.9c-0.7,0.2-1.6,0.3-2.5,0.3
	c-1.6,0-2.9-0.2-4.1-0.7s-2.1-1-2.8-1.8c-0.7-0.8-1.3-1.6-1.7-2.7s-0.5-2.1-0.5-3.3c0-1.1,0.2-2.1,0.6-3.1c0.4-1,1-1.9,1.7-2.7
	c0.7-0.8,1.6-1.4,2.7-1.8s2.3-0.7,3.7-0.7c1.5,0,2.7,0.2,3.7,0.5s1.7,0.9,2.4,1.5c0.6,0.6,1,1.3,1.3,2.1c0.3,0.8,0.4,1.7,0.4,2.6v1
	h-10.8c0,2.2,0.4,3.8,1.3,5c0.8,1.1,2.2,1.7,4,1.7c1,0,1.9-0.3,2.7-0.8c0.8-0.5,1.5-1.2,2-2.1L325.9,214.7z M319.8,208.7
	c0-0.6,0-1.3-0.1-2c-0.1-0.7-0.2-1.2-0.3-1.6c-0.2-0.5-0.4-0.9-0.7-1.1c-0.3-0.3-0.7-0.4-1.2-0.4c-0.8,0-1.5,0.4-2,1.2
	s-0.8,2.1-0.8,3.9L319.8,208.7z"/>
<path fill="#FFFFFF" d="M348.4,218.5h-9.6v-1.2c0.2,0,0.4,0,0.7-0.1s0.5-0.1,0.7-0.2c0.2-0.1,0.4-0.3,0.5-0.5c0.1-0.2,0.1-0.6,0.1-1
	v-7.5c0-1.1-0.2-1.9-0.6-2.4c-0.4-0.5-1-0.8-1.8-0.8c-0.4,0-0.8,0.1-1.2,0.2s-0.7,0.3-1.1,0.6c-0.3,0.2-0.6,0.4-0.7,0.7
	c-0.2,0.2-0.3,0.4-0.5,0.6v8.6c0,0.4,0.1,0.7,0.2,0.9c0.1,0.2,0.3,0.4,0.5,0.6c0.2,0.1,0.4,0.2,0.6,0.3c0.3,0.1,0.5,0.1,0.8,0.2v1.2
	h-9.7v-1.2c0.3,0,0.5-0.1,0.8-0.1c0.3,0,0.5-0.1,0.7-0.2c0.3-0.1,0.6-0.3,0.7-0.5c0.1-0.2,0.2-0.6,0.2-1v-9.3c0-0.3-0.1-0.7-0.3-1
	c-0.2-0.3-0.4-0.6-0.7-0.8c-0.2-0.1-0.4-0.2-0.7-0.3s-0.6-0.1-1-0.2v-1.2l7.6-0.4l0.2,0.2v2.3h0.1c0.3-0.3,0.7-0.6,1.1-1
	c0.4-0.4,0.8-0.7,1.2-0.9c0.4-0.3,0.9-0.5,1.5-0.7s1.3-0.3,2-0.3c1.7,0,3,0.5,3.9,1.5c0.9,1,1.3,2.3,1.3,3.9v7.8
	c0,0.4,0.1,0.7,0.2,0.9c0.1,0.2,0.3,0.4,0.7,0.6c0.2,0.1,0.4,0.1,0.6,0.2c0.2,0.1,0.5,0.1,0.9,0.2V218.5z"/>
<path fill="#FFFFFF" d="M370.4,218.5h-7.5c-0.9-1.6-1.8-3-2.5-4.1c-0.8-1.1-1.5-2.2-2.2-3.1l-0.9,0.8v3.5c0,0.4,0.1,0.7,0.2,0.9
	c0.1,0.2,0.3,0.4,0.6,0.5c0.2,0.1,0.4,0.2,0.7,0.2c0.3,0.1,0.5,0.1,0.8,0.1v1.2h-9.9v-1.2c0.3,0,0.5-0.1,0.8-0.1s0.5-0.1,0.7-0.2
	c0.3-0.1,0.6-0.3,0.7-0.5s0.2-0.6,0.2-1v-17.8c0-0.4-0.1-0.7-0.2-1.1s-0.4-0.7-0.7-0.9c-0.2-0.1-0.5-0.2-0.9-0.3
	c-0.4-0.1-0.8-0.1-1.1-0.2v-1.2l7.9-0.4l0.2,0.3v16.4c0.8-0.7,1.7-1.5,2.7-2.4c1-0.9,1.8-1.7,2.4-2.3c0.4-0.4,0.5-0.6,0.6-0.8
	s0.1-0.3,0.1-0.3c0-0.2-0.2-0.4-0.5-0.5c-0.3-0.1-0.8-0.2-1.5-0.3v-1.1h8.1v1.1c-1.1,0.3-1.9,0.6-2.4,0.8c-0.6,0.3-1.2,0.6-1.8,1
	c-0.4,0.3-0.9,0.6-1.3,0.9s-0.9,0.7-1.4,1.2c1,1.5,2,2.9,2.9,4.2c0.9,1.3,1.8,2.6,2.8,4.1c0.3,0.5,0.7,0.8,1.2,1s1,0.3,1.5,0.3
	V218.5z"/>
<path fill="#FFFFFF" d="M380.6,218.5h-10.1v-1.2c0.3,0,0.5,0,0.8-0.1s0.5-0.1,0.7-0.2c0.3-0.1,0.6-0.3,0.7-0.5
	c0.1-0.2,0.2-0.6,0.2-0.9v-9.3c0-0.4-0.1-0.7-0.3-1c-0.2-0.3-0.4-0.5-0.6-0.7c-0.2-0.1-0.5-0.2-0.9-0.4c-0.4-0.1-0.7-0.2-1.1-0.2
	v-1.2l7.8-0.4l0.2,0.2v12.7c0,0.4,0.1,0.7,0.2,0.9c0.2,0.3,0.4,0.5,0.7,0.6c0.2,0.1,0.4,0.2,0.7,0.3c0.3,0.1,0.5,0.1,0.8,0.2V218.5z
	 M378.3,196.8c0,0.8-0.3,1.5-0.9,2.1c-0.6,0.6-1.4,0.9-2.2,0.9c-0.9,0-1.6-0.3-2.2-0.9s-0.9-1.3-0.9-2.1s0.3-1.5,0.9-2.1
	c0.6-0.6,1.4-0.9,2.2-0.9c0.9,0,1.6,0.3,2.2,0.9C378,195.3,378.3,196,378.3,196.8z"/>
<path fill="#FFFFFF" d="M403.1,218.5h-9.6v-1.2c0.2,0,0.4,0,0.7-0.1c0.3,0,0.5-0.1,0.7-0.2c0.2-0.1,0.4-0.3,0.5-0.5
	c0.1-0.2,0.1-0.6,0.1-1v-7.5c0-1.1-0.2-1.9-0.6-2.4c-0.4-0.5-1-0.8-1.8-0.8c-0.4,0-0.8,0.1-1.2,0.2s-0.7,0.3-1.1,0.6
	c-0.3,0.2-0.6,0.4-0.7,0.7c-0.2,0.2-0.3,0.4-0.5,0.6v8.6c0,0.4,0.1,0.7,0.2,0.9c0.1,0.2,0.3,0.4,0.5,0.6c0.2,0.1,0.4,0.2,0.6,0.3
	c0.3,0.1,0.5,0.1,0.7,0.2v1.2h-9.7v-1.2c0.3,0,0.5-0.1,0.8-0.1s0.5-0.1,0.7-0.2c0.3-0.1,0.6-0.3,0.7-0.5s0.2-0.6,0.2-1v-9.3
	c0-0.3-0.1-0.7-0.3-1c-0.2-0.3-0.4-0.6-0.7-0.8c-0.2-0.1-0.4-0.2-0.7-0.3c-0.3-0.1-0.6-0.1-1-0.2v-1.2l7.6-0.4l0.2,0.2v2.3h0.1
	c0.3-0.3,0.7-0.6,1.1-1c0.4-0.4,0.8-0.7,1.2-0.9c0.4-0.3,0.9-0.5,1.5-0.7c0.6-0.2,1.3-0.3,2-0.3c1.7,0,3,0.5,3.9,1.5
	c0.9,1,1.3,2.3,1.3,3.9v7.8c0,0.4,0.1,0.7,0.2,0.9s0.3,0.4,0.7,0.6c0.2,0.1,0.4,0.1,0.6,0.2c0.2,0.1,0.5,0.1,0.9,0.2V218.5z"/>
<path fill="#FFFFFF" d="M412,219.1c-1,0-2-0.2-3-0.5s-1.7-0.6-2.3-1l-0.5,1.1H405l-0.2-5.9h1.2c0.2,0.5,0.4,1,0.8,1.6
	c0.4,0.6,0.8,1.1,1.3,1.6c0.5,0.5,1.1,0.9,1.7,1.2s1.3,0.5,2.1,0.5c1,0,1.7-0.2,2.2-0.6s0.7-1,0.7-1.7c0-0.4-0.1-0.8-0.3-1.1
	c-0.2-0.3-0.5-0.5-0.9-0.7c-0.4-0.2-0.9-0.4-1.4-0.5c-0.5-0.1-1.1-0.3-1.8-0.5c-0.7-0.2-1.3-0.4-1.9-0.6s-1-0.6-1.6-1
	c-0.5-0.4-0.9-0.9-1.1-1.5c-0.3-0.6-0.4-1.3-0.4-2.1c0-1.5,0.6-2.7,1.9-3.6c1.3-0.9,2.9-1.4,4.9-1.4c1,0,1.9,0.1,2.7,0.3
	c0.8,0.2,1.5,0.4,2,0.6l0.3-0.9h1.2l0.3,5.4h-1.1c-0.4-1.1-1-2.1-1.9-2.9c-0.9-0.8-1.9-1.2-2.9-1.2c-0.8,0-1.5,0.2-1.9,0.5
	c-0.5,0.3-0.7,0.8-0.7,1.4c0,0.8,0.3,1.4,1,1.8c0.7,0.4,1.6,0.7,2.9,1c1.9,0.5,3.3,1.2,4.2,2c0.9,0.8,1.3,1.9,1.3,3.2
	c0,1.7-0.7,3.1-2,4S414.2,219.1,412,219.1z"/>
<path fill="#FFFFFF" d="M232.7,309.8c-4.1,0-7.4,3.3-7.4,7.4v2.2c0,4.1,3.3,7.4,7.4,7.4h4.7v-2.7h-4.7c-2.5,0-4.6-2-4.7-4.5h9.6
	c1.3,0,2.4-1.1,2.4-2.4C240.1,313.1,236.8,309.8,232.7,309.8z M228,317c0.1-2.5,2.2-4.5,4.7-4.5s4.6,2,4.7,4.5H228z"/>
<path fill="#FFFFFF" d="M189.1,306.2c-1,1.1-1.6,2.5-1.6,4v0.4H186v2.7h1.5v13.6h2.7v-13.6h3.6v-2.7h-3.6v-0.4c0-1.6,1.3-3,2.9-3h2
	v-2.7h-2C191.6,304.4,190.2,305.1,189.1,306.2z"/>
<rect x="199.3" y="304.4" fill="#FFFFFF" width="2.7" height="22.4"/>
<path fill="#FFFFFF" d="M218.2,319.9c0,2.3-1.9,4.2-4.2,4.2s-4.2-1.9-4.2-4.2v-10.1h-2.7v10.1c0,3.8,3.1,6.9,6.9,6.9
	s6.9-3.1,6.9-6.9v-10.1h-2.7V319.9z"/>
<path fill="#FFFFFF" d="M249.7,309.8c-3.8,0-6.9,3.1-6.9,6.9v10.1h2.7v-10.1c0-2.3,1.9-4.2,4.2-4.2s4.2,1.9,4.2,4.2v10.1h2.7v-10.1
	C256.6,312.9,253.5,309.8,249.7,309.8z"/>
<path fill="#FFFFFF" d="M264.3,321.1v-8.6h3.6v0v-2.7h-3.6v-5.4h-2.7v5.4h-2.4v2.7h2.4v8.6c0,3.1,2.5,5.6,5.6,5.6h1.2V324h-1.2
	C265.6,324,264.3,322.7,264.3,321.1z"/>
<path fill="#FFFFFF" d="M281.8,304.4v6.8c-1.2-0.9-2.6-1.4-4.2-1.4c-3.8,0-6.9,3.1-6.9,6.9v1.1v0.4v1.7c0,3.8,3.1,6.9,6.9,6.9
	c3.8,0,6.9-3.1,6.9-6.9v-0.5v-1.2v-0.4v-1.1v-12.3L281.8,304.4L281.8,304.4z M281.8,318.2v1.2v0.5c0,2.3-1.9,4.2-4.2,4.2
	s-4.2-1.9-4.2-4.2v-1.7v-0.4v-1.1c0-2.3,1.9-4.2,4.2-4.2s4.2,1.9,4.2,4.2v1.1V318.2z"/>
<linearGradient id="SVGID_5_" gradientUnits="userSpaceOnUse" x1="130.2109" y1="-581.1444" x2="195.0016" y2="-581.1444" gradientTransform="matrix(1 0 0 1 0 884)">
	<stop  offset="0" style="stop-color:#2A59A2"/>
	<stop  offset="1" style="stop-color:#2A59A2"/>
</linearGradient>
<path fill="url(#SVGID_5_)" d="M194.7,298.9c-0.3,0-0.9,0-1.2,0c-2.1,0-6.1,0.2-9.8,3.4c-8.7,7.6-10.7,18.8-25.7,24.9
	c-12.5,5-27.8,0.3-27.8,0.3s13.7-1,15.5-11.5c1.4-8.2-6-14.1-10.7-21.5c-4.8-7.6-6-13.9-3.7-16.6c6.5-7.7,24.3,13.1,33.2,16
	c8.7,2.7,14.5-3.6,21.7-2.7c2.3,0.3,3.4,1.3,4.2,2.6c0.2,0.4,0.9,1.9,1.4,2.4c0.5,0.5,1.3,0.9,1.9,1.3
	C194.6,298,195.5,298.9,194.7,298.9z"/>
<linearGradient id="SVGID_6_" gradientUnits="userSpaceOnUse" x1="127.5884" y1="-592.2894" x2="196.1227" y2="-592.2894" gradientTransform="matrix(1 0 0 1 0 884)">
	<stop  offset="0" style="stop-color:#91D3F2"/>
	<stop  offset="0.2664" style="stop-color:#6FB2DE"/>
	<stop  offset="0.5214" style="stop-color:#5598CE"/>
	<stop  offset="0.6729" style="stop-color:#4B8FC8"/>
</linearGradient>
<path fill="url(#SVGID_6_)" d="M153.6,286.9c-2.1-1.6-4.4-3.4-6.5-4.9l0,0c-0.5-0.4-1-0.7-1.5-1l0,0c-5.8-4-11.3-6.6-14.2-3
	c-2.3,2.7-1.1,9,3.7,16.6c0.1,0.1,0.1,0.2,0.1,0.2c2.5,3.9,9.7,12.9,26.7,12.5c1.1-1.2,2.8-3.5,5-5.9
	C163.3,295.5,157.9,290.4,153.6,286.9z"/>
<linearGradient id="SVGID_7_" gradientUnits="userSpaceOnUse" x1="130.2109" y1="-565.9464" x2="195.4793" y2="-565.9464" gradientTransform="matrix(1 0 0 1 0 884)">
	<stop  offset="0" style="stop-color:#2C9EC7"/>
	<stop  offset="0.4037" style="stop-color:#2C63A5"/>
	<stop  offset="1" style="stop-color:#395DA1"/>
</linearGradient>
<path fill="url(#SVGID_7_)" d="M170.8,314.2c0.1-2.6-0.4-5.1-1.3-7.6c-2.2,0.3-4.8,0.6-7.6,0.6c-2.1,2.2-6.8,8.2-14.7,13.6
	c-10.5,7.2-16.9,6.7-16.9,6.7s15.4,4.8,27.8-0.3c4.5-1.8,7.8-4.1,10.5-6.6C168.9,320.2,170.7,318,170.8,314.2z"/>
<linearGradient id="SVGID_8_" gradientUnits="userSpaceOnUse" x1="130.2089" y1="-579.7396" x2="195.4773" y2="-579.7396" gradientTransform="matrix(1 0 0 1 0 884)">
	<stop  offset="0" style="stop-color:#4FAAC4"/>
	<stop  offset="1.554530e-03" style="stop-color:#2F75B1"/>
	<stop  offset="1" style="stop-color:#356EAC"/>
</linearGradient>
<path fill="url(#SVGID_8_)" d="M166.9,301.3c-2.2,2.5-3.9,4.7-5,5.9c2.9-0.1,5.4-0.3,7.6-0.6c-0.3-0.7-0.6-1.5-0.9-2.2
	C168.1,303.4,167.5,302.3,166.9,301.3z"/>
<linearGradient id="SVGID_9_" gradientUnits="userSpaceOnUse" x1="153.6091" y1="-589.9204" x2="195.8559" y2="-589.9204" gradientTransform="matrix(1 0 0 1 0 884)">
	<stop  offset="0" style="stop-color:#4FAAC4"/>
	<stop  offset="1.554530e-03" style="stop-color:#2F81B6"/>
	<stop  offset="1" style="stop-color:#3B5EA9"/>
</linearGradient>
<path fill="url(#SVGID_9_)" d="M179.7,292c-4.6,1.4-9.2,3.7-15.1,1.9c-2.9-0.9-6.8-3.8-11-7c4.3,3.6,9.7,8.6,13.3,14.4
	C170.1,297.7,174.5,293.6,179.7,292z"/>
<linearGradient id="SVGID_10_" gradientUnits="userSpaceOnUse" x1="153.6042" y1="-573.6254" x2="195.851" y2="-573.6254" gradientTransform="matrix(1 0 0 1 0 884)">
	<stop  offset="0" style="stop-color:#4FAAC4"/>
	<stop  offset="1.554530e-03" style="stop-color:#1E3773"/>
	<stop  offset="1" style="stop-color:#203370"/>
</linearGradient>
<path fill="url(#SVGID_10_)" d="M169.5,306.6c0.9,2.5,1.3,5,1.3,7.6c-0.1,3.9-1.9,6.1-2.3,6.5c6.3-5.9,9.1-13,15.2-18.3
	c1.1-1,2.3-1.7,3.5-2.2h0C183.1,301.8,178.8,305.2,169.5,306.6z"/>
<linearGradient id="SVGID_11_" gradientUnits="userSpaceOnUse" x1="180.9475" y1="-570.0712" x2="180.9475" y2="-593.4145" gradientTransform="matrix(1 0 0 1 0 884)">
	<stop  offset="0" style="stop-color:#4FAAC4"/>
	<stop  offset="1.554530e-03" style="stop-color:#2C5A9A"/>
	<stop  offset="1" style="stop-color:#374580"/>
</linearGradient>
<path fill="url(#SVGID_11_)" d="M194.7,298.9c0.8,0,0-1-0.9-1.5c-0.7-0.4-1.4-0.8-1.9-1.3c-0.6-0.5-1.2-2-1.4-2.4
	c-0.7-1.3-1.9-2.3-4.2-2.6c-2.3-0.3-4.5,0.2-6.6,0.8c-5.2,1.6-9.5,5.7-12.8,9.3c0.6,1,1.2,2.1,1.7,3.1c0.3,0.7,0.6,1.4,0.9,2.2
	c9.3-1.4,13.7-4.8,17.7-6.5h0c2.5-1.1,4.9-1.2,6.3-1.2C193.8,298.9,194.3,298.9,194.7,298.9z"/>
<linearGradient id="SVGID_12_" gradientUnits="userSpaceOnUse" x1="123.1632" y1="-572.9167" x2="171.2393" y2="-572.9167" gradientTransform="matrix(1 0 0 1 0 884)">
	<stop  offset="0.1115" style="stop-color:#38B1DA"/>
	<stop  offset="1" style="stop-color:#326FB5"/>
</linearGradient>
<path fill="url(#SVGID_12_)" d="M147.1,320.8c7.9-5.4,12.6-11.3,14.7-13.6c-17,0.4-24.2-8.7-26.7-12.5c4.7,7.3,11.9,13.1,10.5,21.3
	c-1.8,10.5-15.5,11.5-15.5,11.5S136.6,327.9,147.1,320.8z"/>
<circle fill="#FFFFFF" cx="185.8" cy="295.1" r="1.4"/>
<path fill="#FFFFFF" d="M195.7,14.9h-9c-0.2,0-0.4,0.2-0.4,0.4v4.4c0,0.2,0.2,0.4,0.4,0.4h3.5v5.4c0,0-0.8,0.3-3,0.3
	c-2.6,0-6.1-0.9-6.1-8.8c0-7.9,3.7-8.9,7.2-8.9c3,0,4.3,0.5,5.2,0.8c0.3,0.1,0.5-0.2,0.5-0.4l1-4.2c0-0.1,0-0.2-0.2-0.3
	c-0.3-0.2-2.4-1.4-7.6-1.4c-6,0-12.1,2.5-12.1,14.8c0,12.2,7,14.1,12.9,14.1c4.9,0,7.9-2.1,7.9-2.1c0.1-0.1,0.1-0.2,0.1-0.3V15.3
	C196.1,15.1,195.9,14.9,195.7,14.9z"/>
<path fill="#FFFFFF" d="M241.8,4c0-0.2-0.2-0.4-0.4-0.4h-5c-0.2,0-0.4,0.2-0.4,0.4l0,9.7h-7.9V4c0-0.2-0.2-0.4-0.4-0.4h-5
	c-0.2,0-0.4,0.2-0.4,0.4v26.4c0,0.2,0.2,0.4,0.4,0.4h5c0.2,0,0.4-0.2,0.4-0.4V19.1h7.9l0,11.3c0,0.2,0.2,0.4,0.4,0.4h5.1
	c0.2,0,0.4-0.2,0.4-0.4V4z"/>
<ellipse fill="#FFFFFF" cx="201.9" cy="7.5" rx="3.3" ry="3.3"/>
<path fill="#FFFFFF" d="M204.8,24.8c0-0.7,0-12.2,0-12.2c0-0.2-0.2-0.4-0.4-0.4h-5c-0.2,0-0.4,0.2-0.4,0.5c0,0,0,14.7,0,17.5
	c0,0.5,0.3,0.7,0.7,0.7c0,0,2.1,0,4.5,0c0.5,0,0.6-0.2,0.6-0.7C204.8,29.2,204.8,25.6,204.8,24.8z"/>
<path fill="#FFFFFF" d="M261,12.3h-5c-0.2,0-0.4,0.2-0.4,0.4v12.9c0,0-1.3,0.9-3.1,0.9c-1.8,0-2.3-0.8-2.3-2.6c0-1.8,0-11.3,0-11.3
	c0-0.2-0.2-0.4-0.4-0.4h-5.1c-0.2,0-0.4,0.2-0.4,0.4c0,0,0,6.9,0,12.1c0,5.2,2.9,6.5,6.9,6.5c3.3,0,6-1.8,6-1.8s0.1,1,0.2,1.1
	c0.1,0.1,0.2,0.2,0.4,0.2l3.2,0c0.2,0,0.4-0.2,0.4-0.4l0-17.7C261.4,12.5,261.2,12.3,261,12.3z"/>
<path fill="#FFFFFF" d="M274.7,11.7c-2.8,0-4.8,1.3-4.8,1.3V4c0-0.2-0.2-0.4-0.4-0.4h-5.1c-0.2,0-0.4,0.2-0.4,0.4v26.4
	c0,0.2,0.2,0.4,0.4,0.4h3.5c0.2,0,0.3-0.1,0.4-0.2c0.1-0.1,0.2-1.2,0.2-1.2s2.1,2,6,2c4.6,0,7.2-2.3,7.2-10.5
	C281.7,12.8,277.5,11.7,274.7,11.7z M272.7,26.6c-1.7-0.1-2.9-0.8-2.9-0.8v-8.4c0,0,1.2-0.7,2.6-0.8c1.8-0.2,3.5,0.4,3.5,4.7
	C275.9,25.7,275.1,26.6,272.7,26.6z"/>
<path fill="#FFFFFF" d="M219.3,12.2h-3.8l0-5c0-0.2-0.1-0.3-0.3-0.3h-5.2c-0.2,0-0.3,0.1-0.3,0.3v5.2c0,0-2.6,0.6-2.8,0.7
	c-0.2,0.1-0.3,0.2-0.3,0.4v3.2c0,0.2,0.2,0.4,0.4,0.4h2.6c0,0,0,3.4,0,7.8c0,5.8,4.1,6.4,6.8,6.4c1.3,0,2.8-0.4,3-0.5
	c0.1-0.1,0.2-0.2,0.2-0.4l0-3.6c0-0.2-0.2-0.4-0.4-0.4c-0.2,0-0.8,0.1-1.4,0.1c-1.9,0-2.5-0.9-2.5-2c0-1.1,0-7.4,0-7.4h3.8
	c0.2,0,0.4-0.2,0.4-0.4v-4.1C219.7,12.4,219.6,12.2,219.3,12.2z"/>
<path fill-rule="evenodd" clip-rule="evenodd" fill="#FFFFFF" d="M150.1,0C140.6,0,133,7.7,133,17.1c0,7.6,4.9,14,11.7,16.2
	c0.9,0.2,1.2-0.4,1.2-0.8c0-0.4,0-1.5,0-2.9c-4.8,1-5.8-2.3-5.8-2.3c-0.8-2-1.9-2.5-1.9-2.5c-1.6-1.1,0.1-1,0.1-1
	c1.7,0.1,2.6,1.8,2.6,1.8c1.5,2.6,4,1.9,5,1.4c0.2-1.1,0.6-1.9,1.1-2.3c-3.8-0.4-7.8-1.9-7.8-8.5c0-1.9,0.7-3.4,1.8-4.6
	c-0.2-0.4-0.8-2.2,0.2-4.5c0,0,1.4-0.5,4.7,1.8c1.4-0.4,2.8-0.6,4.3-0.6c1.5,0,2.9,0.2,4.3,0.6c3.3-2.2,4.7-1.8,4.7-1.8
	c0.9,2.4,0.3,4.1,0.2,4.5c1.1,1.2,1.8,2.7,1.8,4.6c0,6.6-4,8-7.8,8.4c0.6,0.5,1.2,1.6,1.2,3.2c0,2.3,0,4.1,0,4.7
	c0,0.5,0.3,1,1.2,0.8c6.8-2.3,11.7-8.7,11.7-16.2C167.2,7.7,159.5,0,150.1,0z"/>
<path fill="#EAAE00" d="M274.5,101.4c-0.6-1.8-2.6-2.8-4.4-2.2s-2.8,2.6-2.2,4.4l9,27.7c0.6,1.7,2.5,2.7,4.2,2.2
	c1.8-0.5,3-2.5,2.4-4.3C283.5,129,274.5,101.4,274.5,101.4z"/>
<path fill="#37B388" d="M260.5,105.9c-0.6-1.8-2.6-2.8-4.4-2.2c-1.8,0.6-2.8,2.6-2.2,4.4l9,27.7c0.6,1.7,2.5,2.7,4.2,2.2
	c1.8-0.5,3-2.5,2.4-4.3C269.5,133.6,260.5,105.9,260.5,105.9z"/>
<path fill="#DC005B" d="M285.8,124.3c1.8-0.6,2.8-2.6,2.2-4.4s-2.6-2.8-4.4-2.2l-27.7,9c-1.7,0.6-2.7,2.5-2.2,4.2
	c0.5,1.8,2.5,3,4.3,2.4C258.2,133.3,285.8,124.3,285.8,124.3z"/>
<path fill="#482649" d="M261.7,132.2c1.8-0.6,4.1-1.3,6.6-2.2c-0.6-1.8-1.3-4.1-2.2-6.6l-6.6,2.2L261.7,132.2z"/>
<path fill="#CF0E19" d="M275.7,127.6c2.5-0.8,4.8-1.6,6.6-2.2c-0.6-1.8-1.3-4.1-2.2-6.6l-6.6,2.2L275.7,127.6z"/>
<path fill="#7BCADD" d="M281.3,110.4c1.8-0.6,2.8-2.6,2.2-4.4s-2.6-2.8-4.4-2.2l-27.7,9c-1.7,0.6-2.7,2.5-2.2,4.2
	c0.5,1.8,2.5,3,4.3,2.4C253.7,119.4,281.3,110.4,281.3,110.4z"/>
<path fill="#009178" d="M257.2,118.2c1.8-0.6,4.1-1.3,6.6-2.2c-0.8-2.5-1.6-4.8-2.2-6.6l-6.6,2.2L257.2,118.2z"/>
<path fill="#64892C" d="M271.2,113.7c2.5-0.8,4.8-1.6,6.6-2.2c-0.8-2.5-1.6-4.8-2.2-6.6L269,107L271.2,113.7z"/>
<path fill="#FFFFFF" d="M313.9,108.7c1.2,0.5,1.3,0.9,0.4,2.8c-1,1.9-1.2,2-2.4,1.5c-1.5-0.6-3.5-1.1-4.7-1.1c-2,0-3.4,0.7-3.4,1.8
	c0,3.7,11.7,1.7,11.7,9.5c0,3.9-3.4,6.6-8.5,6.6c-2.7,0-6-0.9-8.2-2.1c-1.1-0.6-1.2-0.9-0.2-2.8c0.8-1.6,1.1-1.8,2.3-1.3
	c1.9,0.8,4.4,1.5,6,1.5c1.9,0,3.1-0.8,3.1-1.9c0-3.6-11.9-1.9-11.9-9.5c0-4,3.4-6.7,8.4-6.7C308.9,107,311.9,107.7,313.9,108.7z"/>
<path fill="#FFFFFF" d="M323.4,99.4v29.2c0,0.4-0.5,0.9-1.1,0.9h-3.1c-0.7,0-1.1-0.5-1.1-0.9V99.4c0-1.4,0.4-1.6,2.7-1.6
	C323.3,97.8,323.4,98,323.4,99.4z"/>
<path fill="#FFFFFF" d="M345.3,115.8v12.6c0,0.7-0.5,1.1-1.1,1.1h-3c-0.7,0-1.2-0.5-1.1-1.2l0-1.4c-1.6,1.8-4,2.8-6.4,2.8
	c-4.6,0-7.7-2.7-7.7-6.6c0-4.2,3.5-7,8.7-7.1c2,0,3.8,0.4,5.3,1v-1.4c0-2.3-1.8-3.7-4.9-3.7c-1.4,0-3.2,0.6-4.7,1.4
	c-1.1,0.6-1.4,0.6-2.5-1.2c-1.2-1.8-1.1-2.1,0-2.8c2.1-1.4,5-2.3,7.7-2.3C341.5,107,345.3,110.3,345.3,115.8z M331.1,123.1
	c0,1.5,1.3,2.5,3.2,2.5c2.3,0,4.4-1.1,5.6-3v-2c-1.2-0.5-2.7-0.7-4.1-0.7C333,119.9,331.1,121.2,331.1,123.1z"/>
<path fill="#FFFFFF" d="M366.1,108.7c1.1,0.6,1.2,1-0.1,2.9c-1.2,1.8-1.4,1.9-2.6,1.3c-0.9-0.5-2.4-0.9-3.7-0.9
	c-3.9,0-6.4,2.5-6.4,6.4c0,4,2.6,6.7,6.4,6.7c1.3,0,3-0.5,4.1-1.1c1.1-0.6,1.4-0.6,2.5,1.1c1.1,1.6,1,2,0.1,2.7
	c-1.7,1.2-4.4,2.1-6.8,2.1c-7.1,0-11.9-4.6-11.9-11.4c0-6.8,4.8-11.3,11.9-11.3C362,107,364.5,107.8,366.1,108.7z"/>
<path fill="#FFFFFF" d="M389.4,126.8c0.9,1.1,0.5,1.5-1.7,2.3c-2.3,0.8-2.6,0.8-3.4-0.3l-6.4-8.5l-2.9,2.8v5.5
	c0,0.4-0.5,0.9-1.1,0.9h-3.1c-0.7,0-1.1-0.5-1.1-0.9V99.4c0-1.4,0.4-1.6,2.7-1.6c2.6,0,2.7,0.2,2.7,1.6V116l8.7-8.4
	c1-0.9,1.5-0.8,3.2,0.3c1.9,1.2,2,1.6,1.1,2.5l-6.5,6.3L389.4,126.8z"/>
<g>
</g>
<g>
</g>
<g>
</g>
<g>
</g>
<g>
</g>
<g>
</g>
<g>
</g>
<g>
</g>
<g>
</g>
<g>
</g>
<g>
</g>
<g>
</g>
<g>
</g>
<g>
</g>
<g>
</g>
</svg>
