<?xml version="1.0" encoding="utf-8"?>
<!-- Generator: Adobe Illustrator 19.1.0, SVG Export Plug-In . SVG Version: 6.00 Build 0)  -->
<svg version="1.0" id="レイヤー_1" xmlns="http://www.w3.org/2000/svg" xmlns:xlink="http://www.w3.org/1999/xlink" x="0px"
	 y="0px" viewBox="0 0 43 172" enable-background="new 0 0 43 172" xml:space="preserve">
<g>
	<g>
		<path fill="#1B2B79" d="M31.709,6.133l0.551,1.873l-4.423,1.299l2.417,8.229l-1.72,0.505L26.117,9.81l-4.944,1.452
			c0.514,0.949,1.359,2.469,2.1,4.988c0.486,1.658,1.293,5.09,0.326,8.042c-0.998,2.962-3.361,4.456-5.389,5.052
			c-3.807,1.117-6.306-0.917-7.379-2.07c-1.635-1.82-2.599-3.739-4.015-8.561l1.709-0.77c1.438,4.782,2.157,6.439,3.673,7.962
			c1.124,1.104,3.083,2.097,5.479,1.394c1.842-0.541,3.937-2.156,4.514-4.961c0.303-1.357,0.085-3.461-0.527-5.549
			c-0.794-2.703-1.672-4.214-2.147-5.041L8.981,14.841c-1.381,0.405-2.584,0.626-3.396-2.138C4.45,8.834,5.721,5.324,9.621,4.18
			c4.269-1.254,7.832,1.57,10.572,5.335l5.374-1.578l-2.182-7.432L25.104,0l2.183,7.432L31.709,6.133z M18.474,10.019
			c-2.357-3.144-5.369-4.993-8.225-4.155C8.13,6.486,6.29,8.627,7.31,12.096c0.261,0.892,0.508,1.053,1.184,0.854L18.474,10.019z
			 M35.108,18.845c-1.002,2.495-3.267,6.028-6.551,8.929l-1.682-1.408c3.504-3.064,5.191-5.494,6.793-8.899L35.108,18.845z"/>
		<path fill="#1B2B79" d="M39.048,39.221l-10.549,1.708l-1.555-9.603L9.763,34.109l-0.281-1.737l27.73-4.49L39.048,39.221z
			 M15.933,58.003c-1.042,0.168-2.242,0.362-2.564-1.627l-0.798-4.929l1.738-0.475l0.601,4.312c0.143,1.077,0.494,1.054,1.283,0.926
			l14.402-2.332l-1.539-9.507l10.55-1.708l1.815,11.212L15.933,58.003z M17.146,51.485l-2.219-13.707l9.76-1.581l2.219,13.707
			L17.146,51.485z M25.208,48.43l-1.667-10.296l-6.854,1.108l1.667,10.298L25.208,48.43z M32.829,38.445l-1.274-7.865l-3.126,0.506
			l1.273,7.864L32.829,38.445z M35.206,53.131l-1.252-7.736l-3.127,0.504l1.252,7.739L35.206,53.131z M37.345,37.713l-1.273-7.864
			l-3.127,0.507l1.273,7.864L37.345,37.713z M39.724,52.399l-1.254-7.738l-3.127,0.507l1.254,7.738L39.724,52.399z"/>
		<path fill="#1B2B79" d="M41.024,60.184c-1.412-0.143-4.399-0.422-9.068-0.258c-6.043,0.212-14.117,0.942-13.963,5.355
			c0.046,1.311,0.812,2.181,1.963,3.037c0.922,0.704,2.918,1.947,6.254,3.046l-0.807,1.629c-4.892-1.621-7.138-3.592-7.898-4.301
			c-0.529-0.494-1.597-1.706-1.66-3.528c-0.185-5.244,6.897-6.869,16.203-7.195c3.677-0.128,7.076,0.041,9.097,0.131L41.024,60.184z
			 M19.718,83.437c0.93,0.031,2.053,0.089,3.684,0.03c10.584-0.369,14.154-4.434,15.991-6.835l1.327,1.331
			c-3.143,4.4-8.037,7.261-17.949,7.608c-1.119,0.039-1.92,0.035-2.912,0.038L19.718,83.437z"/>
		<path fill="#1B2B79" d="M26.349,110.521l-13.895-1.271l0.166-1.815l1.721,0.157l1.637-17.91l-1.721-0.156l0.163-1.785
			l13.894,1.271L26.349,110.521z M24.952,108.562l1.637-17.909l-9.018-0.824l-1.637,17.909L24.952,108.562z M33.429,85.077
			c1.906,7.275,5.91,12.332,9.342,14.862l-0.18,1.977c-6.666,4.019-9.893,9.089-11.905,13.18l-1.706-1.024
			c2.091-4.243,6.642-9.739,12.189-13.12c-4.227-3.696-7.518-8.816-9.611-15.082L33.429,85.077z M30.616,107.763l1.404-15.359
			l1.594,0.145l-1.404,15.361L30.616,107.763z"/>
		<path fill="#1B2B79" d="M13.66,124.088c-0.823,3.161-3.315,12.902,6.345,15.018c2.438,0.533,8.07,0.849,9.494-5.654
			c0.349-1.595,0.931-5.006-3.064-11.449l-14.541-3.313l0.396-1.814l12.291,2.821c-3.262-2.612-4.73-4.736-5.801-6.28l2.061-0.729
			c3.119,4.908,6.921,7.445,7.547,7.877l3.651,0.832l1.129-5.158l1.813,0.396l-1.137,5.19l5.215,1.174l-0.396,1.814l-5.215-1.174
			l-0.246,1.124l-1.031-0.226c-0.713-0.484-2.898-1.878-3.673-2.082c1.696,3.025,3.777,6.691,2.628,11.944
			c-1.32,6.033-6.925,7.689-11.489,6.691c-8.067-1.766-10.063-8.657-7.8-17.203L13.66,124.088z"/>
		<path fill="#1B2B79" d="M26.465,167.824c-1.026-0.36-1.6-0.562-6.771-2.35l-2.011,5.805l-1.69-0.594l2.011-5.806
			c-0.937-0.329-5.03-1.704-5.876-2.001c-2.686-0.946-4.35-1.905-2.989-5.768c0.69-1.963,1.337-3.025,1.836-3.865l1.638,0.745
			c-0.949,1.634-1.231,2.146-1.752,3.623c-0.648,1.841-0.811,2.497,2.268,3.581c1.75,0.616,3.723,1.277,5.504,1.904l4.339-12.517
			l-9.809-3.453c-5.613-1.977-6.771,1.312-8.567,6.413c-1.594,4.526-2.164,6.531-2.822,8.979L0,161.966
			c1.351-4.511,1.5-4.934,2.956-9.067c2.04-5.796,3.661-10.108,11.538-7.335l9.084,3.199l1.817-5.161l1.689,0.595l-1.787,5.171
			l6.52,2.296l-0.639,1.812l-6.519-2.296l-4.328,12.485c1.056,0.372,5.815,1.98,6.791,2.29L26.465,167.824z"/>
	</g>
</g>
</svg>
