<?xml version="1.0" encoding="utf-8"?>
<!-- Generator: Adobe Illustrator 19.1.0, SVG Export Plug-In . SVG Version: 6.00 Build 0)  -->
<svg version="1.0" id="レイヤー_1" xmlns="http://www.w3.org/2000/svg" xmlns:xlink="http://www.w3.org/1999/xlink" x="0px"
	 y="0px" viewBox="0 0 494 204" enable-background="new 0 0 494 204" xml:space="preserve">
<path fill="none" stroke="#1B2B79" stroke-width="6" stroke-miterlimit="10" d="M55.971,45.92
	c-10.125-1.57-21.864,0.227-30.848,5.535C14.912,57.486,8.182,66.302,5.12,77.654l-0.168,0.639
	c-2.987,11.665-1.396,22.838,4.729,33.204c6.143,10.397,15.165,17.189,26.814,20.185c11.647,2.997,22.826,1.402,33.228-4.742
	c8.976-5.304,16.257-14.381,19.09-24.855"/>
<path fill="none" stroke="#1B2B79" stroke-width="6" stroke-miterlimit="10" d="M112.21,16.702
	c-11.48,3.465-20.177,10.583-25.847,21.155c-5.671,10.573-6.789,21.754-3.324,33.236c3.466,11.485,10.581,20.167,21.15,25.809
	c10.56,5.64,21.736,6.743,33.215,3.279s20.178-10.565,25.856-21.107c5.682-10.545,6.806-21.714,3.341-33.199
	c-3.464-11.479-10.582-20.176-21.155-25.847C134.871,14.356,123.69,13.239,112.21,16.702z"/>
<line fill="none" stroke="#1B2B79" stroke-width="6" stroke-miterlimit="10" x1="184.848" y1="2.426" x2="182.384" y2="95.414"/>
<polyline fill="none" stroke="#1B2B79" stroke-width="6" stroke-miterlimit="10" points="185.773,5.492 187.612,5.562 
	234.908,95.631 "/>
<line fill="none" stroke="#1B2B79" stroke-width="6" stroke-miterlimit="10" x1="238.902" y1="5.079" x2="236.369" y2="97.699"/>
<line fill="none" stroke="#1B2B79" stroke-width="6" stroke-miterlimit="10" x1="261.152" y1="10.762" x2="311.021" y2="24.606"/>
<line fill="none" stroke="#1B2B79" stroke-width="6" stroke-miterlimit="10" x1="286.781" y1="18.082" x2="263.531" y2="104.557"/>
<polyline fill="none" stroke="#1B2B79" stroke-width="6" stroke-miterlimit="10" points="279.659,106.782 347.646,42.364 
	336.941,135.396 "/>
<line fill="none" stroke="#1B2B79" stroke-width="6" stroke-miterlimit="10" x1="309.894" y1="80.405" x2="339.661" y2="95.274"/>
<path fill="none" stroke="#1B2B79" stroke-width="6" stroke-miterlimit="10" d="M446.868,124.503
	c-2.763-12.619-8.791-22.656-17.061-29.145c-9.396-7.376-20.132-10.467-31.906-9.188l-0.66,0.076
	c-12.042,1.465-21.945,7.046-29.434,16.586c-7.51,9.57-10.584,20.522-9.132,32.552c1.449,12.027,7.036,21.937,16.609,29.45
	c8.262,6.484,17.662,9.648,27.974,9.423"/>
<line fill="none" stroke="#1B2B79" stroke-width="6" stroke-miterlimit="10" x1="460.207" y1="125.232" x2="490.069" y2="166.144"/>
<line fill="none" stroke="#1B2B79" stroke-width="6" stroke-miterlimit="10" x1="475.663" y1="145.087" x2="400.554" y2="200.007"/>
</svg>
