<?xml version="1.0" encoding="utf-8"?>
<!-- Generator: Adobe Illustrator 19.2.1, SVG Export Plug-In . SVG Version: 6.00 Build 0)  -->
<svg version="1.1" id="レイヤー_1" xmlns="http://www.w3.org/2000/svg" xmlns:xlink="http://www.w3.org/1999/xlink" x="0px"
	 y="0px" viewBox="0 0 640 1000" style="enable-background:new 0 0 640 1000;" xml:space="preserve">
<style type="text/css">
	.st0{fill:none;stroke:#1B2B79;stroke-width:0.5;stroke-miterlimit:10;}
	.st1{fill:none;stroke:#00A0E9;stroke-width:0.8;stroke-miterlimit:10;}
	.st2{fill:#00A0E9;}
	.st3{fill:#11BAD1;}
	.st4{fill:none;stroke:#1B2B79;stroke-width:4;stroke-miterlimit:10;}
	.st5{fill:none;stroke:#1B2B79;stroke-width:3;stroke-miterlimit:10;}
	.st6{fill:none;stroke:#11BAD1;stroke-miterlimit:10;}
	.st7{fill:none;stroke:#11BAD1;stroke-width:2;stroke-miterlimit:10;}
	.st8{fill:#1B2B79;}
	.st9{opacity:0.13;fill:#00A0E9;enable-background:new    ;}
	.st10{fill:none;stroke:#00A0E9;stroke-width:3;stroke-miterlimit:10;}
	
		.st11{opacity:0.4;fill:#00A0E9;stroke:#00A0E9;stroke-width:0.5341;stroke-linecap:round;stroke-linejoin:round;stroke-miterlimit:10;enable-background:new    ;}
	
		.st12{opacity:0.2;fill:#00A0E9;stroke:#00A0E9;stroke-width:0.5341;stroke-linecap:round;stroke-linejoin:round;stroke-miterlimit:10;enable-background:new    ;}
	
		.st13{opacity:0.1;fill:#00A0E9;stroke:#00A0E9;stroke-width:0.5341;stroke-linecap:round;stroke-linejoin:round;stroke-miterlimit:10;enable-background:new    ;}
	.st14{fill:none;stroke:#00A0E9;stroke-width:0.196;stroke-miterlimit:10;}
	.st15{fill:none;stroke:#11BAD1;stroke-width:0.196;stroke-miterlimit:10;}
	.st16{fill:none;stroke:#00A0E9;stroke-width:0.3914;stroke-miterlimit:10;}
	.st17{fill:none;stroke:#11BAD1;stroke-width:0.8;stroke-miterlimit:10;}
	.st18{clip-path:url(#SVGID_2_);}
	.st19{fill:none;stroke:#11BAD1;stroke-linecap:round;stroke-linejoin:round;stroke-miterlimit:10;}
	
		.st20{opacity:0.2;fill:none;stroke:#00A0E9;stroke-width:8;stroke-linecap:square;stroke-linejoin:round;stroke-miterlimit:10;enable-background:new    ;}
	.st21{fill:none;stroke:#00A0E9;stroke-width:3.9258;stroke-miterlimit:10;}
	.st22{fill:none;stroke:#11BAD1;stroke-width:1.9629;stroke-miterlimit:10;}
	.st23{opacity:0.6;}
	.st24{fill:none;stroke:#00A0E9;stroke-width:7.375;stroke-miterlimit:10;}
	.st25{fill:#FFFFFF;stroke:#11BAD1;stroke-width:7.375;stroke-miterlimit:10;}
	.st26{opacity:0.4;}
	.st27{opacity:0.3;}
	.st28{opacity:0.2;}
	.st29{opacity:0.15;}
	.st30{opacity:0.7;}
	.st31{opacity:0.8;}
	.st32{opacity:0.9;}
	.st33{fill:none;stroke:#0A5DC1;stroke-width:7.375;stroke-miterlimit:10;}
	.st34{fill:#0A5DC1;}
	.st35{fill:none;stroke:#00A0E9;stroke-width:0.1957;stroke-miterlimit:10;}
	
		.st36{opacity:0.4;fill:#00A0E9;stroke:#00A0E9;stroke-width:0.2857;stroke-linecap:round;stroke-linejoin:round;stroke-miterlimit:10;enable-background:new    ;}
	
		.st37{opacity:0.2;fill:#00A0E9;stroke:#00A0E9;stroke-width:0.2857;stroke-linecap:round;stroke-linejoin:round;stroke-miterlimit:10;enable-background:new    ;}
	
		.st38{opacity:0.1;fill:#00A0E9;stroke:#00A0E9;stroke-width:0.2857;stroke-linecap:round;stroke-linejoin:round;stroke-miterlimit:10;enable-background:new    ;}
	.st39{fill:#FFFFFF;}
	.st40{fill:none;stroke:#EF6C00;stroke-width:4;stroke-miterlimit:10;}
	.st41{fill:#EF6C00;}
	.st42{fill:#1B2B79;stroke:#1B2B79;stroke-width:2;stroke-linecap:round;stroke-linejoin:round;stroke-miterlimit:10;}
	.st43{opacity:0.88;enable-background:new    ;}
	.st44{clip-path:url(#SVGID_4_);}
	.st45{fill:none;stroke:#00A0E9;stroke-linecap:round;stroke-linejoin:round;stroke-miterlimit:10;}
	.st46{fill:#3A3A3A;stroke:#3A3A3A;stroke-width:0.5;stroke-miterlimit:10;}
	.st47{fill:#3A3A3A;}
</style>
<g>
	<path class="st0" d="M930.5,809"/>
	<line class="st0" x1="1187.5" y1="476" x2="530.5" y2="661"/>
	<line class="st1" x1="530.5" y1="661" x2="930.5" y2="809"/>
	<line class="st0" x1="930.5" y1="809" x2="1187.5" y2="476"/>
	<circle class="st2" cx="532" cy="661.5" r="6.6"/>
	<circle class="st3" cx="928" cy="809.5" r="4.1"/>
</g>
<line class="st4" x1="84" y1="641" x2="-32" y2="880"/>
<path class="st5" d="M-207.9,66c60.3,48.4,137.8,77.3,221.6,77.3c149.7,0,277.7-92.1,330.7-222.6"/>
<g>
	<circle class="st6" cx="504.4" cy="870.2" r="9.8"/>
</g>
<g>
	
		<rect x="121" y="852.7" transform="matrix(0.7071 -0.7071 0.7071 0.7071 -576.3053 356.4961)" class="st7" width="42.3" height="42.3"/>
	<polyline class="st1" points="148.2,850.4 142.1,856.5 136,850.4 	"/>
	
		<rect x="137.8" y="857.8" transform="matrix(0.7072 -0.707 0.707 0.7072 -567.9258 352.8685)" class="st8" width="8.6" height="8.6"/>
	
		<rect x="137.8" y="869.6" transform="matrix(0.7072 -0.707 0.707 0.7072 -576.2433 356.3098)" class="st8" width="8.6" height="8.6"/>
	
		<rect x="137.8" y="881.4" transform="matrix(0.7071 -0.7071 0.7071 0.7071 -584.6514 359.92)" class="st1" width="8.6" height="8.6"/>
	
		<rect x="137.8" y="893.2" transform="matrix(0.7071 -0.7071 0.7071 0.7071 -592.9654 363.3394)" class="st2" width="8.6" height="8.6"/>
</g>
<path class="st9" d="M51.3,649.4l-17-2l1-8.5c0-0.2,2.8-26.2-4.7-63.6c-7-34.4-24.5-85.8-68.1-135.7
	c-62.7-71.7-149-104.3-149.9-104.6l-8-3l5.9-16l8,3c3.7,1.4,91.1,34.3,156.8,109.4c46.4,53,64.8,107.7,72.2,144.4
	c8,39.9,5,67.1,4.8,68.2L51.3,649.4z"/>
<path class="st10" d="M164.2,648l-13.6-1.6l0.8-6.8c0-0.2,2.3-21-3.8-51C142,561,128,519.8,93,479.7
	c-50.3-57.5-119.5-83.6-120.2-83.9l-6.4-2.4l4.8-12.9l6.4,2.4c3,1.1,73.1,27.5,125.8,87.7c37.2,42.5,52,86.4,57.9,115.8
	c6.4,32,4,53.8,3.9,54.7L164.2,648z"/>
<polygon class="st2" points="338.2,23.8 337.6,14 345.8,8.6 354.6,13 355.3,22.8 347.1,28.2 "/>
<g>
	<circle class="st8" cx="575" cy="30.8" r="6.8"/>
	<circle class="st2" cx="559.8" cy="34" r="6.8"/>
	<circle class="st3" cx="546.2" cy="42" r="6.8"/>
	<circle class="st11" cx="534.2" cy="52.5" r="6.8"/>
	<circle class="st12" cx="527.4" cy="66.3" r="6.8"/>
	<circle class="st13" cx="524.1" cy="81.8" r="6.8"/>
</g>
<g>
	<polyline class="st14" points="489,546.3 500.2,590.5 450.1,595.7 488.8,545 	"/>
	<g>
		<path class="st8" d="M452,595.5c-0.1-1-1.1-1.8-2.1-1.6c-1,0.1-1.8,1.1-1.6,2.1c0.1,1,1.1,1.8,2.1,1.6
			C451.4,597.5,452.1,596.5,452,595.5z"/>
		<circle class="st2" cx="488.8" cy="545" r="1.3"/>
	</g>
	<g>
		<circle class="st2" cx="500.4" cy="590.6" r="1.3"/>
	</g>
</g>
<g>
	<polyline class="st15" points="534,548.6 423.8,668.1 636.7,613.6 533.5,547.4 	"/>
	<g>
		<path class="st8" d="M635,614.3c-0.4-1,0.1-2.1,1-2.5c1-0.4,2.1,0.1,2.5,1c0.4,1-0.1,2.1-1,2.5C636.5,615.8,635.4,615.3,635,614.3
			z"/>
		<circle class="st3" cx="533.5" cy="547.4" r="1.3"/>
	</g>
	<g>
		<circle class="st3" cx="423.8" cy="668.2" r="1.3"/>
	</g>
</g>
<g>
	<g>
		<circle class="st2" cx="199.4" cy="159.6" r="3"/>
		<circle class="st2" cx="274.6" cy="93.4" r="2"/>
		<line class="st16" x1="199.4" y1="159.6" x2="274.6" y2="93.4"/>
	</g>
	<g>
		<circle class="st2" cx="209.6" cy="133.8" r="4.9"/>
		<line class="st1" x1="209.6" y1="133.8" x2="364" y2="84.4"/>
	</g>
	<line class="st17" x1="217.2" y1="156.1" x2="36.3" y2="128.5"/>
	<circle class="st8" cx="39.4" cy="129.5" r="4.6"/>
	<line class="st17" x1="64.9" y1="126.5" x2="-7.6" y2="156.1"/>
	<circle class="st2" cx="64" cy="126.5" r="2.6"/>
	<circle class="st2" cx="-8.5" cy="156.2" r="2"/>
	<line class="st1" x1="15.9" y1="151" x2="-135.3" y2="262.4"/>
	<circle class="st8" cx="-131.8" cy="261.9" r="4.6"/>
	<circle class="st2" cx="15.9" cy="151" r="2.6"/>
</g>
<g>
	<g>
		<defs>
			<polygon id="SVGID_1_" points="-339.8,174.1 -38.8,168.3 289.2,375.3 			"/>
		</defs>
		<clipPath id="SVGID_2_">
			<use xlink:href="#SVGID_1_"  style="overflow:visible;"/>
		</clipPath>
		<g class="st18">
			<g>
				<line class="st19" x1="20.9" y1="-232.8" x2="-403.9" y2="127.5"/>
				<line class="st19" x1="22.7" y1="-229" x2="-402.1" y2="131.3"/>
				<line class="st19" x1="24.5" y1="-225.2" x2="-400.3" y2="135.1"/>
				<line class="st19" x1="26.2" y1="-221.4" x2="-398.6" y2="138.9"/>
				<line class="st19" x1="28" y1="-217.6" x2="-396.8" y2="142.7"/>
				<line class="st19" x1="29.8" y1="-213.8" x2="-395" y2="146.5"/>
				<line class="st19" x1="31.6" y1="-210" x2="-393.2" y2="150.3"/>
				<line class="st19" x1="33.3" y1="-206.2" x2="-391.5" y2="154.1"/>
				<line class="st19" x1="35.1" y1="-202.4" x2="-389.7" y2="158"/>
				<line class="st19" x1="36.9" y1="-198.6" x2="-387.9" y2="161.8"/>
				<line class="st19" x1="38.7" y1="-194.8" x2="-386.1" y2="165.6"/>
				<line class="st19" x1="40.4" y1="-191" x2="-384.4" y2="169.4"/>
				<line class="st19" x1="42.2" y1="-187.2" x2="-382.6" y2="173.2"/>
				<line class="st19" x1="44" y1="-183.4" x2="-380.8" y2="177"/>
				<line class="st19" x1="45.8" y1="-179.5" x2="-379" y2="180.8"/>
				<line class="st19" x1="47.5" y1="-175.7" x2="-377.3" y2="184.6"/>
				<line class="st19" x1="49.3" y1="-171.9" x2="-375.5" y2="188.4"/>
				<line class="st19" x1="51.1" y1="-168.1" x2="-373.7" y2="192.2"/>
				<line class="st19" x1="52.9" y1="-164.3" x2="-371.9" y2="196"/>
				<line class="st19" x1="54.6" y1="-160.5" x2="-370.2" y2="199.8"/>
				<line class="st19" x1="56.4" y1="-156.7" x2="-368.4" y2="203.6"/>
				<line class="st19" x1="58.2" y1="-152.9" x2="-366.6" y2="207.5"/>
				<line class="st19" x1="60" y1="-149.1" x2="-364.8" y2="211.3"/>
				<line class="st19" x1="61.7" y1="-145.3" x2="-363.1" y2="215.1"/>
				<line class="st19" x1="63.5" y1="-141.5" x2="-361.3" y2="218.9"/>
				<line class="st19" x1="65.3" y1="-137.7" x2="-359.5" y2="222.7"/>
				<line class="st19" x1="67.1" y1="-133.9" x2="-357.7" y2="226.5"/>
				<line class="st19" x1="68.8" y1="-130" x2="-356" y2="230.3"/>
				<line class="st19" x1="70.6" y1="-126.2" x2="-354.2" y2="234.1"/>
				<line class="st19" x1="72.4" y1="-122.4" x2="-352.4" y2="237.9"/>
				<line class="st19" x1="74.2" y1="-118.6" x2="-350.6" y2="241.7"/>
				<line class="st19" x1="75.9" y1="-114.8" x2="-348.9" y2="245.5"/>
				<line class="st19" x1="77.7" y1="-111" x2="-347.1" y2="249.3"/>
				<line class="st19" x1="79.5" y1="-107.2" x2="-345.3" y2="253.1"/>
				<line class="st19" x1="81.3" y1="-103.4" x2="-343.5" y2="257"/>
				<line class="st19" x1="83" y1="-99.6" x2="-341.8" y2="260.8"/>
				<line class="st19" x1="86.6" y1="-92" x2="-338.2" y2="268.4"/>
				<line class="st19" x1="88.4" y1="-88.2" x2="-336.4" y2="272.2"/>
				<line class="st19" x1="90.1" y1="-84.4" x2="-334.7" y2="276"/>
				<line class="st19" x1="91.9" y1="-80.5" x2="-332.9" y2="279.8"/>
				<line class="st19" x1="93.7" y1="-76.7" x2="-331.1" y2="283.6"/>
				<line class="st19" x1="95.5" y1="-72.9" x2="-329.3" y2="287.4"/>
				<line class="st19" x1="97.2" y1="-69.1" x2="-327.6" y2="291.2"/>
				<line class="st19" x1="99" y1="-65.3" x2="-325.8" y2="295"/>
				<line class="st19" x1="100.8" y1="-61.5" x2="-324" y2="298.8"/>
				<line class="st19" x1="102.6" y1="-57.7" x2="-322.2" y2="302.6"/>
				<line class="st19" x1="104.3" y1="-53.9" x2="-320.5" y2="306.4"/>
				<line class="st19" x1="106.1" y1="-50.1" x2="-318.7" y2="310.3"/>
				<line class="st19" x1="107.9" y1="-46.3" x2="-316.9" y2="314.1"/>
				<line class="st19" x1="109.7" y1="-42.5" x2="-315.2" y2="317.9"/>
				<line class="st19" x1="111.4" y1="-38.7" x2="-313.4" y2="321.7"/>
				<line class="st19" x1="113.2" y1="-34.9" x2="-311.6" y2="325.5"/>
				<line class="st19" x1="115" y1="-31" x2="-309.8" y2="329.3"/>
				<line class="st19" x1="116.7" y1="-27.2" x2="-308.1" y2="333.1"/>
				<line class="st19" x1="118.5" y1="-23.4" x2="-306.3" y2="336.9"/>
				<line class="st19" x1="120.3" y1="-19.6" x2="-304.5" y2="340.7"/>
				<line class="st19" x1="123.8" y1="-12" x2="-301" y2="348.3"/>
				<line class="st19" x1="125.6" y1="-8.2" x2="-299.2" y2="352.1"/>
				<line class="st19" x1="127.4" y1="-4.4" x2="-297.4" y2="355.9"/>
				<line class="st19" x1="129.2" y1="-0.6" x2="-295.6" y2="359.8"/>
				<line class="st19" x1="130.9" y1="3.2" x2="-293.9" y2="363.6"/>
				<line class="st19" x1="132.7" y1="7" x2="-292.1" y2="367.4"/>
				<line class="st19" x1="134.5" y1="10.8" x2="-290.3" y2="371.2"/>
				<line class="st19" x1="136.3" y1="14.6" x2="-288.5" y2="375"/>
				<line class="st19" x1="138" y1="18.5" x2="-286.8" y2="378.8"/>
				<line class="st19" x1="139.8" y1="22.3" x2="-285" y2="382.6"/>
				<line class="st19" x1="141.6" y1="26.1" x2="-283.2" y2="386.4"/>
				<line class="st19" x1="143.4" y1="29.9" x2="-281.4" y2="390.2"/>
				<line class="st19" x1="145.1" y1="33.7" x2="-279.7" y2="394"/>
				<line class="st19" x1="146.9" y1="37.5" x2="-277.9" y2="397.8"/>
				<line class="st19" x1="148.7" y1="41.3" x2="-276.1" y2="401.6"/>
				<line class="st19" x1="150.5" y1="45.1" x2="-274.3" y2="405.4"/>
				<line class="st19" x1="152.2" y1="48.9" x2="-272.6" y2="409.3"/>
				<line class="st19" x1="154" y1="52.7" x2="-270.8" y2="413.1"/>
				<line class="st19" x1="155.8" y1="56.5" x2="-269" y2="416.9"/>
				<line class="st19" x1="157.6" y1="60.3" x2="-267.2" y2="420.7"/>
				<line class="st19" x1="159.3" y1="64.1" x2="-265.5" y2="424.5"/>
				<line class="st19" x1="161.1" y1="67.9" x2="-263.7" y2="428.3"/>
				<line class="st19" x1="162.9" y1="71.8" x2="-261.9" y2="432.1"/>
				<line class="st19" x1="164.7" y1="75.6" x2="-260.1" y2="435.9"/>
				<line class="st19" x1="166.4" y1="79.4" x2="-258.4" y2="439.7"/>
				<line class="st19" x1="168.2" y1="83.2" x2="-256.6" y2="443.5"/>
				<line class="st19" x1="170" y1="87" x2="-254.8" y2="447.3"/>
				<line class="st19" x1="81.5" y1="-92.7" x2="-343.3" y2="267.6"/>
				<line class="st19" x1="120.2" y1="-14" x2="-304.6" y2="346.4"/>
			</g>
			<g>
				<line class="st19" x1="171.7" y1="90.2" x2="-253.1" y2="450.6"/>
				<line class="st19" x1="173.5" y1="94" x2="-251.3" y2="454.4"/>
				<line class="st19" x1="175.3" y1="97.8" x2="-249.5" y2="458.2"/>
				<line class="st19" x1="177.1" y1="101.7" x2="-247.7" y2="462"/>
				<line class="st19" x1="178.8" y1="105.5" x2="-246" y2="465.8"/>
				<line class="st19" x1="180.6" y1="109.3" x2="-244.2" y2="469.6"/>
				<line class="st19" x1="182.4" y1="113.1" x2="-242.4" y2="473.4"/>
				<line class="st19" x1="184.2" y1="116.9" x2="-240.6" y2="477.2"/>
				<line class="st19" x1="185.9" y1="120.7" x2="-238.9" y2="481"/>
				<line class="st19" x1="187.7" y1="124.5" x2="-237.1" y2="484.8"/>
				<line class="st19" x1="189.5" y1="128.3" x2="-235.3" y2="488.6"/>
				<line class="st19" x1="191.2" y1="132.1" x2="-233.6" y2="492.5"/>
				<line class="st19" x1="193" y1="135.9" x2="-231.8" y2="496.3"/>
				<line class="st19" x1="194.8" y1="139.7" x2="-230" y2="500.1"/>
				<line class="st19" x1="196.6" y1="143.5" x2="-228.2" y2="503.9"/>
				<line class="st19" x1="198.3" y1="147.3" x2="-226.5" y2="507.7"/>
				<line class="st19" x1="200.1" y1="151.2" x2="-224.7" y2="511.5"/>
				<line class="st19" x1="201.9" y1="155" x2="-222.9" y2="515.3"/>
				<line class="st19" x1="203.7" y1="158.8" x2="-221.1" y2="519.1"/>
				<line class="st19" x1="205.4" y1="162.6" x2="-219.4" y2="522.9"/>
				<line class="st19" x1="207.2" y1="166.4" x2="-217.6" y2="526.7"/>
				<line class="st19" x1="209" y1="170.2" x2="-215.8" y2="530.5"/>
				<line class="st19" x1="210.8" y1="174" x2="-214" y2="534.3"/>
				<line class="st19" x1="212.5" y1="177.8" x2="-212.3" y2="538.1"/>
				<line class="st19" x1="214.3" y1="181.6" x2="-210.5" y2="542"/>
				<line class="st19" x1="216.1" y1="185.4" x2="-208.7" y2="545.8"/>
				<line class="st19" x1="217.9" y1="189.2" x2="-206.9" y2="549.6"/>
				<line class="st19" x1="219.6" y1="193" x2="-205.2" y2="553.4"/>
				<line class="st19" x1="221.4" y1="196.8" x2="-203.4" y2="557.2"/>
				<line class="st19" x1="223.2" y1="200.7" x2="-201.6" y2="561"/>
				<line class="st19" x1="225" y1="204.5" x2="-199.8" y2="564.8"/>
				<line class="st19" x1="226.7" y1="208.3" x2="-198.1" y2="568.6"/>
				<line class="st19" x1="228.5" y1="212.1" x2="-196.3" y2="572.4"/>
				<line class="st19" x1="230.3" y1="215.9" x2="-194.5" y2="576.2"/>
				<line class="st19" x1="232.1" y1="219.7" x2="-192.7" y2="580"/>
				<line class="st19" x1="233.8" y1="223.5" x2="-191" y2="583.8"/>
				<line class="st19" x1="237.4" y1="231.1" x2="-187.4" y2="591.5"/>
				<line class="st19" x1="239.2" y1="234.9" x2="-185.6" y2="595.3"/>
				<line class="st19" x1="240.9" y1="238.7" x2="-183.9" y2="599.1"/>
				<line class="st19" x1="242.7" y1="242.5" x2="-182.1" y2="602.9"/>
				<line class="st19" x1="244.5" y1="246.3" x2="-180.3" y2="606.7"/>
				<line class="st19" x1="246.3" y1="250.1" x2="-178.5" y2="610.5"/>
				<line class="st19" x1="248" y1="254" x2="-176.8" y2="614.3"/>
				<line class="st19" x1="249.8" y1="257.8" x2="-175" y2="618.1"/>
				<line class="st19" x1="251.6" y1="261.6" x2="-173.2" y2="621.9"/>
				<line class="st19" x1="253.4" y1="265.4" x2="-171.4" y2="625.7"/>
				<line class="st19" x1="255.1" y1="269.2" x2="-169.7" y2="629.5"/>
				<line class="st19" x1="256.9" y1="273" x2="-167.9" y2="633.3"/>
				<line class="st19" x1="258.7" y1="276.8" x2="-166.1" y2="637.1"/>
				<line class="st19" x1="260.5" y1="280.6" x2="-164.3" y2="641"/>
				<line class="st19" x1="262.2" y1="284.4" x2="-162.6" y2="644.8"/>
				<line class="st19" x1="264" y1="288.2" x2="-160.8" y2="648.6"/>
				<line class="st19" x1="265.8" y1="292" x2="-159" y2="652.4"/>
				<line class="st19" x1="267.6" y1="295.8" x2="-157.2" y2="656.2"/>
				<line class="st19" x1="269.3" y1="299.6" x2="-155.5" y2="660"/>
				<line class="st19" x1="271.1" y1="303.5" x2="-153.7" y2="663.8"/>
				<line class="st19" x1="274.7" y1="311.1" x2="-150.1" y2="671.4"/>
				<line class="st19" x1="276.4" y1="314.9" x2="-148.4" y2="675.2"/>
				<line class="st19" x1="278.2" y1="318.7" x2="-146.6" y2="679"/>
				<line class="st19" x1="280" y1="322.5" x2="-144.8" y2="682.8"/>
				<line class="st19" x1="281.8" y1="326.3" x2="-143" y2="686.6"/>
				<line class="st19" x1="283.5" y1="330.1" x2="-141.3" y2="690.5"/>
				<line class="st19" x1="285.3" y1="333.9" x2="-139.5" y2="694.3"/>
				<line class="st19" x1="287.1" y1="337.7" x2="-137.7" y2="698.1"/>
				<line class="st19" x1="288.9" y1="341.5" x2="-135.9" y2="701.9"/>
				<line class="st19" x1="290.6" y1="345.3" x2="-134.2" y2="705.7"/>
				<line class="st19" x1="292.4" y1="349.1" x2="-132.4" y2="709.5"/>
				<line class="st19" x1="294.2" y1="353" x2="-130.6" y2="713.3"/>
				<line class="st19" x1="296" y1="356.8" x2="-128.9" y2="717.1"/>
				<line class="st19" x1="297.7" y1="360.6" x2="-127.1" y2="720.9"/>
				<line class="st19" x1="299.5" y1="364.4" x2="-125.3" y2="724.7"/>
				<line class="st19" x1="301.3" y1="368.2" x2="-123.5" y2="728.5"/>
				<line class="st19" x1="303" y1="372" x2="-121.8" y2="732.3"/>
				<line class="st19" x1="304.8" y1="375.8" x2="-120" y2="736.1"/>
				<line class="st19" x1="306.6" y1="379.6" x2="-118.2" y2="739.9"/>
				<line class="st19" x1="308.4" y1="383.4" x2="-116.4" y2="743.8"/>
				<line class="st19" x1="310.1" y1="387.2" x2="-114.7" y2="747.6"/>
				<line class="st19" x1="311.9" y1="391" x2="-112.9" y2="751.4"/>
				<line class="st19" x1="313.7" y1="394.8" x2="-111.1" y2="755.2"/>
				<line class="st19" x1="315.5" y1="398.6" x2="-109.3" y2="759"/>
				<line class="st19" x1="317.2" y1="402.5" x2="-107.6" y2="762.8"/>
				<line class="st19" x1="319" y1="406.3" x2="-105.8" y2="766.6"/>
				<line class="st19" x1="320.8" y1="410.1" x2="-104" y2="770.4"/>
				<line class="st19" x1="232.9" y1="230" x2="-191.9" y2="590.3"/>
				<line class="st19" x1="274.1" y1="305.8" x2="-150.7" y2="666.2"/>
			</g>
		</g>
	</g>
</g>
<g>
	<g>
		<circle class="st3" cx="681.8" cy="267.2" r="4"/>
		<line class="st17" x1="484" y1="222" x2="681.8" y2="267.2"/>
		<circle class="st8" cx="484" cy="222" r="6.1"/>
	</g>
	<g>
		<circle class="st2" cx="640.8" cy="245.7" r="3"/>
		<circle class="st8" cx="544.6" cy="270.3" r="2"/>
		<line class="st16" x1="640.8" y1="245.7" x2="544.6" y2="270.3"/>
	</g>
</g>
<path class="st20" d="M140.6,244.6c0,0,80.4,48.3,205.7,47.4c125.3-0.9,172.2-35.6,172.2-35.6"/>
<g>
	<polygon class="st21" points="563.9,204.3 562.6,184.7 579,174 596.7,182.8 598,202.4 581.6,213.1 	"/>
	<polygon class="st22" points="572.1,198.9 571.4,189.1 579.6,183.8 588.5,188.2 589.1,198 580.9,203.3 	"/>
</g>
<g>
	<g class="st23">
		<polyline class="st24" points="119.5,961 134.3,973.3 119.5,985.7 		"/>
		<polygon class="st2" points="126.8,967.1 126.8,979.9 133.8,972.9 		"/>
	</g>
	<g>
		<polyline class="st25" points="101.3,961 116,973.3 101.3,985.7 		"/>
		<polygon class="st3" points="108.6,967.1 108.6,979.9 115.6,972.9 		"/>
	</g>
	<g class="st26">
		<polyline class="st25" points="83,961 97.8,973.3 83,985.7 		"/>
		<polygon class="st3" points="90.3,967.1 90.3,979.9 97.3,972.9 		"/>
	</g>
	<g class="st27">
		<polyline class="st24" points="64.8,961 79.5,973.3 64.8,985.7 		"/>
		<polygon class="st2" points="72.1,967.1 72.1,979.9 79.1,972.9 		"/>
	</g>
	<g class="st28">
		<polyline class="st24" points="46.5,961 61.3,973.3 46.5,985.7 		"/>
		<polygon class="st2" points="53.8,967.1 53.8,979.9 60.8,972.9 		"/>
	</g>
	<g class="st28">
		<polyline class="st24" points="27.6,961 42.4,973.3 27.6,985.7 		"/>
		<polygon class="st2" points="34.9,967.1 34.9,979.9 41.9,972.9 		"/>
	</g>
	<g class="st28">
		<polyline class="st24" points="8.7,961 23.5,973.3 8.7,985.7 		"/>
		<polygon class="st2" points="16,967.1 16,979.9 23,972.9 		"/>
	</g>
	<g class="st28">
		<polyline class="st24" points="-10.2,961 4.6,973.3 -10.2,985.7 		"/>
		<polygon class="st2" points="-2.9,967.1 -2.9,979.9 4.1,972.9 		"/>
	</g>
	<g class="st29">
		<polyline class="st24" points="-29.1,961 -14.3,973.3 -29.1,985.7 		"/>
		<polygon class="st2" points="-21.8,967.1 -21.8,979.9 -14.8,972.9 		"/>
	</g>
	<g class="st29">
		<polyline class="st24" points="-48,961 -33.2,973.3 -48,985.7 		"/>
		<polygon class="st2" points="-40.7,967.1 -40.7,979.9 -33.7,972.9 		"/>
	</g>
	<g class="st29">
		<polyline class="st24" points="-66.9,961 -52.1,973.3 -66.9,985.7 		"/>
		<polygon class="st2" points="-59.6,967.1 -59.6,979.9 -52.6,972.9 		"/>
	</g>
	<g class="st30">
		<polyline class="st24" points="136.1,961 150.9,973.3 136.1,985.7 		"/>
		<polygon class="st2" points="143.4,967.1 143.4,979.9 150.4,972.9 		"/>
	</g>
	<g class="st31">
		<polyline class="st24" points="152.7,961 167.5,973.3 152.7,985.7 		"/>
		<polygon class="st2" points="160,967.1 160,979.9 167,972.9 		"/>
	</g>
	<g class="st32">
		<polyline class="st24" points="169.3,961 184.1,973.3 169.3,985.7 		"/>
		<polygon class="st2" points="176.6,967.1 176.6,979.9 183.6,972.9 		"/>
	</g>
	<g>
		<polyline class="st33" points="185.9,961 200.6,973.3 185.9,985.7 		"/>
		<polygon class="st34" points="193.2,967.1 193.2,979.9 200.2,972.9 		"/>
	</g>
	<g>
		<polyline class="st33" points="216.8,961 231.6,973.3 216.8,985.7 		"/>
		<polygon class="st34" points="224.1,967.1 224.1,979.9 231.1,972.9 		"/>
	</g>
</g>
<g>
	<g>
		<polyline class="st35" points="505.9,139.9 512.8,164.3 538.4,152.8 505.6,139.2 		"/>
		<g>
			<circle class="st2" cx="538.4" cy="152.8" r="1.1"/>
			<circle class="st3" cx="505.6" cy="139.2" r="0.7"/>
		</g>
		<g>
			<circle class="st3" cx="512.7" cy="164.3" r="0.7"/>
		</g>
	</g>
	<g>
		<polyline class="st35" points="532,128.3 538.9,152.7 564.4,141.2 531.7,127.6 		"/>
		<g>
			<circle class="st3" cx="564.4" cy="141.2" r="1.1"/>
			<circle class="st8" cx="531.7" cy="127.6" r="0.7"/>
		</g>
		<g>
			<circle class="st3" cx="538.8" cy="152.7" r="0.7"/>
		</g>
	</g>
	<g>
		<polyline class="st35" points="597.1,128.3 590.2,152.7 564.6,141.2 597.4,127.6 		"/>
		<g>
			<circle class="st3" cx="597.4" cy="127.6" r="0.7"/>
		</g>
		<g>
			<circle class="st8" cx="590.3" cy="152.7" r="0.7"/>
		</g>
	</g>
</g>
<g>
	<circle class="st8" cx="615.2" cy="517.5" r="5.3"/>
	<circle class="st2" cx="591.7" cy="519.9" r="5.3"/>
	<circle class="st3" cx="581.1" cy="526.2" r="5.3"/>
	<circle class="st36" cx="571.8" cy="534.3" r="5.3"/>
	<circle class="st37" cx="566.5" cy="545.1" r="5.3"/>
	<circle class="st38" cx="563.9" cy="557.1" r="5.3"/>
	<circle class="st38" cx="563.9" cy="602.2" r="5.3"/>
	<circle class="st38" cx="563.9" cy="645.2" r="5.3"/>
</g>
<g>
	<g>
		<g>
			<circle class="st8" cx="557.8" cy="401.2" r="6.8"/>
			<circle class="st8" cx="72.6" cy="401.6" r="4.3"/>
			<circle class="st8" cx="586.4" cy="462.5" r="4.3"/>
			<path class="st8" d="M485.7,520.6c0.4,2.9-2,5.3-4.9,4.9c-1.8-0.3-3.3-1.8-3.5-3.5c-0.4-2.9,2-5.3,4.9-4.9
				C484,517.4,485.4,518.8,485.7,520.6z"/>
			<circle class="st8" cx="176.7" cy="522.5" r="8.5"/>
		</g>
		<polygon class="st8" points="481.3,521 500.5,463 587.6,463 558.6,401 71.7,401 105.8,463 155.8,463 177.7,521 		"/>
	</g>
	<g>
		<g>
			<path class="st39" d="M132.8,436.3h-11.6l-4.7,12.9h-2l12.5-34.4l12.5,34.4h-2L132.8,436.3z M132.1,434.4l-5.1-14.1l-5.1,14.1
				H132.1z"/>
			<path class="st39" d="M158.2,444.1v-28.6h1.9v28.6c0.3,0.6,0.7,1.1,1.2,1.6c1.3,1.2,2.8,1.8,4.5,1.8s3.2-0.6,4.5-1.9
				c1.3-1.2,1.9-2.7,1.9-4.5v-25.7h1.9v25.8c0,2.2-0.8,4.1-2.4,5.6c-1.6,1.6-3.6,2.4-5.9,2.4c-2.3,0-4.2-0.8-5.9-2.4
				c-0.3-0.3-0.6-0.6-0.8-0.9c-0.2,0.3-0.5,0.6-0.8,0.9c-1.6,1.6-3.6,2.4-5.9,2.4c-2.3,0-4.2-0.8-5.9-2.4c-1.6-1.6-2.4-3.4-2.4-5.6
				v-25.8h1.9v25.7c0,1.8,0.6,3.2,1.9,4.5c1.3,1.2,2.8,1.9,4.5,1.9s3.2-0.6,4.5-1.8C157.5,445.3,157.9,444.7,158.2,444.1z"/>
			<path class="st39" d="M189.3,430.6c-2.4-0.8-4.3-1.9-5.7-3.3s-2.1-3.1-2.1-5c0-1.9,0.7-3.6,2.1-5s3.1-2.1,5-2.1
				c2,0,3.6,0.7,5,2.1c0.8,0.7,1.3,1.6,1.6,2.5l-1.7,0.7c-0.3-0.7-0.7-1.3-1.2-1.9c-1-1-2.3-1.5-3.7-1.5s-2.7,0.5-3.7,1.5
				c-1,1-1.5,2.2-1.5,3.7c0,1.4,0.5,2.7,1.5,3.7c1,0.9,2.3,1.8,3.9,2.6c2.7,0.9,4.9,2.2,6.8,4.1c1.9,1.9,2.9,4.3,2.9,7
				c0,2.8-1,5.1-2.9,7.1c-1.9,1.9-4.3,2.9-7,2.9s-5.1-1-7-2.9c-1.6-1.6-2.5-3.4-2.8-5.4l1.8-0.7c0.2,1.8,1,3.4,2.3,4.8
				c1.6,1.6,3.5,2.4,5.7,2.4c2.2,0,4.1-0.8,5.7-2.4c1.6-1.6,2.4-3.5,2.4-5.7c0-2.2-0.8-4.1-2.4-5.7
				C193,432.5,191.3,431.4,189.3,430.6z"/>
			<path class="st39" d="M228.4,413.8h2v8.9h8.2v1.9h-8.2v4.8c0,7.1,0,19.6-20.6,21.5l-0.6-2c18.5-1.4,19.2-11.7,19.2-19.5v-4.8h-18
				v13h-2.1v-13h-8v-1.9h8V414h2.1v8.7h18L228.4,413.8L228.4,413.8z"/>
			<path class="st39" d="M275.9,431.3v2.1h-37.7v-2.1H275.9z"/>
			<path class="st39" d="M275.4,448.3c6.9-6.8,9.7-16.4,10.4-32.6l2.2,0.2c-0.9,15.8-3.6,26.5-11,33.5L275.4,448.3z M302.2,415.5
				c0.9,14.3,2.9,23.5,11,32.7l-1.8,1.3c-9.1-11.1-10.2-20.2-11.3-33.6L302.2,415.5z M307.6,420.6c-1.3-2.8-2.3-4.5-3.5-6.2l1.8-0.8
				c1,1.2,2.3,3.1,3.5,6.1L307.6,420.6z M312.3,419c-0.9-2.3-1.9-4-3.3-5.9l1.8-0.8c1.6,2,2.5,3.6,3.4,5.9L312.3,419z"/>
			<path class="st39" d="M323.6,429.9v11.9c0.4,2.4,1.4,4.2,3.5,5.3c2.2,1.1,4.8,1.8,7.2,1.8h22l-0.6,1.7h-21.1
				c-4.3,0-8.7-1.3-11.1-4.8c-3.5,3.6-4.2,4.3-5.9,5.6l-0.9-1.7c1.3-1,3.7-2.8,5.1-4.6v-13.5h-4.7v-1.7H323.6z M324.3,420.8
				c-1.4-1.5-3.4-3.6-6.6-5.6l1.1-1.4c3.7,2.2,5.6,4.4,6.7,5.6L324.3,420.8z M355.7,442.8h-14.2v4.9h-1.7v-4.9H326v-1.5h13.7v-3.5
				H328v-13h11.8v-3.4h-9.6v-1.6h9.6V416h-11.4v5.8h-1.7v-7.4H355v7.4h-1.7V416h-11.8v3.8h9.3v1.6h-9.3v3.4h11.8v13h-11.8v3.5h14.2
				V442.8z M339.7,426.2h-10v4.3h10V426.2z M339.7,432h-10v4.3h10V432z M351.5,426.2h-10.1v4.3h10.1V426.2z M351.5,432h-10.1v4.3
				h10.1V432z"/>
			<path class="st39" d="M392.6,448c0,2.7-0.2,3.7-3.3,3.7h-5.4l-0.3-1.8l6,0.1c1.1,0,1.1-0.6,1.1-1.4v-10.4h-13.5v13.1h-1.8v-13.1
				h-12.7c-0.4,3.7-0.9,8.1-5,13.5l-1.5-1c4.8-6.7,4.8-12.4,4.8-17.5v-18.4h31.7V448z M375.4,436.6v-9.7h-12.6v7c0,0.5,0,1.2,0,2.7
				H375.4z M375.4,416.3h-12.6v9h12.6V416.3z M390.7,416.3h-13.5v9h13.5V416.3z M390.7,426.9h-13.5v9.7h13.5V426.9z"/>
			<path class="st39" d="M424,413.8h2v8.9h8.2v1.9H426v4.8c0,7.1,0,19.6-20.6,21.5l-0.6-2c18.5-1.4,19.2-11.7,19.2-19.5v-4.8h-18v13
				H404v-13h-8v-1.9h8V414h2.1v8.7h18L424,413.8L424,413.8z"/>
			<path class="st39" d="M472.4,431.3v2.1h-37.7v-2.1H472.4z"/>
			<path class="st39" d="M480.3,415.2V430c12.1-2.5,19.7-5.9,25.1-8.9l1.4,1.6c-7.6,4.1-17,7.1-26.5,9.1v11c0,4.2,0.8,4.7,7.9,4.7
				h9.9c3,0,7.8-0.1,10.7-0.6l0.1,1.9c-3.7,0.5-9.2,0.5-12.1,0.5h-8.8c-7.7,0-9.8-0.7-9.8-6.6v-27.6H480.3z M506.7,419.6
				c-1.2-2.7-2.3-4.4-3.6-6.2l1.8-0.8c1.5,1.9,2.7,3.9,3.6,6.1L506.7,419.6z M511.5,418.2c-1-2.3-1.9-3.9-3.4-5.9l1.8-0.8
				c1.6,2,2.6,3.7,3.4,5.8L511.5,418.2z"/>
			<path class="st39" d="M514.1,448.6c12.4-5.6,24.2-18.1,27.3-30.5H516v-1.9h28c-1.7,8-5.5,13.9-8.8,18.1
				c7.7,6.5,8.6,7.2,15.5,14.1l-1.7,1.6c-3.7-4.2-10.8-11.1-14.9-14.4c-8.2,9.5-16.2,13.3-18.8,14.5L514.1,448.6z"/>
			<path class="st39" d="M185.4,502.9c10.5-1.2,24.6-7.3,27-27.2c-0.6-0.3-0.9-0.6-1.1-0.9h-30.2v-1.9h29.1c-0.1-0.2-0.2-0.5-0.2-1
				c0-2.5,2-4.5,4.5-4.5c2.5,0,4.5,2,4.5,4.5c0,2.3-1.8,4.5-4.6,4.4c-1.7,15.5-11.3,26.1-28.5,28.6L185.4,502.9z M211.9,471.8
				c0,1.5,1.2,2.7,2.7,2.7c1.5,0,2.7-1.2,2.7-2.7c0-1.5-1.2-2.7-2.7-2.7C213.1,469.1,211.9,470.3,211.9,471.8z"/>
			<path class="st39" d="M254.3,480.3c-2.3,19.8-14.5,23.1-27.5,24.5l-0.6-1.9c14.7-1.4,23.4-5.6,25.8-20.7h-31.7v-1.9L254.3,480.3
				L254.3,480.3z M251.6,470v1.9h-28.3V470H251.6z"/>
			<path class="st39" d="M277,467.7v7.4h14.9v2.7c0,12.6-4,24.4-26.5,26.9l-0.6-2c16.8-2,24.9-8.1,24.9-24.6v-1.1h-27.4v11.7h-2.1
				v-13.6h14.7v-7.4L277,467.7L277,467.7z"/>
			<path class="st39" d="M306.5,468v11.9c7.4,2.3,15.7,6,22,9.7l-1,2c-4.5-2.8-13.6-7.5-21-9.8v23.5h-2.1V468H306.5z M324,476.2
				c-0.5-1-1.5-3.5-3.5-6.2l1.8-0.8c1.4,1.9,2.5,3.6,3.5,6.2L324,476.2z M328.6,474.3c-0.9-2.3-1.8-3.9-3.3-5.9l1.8-0.8
				c1.5,1.9,2.5,3.6,3.4,5.9L328.6,474.3z"/>
			<path class="st39" d="M365.6,474.3c-0.5,2.8-2.3,12.1-10,20.6c-5.3,5.8-11.6,8.4-19.6,10.3l-0.9-2c6.4-1.3,13.5-3.5,19.2-10
				c6.5-7.2,8.2-14.7,8.7-17h-18.1c-4.9,6.8-8.8,9.3-10.7,10.6l-1.3-1.6c7.1-4.8,11.7-11,14.1-17.3l2.4,0.3c-0.4,1-1.1,2.7-3.2,6.1
				L365.6,474.3L365.6,474.3z"/>
			<path class="st39" d="M403,480.3c-2.3,19.8-14.5,23.1-27.5,24.5l-0.6-1.9c14.7-1.4,23.4-5.6,25.8-20.7h-31.7v-1.9L403,480.3
				L403,480.3z M400.3,470v1.9H372V470H400.3z"/>
			<path class="st39" d="M424.8,467.7v7.4h14.9v2.7c0,12.6-4,24.4-26.5,26.9l-0.6-2c16.8-2,24.9-8.1,24.9-24.6v-1.1H410v11.7H408
				v-13.6h14.7v-7.4L424.8,467.7L424.8,467.7z"/>
			<path class="st39" d="M453.5,468v11.9c7.4,2.3,15.7,6,22,9.7l-1,2c-4.5-2.8-13.6-7.5-21-9.8v23.5h-2.1V468H453.5z M471,476.2
				c-0.5-1-1.5-3.5-3.5-6.2l1.8-0.8c1.4,1.9,2.5,3.6,3.5,6.2L471,476.2z M475.6,474.3c-0.9-2.3-1.8-3.9-3.3-5.9l1.8-0.8
				c1.5,1.9,2.5,3.6,3.4,5.9L475.6,474.3z"/>
		</g>
	</g>
</g>
<g>
	<polygon class="st40" points="275,154.3 320.5,128.3 366,154.3 366,206.2 320.5,232.2 275,206.2 	"/>
	<polygon class="st41" points="280,157.1 320.5,133.9 361,157.1 361,203.4 320.5,226.6 280,203.4 	"/>
	<g>
		<path class="st39" d="M303.7,183.6h-10.3l-4.1,11.4h-1.8l11.1-30.4l11,30.4h-1.8L303.7,183.6z M303.1,181.9l-4.5-12.5l-4.5,12.5
			H303.1z"/>
		<path class="st39" d="M321.4,190.5v-25.2h1.7v25.2c0.3,0.5,0.6,1,1.1,1.4c1.1,1.1,2.4,1.6,4,1.6c1.5,0,2.9-0.5,4-1.6
			s1.7-2.4,1.7-4v-22.7h1.7v22.8c0,1.9-0.7,3.6-2.1,5c-1.4,1.4-3.2,2.2-5.2,2.2c-2,0-3.7-0.7-5.2-2.1c-0.3-0.2-0.5-0.5-0.7-0.8
			c-0.2,0.3-0.4,0.5-0.7,0.8c-1.4,1.4-3.2,2.1-5.2,2.1c-2,0-3.8-0.7-5.2-2.2c-1.4-1.4-2.1-3-2.2-5v-22.8h1.7v22.7
			c0,1.5,0.6,2.9,1.7,4c1.1,1.1,2.4,1.6,4,1.6s2.9-0.5,4-1.6C320.8,191.5,321.1,191,321.4,190.5z"/>
		<path class="st39" d="M344.1,178.5c-2.1-0.7-3.8-1.7-5-2.9s-1.8-2.7-1.8-4.5c0-1.7,0.6-3.2,1.8-4.4c1.2-1.2,2.7-1.8,4.5-1.8
			c1.7,0,3.2,0.6,4.5,1.8c0.7,0.7,1.1,1.4,1.4,2.2l-1.5,0.6c-0.2-0.6-0.6-1.2-1.1-1.7c-0.9-0.9-2-1.3-3.3-1.3
			c-1.3,0-2.4,0.4-3.3,1.3c-0.9,0.9-1.4,2-1.4,3.3c0,1.3,0.5,2.4,1.4,3.3c0.8,0.8,2,1.6,3.5,2.3c2.4,0.8,4.4,2,6,3.6
			c1.7,1.7,2.6,3.8,2.6,6.2c0,2.4-0.9,4.5-2.6,6.2c-1.7,1.7-3.8,2.6-6.2,2.6c-2.4,0-4.5-0.9-6.2-2.6c-1.4-1.4-2.2-3-2.5-4.8l1.6-0.6
			c0.2,1.6,0.9,3,2.1,4.2c1.4,1.4,3.1,2.1,5,2.1c2,0,3.7-0.7,5.1-2.1c1.4-1.4,2.1-3.1,2.1-5.1c0-2-0.7-3.6-2.1-5
			C347.4,180.2,345.9,179.2,344.1,178.5z"/>
	</g>
</g>
<g>
	<g>
		<path class="st42" d="M29.7,314.6v28.1h-4.6v-80.9h21.2c6.2,0.8,11.4,3.4,15.7,7.7c5.2,5.2,7.7,11.4,7.7,18.7
			c0,7.3-2.6,13.6-7.7,18.7c-5.2,5.2-11.4,7.7-18.7,7.7H29.7z M29.7,266.3V310h13.8c6,0,11.1-2.1,15.4-6.4c4.3-4.3,6.4-9.4,6.4-15.5
			s-2.1-11.2-6.4-15.4c-4.3-4.2-9.4-6.4-15.4-6.4H29.7z"/>
		<path class="st42" d="M80.2,293h4.6v9.1c0.9-1.3,2-2.6,3.3-3.9c4-4,8.1-6.1,12.3-6.3v5c-2.9,0.1-5.8,1.7-8.9,4.8
			c-4.3,4.3-6.6,9.4-6.7,15.4v25.6h-4.6C80.2,342.7,80.2,293,80.2,293z"/>
		<path class="st42" d="M137.4,288.5c7.7,0,14.2,2.7,19.7,8.1c5.4,5.4,8.1,12,8.1,19.7c0,7.7-2.7,14.2-8.1,19.6
			c-5.4,5.4-12,8.1-19.7,8.1c-7.7,0-14.2-2.7-19.6-8.1c-5.4-5.4-8.1-12-8.1-19.6c0-7.7,2.7-14.2,8.1-19.7
			C123.2,291.2,129.7,288.5,137.4,288.5z M121.1,300.1c-4.5,4.5-6.7,9.9-6.7,16.2s2.2,11.7,6.7,16.2c4.5,4.5,9.9,6.7,16.2,6.7
			s11.8-2.2,16.2-6.7c4.5-4.5,6.7-9.9,6.7-16.2s-2.2-11.8-6.7-16.2c-4.5-4.5-9.9-6.7-16.2-6.7S125.6,295.6,121.1,300.1z"/>
		<path class="st42" d="M197.7,343.4c-6.2,0-11.1-1.8-14.8-5.5c-3.7-3.7-5.6-8.3-5.7-13.9v-31h4.6v30.6c0,4.2,1.5,7.8,4.6,10.8
			c3,3,6.8,4.5,11.3,4.5c4.2,0,7.8-1.5,10.9-4.5c3.1-3,4.6-6.6,4.6-10.8V293h4.6v31c-0.1,5.6-2,10.2-5.7,13.9
			C208.3,341.5,203.6,343.4,197.7,343.4z"/>
		<path class="st42" d="M286.5,342.7h-4.6v-10.1c-0.9,1.2-1.8,2.3-2.9,3.4c-5.4,5.4-12,8.1-19.7,8.1c-7.7,0-14.2-2.7-19.6-8.1
			c-5.4-5.4-8.1-12-8.1-19.6c0-7.7,2.7-14.2,8.1-19.7c5.4-5.4,12-8.1,19.6-8.1c7.7,0,14.2,2.7,19.7,8.1c1,1.1,2,2.2,2.9,3.4v-38.3
			h4.6V342.7z M281.9,320.8v-9c-0.8-4.5-3-8.4-6.3-11.7c-4.5-4.5-9.9-6.7-16.2-6.7s-11.8,2.2-16.2,6.7c-4.5,4.5-6.7,9.9-6.7,16.2
			s2.2,11.7,6.7,16.2c4.5,4.5,9.9,6.7,16.2,6.7s11.8-2.2,16.2-6.7C279,329.1,281.1,325.2,281.9,320.8z"/>
		<path class="st42" d="M402.1,329.8l3.4,3.1c-7.9,7.2-17.2,10.8-27.9,10.8c-11.5,0-21.2-4-29.3-12.1c-8.1-8.1-12.1-17.8-12.1-29.3
			c0-11.4,4-21.2,12.1-29.3c8.1-8.1,17.8-12.1,29.3-12.1c10.7,0,20,3.6,27.9,10.8l-3.4,3.1c-6.9-6.2-15.1-9.3-24.4-9.3
			c-10.2,0-18.8,3.6-26,10.8c-7.2,7.2-10.8,15.9-10.8,26c0,10.2,3.6,18.9,10.8,26.1c7.2,7.2,15.9,10.8,26,10.8
			C387,339,395.1,335.9,402.1,329.8z"/>
		<path class="st42" d="M420.6,261.7v80.9h-4.6v-80.9H420.6z"/>
		<path class="st42" d="M460.5,288.5c7.7,0,14.2,2.7,19.7,8.1c5.4,5.4,8.1,12,8.1,19.7c0,7.7-2.7,14.2-8.1,19.6
			c-5.4,5.4-12,8.1-19.7,8.1c-7.7,0-14.2-2.7-19.6-8.1c-5.4-5.4-8.1-12-8.1-19.6c0-7.7,2.7-14.2,8.1-19.7
			C446.3,291.2,452.9,288.5,460.5,288.5z M444.3,300.1c-4.5,4.5-6.7,9.9-6.7,16.2s2.2,11.7,6.7,16.2c4.5,4.5,9.9,6.7,16.2,6.7
			s11.8-2.2,16.2-6.7c4.5-4.5,6.7-9.9,6.7-16.2s-2.2-11.8-6.7-16.2c-4.5-4.5-9.9-6.7-16.2-6.7S448.8,295.6,444.3,300.1z"/>
		<path class="st42" d="M520.9,343.4c-6.2,0-11.1-1.8-14.8-5.5c-3.7-3.7-5.6-8.3-5.7-13.9v-31h4.6v30.6c0,4.2,1.5,7.8,4.6,10.8
			c3,3,6.8,4.5,11.3,4.5c4.2,0,7.8-1.5,10.9-4.5c3.1-3,4.6-6.6,4.6-10.8V293h4.6v31c-0.1,5.6-2,10.2-5.7,13.9
			C531.5,341.5,526.8,343.4,520.9,343.4z"/>
		<path class="st42" d="M609.7,342.7h-4.6v-10.1c-0.9,1.2-1.8,2.3-2.9,3.4c-5.4,5.4-12,8.1-19.7,8.1c-7.7,0-14.2-2.7-19.6-8.1
			c-5.4-5.4-8.1-12-8.1-19.6c0-7.7,2.7-14.2,8.1-19.7c5.4-5.4,12-8.1,19.6-8.1c7.7,0,14.2,2.7,19.7,8.1c1,1.1,2,2.2,2.9,3.4v-38.3
			h4.6V342.7z M605.1,320.8v-9c-0.8-4.5-3-8.4-6.3-11.7c-4.5-4.5-9.9-6.7-16.2-6.7s-11.8,2.2-16.2,6.7c-4.5,4.5-6.7,9.9-6.7,16.2
			s2.2,11.7,6.7,16.2c4.5,4.5,9.9,6.7,16.2,6.7s11.8-2.2,16.2-6.7C602.2,329.1,604.3,325.2,605.1,320.8z"/>
	</g>
</g>
<g>
	<path class="st34" d="M556,864v19h-19v-19H556 M557,863h-21v21h21V863L557,863z"/>
	<path class="st34" d="M576,864v19h-19v-19H576 M577,863h-21v21h21V863L577,863z"/>
	<path class="st34" d="M596,864v19h-19v-19H596 M597,863h-21v21h21V863L597,863z"/>
	<path class="st34" d="M616,864v19h-19v-19H616 M617,863h-21v21h21V863L617,863z"/>
	<path class="st34" d="M556,825v18h-19v-18H556 M557,824h-21v20h21V824L557,824z"/>
	<path class="st34" d="M576,825v18h-19v-18H576 M577,824h-21v20h21V824L577,824z"/>
	<path class="st34" d="M616,884v19h-19v-19H616 M617,883h-21v21h21V883L617,883z"/>
	<path class="st34" d="M616,904v19h-19v-19H616 M617,903h-21v21h21V903L617,903z"/>
	<path class="st3" d="M636,864v19h-19v-19H636 M637,863h-21v21h21V863L637,863z"/>
	<path class="st3" d="M637,925v18h-19v-18H637 M638,924h-21v20h21V924L638,924z"/>
	<path class="st3" d="M656,864v19h-19v-19H656 M657,863h-21v21h21V863L657,863z"/>
	<g>
		<path class="st8" d="M596,844v19h-19v-19H596 M597,843h-21v21h21V843L597,843z"/>
	</g>
	<g>
		<path class="st8" d="M616,844v19h-19v-19H616 M617,843h-21v21h21V843L617,843z"/>
	</g>
	<g>
		<path class="st8" d="M596,825v18h-19v-18H596 M597,824h-21v20h21V824L597,824z"/>
	</g>
	<g>
		<path class="st8" d="M616,825v18h-19v-18H616 M617,824h-21v20h21V824L617,824z"/>
	</g>
	<g>
		<path class="st8" d="M636,844v19h-19v-19H636 M637,843h-21v21h21V843L637,843z"/>
	</g>
	<g>
		<path class="st8" d="M656,844v19h-19v-19H656 M657,843h-21v21h21V843L657,843z"/>
	</g>
	<g>
		<path class="st8" d="M636,825v18h-19v-18H636 M637,824h-21v20h21V824L637,824z"/>
	</g>
	<g>
		<path class="st8" d="M656,825v18h-19v-18H656 M657,824h-21v20h21V824L657,824z"/>
	</g>
</g>
<g class="st43">
	<g>
		<defs>
			<polygon id="SVGID_3_" points="921.3,427.6 497.5,709.9 825.3,581.6 			"/>
		</defs>
		<clipPath id="SVGID_4_">
			<use xlink:href="#SVGID_3_"  style="overflow:visible;"/>
		</clipPath>
		<g class="st44">
			<g>
				<line class="st45" x1="650.4" y1="103.7" x2="361.3" y2="657.2"/>
				<line class="st45" x1="653.9" y1="107" x2="364.8" y2="660.4"/>
				<line class="st45" x1="657.3" y1="110.2" x2="368.2" y2="663.6"/>
				<line class="st45" x1="660.8" y1="113.4" x2="371.7" y2="666.9"/>
				<line class="st45" x1="664.2" y1="116.6" x2="375.1" y2="670.1"/>
				<line class="st45" x1="667.7" y1="119.8" x2="378.6" y2="673.3"/>
				<line class="st45" x1="671.1" y1="123" x2="382" y2="676.5"/>
				<line class="st45" x1="674.6" y1="126.2" x2="385.5" y2="679.7"/>
				<line class="st45" x1="678" y1="129.4" x2="388.9" y2="682.9"/>
				<line class="st45" x1="681.5" y1="132.6" x2="392.4" y2="686.1"/>
				<line class="st45" x1="684.9" y1="135.8" x2="395.8" y2="689.3"/>
				<line class="st45" x1="688.4" y1="139" x2="399.3" y2="692.5"/>
				<line class="st45" x1="691.8" y1="142.2" x2="402.7" y2="695.7"/>
				<line class="st45" x1="695.3" y1="145.4" x2="406.2" y2="698.9"/>
				<line class="st45" x1="698.7" y1="148.6" x2="409.6" y2="702.1"/>
				<line class="st45" x1="702.2" y1="151.8" x2="413.1" y2="705.3"/>
				<line class="st45" x1="705.6" y1="155" x2="416.5" y2="708.5"/>
				<line class="st45" x1="709.1" y1="158.2" x2="420" y2="711.7"/>
				<line class="st45" x1="712.5" y1="161.4" x2="423.4" y2="714.9"/>
				<line class="st45" x1="716" y1="164.6" x2="426.9" y2="718.1"/>
				<line class="st45" x1="719.4" y1="167.9" x2="430.3" y2="721.3"/>
				<line class="st45" x1="722.9" y1="171.1" x2="433.8" y2="724.5"/>
				<line class="st45" x1="726.3" y1="174.3" x2="437.2" y2="727.8"/>
				<line class="st45" x1="729.8" y1="177.5" x2="440.7" y2="731"/>
				<line class="st45" x1="733.2" y1="180.7" x2="444.1" y2="734.2"/>
				<line class="st45" x1="736.7" y1="183.9" x2="447.6" y2="737.4"/>
				<line class="st45" x1="740.1" y1="187.1" x2="451" y2="740.6"/>
				<line class="st45" x1="743.6" y1="190.3" x2="454.5" y2="743.8"/>
				<line class="st45" x1="747" y1="193.5" x2="457.9" y2="747"/>
				<line class="st45" x1="750.5" y1="196.7" x2="461.4" y2="750.2"/>
				<line class="st45" x1="753.9" y1="199.9" x2="464.8" y2="753.4"/>
				<line class="st45" x1="757.4" y1="203.1" x2="468.3" y2="756.6"/>
				<line class="st45" x1="760.8" y1="206.3" x2="471.7" y2="759.8"/>
				<line class="st45" x1="764.3" y1="209.5" x2="475.2" y2="763"/>
				<line class="st45" x1="767.7" y1="212.7" x2="478.6" y2="766.2"/>
				<line class="st45" x1="771.2" y1="215.9" x2="482.1" y2="769.4"/>
				<line class="st45" x1="778.1" y1="222.3" x2="489" y2="775.8"/>
				<line class="st45" x1="781.5" y1="225.6" x2="492.4" y2="779"/>
				<line class="st45" x1="785" y1="228.8" x2="495.9" y2="782.2"/>
				<line class="st45" x1="788.4" y1="232" x2="499.3" y2="785.4"/>
				<line class="st45" x1="791.8" y1="235.2" x2="502.8" y2="788.7"/>
				<line class="st45" x1="795.3" y1="238.4" x2="506.2" y2="791.9"/>
				<line class="st45" x1="798.7" y1="241.6" x2="509.7" y2="795.1"/>
				<line class="st45" x1="802.2" y1="244.8" x2="513.1" y2="798.3"/>
				<line class="st45" x1="805.6" y1="248" x2="516.6" y2="801.5"/>
				<line class="st45" x1="809.1" y1="251.2" x2="520" y2="804.7"/>
				<line class="st45" x1="812.5" y1="254.4" x2="523.5" y2="807.9"/>
				<line class="st45" x1="816" y1="257.6" x2="526.9" y2="811.1"/>
				<line class="st45" x1="819.4" y1="260.8" x2="530.4" y2="814.3"/>
				<line class="st45" x1="822.9" y1="264" x2="533.8" y2="817.5"/>
				<line class="st45" x1="826.3" y1="267.2" x2="537.3" y2="820.7"/>
				<line class="st45" x1="829.8" y1="270.4" x2="540.7" y2="823.9"/>
				<line class="st45" x1="833.2" y1="273.6" x2="544.2" y2="827.1"/>
				<line class="st45" x1="836.7" y1="276.8" x2="547.6" y2="830.3"/>
				<line class="st45" x1="840.1" y1="280" x2="551.1" y2="833.5"/>
				<line class="st45" x1="843.6" y1="283.2" x2="554.5" y2="836.7"/>
				<line class="st45" x1="850.5" y1="289.7" x2="561.4" y2="843.1"/>
				<line class="st45" x1="853.9" y1="292.9" x2="564.9" y2="846.3"/>
				<line class="st45" x1="857.4" y1="296.1" x2="568.3" y2="849.6"/>
				<line class="st45" x1="860.8" y1="299.3" x2="571.8" y2="852.8"/>
				<line class="st45" x1="864.3" y1="302.5" x2="575.2" y2="856"/>
				<line class="st45" x1="867.7" y1="305.7" x2="578.7" y2="859.2"/>
				<line class="st45" x1="871.2" y1="308.9" x2="582.1" y2="862.4"/>
				<line class="st45" x1="874.6" y1="312.1" x2="585.5" y2="865.6"/>
				<line class="st45" x1="878.1" y1="315.3" x2="589" y2="868.8"/>
				<line class="st45" x1="881.5" y1="318.5" x2="592.4" y2="872"/>
				<line class="st45" x1="885" y1="321.7" x2="595.9" y2="875.2"/>
				<line class="st45" x1="888.4" y1="324.9" x2="599.3" y2="878.4"/>
				<line class="st45" x1="891.9" y1="328.1" x2="602.8" y2="881.6"/>
				<line class="st45" x1="895.3" y1="331.3" x2="606.2" y2="884.8"/>
				<line class="st45" x1="898.8" y1="334.5" x2="609.7" y2="888"/>
				<line class="st45" x1="902.2" y1="337.7" x2="613.1" y2="891.2"/>
				<line class="st45" x1="905.7" y1="340.9" x2="616.6" y2="894.4"/>
				<line class="st45" x1="909.1" y1="344.1" x2="620" y2="897.6"/>
				<line class="st45" x1="912.6" y1="347.4" x2="623.5" y2="900.8"/>
				<line class="st45" x1="916" y1="350.6" x2="626.9" y2="904"/>
				<line class="st45" x1="919.5" y1="353.8" x2="630.4" y2="907.2"/>
				<line class="st45" x1="922.9" y1="357" x2="633.8" y2="910.5"/>
				<line class="st45" x1="926.4" y1="360.2" x2="637.3" y2="913.7"/>
				<line class="st45" x1="929.8" y1="363.4" x2="640.7" y2="916.9"/>
				<line class="st45" x1="933.3" y1="366.6" x2="644.2" y2="920.1"/>
				<line class="st45" x1="936.7" y1="369.8" x2="647.6" y2="923.3"/>
				<line class="st45" x1="940.2" y1="373" x2="651.1" y2="926.5"/>
				<line class="st45" x1="772.5" y1="223.7" x2="483.4" y2="777.2"/>
				<line class="st45" x1="845.9" y1="289.2" x2="556.8" y2="842.7"/>
			</g>
			<g>
				<line class="st45" x1="943.4" y1="375.6" x2="654.3" y2="929.1"/>
				<line class="st45" x1="946.8" y1="378.8" x2="657.7" y2="932.3"/>
				<line class="st45" x1="950.3" y1="382" x2="661.2" y2="935.5"/>
				<line class="st45" x1="953.7" y1="385.2" x2="664.6" y2="938.7"/>
				<line class="st45" x1="957.2" y1="388.4" x2="668.1" y2="941.9"/>
				<line class="st45" x1="960.6" y1="391.7" x2="671.5" y2="945.1"/>
				<line class="st45" x1="964.1" y1="394.9" x2="675" y2="948.3"/>
				<line class="st45" x1="967.5" y1="398.1" x2="678.4" y2="951.6"/>
				<line class="st45" x1="971" y1="401.3" x2="681.9" y2="954.8"/>
				<line class="st45" x1="974.4" y1="404.5" x2="685.3" y2="958"/>
				<line class="st45" x1="977.9" y1="407.7" x2="688.8" y2="961.2"/>
				<line class="st45" x1="981.3" y1="410.9" x2="692.2" y2="964.4"/>
				<line class="st45" x1="984.8" y1="414.1" x2="695.7" y2="967.6"/>
				<line class="st45" x1="988.2" y1="417.3" x2="699.1" y2="970.8"/>
				<line class="st45" x1="991.7" y1="420.5" x2="702.6" y2="974"/>
				<line class="st45" x1="995.1" y1="423.7" x2="706" y2="977.2"/>
				<line class="st45" x1="998.6" y1="426.9" x2="709.5" y2="980.4"/>
				<line class="st45" x1="1002" y1="430.1" x2="712.9" y2="983.6"/>
				<line class="st45" x1="1005.5" y1="433.3" x2="716.4" y2="986.8"/>
				<line class="st45" x1="1008.9" y1="436.5" x2="719.8" y2="990"/>
				<line class="st45" x1="1012.4" y1="439.7" x2="723.3" y2="993.2"/>
				<line class="st45" x1="1015.8" y1="442.9" x2="726.7" y2="996.4"/>
				<line class="st45" x1="1019.3" y1="446.1" x2="730.2" y2="999.6"/>
				<line class="st45" x1="1022.7" y1="449.4" x2="733.6" y2="1002.8"/>
				<line class="st45" x1="1026.2" y1="452.6" x2="737.1" y2="1006"/>
				<line class="st45" x1="1029.6" y1="455.8" x2="740.5" y2="1009.2"/>
				<line class="st45" x1="1033.1" y1="459" x2="744" y2="1012.5"/>
				<line class="st45" x1="1036.5" y1="462.2" x2="747.4" y2="1015.7"/>
				<line class="st45" x1="1040" y1="465.4" x2="750.9" y2="1018.9"/>
				<line class="st45" x1="1043.4" y1="468.6" x2="754.3" y2="1022.1"/>
				<line class="st45" x1="1046.9" y1="471.8" x2="757.8" y2="1025.3"/>
				<line class="st45" x1="1050.3" y1="475" x2="761.2" y2="1028.5"/>
				<line class="st45" x1="1053.8" y1="478.2" x2="764.7" y2="1031.7"/>
				<line class="st45" x1="1057.2" y1="481.4" x2="768.1" y2="1034.9"/>
				<line class="st45" x1="1060.7" y1="484.6" x2="771.6" y2="1038.1"/>
				<line class="st45" x1="1064.1" y1="487.8" x2="775" y2="1041.3"/>
				<line class="st45" x1="1071" y1="494.2" x2="781.9" y2="1047.7"/>
				<line class="st45" x1="1074.5" y1="497.4" x2="785.4" y2="1050.9"/>
				<line class="st45" x1="1077.9" y1="500.6" x2="788.8" y2="1054.1"/>
				<line class="st45" x1="1081.4" y1="503.8" x2="792.3" y2="1057.3"/>
				<line class="st45" x1="1084.8" y1="507" x2="795.7" y2="1060.5"/>
				<line class="st45" x1="1088.3" y1="510.2" x2="799.2" y2="1063.7"/>
				<line class="st45" x1="1091.7" y1="513.5" x2="802.6" y2="1066.9"/>
				<line class="st45" x1="1095.2" y1="516.7" x2="806.1" y2="1070.1"/>
				<line class="st45" x1="1098.6" y1="519.9" x2="809.5" y2="1073.4"/>
				<line class="st45" x1="1102.1" y1="523.1" x2="813" y2="1076.6"/>
				<line class="st45" x1="1105.5" y1="526.3" x2="816.4" y2="1079.8"/>
				<line class="st45" x1="1109" y1="529.5" x2="819.9" y2="1083"/>
				<line class="st45" x1="1112.4" y1="532.7" x2="823.3" y2="1086.2"/>
				<line class="st45" x1="1115.9" y1="535.9" x2="826.8" y2="1089.4"/>
				<line class="st45" x1="1119.3" y1="539.1" x2="830.2" y2="1092.6"/>
				<line class="st45" x1="1122.8" y1="542.3" x2="833.7" y2="1095.8"/>
				<line class="st45" x1="1126.2" y1="545.5" x2="837.1" y2="1099"/>
				<line class="st45" x1="1129.7" y1="548.7" x2="840.6" y2="1102.2"/>
				<line class="st45" x1="1133.1" y1="551.9" x2="844" y2="1105.4"/>
				<line class="st45" x1="1136.6" y1="555.1" x2="847.5" y2="1108.6"/>
				<line class="st45" x1="1143.5" y1="561.5" x2="854.4" y2="1115"/>
				<line class="st45" x1="1146.9" y1="564.7" x2="857.8" y2="1118.2"/>
				<line class="st45" x1="1150.4" y1="567.9" x2="861.3" y2="1121.4"/>
				<line class="st45" x1="1153.8" y1="571.2" x2="864.7" y2="1124.6"/>
				<line class="st45" x1="1157.3" y1="574.4" x2="868.2" y2="1127.8"/>
				<line class="st45" x1="1160.7" y1="577.6" x2="871.6" y2="1131"/>
				<line class="st45" x1="1164.2" y1="580.8" x2="875.1" y2="1134.3"/>
				<line class="st45" x1="1167.6" y1="584" x2="878.5" y2="1137.5"/>
				<line class="st45" x1="1171.1" y1="587.2" x2="882" y2="1140.7"/>
				<line class="st45" x1="1174.5" y1="590.4" x2="885.4" y2="1143.9"/>
				<line class="st45" x1="1177.9" y1="593.6" x2="888.9" y2="1147.1"/>
				<line class="st45" x1="1181.4" y1="596.8" x2="892.3" y2="1150.3"/>
				<line class="st45" x1="1184.8" y1="600" x2="895.8" y2="1153.5"/>
				<line class="st45" x1="1188.3" y1="603.2" x2="899.2" y2="1156.7"/>
				<line class="st45" x1="1191.7" y1="606.4" x2="902.7" y2="1159.9"/>
				<line class="st45" x1="1195.2" y1="609.6" x2="906.1" y2="1163.1"/>
				<line class="st45" x1="1198.6" y1="612.8" x2="909.6" y2="1166.3"/>
				<line class="st45" x1="1202.1" y1="616" x2="913" y2="1169.5"/>
				<line class="st45" x1="1205.5" y1="619.2" x2="916.5" y2="1172.7"/>
				<line class="st45" x1="1209" y1="622.4" x2="919.9" y2="1175.9"/>
				<line class="st45" x1="1212.4" y1="625.6" x2="923.4" y2="1179.1"/>
				<line class="st45" x1="1215.9" y1="628.8" x2="926.8" y2="1182.3"/>
				<line class="st45" x1="1219.3" y1="632.1" x2="930.3" y2="1185.5"/>
				<line class="st45" x1="1222.8" y1="635.3" x2="933.7" y2="1188.7"/>
				<line class="st45" x1="1226.2" y1="638.5" x2="937.2" y2="1191.9"/>
				<line class="st45" x1="1229.7" y1="641.7" x2="940.6" y2="1195.2"/>
				<line class="st45" x1="1233.1" y1="644.9" x2="944.1" y2="1198.4"/>
				<line class="st45" x1="1065.9" y1="494.9" x2="776.8" y2="1048.4"/>
				<line class="st45" x1="1140.7" y1="556.3" x2="851.6" y2="1109.8"/>
			</g>
		</g>
	</g>
</g>
<g>
	<g>
		<g>
			<g>
				<path class="st46" d="M109.9,686.7h-9.3l-3.7,10.3h-1.6l10-27.4l10,27.4h-1.6L109.9,686.7z M109.4,685.1l-4.1-11.2l-4.1,11.2
					H109.4z"/>
				<path class="st46" d="M129.5,692.9v-22.8h1.5v22.8c0.3,0.5,0.6,0.9,1,1.3c1,1,2.2,1.5,3.6,1.5s2.6-0.5,3.6-1.5
					c1-1,1.5-2.2,1.5-3.6v-20.5h1.5v20.6c0,1.7-0.7,3.2-1.9,4.5c-1.3,1.3-2.9,1.9-4.7,1.9c-1.8,0-3.4-0.6-4.7-1.9
					c-0.2-0.2-0.4-0.5-0.6-0.7c-0.2,0.2-0.4,0.5-0.6,0.7c-1.3,1.3-2.9,1.9-4.7,1.9c-1.8,0-3.4-0.6-4.7-1.9c-1.3-1.2-1.9-2.7-1.9-4.5
					v-20.6h1.5v20.5c0,1.4,0.5,2.6,1.5,3.6c1,1,2.2,1.5,3.6,1.5s2.6-0.5,3.6-1.5C128.9,693.8,129.2,693.4,129.5,692.9z"/>
				<path class="st46" d="M154.3,682.1c-1.9-0.6-3.4-1.5-4.5-2.6c-1.1-1.1-1.7-2.4-1.7-4c0-1.5,0.6-2.9,1.7-4c1.1-1.1,2.4-1.7,4-1.7
					c1.6,0,2.9,0.6,4,1.7c0.6,0.6,1,1.3,1.3,2l-1.4,0.5c-0.2-0.5-0.5-1-1-1.5c-0.8-0.8-1.8-1.2-2.9-1.2s-2.1,0.4-2.9,1.2
					c-0.8,0.8-1.2,1.8-1.2,3c0,1.1,0.4,2.1,1.2,2.9c0.8,0.7,1.8,1.4,3.1,2.1c2.1,0.7,3.9,1.8,5.4,3.2c1.6,1.5,2.3,3.4,2.3,5.6
					c0,2.2-0.8,4.1-2.3,5.6c-1.6,1.6-3.4,2.3-5.6,2.3c-2.2,0-4.1-0.8-5.6-2.3c-1.2-1.2-2-2.7-2.2-4.3l1.4-0.5
					c0.2,1.5,0.8,2.7,1.9,3.8c1.3,1.3,2.8,1.9,4.6,1.9c1.8,0,3.3-0.6,4.6-1.9c1.3-1.3,1.9-2.8,1.9-4.6c0-1.8-0.6-3.3-1.9-4.6
					C157.2,683.6,155.9,682.7,154.3,682.1z"/>
				<path class="st47" d="M176,669c-0.2,1-0.4,1.9-0.9,4h14.6v1.8h-15.1c-1.3,3.7-2.2,5.1-2.6,5.8c1-0.8,3.1-2.4,6.2-2.4
					c4,0,4.4,2.8,4.7,4.3c4.9-2,5.5-2.2,8.7-3.4l0.7,2c-3.1,1-6.3,2.1-9.2,3.2c0.1,1.4,0.2,3.3,0.2,4.5c0,0.5,0,1.3-0.2,2.2h-1.9
					c0.1-1,0.2-1.7,0.2-3.3c0-0.2,0-1.4-0.1-2.6c-4.2,1.9-7.9,4.3-7.9,7.1c0,3.3,4.6,3.3,8,3.3c4.5,0,7.5-0.4,9-0.5l0.2,1.9
					c-1.7,0.2-4.3,0.4-8.3,0.4c-3.5,0-10.6,0-10.6-4.9c0-4,4.8-7,9.5-9.1c-0.3-1.5-0.6-3.4-3.2-3.4c-3.3,0-6.3,3-6.7,3.4
					c-0.4,0.5-4.3,5.6-5.3,6.6l-1.4-1.6c1.7-1.6,5.2-4.8,8-13.3h-7.3V673h7.9c0.5-2,0.7-3.1,0.8-4L176,669z"/>
				<path class="st47" d="M193.3,686.2c1.4-1.6,7.7-9.8,8.4-10.4c1.1-1.2,2-1.5,2.9-1.5c1.4,0,2.5,0.6,4.2,2.2l14.9,14.7l-1.5,1.8
					l-15.3-15.7c-0.2-0.2-1.2-1.1-2.2-1.1c-0.4,0-1,0.2-1.7,0.9c-1,1.1-2.7,3.4-8,10.7L193.3,686.2z M217.4,676
					c-1.2-2-2.4-3.5-3.2-4.5l1.5-0.9c1.1,1.2,2.2,2.6,3.3,4.3L217.4,676z M221.1,674.1c-0.9-1.5-2.1-3.1-3.2-4.4l1.4-1
					c0.6,0.6,1.8,1.9,3.3,4.2L221.1,674.1z"/>
				<path class="st47" d="M252.4,682.4v2.1h-28.5v-2.1H252.4z"/>
				<path class="st47" d="M253.3,695.4c6.3-2.8,15.8-9.5,20.3-22.3h-18.8v-1.8h21.3c-1.3,4.9-3.5,9.5-6.6,13.5
					c1.1,0.9,6.2,4.9,11.6,10.4l-1.6,1.5c-2.9-3.2-8.4-8.2-11.2-10.4c-3.8,4.5-8.5,8.2-13.8,10.7L253.3,695.4z"/>
				<path class="st47" d="M288.2,670.2c-0.7,3.1-1.6,7.3-1.6,14.9c0,7.4,0.7,10.2,1.1,11.7l-2.1,0.2c-0.4-2.3-0.9-5.7-0.9-11.7
					c0-5.2,0.3-10.3,1.4-15.4L288.2,670.2z M296.6,684.3c-1.7,2.4-1.7,4.4-1.7,4.8c0,3.5,4.1,3.8,7.6,3.8c0.5,0,5.1-0.1,7.4-0.4v2.1
					c-1.8,0.1-3.4,0.3-5.8,0.3c-4.1,0-11.1,0-11.1-5.8c0-1.4,0.4-3.1,1.7-5.4L296.6,684.3z M309.3,672.8v1.9h-15.1v-1.9H309.3z"/>
				<path class="st47" d="M318,669.8c0,2.5-0.4,13.5-0.4,15.8c0,5,0.3,9.7,7.2,9.7c6.8,0,8.7-3.7,9.4-5c0.9-1.8,1.5-4.9,1.7-6.3
					l1.8,0.5c-0.8,4.6-2.1,12.8-12.7,12.8c-8.6,0-9.6-4.9-9.6-11.9c0-2.4,0.2-13.2,0.3-15.4L318,669.8L318,669.8z"/>
				<path class="st47" d="M349,669.5c-0.1,1.3-0.3,2.7-0.5,4.6h9.9v1.8h-10.2c-1.5,9.2-3.6,16.8-6,21.8l-2-0.7c3-5,5-14.6,5.9-21
					h-5.1v-1.8h5.3c0.1-0.8,0.5-4.1,0.5-4.7L349,669.5z M355.3,687.2c-1.1,1.7-1.8,2.8-1.8,4.2c0,3.5,3.9,3.6,8.5,3.6
					c2.3,0,4.5-0.1,6.5-0.3v2c-1,0-6,0.1-6.3,0.1c-4.9,0-6.5-0.5-7.6-0.9c-2-0.8-2.9-2.8-2.9-4.5c0-2.1,1.1-3.7,2-5.1L355.3,687.2z
					 M367.6,680.4c-0.8,0-1.8-0.1-3.2-0.1c-5.2,0-8.2,1.1-9.3,1.4l-0.5-1.7c1.7-0.6,5.3-1.9,13.1-1.6L367.6,680.4L367.6,680.4z"/>
				<path class="st47" d="M532.4,722.5c-0.2,1-0.4,1.9-0.9,4h14.6v1.8H531c-1.3,3.7-2.2,5.1-2.6,5.8c1-0.8,3.1-2.4,6.2-2.4
					c4,0,4.4,2.8,4.7,4.3c4.9-2,5.5-2.2,8.7-3.4l0.7,2c-3.1,1-6.3,2.1-9.2,3.2c0.1,1.4,0.2,3.3,0.2,4.5c0,0.5,0,1.3-0.2,2.2h-1.9
					c0.1-1,0.2-1.7,0.2-3.3c0-0.2,0-1.4-0.1-2.6c-4.2,1.9-7.9,4.3-7.9,7.1c0,3.3,4.6,3.3,8,3.3c4.5,0,7.5-0.4,9-0.5l0.2,1.9
					c-1.7,0.2-4.3,0.4-8.3,0.4c-3.5,0-10.6,0-10.6-4.9c0-4,4.8-7,9.5-9.1c-0.3-1.5-0.6-3.4-3.2-3.4c-3.3,0-6.3,3-6.7,3.4
					c-0.4,0.5-4.3,5.6-5.3,6.6l-1.4-1.6c1.7-1.6,5.2-4.8,8-13.3h-7.3v-1.8h7.9c0.5-2,0.7-3.1,0.8-4L532.4,722.5z"/>
				<path class="st47" d="M55.2,796.3c-5.3,0-6.9-2-7.6-2.9c-1.2,1.2-2.8,2.5-5.2,3.9l-0.6-1.9c2-0.9,3.5-2,5-3.2v-5.4h-4.4v-1.6
					h6.2v7c1.3,2.2,4.4,2.6,6.6,2.6h16.4l-0.2,1.4h-6v2h6.3v1.5h-6.3v4.3c0,1.1-0.3,2.1-2.3,2.1H59l-0.4-1.9l3.9,0.2
					c0.7,0,0.9-0.1,0.9-0.8v-3.9H42.1v-1.5h21.3v-2L55.2,796.3L55.2,796.3z M48.7,781.8c-2.1-1.4-3.7-2.3-5.5-3.1l0.9-1.3
					c2.4,1,4.1,2,5.6,3L48.7,781.8z M53.7,805.3c-2.2-1.7-3.7-2.6-5.9-3.7l1-1.3c3,1.3,4.8,2.5,6.1,3.5L53.7,805.3z M56.6,779.2
					c-0.4-0.8-0.8-1.4-1.3-2.1l1.6-0.4c0.6,0.9,1,1.5,1.5,2.4h5.7c0.5-1,0.6-1.4,0.9-2.4l1.7,0.4c-0.2,0.7-0.5,1.4-0.8,2.1h5.3v1.4
					h-9.6c-0.2,0.7-0.4,1.1-0.8,1.8h8.5v10.8h-17v-10.8H59c0.5-0.8,0.7-1.3,0.9-1.8h-9.2v-1.4H56.6z M67.7,785.6v-2H54v2H67.7z
					 M54,786.7v2h13.7v-2H54z M54,789.9v2h13.7v-2H54z"/>
				<path class="st47" d="M87.8,778.4c0,17.4,8.9,23.5,13.5,26.1l-1.1,1.8c-11.2-7.3-12.7-15.4-13.3-19.9c-1.2,6.3-3.2,14-14.2,19.9
					l-1-1.6c6.2-3.5,13.9-9.3,13.9-24.6h-8.8v-1.8H87.8z"/>
				<path class="st47" d="M111,777.7c-0.4,2.6-1,5.8-1.1,6.1h4c3.2,0,7.2,0,7.2,7.9c0,3.1-0.5,7.5-1.6,10.2
					c-1.2,2.8-3.2,3.2-5.3,3.2c-1.9,0-4.6-0.3-5.5-0.4v-2c1,0.2,2.7,0.5,5,0.5c1,0,2.9,0,3.9-2.1c1.1-2.4,1.5-6.7,1.5-9.3
					c0-6.4-2.1-6.4-7.1-6.3l-2.5,0c-2.1,10.2-4.3,15.8-5.9,19.6l-1.9-0.8c2.8-6,4.7-12.3,5.9-18.8l-5.6,0.1v-1.8h5.9
					c0.5-3.2,0.6-3.5,0.9-6.2L111,777.7z M127.9,794.7c-0.8-8.5-3.7-11.6-5.1-13l1.5-1c3.8,3.5,5.2,9,5.7,13.6L127.9,794.7z"/>
				<path class="st47" d="M136,782.3c-1,2.9-1.1,5.3-1.1,10.4c5.3-4.6,12.4-4.6,13-4.6c4,0,8.3,2.2,8.3,7.4c0,9.5-11.2,9.5-16.2,9.5
					c-2.3,0-3.8-0.1-6.2-0.3l-0.2-1.9c2.1,0.2,3.9,0.4,6.3,0.4c6.1,0,14.2-0.5,14.2-7.6c0-2.3-1.5-5.8-6.4-5.8
					c-4,0-10.7,1.8-12.7,5.7l-1.9-0.1c0-0.6,0-1.2,0.1-6.7c0-3.8,0.7-6,1-7L136,782.3z M150.8,781.6c-4-1.6-8.5-2.1-12.8-2.2
					l0.4-1.9c2.4,0.1,8.5,0.5,13,2.1L150.8,781.6z"/>
				<path class="st47" d="M163.7,789.6v9.1c0.3,1,0.8,2.9,2.8,3.9c1.8,0.9,4,1.3,5.3,1.3h16.6l-0.4,1.7h-15.9
					c-5.7,0-7.5-2.3-8.5-3.6c-0.4,0.5-2.9,3-4.5,4.3l-0.7-1.7c1.3-1,2.7-2.2,3.7-3.4v-9.8h-3.5v-1.7H163.7z M163.7,783.3
					c-2-2.2-2.8-3.1-4.9-4.5l1.1-1.2c1.7,1,3.3,2.6,5,4.5L163.7,783.3z M187.9,799.6h-10.6v3.4h-1.8v-3.4h-10.2v-1.4h10.2v-2.4h-8.8
					v-9.9h8.8v-2.4h-7.1V782h7.1v-2.7h-8.1v4.1h-1.8v-5.6h21.8v5.6h-1.8v-4.1h-8.3v2.7h6.9v1.4h-6.9v2.4h8.9v9.9h-8.9v2.4h10.6
					L187.9,799.6L187.9,799.6z M175.4,787.2h-7.1v2.9h7.1V787.2z M175.4,791.4h-7.1v2.9h7.1V791.4z M184.4,787.2h-7.2v2.9h7.2V787.2
					z M184.4,791.4h-7.2v2.9h7.2V791.4z"/>
				<path class="st47" d="M216.4,803.7c0,1.7-0.4,2.6-2.2,2.6h-4.4l-0.2-1.8l4.3,0.1c0.7,0,0.7-0.7,0.7-1v-7.5h-9.7v9.8h-1.7v-9.8
					h-9.2c-0.6,5.5-2.4,8.2-4,10.2l-1.3-1.2c2.8-3.5,3.6-7.1,3.6-12.6v-14.2h24.2L216.4,803.7L216.4,803.7z M194.1,792.2
					c0,1,0,1.6,0,2.5h9.1v-6.9h-9L194.1,792.2L194.1,792.2z M203.1,779.9h-9v6.4h9V779.9z M214.6,779.9h-9.7v6.4h9.7V779.9z
					 M214.6,787.8h-9.7v6.9h9.7V787.8z"/>
				<path class="st47" d="M233.9,781.6v-3.8h1.9v3.8h11v1.7h-11v4.9h10.3v1.7h-10.3v5.3c1.4,0.5,5,1.8,10.2,6.2l-1.3,1.9
					c-3-3.1-5.1-4.7-8.9-6.4v2.5c0,4-2.2,5.9-6.5,5.9c-5.8,0-7.4-3-7.4-5.3c0-3.4,3.3-5.8,8.3-5.8c1.8,0,3.1,0.3,3.8,0.4v-4.8h-12.7
					v-1.7h12.7v-4.9h-13.1v-1.7L233.9,781.6L233.9,781.6z M233.9,796.4c-0.8-0.2-1.7-0.5-3.6-0.5c-3.6,0-6.6,1.3-6.6,4.1
					c0,3.1,3.6,3.6,5.4,3.6c3.8,0,4.9-1.5,4.9-4.4V796.4z"/>
				<path class="st47" d="M276.6,781.6c-2-0.2-3.1-0.2-4-0.2c-1.7,0-2.4,0.2-3.7,0.7c-4,1.6-6.8,4.3-8.5,6.5
					c-2.1,2.6-2.5,4.7-2.5,6.5c0,3.8,2.1,5.6,5.1,6.7c3.3,1.2,7.3,1.3,10.5,1.3l-0.5,2.1c-8.5-0.4-17.2-1.8-17.2-9.9
					c0-5.6,4.4-10.4,11.1-14c-4.9,0.1-14.7,0.8-17.7,1.1l-0.3-2.1c1,0,8.1-0.3,11.9-0.5c7.1-0.3,8.9-0.3,15.8-0.3L276.6,781.6
					L276.6,781.6z M272,791c-0.2-0.5-1.3-2.8-2.6-4.7l1.5-0.8c1.2,1.5,1.9,2.6,2.8,4.5L272,791z M275.6,789.2
					c-0.7-1.5-1.6-3-2.6-4.3l1.5-0.8c0.9,1.1,2.1,2.8,2.8,4.3L275.6,789.2z"/>
			</g>
		</g>
		<g>
			<g>
				<path class="st8" d="M285.1,777.7v8.9c6.2,1.9,12.6,5.1,16.5,7.2l-1,2c-4.4-2.7-10-5.4-15.6-7.3V806H283v-28.3H285.1z"/>
				<path class="st8" d="M332.6,790.9v2.1H304v-2.1H332.6z"/>
				<path class="st8" d="M345.1,788.3c3.7,2,7.6,4.4,9.3,5.9c2.2-2.9,4-6,5.1-11h-13.8c-2.4,3.5-5.4,6.6-9,8.9l-1.2-1.5
					c4.7-2.9,9.1-7.6,11-13l2.1,0.4c-0.5,1.2-0.9,2.2-1.7,3.5h15.1c-2.1,10-6.2,19.6-23,24.1l-1.1-1.7c9.9-2.6,13.5-6.1,15.3-8.2
					c-1.5-1.3-5.1-4-9.2-5.9L345.1,788.3z"/>
				<path class="st8" d="M370.6,787.5c0,6.7-1,12.6-6.6,18.2l-1.4-1.4c5.9-5.3,6.1-12.2,6.1-16.6v-8.5h1.9L370.6,787.5L370.6,787.5z
					 M379.1,802.8c8.5-1.6,10.5-7.6,11.6-13.6l1.8,0.7c-1.2,5.7-3.4,14-15.3,15.2v-27h1.9V802.8z"/>
				<path class="st8" d="M413.9,777.9h1.9v6.7h6v1.9h-6v4.9c0,3.2-1,8.3-5.3,11.3c-3.9,2.7-8.5,3.1-10.1,3.3l-0.7-2
					c1.6-0.1,6.1-0.5,9.9-3.1c4.3-3,4.3-9.3,4.3-9.5v-4.9h-13v9.4h-2v-9.4h-5.9v-1.9h5.9V778h2v6.5h13V777.9z"/>
				<path class="st8" d="M425.1,802.6c1.5-1.8,4.1-5.1,5.3-12.9l1.8,0.2c-1.3,9.1-4.1,12.5-5.4,14L425.1,802.6z M439.4,778.1v5.9
					h12.1v1.8h-12.1V806h-1.9v-20.1h-11.9V784h11.9v-5.9H439.4z M446.9,789.6c0.5,4,2,9.2,5.1,13.2l-1.8,1.1
					c-3.1-3.8-4.7-9.5-5.2-14.1L446.9,789.6z M453.2,779.8c0,1.8-1.5,3.3-3.4,3.3c-1.8,0-3.3-1.5-3.3-3.3c0-1.9,1.5-3.3,3.3-3.3
					S453.2,777.9,453.2,779.8z M447.9,779.8c0,1.1,0.9,1.9,1.9,1.9c1.1,0,1.9-0.9,1.9-1.9c0-1.1-0.9-1.9-1.9-1.9
					C448.8,777.9,447.9,778.7,447.9,779.8z"/>
				<path class="st8" d="M482.8,790.9v2.1h-28.5v-2.1H482.8z"/>
				<path class="st8" d="M491.6,777.7v8.9c6.2,1.9,12.6,5.1,16.5,7.2l-1,2c-4.4-2.7-10-5.4-15.6-7.3V806h-2.1v-28.3H491.6z"/>
				<path class="st8" d="M514.8,778.2c0,2.5-0.4,13.5-0.4,15.8c0,5,0.3,9.7,7.2,9.7c6.8,0,8.7-3.7,9.4-5c0.9-1.8,1.5-4.9,1.7-6.3
					l1.8,0.5c-0.8,4.6-2.1,12.8-12.7,12.8c-8.6,0-9.6-4.9-9.6-11.9c0-2.4,0.2-13.2,0.3-15.4L514.8,778.2L514.8,778.2z"/>
				<path class="st8" d="M550.3,781.9V778h1.9v3.8h11v1.7h-11v4.9h10.3v1.7h-10.3v5.3c1.4,0.5,5,1.8,10.2,6.2l-1.3,1.9
					c-3-3.1-5.1-4.7-8.9-6.4v2.5c0,4-2.2,5.9-6.5,5.9c-5.8,0-7.4-3-7.4-5.3c0-3.4,3.3-5.8,8.3-5.8c1.8,0,3.1,0.3,3.8,0.4v-4.8h-12.7
					v-1.7h12.7v-4.9h-13.1v-1.7L550.3,781.9L550.3,781.9z M550.3,796.7c-0.8-0.2-1.7-0.5-3.6-0.5c-3.6,0-6.6,1.3-6.6,4.1
					c0,3.1,3.6,3.6,5.4,3.6c3.8,0,4.9-1.5,4.9-4.4V796.7z"/>
				<path class="st8" d="M582.6,777.7h2v4h8.9v1.8h-8.9v6.7c0.2,0.5,0.3,1.2,0.4,2.1c0.1,0.8,0.3,1.8,0.3,3
					c0,5.9-3.3,10.1-13.2,10.6l-0.6-1.9c11.4,0.2,12.1-6.1,12.4-8.8c-0.5,1.2-1.7,4.2-6.2,4.2c-4.4,0-6.1-3.5-6.1-6.4
					c0-3.3,2.1-6.7,6.8-6.7c2.7,0,3.8,1.2,4.3,1.8l0-4.5h-17v-1.8h17L582.6,777.7z M582.8,791.6c0-0.2-0.6-3.5-4.3-3.5
					c-2.5,0-4.9,1.5-4.9,4.8c0,1.8,0.9,4.8,4.3,4.8c1,0,2-0.3,3-0.8c1.4-0.8,2-3.1,2-3.7L582.8,791.6L582.8,791.6z"/>
				<path class="st8" d="M600.6,801.1c0,2.5-2.1,4.6-4.5,4.6c-2.5,0-4.6-2-4.6-4.6s2.1-4.5,4.6-4.5
					C598.6,796.6,600.6,798.6,600.6,801.1z M592.9,801.1c0,1.7,1.4,3.1,3.2,3.1c1.7,0,3.1-1.4,3.1-3.1s-1.4-3.1-3.1-3.1
					C594.3,798,592.9,799.4,592.9,801.1z"/>
			</g>
		</g>
	</g>
	<g>
		<g>
			<path class="st8" d="M87.6,737.9c-1.8,3.8-3.7,7.6-6.4,10.9l-1.4-1.4c2.3-2.6,4.9-7.7,6.2-10.5L87.6,737.9z M81.1,723.1
				c2.4,1.3,4.1,2.5,6.3,4.4l-1.1,1.5c-1.3-1.1-2.9-2.4-6.2-4.6L81.1,723.1z M98.3,730.6v2.6c0,5.3,2.6,12.7,11.3,16l-0.9,1.6
				c-5.2-1.9-9.3-6.1-11.1-12.4c-0.9,3.5-2.9,9.6-11.6,12.5l-0.9-1.8c3.4-1,6.6-2.7,8.5-5.6c2.9-4.3,2.9-9.6,2.9-10.3v-2.7
				L98.3,730.6L98.3,730.6z M86.7,734c3.4-3.6,5.9-8,6.7-12.3l1.9,0.4c-0.3,1.2-0.6,2.3-1.7,4.8h15v1.6c-1.2,3.1-2.2,4.9-4,7l-1.5-1
				c1-1.3,2.2-2.8,3.6-6H92.9c-0.7,1.3-2.3,4.4-4.7,6.6L86.7,734z"/>
			<path class="st8" d="M136,721.5v7.9h4.7v1.7H136V742h-10.8v-10.9h-7.3v16.4h21.8v1.7h-21.8v1.8h-1.8v-19.8h-4.8v-1.7h4.8v-7.6
				h1.8v7.6h7.3v-7.9h1.8v7.9h7.3v-7.9L136,721.5L136,721.5z M127,731.1v9.3h7.3v-9.3H127z"/>
			<path class="st8" d="M148.5,751h-1.8v-18.3c-1.7,2.6-2.8,3.6-3.3,4.2l-1.2-1.6c3.1-3,6.2-8.5,7.9-13.8l1.8,0.5
				c-0.7,2.2-1.7,4.7-3.3,7.6L148.5,751L148.5,751z M171.8,730.2l0.1,1.6l-11.5,0.8c2.2,15.4,7.3,16.2,7.6,16.2
				c1.5,0,2.3-3.6,2.7-5.4l1.7,0.8c-0.3,1.4-1.5,6.7-4.4,6.7c-3.1,0-7.9-5.7-9.4-18.1l-7.4,0.5l-0.2-1.6l7.3-0.5
				c-0.1-1.1-0.5-4.9-0.7-9.6h2c0.1,3.8,0.5,8.2,0.6,9.5L171.8,730.2z M168.5,728.2c-1.6-1.9-3.1-3.3-5.4-4.9l1.2-1.2
				c1.8,1.1,4.2,3.1,5.6,4.6L168.5,728.2z"/>
			<path class="st8" d="M204.9,747.9c3.8-0.4,12.9-1.2,12.9-11.5c0-2.7-0.9-11.1-11.3-11.2c-0.6,6.9-1.4,13.2-4.5,18.1
				c-2,3.2-4,3.8-5.2,3.8c-3.1,0-5.7-3.8-5.7-9c0-8.3,5.7-14.7,15.3-14.7c10,0,13.3,6.8,13.3,12.7c0,12.1-10.5,13.2-14.3,13.6
				L204.9,747.9z M193.1,738.1c0,2.7,1,7,3.8,7c1.2,0,2.4-0.9,3.6-2.9c3-4.8,3.8-11.9,4.1-16.9C196.2,726.2,193.1,732.4,193.1,738.1
				z"/>
			<path class="st8" d="M249.1,726.7c-1.1,5.8-3.4,11.4-7.5,15.8c-4.2,4.6-9.9,6.5-14.9,7.6l-0.9-1.9c5.6-1.1,10.3-2.9,14.3-7.2
				c3.2-3.5,5.5-7.9,6.6-12.6h-13.3c-1.9,2.5-3.9,5.1-8,7.9l-1.2-1.6c2.7-1.9,7.5-5.8,10.6-13l2.2,0.3c-0.5,1.1-1,2.3-2.4,4.5H249.1
				z"/>
			<path class="st8" d="M277.7,731.2c-1.6,14-9.7,17.5-20.8,18.6l-0.5-1.9c9.2-0.9,17.3-3.2,19.2-14.9h-23.7v-1.8L277.7,731.2
				L277.7,731.2z M275.8,723.5v1.8h-21.5v-1.8H275.8z"/>
			<path class="st8" d="M294.7,721.8v5.4h11.1v2.2c0,5.9-1.5,11.5-5.8,15.1c-5.2,4.3-11.6,5-14.3,5.2l-0.6-1.9
				c2.3-0.2,8.7-0.8,13.7-4.9c2.6-2.1,4.9-5.5,4.9-13.2V729h-20.1v8.6h-1.9v-10.4h10.9v-5.4H294.7z"/>
			<path class="st8" d="M318.1,722v8.9c3.1,1,9.7,3.3,16.5,7.2l-1,2c-6.1-3.6-9.5-5.1-15.5-7.3v17.5h-2.1V722L318.1,722L318.1,722z
				 M330.5,728.7c-0.8-1.8-1.7-3.5-2.7-5l1.6-0.7c0.4,0.5,1.9,3.1,2.7,4.9L330.5,728.7z M334.4,727.2c-0.9-2-1.4-3-2.6-4.8l1.5-0.8
				c1,1.3,2.2,3.6,2.7,4.6L334.4,727.2z"/>
			<path class="st8" d="M354.6,750.2h-2v-16.5c-4.3,3.2-9.1,5.8-14.2,7.6l-0.9-1.9c4.5-1.4,15.5-6.2,23.8-17.2l1.9,1.2
				c-4.3,5.3-7.9,8.2-8.7,8.7L354.6,750.2L354.6,750.2z"/>
			<path class="st8" d="M377.5,731c-2.8-2-7.1-3.8-10.1-4.7l1.1-1.8c2.4,0.7,6.7,2.3,10.2,4.6L377.5,731z M367.8,746.9
				c9.5-0.3,19.9-5.2,24.6-19.9l1.9,0.8c-1.2,3.4-3.7,10.3-10.2,15.4c-4.5,3.6-10,5.6-15.7,5.9L367.8,746.9z"/>
			<path class="st8" d="M420.9,724.6c-0.5,6.5-2.1,21.4-20.9,25l-0.7-1.8c16.9-3.3,18.8-14.8,19.3-21.3h-22.8v-1.9H420.9z"/>
			<path class="st8" d="M450.3,731.2c-1.6,14-9.7,17.5-20.8,18.6l-0.5-1.9c9.2-0.9,17.3-3.2,19.2-14.9h-23.7v-1.8L450.3,731.2
				L450.3,731.2z M448.3,723.5v1.8h-21.5v-1.8H448.3z"/>
			<path class="st8" d="M464.1,743.7c-2.6,1.1-7.5,2.3-9.1,2.7l-0.3-1.7c0.5-0.1,0.8-0.2,4-1v-9.2h-3.4v-1.6h3.4v-8.1h-3.8v-1.6h8.6
				v1.6h-3.2v8.1h2.9v1.6h-2.9v8.8c0.6-0.2,3.2-0.9,3.7-1L464.1,743.7L464.1,743.7z M472.5,750.9h-1.7v-6.7
				c-4.5,3.9-8.4,5.2-9.8,5.7l-1-1.6c5.6-1.8,9.9-4.8,11.6-7h-6.1v-6.2h16.7v6.2h-7.5c1.1,2,2.3,3.3,3.1,4c1.5-0.9,3.3-2.6,4.3-3.5
				l1.1,1.1c-1,1.1-3.2,2.8-4.2,3.5c2.4,1.7,4.4,2.3,5.6,2.7l-1,1.5c-1.6-0.6-7.6-2.7-10.5-9.1c-0.2,0.3-0.3,0.4-0.8,1.1
				L472.5,750.9L472.5,750.9z M484.2,732.9h-20.7v-1.5h20.7V732.9z M483.3,729.4h-18.6v-6.7h18.6V729.4z M470.3,724.1h-4v3.9h4
				V724.1z M480.7,736.5h-13.6v3.4h13.6V736.5z M475.9,724.1H472v3.9h3.9V724.1z M481.6,724.1h-4.1v3.9h4.1V724.1z"/>
			<path class="st8" d="M497.8,743.8c-2.6,1.3-7.1,2.7-9.6,3.4l-0.4-1.8c0.8-0.2,1.8-0.4,4.4-1.2v-12.4h-4.2v-1.6h4.2v-8.7h1.7v8.7
				h3.4v1.6H494v11.9c2.3-0.8,3.1-1.2,3.8-1.5L497.8,743.8L497.8,743.8z M515.7,742.8h-5v5.8c0,0.6,0.1,0.6,0.5,0.6h3.2
				c0.6,0,1-0.1,1.1-0.6c0.1-0.4,0.3-2.8,0.3-3.6l1.7,0.4c-0.2,5.4-1.1,5.4-2.8,5.4h-3.7c-1.4,0-2-0.5-2-2v-5.9h-4
				c-0.7,4-3.1,6.8-8.5,8.3l-1-1.7c5.9-1.1,7.3-3.9,7.8-6.6h-3.9v-9.6h16.2L515.7,742.8L515.7,742.8z M506.7,724.3v-2.8h1.7v2.8h8.5
				v1.5h-3.3c-0.5,1.7-0.7,2.3-1.3,3.8h5.3v1.5h-19.8v-1.5h4.9c-0.2-1-0.4-1.6-1.1-3.8h-2.9v-1.5H506.7z M514.1,734.7h-12.9v2.6
				h12.9V734.7z M514.1,738.7h-12.9v2.7h12.9V738.7z M510.6,729.5c0.4-1,0.9-2.9,1.1-3.8h-8.4c0.3,0.9,1,3.1,1.1,3.8H510.6z"/>
		</g>
	</g>
	<g>
		<g>
			<path class="st8" d="M67,710h5v17h-5V710z M71,711h-3v15h3V711z"/>
		</g>
		<g>
			<path class="st8" d="M67,710h17v5H67V710z M83,711H68v3h15V711z"/>
		</g>
	</g>
	<g>
		<g>
			<path class="st8" d="M188,760h-5v-17h5V760z M184,759h3v-15h-3V759z"/>
		</g>
		<g>
			<path class="st8" d="M188,760h-18v-5h18V760z M171,759h16v-3h-16V759z"/>
		</g>
	</g>
</g>
<circle class="st8" cx="364" cy="84.4" r="3.2"/>
<circle class="st3" cx="217.2" cy="156.1" r="2.1"/>
</svg>
