<?xml version="1.0" encoding="utf-8"?>
<!-- Generator: Adobe Illustrator 19.1.0, SVG Export Plug-In . SVG Version: 6.00 Build 0)  -->
<svg version="1.0" id="レイヤー_1" xmlns="http://www.w3.org/2000/svg" xmlns:xlink="http://www.w3.org/1999/xlink" x="0px"
	 y="0px" viewBox="188 -257 640 540" enable-background="new 188 -257 640 540" xml:space="preserve">
<path fill="none" stroke="#1B2B79" stroke-width="3" stroke-miterlimit="10" d="M119.8-123.2c26.3,6.2,53.7,9.4,81.8,9.4
	c123.5,0,232.2-62.7,296.3-157.9"/>
<path fill="none" stroke="#00A0E9" stroke-width="3" stroke-miterlimit="10" d="M140.2,30.1c22.4,14.1,48.3,33.7,71,59.7
	c37.2,42.5,52,86.4,57.9,115.8c6.4,32,4,53.8,3.9,54.7l-0.8,6.8l-13.6-1.6l0.8-6.8c0-0.2,2.3-21-3.8-51
	C250,180.1,236,138.9,201,98.8c-19.2-21.9-41.1-39.3-61-52.4"/>
<polygon fill="#00A0E9" points="526.2,-233.2 525.6,-243 533.8,-248.4 542.6,-244 543.3,-234.2 535.1,-228.8 "/>
<g>
	<circle fill="#1B2B79" cx="763" cy="-226.2" r="6.8"/>
	<circle fill="#00A0E9" cx="747.8" cy="-223" r="6.8"/>
	<circle fill="#11BAD1" cx="734.2" cy="-215" r="6.8"/>
	
		<circle opacity="0.4" fill="#00A0E9" stroke="#00A0E9" stroke-width="0.5341" stroke-linecap="round" stroke-linejoin="round" stroke-miterlimit="10" enable-background="new    " cx="722.2" cy="-204.5" r="6.8"/>
	
		<circle opacity="0.2" fill="#00A0E9" stroke="#00A0E9" stroke-width="0.5341" stroke-linecap="round" stroke-linejoin="round" stroke-miterlimit="10" enable-background="new    " cx="715.4" cy="-190.7" r="6.8"/>
	
		<circle opacity="0.1" fill="#00A0E9" stroke="#00A0E9" stroke-width="0.5341" stroke-linecap="round" stroke-linejoin="round" stroke-miterlimit="10" enable-background="new    " cx="712.1" cy="-175.2" r="6.8"/>
</g>
<g>
	<g>
		<circle fill="#00A0E9" cx="387.4" cy="-97.4" r="3"/>
		<circle fill="#00A0E9" cx="462.6" cy="-163.6" r="2"/>
		<line fill="none" stroke="#00A0E9" stroke-width="0.3914" stroke-miterlimit="10" x1="387.4" y1="-97.4" x2="462.6" y2="-163.6"/>
	</g>
	<g>
		<circle fill="#00A0E9" cx="397.6" cy="-123.2" r="4.9"/>
		<circle fill="#1B2B79" cx="552" cy="-172.6" r="3.2"/>
		<line fill="none" stroke="#00A0E9" stroke-width="0.8" stroke-miterlimit="10" x1="397.6" y1="-123.2" x2="552" y2="-172.6"/>
	</g>
	<line fill="none" stroke="#11BAD1" stroke-width="0.8" stroke-miterlimit="10" x1="405.2" y1="-100.9" x2="224.3" y2="-128.5"/>
	<circle fill="#1B2B79" cx="227.4" cy="-127.5" r="4.6"/>
	<line fill="none" x1="252.9" y1="-130.5" x2="180.4" y2="-100.9"/>
	<circle fill="#00A0E9" cx="252" cy="-130.5" r="2.6"/>
	<line fill="none" stroke="#00A0E9" stroke-width="0.8" stroke-miterlimit="10" x1="203.9" y1="-106" x2="130.4" y2="-51.9"/>
	<circle fill="#00A0E9" cx="203.9" cy="-106" r="2.6"/>
</g>
<g>
	<g>
		<defs>
			<polygon id="SVGID_1_" points="148.8,-88.7 86,-87.5 86,-6.6 476.6,118.3 			"/>
		</defs>
		<clipPath id="SVGID_2_">
			<use xlink:href="#SVGID_1_"  overflow="visible"/>
		</clipPath>
		<g clip-path="url(#SVGID_2_)">
			<g>
				
					<line fill="none" stroke="#11BAD1" stroke-linecap="round" stroke-linejoin="round" stroke-miterlimit="10" x1="342" y1="-204.3" x2="-82.8" y2="156.1"/>
				
					<line fill="none" stroke="#11BAD1" stroke-linecap="round" stroke-linejoin="round" stroke-miterlimit="10" x1="343.8" y1="-200.5" x2="-81" y2="159.9"/>
				
					<line fill="none" stroke="#11BAD1" stroke-linecap="round" stroke-linejoin="round" stroke-miterlimit="10" x1="345.6" y1="-196.7" x2="-79.2" y2="163.7"/>
				
					<line fill="none" stroke="#11BAD1" stroke-linecap="round" stroke-linejoin="round" stroke-miterlimit="10" x1="347.3" y1="-192.9" x2="-77.5" y2="167.5"/>
				
					<line fill="none" stroke="#11BAD1" stroke-linecap="round" stroke-linejoin="round" stroke-miterlimit="10" x1="349.1" y1="-189.1" x2="-75.7" y2="171.3"/>
				
					<line fill="none" stroke="#11BAD1" stroke-linecap="round" stroke-linejoin="round" stroke-miterlimit="10" x1="350.9" y1="-185.2" x2="-73.9" y2="175.1"/>
				
					<line fill="none" stroke="#11BAD1" stroke-linecap="round" stroke-linejoin="round" stroke-miterlimit="10" x1="352.7" y1="-181.4" x2="-72.1" y2="178.9"/>
				
					<line fill="none" stroke="#11BAD1" stroke-linecap="round" stroke-linejoin="round" stroke-miterlimit="10" x1="354.4" y1="-177.6" x2="-70.4" y2="182.7"/>
				
					<line fill="none" stroke="#11BAD1" stroke-linecap="round" stroke-linejoin="round" stroke-miterlimit="10" x1="356.2" y1="-173.8" x2="-68.6" y2="186.5"/>
				
					<line fill="none" stroke="#11BAD1" stroke-linecap="round" stroke-linejoin="round" stroke-miterlimit="10" x1="358" y1="-170" x2="-66.8" y2="190.3"/>
			</g>
			<g>
				
					<line fill="none" stroke="#11BAD1" stroke-linecap="round" stroke-linejoin="round" stroke-miterlimit="10" x1="359.7" y1="-166.8" x2="-65.1" y2="193.6"/>
				
					<line fill="none" stroke="#11BAD1" stroke-linecap="round" stroke-linejoin="round" stroke-miterlimit="10" x1="361.5" y1="-163" x2="-63.3" y2="197.4"/>
				
					<line fill="none" stroke="#11BAD1" stroke-linecap="round" stroke-linejoin="round" stroke-miterlimit="10" x1="363.3" y1="-159.2" x2="-61.5" y2="201.2"/>
				
					<line fill="none" stroke="#11BAD1" stroke-linecap="round" stroke-linejoin="round" stroke-miterlimit="10" x1="365.1" y1="-155.3" x2="-59.7" y2="205"/>
				
					<line fill="none" stroke="#11BAD1" stroke-linecap="round" stroke-linejoin="round" stroke-miterlimit="10" x1="366.8" y1="-151.5" x2="-58" y2="208.8"/>
				
					<line fill="none" stroke="#11BAD1" stroke-linecap="round" stroke-linejoin="round" stroke-miterlimit="10" x1="368.6" y1="-147.7" x2="-56.2" y2="212.6"/>
				
					<line fill="none" stroke="#11BAD1" stroke-linecap="round" stroke-linejoin="round" stroke-miterlimit="10" x1="370.4" y1="-143.9" x2="-54.4" y2="216.4"/>
				
					<line fill="none" stroke="#11BAD1" stroke-linecap="round" stroke-linejoin="round" stroke-miterlimit="10" x1="372.2" y1="-140.1" x2="-52.6" y2="220.2"/>
				
					<line fill="none" stroke="#11BAD1" stroke-linecap="round" stroke-linejoin="round" stroke-miterlimit="10" x1="373.9" y1="-136.3" x2="-50.9" y2="224"/>
				
					<line fill="none" stroke="#11BAD1" stroke-linecap="round" stroke-linejoin="round" stroke-miterlimit="10" x1="375.7" y1="-132.5" x2="-49.1" y2="227.8"/>
				
					<line fill="none" stroke="#11BAD1" stroke-linecap="round" stroke-linejoin="round" stroke-miterlimit="10" x1="377.5" y1="-128.7" x2="-47.3" y2="231.6"/>
				
					<line fill="none" stroke="#11BAD1" stroke-linecap="round" stroke-linejoin="round" stroke-miterlimit="10" x1="379.3" y1="-124.9" x2="-45.6" y2="235.5"/>
				
					<line fill="none" stroke="#11BAD1" stroke-linecap="round" stroke-linejoin="round" stroke-miterlimit="10" x1="381" y1="-121.1" x2="-43.8" y2="239.3"/>
				
					<line fill="none" stroke="#11BAD1" stroke-linecap="round" stroke-linejoin="round" stroke-miterlimit="10" x1="382.8" y1="-117.3" x2="-42" y2="243.1"/>
				
					<line fill="none" stroke="#11BAD1" stroke-linecap="round" stroke-linejoin="round" stroke-miterlimit="10" x1="384.6" y1="-113.5" x2="-40.2" y2="246.9"/>
				
					<line fill="none" stroke="#11BAD1" stroke-linecap="round" stroke-linejoin="round" stroke-miterlimit="10" x1="386.3" y1="-109.7" x2="-38.5" y2="250.7"/>
				
					<line fill="none" stroke="#11BAD1" stroke-linecap="round" stroke-linejoin="round" stroke-miterlimit="10" x1="388.1" y1="-105.8" x2="-36.7" y2="254.5"/>
				
					<line fill="none" stroke="#11BAD1" stroke-linecap="round" stroke-linejoin="round" stroke-miterlimit="10" x1="389.9" y1="-102" x2="-34.9" y2="258.3"/>
				
					<line fill="none" stroke="#11BAD1" stroke-linecap="round" stroke-linejoin="round" stroke-miterlimit="10" x1="391.7" y1="-98.2" x2="-33.1" y2="262.1"/>
				
					<line fill="none" stroke="#11BAD1" stroke-linecap="round" stroke-linejoin="round" stroke-miterlimit="10" x1="393.4" y1="-94.4" x2="-31.4" y2="265.9"/>
				
					<line fill="none" stroke="#11BAD1" stroke-linecap="round" stroke-linejoin="round" stroke-miterlimit="10" x1="395.2" y1="-90.6" x2="-29.6" y2="269.7"/>
				
					<line fill="none" stroke="#11BAD1" stroke-linecap="round" stroke-linejoin="round" stroke-miterlimit="10" x1="397" y1="-86.8" x2="-27.8" y2="273.5"/>
				
					<line fill="none" stroke="#11BAD1" stroke-linecap="round" stroke-linejoin="round" stroke-miterlimit="10" x1="398.8" y1="-83" x2="-26" y2="277.3"/>
				
					<line fill="none" stroke="#11BAD1" stroke-linecap="round" stroke-linejoin="round" stroke-miterlimit="10" x1="400.5" y1="-79.2" x2="-24.3" y2="281.1"/>
				
					<line fill="none" stroke="#11BAD1" stroke-linecap="round" stroke-linejoin="round" stroke-miterlimit="10" x1="402.3" y1="-75.4" x2="-22.5" y2="285"/>
				
					<line fill="none" stroke="#11BAD1" stroke-linecap="round" stroke-linejoin="round" stroke-miterlimit="10" x1="404.1" y1="-71.6" x2="-20.7" y2="288.8"/>
				
					<line fill="none" stroke="#11BAD1" stroke-linecap="round" stroke-linejoin="round" stroke-miterlimit="10" x1="405.9" y1="-67.8" x2="-18.9" y2="292.6"/>
				
					<line fill="none" stroke="#11BAD1" stroke-linecap="round" stroke-linejoin="round" stroke-miterlimit="10" x1="407.6" y1="-64" x2="-17.2" y2="296.4"/>
				
					<line fill="none" stroke="#11BAD1" stroke-linecap="round" stroke-linejoin="round" stroke-miterlimit="10" x1="409.4" y1="-60.2" x2="-15.4" y2="300.2"/>
				
					<line fill="none" stroke="#11BAD1" stroke-linecap="round" stroke-linejoin="round" stroke-miterlimit="10" x1="411.2" y1="-56.3" x2="-13.6" y2="304"/>
				
					<line fill="none" stroke="#11BAD1" stroke-linecap="round" stroke-linejoin="round" stroke-miterlimit="10" x1="413" y1="-52.5" x2="-11.8" y2="307.8"/>
				
					<line fill="none" stroke="#11BAD1" stroke-linecap="round" stroke-linejoin="round" stroke-miterlimit="10" x1="414.7" y1="-48.7" x2="-10.1" y2="311.6"/>
				
					<line fill="none" stroke="#11BAD1" stroke-linecap="round" stroke-linejoin="round" stroke-miterlimit="10" x1="416.5" y1="-44.9" x2="-8.3" y2="315.4"/>
				
					<line fill="none" stroke="#11BAD1" stroke-linecap="round" stroke-linejoin="round" stroke-miterlimit="10" x1="418.3" y1="-41.1" x2="-6.5" y2="319.2"/>
				
					<line fill="none" stroke="#11BAD1" stroke-linecap="round" stroke-linejoin="round" stroke-miterlimit="10" x1="420.1" y1="-37.3" x2="-4.7" y2="323"/>
				
					<line fill="none" stroke="#11BAD1" stroke-linecap="round" stroke-linejoin="round" stroke-miterlimit="10" x1="421.8" y1="-33.5" x2="-3" y2="326.8"/>
				
					<line fill="none" stroke="#11BAD1" stroke-linecap="round" stroke-linejoin="round" stroke-miterlimit="10" x1="425.4" y1="-25.9" x2="0.6" y2="334.5"/>
				
					<line fill="none" stroke="#11BAD1" stroke-linecap="round" stroke-linejoin="round" stroke-miterlimit="10" x1="427.2" y1="-22.1" x2="2.4" y2="338.3"/>
				
					<line fill="none" stroke="#11BAD1" stroke-linecap="round" stroke-linejoin="round" stroke-miterlimit="10" x1="428.9" y1="-18.3" x2="4.1" y2="342.1"/>
				
					<line fill="none" stroke="#11BAD1" stroke-linecap="round" stroke-linejoin="round" stroke-miterlimit="10" x1="430.7" y1="-14.5" x2="5.9" y2="345.9"/>
				
					<line fill="none" stroke="#11BAD1" stroke-linecap="round" stroke-linejoin="round" stroke-miterlimit="10" x1="432.5" y1="-10.7" x2="7.7" y2="349.7"/>
				
					<line fill="none" stroke="#11BAD1" stroke-linecap="round" stroke-linejoin="round" stroke-miterlimit="10" x1="434.3" y1="-6.9" x2="9.5" y2="353.5"/>
				
					<line fill="none" stroke="#11BAD1" stroke-linecap="round" stroke-linejoin="round" stroke-miterlimit="10" x1="436" y1="-3" x2="11.2" y2="357.3"/>
				
					<line fill="none" stroke="#11BAD1" stroke-linecap="round" stroke-linejoin="round" stroke-miterlimit="10" x1="437.8" y1="0.8" x2="13" y2="361.1"/>
				
					<line fill="none" stroke="#11BAD1" stroke-linecap="round" stroke-linejoin="round" stroke-miterlimit="10" x1="439.6" y1="4.6" x2="14.8" y2="364.9"/>
				
					<line fill="none" stroke="#11BAD1" stroke-linecap="round" stroke-linejoin="round" stroke-miterlimit="10" x1="441.4" y1="8.4" x2="16.6" y2="368.7"/>
				
					<line fill="none" stroke="#11BAD1" stroke-linecap="round" stroke-linejoin="round" stroke-miterlimit="10" x1="443.1" y1="12.2" x2="18.3" y2="372.5"/>
				
					<line fill="none" stroke="#11BAD1" stroke-linecap="round" stroke-linejoin="round" stroke-miterlimit="10" x1="444.9" y1="16" x2="20.1" y2="376.3"/>
				
					<line fill="none" stroke="#11BAD1" stroke-linecap="round" stroke-linejoin="round" stroke-miterlimit="10" x1="446.7" y1="19.8" x2="21.9" y2="380.1"/>
				
					<line fill="none" stroke="#11BAD1" stroke-linecap="round" stroke-linejoin="round" stroke-miterlimit="10" x1="448.5" y1="23.6" x2="23.7" y2="384"/>
				
					<line fill="none" stroke="#11BAD1" stroke-linecap="round" stroke-linejoin="round" stroke-miterlimit="10" x1="450.2" y1="27.4" x2="25.4" y2="387.8"/>
				
					<line fill="none" stroke="#11BAD1" stroke-linecap="round" stroke-linejoin="round" stroke-miterlimit="10" x1="452" y1="31.2" x2="27.2" y2="391.6"/>
				
					<line fill="none" stroke="#11BAD1" stroke-linecap="round" stroke-linejoin="round" stroke-miterlimit="10" x1="453.8" y1="35" x2="29" y2="395.4"/>
				
					<line fill="none" stroke="#11BAD1" stroke-linecap="round" stroke-linejoin="round" stroke-miterlimit="10" x1="455.6" y1="38.8" x2="30.8" y2="399.2"/>
				
					<line fill="none" stroke="#11BAD1" stroke-linecap="round" stroke-linejoin="round" stroke-miterlimit="10" x1="457.3" y1="42.6" x2="32.5" y2="403"/>
				
					<line fill="none" stroke="#11BAD1" stroke-linecap="round" stroke-linejoin="round" stroke-miterlimit="10" x1="459.1" y1="46.5" x2="34.3" y2="406.8"/>
				
					<line fill="none" stroke="#11BAD1" stroke-linecap="round" stroke-linejoin="round" stroke-miterlimit="10" x1="462.7" y1="54.1" x2="37.9" y2="414.4"/>
				
					<line fill="none" stroke="#11BAD1" stroke-linecap="round" stroke-linejoin="round" stroke-miterlimit="10" x1="464.4" y1="57.9" x2="39.6" y2="418.2"/>
				
					<line fill="none" stroke="#11BAD1" stroke-linecap="round" stroke-linejoin="round" stroke-miterlimit="10" x1="466.2" y1="61.7" x2="41.4" y2="422"/>
				
					<line fill="none" stroke="#11BAD1" stroke-linecap="round" stroke-linejoin="round" stroke-miterlimit="10" x1="468" y1="65.5" x2="43.2" y2="425.8"/>
				
					<line fill="none" stroke="#11BAD1" stroke-linecap="round" stroke-linejoin="round" stroke-miterlimit="10" x1="469.8" y1="69.3" x2="45" y2="429.6"/>
				
					<line fill="none" stroke="#11BAD1" stroke-linecap="round" stroke-linejoin="round" stroke-miterlimit="10" x1="471.5" y1="73.1" x2="46.7" y2="433.5"/>
				
					<line fill="none" stroke="#11BAD1" stroke-linecap="round" stroke-linejoin="round" stroke-miterlimit="10" x1="473.3" y1="76.9" x2="48.5" y2="437.3"/>
				
					<line fill="none" stroke="#11BAD1" stroke-linecap="round" stroke-linejoin="round" stroke-miterlimit="10" x1="475.1" y1="80.7" x2="50.3" y2="441.1"/>
				
					<line fill="none" stroke="#11BAD1" stroke-linecap="round" stroke-linejoin="round" stroke-miterlimit="10" x1="476.9" y1="84.5" x2="52" y2="444.9"/>
				
					<line fill="none" stroke="#11BAD1" stroke-linecap="round" stroke-linejoin="round" stroke-miterlimit="10" x1="478.6" y1="88.3" x2="53.8" y2="448.7"/>
				
					<line fill="none" stroke="#11BAD1" stroke-linecap="round" stroke-linejoin="round" stroke-miterlimit="10" x1="480.4" y1="92.1" x2="55.6" y2="452.5"/>
				
					<line fill="none" stroke="#11BAD1" stroke-linecap="round" stroke-linejoin="round" stroke-miterlimit="10" x1="482.2" y1="96" x2="57.4" y2="456.3"/>
				
					<line fill="none" stroke="#11BAD1" stroke-linecap="round" stroke-linejoin="round" stroke-miterlimit="10" x1="483.9" y1="99.8" x2="59.1" y2="460.1"/>
				
					<line fill="none" stroke="#11BAD1" stroke-linecap="round" stroke-linejoin="round" stroke-miterlimit="10" x1="485.7" y1="103.6" x2="60.9" y2="463.9"/>
				
					<line fill="none" stroke="#11BAD1" stroke-linecap="round" stroke-linejoin="round" stroke-miterlimit="10" x1="487.5" y1="107.4" x2="62.7" y2="467.7"/>
				
					<line fill="none" stroke="#11BAD1" stroke-linecap="round" stroke-linejoin="round" stroke-miterlimit="10" x1="489.3" y1="111.2" x2="64.5" y2="471.5"/>
				
					<line fill="none" stroke="#11BAD1" stroke-linecap="round" stroke-linejoin="round" stroke-miterlimit="10" x1="491" y1="115" x2="66.2" y2="475.3"/>
				
					<line fill="none" stroke="#11BAD1" stroke-linecap="round" stroke-linejoin="round" stroke-miterlimit="10" x1="492.8" y1="118.8" x2="68" y2="479.1"/>
				
					<line fill="none" stroke="#11BAD1" stroke-linecap="round" stroke-linejoin="round" stroke-miterlimit="10" x1="494.6" y1="122.6" x2="69.8" y2="482.9"/>
				
					<line fill="none" stroke="#11BAD1" stroke-linecap="round" stroke-linejoin="round" stroke-miterlimit="10" x1="496.4" y1="126.4" x2="71.6" y2="486.8"/>
				
					<line fill="none" stroke="#11BAD1" stroke-linecap="round" stroke-linejoin="round" stroke-miterlimit="10" x1="498.1" y1="130.2" x2="73.3" y2="490.6"/>
				
					<line fill="none" stroke="#11BAD1" stroke-linecap="round" stroke-linejoin="round" stroke-miterlimit="10" x1="499.9" y1="134" x2="75.1" y2="494.4"/>
				
					<line fill="none" stroke="#11BAD1" stroke-linecap="round" stroke-linejoin="round" stroke-miterlimit="10" x1="501.7" y1="137.8" x2="76.9" y2="498.2"/>
				
					<line fill="none" stroke="#11BAD1" stroke-linecap="round" stroke-linejoin="round" stroke-miterlimit="10" x1="503.5" y1="141.6" x2="78.7" y2="502"/>
				
					<line fill="none" stroke="#11BAD1" stroke-linecap="round" stroke-linejoin="round" stroke-miterlimit="10" x1="505.2" y1="145.5" x2="80.4" y2="505.8"/>
				
					<line fill="none" stroke="#11BAD1" stroke-linecap="round" stroke-linejoin="round" stroke-miterlimit="10" x1="507" y1="149.3" x2="82.2" y2="509.6"/>
				
					<line fill="none" stroke="#11BAD1" stroke-linecap="round" stroke-linejoin="round" stroke-miterlimit="10" x1="508.8" y1="153.1" x2="84" y2="513.4"/>
				
					<line fill="none" stroke="#11BAD1" stroke-linecap="round" stroke-linejoin="round" stroke-miterlimit="10" x1="420.9" y1="-27" x2="-3.9" y2="333.3"/>
				
					<line fill="none" stroke="#11BAD1" stroke-linecap="round" stroke-linejoin="round" stroke-miterlimit="10" x1="462.1" y1="48.8" x2="37.3" y2="409.2"/>
			</g>
		</g>
	</g>
</g>
<g>
	<g>
		<line fill="none" stroke="#11BAD1" stroke-width="0.8" stroke-miterlimit="10" x1="675" y1="105" x2="872.8" y2="150.2"/>
		<circle fill="#1B2B79" cx="675" cy="105" r="6.1"/>
	</g>
	<g>
		<circle fill="#00A0E9" cx="831.8" cy="128.7" r="3"/>
		<circle fill="#1B2B79" cx="735.6" cy="153.3" r="2"/>
		<line fill="none" stroke="#00A0E9" stroke-width="0.3914" stroke-miterlimit="10" x1="831.8" y1="128.7" x2="735.6" y2="153.3"/>
	</g>
</g>
<path opacity="0.2" fill="none" stroke="#00A0E9" stroke-width="8" stroke-linecap="square" stroke-linejoin="round" stroke-miterlimit="10" enable-background="new    " d="
	M328.6-12.4c0,0,80.4,48.3,205.7,47.4S706.5-0.6,706.5-0.6"/>
<g>
	<polygon fill="none" stroke="#00A0E9" stroke-width="3.9258" stroke-miterlimit="10" points="751.9,-52.7 750.6,-72.3 767,-83 
		784.7,-74.2 786,-54.6 769.6,-43.9 	"/>
	<polygon fill="none" stroke="#11BAD1" stroke-width="1.9629" stroke-miterlimit="10" points="760.1,-58.1 759.4,-67.9 767.6,-73.2 
		776.5,-68.8 777.1,-59 768.9,-53.7 	"/>
</g>
<g>
	<g>
		<polyline fill="none" stroke="#00A0E9" stroke-width="0.1957" stroke-miterlimit="10" points="693.9,-117.1 700.8,-92.7 
			726.4,-104.2 693.6,-117.8 		"/>
		<g>
			<circle fill="#00A0E9" cx="726.4" cy="-104.2" r="1.1"/>
			<circle fill="#11BAD1" cx="693.6" cy="-117.8" r="0.7"/>
		</g>
		<g>
			<circle fill="#11BAD1" cx="700.7" cy="-92.7" r="0.7"/>
		</g>
	</g>
	<g>
		<polyline fill="none" stroke="#00A0E9" stroke-width="0.1957" stroke-miterlimit="10" points="720,-128.7 726.9,-104.3 
			752.4,-115.8 719.7,-129.4 		"/>
		<g>
			<circle fill="#11BAD1" cx="752.4" cy="-115.8" r="1.1"/>
			<circle fill="#1B2B79" cx="719.7" cy="-129.4" r="0.7"/>
		</g>
		<g>
			<circle fill="#11BAD1" cx="726.8" cy="-104.3" r="0.7"/>
		</g>
	</g>
	<g>
		<polyline fill="none" stroke="#00A0E9" stroke-width="0.1957" stroke-miterlimit="10" points="785.1,-128.7 778.2,-104.3 
			752.6,-115.8 785.4,-129.4 		"/>
		<g>
			<circle fill="#11BAD1" cx="785.4" cy="-129.4" r="0.7"/>
		</g>
		<g>
			<circle fill="#1B2B79" cx="778.3" cy="-104.3" r="0.7"/>
		</g>
	</g>
</g>
<g>
	<polygon fill="none" stroke="#EF6C00" stroke-width="4" stroke-miterlimit="10" points="463,-102.7 508.5,-128.7 554,-102.7 
		554,-50.8 508.5,-24.8 463,-50.8 	"/>
	<polygon fill="#EF6C00" points="468,-99.9 508.5,-123.1 549,-99.9 549,-53.6 508.5,-30.4 468,-53.6 	"/>
	<g enable-background="new    ">
		<path fill="#FFFFFF" d="M491.7-73.4h-10.3l-4.1,11.4h-1.8l11.1-30.4l11,30.4h-1.8L491.7-73.4z M491.1-75.1l-4.5-12.5L482-75.1
			H491.1z"/>
		<path fill="#FFFFFF" d="M509.1-66.5v-25.2h1.7v25.2c0.3,0.5,0.6,1,1.1,1.4c1.1,1.1,2.4,1.6,4,1.6c1.5,0,2.9-0.5,4-1.6
			s1.7-2.4,1.7-4v-22.7h1.7v22.8c0,1.9-0.7,3.6-2.1,5c-1.4,1.4-3.2,2.2-5.2,2.2c-2,0-3.7-0.7-5.2-2.1c-0.3-0.2-0.5-0.5-0.7-0.8
			c-0.2,0.3-0.4,0.5-0.7,0.8c-1.4,1.4-3.2,2.1-5.2,2.1c-2,0-3.8-0.7-5.2-2.2c-1.4-1.4-2.1-3-2.2-5v-22.8h1.7v22.7
			c0,1.5,0.6,2.9,1.7,4s2.4,1.6,4,1.6s2.9-0.5,4-1.6C508.5-65.5,508.8-66,509.1-66.5z"/>
		<path fill="#FFFFFF" d="M532.7-78.5c-2.1-0.7-3.8-1.7-5-2.9c-1.2-1.2-1.8-2.7-1.8-4.5c0-1.7,0.6-3.2,1.8-4.4
			c1.2-1.2,2.7-1.8,4.5-1.8c1.7,0,3.2,0.6,4.5,1.8c0.7,0.7,1.2,1.4,1.4,2.2l-1.5,0.6c-0.2-0.6-0.6-1.2-1.1-1.7
			c-0.9-0.9-2-1.3-3.3-1.3c-1.3,0-2.4,0.4-3.3,1.3c-0.9,0.9-1.4,2-1.4,3.3c0,1.3,0.5,2.4,1.4,3.3c0.8,0.8,2,1.6,3.5,2.3
			c2.4,0.8,4.4,2,6,3.6c1.7,1.7,2.6,3.8,2.6,6.2c0,2.4-0.9,4.5-2.6,6.2c-1.7,1.7-3.8,2.6-6.2,2.6c-2.4,0-4.5-0.9-6.2-2.6
			c-1.4-1.4-2.2-3-2.5-4.8l1.6-0.6c0.2,1.6,0.9,3,2.1,4.2c1.4,1.4,3.1,2.1,5,2.1c2,0,3.7-0.7,5.1-2.1c1.4-1.4,2.1-3.1,2.1-5.1
			c0-2-0.7-3.6-2.1-5C536-76.8,534.5-77.8,532.7-78.5z"/>
	</g>
</g>
<g>
	<g enable-background="new    ">
		<path fill="#1B2B79" d="M217.7,57.6v28.1h-4.6V4.7h21.2c6.2,0.8,11.4,3.4,15.7,7.7c5.2,5.2,7.7,11.4,7.7,18.7
			c0,7.3-2.6,13.6-7.7,18.7c-5.2,5.2-11.4,7.7-18.7,7.7H217.7z M217.7,9.3V53h13.8c6,0,11.1-2.1,15.4-6.4c4.3-4.3,6.4-9.4,6.4-15.5
			c0-6-2.1-11.2-6.4-15.4c-4.3-4.2-9.4-6.4-15.4-6.4H217.7z"/>
	</g>
	<g enable-background="new    ">
		<path fill="none" stroke="#1B2B79" stroke-width="2" stroke-linecap="round" stroke-linejoin="round" stroke-miterlimit="10" d="
			M217.7,57.6v28.1h-4.6V4.7h21.2c6.2,0.8,11.4,3.4,15.7,7.7c5.2,5.2,7.7,11.4,7.7,18.7c0,7.3-2.6,13.6-7.7,18.7
			c-5.2,5.2-11.4,7.7-18.7,7.7H217.7z M217.7,9.3V53h13.8c6,0,11.1-2.1,15.4-6.4c4.3-4.3,6.4-9.4,6.4-15.5c0-6-2.1-11.2-6.4-15.4
			c-4.3-4.2-9.4-6.4-15.4-6.4H217.7z"/>
	</g>
	<g enable-background="new    ">
		<path fill="#1B2B79" d="M268.3,36h4.6v9.1c0.9-1.3,2-2.6,3.3-3.9c4-4,8.1-6.1,12.3-6.3v5c-2.9,0.1-5.8,1.7-8.9,4.8
			c-4.3,4.3-6.6,9.4-6.7,15.4v25.6h-4.6V36z"/>
	</g>
	<g enable-background="new    ">
		<path fill="none" stroke="#1B2B79" stroke-width="2" stroke-linecap="round" stroke-linejoin="round" stroke-miterlimit="10" d="
			M268.3,36h4.6v9.1c0.9-1.3,2-2.6,3.3-3.9c4-4,8.1-6.1,12.3-6.3v5c-2.9,0.1-5.8,1.7-8.9,4.8c-4.3,4.3-6.6,9.4-6.7,15.4v25.6h-4.6
			V36z"/>
	</g>
	<g enable-background="new    ">
		<path fill="#1B2B79" d="M325.4,31.5c7.7,0,14.2,2.7,19.7,8.1c5.4,5.4,8.1,12,8.1,19.7c0,7.7-2.7,14.2-8.1,19.6
			c-5.4,5.4-12,8.1-19.7,8.1c-7.7,0-14.2-2.7-19.6-8.1c-5.4-5.4-8.1-12-8.1-19.6c0-7.7,2.7-14.2,8.1-19.7
			C311.2,34.2,317.7,31.5,325.4,31.5z M309.2,43.1c-4.5,4.5-6.7,9.9-6.7,16.2s2.2,11.7,6.7,16.2c4.5,4.5,9.9,6.7,16.2,6.7
			s11.8-2.2,16.2-6.7c4.5-4.5,6.7-9.9,6.7-16.2s-2.2-11.8-6.7-16.2c-4.5-4.5-9.9-6.7-16.2-6.7S313.6,38.6,309.2,43.1z"/>
		<path fill="#1B2B79" d="M385.8,86.4c-6.2,0-11.1-1.8-14.8-5.5c-3.7-3.7-5.6-8.3-5.7-13.9V36h4.6v30.6c0,4.2,1.5,7.8,4.6,10.8
			c3,3,6.8,4.5,11.3,4.5c4.2,0,7.8-1.5,10.9-4.5c3.1-3,4.6-6.6,4.6-10.8V36h4.6v31c-0.1,5.6-2,10.2-5.7,13.9
			C396.4,84.5,391.6,86.4,385.8,86.4z"/>
		<path fill="#1B2B79" d="M474.5,85.7H470V75.6c-0.9,1.2-1.8,2.3-2.9,3.4c-5.4,5.4-12,8.1-19.7,8.1c-7.7,0-14.2-2.7-19.6-8.1
			s-8.1-12-8.1-19.6c0-7.7,2.7-14.2,8.1-19.7c5.4-5.4,12-8.1,19.6-8.1c7.7,0,14.2,2.7,19.7,8.1c1,1.1,2,2.2,2.9,3.4V4.7h4.6V85.7z
			 M470,63.8v-9c-0.8-4.5-3-8.4-6.3-11.7c-4.5-4.5-9.9-6.7-16.2-6.7s-11.8,2.2-16.2,6.7c-4.5,4.5-6.7,9.9-6.7,16.2
			s2.2,11.7,6.7,16.2c4.5,4.5,9.9,6.7,16.2,6.7s11.8-2.2,16.2-6.7C467,72.1,469.1,68.2,470,63.8z"/>
	</g>
	<g enable-background="new    ">
		<path fill="none" stroke="#1B2B79" stroke-width="2" stroke-linecap="round" stroke-linejoin="round" stroke-miterlimit="10" d="
			M325.4,31.5c7.7,0,14.2,2.7,19.7,8.1c5.4,5.4,8.1,12,8.1,19.7c0,7.7-2.7,14.2-8.1,19.6c-5.4,5.4-12,8.1-19.7,8.1
			c-7.7,0-14.2-2.7-19.6-8.1c-5.4-5.4-8.1-12-8.1-19.6c0-7.7,2.7-14.2,8.1-19.7C311.2,34.2,317.7,31.5,325.4,31.5z M309.2,43.1
			c-4.5,4.5-6.7,9.9-6.7,16.2s2.2,11.7,6.7,16.2c4.5,4.5,9.9,6.7,16.2,6.7s11.8-2.2,16.2-6.7c4.5-4.5,6.7-9.9,6.7-16.2
			s-2.2-11.8-6.7-16.2c-4.5-4.5-9.9-6.7-16.2-6.7S313.6,38.6,309.2,43.1z"/>
		<path fill="none" stroke="#1B2B79" stroke-width="2" stroke-linecap="round" stroke-linejoin="round" stroke-miterlimit="10" d="
			M385.8,86.4c-6.2,0-11.1-1.8-14.8-5.5c-3.7-3.7-5.6-8.3-5.7-13.9V36h4.6v30.6c0,4.2,1.5,7.8,4.6,10.8c3,3,6.8,4.5,11.3,4.5
			c4.2,0,7.8-1.5,10.9-4.5c3.1-3,4.6-6.6,4.6-10.8V36h4.6v31c-0.1,5.6-2,10.2-5.7,13.9C396.4,84.5,391.6,86.4,385.8,86.4z"/>
		<path fill="none" stroke="#1B2B79" stroke-width="2" stroke-linecap="round" stroke-linejoin="round" stroke-miterlimit="10" d="
			M474.5,85.7H470V75.6c-0.9,1.2-1.8,2.3-2.9,3.4c-5.4,5.4-12,8.1-19.7,8.1c-7.7,0-14.2-2.7-19.6-8.1s-8.1-12-8.1-19.6
			c0-7.7,2.7-14.2,8.1-19.7c5.4-5.4,12-8.1,19.6-8.1c7.7,0,14.2,2.7,19.7,8.1c1,1.1,2,2.2,2.9,3.4V4.7h4.6V85.7z M470,63.8v-9
			c-0.8-4.5-3-8.4-6.3-11.7c-4.5-4.5-9.9-6.7-16.2-6.7s-11.8,2.2-16.2,6.7c-4.5,4.5-6.7,9.9-6.7,16.2s2.2,11.7,6.7,16.2
			c4.5,4.5,9.9,6.7,16.2,6.7s11.8-2.2,16.2-6.7C467,72.1,469.1,68.2,470,63.8z"/>
	</g>
	<g enable-background="new    ">
		<path fill="#1B2B79" d="M590.1,72.8l3.4,3.1c-7.9,7.2-17.2,10.8-27.9,10.8c-11.5,0-21.2-4-29.3-12.1c-8.1-8.1-12.1-17.8-12.1-29.3
			c0-11.4,4-21.2,12.1-29.3c8.1-8.1,17.8-12.1,29.3-12.1c10.7,0,20,3.6,27.9,10.8l-3.4,3.1c-6.9-6.2-15.1-9.3-24.4-9.3
			c-10.2,0-18.8,3.6-26,10.8c-7.2,7.2-10.8,15.8-10.8,26c0,10.2,3.6,18.9,10.8,26.1c7.2,7.2,15.8,10.8,26,10.8
			C575,82,583.1,78.9,590.1,72.8z"/>
	</g>
	<g enable-background="new    ">
		<path fill="none" stroke="#1B2B79" stroke-width="2" stroke-linecap="round" stroke-linejoin="round" stroke-miterlimit="10" d="
			M590.1,72.8l3.4,3.1c-7.9,7.2-17.2,10.8-27.9,10.8c-11.5,0-21.2-4-29.3-12.1c-8.1-8.1-12.1-17.8-12.1-29.3
			c0-11.4,4-21.2,12.1-29.3c8.1-8.1,17.8-12.1,29.3-12.1c10.7,0,20,3.6,27.9,10.8l-3.4,3.1c-6.9-6.2-15.1-9.3-24.4-9.3
			c-10.2,0-18.8,3.6-26,10.8c-7.2,7.2-10.8,15.8-10.8,26c0,10.2,3.6,18.9,10.8,26.1c7.2,7.2,15.8,10.8,26,10.8
			C575,82,583.1,78.9,590.1,72.8z"/>
	</g>
	<g enable-background="new    ">
		<path fill="#1B2B79" d="M608.6,4.7v80.9h-4.6V4.7H608.6z"/>
		<path fill="#1B2B79" d="M648.5,31.5c7.7,0,14.2,2.7,19.7,8.1c5.4,5.4,8.1,12,8.1,19.7c0,7.7-2.7,14.2-8.1,19.6
			c-5.4,5.4-12,8.1-19.7,8.1c-7.7,0-14.2-2.7-19.6-8.1c-5.4-5.4-8.1-12-8.1-19.6c0-7.7,2.7-14.2,8.1-19.7
			C634.3,34.2,640.9,31.5,648.5,31.5z M632.3,43.1c-4.5,4.5-6.7,9.9-6.7,16.2s2.2,11.7,6.7,16.2c4.5,4.5,9.9,6.7,16.2,6.7
			s11.8-2.2,16.2-6.7c4.5-4.5,6.7-9.9,6.7-16.2s-2.2-11.8-6.7-16.2c-4.5-4.5-9.9-6.7-16.2-6.7S636.8,38.6,632.3,43.1z"/>
		<path fill="#1B2B79" d="M708.9,86.4c-6.2,0-11.1-1.8-14.8-5.5c-3.7-3.7-5.6-8.3-5.7-13.9V36h4.6v30.6c0,4.2,1.5,7.8,4.6,10.8
			c3,3,6.8,4.5,11.3,4.5c4.2,0,7.8-1.5,10.8-4.5s4.6-6.6,4.6-10.8V36h4.6v31c-0.1,5.6-2,10.2-5.7,13.9
			C719.5,84.5,714.8,86.4,708.9,86.4z"/>
		<path fill="#1B2B79" d="M797.6,85.7h-4.6V75.6c-0.9,1.2-1.8,2.3-2.9,3.4c-5.4,5.4-12,8.1-19.7,8.1c-7.7,0-14.2-2.7-19.6-8.1
			s-8.1-12-8.1-19.6c0-7.7,2.7-14.2,8.1-19.7c5.4-5.4,12-8.1,19.6-8.1c7.7,0,14.2,2.7,19.7,8.1c1,1.1,2,2.2,2.9,3.4V4.7h4.6V85.7z
			 M793.1,63.8v-9c-0.8-4.5-3-8.4-6.3-11.7c-4.5-4.5-9.9-6.7-16.2-6.7s-11.8,2.2-16.2,6.7c-4.5,4.5-6.7,9.9-6.7,16.2
			s2.2,11.7,6.7,16.2c4.5,4.5,9.9,6.7,16.2,6.7s11.8-2.2,16.2-6.7C790.1,72.1,792.2,68.2,793.1,63.8z"/>
	</g>
	<g enable-background="new    ">
		<path fill="none" stroke="#1B2B79" stroke-width="2" stroke-linecap="round" stroke-linejoin="round" stroke-miterlimit="10" d="
			M608.6,4.7v80.9h-4.6V4.7H608.6z"/>
		<path fill="none" stroke="#1B2B79" stroke-width="2" stroke-linecap="round" stroke-linejoin="round" stroke-miterlimit="10" d="
			M648.5,31.5c7.7,0,14.2,2.7,19.7,8.1c5.4,5.4,8.1,12,8.1,19.7c0,7.7-2.7,14.2-8.1,19.6c-5.4,5.4-12,8.1-19.7,8.1
			c-7.7,0-14.2-2.7-19.6-8.1c-5.4-5.4-8.1-12-8.1-19.6c0-7.7,2.7-14.2,8.1-19.7C634.3,34.2,640.9,31.5,648.5,31.5z M632.3,43.1
			c-4.5,4.5-6.7,9.9-6.7,16.2s2.2,11.7,6.7,16.2c4.5,4.5,9.9,6.7,16.2,6.7s11.8-2.2,16.2-6.7c4.5-4.5,6.7-9.9,6.7-16.2
			s-2.2-11.8-6.7-16.2c-4.5-4.5-9.9-6.7-16.2-6.7S636.8,38.6,632.3,43.1z"/>
		<path fill="none" stroke="#1B2B79" stroke-width="2" stroke-linecap="round" stroke-linejoin="round" stroke-miterlimit="10" d="
			M708.9,86.4c-6.2,0-11.1-1.8-14.8-5.5c-3.7-3.7-5.6-8.3-5.7-13.9V36h4.6v30.6c0,4.2,1.5,7.8,4.6,10.8c3,3,6.8,4.5,11.3,4.5
			c4.2,0,7.8-1.5,10.8-4.5s4.6-6.6,4.6-10.8V36h4.6v31c-0.1,5.6-2,10.2-5.7,13.9C719.5,84.5,714.8,86.4,708.9,86.4z"/>
		<path fill="none" stroke="#1B2B79" stroke-width="2" stroke-linecap="round" stroke-linejoin="round" stroke-miterlimit="10" d="
			M797.6,85.7h-4.6V75.6c-0.9,1.2-1.8,2.3-2.9,3.4c-5.4,5.4-12,8.1-19.7,8.1c-7.7,0-14.2-2.7-19.6-8.1s-8.1-12-8.1-19.6
			c0-7.7,2.7-14.2,8.1-19.7c5.4-5.4,12-8.1,19.6-8.1c7.7,0,14.2,2.7,19.7,8.1c1,1.1,2,2.2,2.9,3.4V4.7h4.6V85.7z M793.1,63.8v-9
			c-0.8-4.5-3-8.4-6.3-11.7c-4.5-4.5-9.9-6.7-16.2-6.7s-11.8,2.2-16.2,6.7c-4.5,4.5-6.7,9.9-6.7,16.2s2.2,11.7,6.7,16.2
			c4.5,4.5,9.9,6.7,16.2,6.7s11.8-2.2,16.2-6.7C790.1,72.1,792.2,68.2,793.1,63.8z"/>
	</g>
</g>
<g>
	<circle fill="none" stroke="#11BAD1" stroke-miterlimit="10" cx="785.2" cy="188.2" r="9.8"/>
</g>
<g>
	<g>
		<defs>
			<polygon id="SVGID_3_" points="778.6,239.9 876,201.8 876,175 			"/>
		</defs>
		<clipPath id="SVGID_4_">
			<use xlink:href="#SVGID_3_"  overflow="visible"/>
		</clipPath>
		<g clip-path="url(#SVGID_4_)">
			<g>
				
					<line fill="none" stroke="#00A0E9" stroke-linecap="round" stroke-linejoin="round" stroke-miterlimit="10" x1="1039.4" y1="-266.9" x2="750.3" y2="286.6"/>
				
					<line fill="none" stroke="#00A0E9" stroke-linecap="round" stroke-linejoin="round" stroke-miterlimit="10" x1="1042.8" y1="-263.7" x2="753.7" y2="289.8"/>
				
					<line fill="none" stroke="#00A0E9" stroke-linecap="round" stroke-linejoin="round" stroke-miterlimit="10" x1="1046.3" y1="-260.5" x2="757.2" y2="293"/>
				
					<line fill="none" stroke="#00A0E9" stroke-linecap="round" stroke-linejoin="round" stroke-miterlimit="10" x1="1049.7" y1="-257.3" x2="760.6" y2="296.2"/>
				
					<line fill="none" stroke="#00A0E9" stroke-linecap="round" stroke-linejoin="round" stroke-miterlimit="10" x1="1053.2" y1="-254.1" x2="764.1" y2="299.4"/>
				
					<line fill="none" stroke="#00A0E9" stroke-linecap="round" stroke-linejoin="round" stroke-miterlimit="10" x1="1060.1" y1="-247.7" x2="771" y2="305.8"/>
				
					<line fill="none" stroke="#00A0E9" stroke-linecap="round" stroke-linejoin="round" stroke-miterlimit="10" x1="1063.5" y1="-244.5" x2="774.4" y2="309"/>
				
					<line fill="none" stroke="#00A0E9" stroke-linecap="round" stroke-linejoin="round" stroke-miterlimit="10" x1="1067" y1="-241.2" x2="777.9" y2="312.2"/>
				
					<line fill="none" stroke="#00A0E9" stroke-linecap="round" stroke-linejoin="round" stroke-miterlimit="10" x1="1070.4" y1="-238" x2="781.3" y2="315.4"/>
				
					<line fill="none" stroke="#00A0E9" stroke-linecap="round" stroke-linejoin="round" stroke-miterlimit="10" x1="1073.8" y1="-234.8" x2="784.8" y2="318.7"/>
				
					<line fill="none" stroke="#00A0E9" stroke-linecap="round" stroke-linejoin="round" stroke-miterlimit="10" x1="1054.5" y1="-246.3" x2="765.4" y2="307.2"/>
			</g>
		</g>
	</g>
</g>
</svg>
