<?xml version="1.0" encoding="utf-8"?>
<!-- Generator: Adobe Illustrator 19.1.0, SVG Export Plug-In . SVG Version: 6.00 Build 0)  -->
<svg version="1.0" id="レイヤー_1" xmlns="http://www.w3.org/2000/svg" xmlns:xlink="http://www.w3.org/1999/xlink" x="0px"
	 y="0px" viewBox="0 0 219 196" enable-background="new 0 0 219 196" xml:space="preserve">
<g>
	<g>
		<path fill="#1B2B79" d="M99.305,54.394c6.488,2.297,16.262,2.508,23.135,1.12l-11.309-11.588l1.306-1.274l11.42,11.702
			l4.259-4.156l1.386,1.42l-4.259,4.156l5.899,6.046l-1.306,1.274l-5.899-6.046l-11.771,11.487c-1.854,1.81-3.348,1.746-5.516-0.476
			c-1.273-1.305-2.341-2.812-2.897-3.564l1.354-1.5c0.734,1.027,1.713,2.397,3.098,3.817c1.073,1.1,1.66,1.196,2.554,0.324
			l9.709-9.475c-6.122,1.147-14.787,0.974-21.367-1.234L99.305,54.394z"/>
		<path fill="#1B2B79" d="M119.695,78.312c14.005,11.191,25.381,2.415,28.58-0.081l-16.113-16.511l1.305-1.272l15.264,15.641
			c0.093-0.181,0.208-0.338,0.482-0.605c1.396-1.363,3.5-1.225,4.729,0.035c1.297,1.328,1.271,3.41-0.057,4.706
			c-1.237,1.207-3.32,1.362-4.751-0.104c-4.68,3.404-15.406,10.921-30.365-0.01L119.695,78.312z M150.22,76.469
			c-0.757,0.738-0.771,1.959-0.033,2.715c0.76,0.778,1.981,0.749,2.715,0.033c0.778-0.76,0.77-1.959,0.032-2.715
			C152.219,75.769,150.998,75.709,150.22,76.469z"/>
		<path fill="#1B2B79" d="M139.446,97.133c10.997,9.299,19.424,8.497,29.371,3.618l0.635,1.749
			c-11.582,5.357-18.989,6.014-31.294-3.618L139.446,97.133z M152.208,95.365c-0.927-3.835-1.85-6.109-3.642-9.412l1.862-0.61
			c1.639,2.916,2.718,5.396,3.801,9.346L152.208,95.365z M159.514,91.857c-0.388-1.634-1.078-4.448-3.731-9.459l1.795-0.589
			c2.084,3.556,3.182,6.329,3.982,9.304L159.514,91.857z"/>
		<path fill="#1B2B79" d="M182.312,116.869l-13.26,12.939l-12.247-12.55l1.236-1.207l10.995,11.268l5.13-5.006l-10.638-10.901
			l1.19-1.162l10.638,10.901l4.535-4.425l-10.771-11.038l1.168-1.14L182.312,116.869z"/>
		<path fill="#1B2B79" d="M173.173,131.647c6.842,6.601,17.543,10.555,31.293,3.709l0.746,1.864c-3.231,1.5-9.897,4.473-18.054,3.49
			c-5.647-0.703-10.912-3.211-15.097-7.086L173.173,131.647z M191.234,127.523c-0.57-3.377-2.238-7.652-3.72-10.454l2.042-0.473
			c1.172,2.255,3.022,6.44,3.811,10.41L191.234,127.523z"/>
		<path fill="#1B2B79" d="M215.121,139.356c-0.55,0.536-1.214,1.14-2.175,2.078c-3,2.928-4.173,4.385-4.78,6.007
			c3.282,1.76,5.907,3.579,10.101,6.64l-1.354,1.59c-3.542-2.804-17.032-13.513-22.643-8.038c-3.138,3.062-0.463,6.398,5.28,12.283
			c3.687,3.779,6.284,5.983,7.405,6.946l-1.421,1.477c-3.268-3.026-5.391-5.111-7.335-7.104c-4.09-4.19-9.989-10.281-5.249-14.907
			c2.244-2.19,6.622-3.064,13.506,0.233c0.889-2.298,2.882-4.332,3.271-4.712c1.306-1.319,3.46-3.511,3.94-3.98L215.121,139.356z"/>
		<path fill="#1B2B79" d="M29.308,10.561l1.341,1.374l-4.74,4.625l4.202,4.305l-1.328,1.297l-4.202-4.305l-3.458,3.374
			c-2.268,2.213-6.646,5.056-11.747,4.043C4.794,24.38,1.187,21.371,0,20.384l0.905-1.867c1.209,1.056,4.59,4.017,9.059,4.886
			c5.147,1.013,9.636-3.367,9.818-3.546l3.458-3.374l-9.051-9.275l-6.733,6.57l-1.363-1.396l6.733-6.57L8.692,1.573l1.328-1.297
			l4.134,4.237L18.78,0l1.363,1.396L15.517,5.91l9.051,9.275L29.308,10.561z"/>
		<path fill="#1B2B79" d="M45.423,45.582l-1.488,1.452L24.09,26.698l1.488-1.452L45.423,45.582z"/>
		<path fill="#1B2B79" d="M57.831,41.346l-7.763,7.575c4.062,2.743,10.488,6.397,17.276,8.222l-0.206,2.079
			c-6.069-1.454-14.629-6.469-18.399-9.004l-5.793,5.653c-1.833,1.788-2.11,2.327,1.421,5.945l5.899,6.046
			c1.498,1.534,3.801,3.668,5.482,4.979l-1.262,1.41c-1.433-1.194-4.364-3.924-5.683-5.274l-5.854-6
			c-4.202-4.306-4.093-5.888-1.413-8.503l14.908-14.548L57.831,41.346z M68.769,57.229c0.279-0.677,1.003-2.454,1.507-4.733
			l1.599,0.584c-0.223,1.56-0.741,3.228-1.37,4.736L68.769,57.229z M72.205,59.374c0.141-0.36,0.938-2.613,1.302-4.667l1.645,0.585
			c-0.293,1.716-0.646,2.956-1.301,4.623L72.205,59.374z"/>
		<path fill="#1B2B79" d="M56.733,75.728c6.372,2.589,17.751,4.675,29.994-1.06L73.677,61.294l1.306-1.273l14.794,15.16
			c-4.398,2.503-9.215,4.119-14.244,4.691c0.141,1.427,0.786,7.816,0.692,15.509l-2.217-0.073c0.233-4.296,0.03-11.653-0.334-15.232
			c-5.844,0.426-11.74-0.302-17.213-2.428L56.733,75.728z"/>
		<path fill="#1B2B79" d="M106.201,88.394l-3.526,3.441l8.604,8.817l-15.435,15.062c-1.649,1.609-2.351,1.713-3.848,0.179
			l-3.71-3.802l1.013-1.525l3.777,3.961c0.536,0.549,0.784,0.53,1.357-0.029l14.45-14.102l-7.218-7.397
			c-2.09,2.487-4.654,6.822-3.351,16.817H96.39c-0.434-5.166-0.21-10.525,2.223-15.179c-4.441,2.366-7.78,3.389-15.472,1.417
			l0.339-1.807c8.402,3.067,13.604-0.354,16.732-2.737l-7.24-7.42l-16.396,16.001l-1.274-1.306l17.496-17.073l8.581,8.794
			l3.526-3.441L106.201,88.394z"/>
		<path fill="#1B2B79" d="M111.797,136.141l-1.251-1.282l1.168-1.14L99.87,121.581l-1.168,1.14l-1.229-1.26l7.717-7.531
			c-1.598-0.676-2.79-1.301-3.621-1.741l0.45-1.646c4.989,2.776,11.431,5.163,15.468,4.443l1.341,1.374
			c-0.615,4.042,0.968,9.696,4.112,15.347l-1.795,0.544c-0.529-1.094-1.037-2.118-1.652-3.619L111.797,136.141z M117.348,128.221
			l-11.845-12.138l-4.533,4.425l11.844,12.138L117.348,128.221z M119.207,127.882c-1.074-2.843-1.5-4.975-1.649-5.769
			c-0.573-3.062-0.396-4.575-0.272-5.456c-4.418,0.421-10.227-1.958-11.397-2.425L119.207,127.882z M107.896,107.22
			c2.498,1.139,5.675,2.242,9.568,2.109l0.298,1.586c-4.394,0.309-8.628-1.327-10.271-1.958L107.896,107.22z M126.248,108.938
			l-2.129,2.078l8.984,9.206l-4.718,4.604l-1.229-1.26l3.572-3.487l-16.805-17.221l-3.572,3.487l-1.274-1.306l4.718-4.604
			l9.028,9.252l2.129-2.078L126.248,108.938z M124.303,116.336c0.048,3.53,0.624,6.366,1.758,9.819l-1.767,0.159
			c-1.52-5.178-1.617-8.347-1.594-10.247L124.303,116.336z"/>
		<path fill="#1B2B79" d="M126.534,146.844c2.889,2.456,9.854,8.356,17.182,1.205c1.924-1.877,7.275-8.351,0.081-15.815
			c-5.304,4.37-10.418,8.154-16.022,9.377c-3.652,0.791-5.519-0.204-6.323-1.028c-2.168-2.222-1.208-6.689,2.502-10.311
			c5.885-5.743,14.398-6.138,21.08,0.71c6.928,7.1,4.42,14.242,0.229,18.331c-8.587,8.381-16.742,1.719-19.653-0.761
			L126.534,146.844z M125.25,131.6c-1.9,1.854-4.3,5.581-2.378,7.551c0.85,0.87,2.271,1.092,4.587,0.576
			c5.535-1.198,11.11-5.611,14.906-8.868C135.891,125.553,129.304,127.645,125.25,131.6z"/>
		<path fill="#1B2B79" d="M136.591,157.241c2.522-0.853,5.945-3.3,7.25-4.393l0.957,1.257c-0.983,0.825-4.205,3.388-7.661,4.749
			L136.591,157.241z M160.714,149.615c-3.291,0.844-7.965,1.918-11.499,2.281c1.186,1.078,1.857,1.675,3.805,3.351
			c0.489-1.104,0.7-1.712,0.935-2.387l1.42,0.446c-0.524,2.167-1.872,5.047-2.404,6.059l-1.597-0.768
			c0.368-0.583,0.623-1.01,1.065-2.023c-0.471-0.39-1.12-0.918-2.6-2.158l-10.35,10.102l-1.207-1.236l10.259-10.012
			c-0.58-0.552-3.221-2.981-3.759-3.485l0.899-1.325c0.692,0.71,1.229,1.26,2.168,2.132c0.771-0.081,1.949-0.249,2.901-0.418
			c0.104-1.039,0.102-4.523-0.189-6.745l1.609-0.139c0.08,0.815,0.099,1.11,0.139,1.563c2.224-0.471,5.15-1.182,6.972-2.064
			l0.728,1.661c-2.817,0.915-5.723,1.604-7.673,1.942c0.035,0.904-0.06,3.054-0.088,3.528c2.675-0.465,5.33-1.089,7.92-1.872
			L160.714,149.615z M154.372,179.77l-1.229-1.26l1.259-1.229l-7.509-7.694l-1.259,1.229l-1.207-1.237l9.939-9.699l9.944,10.191
			L154.372,179.77z M145.011,164.449c2.022-2.555,3.694-6.02,3.881-6.425l1.394,0.696c-0.559,1.215-2.298,4.7-3.725,6.63
			L145.011,164.449z M161.96,169.905l-7.509-7.694l-6.435,6.28l7.509,7.694L161.96,169.905z M160.878,164.031l0.992-1.594
			l2.412,2.564c0.916,0.983,1.653,1.785,8.313-4.447l-4.648-4.763c-4.589,3.405-8.378,4.15-13.476,2.912l0.226-1.785
			c2.097,0.637,6.743,1.735,12.043-2.364l-3.91-4.007l1.122-1.096l11.017,11.29c-1.945,1.854-6.02,5.651-7.771,6.422
			c-2.002,0.88-2.99,0.279-4.085-0.843L160.878,164.031z"/>
		<path fill="#1B2B79" d="M171.031,177.598c-4.558,4.448-8.834,6.341-15.115,3.753l0.498-1.917
			c3.668,1.742,7.687,2.425,13.503-3.252l3.55-3.464l1.251,1.282L171.031,177.598z M167.835,166.947
			c5.128,2.552,12.652,3.436,17.461,2.453l1.274,1.306c-0.926,5.328-0.282,11.989,2.388,17.521l-1.999,0.608
			c-2.307-5.616-2.996-12.188-2.139-17.54c-4.604,0.782-12.151,0.011-17.506-2.499L167.835,166.947z M169.749,195.526l-1.274-1.305
			l13.305-12.984l1.274,1.305L169.749,195.526z"/>
	</g>
</g>
</svg>
