<?xml version="1.0" encoding="utf-8"?>
<!-- Generator: Adobe Illustrator 19.1.0, SVG Export Plug-In . SVG Version: 6.00 Build 0)  -->
<svg version="1.0" id="レイヤー_1" xmlns="http://www.w3.org/2000/svg" xmlns:xlink="http://www.w3.org/1999/xlink" x="0px"
	 y="0px" viewBox="0 0 620 184" enable-background="new 0 0 620 184" xml:space="preserve">
<g>
	<g>
		<g>
			<path fill="#1B2B79" stroke="#1B2B79" stroke-miterlimit="10" d="M184.2,48.2l2.3,2.1c-5.3,4.9-11.6,7.3-18.8,7.3
				c-7.7,0-14.4-2.7-19.8-8.2c-5.5-5.5-8.2-12.1-8.2-19.8s2.7-14.3,8.2-19.8s12.1-8.2,19.8-8.2c7.2,0,13.5,2.4,18.8,7.3l-2.3,2.1
				c-4.7-4.2-10.2-6.3-16.5-6.3c-6.9,0-12.7,2.4-17.6,7.3s-7.3,10.7-7.3,17.6s2.4,12.7,7.3,17.6s10.7,7.3,17.6,7.3
				C174,54.5,179.5,52.4,184.2,48.2z"/>
			<path fill="#1B2B79" stroke="#1B2B79" stroke-miterlimit="10" d="M219.3,36h-18.9l-7.6,21h-3.3l20.4-56l20.3,56H227L219.3,36z
				 M218.2,32.9L209.9,10l-8.3,22.9H218.2z"/>
			<path fill="#1B2B79" stroke="#1B2B79" stroke-miterlimit="10" d="M248.6,26.7c-3.9-1.3-7-3.1-9.2-5.3s-3.4-5-3.4-8.2
				c0-3.1,1.1-5.8,3.4-8.1s5-3.4,8.2-3.4c3.2,0,5.9,1.1,8.2,3.4c1.3,1.2,2.1,2.6,2.6,4.1l-2.8,1.1c-0.4-1.1-1.1-2.1-2-3.1
				c-1.7-1.6-3.7-2.5-6-2.5c-2.3,0-4.4,0.8-6,2.5c-1.7,1.7-2.5,3.7-2.5,6s0.8,4.4,2.5,6c1.5,1.5,3.7,2.9,6.4,4.2
				c4.4,1.4,8.1,3.6,11,6.6c3.2,3.1,4.8,7,4.8,11.4c0,4.5-1.6,8.3-4.8,11.5c-3.2,3.2-7,4.8-11.5,4.8s-8.3-1.6-11.5-4.8
				c-2.5-2.5-4-5.5-4.5-8.8l2.9-1.1c0.3,3,1.6,5.5,3.8,7.8c2.6,2.6,5.7,3.9,9.3,3.9s6.8-1.3,9.3-3.9c2.6-2.6,3.9-5.7,3.9-9.3
				s-1.3-6.7-3.9-9.3C254.6,29.8,251.8,28,248.6,26.7z"/>
			<path fill="#1B2B79" stroke="#1B2B79" stroke-miterlimit="10" d="M297.2,2.3v3.1h-24.3v22.7h24.3v3.1h-24.3v22.7h24.3V57h-27.3
				V2.3H297.2z"/>
			<path fill="#1B2B79" stroke="#1B2B79" stroke-miterlimit="10" d="M318.1,26.7c-3.9-1.3-7-3.1-9.2-5.3s-3.4-5-3.4-8.2
				c0-3.1,1.1-5.8,3.4-8.1s5-3.4,8.2-3.4s5.9,1.1,8.2,3.4c1.3,1.2,2.1,2.6,2.6,4.1l-2.8,1.1c-0.4-1.1-1.1-2.1-2-3.1
				c-1.7-1.6-3.7-2.5-6-2.5s-4.4,0.8-6,2.5c-1.7,1.7-2.5,3.7-2.5,6s0.8,4.4,2.5,6c1.5,1.5,3.7,2.9,6.4,4.2c4.4,1.4,8.1,3.6,11,6.6
				c3.2,3.1,4.8,7,4.8,11.4c0,4.5-1.6,8.3-4.8,11.5c-3.2,3.2-7,4.8-11.5,4.8s-8.3-1.6-11.5-4.8c-2.5-2.5-4-5.5-4.5-8.8l2.9-1.1
				c0.3,3,1.6,5.5,3.8,7.8c2.6,2.6,5.7,3.9,9.3,3.9c3.6,0,6.8-1.3,9.3-3.9c2.6-2.6,3.9-5.7,3.9-9.3s-1.3-6.7-3.9-9.3
				C324.2,29.8,321.4,28,318.1,26.7z"/>
			<path fill="#1B2B79" stroke="#1B2B79" stroke-miterlimit="10" d="M350.1,5.3V57H347V5.3h-13.8v-3H364v3.1L350.1,5.3L350.1,5.3z"
				/>
			<path fill="#1B2B79" stroke="#1B2B79" stroke-miterlimit="10" d="M401.3,2.3h3.1v39.3c-0.6,4.2-2.3,7.7-5.2,10.6
				c-3.5,3.5-7.7,5.2-12.6,5.2s-9.2-1.7-12.6-5.2s-5.2-7.7-5.2-12.6V2.3h3.1v37.3c0,4.1,1.4,7.5,4.3,10.4s6.4,4.3,10.4,4.3
				s7.6-1.4,10.4-4.3s4.3-6.4,4.3-10.4L401.3,2.3L401.3,2.3z"/>
			<path fill="#1B2B79" stroke="#1B2B79" stroke-miterlimit="10" d="M414.3,2.3h0.2c9,0,16,2.5,20.9,7.5c5.5,5.5,8.2,12.1,8.2,19.8
				s-2.7,14.4-8.2,19.8c-4.9,5-11.9,7.5-20.9,7.5h-0.2V57h-3.1V2.3H414.3L414.3,2.3z M414.3,5.5v48.3h0.2c8.1,0,14.3-2.2,18.7-6.6
				c4.9-4.9,7.3-10.7,7.3-17.6s-2.4-12.7-7.3-17.6c-4.4-4.4-10.6-6.5-18.7-6.5H414.3z"/>
			<path fill="#1B2B79" stroke="#1B2B79" stroke-miterlimit="10" d="M458.4,34.8L439.6,2.3h3.5L460,31.4l16.9-29.2h3.5l-18.8,32.6
				V57h-3.1V34.8H458.4z"/>
		</g>
	</g>
	<g>
		<g>
			<path fill="#1B2B79" d="M214.4,91.1c1.6-1.1,5.1-3.5,8.1-10l1.3,0.6c-1.5,3.6-4.4,8-8.3,10.7L214.4,91.1z M226.2,89.6
				c-1,2.8-3.2,8.9-5.4,12.8c4.2-0.3,8.7-0.7,12.8-1.5c-1.1-1.6-2-2.9-4.7-6l1.2-0.9c2.6,2.7,5.9,7.3,7.4,10.2l-1.5,0.9
				c-0.4-0.8-0.7-1.5-1.7-3.1c-5.6,1.3-15.2,2-18.8,2.2l-0.3-1.4c0.8-0.1,1.6-0.1,3.8-0.2c1.7-3.2,4.1-9.2,5.5-13.5L226.2,89.6z
				 M230.9,81.1c3.5,6.8,6.5,9,8.1,10.1l-1.1,1.3c-3.9-3-6.3-6.6-8.3-10.7L230.9,81.1z"/>
			<path fill="#1B2B79" d="M248.5,82.3v8h-8.2V105h-1.4V82.3H248.5z M247,83.6h-6.8v2.1h6.8V83.6z M247,86.8h-6.8v2.3h6.8V86.8z
				 M258.1,97v1.2h-4.3v6.4h-1.4v-6.4h-4.7c-0.3,2.5-1.2,4.9-4.2,6.4l-1-1.1c2.9-1.4,3.4-3.5,3.7-5.3h-4.4V97h4.6c0-0.5,0-0.6,0-0.9
				v-2.5h-3.7v-1.2h14.6v1.2h-3.5V97H258.1z M252.3,97v-3.3h-4.5v2.5c0,0.3,0,0.5,0,0.8H252.3z M261.1,82.3v20.5
				c0,1.2-0.4,2.2-1.9,2.2h-3.5l-0.4-1.6l3.3,0.1c0.5,0,1,0,1-0.7V90.3h-8.3v-8H261.1z M259.6,83.6h-6.9v2.1h6.9V83.6z M259.6,86.8
				h-6.9v2.3h6.9V86.8z"/>
			<path fill="#1B2B79" d="M285.2,84.6h-11.1v1.8h8.7v4.9h-8.7v1.6h9.4v3.3h1.9v1.2h-1.9v4.7h-1.4v-1.2h-8v2.3c0,0.7,0,1.9-2.3,1.9
				h-3.6l-0.2-1.5l3.7,0.1c0.7,0,0.9-0.2,0.9-0.8V101h-9.5v-1.2h9.5v-2.2h-11.2v-1.2h11.2V94h-9.5v-1.1h9.5v-1.6h-8.9v-4.9h8.9v-1.8
				h-10.9v-1.2h10.9v-2.1h1.4v2.1h11.1v1.2H285.2z M272.7,87.5h-7.4V90h7.4V87.5z M281.3,87.5h-7.2V90h7.2V87.5z M282.1,94h-8v2.2h8
				V94z M282.1,97.4h-8v2.2h8V97.4z"/>
			<path fill="#1B2B79" d="M289.1,105h-1.4V90.5c-0.9,1.7-1.4,2.3-2,3l-0.9-1.4c2-2.4,3.9-6.6,4.6-11.1l1.4,0.3
				c-0.2,1.1-0.7,3.1-1.7,5.9V105z M289.9,95c2.8-3,4.2-7.1,4.3-11.3h-2.9v-1.2h9.3v1.2h-5c-0.1,2-0.3,3.4-0.5,4.3h4.9
				c-0.3,10.6-5.7,15.2-7.9,16.8l-1-1.1c1.1-0.8,3.9-3,5.8-7.2c-0.9-1-2.5-2.2-3.9-3.2c-0.8,1.2-1.6,2.1-2.1,2.7L289.9,95z
				 M294.7,89.3c-0.2,0.8-0.5,1.7-1.2,3c1.6,1.1,2.7,1.9,3.8,3c0.7-1.9,1-4,1.1-6H294.7z M303.2,99.3h-1.4V83h1.4V99.3z M308,81.2
				v21.9c0,0.8-0.1,1.9-1.7,1.9H303l-0.2-1.5l3,0.1c0.6,0,0.7-0.2,0.7-0.7V81.2H308z"/>
			<path fill="#1B2B79" d="M320.8,102.5c3.1-0.3,10.5-1,10.5-9.3c0-2.2-0.7-9-9.2-9c-0.5,5.6-1.2,10.7-3.6,14.6
				c-1.6,2.6-3.2,3.1-4.2,3.1c-2.5,0-4.6-3.1-4.6-7.3c0-6.7,4.6-11.9,12.4-11.9c8.1,0,10.8,5.5,10.8,10.3c0,9.8-8.5,10.7-11.6,11
				L320.8,102.5z M311.2,94.6c0,2.2,0.8,5.7,3,5.7c1,0,1.9-0.7,2.9-2.3c2.4-3.9,3-9.6,3.3-13.7C313.7,85,311.2,90,311.2,94.6z"/>
			<path fill="#1B2B79" d="M339.1,92.2c-1.5,1.4-2.5,3.3-2.5,5.2c0,4.4,5.6,4.5,9,4.5c4,0,7.4-0.4,9.2-0.6l0.1,1.7
				c-2.4,0.2-6.2,0.4-8.9,0.4c-2.9,0-5.8-0.2-7.8-1.1c-2.2-1-3.1-3-3.1-4.9c0-2.7,1.5-4.7,2.8-6.1L339.1,92.2z M352.8,84.7
				c-3.1,0.4-7,2.3-8.8,3.3l-1-1.1c2.1-1.2,3.2-1.6,5.2-2.2c-7.7,0.1-8.2,0.1-12.1,0.2v-1.6c2.2,0,14.2,0,16.6,0L352.8,84.7
				L352.8,84.7z M352.2,91.9c-0.6-1.4-1-2.3-2-3.9l1.2-0.6c0.6,0.8,1.4,2,2.1,3.8L352.2,91.9z M355,90.6c-0.6-1.6-1.1-2.5-2-3.7
				l1.3-0.6c0.8,1.1,1.5,2.3,1.9,3.6L355,90.6z"/>
			<path fill="#1B2B79" d="M365.2,84.2c-1.4,2.4-3.4,5.7-5.2,8c1.3-0.1,2-0.1,4.1-0.3c-0.4-0.9-0.6-1.4-0.9-1.9l1.1-0.6
				c1,1.5,1.9,4,2.2,4.8l-1.4,0.5c-0.1-0.5-0.2-0.9-0.6-1.8c-0.5,0.1-1.2,0.1-2.7,0.3V105h-1.4V93.4c-0.6,0-3.6,0.2-4.2,0.2
				l-0.3-1.3c0.8,0,1.4,0,2.5-0.1c0.4-0.5,1-1.3,1.4-1.9c-0.5-0.7-2.6-2.6-4-3.7l0.8-1c0.5,0.4,0.7,0.6,1,0.8c1-1.6,2.2-3.7,2.8-5.2
				l1.4,0.5c-1.1,2.2-2.3,4.2-3.2,5.6c0.5,0.5,1.7,1.8,2,2.1c1.2-1.8,2.4-3.7,3.4-5.7L365.2,84.2z M355.9,102.6
				c0.9-2,1.5-5.3,1.6-6.7l1.3,0.2c-0.1,1-0.4,4.4-1.6,7.2L355.9,102.6z M364.9,101.8c-0.3-2.6-1.4-5.6-1.5-5.9l1.2-0.4
				c0.4,1,1.4,4,1.7,5.9L364.9,101.8z M373.6,92.3l-0.4-1.5l2.9,0.1c1.1,0,2,0.1,2.1-7.4h-5.4c-0.6,4.6-2.3,7.2-6,9.5l-0.9-1.1
				c1.6-0.9,4.8-2.9,5.5-8.3h-4.5v-1.3h12.8c0,2.2-0.1,6.7-0.7,8.2c-0.6,1.7-1.5,1.9-2.8,1.9L373.6,92.3L373.6,92.3z M379.1,105
				h-1.4v-1.4H369v1.4h-1.4V93.8h11.6V105H379.1z M377.7,95H369v7.3h8.7V95z"/>
			<path fill="#1B2B79" d="M379.3,89.9c4.4-1.5,9.2-5.4,11.3-8.8h1.5c2.6,3.6,6.8,7,11.5,8.6l-0.8,1.5c-4.6-1.8-8.8-5.2-11.4-8.7
				c-2.2,3.1-6.9,7.1-11.4,8.8L379.3,89.9z M387.3,94.1c0,5.2-1.3,8.7-6.4,10.9l-0.8-1.4c3.1-1.1,5.8-3.1,5.8-9.7v-4h1.5v4.2H387.3z
				 M397,105h-1.5V89.9h1.5V105z"/>
		</g>
	</g>
</g>
<g>
	<line fill="none" stroke="#1B2B79" stroke-width="4" stroke-miterlimit="10" x1="524.2" y1="128" x2="596.5" y2="173"/>
	<line fill="none" stroke="#00A0E9" stroke-width="7" stroke-miterlimit="10" x1="105" y1="129.5" x2="526" y2="129.5"/>
	<circle fill="#138BCE" cx="103.5" cy="129.2" r="6.8"/>
	<circle fill="none" stroke="#138BCE" stroke-width="4" stroke-miterlimit="10" cx="600.2" cy="175.1" r="5.1"/>
	<path opacity="0.54" fill="#FFFFFF" stroke="#11BAD1" stroke-width="5" stroke-miterlimit="10" enable-background="new    " d="
		M110.4,126.9"/>
</g>
</svg>
