<?xml version="1.0" encoding="utf-8"?>
<!-- Generator: Adobe Illustrator 19.1.0, SVG Export Plug-In . SVG Version: 6.00 Build 0)  -->
<svg version="1.0" id="レイヤー_1" xmlns="http://www.w3.org/2000/svg" xmlns:xlink="http://www.w3.org/1999/xlink" x="0px"
	 y="0px" viewBox="0 0 620 210" enable-background="new 0 0 620 210" xml:space="preserve">
<g>
	<g>
		<g>
			<g>
				<path fill="#1B2B79" stroke="#1B2B79" stroke-miterlimit="10" d="M223.1,90.7c5.5,5.5,8.2,12.1,8.2,19.8
					c0,7.7-2.7,14.4-8.2,19.8c-5.5,5.5-12.1,8.2-19.8,8.2c-7.7,0-14.4-2.7-19.8-8.2c-5.5-5.5-8.2-12.1-8.2-19.8
					c0-7.7,2.7-14.4,8.2-19.8c5.5-5.5,12.1-8.2,19.8-8.2C211,82.4,217.6,85.2,223.1,90.7z M203.3,85.6c-6.9,0-12.8,2.4-17.6,7.3
					c-4.9,4.9-7.3,10.7-7.3,17.6c0,6.9,2.4,12.8,7.3,17.6c4.9,4.9,10.7,7.3,17.6,7.3c6.9,0,12.8-2.4,17.6-7.3
					c4.9-4.9,7.3-10.8,7.3-17.6c0-6.9-2.4-12.8-7.3-17.6C216,88,210.1,85.6,203.3,85.6z"/>
				<path fill="#1B2B79" stroke="#1B2B79" stroke-miterlimit="10" d="M269.8,83.2h3.1v39.3c-0.6,4.2-2.3,7.7-5.2,10.6
					c-3.5,3.5-7.7,5.2-12.6,5.2c-4.9,0-9.2-1.7-12.6-5.2s-5.2-7.7-5.2-12.6V83.2h3.1v37.3c0,4.1,1.4,7.5,4.3,10.4
					c2.9,2.9,6.4,4.3,10.4,4.3c4.1,0,7.6-1.4,10.4-4.3s4.3-6.4,4.3-10.4V83.2z"/>
				<path fill="#1B2B79" stroke="#1B2B79" stroke-miterlimit="10" d="M295.8,118.9c-0.3,0-0.6,0-0.9,0h-9.3v19h-3.1V83.2h14.4
					c4.2,0.6,7.7,2.3,10.6,5.2c3.5,3.5,5.2,7.7,5.2,12.6c0,4.9-1.7,9.2-5.2,12.6c-2.4,2.4-5.2,4-8.3,4.8l12.6,19.4H308L295.8,118.9z
					 M285.6,86.3v29.5h9.3c4.1,0,7.5-1.4,10.4-4.3c2.9-2.9,4.3-6.4,4.3-10.4c0-4.1-1.4-7.6-4.3-10.4c-2.9-2.9-6.4-4.3-10.4-4.3
					H285.6z"/>
				<path fill="#1B2B79" stroke="#1B2B79" stroke-miterlimit="10" d="M322.1,118.9v19H319V83.2h14.4c4.2,0.6,7.7,2.3,10.6,5.2
					c3.5,3.5,5.2,7.7,5.2,12.6c0,4.9-1.7,9.2-5.2,12.6s-7.7,5.2-12.6,5.2H322.1z M322.1,86.3v29.5h9.3c4.1,0,7.5-1.4,10.4-4.3
					c2.9-2.9,4.3-6.4,4.3-10.4c0-4.1-1.4-7.6-4.3-10.4c-2.9-2.9-6.4-4.3-10.4-4.3H322.1z"/>
				<path fill="#1B2B79" stroke="#1B2B79" stroke-miterlimit="10" d="M354.1,137.9V83.2h3.1v51.6h21.2v3.1H354.1z"/>
				<path fill="#1B2B79" stroke="#1B2B79" stroke-miterlimit="10" d="M410.9,117H392l-7.6,21h-3.3l20.4-56l20.3,56h-3.2L410.9,117z
					 M409.8,113.9l-8.3-22.9l-8.3,22.9H409.8z"/>
				<path fill="#1B2B79" stroke="#1B2B79" stroke-miterlimit="10" d="M425.1,83.2h3.4l28.1,48.6V83.2h3.1v54.7h-3.1l-28.4-49.1v49.1
					h-3.1V83.2z"/>
			</g>
		</g>
		<g>
			<g>
				<path fill="#1B2B79" d="M220.5,172.5v7.5c0,1.7,1,3,2.5,3.5c1.8,0.6,3.7,0.7,4.5,0.7l12.3,0l-0.2,1.4l-12.3,0
					c-0.5,0-2.5-0.1-4.5-0.8c-1.7-0.6-2.5-1.7-2.8-2.2c-1.5,1.8-1.9,2.1-3.5,3.5l-0.9-1.2c1.1-0.8,2.5-2,3.5-3.1v-7.9h-3.2v-1.4
					H220.5z M220.2,167.4c-1.2-1.5-2.4-2.7-3.9-3.8l1-1c0.9,0.7,2.7,2.3,4,4L220.2,167.4z M229.4,162.7v4.2h-5.7v2
					c0,0.6,0,0.6,0.5,0.6h3.9c0.4,0,0.6,0,0.8-1.8l1.2,0.4c-0.2,2.4-0.8,2.6-2,2.6H224c-0.4,0-1.6,0-1.6-1.4v-3.6h5.7v-1.8h-6.2
					v-1.2H229.4z M239.6,178.7l-17.5,0v-1.2h4.6v-2.9h-4.1v-1.2h4.1v-1.9h1.4v1.9l5.1,0v-1.9h1.4v1.9h4.4v1.2h-4.4v2.9h5V178.7z
					 M222.9,181.8c1.4-0.4,3.4-1.4,4.8-2.4l1,1c-1.6,1.3-2.8,1.8-4.9,2.6L222.9,181.8z M233.2,174.6l-5.1,0v2.9l5.1,0V174.6z
					 M238.1,162.7v4.2l-5.7,0v2c0,0.6,0.3,0.6,0.6,0.6h4.1c0.8,0,0.9-0.2,1-1.9l1.2,0.4c-0.1,1.4-0.2,2.7-2,2.7h-4.6
					c-1.5,0-1.6-0.8-1.6-1.6v-3.4l5.7,0v-1.8l-6.1,0v-1.2L238.1,162.7z M233.7,179.4c1.8,1.3,3.4,2,5.5,2.5l-0.8,1.2
					c-1-0.3-3.6-1-5.7-2.7L233.7,179.4z"/>
				<path fill="#1B2B79" d="M262.3,181.3c-3.7-3.1-6.7-6.2-8.3-7.8c-4.1-4.2-4.7-4.8-6-4.8c-1,0-1.7,0.5-2.4,1.3
					c-1.1,1.2-4.7,5.8-5.3,6.6l-1.4-1.4c0.9-1,4.7-5.4,5.5-6.2c1-1,1.9-1.8,3.5-1.8c1.7,0,2.3,0.5,5.9,4c6.1,5.9,7.9,7.3,9.8,8.7
					L262.3,181.3z M257.7,168.8c-0.8-1.8-1.5-2.8-2.5-4l1.3-0.7c1.5,1.7,2.2,3.2,2.5,3.9L257.7,168.8z M260.7,167.4
					c-0.9-2-1.8-3.1-2.4-3.7l1.2-0.7c1,1.1,1.7,2.1,2.5,3.6L260.7,167.4z"/>
				<path fill="#1B2B79" d="M280.1,163.2v1.4c-0.8,0.7-2.5,2.1-3.5,3c-3.2,2.9-3.6,3.3-4.7,4.1c1.4-0.6,3.1-1.3,5.6-1.3
					c5,0,7.1,3.5,7.1,6.9c0,1.2-0.3,7.9-9.7,7.9c-2.9,0-4.2-0.4-5.2-1.1c-1-0.6-1.8-1.7-1.8-3.2c0-2.5,2.4-3.9,4.7-3.9
					c3.5,0,5.2,2.8,5.2,4.9c0,0.8-0.2,1.3-0.5,1.9c4-0.8,5.8-3.5,5.8-6.4c0-3.7-2.5-5.6-5.9-5.6c-2.9,0-5.7,1.2-7.5,2.6
					c-0.9,0.7-3.9,3.8-4.9,4.9l-1.4-1.1c1.2-1,6.4-6.1,7.5-7.1c1.1-1,6-5.6,7-6.5l-12.2,0.1v-1.5H280.1z M276.2,182
					c0-1.6-1.2-3.7-3.7-3.7c-1.7,0-3.1,1-3.1,2.7c0,2.9,4.8,3,6.3,2.9C275.9,183.4,276.2,182.9,276.2,182z"/>
				<path fill="#1B2B79" d="M288.7,177.2c-0.1,2.9,0.2,5.4,6.2,5.4c2.5,0,6.1-0.1,6.1-4.3c0-0.9-0.1-2.9-1.9-3.6
					c-0.3-0.1-1.6-0.7-3.1-0.7h-2.8v-1.5h2.9c1.5,0,4.7,0,4.7-3.8c0-3.2-2.2-4-5.6-4c-3.8,0-6,0.8-6,4.6h-1.8
					c0.3-5.1,3.4-6.1,7.7-6.1c1.8,0,7.4,0,7.4,5.4c0,3.8-2.3,4.4-3.2,4.6c0.9,0.3,3.4,1.1,3.4,5c0,5.8-5.5,5.9-7.5,5.9
					c-5.4,0-8.2-1.5-8.2-6.9H288.7z"/>
				<path fill="#1B2B79" d="M307.6,181.6c1.1,0.1,2.3,0.2,4,0.2c4,0,8.6-0.2,11.5-3.8c1-1.3,1.6-2.9,1.6-4.5c0-6.1-5.6-6.2-7-6.2
					c-3.5,0-10.1,1.5-13.6,2.4l-0.4-1.8c0.7-0.1,5.3-0.9,6.4-1.1c1.7-0.3,5.3-1,7.7-1c6.9,0,8.6,4.5,8.6,7.7c0,3.2-1.7,5.8-3.6,7.1
					c-3.1,2.2-6,2.8-12.2,2.8c-1.1,0-1.8,0-2.8-0.1L307.6,181.6z"/>
				<path fill="#1B2B79" d="M338,183.5c3.1-0.3,10.5-1,10.5-9.3c0-2.2-0.7-9-9.2-9c-0.5,5.6-1.2,10.7-3.6,14.6
					c-1.6,2.6-3.2,3.1-4.2,3.1c-2.5,0-4.6-3.1-4.6-7.3c0-6.7,4.6-11.9,12.4-11.9c8.1,0,10.8,5.5,10.8,10.3c0,9.8-8.5,10.7-11.6,11
					L338,183.5z M328.4,175.6c0,2.2,0.8,5.7,3,5.7c1,0,1.9-0.7,2.9-2.3c2.4-3.9,3-9.6,3.3-13.7C330.9,166,328.4,171,328.4,175.6z"/>
				<path fill="#1B2B79" d="M354,183.5c14.5-1.8,15.8-13.4,16.2-16.7h-18.7v-1.5h17.8c-0.1-0.2-0.1-0.3-0.1-0.6
					c0-1.6,1.3-2.7,2.7-2.7c1.5,0,2.7,1.2,2.7,2.7c0,1.4-1.1,2.7-2.8,2.7c-0.7,4.7-2.4,15.2-17.2,17.7L354,183.5z M370.3,164.7
					c0,0.9,0.7,1.6,1.6,1.6c0.9,0,1.6-0.7,1.6-1.6c0-0.9-0.7-1.6-1.6-1.6C371,163.2,370.3,163.8,370.3,164.7z"/>
				<path fill="#1B2B79" d="M395.5,170c-1.3,11.3-7.9,14.1-16.8,15.1l-0.4-1.6c7.5-0.7,14-2.6,15.5-12l-19.2,0V170L395.5,170z
					 M394,163.7v1.5l-17.4,0v-1.5L394,163.7z"/>
				<path fill="#1B2B79" d="M406.6,169.9c-2.3-1.6-5.7-3-8.2-3.8l0.9-1.5c2,0.6,5.5,1.9,8.2,3.7L406.6,169.9z M398.7,182.7
					c7.7-0.2,16.1-4.2,19.9-16.1l1.5,0.6c-1,2.7-3,8.3-8.2,12.5c-3.6,2.9-8.1,4.5-12.7,4.8L398.7,182.7z"/>
			</g>
		</g>
	</g>
	<g>
		<rect x="502.5" y="40.5" fill="none" stroke="#00A0E9" stroke-width="3" stroke-miterlimit="10" width="10" height="163"/>
	</g>
	<path opacity="0.49" fill="#0A5DC1" d="M539.7,107.8c-19.3,0-43-3.5-65.3-16.4c-45-26-58.6-71.6-59.1-73.5l-2.9-10.1L432.5,2
		l2.9,10.1c0.2,0.7,12.2,39.6,49.5,61.1c40.4,23.3,88.9,9.4,89.4,9.2l10-3l6,20.1l-10,3C579,102.9,562.3,107.8,539.7,107.8z"/>
</g>
</svg>
