<?xml version="1.0" encoding="utf-8"?>
<!-- Generator: Adobe Illustrator 19.1.0, SVG Export Plug-In . SVG Version: 6.00 Build 0)  -->
<svg version="1.0" id="レイヤー_1" xmlns="http://www.w3.org/2000/svg" xmlns:xlink="http://www.w3.org/1999/xlink" x="0px"
	 y="0px" viewBox="-589 48 620 216" enable-background="new -589 48 620 216" xml:space="preserve">
<g>
	<g>
		<g>
			<g>
				<path fill="#1B2B79" stroke="#1B2B79" stroke-miterlimit="10" d="M-375,152.4l2.3,2.1c-5.3,4.9-11.6,7.3-18.8,7.3
					c-7.7,0-14.4-2.7-19.8-8.2c-5.5-5.5-8.2-12.1-8.2-19.8c0-7.7,2.7-14.3,8.2-19.8c5.5-5.5,12.1-8.2,19.8-8.2
					c7.2,0,13.5,2.4,18.8,7.3l-2.3,2.1c-4.7-4.2-10.2-6.3-16.5-6.3c-6.9,0-12.7,2.4-17.6,7.3s-7.3,10.7-7.3,17.6
					c0,6.9,2.4,12.7,7.3,17.6s10.7,7.3,17.6,7.3C-385.2,158.6-379.7,156.6-375,152.4z"/>
				<path fill="#1B2B79" stroke="#1B2B79" stroke-miterlimit="10" d="M-320.6,113.8c5.5,5.5,8.2,12.1,8.2,19.8
					c0,7.7-2.7,14.4-8.2,19.8c-5.5,5.5-12.1,8.2-19.8,8.2c-7.7,0-14.4-2.7-19.8-8.2c-5.5-5.5-8.2-12.1-8.2-19.8
					c0-7.7,2.7-14.4,8.2-19.8c5.5-5.5,12.1-8.2,19.8-8.2C-332.7,105.6-326.1,108.4-320.6,113.8z M-340.5,108.8
					c-6.9,0-12.8,2.4-17.6,7.3c-4.9,4.9-7.3,10.7-7.3,17.6c0,6.9,2.4,12.8,7.3,17.6c4.9,4.9,10.7,7.3,17.6,7.3
					c6.9,0,12.8-2.4,17.6-7.3c4.9-4.9,7.3-10.8,7.3-17.6c0-6.9-2.4-12.8-7.3-17.6C-327.7,111.2-333.6,108.8-340.5,108.8z"/>
				<path fill="#1B2B79" stroke="#1B2B79" stroke-miterlimit="10" d="M-305.1,106.4h3.4l28.1,48.6v-48.6h3.1v54.7h-3.1L-302,112
					v49.1h-3.1V106.4z"/>
				<path fill="#1B2B79" stroke="#1B2B79" stroke-miterlimit="10" d="M-247.5,109.5v51.6h-3.1v-51.6h-13.8v-3.1h30.8v3.1H-247.5z"/>
				<path fill="#1B2B79" stroke="#1B2B79" stroke-miterlimit="10" d="M-206.7,140.1h-18.9l-7.6,21h-3.3l20.4-56l20.3,56h-3.2
					L-206.7,140.1z M-207.8,137.1l-8.3-22.9l-8.3,22.9H-207.8z"/>
				<path fill="#1B2B79" stroke="#1B2B79" stroke-miterlimit="10" d="M-150.2,152.4l2.3,2.1c-5.3,4.9-11.6,7.3-18.8,7.3
					c-7.7,0-14.4-2.7-19.8-8.2c-5.5-5.5-8.2-12.1-8.2-19.8c0-7.7,2.7-14.3,8.2-19.8c5.5-5.5,12.1-8.2,19.8-8.2
					c7.2,0,13.5,2.4,18.8,7.3l-2.3,2.1c-4.7-4.2-10.2-6.3-16.5-6.3c-6.9,0-12.7,2.4-17.6,7.3s-7.3,10.7-7.3,17.6
					c0,6.9,2.4,12.7,7.3,17.6s10.7,7.3,17.6,7.3C-160.4,158.6-154.9,156.6-150.2,152.4z"/>
				<path fill="#1B2B79" stroke="#1B2B79" stroke-miterlimit="10" d="M-128,109.5v51.6h-3.1v-51.6h-13.8v-3.1h30.8v3.1H-128z"/>
			</g>
		</g>
		<g>
			<g>
				<path fill="#1B2B79" d="M-377.5,185.9h1.6v3.7h7v1.5h-7v4.2c0.9-0.2,2.2-0.5,4.4-0.5c1.4,0,4.3,0.2,6.3,1.6
					c2.1,1.5,2.7,3.6,2.7,5.4c0,3.2-2.2,4.7-3.3,5.3c-1.8,0.9-3.5,1.2-7.6,1.2l-0.2-1.5c4.1,0,5.5-0.2,7-1c1.1-0.6,2.3-1.9,2.3-4
					c0-1.6-0.8-3.6-2.8-4.7c-1-0.5-2.7-0.9-4.4-0.9c-2.3,0-3.7,0.3-4.4,0.5v8.9c0,1.2-0.1,2.2-2.4,2.2c-3.3,0-5.7-1.8-5.7-5.1
					c0-3.6,3-5.7,6.6-7v-4.5h-6.3v-1.5h6.3V185.9z M-377.5,197.1c-3,1.1-5.1,3-5.1,5.5c0,1.8,1.2,3.7,4.2,3.7c0.8,0,0.9-0.2,0.9-0.7
					V197.1z M-366.8,186.1c1.7,1.4,4,3.9,5.5,7.2l-1.5,1c-1.6-3.4-3.1-5.3-5.4-7.3L-366.8,186.1z"/>
				<path fill="#1B2B79" d="M-351,186.4v8.7l-7.9,0v14.1h-1.4v-22.8L-351,186.4z M-352.5,187.5l-6.5,0v2.6l6.5,0V187.5z
					 M-352.5,191.2l-6.5,0v2.6l6.5,0V191.2z M-344,205.5l-11.3,0v-8l11.3,0V205.5z M-345.5,198.7l-8.5,0v5.6l8.5,0V198.7z
					 M-339,207.3c0,0.9,0,1.8-1.6,1.8h-4.1l-0.2-1.5l3.5,0.1c0.9,0,0.9-0.3,0.9-0.9V195h-7.8v-8.7h9.2V207.3z M-340.4,187.5h-6.4
					v2.6h6.4V187.5z M-340.4,191.2h-6.4v2.6h6.4V191.2z"/>
				<path fill="#1B2B79" d="M-335,187.1c-0.2,1.1-0.5,3.6-0.5,7.4c0,4.9,0.4,11.5,4,11.5c1.1,0,1.8-0.6,2.5-1.5
					c0.6-0.7,1.7-2.3,2.7-5l1.3,0.7c-1.5,3.9-3.1,5.7-3.7,6.3c-0.4,0.4-1.4,1.2-2.9,1.2c-4.3,0-5.4-5.8-5.4-13.4
					c0-3,0.2-5.7,0.4-7.4L-335,187.1z M-316.7,205c0.1-0.8,0.1-1.7,0.1-3c0-8.6-3.2-11.6-5.1-13.2l1.1-1c3.5,2.7,5.7,6.7,5.7,14.8
					c0,0.9,0,1.6-0.1,2.4L-316.7,205z"/>
				<path fill="#1B2B79" d="M-315.2,194c5.7-2.1,9.5-5.7,11.3-8.7h1.6c3.7,5.1,8.1,7.3,11.5,8.7l-0.7,1.5c-3.6-1.4-8.4-4.7-11.5-8.9
					c-2.7,3.7-6.6,6.7-11.5,8.9L-315.2,194z M-294.1,197.8v11.3h-1.5v-1.4l-14.6,0v1.4h-1.5v-11.3L-294.1,197.8z M-295.6,199.1
					l-14.6,0v7.4l14.6,0V199.1z M-296.7,194.6l-12.5,0v-1.3l12.5,0V194.6z"/>
				<path fill="#1B2B79" d="M-280.8,205.9c2.7,0.1,10.8,0.4,10.8-7.6c0-2-0.7-6.6-6.1-6.6c-1.3,0-4.1,0.1-8.6,4.4l-0.1,12.1h-1.5
					l0.1-10.2c-1.5,3-2.9,4.6-4,5.7l-0.9-1.5c3.4-3.3,4.7-6.8,4.9-7.4l0-3h-4.3v-1.5h4.3l0-4.3h1.5l0,4.3h0.9v0.9
					c-0.3,0.7-1,2.6-1,3.3c2.1-1.9,4.7-4.2,9-4.2c5,0,7.3,4.2,7.3,8c0,6.7-5.1,9.5-12.3,9.2L-280.8,205.9z"/>
				<path fill="#1B2B79" d="M-249.4,185.8c0,0.9,0,1.4,0,5.8l5,0v1.5l-5,0c0,0.8,0.1,4.3,0.1,5c0,2.3-0.3,3.8-3.6,3.8
					c-1.7,0-2.7-0.2-3.5-0.4l0.1-1.5c1.5,0.3,2,0.4,3.2,0.4c1.6,0,2.1-0.1,2.1-2.7c0-1.5,0-3.2,0-4.7l-10.8,0.1v8.5
					c0,4.8,2.8,4.8,7.2,4.8c3.9,0,5.6-0.1,7.6-0.3l0.1,1.5c-3.8,0.2-4.2,0.2-7.7,0.2c-5,0-8.7-0.1-8.7-6.9v-7.8h-4.4v-1.5l4.4,0
					v-5.6h1.6v5.6l10.7-0.1c0-0.9-0.1-5-0.1-5.8H-249.4z"/>
				<path fill="#1B2B79" d="M-222.4,187.8c-0.4,5.2-1.7,17.3-16.9,20.2l-0.6-1.5c13.7-2.7,15.2-12,15.6-17.2h-18.5v-1.5H-222.4z"/>
				<path fill="#1B2B79" d="M-218.6,205.8c4.7-2.1,8.6-6.5,11-10.1H-218v-1.3h10.6v-3.9l1.4,0v3.9h5.4v1.3h-5.4V206
					c0,2.1-0.8,2.7-3,2.7c-0.9,0-2-0.1-2.9-0.2l-0.1-1.5c0.3,0.1,0.5,0.1,1.7,0.2c0.4,0.1,0.9,0.1,1.4,0.1c1.4,0,1.4-0.1,1.4-1.5
					v-8.2c-3.9,5.2-7.5,7.7-10.2,9.3L-218.6,205.8z"/>
				<path fill="#1B2B79" d="M-174.3,196.4v1.7h-23.1v-1.7H-174.3z"/>
				<path fill="#1B2B79" d="M-158.3,195.6c3.5,4.6,5.4,8.2,7,11.9l-1.6,0.7c-0.3-0.8-0.5-1.5-1-2.5c-9.3,1.2-16.3,1.6-19.7,1.7
					l-0.1-1.7c0.5,0,2.1-0.1,2.3-0.1c3-6.9,4.9-13.8,6.3-19.3l1.7,0.3c-1.2,4.7-4.1,13.8-6.4,18.9c5.9-0.2,12.6-0.7,15.2-1.1
					c-1.5-2.8-3.2-5.5-5.1-8.1L-158.3,195.6z"/>
			</g>
		</g>
	</g>
	<g>
		<path fill="#0A5DC1" stroke="#0A5DC1" stroke-width="3" stroke-miterlimit="10" d="M-401,51l6.7,6.8l-3.4,3.3
			c-13,12.7-23,27.5-30,44c-6.7,16-10.2,32.9-10.4,50.4c-0.2,17.4,2.9,34.4,9.2,50.6c6.6,16.7,16.3,31.8,28.9,44.7l3.3,3.4l-6.8,6.7
			l-3.3-3.4c-13.6-13.9-24-30-31-47.9c-6.8-17.3-10.1-35.5-9.9-54.2c0.2-18.7,4-36.8,11.1-53.9c7.4-17.7,18.2-33.6,32.1-47.2
			L-401,51z"/>
	</g>
</g>
</svg>
