<?xml version="1.0" encoding="utf-8"?>
<!-- Generator: Adobe Illustrator 19.1.0, SVG Export Plug-In . SVG Version: 6.00 Build 0)  -->
<svg version="1.0" id="レイヤー_1" xmlns="http://www.w3.org/2000/svg" xmlns:xlink="http://www.w3.org/1999/xlink" x="0px"
	 y="0px" viewBox="0 0 30 30" enable-background="new 0 0 30 30" xml:space="preserve">
<g>
	<polygon fill="#9D5025" points="4.4,6.1 3.2,6.7 3.2,23.3 4.4,23.9 9.2,15.4 	"/>
	<polygon fill="#F58536" points="7.2,23.3 4.4,23.9 4.4,6.1 7.2,6.7 	"/>
	<polygon fill="#9D5025" points="5.7,5.4 7.2,4.7 14.1,15.7 7.2,25.3 5.7,24.6 	"/>
	<polygon fill="#F58536" points="10.6,24.3 7.2,25.3 7.2,4.7 10.6,5.7 	"/>
	<polygon fill="#9D5025" points="8.8,3.9 10.6,3 20.7,17 10.6,27 8.8,26.1 	"/>
	<polygon fill="#F58536" points="15,25.4 10.6,27 10.6,3 15,4.6 	"/>
	<polygon fill="#9D5025" points="12.7,2 15,0.8 26,15.8 15,29.2 12.7,28 	"/>
	<polygon fill="#F58536" points="26.8,23.3 15,29.2 15,0.8 26.8,6.7 	"/>
</g>
</svg>
