<?xml version="1.0" encoding="utf-8"?>
<!-- Generator: Adobe Illustrator 19.1.0, SVG Export Plug-In . SVG Version: 6.00 Build 0)  -->
<svg version="1.0" id="レイヤー_1" xmlns="http://www.w3.org/2000/svg" xmlns:xlink="http://www.w3.org/1999/xlink" x="0px"
	 y="0px" viewBox="0 0 30 30" enable-background="new 0 0 30 30" xml:space="preserve">
<g>
	<polygon fill="#9D5025" points="4.4,6.1 3.2,6.7 3.2,23.3 4.4,23.9 9.1,15 	"/>
	<polygon fill="#F58536" points="7.2,23.3 4.4,23.9 4.4,6.1 7.2,6.7 	"/>
	<polygon fill="#9D5025" points="5.7,5.4 7.2,4.7 10.6,15 7.2,25.3 5.7,24.6 	"/>
	<polygon fill="#F58536" points="10.6,24.3 7.2,25.3 7.2,4.7 10.6,5.7 	"/>
	<polygon fill="#9D5025" points="8.8,3.9 10.6,3 21.9,15 10.6,27 8.8,26.1 	"/>
	<polygon fill="#F58536" points="22.8,22.5 10.6,27 10.6,3 22.8,7.5 	"/>
	<polygon fill="#6B3A19" points="21.3,12.8 19,12.9 12.7,12.4 15,0.8 	"/>
	<polygon fill="#9D5025" points="15,12.1 15,0.8 12.7,2 12.7,12.4 	"/>
	<polygon fill="#F58536" points="21.3,12.8 21.3,3.9 15,0.8 15,12.1 	"/>
	<polygon fill="#FBBF93" points="21.3,17.2 19.1,17 12.7,17.6 15,29.2 	"/>
	<polygon fill="#9D5025" points="12.7,17.6 12.7,28 15,29.2 15,17.8 	"/>
	<polygon fill="#F58536" points="15,17.8 15,29.2 21.3,26.1 21.3,17.2 	"/>
	<polygon fill="#FBBF93" points="26.8,16.6 25.4,16.6 21.9,16.9 23.4,25 	"/>
	<polygon fill="#F58536" points="23.4,16.9 23.4,25 26.8,23.3 26.8,16.6 	"/>
	<polygon fill="#6B3A19" points="26.8,13.3 25.4,13.4 21.9,13.1 23.4,5 	"/>
	<polygon fill="#F58536" points="26.8,13.3 26.8,6.7 23.4,5 23.4,13 	"/>
	<polygon fill="#9D5025" points="21.9,24.6 23.4,25 23.4,16.9 21.9,16.9 	"/>
	<polygon fill="#9D5025" points="21.9,5.4 23.4,5 23.4,13 21.9,13.1 	"/>
</g>
</svg>
