<?xml version="1.0" encoding="utf-8"?>
<!-- Generator: Adobe Illustrator 19.1.0, SVG Export Plug-In . SVG Version: 6.00 Build 0)  -->
<svg version="1.0" id="レイヤー_1" xmlns="http://www.w3.org/2000/svg" xmlns:xlink="http://www.w3.org/1999/xlink" x="0px"
	 y="0px" viewBox="0 0 30 30" enable-background="new 0 0 30 30" xml:space="preserve">
<g>
	<polygon fill="#3C4929" points="10.8,11.3 9.2,9.9 8.5,11.3 9.7,11.5 	"/>
	<polygon fill="#3C4929" points="9.5,13.1 15,13.4 20.5,13.1 15,10 	"/>
	<polygon fill="#3C4929" points="18.7,11.3 20.1,11.5 21.5,11.3 20.2,8.6 	"/>
	<polygon fill="#B7CA9D" points="13.2,21.2 16.3,20.5 19.4,21.2 16.2,24.2 	"/>
	<polygon fill="#759C3E" points="13.5,11 11.9,10.7 10.2,8.6 11.9,5.2 13.5,5.7 	"/>
	<polygon fill="#4B612C" points="9.5,7.2 9.5,5.3 15,2.5 16.5,5.6 13.5,6.8 11.9,6.3 11.9,10.6 15,10 16.6,17.3 15,27.5 13.4,26.6 
		13.4,24.3 11.9,23.7 11.9,12.8 9.5,13.1 9.5,11.1 8.5,11.3 8.5,7.6 	"/>
	<polygon fill="#759C3E" points="17.8,4 19,4.5 20.5,5.3 20.5,7.2 21.5,7.6 21.5,11.3 20.5,11.1 20.5,13.1 19.2,12.9 18.1,12.8 
		18.1,15 18.1,15 18.1,15 20.5,15 20.5,17 19.4,17.1 19.4,19.1 16.6,19.7 16.6,22 19.4,21.2 19.4,23.2 16.6,24.3 16.6,26.6 15,27.5 
		15,20 15,17.5 15,15 15,15 15,12.5 15,10 16.5,10.3 16.5,6.8 15,6.3 15,5 15,2.5 	"/>
	<polygon fill="#3C4929" points="16.6,5.7 15,5 11.9,6.3 13.5,6.8 	"/>
	<polygon fill="#4B612C" points="16.5,6.3 18.1,6.3 18.1,10.6 16.5,10.3 	"/>
	<polygon fill="#3C4929" points="11.9,6.3 15,5 15.6,5.3 16.6,5.7 18.1,6.3 16.5,6.8 15,6.3 13.5,6.8 	"/>
</g>
</svg>
