<?xml version="1.0" encoding="utf-8"?>
<!-- Generator: Adobe Illustrator 19.1.0, SVG Export Plug-In . SVG Version: 6.00 Build 0)  -->
<svg version="1.0" id="レイヤー_1" xmlns="http://www.w3.org/2000/svg" xmlns:xlink="http://www.w3.org/1999/xlink" x="0px"
	 y="0px" viewBox="0 0 30 30" enable-background="new 0 0 30 30" xml:space="preserve">
<g>
	<polygon fill="#8C3123" points="5.1,5.7 3.3,6.7 3.3,23.3 5.1,24.2 9.8,15 	"/>
	<polygon fill="#E05243" points="15,21.8 5.1,24.2 5.1,5.7 15,8.1 19.7,15 	"/>
	<polygon fill="#8C3123" points="15,21.8 24.9,24.2 26.6,15.2 24.9,5.7 15,8.1 	"/>
	<polygon fill="#E05243" points="24.9,5.7 26.7,6.7 26.7,23.3 24.9,24.2 	"/>
	<polygon fill="#8C3123" points="10.7,18 15,18.6 18.4,15 15,11.4 10.7,12 	"/>
	<polygon fill="#5E1F18" points="19.3,9 15,9.8 10.7,9 15,0.8 	"/>
	<polygon fill="#F2B0A9" points="19.3,21 15,20.2 10.7,21 15,29.2 	"/>
	<polygon fill="#E05243" points="19.3,9 15,8 15,0.8 19.3,2.9 	"/>
	<polygon fill="#8C3123" points="10.7,9 15,8 15,0.8 10.7,2.9 	"/>
	<polygon fill="#E05243" points="15,29.2 19.3,27.1 19.3,21 15,22 	"/>
	<polygon fill="#8C3123" points="15,29.2 10.7,27.1 10.7,21 15,22 	"/>
	<polygon fill="#E05243" points="19.3,18 15,18.6 15,11.4 19.3,12 	"/>
</g>
</svg>
