<?xml version="1.0" encoding="utf-8"?>
<!-- Generator: Adobe Illustrator 19.1.0, SVG Export Plug-In . SVG Version: 6.00 Build 0)  -->
<svg version="1.0" id="レイヤー_1" xmlns="http://www.w3.org/2000/svg" xmlns:xlink="http://www.w3.org/1999/xlink" x="0px"
	 y="0px" viewBox="0 0 30 30" enable-background="new 0 0 30 30" xml:space="preserve">
<g>
	<polygon fill="#9D5025" points="18.1,21.8 18.1,18.1 16.6,16.6 15.6,15.6 16.6,14.6 18.1,13 18.1,9.4 18.1,9.3 19.9,9.3 19.9,8.2 
		15,4.8 10.1,8.2 10.1,9.3 11.9,9.3 11.9,9.4 11.9,13 13.4,14.6 14.4,15.6 13.4,16.6 11.9,18.1 11.9,21.8 10.1,20.7 10.1,21.8 
		15,26.8 19.9,21.8 19.9,20.7 	"/>
	<polygon fill="#9D5025" points="12.1,15.6 12.1,14.4 7.2,13 2.7,13 2.7,18.2 7.2,18.2 7.2,20.5 	"/>
	<polygon fill="#9D5025" points="27.3,13 22.8,13 17.9,14.4 17.9,15.6 22.8,20.5 22.8,18.2 27.3,18.2 	"/>
	<polygon fill="#F58435" points="18.1,20.6 18.1,17 16.6,15.4 15.6,14.4 16.6,13.4 18.1,11.9 18.1,8.2 18.1,8.2 19.9,8.2 15,3.2 
		10.1,8.2 11.9,8.2 11.9,8.2 11.9,11.9 13.4,13.4 14.4,14.4 13.4,15.4 11.9,17 11.9,20.6 11.9,20.7 10.1,20.7 15,25.6 19.9,20.7 
		18.1,20.7 	"/>
	<polygon fill="#F58435" points="12.1,14.4 7.2,9.5 7.2,11.8 2.7,11.8 2.7,17 7.2,17 7.2,19.3 	"/>
	<polygon fill="#F58435" points="27.3,11.8 22.8,11.8 22.8,9.5 17.9,14.4 22.8,19.3 22.8,17 27.3,17 	"/>
</g>
</svg>
