<?xml version="1.0" encoding="utf-8"?>
<!-- Generator: Adobe Illustrator 19.2.1, SVG Export Plug-In . SVG Version: 6.00 Build 0)  -->
<svg version="1.1" id="レイヤー_1" xmlns="http://www.w3.org/2000/svg" xmlns:xlink="http://www.w3.org/1999/xlink" x="0px"
	 y="0px" viewBox="0 0 920 320" style="enable-background:new 0 0 920 320;" xml:space="preserve">
<style type="text/css">
	.st0{fill:#8C3123;}
	.st1{fill:#E05243;}
	.st2{fill:#5E1F18;}
	.st3{fill:#F2B0A9;}
	.st4{fill:#1B2B79;}
	.st5{fill:#3A3A3A;}
	.st6{fill:none;stroke:#00C1B7;stroke-miterlimit:10;}
	.st7{fill:#00C1B7;}
	.st8{fill:#FFFFFF;}
</style>
<g>
	<g>
		<g>
			<polygon class="st0" points="73.7,96 71.2,97.2 71.2,119.1 73.7,120.3 79.8,108.1 			"/>
			<polygon class="st1" points="86.7,117.2 73.7,120.3 73.7,96 86.7,99.1 92.8,108.2 			"/>
			<polygon class="st0" points="86.7,117.2 99.6,120.3 101.9,108.4 99.6,96 86.7,99.1 			"/>
			<polygon class="st1" points="99.6,96 102.1,97.2 102.1,119.1 99.6,120.3 			"/>
			<polygon class="st0" points="81,112.2 86.7,112.9 91.1,108.2 86.7,103.5 81,104.2 			"/>
			<polygon class="st2" points="92.3,100.3 86.7,101.3 81,100.3 86.7,89.5 			"/>
			<polygon class="st3" points="92.3,116 86.7,115 81,116 86.7,126.8 			"/>
			<polygon class="st1" points="92.3,100.3 86.7,98.9 86.7,89.5 92.3,92.3 			"/>
			<polygon class="st0" points="81,100.3 86.7,98.9 86.7,89.5 81,92.3 			"/>
			<polygon class="st1" points="86.7,126.8 92.3,124 92.3,116 86.7,117.4 			"/>
			<polygon class="st0" points="86.7,126.8 81,124 81,116 86.7,117.4 			"/>
			<polygon class="st1" points="92.3,112.2 86.7,112.9 86.7,103.5 92.3,104.2 			"/>
		</g>
		<g>
			<g>
				<path class="st4" d="M122.4,99.1l7.7,21.1h-2.9l-2.7-7.5h-5.6l-2.7,7.5h-2.9l7.7-21.1H122.4z M123.5,110l-1.8-4.9l-1.8,4.9
					H123.5z"/>
				<path class="st4" d="M141.9,116.2V99.1h2.7v17.2c0.1,0.1,0.2,0.3,0.4,0.6c0.6,0.5,1.2,0.8,2,0.8s1.5-0.3,2-0.8
					c0.6-0.6,0.9-1.2,0.9-2V99.1h2.7v15.8c0,1.5-0.6,2.8-1.6,3.8c-1.1,1.1-2.4,1.7-4,1.7c-1.5,0-2.8-0.5-3.8-1.6
					c-1,1.1-2.3,1.6-3.8,1.6c-1.6,0-2.9-0.6-4-1.7s-1.6-2.3-1.6-3.8V99.1h2.7v15.7c0,0.8,0.3,1.5,0.9,2c0.6,0.6,1.2,0.8,2,0.8
					s1.5-0.3,2-0.8C141.6,116.6,141.8,116.4,141.9,116.2z"/>
				<path class="st4" d="M163,109.4c-1.5-0.5-2.7-1.2-3.6-2.1c-0.9-0.9-1.4-2.1-1.4-3.4s0.5-2.5,1.4-3.5c1-1,2.1-1.5,3.5-1.5
					s2.5,0.5,3.5,1.4c0.5,0.5,1,1.4,1.4,2.5l-2.5,1c-0.3-0.8-0.6-1.3-0.8-1.6c-0.4-0.4-0.9-0.6-1.6-0.6c-0.6,0-1.1,0.2-1.6,0.6
					c-0.4,0.4-0.6,0.9-0.6,1.6c0,0.6,0.2,1.1,0.6,1.6c0.5,0.5,1.2,0.9,2,1.3c1.7,0.5,3.1,1.4,4.2,2.5c1.3,1.3,1.9,2.8,1.9,4.6
					c0,1.8-0.6,3.4-1.9,4.7c-1.3,1.3-2.8,1.9-4.6,1.9s-3.4-0.6-4.7-1.9c-1-1-1.7-2.4-2-4.3l2.6-1c0.2,1.6,0.6,2.7,1.2,3.3
					c0.8,0.8,1.7,1.1,2.7,1.1s2-0.4,2.7-1.1s1.1-1.7,1.1-2.7c0-1.1-0.4-2-1.1-2.7C165,110.4,164.1,109.8,163,109.4z"/>
				<path class="st4" d="M189.6,109.4c-1.5-0.5-2.7-1.2-3.6-2.1c-0.9-0.9-1.4-2.1-1.4-3.4s0.5-2.5,1.4-3.5c1-1,2.1-1.5,3.5-1.5
					s2.5,0.5,3.5,1.4c0.5,0.5,1,1.4,1.4,2.5l-2.5,1c-0.3-0.8-0.6-1.3-0.8-1.6c-0.4-0.4-0.9-0.6-1.6-0.6c-0.6,0-1.1,0.2-1.6,0.6
					c-0.4,0.4-0.6,0.9-0.6,1.6c0,0.6,0.2,1.1,0.6,1.6c0.5,0.5,1.2,0.9,2,1.3c1.7,0.5,3.1,1.4,4.2,2.5c1.3,1.3,1.9,2.8,1.9,4.6
					c0,1.8-0.6,3.4-1.9,4.7c-1.3,1.3-2.8,1.9-4.6,1.9s-3.4-0.6-4.7-1.9c-1-1-1.7-2.4-2-4.3l2.6-1c0.2,1.6,0.6,2.7,1.2,3.3
					c0.8,0.8,1.7,1.1,2.7,1.1s2-0.4,2.7-1.1s1.1-1.7,1.1-2.7c0-1.1-0.4-2-1.1-2.7C191.5,110.4,190.6,109.8,189.6,109.4z"/>
				<path class="st4" d="M206,109.3h-1.6v-2.7c1.2,0,2-0.1,2.4-0.2s0.8-0.5,1.2-0.9c0.4-0.5,0.7-1,0.7-1.6s-0.2-1.1-0.6-1.5
					c-0.4-0.4-0.9-0.6-1.5-0.6s-1.1,0.2-1.5,0.6c-0.2,0.2-0.5,0.8-0.8,1.6l-2.5-1c0.4-1.2,0.8-2,1.4-2.6c1-1,2.1-1.5,3.5-1.5
					s2.6,0.5,3.5,1.5c1,1,1.4,2.1,1.4,3.5s-0.8,2.7-2.4,4c0.8,0.1,1.6,0.5,2.5,1.3c1.3,1.4,1.9,2.9,1.9,4.7c0,1.8-0.6,3.4-1.9,4.7
					c-1.3,1.3-2.8,1.9-4.7,1.9c-1.8,0-3.4-0.7-4.7-2c-1-1-1.7-2.5-2-4.3l2.7-1c0.2,1.6,0.6,2.7,1.2,3.3c0.8,0.7,1.7,1.1,2.7,1.1
					c1.1,0,2-0.4,2.7-1.1c0.8-0.7,1.1-1.7,1.1-2.7c0-1.1-0.4-2-1.1-2.8C208.7,110.2,207.6,109.6,206,109.3z"/>
			</g>
		</g>
	</g>
	<g>
		<g>
			<path class="st5" d="M67.1,190c0,1.9,0.5,3.2,4.5,3.2c3.6,0,4.7-1.3,4.6-6.9c-0.9,1.4-2.1,2.1-4.5,2.1c-2.1,0-5.8-0.2-5.8-4.6
				c0-4.7,4.2-4.8,5.7-4.8c5,0,5.9,2.2,5.9,7.8c0,5.9-1.7,7.5-5.9,7.5c-4.4,0-5.7-1.4-5.8-4.3H67.1z M67.1,183.8
				c0,2.5,1.4,3.4,4.6,3.4c3.4,0,4.3-1.3,4.3-3.5c0-2.4-1-3.6-4.4-3.6C69.2,180.1,67.1,180.7,67.1,183.8z"/>
			<path class="st5" d="M79.6,190c0,1.9,0.5,3.2,4.5,3.2c3.6,0,4.7-1.3,4.6-6.9c-0.9,1.4-2.1,2.1-4.5,2.1c-2.1,0-5.8-0.2-5.8-4.6
				c0-4.7,4.2-4.8,5.7-4.8c5,0,5.9,2.2,5.9,7.8c0,5.9-1.7,7.5-5.9,7.5c-4.4,0-5.7-1.4-5.8-4.3H79.6z M79.7,183.8
				c0,2.5,1.4,3.4,4.6,3.4c3.4,0,4.3-1.3,4.3-3.5c0-2.4-1-3.6-4.4-3.6C81.7,180.1,79.7,180.7,79.7,183.8z"/>
			<path class="st5" d="M92.8,192.4v1.7h-1.6v-1.7H92.8z"/>
			<path class="st5" d="M95.1,190c0,1.9,0.5,3.2,4.5,3.2c3.6,0,4.7-1.3,4.6-6.9c-0.9,1.4-2.1,2.1-4.5,2.1c-2.1,0-5.8-0.2-5.8-4.6
				c0-4.7,4.2-4.8,5.7-4.8c5,0,5.9,2.2,5.9,7.8c0,5.9-1.7,7.5-5.9,7.5c-4.4,0-5.7-1.4-5.8-4.3H95.1z M95.2,183.8
				c0,2.5,1.4,3.4,4.6,3.4c3.4,0,4.3-1.3,4.3-3.5c0-2.4-1-3.6-4.4-3.6C97.2,180.1,95.2,180.7,95.2,183.8z"/>
			<path class="st5" d="M107.6,190c0,1.9,0.5,3.2,4.5,3.2c3.6,0,4.7-1.3,4.6-6.9c-0.9,1.4-2.1,2.1-4.5,2.1c-2.1,0-5.8-0.2-5.8-4.6
				c0-4.7,4.2-4.8,5.7-4.8c5,0,5.9,2.2,5.9,7.8c0,5.9-1.7,7.5-5.9,7.5c-4.4,0-5.7-1.4-5.8-4.3H107.6z M107.7,183.8
				c0,2.5,1.4,3.4,4.6,3.4c3.4,0,4.3-1.3,4.3-3.5c0-2.4-1-3.6-4.4-3.6C109.7,180.1,107.7,180.7,107.7,183.8z"/>
			<path class="st5" d="M120.2,190c0,1.9,0.5,3.2,4.5,3.2c3.6,0,4.7-1.3,4.6-6.9c-0.9,1.4-2.1,2.1-4.5,2.1c-2.1,0-5.8-0.2-5.8-4.6
				c0-4.7,4.2-4.8,5.7-4.8c5,0,5.9,2.2,5.9,7.8c0,5.9-1.7,7.5-5.9,7.5c-4.4,0-5.7-1.4-5.8-4.3H120.2z M120.2,183.8
				c0,2.5,1.4,3.4,4.6,3.4c3.4,0,4.3-1.3,4.3-3.5c0-2.4-1-3.6-4.4-3.6C122.3,180.1,120.2,180.7,120.2,183.8z"/>
			<path class="st5" d="M132.7,190c0,1.9,0.5,3.2,4.5,3.2c3.6,0,4.7-1.3,4.6-6.9c-0.9,1.4-2.1,2.1-4.5,2.1c-2.1,0-5.8-0.2-5.8-4.6
				c0-4.7,4.2-4.8,5.7-4.8c5,0,5.9,2.2,5.9,7.8c0,5.9-1.7,7.5-5.9,7.5c-4.4,0-5.7-1.4-5.8-4.3H132.7z M132.8,183.8
				c0,2.5,1.4,3.4,4.6,3.4c3.4,0,4.3-1.3,4.3-3.5c0-2.4-1-3.6-4.4-3.6C134.8,180.1,132.8,180.7,132.8,183.8z"/>
			<path class="st5" d="M145.2,190c0,1.9,0.5,3.2,4.5,3.2c3.6,0,4.7-1.3,4.6-6.9c-0.9,1.4-2.1,2.1-4.5,2.1c-2.1,0-5.8-0.2-5.8-4.6
				c0-4.7,4.2-4.8,5.7-4.8c5,0,5.9,2.2,5.9,7.8c0,5.9-1.7,7.5-5.9,7.5c-4.4,0-5.7-1.4-5.8-4.3H145.2z M145.3,183.8
				c0,2.5,1.4,3.4,4.6,3.4c3.4,0,4.3-1.3,4.3-3.5c0-2.4-1-3.6-4.4-3.6C147.3,180.1,145.3,180.7,145.3,183.8z"/>
			<path class="st5" d="M157.7,190c0,1.9,0.5,3.2,4.5,3.2c3.6,0,4.7-1.3,4.6-6.9c-0.9,1.4-2.1,2.1-4.5,2.1c-2.1,0-5.8-0.2-5.8-4.6
				c0-4.7,4.2-4.8,5.7-4.8c5,0,5.9,2.2,5.9,7.8c0,5.9-1.7,7.5-5.9,7.5c-4.4,0-5.7-1.4-5.8-4.3H157.7z M157.8,183.8
				c0,2.5,1.4,3.4,4.6,3.4c3.4,0,4.3-1.3,4.3-3.5c0-2.4-1-3.6-4.4-3.6C159.8,180.1,157.8,180.7,157.8,183.8z"/>
			<path class="st5" d="M170.3,190c0,1.9,0.5,3.2,4.5,3.2c3.6,0,4.7-1.3,4.6-6.9c-0.9,1.4-2.1,2.1-4.5,2.1c-2.1,0-5.8-0.2-5.8-4.6
				c0-4.7,4.2-4.8,5.7-4.8c5,0,5.9,2.2,5.9,7.8c0,5.9-1.7,7.5-5.9,7.5c-4.4,0-5.7-1.4-5.8-4.3H170.3z M170.3,183.8
				c0,2.5,1.4,3.4,4.6,3.4c3.4,0,4.3-1.3,4.3-3.5c0-2.4-1-3.6-4.4-3.6C172.3,180.1,170.3,180.7,170.3,183.8z"/>
			<path class="st5" d="M182.8,190c0,1.9,0.5,3.2,4.5,3.2c3.6,0,4.7-1.3,4.6-6.9c-0.9,1.4-2.1,2.1-4.5,2.1c-2.1,0-5.8-0.2-5.8-4.6
				c0-4.7,4.2-4.8,5.7-4.8c5,0,5.9,2.2,5.9,7.8c0,5.9-1.7,7.5-5.9,7.5c-4.4,0-5.7-1.4-5.8-4.3H182.8z M182.8,183.8
				c0,2.5,1.4,3.4,4.6,3.4c3.4,0,4.3-1.3,4.3-3.5c0-2.4-1-3.6-4.4-3.6C184.9,180.1,182.8,180.7,182.8,183.8z"/>
			<path class="st5" d="M195.3,190c0,1.9,0.5,3.2,4.5,3.2c3.6,0,4.7-1.3,4.6-6.9c-0.9,1.4-2.1,2.1-4.5,2.1c-2.1,0-5.8-0.2-5.8-4.6
				c0-4.7,4.2-4.8,5.7-4.8c5,0,5.9,2.2,5.9,7.8c0,5.9-1.7,7.5-5.9,7.5c-4.4,0-5.7-1.4-5.8-4.3H195.3z M195.4,183.8
				c0,2.5,1.4,3.4,4.6,3.4c3.4,0,4.3-1.3,4.3-3.5c0-2.4-1-3.6-4.4-3.6C197.4,180.1,195.4,180.7,195.4,183.8z"/>
			<path class="st5" d="M213.3,183.5c0,2.7-0.8,4.5-3.6,4.5c-2,0-3.8-0.6-3.8-4.5c0-3.6,1.4-4.5,3.7-4.5
				C211.7,179,213.3,179.8,213.3,183.5z M207,183.5c0,2.5,0.6,3.5,2.7,3.5c1.7,0,2.6-0.8,2.6-3.5c0-3-1-3.6-2.6-3.6
				C208,180,207,180.6,207,183.5z M219.5,179.1l-8.4,15h-1.2l8.5-15H219.5z M223.5,189.8c0,2.7-0.8,4.5-3.6,4.5
				c-2,0-3.8-0.6-3.8-4.5c0-3.6,1.5-4.5,3.7-4.5C221.9,185.3,223.5,186.1,223.5,189.8z M217.2,189.8c0,2.6,0.6,3.5,2.7,3.5
				c1.7,0,2.6-0.8,2.6-3.5c0-3-1-3.6-2.6-3.6C218.2,186.3,217.2,186.9,217.2,189.8z"/>
			<path class="st5" d="M231.4,193.8c2.2-0.2,7.6-0.7,7.6-6.8c0-1.6-0.5-6.6-6.7-6.6c-0.3,4.1-0.9,7.8-2.7,10.7
				c-1.2,1.9-2.4,2.3-3.1,2.3c-1.8,0-3.3-2.3-3.3-5.3c0-4.9,3.4-8.7,9-8.7c5.9,0,7.9,4,7.9,7.5c0,7.1-6.2,7.8-8.5,8L231.4,193.8z
				 M224.4,188c0,1.6,0.6,4.1,2.2,4.1c0.7,0,1.4-0.5,2.1-1.7c1.8-2.8,2.2-7,2.4-10C226.2,181,224.4,184.6,224.4,188z"/>
			<path class="st5" d="M134.5,220.3h-6.8v2.8h8.2v0.9h-17.4v-0.9h8.2v-2.8h-6.8v-1h6.8v-1.4h1v1.4h6.8L134.5,220.3L134.5,220.3z
				 M127,207.9v0.9h-3v1.9h2.6v3.8H124v2h3v0.9h-7.7V208L127,207.9L127,207.9z M123.1,208.8h-2.8v1.9h2.8V208.8z M125.7,211.5h-5.4
				v2.1h5.4V211.5z M123.1,214.4h-2.8v2h2.8V214.4z M135.5,217.9c-0.6-0.3-2.3-1.2-4-3c-1.1,1-2,1.7-3.6,2.5l-0.6-0.9
				c0.6-0.3,2.1-1,3.6-2.4c-1.6-2-2.1-3.9-2.3-4.7l0.9-0.2c0.3,1.2,0.9,2.6,2.1,4.2c1.2-1.3,2.1-2.9,2.5-4.6h-6.4v-0.9h7.4v0.8
				c-0.5,2.3-1.5,4-2.9,5.5c1.5,1.7,3,2.4,3.8,2.8L135.5,217.9z"/>
			<path class="st5" d="M143.8,213.8v-2.5h1.1v2.5h6.3v0.9h-6.3v3.9h8.2v1h-8.2v5h-1.1v-5h-8.2v-1h8.2v-3.9h-4.4
				c-0.7,1.2-1.4,2.1-2.3,2.9l-0.8-0.8c1.4-1.3,2.8-3.3,3.6-5.7l1,0.4c-0.2,0.6-0.3,1.1-1,2.3L143.8,213.8L143.8,213.8z
				 M143.8,209.2v-2h1.1v2h7.7v4.1h-1.1v-3.1h-14.3v3.1h-1v-4.1H143.8z"/>
			<path class="st5" d="M152.4,216c0.7-1.7,0.8-3.4,0.9-4.9l1,0.1c-0.1,2.2-0.4,3.6-0.9,5.2L152.4,216z M156.3,207.2v17.4h-1.1
				v-17.4H156.3z M157.9,213.9c-0.2-1.2-0.6-2.3-0.9-3.1l0.9-0.2c0.5,1.3,0.8,2.2,0.9,3L157.9,213.9z M164.3,211.6v-4.4h1.1v4.4h4.5
				v1h-4.5v4.4h4.1v0.9h-4.1v5h4.8v1h-11.7v-1h5.9v-5h-4.5V217h4.5v-4.4H161c-0.4,1-1,2.5-1.8,3.6l-0.8-0.7c1.7-2.5,2.4-5.5,2.5-7.4
				l1,0.2c-0.1,0.6-0.2,1.6-0.6,3.3L164.3,211.6L164.3,211.6z"/>
			<path class="st5" d="M179.4,221.4v1.7h-1.6v-1.7H179.4z M179.3,208.1l-0.2,11H178l-0.2-11H179.3z"/>
		</g>
	</g>
	<g>
		<line class="st6" x1="129" y1="153.5" x2="156" y2="153.5"/>
		<circle class="st7" cx="130.1" cy="153.6" r="1.6"/>
		<circle class="st7" cx="157.3" cy="153.6" r="1.6"/>
	</g>
</g>
<g>
	<g>
		<g>
			<path class="st4" d="M397.5,93.3l6.8,18.8h-2.6l-2.4-6.6h-5L392,112h-2.6l6.8-18.8h1.3V93.3z M398.5,103l-1.6-4.4l-1.6,4.4H398.5
				z"/>
			<path class="st4" d="M414.1,108.5V93.3h2.4v15.2c0.1,0.1,0.2,0.3,0.4,0.5c0.5,0.5,1.1,0.7,1.8,0.7s1.3-0.2,1.8-0.7
				s0.8-1.1,0.8-1.8V93.3h2.4v14c0,1.3-0.5,2.5-1.5,3.4c-1,1-2.2,1.5-3.5,1.5c-1.4,0-2.5-0.5-3.4-1.5c-0.9,1-2,1.5-3.4,1.5
				s-2.6-0.5-3.5-1.5c-1-0.9-1.4-2.1-1.5-3.4v-14h2.4v13.9c0,0.7,0.3,1.3,0.8,1.8s1.1,0.7,1.8,0.7c0.7,0,1.3-0.2,1.8-0.7
				C413.9,108.8,414,108.7,414.1,108.5z"/>
			<path class="st4" d="M432.2,102.4c-1.3-0.4-2.4-1.1-3.2-1.9s-1.2-1.8-1.2-3.1c0-1.2,0.4-2.2,1.3-3.1s1.9-1.3,3.1-1.3
				s2.2,0.4,3.1,1.3c0.5,0.5,0.9,1.2,1.2,2.2l-2.2,0.9c-0.3-0.7-0.5-1.2-0.7-1.4c-0.4-0.4-0.8-0.6-1.4-0.6c-0.5,0-1,0.2-1.4,0.6
				s-0.6,0.8-0.6,1.4s0.2,1,0.6,1.4s1,0.8,1.8,1.2c1.5,0.5,2.7,1.2,3.7,2.2c1.1,1.1,1.7,2.5,1.7,4.1s-0.6,3-1.7,4.1
				s-2.5,1.7-4.1,1.7s-3-0.6-4.1-1.7c-0.9-0.9-1.5-2.2-1.7-3.8l2.4-0.9c0.1,1.4,0.5,2.4,1.1,2.9c0.7,0.7,1.5,1,2.4,1s1.8-0.3,2.4-1
				s1-1.5,1-2.4s-0.3-1.8-1-2.4C433.9,103.3,433.1,102.8,432.2,102.4z"/>
			<path class="st4" d="M456.9,107.6l1.8,1.6c-2.2,2-4.6,3-7,3c-2.6,0-4.9-0.9-6.8-2.8s-2.8-4.1-2.8-6.8c0-2.6,0.9-4.9,2.8-6.8
				s4.1-2.8,6.8-2.8c2.5,0,4.8,1,7,3l-1.8,1.7c-1.7-1.5-3.4-2.2-5.2-2.2c-2,0-3.6,0.7-5,2.1s-2.1,3.1-2.1,5c0,2,0.7,3.7,2.1,5.1
				s3.1,2.1,5,2.1C453.4,109.8,455.2,109.1,456.9,107.6z"/>
			<path class="st4" d="M464.5,93.3V112h-2.4V93.3H464.5z"/>
			<path class="st4" d="M474.5,99c1.8,0,3.4,0.7,4.7,2s2,2.9,2,4.7s-0.7,3.4-2,4.7s-2.9,2-4.7,2c-1.8,0-3.4-0.7-4.7-2s-2-2.9-2-4.7
				s0.7-3.4,2-4.7S472.6,99,474.5,99z M471.5,102.7c-0.8,0.8-1.2,1.8-1.2,3s0.4,2.1,1.2,3s1.8,1.2,3,1.2s2.1-0.4,3-1.2
				s1.2-1.8,1.2-3c0-1.1-0.4-2.1-1.2-3s-1.8-1.2-3-1.2S472.3,101.9,471.5,102.7z"/>
			<path class="st4" d="M489.5,112.2c-1.5,0-2.8-0.5-3.7-1.4s-1.4-2.1-1.4-3.5V100h2.4v7.2c0,0.7,0.3,1.3,0.8,1.8s1.1,0.8,1.9,0.8
				c0.7,0,1.3-0.2,1.8-0.7s0.8-1.1,0.8-1.8V100h2.4v7.3c0,1.4-0.5,2.6-1.4,3.5C492.2,111.7,491,112.2,489.5,112.2z"/>
			<path class="st4" d="M509,100.8v-7.5h2.4V112H509v-1.5c-1.2,1.2-2.5,1.8-4.1,1.8c-1.8,0-3.4-0.7-4.7-2s-2-2.9-2-4.7
				s0.7-3.4,2-4.7s2.9-2,4.7-2C506.5,99,507.8,99.6,509,100.8z M509,106.6v-1.8c-0.1-0.8-0.5-1.4-1.1-2.1c-0.8-0.8-1.8-1.2-3-1.2
				s-2.1,0.4-3,1.2s-1.2,1.8-1.2,3s0.4,2.1,1.2,3s1.8,1.2,3,1.2s2.1-0.4,3-1.2C508.5,108,508.8,107.3,509,106.6z"/>
			<path class="st4" d="M524.4,93.3v2.4h-6.6v5.7h6.6v2.4h-6.6v8.2h-2.4V93.3H524.4z"/>
			<path class="st4" d="M530.6,101.6c0.9-1.2,2-1.9,3.3-1.9v2.5c-0.9,0-1.6,0.3-2.1,0.9c-0.8,0.8-1.2,1.7-1.2,2.8v6.2h-2.4V100h2.4
				V101.6z"/>
			<path class="st4" d="M542.7,99c1.8,0,3.4,0.7,4.7,2s2,2.9,2,4.7s-0.7,3.4-2,4.7s-2.9,2-4.7,2s-3.4-0.7-4.7-2s-2-2.9-2-4.7
				s0.7-3.4,2-4.7S540.9,99,542.7,99z M539.8,102.7c-0.8,0.8-1.2,1.8-1.2,3s0.4,2.1,1.2,3s1.8,1.2,3,1.2s2.1-0.4,3-1.2
				s1.2-1.8,1.2-3c0-1.1-0.4-2.1-1.2-3s-1.8-1.2-3-1.2S540.6,101.9,539.8,102.7z"/>
			<path class="st4" d="M555.1,103.2v8.8h-2.4v-12h2.4v1.4c0.5-1.4,1.5-2.1,3.1-2.1c1.3,0,2.3,0.5,3.1,1.4s1.2,2.1,1.2,3.5v7.8H560
				v-7.7c0-0.7-0.3-1.3-0.8-1.8s-1.1-0.7-1.8-0.7s-1.3,0.2-1.8,0.7C555.4,102.8,555.2,103,555.1,103.2z"/>
			<path class="st4" d="M568,100v-4.5h2.4v4.5h2.2v2.4h-2.2v9.6H568v-9.6h-2.2V100H568z"/>
		</g>
	</g>
	<g>
		<g>
			<path class="st4" d="M432.6,122c-0.7,0.3-1.2,0.7-1.6,1.2c-0.7,0.9-1.1,2.1-1.1,3.7c0,1.6,0.4,2.8,1.1,3.7c0.4,0.5,1,0.9,1.6,1.3
				v1.4c-1.2-0.4-2-1-2.6-1.7c-0.9-1.1-1.4-2.7-1.4-4.6s0.5-3.5,1.4-4.6c0.6-0.8,1.5-1.3,2.6-1.7V122z"/>
			<path class="st4" d="M443.5,129.8l1.1,1c-1.3,1.2-2.7,1.8-4.1,1.8c-1.5,0-2.9-0.5-4-1.6s-1.6-2.4-1.6-4c0-1.5,0.5-2.9,1.6-4
				s2.4-1.6,4-1.6c1.4,0,2.8,0.6,4.1,1.8l-1.1,1c-1-0.9-2-1.3-3-1.3c-1.1,0-2.1,0.4-2.9,1.2c-0.8,0.8-1.2,1.8-1.2,2.9
				c0,1.2,0.4,2.1,1.2,2.9c0.8,0.8,1.8,1.2,2.9,1.2C441.5,131.1,442.5,130.7,443.5,129.8z"/>
			<path class="st4" d="M448,121.5c1.8,0,3.2,0.5,4.2,1.5c1.1,1.1,1.6,2.4,1.6,4c0,1.5-0.5,2.9-1.6,4c-1,1-2.4,1.5-4.2,1.5h-1v-10.9
				L448,121.5L448,121.5z M448.4,122.9v8.1c1.1,0,2-0.4,2.8-1.1c0.8-0.8,1.2-1.8,1.2-2.9s-0.4-2.1-1.2-2.9
				C450.4,123.3,449.5,122.9,448.4,122.9z"/>
			<path class="st4" d="M456.2,121.5h1.3l4.5,7.8v-7.8h1.4v10.9h-1.2l-4.6-7.9v7.9h-1.4L456.2,121.5L456.2,121.5z"/>
			<path class="st4" d="M478.8,125.1h-2.9v1c0,2.7-0.8,5.4-4.5,7c-0.2-0.2-0.5-0.5-0.7-0.7c3.6-1.5,4.2-4,4.2-6.3v-1h-4.5v3.5h-1
				v-3.5h-2.7v-1h2.7v-3l1.3,0.1c0,0.1-0.1,0.3-0.3,0.3v2.7h4.5V121l1.3,0.1c0,0.1-0.1,0.2-0.4,0.3v2.9h2.9v0.8H478.8z"/>
			<path class="st4" d="M480.5,126.2h11.7v1H481c-0.1,0.1-0.3,0.2-0.4,0.3L480.5,126.2z"/>
			<path class="st4" d="M502.2,131.5c0.6,0,2.1-0.1,2.9-0.2c0,0.3,0,0.7,0.1,1c-0.9,0.1-2.3,0.2-2.9,0.2h-3.5
				c-2.1,0-3.1-0.9-3.1-2.9v-8.2l1.4,0.1c0,0.1-0.1,0.2-0.4,0.3v4.6c2.1-0.7,5.1-1.8,6.9-2.8l0.7,1c0,0-0.1,0-0.2,0s-0.1,0-0.2,0
				c-1.7,0.9-4.9,2-7.3,2.8v2.3c0,1.4,0.7,1.9,2.1,1.9h3.5V131.5z M503.5,121c0.6,0.6,1.3,1.4,1.7,2.1l-0.5,0.4
				c-0.4-0.6-1.1-1.5-1.7-2.1L503.5,121z M505.2,120.2c0.6,0.6,1.3,1.4,1.7,2l-0.5,0.4c-0.4-0.6-1.1-1.5-1.7-2L505.2,120.2z"/>
			<path class="st4" d="M518.6,122.3c0,0.1-0.1,0.1-0.2,0.2c-0.8,1.8-1.7,3.3-2.8,4.8c1.5,1.2,3.8,3.3,5.1,4.7l-0.9,0.7
				c-1.2-1.4-3.5-3.6-4.9-4.7c-1.2,1.5-3.4,3.5-5.4,4.7c-0.2-0.2-0.5-0.6-0.7-0.8c3.9-2.1,6.9-6.1,8.2-9.1h-6.9v-1h7.4l0.2-0.1
				L518.6,122.3z"/>
			<path class="st4" d="M524,133.4c1.5-1.3,2.8-3.6,2.8-6.4c0-2.9-1.3-5.2-2.8-6.4v-0.1h0.8c1.4,1.3,2.7,3.6,2.7,6.5
				s-1.2,5.2-2.7,6.5L524,133.4L524,133.4z"/>
		</g>
	</g>
</g>
<g>
	<g>
		<path class="st5" d="M409.8,180.6h-17.4v-0.9h8.2v-1.5h1.1v1.5h8.2v0.9H409.8z M408.9,194.3c0,0.9-0.4,1.3-1.2,1.3h-2.9l-0.2-1.1
			h2.7c0.2,0,0.6,0,0.6-0.6V188h-13.6v7.6h-1v-8.5H409v7.2H408.9z M406.8,185.8h-11.5V182h11.5V185.8z M405.7,182.8h-9.4v2.2h9.4
			V182.8z M405.3,193.1h-8.5v-3.7h8.5V193.1z M404.3,190.2h-6.5v2.1h6.5V190.2z"/>
		<path class="st5" d="M424.3,194c0,1.2-0.6,1.6-1.6,1.6h-3.4l-0.2-1.1h3.5c0.5,0,0.7,0,0.7-0.8V180h-13.7v-1H427v1h-2.6L424.3,194
			L424.3,194z M419.7,190.6h-7.3v1.2h-1v-9.1h8.3V190.6z M418.7,183.7h-6.3v5.9h6.3V183.7z"/>
		<path class="st5" d="M442.8,194c0,1-0.3,1.6-1.3,1.6h-2.6l-0.1-1h2.6c0.4,0,0.4-0.4,0.4-0.6v-4.4H436v5.8h-1v-5.8h-5.4
			c-0.4,3.2-1.4,4.8-2.4,6l-0.7-0.7c1.6-2.1,2.1-4.2,2.1-7.5V179h14.3v15H442.8z M429.6,187.2c0,0.6,0,1,0,1.5h5.4v-4.1h-5.3v2.6
			H429.6z M435,179.9h-5.3v3.8h5.3V179.9z M441.8,179.9H436v3.8h5.8V179.9z M441.8,184.6H436v4.1h5.8V184.6z"/>
		<path class="st5" d="M443.3,187c0.7-1.7,0.8-3.4,0.9-4.9l1,0.1c-0.1,2.2-0.4,3.6-0.9,5.2L443.3,187z M447.2,178.2v17.4h-1.1v-17.4
			H447.2z M448.8,184.9c-0.2-1.2-0.6-2.3-0.9-3.1l0.9-0.2c0.5,1.3,0.8,2.2,0.9,3L448.8,184.9z M455.2,182.6v-4.4h1.1v4.4h4.5v1h-4.5
			v4.4h4.1v0.9h-4.1v5h4.8v1h-11.7v-1h5.9v-5h-4.5V188h4.5v-4.4H452c-0.4,1-1,2.5-1.8,3.6l-0.8-0.7c1.7-2.5,2.4-5.5,2.5-7.4l1,0.2
			c-0.1,0.6-0.2,1.6-0.6,3.3L455.2,182.6L455.2,182.6z"/>
		<path class="st5" d="M470.6,186.9c0,0.6-0.5,1.1-1.1,1.1s-1.1-0.5-1.1-1.1s0.5-1.1,1.1-1.1C470.1,185.8,470.6,186.3,470.6,186.9z"
			/>
		<path class="st5" d="M495.3,180.6h-17.4v-0.9h8.2v-1.5h1.1v1.5h8.2v0.9H495.3z M494.4,194.3c0,0.9-0.4,1.3-1.2,1.3h-2.9l-0.2-1.1
			h2.7c0.2,0,0.6,0,0.6-0.6V188h-13.6v7.6h-1v-8.5h15.7v7.2H494.4z M492.3,185.8h-11.5V182h11.5V185.8z M491.2,182.8h-9.4v2.2h9.4
			V182.8z M490.8,193.1h-8.5v-3.7h8.5V193.1z M489.8,190.2h-6.5v2.1h6.5V190.2z"/>
		<path class="st5" d="M497.6,178.2h1.1v1.7h4.5v-1.7h1v1.7h4.6v-1.7h1v1.7h2.5v0.9h-2.5v2.9h-12.2v-2.9H495v-0.9h2.6V178.2z
			 M511.9,189.1h-1.1v-3h-6.6v2h5.6v5.1c0,0.9-0.3,1.2-1.6,1.2h-2l-0.3-1.1h2.2c0.6,0,0.7-0.2,0.7-0.6V189h-4.5v6.6h-1.1V189h-4.5
			v5.4h-1.1v-6.3h5.5v-2h-6.6v3h-1v-3.9H512v3.9H511.9z M503.1,180.8h-4.5v2.1h4.5V180.8z M508.7,180.8h-4.6v2.1h4.6V180.8z"/>
		<path class="st5" d="M517.5,191.3c-1.3,0.6-3.7,1.5-5.5,1.9l-0.2-1.1c0.8-0.2,1.6-0.4,2.6-0.7v-7.7H512v-0.9h2.5v-4.7h1v4.7h1.8
			v0.9h-1.8v7.4c1.2-0.4,1.7-0.6,2-0.8V191.3z M516.4,192.7c1.6-0.3,4.4-1,6.5-1.9v1c-2.1,0.9-5.2,1.7-6.3,1.9L516.4,192.7z
			 M529.5,181.1v0.9h-4.6c0.1,4.3,0.1,5.1,0.5,7.5c0.5-0.9,1.4-2.5,2.1-5.9l1,0.3c-0.6,2.4-1.4,4.8-2.8,7c0.4,2.1,1.2,3.5,1.7,3.5
			c0.6,0,1.2-2.1,1.4-3.1l0.9,0.5c0,0.1-0.8,3.7-2.3,3.7s-2.3-2.7-2.6-3.6c-1.6,2-3.3,3.2-4.2,3.7l-0.8-0.9c1.4-0.8,3.1-2,4.7-4.1
			c-0.6-2.9-0.6-4.4-0.7-8.7h-6.7V181h6.7c0-0.5-0.1-2.5-0.1-2.9h1c0,0.5,0,2.5,0.1,2.9h4.7V181.1z M522.7,189.3h-5v-5.5h5V189.3z
			 M521.8,184.6h-3.1v3.8h3.1V184.6z M527.8,180.9c-0.4-0.6-1.1-1.3-2-2l0.7-0.7c0.6,0.4,1.4,1.2,2,2L527.8,180.9z"/>
		<path class="st5" d="M404.2,224.6h-1v-11.1c-0.5,1-1,1.9-1.8,2.7l-0.6-1c2.4-2.7,3.3-7,3.5-8l1,0.2c-0.3,1.3-0.6,2.3-1.1,3.8
			V224.6z M418.1,213.7v1H413c0.4,3.5,1,5.4,1.8,7c0.4,0.7,1.1,1.8,1.6,1.8c0.6,0,0.8-1.9,0.9-2.8l1,0.3c-0.3,2-0.6,3.6-1.8,3.6
			c-2.1,0-4-4.5-4.6-10h-4.4v5.7c0.2,0,2.1-0.4,4.2-1.1v1c-2.8,0.8-4.9,1.2-6.5,1.4l-0.2-0.9c0.4,0,0.6-0.1,1.4-0.2V209
			c3.5,0,7.4-0.7,9.7-1.8l0.6,0.9c-1.2,0.5-2.3,0.9-4.2,1.3c0,1.8,0.2,3.8,0.2,4.3H418.1z M405.6,223.9v-1h7.8v1H405.6z
			 M411.9,213.7c-0.1-0.8-0.1-1.1-0.2-4.2c-1.9,0.3-3.6,0.4-4.2,0.4v3.8H411.9z"/>
		<path class="st5" d="M422,222.5c8-0.9,10.3-5,11.9-10.1l1,0.6c-1.6,4.7-3.9,10.2-14.1,10.7v-15.8h1.2V222.5z"/>
		<path class="st5" d="M445.7,224.2h-1.2v-9.8c-2.5,1.9-5.4,3.4-8.4,4.5l-0.5-1.1c2.7-0.8,9.2-3.7,14.1-10.2l1.1,0.7
			c-2.5,3.1-4.7,4.8-5.1,5.2V224.2z"/>
		<path class="st5" d="M468.8,213.4v1.1h-6.7v0.7c-0.2,5.4-2.3,7.8-7.4,8.9l-0.5-1.1c5.3-0.9,6.6-3.4,6.7-7.7v-0.8h-8v-1.1
			L468.8,213.4L468.8,213.4z M467.2,208.3v1.1h-12.6v-1.1H467.2z"/>
		<path class="st5" d="M476.4,212.8c-1.7-1.2-4.2-2.2-6-2.8l0.6-1.1c1.4,0.4,4,1.4,6,2.7L476.4,212.8z M470.7,222.2
			c5.6-0.2,11.8-3.1,14.6-11.8l1.1,0.5c-0.7,2-2.2,6.1-6,9.1c-2.6,2.1-5.9,3.3-9.3,3.5L470.7,222.2z"/>
		<path class="st5" d="M493,216c-2-1.2-3.4-1.7-5.5-2.4l0.5-1c1.9,0.5,3.4,1.1,5.5,2.3L493,216z M488.4,222.2
			c8.5-0.8,11.7-4.7,13.7-11l1,0.5c-2.5,7.1-5.3,10.6-14.5,11.8L488.4,222.2z M494.5,211.5c-0.9-0.5-2.3-1.4-5.6-2.3l0.5-1
			c2.4,0.6,4,1.3,5.6,2.2L494.5,211.5z"/>
		<path class="st5" d="M520.6,215.3v1.2h-16.9v-1.2H520.6z"/>
	</g>
</g>
<g>
	<line class="st6" x1="448" y1="153.5" x2="475" y2="153.5"/>
	<circle class="st7" cx="448.3" cy="153.6" r="1.6"/>
	<circle class="st7" cx="475.5" cy="153.6" r="1.6"/>
</g>
<g>
	<g>
		<g>
			<path class="st5" d="M692.8,187.7h-5.9v6.1c0,0.5,0.1,0.6,0.7,0.6h3.3c0.3,0,0.5,0,0.6-0.2c0.2-0.3,0.2-0.4,0.3-2.8l1.1,0.3
				c-0.1,3.1-0.3,3.6-1.8,3.6h-3.7c-0.5,0-1.6,0-1.6-1.4v-6.3H682c-0.2,4.4-1.8,7-6.4,8l-0.5-1c4.7-0.9,5.7-3.4,5.9-7h-5.5v-1h17.3
				V187.7z M684.6,178.2v1.7h7.8v4.6h-1.1v-3.6h-14.4v3.6h-1.1v-4.6h7.8v-1.7H684.6z M690.4,183.2v0.9h-12.5v-0.9H690.4z"/>
			<path class="st5" d="M692.2,184.8c2.4-1,6-2.9,8.4-6.6h1.2c1.7,2.5,5.1,5.4,8.3,6.6l-0.5,1.1c-3.1-1.4-6.3-3.9-8.4-6.7
				c-1.6,2.3-4.8,5.1-8.5,6.7L692.2,184.8z M701.7,185.5v3.3h6.2v1h-6.2v4.3h8.2v1h-17.4v-1h8.1v-4.3h-6.2v-1h6.2v-3.3H696v-0.9
				h10.3v0.9H701.7z"/>
			<path class="st5" d="M724.1,195.6v-1.2h-11.7v1.2h-1v-15.3h5.5c0.3-0.8,0.7-1.8,0.7-2.1l1,0.2c-0.2,0.6-0.6,1.3-0.8,1.8h7.3v15.3
				h-1V195.6z M724.1,181.2h-11.7v3.4h11.7V181.2z M724.1,185.5h-11.7v3.4h11.7V185.5z M724.1,189.7h-11.7v3.7h11.7V189.7z"/>
			<path class="st5" d="M732.2,181.3h4.4v0.9h-4.4v1.3h3.9v5.8h-3.9v1.4h4.1v0.9h-4.1v1.8c1.6-0.2,2.5-0.3,4-0.6l0.1,0.9
				c-1.8,0.4-6.8,1.1-9.5,1.4l-0.2-1c1.7-0.1,2.2-0.2,4.6-0.5v-2h-4.1v-0.9h4.1v-1.4h-3.9v-5.8h3.9v-1.3h-4.6v-0.9h4.6v-1.5
				c-2.4,0.2-3.4,0.3-4,0.3l-0.3-0.9c2.2,0,5.5-0.3,8.2-1l0.6,0.8c-0.6,0.2-1.7,0.4-3.6,0.7v1.6H732.2z M731.3,184.2h-2.9v1.7h2.9
				V184.2z M731.3,186.7h-2.9v1.7h2.9V186.7z M735.1,184.2h-2.9v1.7h2.9V184.2z M735.1,186.7h-2.9v1.7h2.9V186.7z M740.1,183.6
				c0,4.1-0.7,8.5-3.3,11.9l-1-0.7c0.6-0.7,1.7-2.1,2.3-4.4c1-3.7,1-6.1,1-7v-0.3h-1.9v-1h1.9v-4h1v4h3.6c0.1,2.9-0.3,10.8-0.7,12.1
				c-0.4,1.1-1,1.2-1.9,1.2H739l-0.3-1l2.2,0.1c0.2,0,0.8,0,1-0.4c0.7-1.3,0.8-9.1,0.8-11.1h-2.6L740.1,183.6L740.1,183.6z"/>
			<path class="st5" d="M752.1,179.7v0.9h-3.3c0.2,0.5,0.6,1.7,0.7,2.1l-1,0.2c-0.1-0.6-0.4-1.6-0.7-2.3h-1.3
				c-0.8,1.1-1.3,1.7-2.1,2.2l-0.7-0.7c1.9-1.4,2.8-3.6,3-4l1.1,0.2c-0.2,0.5-0.4,0.8-0.7,1.4L752.1,179.7L752.1,179.7z M752,183.6
				v-1.1h1v1.1h7.8v3.4h-1.1v-2.5h-14.5v2.5h-1v-3.4H752z M758.5,185.7v3.6h-11.1v1.5h12.4v4.8h-1v-0.9h-11.4v0.9h-1v-9.9
				L758.5,185.7L758.5,185.7z M747.4,186.6v1.9h10.1v-1.9H747.4z M747.4,191.7v2.1h11.4v-2.1H747.4z M761.3,179.7v0.9h-4.4
				c0.2,0.4,0.7,1.5,0.9,2.1l-1,0.1c-0.2-0.6-0.3-0.8-1-2.3H754c-0.7,1-1.1,1.4-1.6,1.8l-0.8-0.6c1.4-1.2,2.1-2.6,2.5-3.6l1,0.2
				c-0.2,0.5-0.3,0.8-0.6,1.3h6.8V179.7z"/>
			<path class="st5" d="M767.1,192.1c-2.4,0.9-4.7,1.3-6.1,1.6l-0.2-1c0.6-0.1,2.1-0.5,2.8-0.6V186h-2.4v-0.9h2.4v-5H761v-0.9h6v0.9
				h-2.4v5h2.1v0.9h-2.1v5.9c1.3-0.4,1.9-0.6,2.4-0.8L767.1,192.1z M777.7,178.7v8.7h-4.6v2.5h4.8v0.9h-4.8v3.3h5.2v0.9h-11.9v-0.9
				h5.7v-3.3h-4.6v-0.9h4.6v-2.5h-4.5v-8.7H777.7z M772.1,179.6h-3.5v3h3.5V179.6z M772.1,183.4h-3.5v3h3.5V183.4z M776.7,179.6
				h-3.5v3h3.5V179.6z M776.7,183.4h-3.5v3h3.5V183.4z"/>
			<path class="st5" d="M787.7,178.6c0.2,1.3,0.4,2.3,0.8,3.4c3.1-0.1,4.6-0.4,5.9-0.7l0.2,1.1c-2.3,0.5-3.8,0.5-5.8,0.6
				c0.8,2.1,1.8,4,3.3,5.5l-1,0.7c-1.8-1.9-3-4.9-3.5-6.2c-1.6,0-3,0-3.7,0h-5.1v-1.1l5.1,0.1c0.9,0,2.8,0,3.4,0
				c-0.2-0.8-0.5-1.5-0.9-3.4L787.7,178.6z M784.8,187.2c-1,0.3-2.3,0.7-3.2,1.7c-0.3,0.4-0.8,1-0.8,1.8c0,0.5,0.2,2,2.5,2.7
				c1.3,0.4,3.5,0.4,4.1,0.4c2.3,0,3.8-0.2,5.2-0.3v1.1c-0.7,0.1-2.7,0.3-5.2,0.3c-3.8,0-5-0.6-5.7-1c-0.9-0.5-2.1-1.5-2.1-3.1
				c0-1.3,0.9-3.3,4.5-4.5L784.8,187.2z"/>
			<path class="st5" d="M800.5,178.7c-0.1,1-0.2,2.2-0.2,5.2c0.6-0.7,3.5-4,6.6-4c1.4,0,2.7,0.8,2.7,2.9c0,0.3,0,0.9,0,1.3l-0.1,2.6
				c-0.1,2.5-0.2,2.8-0.2,3.8c0,1.7,0,2.7,3,2.7l-0.4,1.1c-3.5-0.1-3.8-1.4-3.8-3.5c0-0.9,0-1.3,0.2-4.1l0.2-2.7c0.1-1.7,0-3-1.8-3
				c-0.9,0-3,0.4-6.4,4.4c0,1.5-0.1,8.3-0.1,9.7h-1.1c0-0.6,0-1.3,0.1-8c-1,2.1-1.9,3.2-3.1,4.6l-0.9-1c0.9-0.8,2.6-2.4,4-6V183
				l-3.5,0.1V182h3.5c0-0.4,0-2.8,0-3.2h1.3V178.7z"/>
			<path class="st5" d="M817.6,178.6c-0.1,0.8-0.2,1.6-0.3,2.7h5.9v1.1h-6c-0.9,5.4-2.1,10-3.5,12.9l-1.2-0.4c1.7-3,3-8.6,3.5-12.4
				h-3v-1.1h3.2c0.1-0.5,0.3-2.4,0.3-2.8H817.6z M821.4,189.1c-0.6,1-1,1.7-1,2.5c0,2.1,2.3,2.1,5,2.1c1.4,0,2.7-0.1,3.8-0.2v1.2
				c-0.6,0-3.6,0.1-3.7,0.1c-2.9,0-3.8-0.3-4.5-0.6c-1.2-0.5-1.7-1.7-1.7-2.7c0-1.2,0.6-2.2,1.2-3L821.4,189.1z M828.7,185
				c-0.5,0-1-0.1-1.9-0.1c-3.1,0-4.8,0.6-5.5,0.9l-0.3-1c1-0.4,3.1-1.1,7.7-1V185z"/>
			<path class="st5" d="M832.3,193.8c10.6-1.3,11.6-9.8,11.8-12.2h-13.7v-1.1h13c0-0.1-0.1-0.2-0.1-0.5c0-1.2,0.9-2,2-2s2,0.9,2,2
				c0,1-0.8,2-2,2c-0.5,3.4-1.7,11.1-12.6,12.9L832.3,193.8z M844.1,180.1c0,0.6,0.5,1.1,1.1,1.1s1.1-0.5,1.1-1.1s-0.5-1.1-1.1-1.1
				C844.7,178.9,844.1,179.4,844.1,180.1z"/>
			<path class="st5" d="M862.5,180.2v13.4h-14.7v-13.4H862.5z M861.3,181.3h-12.5v11.2h12.5V181.3z"/>
			<path class="st5" d="M710.8,215c3.9-2.5,5.6-6.2,6.3-7.7l1.3,0.2c-0.3,0.7-0.6,1.5-1.4,2.7h8.7c-0.7,3.4-2.1,6.7-4.5,9.3
				c-2.5,2.7-5.4,3.8-8.9,4.5l-0.5-1.1c3-0.5,9.9-1.9,12.3-11.7h-7.8c-1,1.3-2.6,3.4-4.7,4.7L710.8,215z M724,209.7
				c-0.5-1.3-0.8-1.9-1.1-2.5l0.9-0.3c0.5,0.8,1,1.8,1.2,2.5L724,209.7z M726.4,209.5c-0.1-0.3-0.8-1.9-1.2-2.6l1-0.3
				c0.3,0.6,0.9,1.7,1.2,2.5L726.4,209.5z"/>
			<path class="st5" d="M742.9,212.9c-1,8.3-5.7,10.3-12.3,11l-0.3-1.1c5.5-0.5,10.2-1.9,11.4-8.8h-14v-1.1L742.9,212.9L742.9,212.9
				z M741.7,208.3v1.1H729v-1.1H741.7z"/>
			<path class="st5" d="M755.6,214.7c2.6,3.3,4,6,5.1,8.7l-1.1,0.5c-0.2-0.6-0.4-1.1-0.7-1.9c-6.8,0.9-11.9,1.1-14.4,1.2l-0.1-1.2
				c0.3,0,1.5,0,1.7,0c2.2-5,3.6-10.1,4.6-14.1l1.3,0.2c-0.9,3.4-3,10.1-4.7,13.8c4.3-0.2,9.2-0.5,11.1-0.8c-1.1-2.1-2.3-4-3.7-5.9
				L755.6,214.7z"/>
			<path class="st5" d="M762.9,212.9V212h6.1v-1.5h1.1v1.5h6.2v0.9h-6.2v2.1h6.2v0.9h-6.2c0,0.6,0,1.2-0.3,2.2h8.5v0.9h-7.7
				c1.3,2.4,3.3,3.7,7.7,4.7l-0.4,1c-5.1-1.2-7.1-3.1-8.3-5.7h-0.1c-1.4,3.5-5.4,4.9-8.1,5.6l-0.6-1c5.8-1.3,6.9-3.4,7.5-4.6h-7.4
				v-1h7.8c0.2-0.8,0.3-1.5,0.4-2.2H763v-0.9h6.1v-2.1L762.9,212.9L762.9,212.9z M770.2,207.2v1.6h7.6v3.7h-1.1v-2.8h-14.2v2.8h-1.1
				v-3.7h7.6v-1.6H770.2z"/>
			<path class="st5" d="M777.8,217.2c2.6-1.8,4.1-4.2,5-6l0.8,0.5c-0.3,0.5-0.8,1.6-1.9,3.1v9.8h-1.1v-8.5c-1.3,1.3-2,1.8-2.5,2.1
				L777.8,217.2z M783.1,207.6c-2.2,3.6-4,4.7-4.8,5.2l-0.4-1c1.7-0.9,3.4-3,4.3-4.6L783.1,207.6z M795.4,214.2h-3.2v9
				c0,0.4,0,1.4-1.3,1.4h-3.1l-0.2-1.1l2.9,0.1c0.4,0,0.5-0.1,0.5-0.5v-8.8h-7v-1h11.3L795.4,214.2L795.4,214.2z M794.7,209.1h-9.8
				v-1h9.8V209.1z"/>
			<path class="st5" d="M812.1,209.5H809v6.3h3.5v0.9h-4.3c0.8,1.3,2.6,2.9,4.4,3.7l-0.6,0.9c-1.2-0.7-3.3-2.1-4.9-4.6h-6.6
				c-1.6,2.6-3.8,4-5,4.6l-0.6-0.8c1.8-0.9,3.3-2,4.5-3.8h-4.3v-0.9h3.6v-6.3h-3.1v-0.9h3.1v-1.4h1v1.4h8.2v-1.4h1.1v1.4h3.1
				L812.1,209.5L812.1,209.5z M803.3,223v-2.8H799v-0.9h4.3v-1.9h1v1.9h4.4v0.9h-4.4v2.8h7.5v0.9h-16V223H803.3z M807.9,209.5h-8.2
				v1.4h8.2V209.5z M807.9,211.8h-8.2v1.4h8.2V211.8z M807.9,214.1h-8.2v1.7h8.2V214.1z"/>
			<path class="st5" d="M816.8,216.3h-0.9v-3c-0.8,0.1-1.1,0.1-1.5,0.1c-0.2,3.1-1,4.4-1.6,5.2l-0.8-0.8c1-1.4,1.3-2.8,1.4-4.4
				c-0.2,0-1,0.1-1.1,0.1l-0.1-0.9c0.2,0,1-0.1,1.2-0.1v-4h2.3c0.2-0.7,0.3-0.9,0.4-1.4l1,0.1c-0.2,0.5-0.3,0.8-0.5,1.3h2.8v3.5
				c0.6-0.1,0.6-0.1,0.9-0.1v0.9c-0.6,0.1-0.7,0.1-0.9,0.1v3.7c0,0.9-0.3,1.2-1.3,1.2h-1.5l-0.3-1h1.6c0.3,0,0.5,0,0.5-0.4V213
				c-1,0.1-1.4,0.2-1.7,0.2L816.8,216.3L816.8,216.3z M829.6,224.2h-17.4v-0.9h1.8v-4.5h13.7v4.5h1.8v0.9H829.6z M814.4,212.5
				c1.7-0.1,2-0.1,4.1-0.3v-2.8h-4.1V212.5z M818.3,219.6h-3.2v3.6h3.2V219.6z M816.7,211.9c-0.5-0.6-0.8-0.9-1.3-1.5l0.7-0.6
				c0.4,0.4,1.1,1.1,1.4,1.5L816.7,211.9z M822.4,219.6h-3.2v3.6h3.2V219.6z M829.2,218.1c-0.9-0.2-2.5-0.6-4.4-1.7
				c-1,0.6-2.1,1.1-4.2,1.7l-0.4-1c1.4-0.3,2.5-0.7,3.7-1.4c-1.2-0.8-1.8-1.6-2.1-2l0.8-0.5c0.9,1,1.6,1.6,2.2,2
				c1-0.6,1.7-1.3,2.5-2.3H821V212h7.6v0.9c-1.4,1.7-2.4,2.5-2.8,2.8c1.5,0.7,2.8,1,4,1.2L829.2,218.1z M826.9,209.9
				c0,0.4,0.1,0.4,0.4,0.4h0.5c0.4,0,0.6,0,0.7-1.5l1,0.3c-0.2,1.8-0.8,2-1.4,2H827c-0.2,0-1.1,0-1.1-1v-1.7H823
				c-0.3,1.8-1.1,2.7-2.2,3.2l-0.6-0.8c1.4-0.7,1.7-1.6,1.9-3.3h4.7L826.9,209.9L826.9,209.9z M826.7,219.6h-3.3v3.6h3.3V219.6z"/>
		</g>
	</g>
	<g>
		<g>
			<g>
				<path class="st4" d="M708.4,99.1l7.7,21.1h-2.9l-2.7-7.5h-5.6l-2.7,7.5h-2.9l7.7-21.1H708.4z M709.5,110l-1.8-4.9l-1.8,4.9
					H709.5z"/>
				<path class="st4" d="M727.3,116.2V99.1h2.7v17.2c0.1,0.1,0.2,0.3,0.4,0.6c0.6,0.5,1.2,0.8,2,0.8s1.5-0.3,2-0.8
					c0.6-0.6,0.9-1.2,0.9-2V99.1h2.7v15.8c0,1.5-0.6,2.8-1.6,3.8c-1.1,1.1-2.4,1.7-4,1.7c-1.5,0-2.8-0.5-3.8-1.6
					c-1,1.1-2.3,1.6-3.8,1.6c-1.6,0-2.9-0.6-4-1.7s-1.6-2.3-1.6-3.8V99.1h2.7v15.7c0,0.8,0.3,1.5,0.9,2c0.6,0.6,1.2,0.8,2,0.8
					s1.5-0.3,2-0.8C727.1,116.6,727.2,116.4,727.3,116.2z"/>
				<path class="st4" d="M747.9,109.4c-1.5-0.5-2.7-1.2-3.6-2.1c-0.9-0.9-1.4-2.1-1.4-3.4s0.5-2.5,1.4-3.5c1-1,2.1-1.5,3.5-1.5
					s2.5,0.5,3.5,1.4c0.5,0.5,1,1.4,1.4,2.5l-2.5,1c-0.3-0.8-0.6-1.3-0.8-1.6c-0.4-0.4-0.9-0.6-1.6-0.6c-0.6,0-1.1,0.2-1.6,0.6
					c-0.4,0.4-0.6,0.9-0.6,1.6c0,0.6,0.2,1.1,0.6,1.6c0.5,0.5,1.2,0.9,2,1.3c1.7,0.5,3.1,1.4,4.2,2.5c1.3,1.3,1.9,2.8,1.9,4.6
					c0,1.8-0.6,3.4-1.9,4.7c-1.3,1.3-2.8,1.9-4.6,1.9s-3.4-0.6-4.7-1.9c-1-1-1.7-2.4-2-4.3l2.6-1c0.2,1.6,0.6,2.7,1.2,3.3
					c0.8,0.8,1.7,1.1,2.7,1.1s2-0.4,2.7-1.1s1.1-1.7,1.1-2.7c0-1.1-0.4-2-1.1-2.7C749.9,110.4,749,109.8,747.9,109.4z"/>
				<path class="st4" d="M768,120.2V99.1h2.7v18.4h7.5v2.7H768z"/>
				<path class="st4" d="M794,107.6v-0.9h2.7v13.6H794v-1.7c-1.3,1.4-2.8,2-4.6,2c-2.1,0-3.8-0.7-5.3-2.2s-2.2-3.2-2.2-5.3
					s0.7-3.8,2.2-5.3s3.2-2.2,5.3-2.2C791.2,105.5,792.7,106.2,794,107.6z M794,114v-2c-0.2-0.9-0.6-1.6-1.3-2.3
					c-0.9-0.9-2-1.4-3.3-1.4s-2.4,0.5-3.3,1.4c-0.9,0.9-1.4,2-1.4,3.3s0.5,2.4,1.4,3.3s2,1.4,3.3,1.4s2.4-0.5,3.3-1.4
					C793.5,115.7,793.9,114.9,794,114z"/>
				<path class="st4" d="M801.6,106.6h2.7v1.3c0.5-1.3,1.5-2,3-2s2.3,0.8,2.5,2.3c0.4-1.5,1.6-2.3,3.6-2.3c1.9,0,2.9,1.2,2.9,3.5
					v10.8h-2.7v-9.5c0-1.3-0.5-2-1.6-2c-0.4,0-0.8,0.2-1.2,0.5s-0.5,1.4-0.5,3.2v7.9h-2.7v-9.5c0-1.3-0.5-2-1.6-2
					c-0.4,0-0.8,0.2-1.2,0.5c-0.3,0.3-0.4,1-0.5,2.2v8.9h-2.7V106.6z"/>
				<path class="st4" d="M823.8,118.5v1.7h-2.7V99.1h2.7v8.5c1.3-1.4,2.9-2,4.6-2c2.1,0,3.8,0.7,5.3,2.2s2.2,3.2,2.2,5.3
					s-0.7,3.8-2.2,5.3s-3.2,2.2-5.3,2.2C826.7,120.5,825.1,119.9,823.8,118.5z M823.8,112v2.1c0.2,0.8,0.6,1.6,1.3,2.3
					c0.9,0.9,2,1.4,3.3,1.4s2.4-0.5,3.3-1.4c0.9-0.9,1.4-2,1.4-3.3s-0.5-2.4-1.4-3.3s-2-1.4-3.3-1.4s-2.4,0.5-3.3,1.4
					C824.4,110.4,824,111.1,823.8,112z"/>
				<path class="st4" d="M852.1,107.6v-8.5h2.7v21.1h-2.7v-1.7c-1.3,1.4-2.9,2-4.6,2c-2.1,0-3.8-0.7-5.3-2.2s-2.2-3.2-2.2-5.3
					s0.7-3.8,2.2-5.3s3.2-2.2,5.3-2.2C849.3,105.5,850.8,106.2,852.1,107.6z M852.1,114v-2c-0.2-0.9-0.6-1.6-1.3-2.3
					c-0.9-0.9-2-1.4-3.3-1.4s-2.4,0.5-3.3,1.4c-0.9,0.9-1.4,2-1.4,3.3s0.5,2.4,1.4,3.3s2,1.4,3.3,1.4s2.4-0.5,3.3-1.4
					C851.5,115.7,852,114.9,852.1,114z"/>
				<path class="st4" d="M871.4,107.6v-0.9h2.7v13.6h-2.7v-1.7c-1.3,1.4-2.8,2-4.6,2c-2.1,0-3.8-0.7-5.3-2.2s-2.2-3.2-2.2-5.3
					s0.7-3.8,2.2-5.3s3.2-2.2,5.3-2.2C868.5,105.5,870.1,106.2,871.4,107.6z M871.4,114v-2c-0.2-0.9-0.6-1.6-1.3-2.3
					c-0.9-0.9-2-1.4-3.3-1.4s-2.4,0.5-3.3,1.4c-0.9,0.9-1.4,2-1.4,3.3s0.5,2.4,1.4,3.3s2,1.4,3.3,1.4s2.4-0.5,3.3-1.4
					C870.8,115.7,871.2,114.9,871.4,114z"/>
			</g>
		</g>
		<circle class="st1" cx="673.8" cy="111" r="15.5"/>
		<g>
			<polygon class="st8" points="668.9,98.9 668.9,102.3 671.9,102.3 673.2,106.2 664,119.7 668.6,119.7 675,110.5 679,121 
				685.4,118.5 684.5,115.4 681.5,116.4 674.4,98.9 			"/>
		</g>
	</g>
	<g>
		<line class="st6" x1="755" y1="153.5" x2="782" y2="153.5"/>
		<circle class="st7" cx="755.5" cy="153.6" r="1.6"/>
		<circle class="st7" cx="782.7" cy="153.6" r="1.6"/>
	</g>
</g>
<g id="Layer_1">
	<polygon class="st3" points="360.5,107.1 353.1,117.1 349.2,107.2 356.3,106.8 	"/>
	<polygon class="st3" points="370.2,107.1 377.7,117.2 381.5,107.2 374.5,106.8 	"/>
	<polygon class="st2" points="360.5,100.5 353.1,90.5 349.2,100.5 356.4,101 	"/>
	<polygon class="st2" points="370.2,100.5 377.7,90.5 381.6,100.5 374.5,101 	"/>
	<polygon class="st0" points="370.2,100.5 377.7,100 377.7,90.5 370.2,92.5 	"/>
	<polygon class="st1" points="381.6,100.5 377.7,100 377.7,90.5 381.6,92.5 	"/>
	<polygon class="st0" points="370.2,107.1 377.7,107.8 377.7,117.2 370.2,115.2 	"/>
	<polygon class="st1" points="381.5,107.2 377.7,107.8 377.7,117.2 381.5,115.3 	"/>
	<polygon class="st1" points="360.5,100.5 353.1,100 353.1,90.5 360.5,92.5 	"/>
	<polygon class="st0" points="349.2,100.5 353.1,100 353.1,90.5 349.2,92.5 	"/>
	<polygon class="st1" points="360.5,107.1 353.1,107.8 353.1,117.2 360.5,115.2 	"/>
	<polygon class="st0" points="349.2,107.2 353.1,107.8 353.1,117.2 349.2,115.2 	"/>
	<polygon class="st3" points="373.1,108.4 365.4,107.6 357.6,108.4 365.4,123.3 	"/>
	<polygon class="st2" points="373.1,99.3 365.4,100.1 357.6,99.3 365.4,84.4 	"/>
	<polygon class="st1" points="373.1,99.3 365.4,98.2 365.4,84.4 373.1,88.3 	"/>
	<polygon class="st0" points="357.6,99.3 365.4,98.2 365.4,84.4 357.6,88.3 	"/>
	<polygon class="st1" points="373.1,108.4 365.4,109.5 365.4,123.3 373.1,119.5 	"/>
	<polygon class="st0" points="357.6,108.4 365.4,109.5 365.4,123.3 357.6,119.4 	"/>
</g>
<g>
	<path class="st7" d="M153.7,0.2c-1.7,0-3.3,0-5,0.1l0.5,16c1.5,0,3-0.1,4.5-0.1V0.2L153.7,0.2L153.7,0.2z M142.8,0.6
		c-1.7,0.1-3.3,0.2-5,0.4l1.5,15.9c1.5-0.1,3-0.3,4.5-0.4L142.8,0.6L142.8,0.6z M132.9,1.5c-1.7,0.2-3.3,0.5-4.9,0.7l2.6,15.8
		c1.5-0.2,3-0.5,4.4-0.7L132.9,1.5L132.9,1.5z M123,3.1c-1.6,0.3-3.3,0.7-4.9,1l3.6,15.6c1.4-0.3,2.9-0.7,4.4-0.9L123,3.1L123,3.1z
		 M113.2,5.4c-1.6,0.4-3.2,0.9-4.8,1.4l4.6,15.3c1.4-0.4,2.9-0.8,4.3-1.2L113.2,5.4L113.2,5.4z M103.7,8.3c-1.6,0.5-3.1,1.1-4.7,1.7
		l5.6,15c1.4-0.5,2.8-1,4.2-1.5L103.7,8.3L103.7,8.3z M94.3,11.8c-1.5,0.6-3.1,1.3-4.6,2l6.6,14.6c1.4-0.6,2.7-1.2,4.1-1.8
		L94.3,11.8L94.3,11.8z M85.2,15.9c-1.5,0.7-3,1.5-4.4,2.3l7.5,14.1c1.3-0.7,2.6-1.4,4-2L85.2,15.9L85.2,15.9z M76.4,20.7
		c-1.4,0.8-2.9,1.7-4.3,2.6l8.5,13.6c1.3-0.8,2.6-1.6,3.8-2.3L76.4,20.7L76.4,20.7z M67.9,25.9c-1.4,0.9-2.8,1.9-4.1,2.8l9.3,13
		c1.2-0.9,2.4-1.7,3.7-2.5L67.9,25.9L67.9,25.9z M59.8,31.8c-1.3,1-2.6,2.1-3.9,3.1L66,47.2c1.1-0.9,2.3-1.9,3.5-2.8L59.8,31.8
		L59.8,31.8z M52,38.1c-1.3,1.1-2.5,2.2-3.7,3.4l10.9,11.7c1.1-1,2.2-2,3.3-3L52,38.1L52,38.1z M44.7,44.9c-1.2,1.2-2.3,2.4-3.5,3.6
		l11.7,11c1-1.1,2.1-2.2,3.1-3.2L44.7,44.9L44.7,44.9z M37.9,52.2c-1.1,1.3-2.2,2.5-3.2,3.8L47,66.2c0.9-1.1,1.9-2.3,2.9-3.4
		L37.9,52.2L37.9,52.2z M31.5,59.9c-1,1.3-2,2.7-3,4l13,9.3c0.9-1.2,1.8-2.4,2.7-3.6L31.5,59.9L31.5,59.9z M25.7,68
		c-0.9,1.4-1.8,2.8-2.7,4.2l13.6,8.5c0.8-1.3,1.6-2.5,2.4-3.8L25.7,68L25.7,68z M20.4,76.5c-0.8,1.4-1.7,2.9-2.4,4.4l14.1,7.6
		c0.7-1.3,1.4-2.6,2.2-3.9L20.4,76.5L20.4,76.5z M15.7,85.3c-0.7,1.5-1.5,3-2.1,4.5l14.6,6.6c0.6-1.4,1.3-2.7,1.9-4L15.7,85.3
		L15.7,85.3z M11.5,94.4c-0.6,1.5-1.3,3.1-1.8,4.6l15,5.7c0.5-1.4,1.1-2.8,1.7-4.2L11.5,94.4L11.5,94.4z M8,103.8
		c-0.5,1.6-1.1,3.2-1.5,4.8l15.3,4.7c0.4-1.4,0.9-2.9,1.4-4.3L8,103.8L8,103.8z M5.1,113.3c-0.4,1.6-0.8,3.2-1.2,4.8l15.6,3.7
		c0.3-1.4,0.7-2.9,1.1-4.3L5.1,113.3L5.1,113.3z M2.8,123.1c-0.3,1.6-0.6,3.3-0.9,4.9l15.8,2.6c0.2-1.5,0.5-2.9,0.8-4.4L2.8,123.1
		L2.8,123.1z M1.1,132.9c-0.2,1.7-0.4,3.3-0.6,5l15.9,1.6c0.1-1.5,0.3-3,0.5-4.4L1.1,132.9L1.1,132.9z M0.2,142.9
		c-0.1,1.7-0.2,3.3-0.3,5l16,0.5c0.1-1.5,0.1-3,0.2-4.5L0.2,142.9L0.2,142.9z M-0.2,152.9c0,0.1,0,0.2,0,0.3l0,0
		c0,1.6,0,3.1,0.1,4.7l16-0.5c0-1.5-0.1-3-0.1-4.5L-0.2,152.9L-0.2,152.9z M16.1,161.9l-16,1c0.1,1.7,0.2,3.3,0.4,5l15.9-1.5
		C16.3,164.9,16.2,163.4,16.1,161.9L16.1,161.9z M16.9,170.8l-15.9,2c0.2,1.7,0.4,3.3,0.7,4.9l15.8-2.5
		C17.3,173.8,17.1,172.3,16.9,170.8L16.9,170.8z M18.3,179.6l-15.7,3.1c0.3,1.6,0.7,3.3,1,4.9l15.6-3.6
		C18.9,182.6,18.6,181.1,18.3,179.6L18.3,179.6z M20.3,188.4l-15.5,4.1c0.4,1.6,0.9,3.2,1.4,4.8l15.3-4.6
		C21.1,191.2,20.7,189.8,20.3,188.4L20.3,188.4z M22.9,196.9L7.8,202c0.5,1.6,1.1,3.2,1.7,4.7l15-5.6
		C23.9,199.8,23.4,198.3,22.9,196.9L22.9,196.9z M26,205.3l-14.8,6.1c0.6,1.5,1.3,3.1,2,4.6l14.6-6.6
		C27.2,208.1,26.6,206.7,26,205.3L26,205.3z M29.7,213.5l-14.4,7c0.7,1.5,1.5,3,2.3,4.5l14.1-7.5C31.1,216.1,30.4,214.8,29.7,213.5
		L29.7,213.5z M33.9,221.4l-13.9,8c0.8,1.4,1.7,2.9,2.6,4.3l13.6-8.4C35.4,223.9,34.7,222.7,33.9,221.4L33.9,221.4z M38.6,229
		l-13.3,8.9c0.9,1.4,1.9,2.8,2.8,4.1l13-9.3C40.3,231.5,39.5,230.2,38.6,229L38.6,229z M43.8,236.3L31.1,246c1,1.3,2,2.6,3.1,3.9
		l12.4-10.1C45.7,238.6,44.7,237.5,43.8,236.3L43.8,236.3z M49.5,243.2l-12.1,10.5c1.1,1.3,2.2,2.5,3.3,3.7l11.7-10.9
		C51.5,245.5,50.5,244.3,49.5,243.2L49.5,243.2z M55.6,249.8L44.2,261c1.2,1.2,2.4,2.3,3.6,3.5l11-11.6
		C57.7,251.9,56.6,250.8,55.6,249.8L55.6,249.8z M62.1,255.9l-10.6,12c1.2,1.1,2.5,2.2,3.8,3.2l10.2-12.3
		C64.4,257.9,63.2,256.9,62.1,255.9L62.1,255.9z M69,261.6l-9.8,12.7c1.3,1,2.7,2,4,3l9.4-13C71.4,263.4,70.2,262.5,69,261.6
		L69,261.6z M76.3,266.9l-9,13.3c1.4,0.9,2.8,1.8,4.2,2.7l8.5-13.5C78.8,268.5,77.5,267.7,76.3,266.9L76.3,266.9z M83.9,271.6
		l-8.1,13.8c0,0.2,1.3,0.7,1.4,0.8c1,0.6,1.9,1.1,2.9,1.6l7.6-14.1C86.5,273.1,85.1,272.4,83.9,271.6L83.9,271.6z M91.7,275.9
		l-7.1,14.3c1.5,0.7,3,1.5,4.5,2.2l6.7-14.5C94.4,277.2,93.1,276.6,91.7,275.9L91.7,275.9z M99.9,279.6l-6.2,14.8
		c1.5,0.6,3.1,1.3,4.6,1.9l5.7-15C102.6,280.8,101.2,280.2,99.9,279.6L99.9,279.6z M108.2,282.8l-5.2,15.1c1.6,0.5,3.2,1.1,4.8,1.5
		l4.7-15.3C111.1,283.8,109.6,283.3,108.2,282.8L108.2,282.8z M116.8,285.4l-4.2,15.4c1.6,0.4,3.2,0.8,4.8,1.2l3.7-15.6
		C119.7,286.2,118.2,285.8,116.8,285.4L116.8,285.4z M125.5,287.5l-3.2,15.7c1.6,0.3,3.3,0.6,4.9,0.9l2.7-15.8
		C128.4,288.1,126.9,287.8,125.5,287.5L125.5,287.5z M134.3,289l-2.1,15.9c1.7,0.2,3.3,0.4,5,0.6l1.6-15.9
		C137.3,289.4,135.8,289.2,134.3,289L134.3,289z M143.2,289.9l-1.1,16c1.7,0.1,3.3,0.2,5,0.3l0.6-16
		C146.2,290.1,144.7,290,143.2,289.9L143.2,289.9z M156.7,290.2c-1.5,0-3,0.1-4.5,0.1l-0.1,16c1.7,0,3.3,0,5-0.1L156.7,290.2
		L156.7,290.2z M165.6,289.6c-1.5,0.1-3,0.3-4.5,0.3l1,16c1.7-0.1,3.3-0.2,5-0.4L165.6,289.6L165.6,289.6z M174.5,288.5
		c-1.5,0.2-3,0.4-4.4,0.6l2,15.9c1.7-0.2,3.3-0.4,5-0.7L174.5,288.5L174.5,288.5z M183.3,286.8c-1.4,0.3-2.9,0.6-4.4,0.9l3,15.7
		c1.6-0.3,3.3-0.7,4.9-1L183.3,286.8L183.3,286.8z M191.9,284.6c-1.4,0.4-2.9,0.8-4.3,1.2l4.1,15.5c1.6-0.4,3.2-0.9,4.8-1.3
		L191.9,284.6L191.9,284.6z M200.4,281.7c-1.4,0.5-2.8,1-4.2,1.5l5.1,15.2c1.6-0.5,3.2-1.1,4.7-1.7L200.4,281.7L200.4,281.7z
		 M208.7,278.3c-1.4,0.6-2.7,1.2-4.1,1.8l6.1,14.8c1.5-0.6,3.1-1.3,4.6-2L208.7,278.3L208.7,278.3z M216.7,274.4
		c-1.3,0.7-2.7,1.4-4,2l7,14.4c1.5-0.7,3-1.5,4.5-2.3L216.7,274.4L216.7,274.4z M224.5,270c-1.3,0.8-2.6,1.5-3.8,2.3l7.9,13.9
		c1.4-0.8,2.9-1.7,4.3-2.6L224.5,270L224.5,270z M232,265c-1.2,0.9-2.5,1.7-3.7,2.5l8.8,13.3c1.4-0.9,2.8-1.9,4.1-2.8L232,265
		L232,265z M239.1,259.6c-1.2,0.9-2.3,1.9-3.5,2.8l9.7,12.7c1.3-1,2.6-2,3.9-3.1L239.1,259.6L239.1,259.6z M245.9,253.7
		c-1.1,1-2.2,2-3.3,3l10.5,12.1c1.3-1.1,2.5-2.2,3.7-3.3L245.9,253.7L245.9,253.7z M252.2,247.5c-1,1.1-2.1,2.2-3.1,3.2l11.2,11.4
		c1.2-1.2,2.4-2.4,3.5-3.6L252.2,247.5L252.2,247.5z M258.2,240.8c-1,1.1-1.9,2.3-2.9,3.4l12,10.6c1.1-1.2,2.2-2.5,3.3-3.8
		L258.2,240.8L258.2,240.8z M263.7,233.7c-0.9,1.2-1.8,2.4-2.7,3.6l12.6,9.8c1-1.3,2-2.6,3-4L263.7,233.7L263.7,233.7z M268.7,226.3
		c-0.8,1.3-1.6,2.5-2.5,3.7l13.2,9c0.9-1.4,1.8-2.8,2.7-4.2L268.7,226.3L268.7,226.3z M273.3,218.5c-0.7,1.3-1.4,2.6-2.2,3.9
		l13.8,8.1c0.8-1.4,1.7-2.9,2.5-4.4L273.3,218.5L273.3,218.5z M277.3,210.6c-0.6,1.3-1.3,2.7-1.9,4l14.3,7.2c0.7-1.5,1.5-3,2.2-4.5
		L277.3,210.6L277.3,210.6z M280.7,202.3c-0.5,1.4-1.1,2.8-1.7,4.1l14.7,6.2c0.6-1.5,1.3-3.1,1.9-4.6L280.7,202.3L280.7,202.3z
		 M283.7,193.9c-0.4,1.4-0.9,2.8-1.4,4.2l15.1,5.2c0.5-1.6,1.1-3.2,1.6-4.8L283.7,193.9L283.7,193.9z M286,185.2
		c-0.3,1.4-0.7,2.9-1.1,4.3l15.4,4.2c0.4-1.6,0.9-3.2,1.2-4.8L286,185.2L286,185.2z M287.8,176.5c-0.2,1.5-0.5,2.9-0.8,4.4l15.7,3.2
		c0.3-1.6,0.6-3.3,0.9-4.9L287.8,176.5L287.8,176.5z M289,167.6c-0.2,1.5-0.3,3-0.5,4.4l15.9,2.2c0.2-1.7,0.4-3.3,0.6-5L289,167.6
		L289,167.6z M289.7,158.7c-0.1,1.5-0.1,3-0.2,4.5l16,1.1c0.1-1.7,0.2-3.3,0.3-5L289.7,158.7L289.7,158.7z M305.7,149.3l-16,0.4
		c0,1.5,0.1,3,0,4.5l16,0.1C305.8,152.6,305.8,150.9,305.7,149.3L305.7,149.3z M305.2,139.3l-15.9,1.4c0.1,1.5,0.2,3,0.3,4.5l16-0.9
		C305.4,142.6,305.3,140.9,305.2,139.3L305.2,139.3z M303.9,129.4l-15.8,2.5c0.2,1.5,0.4,3,0.6,4.4l15.9-2
		C304.4,132.7,304.2,131,303.9,129.4z M302.1,119.6l-15.6,3.5c0.3,1.4,0.6,2.9,0.9,4.4l15.7-3C302.8,122.8,302.4,121.2,302.1,119.6
		L302.1,119.6z M299.6,109.9l-15.3,4.5c0.4,1.4,0.8,2.9,1.2,4.3l15.5-4C300.5,113.1,300,111.5,299.6,109.9L299.6,109.9z
		 M296.4,100.4l-15,5.5c0.5,1.4,1,2.8,1.5,4.2l15.2-5C297.5,103.5,297,101.9,296.4,100.4L296.4,100.4z M292.7,91.1L278,97.6
		c0.6,1.4,1.2,2.7,1.8,4.1l14.8-6C294,94.2,293.3,92.6,292.7,91.1L292.7,91.1z M288.3,82.1l-14.2,7.4c0.7,1.3,1.4,2.7,2,4l14.4-7
		C289.8,85.1,289.1,83.6,288.3,82.1L288.3,82.1z M283.4,73.4l-13.6,8.4c0.8,1.3,1.5,2.6,2.3,3.9l13.9-7.9
		C285.1,76.3,284.2,74.8,283.4,73.4L283.4,73.4z M277.9,65.1l-13.1,9.2c0.9,1.2,1.7,2.5,2.5,3.7l13.4-8.8
		C279.8,67.8,278.8,66.4,277.9,65.1z M271.8,57.1l-12.4,10.1c0.9,1.2,1.9,2.3,2.8,3.5l12.8-9.7C273.9,59.7,272.9,58.4,271.8,57.1
		L271.8,57.1z M265.3,49.5l-11.8,10.8c1,1.1,2,2.2,3,3.3l12.1-10.5C267.5,52,266.4,50.8,265.3,49.5L265.3,49.5z M258.3,42.4
		l-11,11.6c1.1,1,2.2,2.1,3.2,3.1l11.4-11.2C260.7,44.7,259.5,43.6,258.3,42.4L258.3,42.4z M250.8,35.8L240.6,48
		c1.1,1,2.3,1.9,3.4,2.9L254.6,39C253.4,37.9,252.1,36.8,250.8,35.8L250.8,35.8z M242.9,29.6l-9.4,12.9c1.2,0.9,2.4,1.8,3.6,2.7
		l9.9-12.6C245.6,31.6,244.3,30.6,242.9,29.6L242.9,29.6z M234.7,24l-8.6,13.5c1.3,0.8,2.5,1.6,3.7,2.5l9-13.2
		C237.5,25.8,236.1,24.9,234.7,24z M226.1,18.9l-7.7,14c1.3,0.7,2.6,1.5,3.9,2.2l8.1-13.8C229,20.5,227.5,19.7,226.1,18.9z
		 M217.1,14.4l-6.7,14.5c1.3,0.6,2.7,1.3,4,2l7.2-14.3C220.1,15.8,218.6,15.1,217.1,14.4L217.1,14.4z M207.9,10.5l-5.8,14.9
		c1.4,0.5,2.8,1.1,4.1,1.7l6.3-14.7C211,11.7,209.5,11.1,207.9,10.5L207.9,10.5z M198.5,7.2l-4.8,15.3c1.4,0.4,2.8,0.9,4.2,1.4
		l5.3-15.1C201.7,8.2,200.1,7.7,198.5,7.2L198.5,7.2z M188.9,4.5l-3.8,15.6c1.4,0.3,2.9,0.7,4.3,1.1l4.3-15.4
		C192.1,5.3,190.5,4.9,188.9,4.5z M179.1,2.5l-2.7,15.8c1.5,0.3,2.9,0.5,4.4,0.8L184,3.4C182.3,3.1,180.7,2.8,179.1,2.5L179.1,2.5z
		 M169.2,1.1L167.5,17c1.5,0.2,3,0.3,4.4,0.5l2.2-15.8C172.5,1.5,170.8,1.3,169.2,1.1L169.2,1.1z M159.2,0.4l-0.7,16
		c1.5,0.1,3,0.1,4.5,0.3l1.2-16c-0.5,0-1-0.1-1.6-0.1C161.5,0.5,160.3,0.4,159.2,0.4L159.2,0.4z"/>
</g>
<g>
	<path class="st7" d="M461.5,0.4c-1.7,0-3.3,0-5,0.1l0.5,16c1.5,0,3-0.1,4.5-0.1V0.4L461.5,0.4L461.5,0.4z M450.6,0.8
		c-1.7,0.1-3.3,0.2-5,0.4l1.5,15.9c1.5-0.1,3-0.3,4.5-0.4L450.6,0.8L450.6,0.8z M440.6,1.7c-1.7,0.2-3.3,0.5-4.9,0.7l2.6,15.8
		c1.5-0.2,3-0.5,4.4-0.7L440.6,1.7L440.6,1.7z M430.8,3.3c-1.6,0.3-3.3,0.7-4.9,1l3.6,15.6c1.4-0.3,2.9-0.7,4.4-0.9L430.8,3.3
		L430.8,3.3z M421,5.6c-1.6,0.4-3.2,0.9-4.8,1.4l4.6,15.3c1.4-0.4,2.9-0.8,4.3-1.2L421,5.6L421,5.6z M411.4,8.5
		c-1.6,0.5-3.1,1.1-4.7,1.7l5.6,15c1.4-0.5,2.8-1,4.2-1.5L411.4,8.5L411.4,8.5z M402.1,12c-1.5,0.6-3.1,1.3-4.6,2l6.6,14.6
		c1.4-0.6,2.7-1.2,4.1-1.8L402.1,12L402.1,12z M393,16.1c-1.5,0.7-3,1.5-4.4,2.3l7.5,14.1c1.3-0.7,2.6-1.4,4-2L393,16.1L393,16.1z
		 M384.2,20.9c-1.4,0.8-2.9,1.7-4.3,2.6l8.5,13.6c1.3-0.8,2.6-1.6,3.8-2.3L384.2,20.9L384.2,20.9z M375.7,26.1
		c-1.4,0.9-2.8,1.9-4.1,2.8l9.3,13c1.2-0.9,2.4-1.7,3.7-2.5L375.7,26.1L375.7,26.1z M367.5,32c-1.3,1-2.6,2.1-3.9,3.1l10.1,12.4
		c1.1-0.9,2.3-1.9,3.5-2.8L367.5,32L367.5,32z M359.8,38.3c-1.3,1.1-2.5,2.2-3.7,3.4L367,53.3c1.1-1,2.2-2,3.3-3L359.8,38.3
		L359.8,38.3z M352.5,45.1c-1.2,1.2-2.3,2.4-3.5,3.6l11.7,11c1-1.1,2.1-2.2,3.1-3.2L352.5,45.1L352.5,45.1z M345.7,52.4
		c-1.1,1.3-2.2,2.5-3.2,3.8l12.3,10.2c0.9-1.1,1.9-2.3,2.9-3.4L345.7,52.4L345.7,52.4z M339.3,60.1c-1,1.3-2,2.7-3,4l13,9.3
		c0.9-1.2,1.8-2.4,2.7-3.6L339.3,60.1L339.3,60.1z M333.5,68.2c-0.9,1.4-1.8,2.8-2.7,4.2l13.6,8.5c0.8-1.3,1.6-2.5,2.4-3.8
		L333.5,68.2L333.5,68.2z M328.2,76.7c-0.8,1.4-1.7,2.9-2.4,4.4l14.1,7.6c0.7-1.3,1.4-2.6,2.2-3.9L328.2,76.7L328.2,76.7z
		 M323.4,85.5c-0.7,1.5-1.5,3-2.1,4.5l14.6,6.6c0.6-1.4,1.3-2.7,1.9-4L323.4,85.5L323.4,85.5z M319.3,94.6c-0.6,1.5-1.3,3.1-1.8,4.6
		l15,5.7c0.5-1.4,1.1-2.8,1.7-4.2L319.3,94.6L319.3,94.6z M315.7,104c-0.5,1.6-1.1,3.2-1.5,4.8l15.3,4.7c0.4-1.4,0.9-2.9,1.4-4.3
		L315.7,104L315.7,104z M312.8,113.5c-0.4,1.6-0.8,3.2-1.2,4.8l15.6,3.7c0.3-1.4,0.7-2.9,1.1-4.3L312.8,113.5L312.8,113.5z
		 M310.5,123.3c-0.3,1.6-0.6,3.3-0.9,4.9l15.8,2.6c0.2-1.5,0.5-2.9,0.8-4.4L310.5,123.3L310.5,123.3z M308.9,133.1
		c-0.2,1.7-0.4,3.3-0.6,5l15.9,1.6c0.1-1.5,0.3-3,0.5-4.4L308.9,133.1L308.9,133.1z M307.9,143.1c-0.1,1.7-0.2,3.3-0.3,5l16,0.5
		c0.1-1.5,0.1-3,0.2-4.5L307.9,143.1L307.9,143.1z M307.6,153.1c0,0.1,0,0.2,0,0.3l0,0c0,1.6,0,3.1,0.1,4.7l16-0.5
		c0-1.5-0.1-3-0.1-4.5L307.6,153.1L307.6,153.1z M323.8,162.1l-16,1c0.1,1.7,0.2,3.3,0.4,5l15.9-1.5
		C324.1,165.1,323.9,163.6,323.8,162.1L323.8,162.1z M324.7,171l-15.9,2c0.2,1.7,0.4,3.3,0.7,4.9l15.8-2.5
		C325.1,174,324.9,172.5,324.7,171L324.7,171z M326.1,179.8l-15.7,3.1c0.3,1.6,0.7,3.3,1,4.9l15.6-3.6
		C326.7,182.8,326.4,181.3,326.1,179.8L326.1,179.8z M328.1,188.6l-15.5,4.1c0.4,1.6,0.9,3.2,1.4,4.8l15.3-4.6
		C328.9,191.4,328.5,190,328.1,188.6L328.1,188.6z M330.7,197.1l-15.2,5.1c0.5,1.6,1.1,3.2,1.7,4.7l15-5.6
		C331.7,199.9,331.2,198.5,330.7,197.1L330.7,197.1z M333.8,205.5l-14.8,6.1c0.6,1.5,1.3,3.1,2,4.6l14.6-6.6
		C335,208.3,334.4,206.9,333.8,205.5L333.8,205.5z M337.5,213.7l-14.4,7c0.7,1.5,1.5,3,2.3,4.5l14.1-7.5
		C338.8,216.3,338.1,215,337.5,213.7L337.5,213.7z M341.7,221.6l-13.9,8c0.8,1.4,1.7,2.9,2.6,4.3l13.6-8.4
		C343.2,224.1,342.4,222.9,341.7,221.6L341.7,221.6z M346.4,229.2l-13.3,8.9c0.9,1.4,1.9,2.8,2.8,4.1l13-9.3
		C348.1,231.7,347.2,230.4,346.4,229.2L346.4,229.2z M351.6,236.5l-12.7,9.7c1,1.3,2,2.6,3.1,3.9l12.4-10.1
		C353.4,238.8,352.5,237.6,351.6,236.5L351.6,236.5z M357.3,243.4l-12.1,10.5c1.1,1.3,2.2,2.5,3.3,3.7l11.7-10.9
		C359.3,245.6,358.2,244.5,357.3,243.4L357.3,243.4z M363.4,250L352,261.2c1.2,1.2,2.4,2.3,3.6,3.5l11-11.6
		C365.5,252.1,364.4,251,363.4,250L363.4,250z M369.9,256.1l-10.6,12c1.2,1.1,2.5,2.2,3.8,3.2l10.2-12.3
		C372.1,258.1,371,257.1,369.9,256.1L369.9,256.1z M376.8,261.8l-9.8,12.7c1.3,1,2.7,2,4,3l9.4-13
		C379.2,263.6,378,262.7,376.8,261.8L376.8,261.8z M384,267.1l-9,13.3c1.4,0.9,2.8,1.8,4.2,2.7l8.5-13.5
		C386.5,268.7,385.3,267.9,384,267.1L384,267.1z M391.6,271.8l-8.1,13.8c0,0.2,1.3,0.7,1.4,0.8c1,0.6,1.9,1.1,2.9,1.6l7.6-14.1
		C394.2,273.3,392.9,272.6,391.6,271.8L391.6,271.8z M399.5,276.1l-7.1,14.3c1.5,0.7,3,1.5,4.5,2.2l6.7-14.5
		C402.2,277.4,400.8,276.8,399.5,276.1L399.5,276.1z M407.6,279.8l-6.2,14.8c1.5,0.6,3.1,1.3,4.6,1.9l5.7-15
		C410.4,281,409,280.4,407.6,279.8L407.6,279.8z M416,283l-5.2,15.1c1.6,0.5,3.2,1.1,4.8,1.5l4.7-15.3
		C418.8,284,417.4,283.5,416,283L416,283z M424.5,285.6l-4.2,15.4c1.6,0.4,3.2,0.8,4.8,1.2l3.7-15.6
		C427.4,286.4,426,286,424.5,285.6L424.5,285.6z M433.2,287.7l-3.2,15.7c1.6,0.3,3.3,0.6,4.9,0.9l2.7-15.8
		C436.2,288.3,434.7,288,433.2,287.7L433.2,287.7z M442.1,289.2l-2.1,15.9c1.7,0.2,3.3,0.4,5,0.6l1.6-15.9
		C445,289.6,443.5,289.4,442.1,289.2L442.1,289.2z M451,290.1l-1.1,16c1.7,0.1,3.3,0.2,5,0.3l0.6-16
		C454,290.3,452.5,290.2,451,290.1L451,290.1z M464.4,290.4c-1.5,0-3,0.1-4.5,0.1l-0.1,16c1.7,0,3.3,0,5-0.1L464.4,290.4
		L464.4,290.4z M473.4,289.8c-1.5,0.1-3,0.3-4.5,0.3l1,16c1.7-0.1,3.3-0.2,5-0.4L473.4,289.8L473.4,289.8z M482.3,288.7
		c-1.5,0.2-3,0.4-4.4,0.6l2,15.9c1.7-0.2,3.3-0.4,5-0.7L482.3,288.7L482.3,288.7z M491.1,287c-1.4,0.3-2.9,0.6-4.4,0.9l3,15.7
		c1.6-0.3,3.3-0.7,4.9-1L491.1,287L491.1,287z M499.7,284.8c-1.4,0.4-2.9,0.8-4.3,1.2l4.1,15.5c1.6-0.4,3.2-0.9,4.8-1.3L499.7,284.8
		L499.7,284.8z M508.2,281.9c-1.4,0.5-2.8,1-4.2,1.5l5.1,15.2c1.6-0.5,3.2-1.1,4.7-1.7L508.2,281.9L508.2,281.9z M516.5,278.5
		c-1.4,0.6-2.7,1.2-4.1,1.8l6.1,14.8c1.5-0.6,3.1-1.3,4.6-2L516.5,278.5L516.5,278.5z M524.5,274.6c-1.3,0.7-2.7,1.4-4,2l7,14.4
		c1.5-0.7,3-1.5,4.5-2.3L524.5,274.6L524.5,274.6z M532.3,270.2c-1.3,0.8-2.6,1.5-3.8,2.3l7.9,13.9c1.4-0.8,2.9-1.7,4.3-2.6
		L532.3,270.2L532.3,270.2z M539.8,265.2c-1.2,0.9-2.5,1.7-3.7,2.5l8.8,13.3c1.4-0.9,2.8-1.9,4.1-2.8L539.8,265.2L539.8,265.2z
		 M546.9,259.8c-1.2,0.9-2.3,1.9-3.5,2.8l9.7,12.7c1.3-1,2.6-2,3.9-3.1L546.9,259.8L546.9,259.8z M553.7,253.9c-1.1,1-2.2,2-3.3,3
		l10.5,12.1c1.3-1.1,2.5-2.2,3.7-3.3L553.7,253.9L553.7,253.9z M560,247.6c-1,1.1-2.1,2.2-3.1,3.2l11.2,11.4
		c1.2-1.2,2.4-2.4,3.5-3.6L560,247.6L560,247.6z M566,240.9c-1,1.1-1.9,2.3-2.9,3.4l12,10.6c1.1-1.2,2.2-2.5,3.3-3.8L566,240.9
		L566,240.9z M571.5,233.9c-0.9,1.2-1.8,2.4-2.7,3.6l12.6,9.8c1-1.3,2-2.6,3-4L571.5,233.9L571.5,233.9z M576.5,226.5
		c-0.8,1.3-1.6,2.5-2.5,3.7l13.2,9c0.9-1.4,1.8-2.8,2.7-4.2L576.5,226.5L576.5,226.5z M581,218.7c-0.7,1.3-1.4,2.6-2.2,3.9l13.8,8.1
		c0.8-1.4,1.7-2.9,2.5-4.4L581,218.7L581,218.7z M585,210.7c-0.6,1.3-1.3,2.7-1.9,4l14.3,7.2c0.7-1.5,1.5-3,2.2-4.5L585,210.7
		L585,210.7z M588.5,202.5c-0.5,1.4-1.1,2.8-1.7,4.1l14.7,6.2c0.6-1.5,1.3-3.1,1.9-4.6L588.5,202.5L588.5,202.5z M591.4,194.1
		c-0.4,1.4-0.9,2.8-1.4,4.2l15.1,5.2c0.5-1.6,1.1-3.2,1.6-4.8L591.4,194.1L591.4,194.1z M593.8,185.4c-0.3,1.4-0.7,2.9-1.1,4.3
		l15.4,4.2c0.4-1.6,0.9-3.2,1.2-4.8L593.8,185.4L593.8,185.4z M595.6,176.7c-0.2,1.5-0.5,2.9-0.8,4.4l15.7,3.2
		c0.3-1.6,0.6-3.3,0.9-4.9L595.6,176.7L595.6,176.7z M596.8,167.8c-0.2,1.5-0.3,3-0.5,4.4l15.9,2.2c0.2-1.7,0.4-3.3,0.6-5
		L596.8,167.8L596.8,167.8z M597.5,158.9c-0.1,1.5-0.1,3-0.2,4.5l16,1.1c0.1-1.7,0.2-3.3,0.3-5L597.5,158.9L597.5,158.9z
		 M613.5,149.5l-16,0.4c0,1.5,0.1,3,0,4.5l16,0.1C613.6,152.8,613.6,151.1,613.5,149.5L613.5,149.5z M612.9,139.5l-15.9,1.4
		c0.1,1.5,0.2,3,0.3,4.5l16-0.9C613.2,142.8,613.1,141.1,612.9,139.5L612.9,139.5z M611.7,129.6l-15.8,2.5c0.2,1.5,0.4,3,0.6,4.4
		l15.9-2C612.2,132.9,612,131.2,611.7,129.6z M609.8,119.7l-15.6,3.5c0.3,1.4,0.6,2.9,0.9,4.4l15.7-3
		C610.5,123,610.2,121.4,609.8,119.7L609.8,119.7z M607.3,110.1l-15.3,4.5c0.4,1.4,0.8,2.9,1.2,4.3l15.5-4
		C608.2,113.3,607.8,111.7,607.3,110.1L607.3,110.1z M604.2,100.6l-15,5.5c0.5,1.4,1,2.8,1.5,4.2l15.2-5
		C605.3,103.7,604.8,102.1,604.2,100.6L604.2,100.6z M600.4,91.3l-14.6,6.5c0.6,1.4,1.2,2.7,1.8,4.1l14.8-6
		C601.8,94.4,601.1,92.8,600.4,91.3L600.4,91.3z M596.1,82.3l-14.2,7.4c0.7,1.3,1.4,2.7,2,4l14.4-7
		C597.6,85.3,596.8,83.8,596.1,82.3L596.1,82.3z M591.1,73.6L577.5,82c0.8,1.3,1.5,2.6,2.3,3.9l13.9-7.9
		C592.8,76.5,592,75,591.1,73.6L591.1,73.6z M585.6,65.3l-13.1,9.2c0.9,1.2,1.7,2.5,2.5,3.7l13.4-8.8
		C587.5,68,586.6,66.6,585.6,65.3z M579.6,57.3l-12.4,10.1c0.9,1.2,1.9,2.3,2.8,3.5l12.8-9.7C581.7,59.9,580.6,58.6,579.6,57.3
		L579.6,57.3z M573.1,49.7l-11.8,10.8c1,1.1,2,2.2,3,3.3l12.1-10.5C575.3,52.2,574.2,51,573.1,49.7L573.1,49.7z M566,42.6l-11,11.6
		c1.1,1,2.2,2.1,3.2,3.1l11.4-11.2C568.4,44.9,567.3,43.8,566,42.6L566,42.6z M558.6,36l-10.3,12.3c1.1,1,2.3,1.9,3.4,2.9l10.7-11.9
		C561.1,38.1,559.9,37,558.6,36L558.6,36z M550.7,29.8l-9.4,12.9c1.2,0.9,2.4,1.8,3.6,2.7l9.9-12.6
		C553.4,31.8,552.1,30.8,550.7,29.8L550.7,29.8z M542.4,24.2l-8.6,13.5c1.3,0.8,2.5,1.6,3.7,2.5l9-13.2
		C545.2,26,543.9,25.1,542.4,24.2z M533.8,19.1l-7.7,14c1.3,0.7,2.6,1.5,3.9,2.2l8.1-13.8C536.7,20.7,535.3,19.9,533.8,19.1z
		 M524.9,14.6l-6.7,14.5c1.3,0.6,2.7,1.3,4,2l7.2-14.3C527.9,16,526.4,15.3,524.9,14.6L524.9,14.6z M515.7,10.7l-5.8,14.9
		c1.4,0.5,2.8,1.1,4.1,1.7l6.3-14.7C518.8,11.9,517.3,11.3,515.7,10.7L515.7,10.7z M506.3,7.4l-4.8,15.3c1.4,0.4,2.8,0.9,4.2,1.4
		L511,8.9C509.4,8.4,507.9,7.9,506.3,7.4L506.3,7.4z M496.6,4.7l-3.8,15.6c1.4,0.3,2.9,0.7,4.3,1.1L501.5,6
		C499.9,5.5,498.2,5.1,496.6,4.7z M486.8,2.7l-2.7,15.8c1.5,0.3,2.9,0.5,4.4,0.8l3.2-15.7C490.1,3.3,488.5,3,486.8,2.7L486.8,2.7z
		 M476.9,1.3l-1.7,15.9c1.5,0.2,3,0.3,4.4,0.5l2.2-15.8C480.2,1.7,478.6,1.5,476.9,1.3L476.9,1.3z M467,0.6l-0.7,16
		c1.5,0.1,3,0.1,4.5,0.3l1.2-16c-0.5,0-1-0.1-1.6-0.1C469.3,0.7,468.1,0.6,467,0.6L467,0.6z"/>
</g>
<g>
	<path class="st7" d="M768.4,0.2c-1.7,0-3.3,0-5,0.1l0.5,16c1.5,0,3-0.1,4.5-0.1V0.2L768.4,0.2L768.4,0.2z M757.5,0.6
		c-1.7,0.1-3.3,0.2-5,0.4l1.5,15.9c1.5-0.1,3-0.3,4.5-0.4L757.5,0.6L757.5,0.6z M747.6,1.5c-1.7,0.2-3.3,0.5-4.9,0.7l2.6,15.8
		c1.5-0.2,3-0.5,4.4-0.7L747.6,1.5L747.6,1.5z M737.7,3.1c-1.6,0.3-3.3,0.7-4.9,1l3.6,15.6c1.4-0.3,2.9-0.7,4.4-0.9L737.7,3.1
		L737.7,3.1z M727.9,5.4c-1.6,0.4-3.2,0.9-4.8,1.4l4.6,15.3c1.4-0.4,2.9-0.8,4.3-1.2L727.9,5.4L727.9,5.4z M718.4,8.3
		c-1.6,0.5-3.1,1.1-4.7,1.7l5.6,15c1.4-0.5,2.8-1,4.2-1.5L718.4,8.3L718.4,8.3z M709,11.8c-1.5,0.6-3.1,1.3-4.6,2l6.6,14.6
		c1.4-0.6,2.7-1.2,4.1-1.8L709,11.8L709,11.8z M699.9,15.9c-1.5,0.7-3,1.5-4.4,2.3l7.5,14.1c1.3-0.7,2.6-1.4,4-2L699.9,15.9
		L699.9,15.9z M691.1,20.7c-1.4,0.8-2.9,1.7-4.3,2.6l8.5,13.6c1.3-0.8,2.6-1.6,3.8-2.3L691.1,20.7L691.1,20.7z M682.6,25.9
		c-1.4,0.9-2.8,1.9-4.1,2.8l9.3,13c1.2-0.9,2.4-1.7,3.7-2.5L682.6,25.9L682.6,25.9z M674.5,31.8c-1.3,1-2.6,2.1-3.9,3.1l10.1,12.4
		c1.1-0.9,2.3-1.9,3.5-2.8L674.5,31.8L674.5,31.8z M666.7,38.1c-1.3,1.1-2.5,2.2-3.7,3.4L674,53.1c1.1-1,2.2-2,3.3-3L666.7,38.1
		L666.7,38.1z M659.4,44.9c-1.2,1.2-2.3,2.4-3.5,3.6l11.7,11c1-1.1,2.1-2.2,3.1-3.2L659.4,44.9L659.4,44.9z M652.6,52.2
		c-1.1,1.3-2.2,2.5-3.2,3.8l12.3,10.2c0.9-1.1,1.9-2.3,2.9-3.4L652.6,52.2L652.6,52.2z M646.2,59.9c-1,1.3-2,2.7-3,4l13,9.3
		c0.9-1.2,1.8-2.4,2.7-3.6L646.2,59.9L646.2,59.9z M640.4,68c-0.9,1.4-1.8,2.8-2.7,4.2l13.6,8.5c0.8-1.3,1.6-2.5,2.4-3.8L640.4,68
		L640.4,68z M635.1,76.5c-0.8,1.4-1.7,2.9-2.4,4.4l14.1,7.6c0.7-1.3,1.4-2.6,2.2-3.9L635.1,76.5L635.1,76.5z M630.4,85.3
		c-0.7,1.5-1.5,3-2.1,4.5l14.6,6.6c0.6-1.4,1.3-2.7,1.9-4L630.4,85.3L630.4,85.3z M626.2,94.4c-0.6,1.5-1.3,3.1-1.8,4.6l15,5.7
		c0.5-1.4,1.1-2.8,1.7-4.2L626.2,94.4L626.2,94.4z M622.7,103.8c-0.5,1.6-1.1,3.2-1.5,4.8l15.3,4.7c0.4-1.4,0.9-2.9,1.4-4.3
		L622.7,103.8L622.7,103.8z M619.8,113.3c-0.4,1.6-0.8,3.2-1.2,4.8l15.6,3.7c0.3-1.4,0.7-2.9,1.1-4.3L619.8,113.3L619.8,113.3z
		 M617.5,123.1c-0.3,1.6-0.6,3.3-0.9,4.9l15.8,2.6c0.2-1.5,0.5-2.9,0.8-4.4L617.5,123.1L617.5,123.1z M615.8,132.9
		c-0.2,1.7-0.4,3.3-0.6,5l15.9,1.6c0.1-1.5,0.3-3,0.5-4.4L615.8,132.9L615.8,132.9z M614.9,142.9c-0.1,1.7-0.2,3.3-0.3,5l16,0.5
		c0.1-1.5,0.1-3,0.2-4.5L614.9,142.9L614.9,142.9z M614.5,152.9c0,0.1,0,0.2,0,0.3l0,0c0,1.6,0,3.1,0.1,4.7l16-0.5
		c0-1.5-0.1-3-0.1-4.5L614.5,152.9L614.5,152.9z M630.8,161.9l-16,1c0.1,1.7,0.2,3.3,0.4,5l15.9-1.5
		C631,164.9,630.9,163.4,630.8,161.9L630.8,161.9z M631.6,170.8l-15.9,2c0.2,1.7,0.4,3.3,0.7,4.9l15.8-2.5
		C632,173.8,631.8,172.3,631.6,170.8L631.6,170.8z M633,179.6l-15.7,3.1c0.3,1.6,0.7,3.3,1,4.9L634,184
		C633.6,182.6,633.3,181.1,633,179.6L633,179.6z M635,188.4l-15.5,4.1c0.4,1.6,0.9,3.2,1.4,4.8l15.3-4.6
		C635.8,191.2,635.4,189.8,635,188.4L635,188.4z M637.6,196.9l-15.2,5.1c0.5,1.6,1.1,3.2,1.7,4.7l15-5.6
		C638.6,199.8,638.1,198.3,637.6,196.9L637.6,196.9z M640.7,205.3l-14.8,6.1c0.6,1.5,1.3,3.1,2,4.6l14.6-6.6
		C641.9,208.1,641.3,206.7,640.7,205.3L640.7,205.3z M644.4,213.5l-14.4,7c0.7,1.5,1.5,3,2.3,4.5l14.1-7.5
		C645.8,216.1,645.1,214.8,644.4,213.5L644.4,213.5z M648.6,221.4l-13.9,8c0.8,1.4,1.7,2.9,2.6,4.3l13.6-8.4
		C650.1,223.9,649.4,222.7,648.6,221.4L648.6,221.4z M653.3,229l-13.3,8.9c0.9,1.4,1.9,2.8,2.8,4.1l13-9.3
		C655,231.5,654.2,230.2,653.3,229L653.3,229z M658.5,236.3l-12.7,9.7c1,1.3,2,2.6,3.1,3.9l12.4-10.1
		C660.4,238.6,659.4,237.5,658.5,236.3L658.5,236.3z M664.2,243.2l-12.1,10.5c1.1,1.3,2.2,2.5,3.3,3.7l11.7-10.9
		C666.2,245.5,665.2,244.3,664.2,243.2L664.2,243.2z M670.3,249.8L658.9,261c1.2,1.2,2.4,2.3,3.6,3.5l11-11.6
		C672.4,251.9,671.3,250.8,670.3,249.8L670.3,249.8z M676.8,255.9l-10.6,12c1.2,1.1,2.5,2.2,3.8,3.2l10.2-12.3
		C679.1,257.9,677.9,256.9,676.8,255.9L676.8,255.9z M683.7,261.6l-9.8,12.7c1.3,1,2.7,2,4,3l9.4-13
		C686.1,263.4,684.9,262.5,683.7,261.6L683.7,261.6z M691,266.9l-9,13.3c1.4,0.9,2.8,1.8,4.2,2.7l8.5-13.5
		C693.5,268.5,692.2,267.7,691,266.9L691,266.9z M698.6,271.6l-8.1,13.8c0,0.2,1.3,0.7,1.4,0.8c1,0.6,1.9,1.1,2.9,1.6l7.6-14.1
		C701.2,273.1,699.8,272.4,698.6,271.6L698.6,271.6z M706.4,275.9l-7.1,14.3c1.5,0.7,3,1.5,4.5,2.2l6.7-14.5
		C709.1,277.2,707.8,276.6,706.4,275.9L706.4,275.9z M714.6,279.6l-6.2,14.8c1.5,0.6,3.1,1.3,4.6,1.9l5.7-15
		C717.3,280.8,715.9,280.2,714.6,279.6L714.6,279.6z M722.9,282.8l-5.2,15.1c1.6,0.5,3.2,1.1,4.8,1.5l4.7-15.3
		C725.8,283.8,724.3,283.3,722.9,282.8L722.9,282.8z M731.5,285.4l-4.2,15.4c1.6,0.4,3.2,0.8,4.8,1.2l3.7-15.6
		C734.4,286.2,732.9,285.8,731.5,285.4L731.5,285.4z M740.2,287.5l-3.2,15.7c1.6,0.3,3.3,0.6,4.9,0.9l2.7-15.8
		C743.1,288.1,741.6,287.8,740.2,287.5L740.2,287.5z M749,289l-2.1,15.9c1.7,0.2,3.3,0.4,5,0.6l1.6-15.9
		C752,289.4,750.5,289.2,749,289L749,289z M757.9,289.9l-1.1,16c1.7,0.1,3.3,0.2,5,0.3l0.6-16C760.9,290.1,759.4,290,757.9,289.9
		L757.9,289.9z M771.4,290.2c-1.5,0-3,0.1-4.5,0.1l-0.1,16c1.7,0,3.3,0,5-0.1L771.4,290.2L771.4,290.2z M780.3,289.6
		c-1.5,0.1-3,0.3-4.5,0.3l1,16c1.7-0.1,3.3-0.2,5-0.4L780.3,289.6L780.3,289.6z M789.2,288.5c-1.5,0.2-3,0.4-4.4,0.6l2,15.9
		c1.7-0.2,3.3-0.4,5-0.7L789.2,288.5L789.2,288.5z M798,286.8c-1.4,0.3-2.9,0.6-4.4,0.9l3,15.7c1.6-0.3,3.3-0.7,4.9-1L798,286.8
		L798,286.8z M806.6,284.6c-1.4,0.4-2.9,0.8-4.3,1.2l4.1,15.5c1.6-0.4,3.2-0.9,4.8-1.3L806.6,284.6L806.6,284.6z M815.1,281.7
		c-1.4,0.5-2.8,1-4.2,1.5l5.1,15.2c1.6-0.5,3.2-1.1,4.7-1.7L815.1,281.7L815.1,281.7z M823.4,278.3c-1.4,0.6-2.7,1.2-4.1,1.8
		l6.1,14.8c1.5-0.6,3.1-1.3,4.6-2L823.4,278.3L823.4,278.3z M831.4,274.4c-1.3,0.7-2.7,1.4-4,2l7,14.4c1.5-0.7,3-1.5,4.5-2.3
		L831.4,274.4L831.4,274.4z M839.2,270c-1.3,0.8-2.6,1.5-3.8,2.3l7.9,13.9c1.4-0.8,2.9-1.7,4.3-2.6L839.2,270L839.2,270z M846.7,265
		c-1.2,0.9-2.5,1.7-3.7,2.5l8.8,13.3c1.4-0.9,2.8-1.9,4.1-2.8L846.7,265L846.7,265z M853.8,259.6c-1.2,0.9-2.3,1.9-3.5,2.8l9.7,12.7
		c1.3-1,2.6-2,3.9-3.1L853.8,259.6L853.8,259.6z M860.6,253.7c-1.1,1-2.2,2-3.3,3l10.5,12.1c1.3-1.1,2.5-2.2,3.7-3.3L860.6,253.7
		L860.6,253.7z M867,247.5c-1,1.1-2.1,2.2-3.1,3.2l11.2,11.4c1.2-1.2,2.4-2.4,3.5-3.6L867,247.5L867,247.5z M872.9,240.8
		c-1,1.1-1.9,2.3-2.9,3.4l12,10.6c1.1-1.2,2.2-2.5,3.3-3.8L872.9,240.8L872.9,240.8z M878.4,233.7c-0.9,1.2-1.8,2.4-2.7,3.6
		l12.6,9.8c1-1.3,2-2.6,3-4L878.4,233.7L878.4,233.7z M883.4,226.3c-0.8,1.3-1.6,2.5-2.5,3.7l13.2,9c0.9-1.4,1.8-2.8,2.7-4.2
		L883.4,226.3L883.4,226.3z M888,218.5c-0.7,1.3-1.4,2.6-2.2,3.9l13.8,8.1c0.8-1.4,1.7-2.9,2.5-4.4L888,218.5L888,218.5z M892,210.6
		c-0.6,1.3-1.3,2.7-1.9,4l14.3,7.2c0.7-1.5,1.5-3,2.2-4.5L892,210.6L892,210.6z M895.4,202.3c-0.5,1.4-1.1,2.8-1.7,4.1l14.7,6.2
		c0.6-1.5,1.3-3.1,1.9-4.6L895.4,202.3L895.4,202.3z M898.4,193.9c-0.4,1.4-0.9,2.8-1.4,4.2l15.1,5.2c0.5-1.6,1.1-3.2,1.6-4.8
		L898.4,193.9L898.4,193.9z M900.7,185.2c-0.3,1.4-0.7,2.9-1.1,4.3l15.4,4.2c0.4-1.6,0.9-3.2,1.2-4.8L900.7,185.2L900.7,185.2z
		 M902.5,176.5c-0.2,1.5-0.5,2.9-0.8,4.4l15.7,3.2c0.3-1.6,0.6-3.3,0.9-4.9L902.5,176.5L902.5,176.5z M903.8,167.6
		c-0.2,1.5-0.3,3-0.5,4.4l15.9,2.2c0.2-1.7,0.4-3.3,0.6-5L903.8,167.6L903.8,167.6z M904.4,158.7c-0.1,1.5-0.1,3-0.2,4.5l16,1.1
		c0.1-1.7,0.2-3.3,0.3-5L904.4,158.7L904.4,158.7z M920.4,149.3l-16,0.4c0,1.5,0.1,3,0,4.5l16,0.1
		C920.5,152.6,920.5,150.9,920.4,149.3L920.4,149.3z M919.9,139.3l-15.9,1.4c0.1,1.5,0.2,3,0.3,4.5l16-0.9
		C920.1,142.6,920,140.9,919.9,139.3L919.9,139.3z M918.6,129.4l-15.8,2.5c0.2,1.5,0.4,3,0.6,4.4l15.9-2
		C919.1,132.7,918.9,131,918.6,129.4z M916.8,119.6l-15.6,3.5c0.3,1.4,0.6,2.9,0.9,4.4l15.7-3C917.5,122.8,917.1,121.2,916.8,119.6
		L916.8,119.6z M914.3,109.9l-15.3,4.5c0.4,1.4,0.8,2.9,1.2,4.3l15.5-4C915.2,113.1,914.7,111.5,914.3,109.9L914.3,109.9z
		 M911.1,100.4l-15,5.5c0.5,1.4,1,2.8,1.5,4.2l15.2-5C912.2,103.5,911.7,101.9,911.1,100.4L911.1,100.4z M907.4,91.1l-14.6,6.5
		c0.6,1.4,1.2,2.7,1.8,4.1l14.8-6C908.7,94.2,908,92.6,907.4,91.1L907.4,91.1z M903,82.1l-14.2,7.4c0.7,1.3,1.4,2.7,2,4l14.4-7
		C904.5,85.1,903.8,83.6,903,82.1L903,82.1z M898.1,73.4l-13.6,8.4c0.8,1.3,1.5,2.6,2.3,3.9l13.9-7.9
		C899.8,76.3,898.9,74.8,898.1,73.4L898.1,73.4z M892.6,65.1l-13.1,9.2c0.9,1.2,1.7,2.5,2.5,3.7l13.4-8.8
		C894.5,67.8,893.5,66.4,892.6,65.1z M886.5,57.1l-12.4,10.1c0.9,1.2,1.9,2.3,2.8,3.5l12.8-9.7C888.6,59.7,887.6,58.4,886.5,57.1
		L886.5,57.1z M880,49.5l-11.8,10.8c1,1.1,2,2.2,3,3.3l12.1-10.5C882.2,52,881.1,50.8,880,49.5L880,49.5z M873,42.4l-11,11.6
		c1.1,1,2.2,2.1,3.2,3.1l11.4-11.2C875.4,44.7,874.2,43.6,873,42.4L873,42.4z M865.5,35.8L855.3,48c1.1,1,2.3,1.9,3.4,2.9L869.3,39
		C868.1,37.9,866.8,36.8,865.5,35.8L865.5,35.8z M857.6,29.6l-9.4,12.9c1.2,0.9,2.4,1.8,3.6,2.7l9.9-12.6
		C860.3,31.6,859,30.6,857.6,29.6L857.6,29.6z M849.4,24l-8.6,13.5c1.3,0.8,2.5,1.6,3.7,2.5l9-13.2C852.2,25.8,850.8,24.9,849.4,24z
		 M840.8,18.9l-7.7,14c1.3,0.7,2.6,1.5,3.9,2.2l8.1-13.8C843.7,20.5,842.2,19.7,840.8,18.9z M831.8,14.4l-6.7,14.5
		c1.3,0.6,2.7,1.3,4,2l7.2-14.3C834.8,15.8,833.3,15.1,831.8,14.4L831.8,14.4z M822.6,10.5l-5.8,14.9c1.4,0.5,2.8,1.1,4.1,1.7
		l6.3-14.7C825.7,11.7,824.2,11.1,822.6,10.5L822.6,10.5z M813.2,7.2l-4.8,15.3c1.4,0.4,2.8,0.9,4.2,1.4l5.3-15.1
		C816.4,8.2,814.8,7.7,813.2,7.2L813.2,7.2z M803.6,4.5l-3.8,15.6c1.4,0.3,2.9,0.7,4.3,1.1l4.3-15.4C806.8,5.3,805.2,4.9,803.6,4.5z
		 M793.8,2.5L791,18.3c1.5,0.3,2.9,0.5,4.4,0.8l3.2-15.7C797,3.1,795.4,2.8,793.8,2.5L793.8,2.5z M783.9,1.1L782.2,17
		c1.5,0.2,3,0.3,4.4,0.5l2.2-15.8C787.2,1.5,785.5,1.3,783.9,1.1L783.9,1.1z M773.9,0.4l-0.7,16c1.5,0.1,3,0.1,4.5,0.3l1.2-16
		c-0.5,0-1-0.1-1.6-0.1C776.2,0.5,775,0.4,773.9,0.4L773.9,0.4z"/>
</g>
</svg>
