<?xml version="1.0" encoding="utf-8"?>
<!-- Generator: Adobe Illustrator 19.2.1, SVG Export Plug-In . SVG Version: 6.00 Build 0)  -->
<svg version="1.1" id="レイヤー_1" xmlns="http://www.w3.org/2000/svg" xmlns:xlink="http://www.w3.org/1999/xlink" x="0px"
	 y="0px" viewBox="0 0 550 1083" style="enable-background:new 0 0 550 1083;" xml:space="preserve">
<style type="text/css">
	.st0{fill:#00C1B7;}
	.st1{fill:#8C3123;}
	.st2{fill:#E05243;}
	.st3{fill:#5E1F18;}
	.st4{fill:#F2B0A9;}
	.st5{fill:#1B2B79;}
	.st6{fill:#3A3A3A;}
	.st7{fill:none;stroke:#00C1B7;stroke-miterlimit:10;}
	.st8{fill:#FFFFFF;}
</style>
<g>
	<g>
		<path class="st0" d="M56.2,81.2L43.8,71.1c-1,1.3-2.1,2.6-3.1,3.9l12.7,9.8C54.3,83.6,55.2,82.4,56.2,81.2z"/>
		<path class="st0" d="M62.2,74.2L50.3,63.5c-1.1,1.2-2.2,2.5-3.3,3.8l12.2,10.4C60.1,76.5,61.1,75.4,62.2,74.2z"/>
		<path class="st0" d="M68.5,67.6L57.2,56.3c-1.2,1.2-2.3,2.4-3.5,3.6l11.6,11C66.3,69.8,67.4,68.7,68.5,67.6z"/>
		<path class="st0" d="M50.6,88.5l-12.9-9.4c-1,1.3-1.9,2.7-2.9,4.1L48,92.2C48.8,91,49.7,89.7,50.6,88.5z"/>
		<path class="st0" d="M45.4,96L32,87.3c-0.9,1.4-1.8,2.8-2.7,4.2L43,99.9C43.8,98.6,44.6,97.3,45.4,96z"/>
		<path class="st0" d="M25.7,245.4l-15.2,4.9c0.5,1.6,1,3.2,1.6,4.7l15.1-5.3C26.7,248.3,26.2,246.8,25.7,245.4z"/>
		<path class="st0" d="M82.1,55.3L72,42.9c-1.3,1.1-2.6,2.1-3.8,3.2l10.4,12.2C79.7,57.3,80.9,56.3,82.1,55.3z"/>
		<path class="st0" d="M112.8,35.4l-7.3-14.3c-1.5,0.8-3,1.5-4.4,2.3l7.6,14.1C110,36.8,111.4,36.1,112.8,35.4z"/>
		<path class="st0" d="M129.5,27.9L123.7,13c-1.6,0.6-3.1,1.2-4.6,1.9l6.1,14.8C126.6,29,128.1,28.5,129.5,27.9z"/>
		<path class="st0" d="M104.7,39.8l-8-13.8c-1.4,0.8-2.9,1.7-4.3,2.6l8.4,13.6C102.1,41.3,103.4,40.5,104.7,39.8z"/>
		<path class="st0" d="M36.2,111.9L22,104.6c-0.8,1.5-1.5,3-2.2,4.5l14.4,6.9C34.9,114.6,35.6,113.2,36.2,111.9z"/>
		<path class="st0" d="M96.9,44.6l-8.7-13.4c-1.4,0.9-2.8,1.8-4.2,2.8l9.1,13.2C94.4,46.2,95.6,45.4,96.9,44.6z"/>
		<path class="st0" d="M75.1,61.3L64.4,49.4c-1.2,1.1-2.5,2.2-3.7,3.4l11,11.6C72.9,63.4,74,62.3,75.1,61.3z"/>
		<path class="st0" d="M89.4,49.8l-9.4-12.9c-1.3,1-2.7,2-4,3l9.7,12.7C86.9,51.6,88.1,50.6,89.4,49.8z"/>
		<path class="st0" d="M121,31.4l-6.5-14.6c-1.5,0.7-3,1.4-4.5,2.1l6.9,14.4C118.2,32.7,119.6,32.1,121,31.4z"/>
		<path class="st0" d="M17.4,200.5l-16,0.8c0.1,1.7,0.2,3.3,0.3,5l16-1.2C17.6,203.5,17.5,202,17.4,200.5z"/>
		<path class="st0" d="M18.1,209.6l-15.9,1.6c0.2,1.7,0.4,3.3,0.6,5l15.9-2.1C18.5,212.7,18.3,211.1,18.1,209.6z"/>
		<path class="st0" d="M17.2,191.4L17.2,191.4l-16-0.1c0,1.7,0,3.3,0.1,5l16-0.4C17.2,194.4,17.2,192.9,17.2,191.4z"/>
		<path class="st0" d="M19.3,218.7l-15.8,2.5c0.3,1.7,0.5,3.3,0.8,4.9l15.7-2.9C19.8,221.7,19.6,220.2,19.3,218.7z"/>
		<path class="st0" d="M23.1,236.6l-15.5,4.1c0.4,1.6,0.9,3.2,1.4,4.8l15.3-4.5C23.9,239.6,23.5,238.1,23.1,236.6z"/>
		<path class="st0" d="M21,227.7L5.3,231c0.3,1.6,0.7,3.3,1.1,4.9l15.6-3.7C21.6,230.7,21.3,229.2,21,227.7z"/>
		<path class="st0" d="M32.3,120.1l-14.6-6.5c-0.7,1.5-1.3,3.1-2,4.6l14.8,6.1C31.1,122.9,31.7,121.5,32.3,120.1z"/>
		<path class="st0" d="M17.4,182.1l-16-0.8c-0.1,1.7-0.2,3.3-0.2,5l16,0.4C17.3,185.2,17.4,183.7,17.4,182.1z"/>
		<path class="st0" d="M25.7,137.2l-15.2-4.9c-0.5,1.6-1,3.2-1.5,4.8l15.3,4.5C24.8,140.1,25.3,138.7,25.7,137.2z"/>
		<path class="st0" d="M23.1,146l-15.5-4.1c-0.4,1.6-0.8,3.2-1.2,4.8l15.6,3.7C22.4,149,22.7,147.5,23.1,146z"/>
		<path class="st0" d="M2.2,171.3C2.2,171.3,2.2,171.3,2.2,171.3L2.2,171.3z"/>
		<path class="st0" d="M28.8,128.6l-14.9-5.7c-0.6,1.6-1.2,3.1-1.7,4.7l15.1,5.3C27.7,131.5,28.2,130,28.8,128.6z"/>
		<path class="st0" d="M21,154.9l-15.7-3.3c-0.3,1.6-0.7,3.3-1,4.9l15.7,2.9C20.4,157.9,20.7,156.4,21,154.9z"/>
		<path class="st0" d="M19.3,163.9l-15.8-2.5c-0.3,1.6-0.5,3.3-0.7,4.9l15.9,2.1C18.9,166.9,19.1,165.4,19.3,163.9z"/>
		<path class="st0" d="M40.6,103.8l-13.8-8c-0.8,1.4-1.7,2.9-2.4,4.4l14.1,7.6C39.1,106.5,39.9,105.1,40.6,103.8z"/>
		<path class="st0" d="M339.1,96.2l13.4-8.7c-0.9-1.4-1.8-2.8-2.8-4.2l-13.2,9.1C337.4,93.6,338.3,94.9,339.1,96.2z"/>
		<path class="st0" d="M343.9,104l13.9-8c-0.8-1.4-1.7-2.9-2.6-4.3l-13.6,8.4C342.3,101.4,343.1,102.7,343.9,104z"/>
		<path class="st0" d="M346.1,108c0.7,1.3,1.4,2.7,2.1,4.1l14.3-7.3c-0.8-1.5-1.5-3-2.3-4.4L346.1,108z"/>
		<path class="st0" d="M328.3,81.4l12.4-10.1c-1-1.3-2.1-2.6-3.2-3.8l-12.2,10.4C326.4,79,327.4,80.2,328.3,81.4z"/>
		<path class="st0" d="M322.4,74.4l11.9-10.7c-1.1-1.2-2.2-2.5-3.4-3.7l-11.6,11C320.3,72.1,321.4,73.3,322.4,74.4z"/>
		<path class="st0" d="M316.1,67.7l11.3-11.3c-1.2-1.2-2.4-2.3-3.6-3.5l-11,11.6C313.9,65.6,315,66.7,316.1,67.7z"/>
		<path class="st0" d="M352.2,120.3l14.6-6.5c-0.7-1.5-1.4-3-2.1-4.5l-14.4,6.9C350.9,117.5,351.6,118.9,352.2,120.3z"/>
		<path class="st0" d="M333.9,88.6l12.9-9.4c-1-1.3-2-2.7-3-4L331.2,85C332.1,86.2,333,87.4,333.9,88.6z"/>
		<path class="st0" d="M365.7,168.7c0.2,1.5,0.4,3,0.5,4.6l15.9-1.6c-0.2-1.7-0.4-3.3-0.6-5L365.7,168.7z"/>
		<path class="st0" d="M367,182.3l16-0.8c-0.1-1.7-0.2-3.3-0.3-5l-16,1.2C366.8,179.3,366.9,180.8,367,182.3z"/>
		<path class="st0" d="M365.1,164.1l15.8-2.5c-0.3-1.6-0.5-3.3-0.8-4.9l-15.7,2.9C364.6,161.1,364.9,162.6,365.1,164.1z"/>
		<path class="st0" d="M361.3,146.2l15.5-4.1c-0.4-1.6-0.9-3.2-1.3-4.8l-15.3,4.5C360.5,143.3,360.9,144.7,361.3,146.2z"/>
		<path class="st0" d="M363.4,155.1l15.7-3.3c-0.3-1.6-0.7-3.3-1.1-4.9l-15.6,3.7C362.8,152.1,363.1,153.6,363.4,155.1z"/>
		<path class="st0" d="M358.7,137.4l15.2-4.9c-0.5-1.6-1-3.2-1.6-4.7l-15.1,5.3C357.8,134.5,358.3,136,358.7,137.4z"/>
		<path class="st0" d="M355.7,128.8l14.9-5.7c-0.6-1.6-1.2-3.1-1.8-4.6l-14.8,6.1C354.6,125.9,355.1,127.4,355.7,128.8z"/>
		<path class="st0" d="M309.4,61.4l10.7-11.9c-1.2-1.1-2.5-2.2-3.8-3.3L306,58.4C307.1,59.4,308.3,60.4,309.4,61.4z"/>
		<path class="st0" d="M250.8,26.4c1.4,0.5,2.9,1,4.3,1.6l5.8-14.9c-1.6-0.6-3.1-1.2-4.7-1.7L250.8,26.4z"/>
		<path class="st0" d="M241.9,6.9c-1.6-0.4-3.2-0.8-4.8-1.2l-3.7,15.6c1.5,0.4,3,0.7,4.4,1.1L241.9,6.9z"/>
		<path class="st0" d="M251.4,9.7c-1.6-0.5-3.2-1-4.8-1.5l-4.6,15.3c1.5,0.4,2.9,0.9,4.4,1.4L251.4,9.7z"/>
		<path class="st0" d="M232.1,4.5c-1.6-0.3-3.3-0.7-4.9-1l-2.9,15.7c1.5,0.3,3,0.6,4.5,0.9L232.1,4.5z"/>
		<path class="st0" d="M202.4,0.6c-1.7-0.1-3.3-0.2-5-0.2l-0.4,16c1.5,0,3.1,0.1,4.6,0.2L202.4,0.6z"/>
		<path class="st0" d="M212.4,1.4c-1.7-0.2-3.3-0.3-5-0.5l-1.3,16c1.5,0.1,3.1,0.3,4.6,0.4L212.4,1.4z"/>
		<path class="st0" d="M222.3,2.7c-1.6-0.3-3.3-0.5-4.9-0.7l-2.1,15.9c1.5,0.2,3,0.4,4.5,0.7L222.3,2.7z"/>
		<path class="st0" d="M279.9,39.9l8-13.8c-1.4-0.8-2.9-1.7-4.4-2.5l-7.7,14C277.2,38.3,278.6,39.1,279.9,39.9z"/>
		<path class="st0" d="M295.2,49.9l9.4-12.9c-1.3-1-2.7-1.9-4.1-2.9l-9.1,13.2C292.7,48.1,294,49,295.2,49.9z"/>
		<path class="st0" d="M287.7,44.7l8.7-13.4c-1.4-0.9-2.8-1.8-4.2-2.7l-8.4,13.6C285.1,43,286.4,43.8,287.7,44.7z"/>
		<path class="st0" d="M302.5,55.5L312.6,43c-1.3-1.1-2.6-2.1-3.9-3.1l-9.8,12.7C300.1,53.6,301.3,54.5,302.5,55.5z"/>
		<path class="st0" d="M271.8,35.5l7.3-14.2c-1.5-0.8-3-1.5-4.5-2.2l-6.9,14.4C269.1,34.1,270.5,34.8,271.8,35.5z"/>
		<path class="st0" d="M263.6,31.5l6.5-14.6c-1.5-0.7-3.1-1.3-4.6-2l-6.1,14.8C260.8,30.3,262.2,30.9,263.6,31.5z"/>
		<path class="st0" d="M138.1,24.9l-4.9-15.2c-1.6,0.5-3.2,1.1-4.7,1.6l5.3,15.1C135.2,25.8,136.7,25.3,138.1,24.9z"/>
		<path class="st0" d="M17.7,177.6c0.1-1.5,0.3-3.1,0.4-4.6l-15.9-1.7c-0.2,1.7-0.3,3.3-0.5,5L17.7,177.6z"/>
		<path class="st0" d="M295,333l9.4,12.9c1.3-1,2.7-2,4-3l-9.7-12.7C297.4,331.2,296.2,332.1,295,333z"/>
		<path class="st0" d="M302.2,327.5l10.1,12.4c1.3-1,2.6-2.1,3.8-3.2l-10.4-12.2C304.6,325.5,303.4,326.5,302.2,327.5z"/>
		<path class="st0" d="M279.6,343l8,13.9c1.4-0.8,2.9-1.7,4.3-2.6l-8.4-13.6C282.2,341.5,280.9,342.3,279.6,343z"/>
		<path class="st0" d="M328.1,301.6l12.4,10.1c1.1-1.3,2.1-2.6,3.1-3.9L331,298C330,299.2,329.1,300.4,328.1,301.6z"/>
		<path class="st0" d="M210.4,365.4l1.6,15.9c1.7-0.2,3.3-0.4,5-0.6l-2.1-15.9C213.5,365.1,211.9,365.3,210.4,365.4z"/>
		<path class="st0" d="M309.2,321.5l10.7,11.9c1.2-1.1,2.5-2.2,3.7-3.4l-11-11.6C311.5,319.4,310.3,320.5,309.2,321.5z"/>
		<path class="st0" d="M315.9,315.2l11.3,11.3c1.2-1.2,2.3-2.4,3.5-3.6l-11.6-11C318,313,316.9,314.1,315.9,315.2z"/>
		<path class="st0" d="M287.4,338.2l8.7,13.4c1.4-0.9,2.8-1.8,4.2-2.8l-9.1-13.2C290,336.5,288.7,337.4,287.4,338.2z"/>
		<path class="st0" d="M228.5,362.6l3.3,15.7c1.6-0.3,3.3-0.7,4.9-1.1l-3.7-15.6C231.5,361.9,230,362.3,228.5,362.6z"/>
		<path class="st0" d="M237.4,360.5l4.1,15.5c1.6-0.4,3.2-0.9,4.8-1.4l-4.5-15.3C240.4,359.7,238.9,360.1,237.4,360.5z"/>
		<path class="st0" d="M219.5,364.2l2.5,15.8c1.6-0.3,3.3-0.5,4.9-0.8l-2.9-15.7C222.5,363.8,221,364,219.5,364.2z"/>
		<path class="st0" d="M271.5,347.4l7.3,14.3c1.5-0.8,3-1.5,4.4-2.3l-7.6-14.1C274.3,346,272.9,346.7,271.5,347.4z"/>
		<path class="st0" d="M246.2,357.9l4.9,15.2c1.6-0.5,3.2-1,4.7-1.6l-5.3-15.1C249.1,356.9,247.6,357.4,246.2,357.9z"/>
		<path class="st0" d="M263.3,351.3l6.5,14.6c1.5-0.7,3-1.4,4.5-2.1l-6.9-14.4C266.1,350.1,264.7,350.7,263.3,351.3z"/>
		<path class="st0" d="M254.8,354.8l5.7,14.9c1.6-0.6,3.1-1.2,4.6-1.9l-6.1-14.8C257.7,353.7,256.2,354.3,254.8,354.8z"/>
		<path class="st0" d="M322.2,308.6l11.9,10.7c1.1-1.2,2.2-2.5,3.3-3.8l-12.2-10.4C324.2,306.3,323.2,307.4,322.2,308.6z"/>
		<path class="st0" d="M28.8,254l-14.9,5.7c0.6,1.6,1.2,3.1,1.9,4.6l14.8-6.1C29.9,256.9,29.3,255.4,28.8,254z"/>
		<path class="st0" d="M363.4,227.9l15.7,3.3c0.3-1.6,0.7-3.3,1-4.9l-15.7-2.9C364,224.9,363.7,226.4,363.4,227.9z"/>
		<path class="st0" d="M361.2,236.8l15.5,4.1c0.4-1.6,0.8-3.2,1.2-4.8l-15.6-3.7C362,233.9,361.6,235.4,361.2,236.8z"/>
		<path class="st0" d="M366.2,209.8l15.9,1.7c0.2-1.7,0.3-3.3,0.5-5l-16-1.3C366.5,206.8,366.4,208.3,366.2,209.8z"/>
		<path class="st0" d="M383.2,191.2c0-1.6,0-3.1-0.1-4.7l-16,0.4c0,1.5,0.1,3.1,0.1,4.6l16,0C383.2,191.4,383.2,191.3,383.2,191.2z"
			/>
		<polygon class="st0" points="383.1,186.5 383.1,186.5 383.1,186.5 		"/>
		<path class="st0" d="M367,200.7l16,0.8c0.1-1.7,0.2-3.3,0.2-5l-16-0.4C367.1,197.6,367,199.2,367,200.7z"/>
		<path class="st0" d="M358.6,245.6l15.2,5c0.5-1.6,1-3.2,1.5-4.8l-15.3-4.6C359.6,242.7,359.1,244.2,358.6,245.6z"/>
		<path class="st0" d="M343.7,279l13.8,8c0.8-1.4,1.7-2.9,2.5-4.4l-14-7.7C345.2,276.3,344.5,277.7,343.7,279z"/>
		<path class="st0" d="M338.9,286.8l13.4,8.7c0.9-1.4,1.8-2.8,2.7-4.2l-13.6-8.4C340.6,284.2,339.8,285.5,338.9,286.8z"/>
		<path class="st0" d="M333.7,294.3l12.9,9.4c1-1.3,1.9-2.7,2.9-4.1l-13.2-9.1C335.5,291.8,334.6,293.1,333.7,294.3z"/>
		<path class="st0" d="M348.1,270.9l14.2,7.3c0.8-1.5,1.5-3,2.2-4.5l-14.4-6.9C349.5,268.2,348.8,269.6,348.1,270.9z"/>
		<path class="st0" d="M355.6,254.2l14.9,5.7c0.6-1.6,1.2-3.1,1.7-4.7l-15.1-5.4C356.7,251.4,356.1,252.8,355.6,254.2z"/>
		<path class="st0" d="M352.1,262.7l14.6,6.5c0.7-1.5,1.3-3.1,2-4.6l-14.8-6.1C353.3,259.9,352.7,261.3,352.1,262.7z"/>
		<path class="st0" d="M365,218.9l15.8,2.5c0.3-1.6,0.5-3.3,0.7-4.9l-15.9-2.1C365.5,215.9,365.3,217.4,365,218.9z"/>
		<path class="st0" d="M89.3,332.9l-9.4,12.9c1.3,1,2.7,1.9,4.1,2.9l9.1-13.2C91.8,334.7,90.5,333.8,89.3,332.9z"/>
		<path class="st0" d="M82,327.3l-10.1,12.4c1.3,1.1,2.6,2.1,3.9,3.1l9.8-12.7C84.4,329.2,83.2,328.3,82,327.3z"/>
		<path class="st0" d="M75,321.4l-10.7,11.9c1.2,1.1,2.5,2.2,3.8,3.3l10.4-12.2C77.3,323.4,76.2,322.4,75,321.4z"/>
		<path class="st0" d="M68.4,315.1l-11.3,11.3c1.2,1.2,2.4,2.3,3.6,3.5l11-11.6C70.6,317.2,69.5,316.1,68.4,315.1z"/>
		<path class="st0" d="M112.7,347.3l-7.3,14.2c1.5,0.8,3,1.5,4.5,2.2l6.9-14.4C115.4,348.7,114,348,112.7,347.3z"/>
		<path class="st0" d="M96.8,338.1l-8.7,13.4c1.4,0.9,2.8,1.8,4.2,2.7l8.4-13.6C99.4,339.8,98.1,338.9,96.8,338.1z"/>
		<path class="st0" d="M104.6,342.9l-8,13.8c1.4,0.8,2.9,1.7,4.4,2.4l7.7-14.1C107.3,344.4,105.9,343.7,104.6,342.9z"/>
		<path class="st0" d="M62.1,308.4l-11.9,10.7c1.1,1.2,2.2,2.5,3.4,3.7l11.6-11C64.2,310.7,63.1,309.5,62.1,308.4z"/>
		<path class="st0" d="M40.6,278.8l-13.9,8c0.8,1.4,1.7,2.9,2.6,4.3l13.6-8.4C42.1,281.4,41.3,280.1,40.6,278.8z"/>
		<path class="st0" d="M36.2,270.8L21.9,278c0.8,1.5,1.5,3,2.3,4.4l14.1-7.6C37.6,273.5,36.9,272.1,36.2,270.8z"/>
		<path class="st0" d="M32.3,262.5L17.6,269c0.7,1.5,1.4,3,2.1,4.5l14.4-6.9C33.5,265.3,32.9,263.9,32.3,262.5z"/>
		<path class="st0" d="M120.9,351.2l-6.5,14.6c1.5,0.7,3.1,1.3,4.6,2l6.1-14.8C123.7,352.5,122.3,351.9,120.9,351.2z"/>
		<path class="st0" d="M56.1,301.4l-12.4,10.1c1,1.3,2.1,2.6,3.2,3.8L59.1,305C58.1,303.8,57.1,302.6,56.1,301.4z"/>
		<path class="st0" d="M50.6,294.2l-12.9,9.4c1,1.3,2,2.7,3,4l12.7-9.7C52.4,296.6,51.5,295.4,50.6,294.2z"/>
		<path class="st0" d="M45.4,286.6L32,295.3c0.9,1.4,1.8,2.8,2.8,4.2l13.2-9.1C47.1,289.2,46.2,287.9,45.4,286.6z"/>
		<path class="st0" d="M142.6,375.9c1.6,0.4,3.2,0.8,4.8,1.2l3.7-15.6c-1.5-0.4-3-0.7-4.4-1.1L142.6,375.9z"/>
		<path class="st0" d="M172.1,381.3c1.7,0.2,3.3,0.3,5,0.5l1.2-16c-1.5-0.1-3.1-0.3-4.6-0.4L172.1,381.3z"/>
		<path class="st0" d="M162.2,380c1.6,0.3,3.3,0.5,4.9,0.7l2.1-15.9c-1.5-0.2-3-0.4-4.5-0.7L162.2,380z"/>
		<path class="st0" d="M182.2,0.6L182.2,0.6c-1.7,0.1-3.3,0.2-5,0.3l1.2,16c1.5-0.1,3.1-0.2,4.6-0.3L182.2,0.6z"/>
		<path class="st0" d="M172.2,1.4c-1.7,0.2-3.3,0.4-5,0.6l2.1,15.9c1.5-0.2,3-0.4,4.6-0.5L172.2,1.4z"/>
		<path class="st0" d="M129.4,354.8l-5.7,14.9c1.6,0.6,3.1,1.2,4.7,1.7l5.3-15.1C132.2,355.8,130.8,355.3,129.4,354.8z"/>
		<path class="st0" d="M182.1,382.1c1.7,0.1,3.3,0.2,5,0.2l0.4-16c-1.5,0-3.1-0.1-4.6-0.2L182.1,382.1z"/>
		<path class="st0" d="M192.4,16.4l0-16c-1.7,0-3.5,0-5.2,0.1l0.4,16C189.2,16.4,190.8,16.4,192.4,16.4z"/>
		<path class="st0" d="M192.2,366.4h-0.1l0,16c1.7,0,3.3,0,5-0.1l-0.4-16C195.2,366.3,193.7,366.4,192.2,366.4z"/>
		<path class="st0" d="M142.8,6.8c-1.6,0.4-3.2,0.9-4.8,1.4l4.5,15.3c1.5-0.4,2.9-0.8,4.4-1.2L142.8,6.8z"/>
		<path class="st0" d="M201.3,366.1l0.8,16c1.7-0.1,3.3-0.2,5-0.3l-1.2-16C204.3,366,202.8,366.1,201.3,366.1z"/>
		<path class="st0" d="M162.3,2.7c-1.7,0.3-3.3,0.5-4.9,0.8l2.9,15.7c1.5-0.3,3-0.5,4.5-0.8L162.3,2.7z"/>
		<path class="st0" d="M133.1,373c1.6,0.5,3.2,1,4.8,1.5l4.5-15.3c-1.5-0.4-2.9-0.9-4.4-1.4L133.1,373z"/>
		<path class="st0" d="M152.4,378.2c1.6,0.3,3.3,0.7,4.9,1l2.9-15.7c-1.5-0.3-3-0.6-4.5-0.9L152.4,378.2z"/>
		<path class="st0" d="M152.5,4.5c-1.6,0.3-3.3,0.7-4.9,1.1l3.7,15.6c1.5-0.4,3-0.7,4.5-1L152.5,4.5z"/>
	</g>
	<g>
		<g>
			<polygon class="st1" points="108,118.1 104.9,119.6 104.9,146.5 108,148 115.5,133.1 			"/>
			<polygon class="st2" points="123.9,144.2 108,148 108,118.1 123.9,122 131.4,133.1 			"/>
			<polygon class="st1" points="123.9,144.2 139.8,148 142.6,133.4 139.8,118.1 123.9,122 			"/>
			<polygon class="st2" points="139.8,118.1 142.9,119.6 142.9,146.5 139.8,148 			"/>
			<polygon class="st1" points="117,138 123.9,138.9 129.4,133.1 123.9,127.3 117,128.2 			"/>
			<polygon class="st3" points="130.9,123.4 123.9,124.7 117,123.4 123.9,110.2 			"/>
			<polygon class="st4" points="130.9,142.8 123.9,141.5 117,142.8 123.9,156 			"/>
			<polygon class="st2" points="130.9,123.4 123.9,121.7 123.9,110.2 130.9,113.6 			"/>
			<polygon class="st1" points="117,123.4 123.9,121.7 123.9,110.2 117,113.6 			"/>
			<polygon class="st2" points="123.9,156 130.9,152.6 130.9,142.8 123.9,144.5 			"/>
			<polygon class="st1" points="123.9,156 117,152.6 117,142.8 123.9,144.5 			"/>
			<polygon class="st2" points="130.9,138 123.9,138.9 123.9,127.3 130.9,128.2 			"/>
		</g>
		<g>
			<g>
				<path class="st5" d="M166.7,118.2l10.8,29.7h-4.1l-3.8-10.5h-7.9l-3.8,10.5h-4.1l10.8-29.7H166.7z M168.2,133.5l-2.5-7l-2.5,7
					H168.2z"/>
				<path class="st5" d="M189.3,142.3v-24.1h3.8v24.1c0.1,0.2,0.3,0.5,0.6,0.8c0.8,0.8,1.8,1.2,2.9,1.2c1.1,0,2.1-0.4,2.9-1.2
					c0.8-0.8,1.2-1.7,1.2-2.8v-22.1h3.9v22.2c0,2.1-0.8,3.9-2.3,5.4c-1.5,1.6-3.4,2.3-5.6,2.3c-2.2,0-4-0.8-5.4-2.3
					c-1.4,1.5-3.2,2.3-5.4,2.3s-4.1-0.8-5.6-2.3s-2.3-3.3-2.3-5.4v-22.2h3.8v22.1c0,1.1,0.4,2,1.2,2.8c0.8,0.8,1.8,1.2,2.9,1.2
					c1.1,0,2.1-0.4,2.9-1.2C189,142.8,189.2,142.5,189.3,142.3z"/>
				<path class="st5" d="M214.4,132.6c-2.1-0.7-3.8-1.7-5.1-3s-2-2.9-2-4.9c0-1.9,0.7-3.5,2-4.9c1.4-1.4,3-2,4.9-2s3.5,0.7,4.9,2
					c0.8,0.7,1.4,1.9,1.9,3.5l-3.5,1.4c-0.4-1.1-0.8-1.9-1.2-2.2c-0.6-0.6-1.3-0.9-2.2-0.9s-1.6,0.3-2.2,0.9
					c-0.6,0.6-0.9,1.3-0.9,2.2s0.3,1.6,0.9,2.2c0.7,0.7,1.6,1.3,2.8,1.8c2.3,0.8,4.3,1.9,5.9,3.6c1.8,1.8,2.7,4,2.7,6.5
					s-0.9,4.7-2.7,6.6c-1.8,1.8-4,2.7-6.5,2.7c-2.6,0-4.7-0.9-6.5-2.7c-1.4-1.4-2.4-3.4-2.7-6l3.7-1.4c0.2,2.2,0.8,3.7,1.7,4.7
					c1.1,1.1,2.3,1.6,3.8,1.6s2.8-0.5,3.8-1.6c1.1-1.1,1.6-2.4,1.6-3.9s-0.5-2.8-1.6-3.8C217.1,134.1,215.8,133.3,214.4,132.6z"/>
				<path class="st5" d="M242.2,132.6c-2.1-0.7-3.8-1.7-5.1-3s-2-2.9-2-4.9c0-1.9,0.7-3.5,2-4.9c1.4-1.4,3-2,4.9-2s3.5,0.7,4.9,2
					c0.8,0.7,1.4,1.9,1.9,3.5l-3.5,1.4c-0.4-1.1-0.8-1.9-1.2-2.2c-0.6-0.6-1.3-0.9-2.2-0.9s-1.6,0.3-2.2,0.9
					c-0.6,0.6-0.9,1.3-0.9,2.2s0.3,1.6,0.9,2.2c0.7,0.7,1.6,1.3,2.8,1.8c2.3,0.8,4.3,1.9,5.9,3.6c1.8,1.8,2.7,4,2.7,6.5
					s-0.9,4.7-2.7,6.6c-1.8,1.8-4,2.7-6.5,2.7c-2.6,0-4.7-0.9-6.5-2.7c-1.4-1.4-2.4-3.4-2.7-6l3.7-1.4c0.2,2.2,0.8,3.7,1.7,4.7
					c1.1,1.1,2.3,1.6,3.8,1.6s2.8-0.5,3.8-1.6c1.1-1.1,1.6-2.4,1.6-3.9s-0.5-2.8-1.6-3.8C245,134.1,243.7,133.3,242.2,132.6z"/>
				<path class="st5" d="M260.6,132.6l-2.3-0.1v-3.8c1.7,0,2.8-0.1,3.3-0.3s1.1-0.6,1.7-1.3s0.9-1.4,0.9-2.3s-0.3-1.6-0.9-2.2
					s-1.3-0.9-2.2-0.9c-0.8,0-1.6,0.3-2.2,0.9c-0.3,0.3-0.7,1.1-1.2,2.3l-3.6-1.4c0.5-1.7,1.2-2.9,1.9-3.6c1.4-1.4,3-2,4.9-2
					c2,0,3.6,0.7,5,2.1c1.4,1.4,2,3,2,4.9s-1.1,3.8-3.4,5.6c1.1,0.1,2.3,0.7,3.5,1.9c1.8,1.9,2.7,4.1,2.7,6.7s-0.9,4.8-2.7,6.6
					c-1.8,1.8-4,2.7-6.6,2.7s-4.8-0.9-6.6-2.7c-1.4-1.5-2.4-3.5-2.8-6.1l3.8-1.4c0.2,2.2,0.8,3.8,1.7,4.7c1.1,1.1,2.3,1.6,3.8,1.6
					s2.8-0.5,3.8-1.6c1.1-1.1,1.6-2.3,1.6-3.8s-0.5-2.8-1.6-4C264.4,133.8,262.8,133,260.6,132.6z"/>
			</g>
		</g>
	</g>
	<g>
		<g>
			<path class="st6" d="M75.2,244.5c0,2.6,0.7,4.3,6.2,4.3c5,0,6.5-1.8,6.3-9.5c-1.3,1.9-2.9,2.9-6.2,2.9c-2.9,0-8-0.3-8-6.3
				c0-6.4,5.8-6.5,7.9-6.5c6.8,0,8.1,3,8.1,10.7c0,8-2.3,10.2-8.1,10.2c-6,0-7.8-1.9-8-5.9h1.8C75.2,244.4,75.2,244.5,75.2,244.5z
				 M75.3,236c0,3.4,1.9,4.6,6.3,4.6c4.6,0,5.8-1.7,5.8-4.8c0-3.2-1.4-4.9-6.1-4.9C78,231,75.3,231.7,75.3,236z"/>
			<path class="st6" d="M92.3,244.5c0,2.6,0.7,4.3,6.2,4.3c5,0,6.5-1.8,6.3-9.5c-1.3,1.9-2.9,2.9-6.2,2.9c-2.9,0-8-0.3-8-6.3
				c0-6.4,5.8-6.5,7.9-6.5c6.8,0,8.1,3,8.1,10.7c0,8-2.3,10.2-8.1,10.2c-6,0-7.8-1.9-8-5.9h1.8C92.3,244.4,92.3,244.5,92.3,244.5z
				 M92.4,236c0,3.4,1.9,4.6,6.3,4.6c4.6,0,5.8-1.7,5.8-4.8c0-3.2-1.4-4.9-6.1-4.9C95.2,231,92.4,231.7,92.4,236z"/>
			<path class="st6" d="M110.3,247.7v2.4h-2.2v-2.4H110.3z"/>
			<path class="st6" d="M113.6,244.5c0,2.6,0.7,4.3,6.2,4.3c5,0,6.5-1.8,6.3-9.5c-1.3,1.9-2.9,2.9-6.2,2.9c-2.9,0-8-0.3-8-6.3
				c0-6.4,5.8-6.5,7.9-6.5c6.8,0,8.1,3,8.1,10.7c0,8-2.3,10.2-8.1,10.2c-6,0-7.8-1.9-8-5.9h1.8C113.6,244.4,113.6,244.5,113.6,244.5
				z M113.7,236c0,3.4,1.9,4.6,6.3,4.6c4.6,0,5.8-1.7,5.8-4.8c0-3.2-1.4-4.9-6.1-4.9C116.4,231,113.7,231.7,113.7,236z"/>
			<path class="st6" d="M130.7,244.5c0,2.6,0.7,4.3,6.2,4.3c5,0,6.5-1.8,6.3-9.5c-1.3,1.9-2.9,2.9-6.2,2.9c-2.9,0-8-0.3-8-6.3
				c0-6.4,5.8-6.5,7.9-6.5c6.8,0,8.1,3,8.1,10.7c0,8-2.3,10.2-8.1,10.2c-6,0-7.8-1.9-8-5.9h1.8V244.5z M130.8,236
				c0,3.4,1.9,4.6,6.3,4.6c4.6,0,5.8-1.7,5.8-4.8c0-3.2-1.4-4.9-6.1-4.9C133.6,231,130.8,231.7,130.8,236z"/>
			<path class="st6" d="M147.8,244.5c0,2.6,0.7,4.3,6.2,4.3c5,0,6.5-1.8,6.3-9.5c-1.3,1.9-2.9,2.9-6.2,2.9c-2.9,0-8-0.3-8-6.3
				c0-6.4,5.8-6.5,7.9-6.5c6.8,0,8.1,3,8.1,10.7c0,8-2.3,10.2-8.1,10.2c-6,0-7.8-1.9-8-5.9h1.8V244.5z M147.9,236
				c0,3.4,1.9,4.6,6.3,4.6c4.6,0,5.8-1.7,5.8-4.8c0-3.2-1.4-4.9-6.1-4.9C150.7,231,147.9,231.7,147.9,236z"/>
			<path class="st6" d="M165,244.5c0,2.6,0.7,4.3,6.2,4.3c5,0,6.5-1.8,6.3-9.5c-1.3,1.9-2.9,2.9-6.2,2.9c-2.9,0-8-0.3-8-6.3
				c0-6.4,5.8-6.5,7.9-6.5c6.8,0,8.1,3,8.1,10.7c0,8-2.3,10.2-8.1,10.2c-6,0-7.8-1.9-8-5.9h1.8V244.5z M165.1,236
				c0,3.4,1.9,4.6,6.3,4.6c4.6,0,5.8-1.7,5.8-4.8c0-3.2-1.4-4.9-6.1-4.9C167.8,231,165.1,231.7,165.1,236z"/>
			<path class="st6" d="M182.1,244.5c0,2.6,0.7,4.3,6.2,4.3c5,0,6.5-1.8,6.3-9.5c-1.3,1.9-2.9,2.9-6.2,2.9c-2.9,0-8-0.3-8-6.3
				c0-6.4,5.8-6.5,7.9-6.5c6.8,0,8.1,3,8.1,10.7c0,8-2.3,10.2-8.1,10.2c-6,0-7.8-1.9-8-5.9h1.8V244.5z M182.2,236
				c0,3.4,1.9,4.6,6.3,4.6c4.6,0,5.8-1.7,5.8-4.8c0-3.2-1.4-4.9-6.1-4.9C185,231,182.2,231.7,182.2,236z"/>
			<path class="st6" d="M199.2,244.5c0,2.6,0.7,4.3,6.2,4.3c5,0,6.5-1.8,6.3-9.5c-1.3,1.9-2.9,2.9-6.2,2.9c-2.9,0-8-0.3-8-6.3
				c0-6.4,5.8-6.5,7.9-6.5c6.8,0,8.1,3,8.1,10.7c0,8-2.3,10.2-8.1,10.2c-6,0-7.8-1.9-8-5.9h1.8V244.5z M199.3,236
				c0,3.4,1.9,4.6,6.3,4.6c4.6,0,5.8-1.7,5.8-4.8c0-3.2-1.4-4.9-6.1-4.9C202.1,231,199.3,231.7,199.3,236z"/>
			<path class="st6" d="M216.4,244.5c0,2.6,0.7,4.3,6.2,4.3c5,0,6.5-1.8,6.3-9.5c-1.3,1.9-2.9,2.9-6.2,2.9c-2.9,0-8-0.3-8-6.3
				c0-6.4,5.8-6.5,7.9-6.5c6.8,0,8.1,3,8.1,10.7c0,8-2.3,10.2-8.1,10.2c-6,0-7.8-1.9-8-5.9h1.8V244.5z M216.5,236
				c0,3.4,1.9,4.6,6.3,4.6c4.6,0,5.8-1.7,5.8-4.8c0-3.2-1.4-4.9-6.1-4.9C219.2,231,216.5,231.7,216.5,236z"/>
			<path class="st6" d="M233.5,244.5c0,2.6,0.7,4.3,6.2,4.3c5,0,6.5-1.8,6.3-9.5c-1.3,1.9-2.9,2.9-6.2,2.9c-2.9,0-8-0.3-8-6.3
				c0-6.4,5.8-6.5,7.9-6.5c6.8,0,8.1,3,8.1,10.7c0,8-2.3,10.2-8.1,10.2c-6,0-7.8-1.9-8-5.9h1.8V244.5z M233.6,236
				c0,3.4,1.9,4.6,6.3,4.6c4.6,0,5.8-1.7,5.8-4.8c0-3.2-1.4-4.9-6.1-4.9C236.4,231,233.6,231.7,233.6,236z"/>
			<path class="st6" d="M250.6,244.5c0,2.6,0.7,4.3,6.2,4.3c5,0,6.5-1.8,6.3-9.5c-1.3,1.9-2.9,2.9-6.2,2.9c-2.9,0-8-0.3-8-6.3
				c0-6.4,5.8-6.5,7.9-6.5c6.8,0,8.1,3,8.1,10.7c0,8-2.3,10.2-8.1,10.2c-6,0-7.8-1.9-8-5.9h1.8L250.6,244.5L250.6,244.5z M250.7,236
				c0,3.4,1.9,4.6,6.3,4.6c4.6,0,5.8-1.7,5.8-4.8c0-3.2-1.4-4.9-6.1-4.9C253.5,231,250.7,231.7,250.7,236z"/>
			<path class="st6" d="M275.3,235.6c0,3.7-1.1,6.2-4.9,6.2c-2.7,0-5.2-0.8-5.2-6.2c0-4.9,2-6.1,5-6.1
				C273.1,229.4,275.3,230.5,275.3,235.6z M266.6,235.6c0,3.5,0.9,4.8,3.7,4.8c2.3,0,3.5-1.1,3.5-4.7c0-4.1-1.4-4.9-3.6-4.9
				C268,230.7,266.6,231.6,266.6,235.6z M283.8,229.6l-11.5,20.5h-1.7l11.6-20.5H283.8z M289.2,244.2c0,3.7-1.1,6.1-4.9,6.1
				c-2.8,0-5.2-0.8-5.2-6.1c0-4.9,2-6.2,5.1-6.2C287.1,238,289.2,239.1,289.2,244.2z M280.6,244.2c0,3.5,0.9,4.8,3.6,4.8
				c2.3,0,3.5-1.1,3.5-4.7c0-4.1-1.4-4.9-3.6-4.9C282,239.4,280.6,240.2,280.6,244.2z"/>
			<path class="st6" d="M303.7,249.7c3.1-0.3,10.5-1,10.5-9.3c0-2.2-0.7-9-9.2-9c-0.5,5.6-1.2,10.7-3.6,14.6
				c-1.6,2.6-3.2,3.1-4.2,3.1c-2.5,0-4.6-3.1-4.6-7.3c0-6.7,4.6-11.9,12.4-11.9c8.1,0,10.8,5.5,10.8,10.3c0,9.8-8.5,10.7-11.6,11
				L303.7,249.7z M294.1,241.7c0,2.2,0.8,5.7,3,5.7c1,0,1.9-0.7,2.9-2.3c2.4-3.9,3-9.6,3.3-13.7
				C296.6,232.1,294.1,237.1,294.1,241.7z"/>
			<path class="st6" d="M169.2,284.2H160v3.8h11.3v1.3h-23.8V288h11.2v-3.8h-9.3v-1.3h9.3v-2h1.4v2h9.3v1.3H169.2z M159.1,267.3v1.2
				H155v2.5h3.6v5.2H155v2.7h4.1v1.2h-10.6v-12.8H159.1L159.1,267.3z M153.7,268.5h-3.9v2.5h3.9V268.5z M157.2,272.2h-7.4v2.9h7.4
				V272.2z M153.7,276.2h-3.9v2.7h3.9V276.2z M170.7,281c-0.8-0.4-3.2-1.6-5.4-4.1c-1.5,1.4-2.8,2.3-5,3.4l-0.8-1.2
				c0.8-0.4,2.8-1.4,4.9-3.3c-2.1-2.8-2.9-5.4-3.1-6.4l1.2-0.3c0.5,1.6,1.2,3.5,2.9,5.7c1.7-1.8,2.9-3.9,3.4-6.3H160v-1.2h10.2v1.1
				c-0.7,3.1-2.1,5.4-3.9,7.5c2.1,2.3,4.1,3.3,5.2,3.8L170.7,281z"/>
			<path class="st6" d="M182,275.3v-3.5h1.5v3.5h8.6v1.2h-8.6v5.4h11.2v1.3h-11.2v6.9H182v-6.9h-11.2v-1.3H182v-5.4h-6
				c-1,1.6-2,2.9-3.1,4l-1.1-1.1c2-1.8,3.9-4.6,4.9-7.8l1.4,0.5c-0.2,0.8-0.4,1.5-1.3,3.1L182,275.3L182,275.3z M182,269v-2.7h1.5
				v2.7H194v5.6h-1.5v-4.3h-19.6v4.3h-1.4V269H182z"/>
			<path class="st6" d="M193.8,278.3c0.9-2.4,1.1-4.7,1.2-6.7l1.4,0.1c-0.2,3-0.5,5-1.2,7.1L193.8,278.3z M199.2,266.3v23.8h-1.5
				v-23.8H199.2z M201.3,275.5c-0.2-1.6-0.8-3.2-1.2-4.3l1.2-0.3c0.7,1.8,1,3.1,1.3,4.1L201.3,275.5z M210,272.4v-6.1h1.5v6.1h6.2
				v1.3h-6.2v6h5.6v1.3h-5.6v6.8h6.6v1.4H202v-1.4h8V281h-6.2v-1.3h6.2v-6h-4.5c-0.5,1.4-1.3,3.5-2.5,4.9l-1.1-0.9
				c2.4-3.4,3.2-7.6,3.5-10.1l1.4,0.3c-0.1,0.8-0.2,2.2-0.9,4.5H210L210,272.4z"/>
			<path class="st6" d="M230.6,285.8v2.4h-2.2v-2.4H230.6z M230.5,267.6l-0.2,15h-1.6l-0.2-15C228.5,267.6,230.5,267.6,230.5,267.6z
				"/>
		</g>
	</g>
	<g>
		<line class="st7" x1="159" y1="184.7" x2="221" y2="184.7"/>
		<circle class="st0" cx="160.7" cy="185" r="3.7"/>
		<circle class="st0" cx="223.3" cy="185" r="3.7"/>
	</g>
</g>
<g>
	<path class="st0" d="M56.1,782l-12.4-10.1c-1,1.3-2.1,2.6-3.1,3.9l12.7,9.8C54.2,784.4,55.1,783.2,56.1,782z"/>
	<path class="st0" d="M62.1,775l-11.9-10.7c-1.1,1.2-2.2,2.5-3.3,3.8L59,778.5C60,777.3,61,776.2,62.1,775z"/>
	<path class="st0" d="M68.4,768.4l-11.3-11.3c-1.2,1.2-2.3,2.4-3.5,3.6l11.6,11C66.2,770.6,67.3,769.5,68.4,768.4z"/>
	<path class="st0" d="M50.5,789.3l-12.9-9.4c-1,1.3-1.9,2.7-2.9,4.1l13.2,9.1C48.7,791.8,49.6,790.5,50.5,789.3z"/>
	<path class="st0" d="M45.3,796.8l-13.4-8.7c-0.9,1.4-1.8,2.8-2.7,4.2l13.6,8.4C43.7,799.4,44.5,798.1,45.3,796.8z"/>
	<path class="st0" d="M25.6,946.2l-15.2,4.9c0.5,1.6,1,3.2,1.6,4.7l15.1-5.3C26.6,949.1,26.1,947.6,25.6,946.2z"/>
	<path class="st0" d="M82,756.1l-10.1-12.4c-1.3,1.1-2.6,2.1-3.8,3.2l10.4,12.2C79.6,758.1,80.8,757.1,82,756.1z"/>
	<path class="st0" d="M112.7,736.2l-7.3-14.3c-1.5,0.8-3,1.5-4.4,2.3l7.6,14.1C109.9,737.6,111.3,736.9,112.7,736.2z"/>
	<path class="st0" d="M129.4,728.7l-5.7-14.9c-1.6,0.6-3.1,1.2-4.6,1.9l6.1,14.8C126.5,729.8,128,729.3,129.4,728.7z"/>
	<path class="st0" d="M104.6,740.6l-8-13.8c-1.4,0.8-2.9,1.7-4.3,2.6l8.4,13.6C102,742.1,103.3,741.3,104.6,740.6z"/>
	<path class="st0" d="M36.1,812.7l-14.2-7.3c-0.8,1.5-1.5,3-2.2,4.5l14.4,6.9C34.8,815.4,35.5,814,36.1,812.7z"/>
	<path class="st0" d="M96.8,745.4l-8.7-13.4c-1.4,0.9-2.8,1.8-4.2,2.8l9.1,13.2C94.3,747,95.5,746.2,96.8,745.4z"/>
	<path class="st0" d="M75,762.1l-10.7-11.9c-1.2,1.1-2.5,2.2-3.7,3.4l11,11.6C72.8,764.2,73.9,763.1,75,762.1z"/>
	<path class="st0" d="M89.3,750.6l-9.4-12.9c-1.3,1-2.7,2-4,3l9.7,12.7C86.8,752.4,88,751.4,89.3,750.6z"/>
	<path class="st0" d="M120.9,732.2l-6.5-14.6c-1.5,0.7-3,1.4-4.5,2.1l6.9,14.4C118.1,733.5,119.5,732.9,120.9,732.2z"/>
	<path class="st0" d="M17.3,901.3l-16,0.8c0.1,1.7,0.2,3.3,0.3,5l16-1.2C17.5,904.3,17.4,902.8,17.3,901.3z"/>
	<path class="st0" d="M18,910.4l-15.9,1.6c0.2,1.7,0.4,3.3,0.6,5l15.9-2.1C18.4,913.5,18.2,911.9,18,910.4z"/>
	<path class="st0" d="M17.1,892.2L17.1,892.2l-16-0.1c0,1.7,0,3.3,0.1,5l16-0.4C17.1,895.2,17.1,893.7,17.1,892.2z"/>
	<path class="st0" d="M19.2,919.5L3.4,922c0.3,1.7,0.5,3.3,0.8,4.9L20,924C19.7,922.5,19.5,921,19.2,919.5z"/>
	<path class="st0" d="M23,937.4l-15.5,4.1c0.4,1.6,0.9,3.2,1.4,4.8l15.3-4.5C23.8,940.4,23.4,938.9,23,937.4z"/>
	<path class="st0" d="M20.9,928.5l-15.7,3.3c0.3,1.6,0.7,3.3,1.1,4.9l15.6-3.7C21.5,931.5,21.2,930,20.9,928.5z"/>
	<path class="st0" d="M32.2,820.9l-14.6-6.5c-0.7,1.5-1.3,3.1-2,4.6l14.8,6.1C31,823.7,31.6,822.3,32.2,820.9z"/>
	<path class="st0" d="M17.3,882.9l-16-0.8c-0.1,1.7-0.2,3.3-0.2,5l16,0.4C17.2,886,17.3,884.5,17.3,882.9z"/>
	<path class="st0" d="M25.6,838l-15.2-4.9c-0.5,1.6-1,3.2-1.5,4.8l15.3,4.5C24.7,840.9,25.2,839.5,25.6,838z"/>
	<path class="st0" d="M23,846.8l-15.5-4.1c-0.4,1.6-0.8,3.2-1.2,4.8l15.6,3.7C22.3,849.8,22.6,848.3,23,846.8z"/>
	<path class="st0" d="M2.1,872.1C2.1,872.1,2.1,872.1,2.1,872.1L2.1,872.1z"/>
	<path class="st0" d="M28.7,829.4l-14.9-5.7c-0.6,1.6-1.2,3.1-1.7,4.7l15.1,5.3C27.6,832.3,28.1,830.8,28.7,829.4z"/>
	<path class="st0" d="M20.9,855.7l-15.7-3.3c-0.3,1.6-0.7,3.3-1,4.9l15.7,2.9C20.3,858.7,20.6,857.2,20.9,855.7z"/>
	<path class="st0" d="M19.2,864.7l-15.8-2.5c-0.3,1.6-0.5,3.3-0.7,4.9l15.9,2.1C18.8,867.7,19,866.2,19.2,864.7z"/>
	<path class="st0" d="M40.5,804.6l-13.8-8c-0.8,1.4-1.7,2.9-2.4,4.4l14.1,7.6C39,807.3,39.8,805.9,40.5,804.6z"/>
	<path class="st0" d="M339,797l13.4-8.7c-0.9-1.4-1.8-2.8-2.8-4.2l-13.2,9.1C337.3,794.4,338.2,795.7,339,797z"/>
	<path class="st0" d="M343.8,804.8l13.9-8c-0.8-1.4-1.7-2.9-2.6-4.3l-13.6,8.4C342.2,802.2,343,803.5,343.8,804.8z"/>
	<path class="st0" d="M346,808.8c0.7,1.3,1.4,2.7,2.1,4.1l14.3-7.3c-0.8-1.5-1.5-3-2.3-4.4L346,808.8z"/>
	<path class="st0" d="M328.2,782.2l12.4-10.1c-1-1.3-2.1-2.6-3.2-3.8l-12.2,10.4C326.3,779.8,327.3,781,328.2,782.2z"/>
	<path class="st0" d="M322.3,775.2l11.9-10.7c-1.1-1.2-2.2-2.5-3.4-3.7l-11.6,11C320.2,772.9,321.3,774.1,322.3,775.2z"/>
	<path class="st0" d="M316,768.5l11.3-11.3c-1.2-1.2-2.4-2.3-3.6-3.5l-11,11.6C313.8,766.4,314.9,767.5,316,768.5z"/>
	<path class="st0" d="M352.1,821.1l14.6-6.5c-0.7-1.5-1.4-3-2.1-4.5l-14.4,6.9C350.8,818.3,351.5,819.7,352.1,821.1z"/>
	<path class="st0" d="M333.8,789.4l12.9-9.4c-1-1.3-2-2.7-3-4l-12.7,9.7C332,787,332.9,788.2,333.8,789.4z"/>
	<path class="st0" d="M365.6,869.5c0.2,1.5,0.4,3,0.5,4.6l15.9-1.6c-0.2-1.7-0.4-3.3-0.6-5L365.6,869.5z"/>
	<path class="st0" d="M366.9,883.1l16-0.8c-0.1-1.7-0.2-3.3-0.3-5l-16,1.2C366.7,880.1,366.8,881.6,366.9,883.1z"/>
	<path class="st0" d="M365,864.9l15.8-2.5c-0.3-1.6-0.5-3.3-0.8-4.9l-15.7,2.9C364.5,861.9,364.8,863.4,365,864.9z"/>
	<path class="st0" d="M361.2,847l15.5-4.1c-0.4-1.6-0.9-3.2-1.3-4.8l-15.3,4.5C360.4,844.1,360.8,845.5,361.2,847z"/>
	<path class="st0" d="M363.3,855.9l15.7-3.3c-0.3-1.6-0.7-3.3-1.1-4.9l-15.6,3.7C362.7,852.9,363,854.4,363.3,855.9z"/>
	<path class="st0" d="M358.6,838.2l15.2-4.9c-0.5-1.6-1-3.2-1.6-4.7l-15.1,5.3C357.7,835.3,358.2,836.8,358.6,838.2z"/>
	<path class="st0" d="M355.6,829.6l14.9-5.7c-0.6-1.6-1.2-3.1-1.8-4.6l-14.8,6.1C354.5,826.7,355,828.2,355.6,829.6z"/>
	<path class="st0" d="M309.3,762.2l10.7-11.9c-1.2-1.1-2.5-2.2-3.8-3.3l-10.4,12.2C307,760.2,308.2,761.2,309.3,762.2z"/>
	<path class="st0" d="M250.7,727.2c1.4,0.5,2.9,1,4.3,1.6l5.8-14.9c-1.6-0.6-3.1-1.2-4.7-1.7L250.7,727.2z"/>
	<path class="st0" d="M241.8,707.7c-1.6-0.4-3.2-0.8-4.8-1.2l-3.7,15.6c1.5,0.4,3,0.7,4.4,1.1L241.8,707.7z"/>
	<path class="st0" d="M251.3,710.5c-1.6-0.5-3.2-1-4.8-1.5l-4.6,15.3c1.5,0.4,2.9,0.9,4.4,1.4L251.3,710.5z"/>
	<path class="st0" d="M232,705.3c-1.6-0.3-3.3-0.7-4.9-1l-2.9,15.7c1.5,0.3,3,0.6,4.5,0.9L232,705.3z"/>
	<path class="st0" d="M202.3,701.4c-1.7-0.1-3.3-0.2-5-0.2l-0.4,16c1.5,0,3.1,0.1,4.6,0.2L202.3,701.4z"/>
	<path class="st0" d="M212.3,702.2c-1.7-0.2-3.3-0.3-5-0.5l-1.3,16c1.5,0.1,3.1,0.3,4.6,0.4L212.3,702.2z"/>
	<path class="st0" d="M222.2,703.5c-1.6-0.3-3.3-0.5-4.9-0.7l-2.1,15.9c1.5,0.2,3,0.4,4.5,0.7L222.2,703.5z"/>
	<path class="st0" d="M279.8,740.7l8-13.8c-1.4-0.8-2.9-1.7-4.4-2.5l-7.7,14C277.1,739.1,278.5,739.9,279.8,740.7z"/>
	<path class="st0" d="M295.1,750.7l9.4-12.9c-1.3-1-2.7-1.9-4.1-2.9l-9.1,13.2C292.6,748.9,293.9,749.8,295.1,750.7z"/>
	<path class="st0" d="M287.6,745.5l8.7-13.4c-1.4-0.9-2.8-1.8-4.2-2.7l-8.4,13.6C285,743.8,286.3,744.6,287.6,745.5z"/>
	<path class="st0" d="M302.4,756.3l10.1-12.4c-1.3-1.1-2.6-2.1-3.9-3.1l-9.8,12.7C300,754.4,301.2,755.3,302.4,756.3z"/>
	<path class="st0" d="M271.7,736.3L279,722c-1.5-0.8-3-1.5-4.5-2.2l-6.9,14.4C269,734.9,270.4,735.6,271.7,736.3z"/>
	<path class="st0" d="M263.5,732.3l6.5-14.6c-1.5-0.7-3.1-1.3-4.6-2l-6.1,14.8C260.7,731.1,262.1,731.7,263.5,732.3z"/>
	<path class="st0" d="M138,725.7l-4.9-15.2c-1.6,0.5-3.2,1.1-4.7,1.6l5.3,15.1C135.1,726.6,136.6,726.1,138,725.7z"/>
	<path class="st0" d="M17.6,878.4c0.1-1.5,0.3-3.1,0.4-4.6l-15.9-1.7c-0.2,1.7-0.3,3.3-0.5,5L17.6,878.4z"/>
	<path class="st0" d="M294.9,1033.8l9.4,12.9c1.3-1,2.7-2,4-3l-9.7-12.7C297.3,1032,296.1,1032.9,294.9,1033.8z"/>
	<path class="st0" d="M302.1,1028.3l10.1,12.4c1.3-1,2.6-2.1,3.8-3.2l-10.4-12.2C304.5,1026.3,303.3,1027.3,302.1,1028.3z"/>
	<path class="st0" d="M279.5,1043.8l8,13.9c1.4-0.8,2.9-1.7,4.3-2.6l-8.4-13.6C282.1,1042.3,280.8,1043.1,279.5,1043.8z"/>
	<path class="st0" d="M328,1002.4l12.4,10.1c1.1-1.3,2.1-2.6,3.1-3.9l-12.7-9.8C329.9,1000,329,1001.2,328,1002.4z"/>
	<path class="st0" d="M210.3,1066.2l1.6,15.9c1.7-0.2,3.3-0.4,5-0.6l-2.1-15.9C213.4,1065.9,211.8,1066.1,210.3,1066.2z"/>
	<path class="st0" d="M309.1,1022.3l10.7,11.9c1.2-1.1,2.5-2.2,3.7-3.4l-11-11.6C311.4,1020.2,310.2,1021.3,309.1,1022.3z"/>
	<path class="st0" d="M315.8,1016l11.3,11.3c1.2-1.2,2.3-2.4,3.5-3.6l-11.6-11C317.9,1013.8,316.8,1014.9,315.8,1016z"/>
	<path class="st0" d="M287.3,1039l8.7,13.4c1.4-0.9,2.8-1.8,4.2-2.8l-9.1-13.2C289.9,1037.3,288.6,1038.2,287.3,1039z"/>
	<path class="st0" d="M228.4,1063.4l3.3,15.7c1.6-0.3,3.3-0.7,4.9-1.1l-3.7-15.6C231.4,1062.7,229.9,1063.1,228.4,1063.4z"/>
	<path class="st0" d="M237.3,1061.3l4.1,15.5c1.6-0.4,3.2-0.9,4.8-1.4l-4.5-15.3C240.3,1060.5,238.8,1060.9,237.3,1061.3z"/>
	<path class="st0" d="M219.4,1065l2.5,15.8c1.6-0.3,3.3-0.5,4.9-0.8l-2.9-15.7C222.4,1064.6,220.9,1064.8,219.4,1065z"/>
	<path class="st0" d="M271.4,1048.2l7.3,14.3c1.5-0.8,3-1.5,4.4-2.3l-7.6-14.1C274.2,1046.8,272.8,1047.5,271.4,1048.2z"/>
	<path class="st0" d="M246.1,1058.7l4.9,15.2c1.6-0.5,3.2-1,4.7-1.6l-5.3-15.1C249,1057.7,247.5,1058.2,246.1,1058.7z"/>
	<path class="st0" d="M263.2,1052.1l6.5,14.6c1.5-0.7,3-1.4,4.5-2.1l-6.9-14.4C266,1050.9,264.6,1051.5,263.2,1052.1z"/>
	<path class="st0" d="M254.7,1055.6l5.7,14.9c1.6-0.6,3.1-1.2,4.6-1.9l-6.1-14.8C257.6,1054.5,256.1,1055.1,254.7,1055.6z"/>
	<path class="st0" d="M322.1,1009.4l11.9,10.7c1.1-1.2,2.2-2.5,3.3-3.8l-12.2-10.4C324.1,1007.1,323.1,1008.2,322.1,1009.4z"/>
	<path class="st0" d="M28.7,954.8l-14.9,5.7c0.6,1.6,1.2,3.1,1.9,4.6l14.8-6.1C29.8,957.7,29.2,956.2,28.7,954.8z"/>
	<path class="st0" d="M363.3,928.7l15.7,3.3c0.3-1.6,0.7-3.3,1-4.9l-15.7-2.9C363.9,925.7,363.6,927.2,363.3,928.7z"/>
	<path class="st0" d="M361.1,937.6l15.5,4.1c0.4-1.6,0.8-3.2,1.2-4.8l-15.6-3.7C361.9,934.7,361.5,936.2,361.1,937.6z"/>
	<path class="st0" d="M366.1,910.6l15.9,1.7c0.2-1.7,0.3-3.3,0.5-5l-16-1.3C366.4,907.6,366.3,909.1,366.1,910.6z"/>
	<path class="st0" d="M383.1,892c0-1.6,0-3.1-0.1-4.7l-16,0.4c0,1.5,0.1,3.1,0.1,4.6l16,0C383.1,892.2,383.1,892.1,383.1,892z"/>
	<polygon class="st0" points="383,887.3 383,887.3 383,887.3 	"/>
	<path class="st0" d="M366.9,901.5l16,0.8c0.1-1.7,0.2-3.3,0.2-5l-16-0.4C367,898.4,366.9,900,366.9,901.5z"/>
	<path class="st0" d="M358.5,946.4l15.2,5c0.5-1.6,1-3.2,1.5-4.8l-15.3-4.6C359.5,943.5,359,945,358.5,946.4z"/>
	<path class="st0" d="M343.6,979.8l13.8,8c0.8-1.4,1.7-2.9,2.5-4.4l-14-7.7C345.1,977.1,344.4,978.5,343.6,979.8z"/>
	<path class="st0" d="M338.8,987.6l13.4,8.7c0.9-1.4,1.8-2.8,2.7-4.2l-13.6-8.4C340.5,985,339.7,986.3,338.8,987.6z"/>
	<path class="st0" d="M333.6,995.1l12.9,9.4c1-1.3,1.9-2.7,2.9-4.1l-13.2-9.1C335.4,992.6,334.5,993.9,333.6,995.1z"/>
	<path class="st0" d="M348,971.7l14.2,7.3c0.8-1.5,1.5-3,2.2-4.5l-14.4-6.9C349.4,969,348.7,970.4,348,971.7z"/>
	<path class="st0" d="M355.5,955l14.9,5.7c0.6-1.6,1.2-3.1,1.7-4.7l-15.1-5.4C356.6,952.2,356,953.6,355.5,955z"/>
	<path class="st0" d="M352,963.5l14.6,6.5c0.7-1.5,1.3-3.1,2-4.6l-14.8-6.1C353.2,960.7,352.6,962.1,352,963.5z"/>
	<path class="st0" d="M364.9,919.7l15.8,2.5c0.3-1.6,0.5-3.3,0.7-4.9l-15.9-2.1C365.4,916.7,365.2,918.2,364.9,919.7z"/>
	<path class="st0" d="M89.2,1033.7l-9.4,12.9c1.3,1,2.7,1.9,4.1,2.9l9.1-13.2C91.7,1035.5,90.4,1034.6,89.2,1033.7z"/>
	<path class="st0" d="M81.9,1028.1l-10.1,12.4c1.3,1.1,2.6,2.1,3.9,3.1l9.8-12.7C84.3,1030,83.1,1029.1,81.9,1028.1z"/>
	<path class="st0" d="M74.9,1022.2L64.2,1034c1.2,1.1,2.5,2.2,3.8,3.3l10.4-12.2C77.2,1024.2,76.1,1023.2,74.9,1022.2z"/>
	<path class="st0" d="M68.3,1015.9L57,1027.2c1.2,1.2,2.4,2.3,3.6,3.5l11-11.6C70.5,1018,69.4,1016.9,68.3,1015.9z"/>
	<path class="st0" d="M112.6,1048.1l-7.3,14.2c1.5,0.8,3,1.5,4.5,2.2l6.9-14.4C115.3,1049.5,113.9,1048.8,112.6,1048.1z"/>
	<path class="st0" d="M96.7,1038.9l-8.7,13.4c1.4,0.9,2.8,1.8,4.2,2.7l8.4-13.6C99.3,1040.6,98,1039.7,96.7,1038.9z"/>
	<path class="st0" d="M104.5,1043.7l-8,13.8c1.4,0.8,2.9,1.7,4.4,2.4l7.7-14.1C107.2,1045.2,105.8,1044.5,104.5,1043.7z"/>
	<path class="st0" d="M62,1009.2l-11.9,10.7c1.1,1.2,2.2,2.5,3.4,3.7l11.6-11C64.1,1011.5,63,1010.3,62,1009.2z"/>
	<path class="st0" d="M40.5,979.6l-13.9,8c0.8,1.4,1.7,2.9,2.6,4.3l13.6-8.4C42,982.2,41.2,980.9,40.5,979.6z"/>
	<path class="st0" d="M36.1,971.6l-14.3,7.3c0.8,1.5,1.5,3,2.3,4.4l14.1-7.6C37.5,974.3,36.8,972.9,36.1,971.6z"/>
	<path class="st0" d="M32.2,963.3l-14.6,6.5c0.7,1.5,1.4,3,2.1,4.5l14.4-6.9C33.4,966.1,32.8,964.7,32.2,963.3z"/>
	<path class="st0" d="M120.8,1052l-6.5,14.6c1.5,0.7,3.1,1.3,4.6,2l6.1-14.8C123.6,1053.3,122.2,1052.7,120.8,1052z"/>
	<path class="st0" d="M56,1002.2l-12.4,10.1c1,1.3,2.1,2.6,3.2,3.8l12.2-10.4C58,1004.6,57,1003.4,56,1002.2z"/>
	<path class="st0" d="M50.5,995l-12.9,9.4c1,1.3,2,2.7,3,4l12.7-9.7C52.3,997.4,51.4,996.2,50.5,995z"/>
	<path class="st0" d="M45.3,987.4l-13.4,8.7c0.9,1.4,1.8,2.8,2.8,4.2l13.2-9.1C47,990,46.1,988.7,45.3,987.4z"/>
	<path class="st0" d="M142.5,1076.7c1.6,0.4,3.2,0.8,4.8,1.2l3.7-15.6c-1.5-0.4-3-0.7-4.4-1.1L142.5,1076.7z"/>
	<path class="st0" d="M172,1082.1c1.7,0.2,3.3,0.3,5,0.5l1.2-16c-1.5-0.1-3.1-0.3-4.6-0.4L172,1082.1z"/>
	<path class="st0" d="M162.1,1080.8c1.6,0.3,3.3,0.5,4.9,0.7l2.1-15.9c-1.5-0.2-3-0.4-4.5-0.7L162.1,1080.8z"/>
	<path class="st0" d="M182.1,701.4L182.1,701.4c-1.7,0.1-3.3,0.2-5,0.3l1.2,16c1.5-0.1,3.1-0.2,4.6-0.3L182.1,701.4z"/>
	<path class="st0" d="M172.1,702.2c-1.7,0.2-3.3,0.4-5,0.6l2.1,15.9c1.5-0.2,3-0.4,4.6-0.5L172.1,702.2z"/>
	<path class="st0" d="M129.3,1055.6l-5.7,14.9c1.6,0.6,3.1,1.2,4.7,1.7l5.3-15.1C132.1,1056.6,130.7,1056.1,129.3,1055.6z"/>
	<path class="st0" d="M182,1082.9c1.7,0.1,3.3,0.2,5,0.2l0.4-16c-1.5,0-3.1-0.1-4.6-0.2L182,1082.9z"/>
	<path class="st0" d="M192.3,717.2l0-16c-1.7,0-3.5,0-5.2,0.1l0.4,16C189.1,717.2,190.7,717.2,192.3,717.2z"/>
	<path class="st0" d="M192.1,1067.2H192l0,16c1.7,0,3.3,0,5-0.1l-0.4-16C195.1,1067.1,193.6,1067.2,192.1,1067.2z"/>
	<path class="st0" d="M142.7,707.6c-1.6,0.4-3.2,0.9-4.8,1.4l4.5,15.3c1.5-0.4,2.9-0.8,4.4-1.2L142.7,707.6z"/>
	<path class="st0" d="M201.2,1066.9l0.8,16c1.7-0.1,3.3-0.2,5-0.3l-1.2-16C204.2,1066.8,202.7,1066.9,201.2,1066.9z"/>
	<path class="st0" d="M162.2,703.5c-1.7,0.3-3.3,0.5-4.9,0.8l2.9,15.7c1.5-0.3,3-0.5,4.5-0.8L162.2,703.5z"/>
	<path class="st0" d="M133,1073.8c1.6,0.5,3.2,1,4.8,1.5l4.5-15.3c-1.5-0.4-2.9-0.9-4.4-1.4L133,1073.8z"/>
	<path class="st0" d="M152.3,1079c1.6,0.3,3.3,0.7,4.9,1l2.9-15.7c-1.5-0.3-3-0.6-4.5-0.9L152.3,1079z"/>
	<path class="st0" d="M152.4,705.3c-1.6,0.3-3.3,0.7-4.9,1.1l3.7,15.6c1.5-0.4,3-0.7,4.5-1L152.4,705.3z"/>
</g>
<g>
	<g>
		<path class="st6" d="M86.9,942.3h-8.1v8.4c0,0.7,0.1,0.8,1,0.8h4.5c0.4,0,0.7,0,0.9-0.3c0.2-0.4,0.2-0.5,0.4-3.8l1.5,0.4
			c-0.1,4.2-0.5,4.9-2.5,4.9h-5c-0.7,0-2.2,0-2.2-1.9v-8.7h-5.3c-0.2,6.1-2.5,9.6-8.8,10.9l-0.7-1.3c6.5-1.2,7.9-4.6,8-9.6H63v-1.3
			h23.7v1.5L86.9,942.3L86.9,942.3z M75.7,929.4v2.3h10.7v6.3h-1.5v-5H65.1v5h-1.5v-6.3h10.6v-2.3H75.7z M83.6,936.2v1.3H66.5v-1.3
			H83.6z"/>
		<path class="st6" d="M86.1,938.3c3.3-1.3,8.2-3.9,11.5-9h1.6c2.3,3.4,7,7.4,11.3,9l-0.7,1.5c-4.3-1.9-8.7-5.4-11.5-9.2
			c-2.2,3.1-6.6,6.9-11.6,9.2L86.1,938.3z M99.1,939.3v4.6h8.4v1.4h-8.4v5.9h11.2v1.4H86.5v-1.4h11.1v-6h-8.4v-1.4h8.4v-4.6h-6.3
			v-1.3h14.1v1.3L99.1,939.3L99.1,939.3z"/>
		<path class="st6" d="M129.7,953.1v-1.6h-16v1.6h-1.4v-21h7.6c0.5-1.1,0.9-2.5,1-2.8l1.4,0.3c-0.3,0.8-0.8,1.8-1.1,2.5h10v21H129.7
			z M129.7,933.4h-16v4.6h16V933.4z M129.7,939.3h-16v4.7h16V939.3z M129.7,945.1h-16v5.1h16V945.1z"/>
		<path class="st6" d="M140.9,933.5h6v1.2h-6v1.7h5.3v8h-5.3v1.9h5.6v1.2h-5.6v2.5c2.2-0.3,3.4-0.4,5.5-0.9l0.1,1.2
			c-2.4,0.6-9.3,1.6-13.1,2l-0.3-1.4c2.3-0.2,3-0.2,6.3-0.7v-2.7h-5.6v-1.2h5.6v-1.9h-5.3v-8h5.3v-1.7h-6.2v-1.2h6.2v-2
			c-3.2,0.3-4.6,0.4-5.5,0.4l-0.4-1.2c3-0.1,7.5-0.4,11.3-1.4l0.9,1.1c-0.9,0.2-2.4,0.6-4.9,0.9L140.9,933.5L140.9,933.5z
			 M139.5,937.5h-4v2.3h4V937.5z M139.5,941h-4v2.3h4V941z M144.8,937.5h-4v2.3h4V937.5z M144.8,941h-4v2.3h4V941z M151.6,936.8
			c0,5.6-1,11.7-4.5,16.3l-1.4-1c0.8-1,2.3-2.9,3.1-6c1.3-5.1,1.3-8.3,1.3-9.6V936h-2.7v-1.3h2.7v-5.5h1.4v5.5h5
			c0.2,3.9-0.4,14.8-1,16.6c-0.5,1.5-1.4,1.7-2.7,1.7h-2.9l-0.4-1.4l3.1,0.1c0.3,0,1,0.1,1.4-0.6c0.9-1.8,1-12.5,1.1-15.1h-3.6
			L151.6,936.8L151.6,936.8z"/>
		<path class="st6" d="M168.1,931.4v1.2h-4.5c0.3,0.6,0.9,2.4,1,2.9l-1.4,0.2c-0.2-0.9-0.6-2.2-1-3.1h-1.8c-1.1,1.5-1.8,2.3-2.9,3.1
			l-1-1c2.6-1.9,3.8-4.9,4.1-5.4l1.5,0.3c-0.3,0.7-0.5,1.1-1,1.9L168.1,931.4L168.1,931.4L168.1,931.4z M167.8,936.7v-1.5h1.4v1.5
			H180v4.7h-1.5v-3.5h-19.8v3.5h-1.4v-4.7H167.8z M176.8,939.7v4.9h-15.2v2.1h17v6.6h-1.4V952h-15.6v1.3h-1.4v-13.5L176.8,939.7
			L176.8,939.7z M161.6,940.8v2.5h13.8v-2.5H161.6z M161.6,947.8v2.9h15.6v-2.9H161.6z M180.6,931.4v1.2h-6.1c0.3,0.6,1,2,1.3,2.9
			l-1.4,0.2c-0.3-0.8-0.4-1-1.3-3.1h-2.4c-1,1.4-1.5,1.9-2.1,2.4l-1.1-0.9c2-1.7,2.9-3.5,3.4-4.9l1.4,0.3c-0.2,0.6-0.4,1-0.9,1.8
			L180.6,931.4L180.6,931.4z"/>
		<path class="st6" d="M188.5,948.4c-3.2,1.2-6.4,1.8-8.4,2.2l-0.3-1.3c0.8-0.2,2.9-0.6,3.9-0.8V940h-3.3v-1.3h3.3v-6.8h-3.6v-1.2
			h8.3v1.2h-3.3v6.8h2.8v1.3h-2.8v8.1c1.8-0.5,2.5-0.8,3.3-1.1L188.5,948.4z M203,930v11.9h-6.2v3.5h6.5v1.3h-6.5v4.6h7.1v1.3h-16.3
			v-1.4h7.8v-4.6h-6.3v-1.3h6.3v-3.5h-6.1v-11.9L203,930L203,930z M195.4,931.3h-4.7v4.1h4.7V931.3z M195.4,936.5h-4.7v4.2h4.7
			V936.5z M201.6,931.3h-4.8v4.1h4.8V931.3z M201.6,936.5h-4.8v4.2h4.8V936.5z"/>
		<path class="st6" d="M216.8,929.8c0.3,1.8,0.5,3.1,1.1,4.7c4.2-0.2,6.3-0.6,8.1-1l0.3,1.5c-3.1,0.6-5.3,0.7-8,0.8
			c1.1,2.8,2.5,5.5,4.5,7.5l-1.3,1c-2.4-2.7-4.1-6.8-4.8-8.5c-2.2,0.1-4.2,0.1-5.1,0.1h-7v-1.5l7,0.2c1.3,0,3.9,0,4.7,0
			c-0.3-1-0.7-2.1-1.2-4.7L216.8,929.8z M212.8,941.7c-1.4,0.4-3.1,1-4.3,2.4c-0.4,0.5-1.1,1.4-1.1,2.4c0,0.6,0.3,2.7,3.4,3.6
			c1.8,0.6,4.8,0.6,5.6,0.6c3.2,0,5.3-0.2,7.1-0.5l0.1,1.6c-1,0.1-3.6,0.4-7.1,0.4c-5.1,0-6.8-0.8-7.8-1.4c-1.2-0.6-2.8-2-2.8-4.2
			c0-1.7,1.2-4.6,6.1-6.1L212.8,941.7z"/>
		<path class="st6" d="M234.3,930c-0.2,1.4-0.2,3-0.2,7.1c0.8-1,4.8-5.5,9-5.5c2,0,3.7,1.1,3.7,4c0,0.4,0,1.2-0.1,1.8l-0.2,3.6
			c-0.2,3.5-0.2,3.9-0.2,5.1c0,2.3,0,3.7,4.2,3.7l-0.5,1.5c-4.8-0.1-5.2-1.9-5.2-4.8c0-1.3,0-1.7,0.3-5.7l0.2-3.7
			c0.1-2.3,0-4.1-2.4-4.1c-1.2,0-4.1,0.6-8.8,6c0,2.1-0.1,11.4-0.1,13.3h-1.6c0-0.8,0-1.8,0.1-10.9c-1.4,2.9-2.5,4.4-4.2,6.3
			l-1.2-1.3c1.2-1.1,3.5-3.3,5.4-8.3v-2.3l-4.8,0.1v-1.5h4.8c0-0.5,0-3.8,0-4.4L234.3,930L234.3,930z"/>
		<path class="st6" d="M257.7,929.9c-0.1,1-0.2,2.2-0.4,3.7h8v1.5h-8.2c-1.2,7.4-2.9,13.6-4.8,17.6l-1.6-0.6
			c2.4-4.1,4.1-11.8,4.8-17h-4.2v-1.5h4.3c0.1-0.6,0.4-3.3,0.4-3.8L257.7,929.9z M262.8,944.3c-0.9,1.4-1.4,2.3-1.4,3.4
			c0,2.8,3.2,2.9,6.9,2.9c1.9,0,3.7-0.1,5.3-0.2v1.6c-0.8,0-4.9,0.1-5.1,0.1c-4,0-5.2-0.4-6.1-0.8c-1.6-0.7-2.4-2.3-2.4-3.7
			c0-1.7,0.9-3,1.6-4.1L262.8,944.3z M272.8,938.7c-0.7,0-1.4-0.1-2.6-0.1c-4.2,0-6.6,0.9-7.5,1.2l-0.4-1.4
			c1.4-0.5,4.3-1.5,10.6-1.3v1.6H272.8z"/>
		<path class="st6" d="M277.7,950.7c14.5-1.8,15.8-13.4,16.2-16.7h-18.7v-1.5H293c-0.1-0.2-0.1-0.3-0.1-0.6c0-1.6,1.3-2.7,2.7-2.7
			c1.5,0,2.7,1.2,2.7,2.7c0,1.4-1.1,2.7-2.8,2.7c-0.7,4.7-2.4,15.2-17.2,17.7L277.7,950.7z M294,931.9c0,0.9,0.7,1.6,1.6,1.6
			s1.6-0.7,1.6-1.6c0-0.9-0.7-1.6-1.6-1.6C294.7,930.3,294,931,294,931.9z"/>
		<path class="st6" d="M319.1,932.1v18.4h-20.2v-18.4H319.1z M317.5,933.6h-17.1v15.3h17.1V933.6z"/>
		<path class="st6" d="M111.5,978.1c5.3-3.4,7.7-8.5,8.6-10.5l1.8,0.3c-0.4,1-0.9,2-1.9,3.6h11.9c-1,4.7-2.9,9.2-6.1,12.8
			c-3.4,3.7-7.4,5.1-12.1,6.2L113,989c4.1-0.7,13.5-2.7,16.8-16h-10.7c-1.3,1.8-3.6,4.7-6.4,6.4L111.5,978.1z M129.6,970.7
			c-0.6-1.7-1-2.6-1.5-3.5l1.3-0.4c0.7,1.1,1.3,2.5,1.6,3.4L129.6,970.7z M132.8,970.5c-0.2-0.4-1-2.5-1.7-3.5l1.3-0.4
			c0.4,0.8,1.2,2.3,1.7,3.5L132.8,970.5z"/>
		<path class="st6" d="M155.4,975.2c-1.3,11.3-7.9,14.1-16.8,15.1l-0.4-1.6c7.5-0.7,14-2.6,15.5-12h-19.2v-1.5H155.4z M153.9,968.9
			v1.5h-17.4v-1.5H153.9z"/>
		<path class="st6" d="M172.8,977.6c3.5,4.6,5.4,8.2,7,11.9l-1.6,0.7c-0.3-0.8-0.5-1.5-1-2.5c-9.3,1.2-16.3,1.6-19.7,1.7l-0.1-1.7
			c0.5,0,2.1-0.1,2.3-0.1c3-6.9,4.9-13.8,6.3-19.3l1.7,0.3c-1.2,4.7-4.1,13.8-6.4,18.9c5.9-0.2,12.6-0.7,15.2-1.1
			c-1.5-2.8-3.2-5.5-5.1-8.1L172.8,977.6z"/>
		<path class="st6" d="M182.9,975.1v-1.2h8.4v-2.1h1.5v2.1h8.5v1.2h-8.5v2.9h8.5v1.2h-8.5c0,0.9-0.1,1.7-0.4,3H204v1.2h-10.5
			c1.7,3.3,4.5,5.1,10.5,6.4l-0.5,1.4c-7-1.6-9.7-4.3-11.4-7.7H192c-2,4.8-7.4,6.8-11.1,7.6l-0.8-1.4c7.9-1.7,9.5-4.6,10.2-6.3
			h-10.2v-1.2h10.7c0.3-1.1,0.4-2.1,0.5-3h-8.4V978h8.4v-2.9H182.9L182.9,975.1z M192.8,967.3v2.2h10.5v5.1h-1.5v-3.8h-19.5v3.8
			h-1.5v-5.1h10.5v-2.2H192.8z"/>
		<path class="st6" d="M203.2,981.1c3.5-2.5,5.6-5.8,6.8-8.2l1.1,0.6c-0.4,0.7-1.1,2.1-2.7,4.2v13.4H207v-11.6
			c-1.7,1.8-2.8,2.5-3.4,2.9L203.2,981.1z M210.4,967.9c-3,4.9-5.5,6.4-6.5,7.1l-0.5-1.4c2.4-1.3,4.7-4.1,5.9-6.3L210.4,967.9z
			 M227.3,976.9h-4.4v12.3c0,0.6,0,1.9-1.8,1.9h-4.2l-0.2-1.6l4,0.1c0.6,0,0.7-0.1,0.7-0.7v-12h-9.6v-1.3h15.5V976.9z M226.3,969.9
			h-13.4v-1.4h13.4V969.9z"/>
		<path class="st6" d="M250.2,970.5h-4.3v8.6h4.8v1.2h-5.9c1.1,1.8,3.5,3.9,6.1,5.1l-0.8,1.3c-1.6-1-4.5-2.9-6.7-6.3h-9
			c-2.2,3.6-5.2,5.5-6.8,6.3l-0.9-1.1c2.5-1.2,4.5-2.7,6.2-5.2H227v-1.2h4.9v-8.6h-4.2v-1.2h4.2v-2h1.4v2h11.3v-2h1.5v2h4.3v1.1
			H250.2z M238,988.9V985h-5.9v-1.2h5.9v-2.6h1.4v2.7h6v1.2h-6v3.9h10.3v1.2h-21.9V989L238,988.9L238,988.9z M244.4,970.5h-11.3v2
			h11.3V970.5z M244.4,973.6h-11.3v2h11.3V973.6z M244.4,976.8h-11.3v2.3h11.3V976.8z"/>
		<path class="st6" d="M256.6,979.8h-1.2v-4.2c-1.1,0.1-1.5,0.1-2.1,0.2c-0.3,4.2-1.4,6-2.2,7.1l-1.1-1c1.4-1.9,1.8-3.9,1.9-6
			c-0.2,0-1.3,0.1-1.5,0.1l-0.1-1.2c0.2,0,1.4-0.1,1.7-0.1v-5.5h3.1c0.3-0.9,0.4-1.3,0.6-2l1.4,0.1c-0.2,0.7-0.4,1.1-0.6,1.8h3.8
			v4.8c0.8-0.1,0.8-0.1,1.2-0.1v1.2c-0.8,0.1-0.9,0.1-1.2,0.1v5c0,1.2-0.4,1.6-1.8,1.6h-2.1l-0.4-1.4l2.2,0.1c0.4,0,0.7,0,0.7-0.6
			v-4.6c-1.4,0.2-2,0.2-2.3,0.2L256.6,979.8L256.6,979.8z M274.1,990.6h-23.8v-1.3h2.5v-6.2h18.8v6.2h2.5V990.6z M253.3,974.6
			c2.4-0.2,2.7-0.2,5.6-0.5v-3.8h-5.6L253.3,974.6L253.3,974.6z M258.6,984.3h-4.3v4.9h4.3V984.3z M256.4,973.7
			c-0.7-0.9-1.1-1.3-1.8-2.1l0.9-0.8c0.5,0.5,1.5,1.6,1.9,2.1L256.4,973.7z M264.3,984.3h-4.4v4.9h4.4V984.3z M273.5,982.3
			c-1.3-0.3-3.4-0.8-6.1-2.3c-1.4,0.8-2.9,1.5-5.8,2.4l-0.6-1.3c1.9-0.5,3.4-1,5.1-1.9c-1.6-1.1-2.5-2.2-2.9-2.7l1.1-0.7
			c1.2,1.4,2.2,2.2,3,2.7c1.3-0.9,2.4-1.8,3.5-3.1h-8.7v-1.2h10.5v1.2c-1.9,2.4-3.2,3.4-3.9,3.8c2,0.9,3.9,1.4,5.5,1.7L273.5,982.3z
			 M270.4,971c0,0.5,0.1,0.6,0.6,0.6h0.7c0.5,0,0.8,0,1-2l1.3,0.5c-0.2,2.5-1.1,2.8-1.9,2.8h-1.5c-0.2,0-1.5,0-1.5-1.4v-2.3h-4
			c-0.4,2.4-1.5,3.6-3,4.3l-0.8-1c2-1,2.4-2.2,2.6-4.5h6.5L270.4,971L270.4,971z M270.1,984.3h-4.5v4.9h4.5V984.3z"/>
	</g>
</g>
<g>
	<line class="st7" x1="159" y1="885.7" x2="221" y2="885.7"/>
	<circle class="st0" cx="160.7" cy="886" r="3.7"/>
	<circle class="st0" cx="223.3" cy="886" r="3.7"/>
</g>
<g>
	<path class="st0" d="M208.9,431.5l-12.4-10.1c-1,1.3-2.1,2.6-3.1,3.9l12.7,9.8C207,433.9,207.9,432.7,208.9,431.5z"/>
	<path class="st0" d="M214.8,424.6l-11.9-10.7c-1.1,1.2-2.2,2.5-3.3,3.8l12.2,10.4C212.8,426.9,213.8,425.7,214.8,424.6z"/>
	<path class="st0" d="M221.1,417.9l-11.3-11.3c-1.2,1.2-2.3,2.4-3.5,3.6l11.6,11C219,420.1,220.1,419,221.1,417.9z"/>
	<path class="st0" d="M203.3,438.8l-12.9-9.4c-1,1.3-1.9,2.7-2.9,4.1l13.2,9.1C201.5,441.3,202.4,440,203.3,438.8z"/>
	<path class="st0" d="M198.1,446.3l-13.4-8.7c-0.9,1.4-1.8,2.8-2.7,4.2l13.6,8.4C196.4,448.9,197.3,447.6,198.1,446.3z"/>
	<path class="st0" d="M178.4,595.7l-15.2,4.9c0.5,1.6,1,3.2,1.6,4.7l15.1-5.3C179.3,598.6,178.8,597.2,178.4,595.7z"/>
	<path class="st0" d="M234.7,405.7l-10.1-12.4c-1.3,1.1-2.6,2.1-3.8,3.2l10.4,12.2C232.4,407.6,233.6,406.6,234.7,405.7z"/>
	<path class="st0" d="M265.4,385.7l-7.3-14.3c-1.5,0.8-3,1.5-4.4,2.3l7.6,14.1C262.7,387.1,264.1,386.4,265.4,385.7z"/>
	<path class="st0" d="M282.1,378.3l-5.7-14.9c-1.6,0.6-3.1,1.2-4.6,1.9l6.1,14.8C279.3,379.4,280.7,378.8,282.1,378.3z"/>
	<path class="st0" d="M257.4,390.1l-8-13.8c-1.4,0.8-2.9,1.7-4.3,2.6l8.4,13.6C254.7,391.6,256.1,390.8,257.4,390.1z"/>
	<path class="st0" d="M188.9,462.2l-14.2-7.3c-0.8,1.5-1.5,3-2.2,4.5l14.4,6.9C187.5,464.9,188.2,463.6,188.9,462.2z"/>
	<path class="st0" d="M249.6,394.9l-8.7-13.4c-1.4,0.9-2.8,1.8-4.2,2.8l9.1,13.2C247,396.6,248.3,395.7,249.6,394.9z"/>
	<path class="st0" d="M227.8,411.6l-10.7-11.9c-1.2,1.1-2.5,2.2-3.7,3.4l11,11.6C225.5,413.7,226.7,412.6,227.8,411.6z"/>
	<path class="st0" d="M242,400.1l-9.4-12.9c-1.3,1-2.7,2-4,3l9.7,12.7C239.6,401.9,240.8,401,242,400.1z"/>
	<path class="st0" d="M273.7,381.8l-6.5-14.6c-1.5,0.7-3,1.4-4.5,2.1l6.9,14.4C270.9,383,272.3,382.4,273.7,381.8z"/>
	<path class="st0" d="M170.1,550.8l-16,0.8c0.1,1.7,0.2,3.3,0.3,5l16-1.2C170.3,553.9,170.2,552.3,170.1,550.8z"/>
	<path class="st0" d="M170.8,559.9l-15.9,1.6c0.2,1.7,0.4,3.3,0.6,5l15.9-2.1C171.1,563,171,561.5,170.8,559.9z"/>
	<path class="st0" d="M169.9,541.7L169.9,541.7l-16-0.1c0,1.7,0,3.3,0.1,5l16-0.4C169.9,544.7,169.9,543.2,169.9,541.7z"/>
	<path class="st0" d="M172,569l-15.8,2.5c0.3,1.7,0.5,3.3,0.8,4.9l15.7-2.9C172.5,572.1,172.2,570.5,172,569z"/>
	<path class="st0" d="M175.8,586.9l-15.5,4.1c0.4,1.6,0.9,3.2,1.4,4.8l15.3-4.5C176.6,589.9,176.2,588.4,175.8,586.9z"/>
	<path class="st0" d="M173.6,578l-15.7,3.3c0.3,1.6,0.7,3.3,1.1,4.9l15.6-3.7C174.3,581,173.9,579.5,173.6,578z"/>
	<path class="st0" d="M185,470.5l-14.6-6.5c-0.7,1.5-1.3,3.1-2,4.6l14.8,6.1C183.7,473.3,184.3,471.8,185,470.5z"/>
	<path class="st0" d="M170.1,532.5l-16-0.8c-0.1,1.7-0.2,3.3-0.2,5l16,0.4C170,535.5,170,534,170.1,532.5z"/>
	<path class="st0" d="M178.4,487.5l-15.2-4.9c-0.5,1.6-1,3.2-1.5,4.8l15.3,4.5C177.5,490.5,177.9,489,178.4,487.5z"/>
	<path class="st0" d="M175.8,496.3l-15.5-4.1c-0.4,1.6-0.8,3.2-1.2,4.8l15.6,3.7C175,499.3,175.4,497.8,175.8,496.3z"/>
	<path class="st0" d="M154.9,521.7C154.9,521.7,154.9,521.7,154.9,521.7L154.9,521.7z"/>
	<path class="st0" d="M181.4,478.9l-14.9-5.7c-0.6,1.6-1.2,3.1-1.7,4.7l15.1,5.3C180.4,481.8,180.9,480.3,181.4,478.9z"/>
	<path class="st0" d="M173.7,505.2l-15.7-3.3c-0.3,1.6-0.7,3.3-1,4.9l15.7,2.9C173,508.2,173.3,506.7,173.7,505.2z"/>
	<path class="st0" d="M172,514.2l-15.8-2.5c-0.3,1.6-0.5,3.3-0.7,4.9l15.9,2.1C171.5,517.3,171.8,515.7,172,514.2z"/>
	<path class="st0" d="M193.3,454.2l-13.8-8c-0.8,1.4-1.7,2.9-2.4,4.4l14.1,7.6C191.8,456.8,192.5,455.5,193.3,454.2z"/>
	<path class="st0" d="M491.8,446.5l13.4-8.7c-0.9-1.4-1.8-2.8-2.8-4.2l-13.2,9.1C490.1,444,490.9,445.3,491.8,446.5z"/>
	<path class="st0" d="M496.5,454.3l13.9-8c-0.8-1.4-1.7-2.9-2.6-4.3l-13.6,8.4C495,451.7,495.8,453,496.5,454.3z"/>
	<path class="st0" d="M498.8,458.3c0.7,1.3,1.4,2.7,2.1,4.1l14.3-7.3c-0.8-1.5-1.5-3-2.3-4.4L498.8,458.3z"/>
	<path class="st0" d="M481,431.7l12.4-10.1c-1-1.3-2.1-2.6-3.2-3.8l-12.2,10.4C479,429.3,480,430.5,481,431.7z"/>
	<path class="st0" d="M475,424.7l11.9-10.7c-1.1-1.2-2.2-2.5-3.4-3.7l-11.6,11C473,422.5,474,423.6,475,424.7z"/>
	<path class="st0" d="M468.7,418.1l11.3-11.3c-1.2-1.2-2.4-2.3-3.6-3.5l-11,11.6C466.6,415.9,467.7,417,468.7,418.1z"/>
	<path class="st0" d="M504.8,470.7l14.6-6.5c-0.7-1.5-1.4-3-2.1-4.5l-14.4,6.9C503.6,467.9,504.2,469.3,504.8,470.7z"/>
	<path class="st0" d="M486.6,439l12.9-9.4c-1-1.3-2-2.7-3-4l-12.7,9.7C484.7,436.5,485.7,437.7,486.6,439z"/>
	<path class="st0" d="M518.4,519c0.2,1.5,0.4,3,0.5,4.6l15.9-1.6c-0.2-1.7-0.4-3.3-0.6-5L518.4,519z"/>
	<path class="st0" d="M519.6,532.7l16-0.8c-0.1-1.7-0.2-3.3-0.3-5l-16,1.2C519.5,529.6,519.6,531.1,519.6,532.7z"/>
	<path class="st0" d="M517.8,514.4l15.8-2.5c-0.3-1.6-0.5-3.3-0.8-4.9l-15.7,2.9C517.3,511.4,517.5,512.9,517.8,514.4z"/>
	<path class="st0" d="M514,496.5l15.5-4.1c-0.4-1.6-0.9-3.2-1.3-4.8l-15.3,4.5C513.2,493.6,513.6,495.1,514,496.5z"/>
	<path class="st0" d="M516.1,505.4l15.7-3.3c-0.3-1.6-0.7-3.3-1.1-4.9l-15.6,3.7C515.5,502.4,515.8,503.9,516.1,505.4z"/>
	<path class="st0" d="M511.4,487.7l15.2-4.9c-0.5-1.6-1-3.2-1.6-4.7l-15.1,5.3C510.4,484.8,510.9,486.3,511.4,487.7z"/>
	<path class="st0" d="M508.3,479.1l14.9-5.7c-0.6-1.6-1.2-3.1-1.8-4.6l-14.8,6.1C507.2,476.3,507.8,477.7,508.3,479.1z"/>
	<path class="st0" d="M462.1,411.8l10.7-11.9c-1.2-1.1-2.5-2.2-3.8-3.3l-10.4,12.2C459.8,409.7,461,410.7,462.1,411.8z"/>
	<path class="st0" d="M403.5,376.7c1.4,0.5,2.9,1,4.3,1.6l5.8-14.9c-1.6-0.6-3.1-1.2-4.7-1.7L403.5,376.7z"/>
	<path class="st0" d="M394.5,357.2c-1.6-0.4-3.2-0.8-4.8-1.2l-3.7,15.6c1.5,0.4,3,0.7,4.4,1.1L394.5,357.2z"/>
	<path class="st0" d="M404.1,360.1c-1.6-0.5-3.2-1-4.8-1.5l-4.6,15.3c1.5,0.4,2.9,0.9,4.4,1.4L404.1,360.1z"/>
	<path class="st0" d="M384.8,354.9c-1.6-0.3-3.3-0.7-4.9-1l-2.9,15.7c1.5,0.3,3,0.6,4.5,0.9L384.8,354.9z"/>
	<path class="st0" d="M355.1,351c-1.7-0.1-3.3-0.2-5-0.2l-0.4,16c1.5,0,3.1,0.1,4.6,0.2L355.1,351z"/>
	<path class="st0" d="M365.1,351.7c-1.7-0.2-3.3-0.3-5-0.5l-1.3,16c1.5,0.1,3.1,0.3,4.6,0.4L365.1,351.7z"/>
	<path class="st0" d="M375,353c-1.6-0.3-3.3-0.5-4.9-0.7l-2.1,15.9c1.5,0.2,3,0.4,4.5,0.7L375,353z"/>
	<path class="st0" d="M432.5,390.2l8-13.8c-1.4-0.8-2.9-1.7-4.4-2.5l-7.7,14C429.9,388.7,431.2,389.4,432.5,390.2z"/>
	<path class="st0" d="M447.9,400.2l9.4-12.9c-1.3-1-2.7-1.9-4.1-2.9l-9.1,13.2C445.4,398.4,446.6,399.3,447.9,400.2z"/>
	<path class="st0" d="M440.3,395l8.7-13.4c-1.4-0.9-2.8-1.8-4.2-2.7l-8.4,13.6C437.8,393.3,439.1,394.2,440.3,395z"/>
	<path class="st0" d="M455.1,405.8l10.1-12.4c-1.3-1.1-2.6-2.1-3.9-3.1l-9.8,12.7C452.7,403.9,453.9,404.8,455.1,405.8z"/>
	<path class="st0" d="M424.5,385.8l7.3-14.2c-1.5-0.8-3-1.5-4.5-2.2l-6.9,14.4C421.8,384.4,423.1,385.1,424.5,385.8z"/>
	<path class="st0" d="M416.2,381.8l6.5-14.6c-1.5-0.7-3.1-1.3-4.6-2L412,380C413.4,380.6,414.8,381.2,416.2,381.8z"/>
	<path class="st0" d="M290.8,375.2l-4.9-15.2c-1.6,0.5-3.2,1.1-4.7,1.6l5.3,15.1C287.9,376.2,289.3,375.7,290.8,375.2z"/>
	<path class="st0" d="M170.4,527.9c0.1-1.5,0.3-3.1,0.4-4.6l-15.9-1.7c-0.2,1.7-0.3,3.3-0.5,5L170.4,527.9z"/>
	<path class="st0" d="M447.6,683.4l9.4,12.9c1.3-1,2.7-2,4-3l-9.7-12.7C450.1,681.5,448.8,682.5,447.6,683.4z"/>
	<path class="st0" d="M454.9,677.8l10.1,12.4c1.3-1,2.6-2.1,3.8-3.2l-10.4-12.2C457.3,675.8,456.1,676.8,454.9,677.8z"/>
	<path class="st0" d="M432.3,693.3l8,13.9c1.4-0.8,2.9-1.7,4.3-2.6l-8.4-13.6C434.9,691.8,433.6,692.6,432.3,693.3z"/>
	<path class="st0" d="M480.8,651.9l12.4,10.1c1.1-1.3,2.1-2.6,3.1-3.9l-12.7-9.8C482.7,649.5,481.7,650.7,480.8,651.9z"/>
	<path class="st0" d="M363.1,715.8l1.6,15.9c1.7-0.2,3.3-0.4,5-0.6l-2.1-15.9C366.1,715.4,364.6,715.6,363.1,715.8z"/>
	<path class="st0" d="M461.9,671.8l10.7,11.9c1.2-1.1,2.5-2.2,3.7-3.4l-11-11.6C464.1,669.8,463,670.8,461.9,671.8z"/>
	<path class="st0" d="M468.5,665.5l11.3,11.3c1.2-1.2,2.3-2.4,3.5-3.6l-11.6-11C470.7,663.3,469.6,664.4,468.5,665.5z"/>
	<path class="st0" d="M440.1,688.5l8.7,13.4c1.4-0.9,2.8-1.8,4.2-2.8l-9.1-13.2C442.6,686.9,441.3,687.7,440.1,688.5z"/>
	<path class="st0" d="M381.2,712.9l3.3,15.7c1.6-0.3,3.3-0.7,4.9-1.1l-3.7-15.6C384.2,712.3,382.6,712.6,381.2,712.9z"/>
	<path class="st0" d="M390.1,710.8l4.1,15.5c1.6-0.4,3.2-0.9,4.8-1.4l-4.5-15.3C393,710,391.5,710.4,390.1,710.8z"/>
	<path class="st0" d="M372.2,714.6l2.5,15.8c1.6-0.3,3.3-0.5,4.9-0.8l-2.9-15.7C375.2,714.1,373.7,714.3,372.2,714.6z"/>
	<path class="st0" d="M424.2,697.7l7.3,14.3c1.5-0.8,3-1.5,4.4-2.3l-7.6-14.1C426.9,696.3,425.6,697,424.2,697.7z"/>
	<path class="st0" d="M398.8,708.2l4.9,15.2c1.6-0.5,3.2-1,4.7-1.6l-5.3-15.1C401.7,707.2,400.3,707.7,398.8,708.2z"/>
	<path class="st0" d="M415.9,701.7l6.5,14.6c1.5-0.7,3-1.4,4.5-2.1l-6.9-14.4C418.7,700.4,417.3,701,415.9,701.7z"/>
	<path class="st0" d="M407.5,705.2l5.7,14.9c1.6-0.6,3.1-1.2,4.6-1.9l-6.1-14.8C410.3,704,408.9,704.6,407.5,705.2z"/>
	<path class="st0" d="M474.8,658.9l11.9,10.7c1.1-1.2,2.2-2.5,3.3-3.8l-12.2-10.4C476.9,656.6,475.8,657.7,474.8,658.9z"/>
	<path class="st0" d="M181.4,604.4l-14.9,5.7c0.6,1.6,1.2,3.1,1.9,4.6l14.8-6.1C182.5,607.2,182,605.8,181.4,604.4z"/>
	<path class="st0" d="M516,578.2l15.7,3.3c0.3-1.6,0.7-3.3,1-4.9l-15.7-2.9C516.7,575.2,516.4,576.8,516,578.2z"/>
	<path class="st0" d="M513.9,587.1l15.5,4.1c0.4-1.6,0.8-3.2,1.2-4.8l-15.6-3.7C514.7,584.2,514.3,585.7,513.9,587.1z"/>
	<path class="st0" d="M518.9,560.2l15.9,1.7c0.2-1.7,0.3-3.3,0.5-5l-16-1.3C519.2,557.1,519.1,558.6,518.9,560.2z"/>
	<path class="st0" d="M535.9,541.5c0-1.6,0-3.1-0.1-4.7l-16,0.4c0,1.5,0.1,3.1,0.1,4.6l16,0C535.9,541.7,535.9,541.6,535.9,541.5z"
		/>
	<polygon class="st0" points="535.8,536.9 535.8,536.9 535.8,536.9 	"/>
	<path class="st0" d="M519.6,551l16,0.8c0.1-1.7,0.2-3.3,0.2-5l-16-0.4C519.8,548,519.7,549.5,519.6,551z"/>
	<path class="st0" d="M511.3,595.9l15.2,5c0.5-1.6,1-3.2,1.5-4.8l-15.3-4.6C512.2,593,511.8,594.5,511.3,595.9z"/>
	<path class="st0" d="M496.4,629.3l13.8,8c0.8-1.4,1.7-2.9,2.5-4.4l-14-7.7C497.9,626.6,497.1,628,496.4,629.3z"/>
	<path class="st0" d="M491.6,637.1l13.4,8.7c0.9-1.4,1.8-2.8,2.7-4.2l-13.6-8.4C493.2,634.5,492.4,635.8,491.6,637.1z"/>
	<path class="st0" d="M486.4,644.7l12.9,9.4c1-1.3,1.9-2.7,2.9-4.1l-13.2-9.1C488.2,642.2,487.3,643.4,486.4,644.7z"/>
	<path class="st0" d="M500.8,621.3l14.2,7.3c0.8-1.5,1.5-3,2.2-4.5l-14.4-6.9C502.1,618.5,501.5,619.9,500.8,621.3z"/>
	<path class="st0" d="M508.2,604.6l14.9,5.7c0.6-1.6,1.2-3.1,1.7-4.7l-15.1-5.4C509.3,601.7,508.8,603.1,508.2,604.6z"/>
	<path class="st0" d="M504.7,613l14.6,6.5c0.7-1.5,1.3-3.1,2-4.6l-14.8-6.1C505.9,610.2,505.3,611.6,504.7,613z"/>
	<path class="st0" d="M517.7,569.2l15.8,2.5c0.3-1.6,0.5-3.3,0.7-4.9l-15.9-2.1C518.2,566.2,517.9,567.7,517.7,569.2z"/>
	<path class="st0" d="M241.9,683.2l-9.4,12.9c1.3,1,2.7,1.9,4.1,2.9l9.1-13.2C244.4,685,243.2,684.1,241.9,683.2z"/>
	<path class="st0" d="M234.7,677.6l-10.1,12.4c1.3,1.1,2.6,2.1,3.9,3.1l9.8-12.7C237.1,679.6,235.8,678.6,234.7,677.6z"/>
	<path class="st0" d="M227.7,671.7L217,683.6c1.2,1.1,2.5,2.2,3.8,3.3l10.4-12.2C230,673.7,228.8,672.7,227.7,671.7z"/>
	<path class="st0" d="M221.1,665.4l-11.3,11.3c1.2,1.2,2.4,2.3,3.6,3.5l11-11.6C223.2,667.5,222.1,666.4,221.1,665.4z"/>
	<path class="st0" d="M265.3,697.6l-7.3,14.2c1.5,0.8,3,1.5,4.5,2.2l6.9-14.4C268.1,699,266.7,698.3,265.3,697.6z"/>
	<path class="st0" d="M249.5,688.4l-8.7,13.4c1.4,0.9,2.8,1.8,4.2,2.7l8.4-13.6C252.1,690.1,250.8,689.3,249.5,688.4z"/>
	<path class="st0" d="M257.3,693.2l-8,13.8c1.4,0.8,2.9,1.7,4.4,2.4l7.7-14.1C259.9,694.8,258.6,694,257.3,693.2z"/>
	<path class="st0" d="M214.8,658.7l-11.9,10.7c1.1,1.2,2.2,2.5,3.4,3.7l11.6-11C216.8,661,215.8,659.9,214.8,658.7z"/>
	<path class="st0" d="M193.2,629.1l-13.9,8c0.8,1.4,1.7,2.9,2.6,4.3l13.6-8.4C194.8,631.8,194,630.4,193.2,629.1z"/>
	<path class="st0" d="M188.9,621.1l-14.3,7.3c0.8,1.5,1.5,3,2.3,4.4l14.1-7.6C190.3,623.8,189.5,622.4,188.9,621.1z"/>
	<path class="st0" d="M184.9,612.8l-14.6,6.5c0.7,1.5,1.4,3,2.1,4.5l14.4-6.9C186.2,615.6,185.5,614.2,184.9,612.8z"/>
	<path class="st0" d="M273.6,701.6l-6.5,14.6c1.5,0.7,3.1,1.3,4.6,2l6.1-14.8C276.4,702.8,275,702.2,273.6,701.6z"/>
	<path class="st0" d="M208.8,651.8l-12.4,10.1c1,1.3,2.1,2.6,3.2,3.8l12.2-10.4C210.7,654.1,209.8,652.9,208.8,651.8z"/>
	<path class="st0" d="M203.2,644.5l-12.9,9.4c1,1.3,2,2.7,3,4l12.7-9.7C205,646.9,204.1,645.7,203.2,644.5z"/>
	<path class="st0" d="M198,636.9l-13.4,8.7c0.9,1.4,1.8,2.8,2.8,4.2l13.2-9.1C199.7,639.5,198.9,638.2,198,636.9z"/>
	<path class="st0" d="M295.3,726.2c1.6,0.4,3.2,0.8,4.8,1.2l3.7-15.6c-1.5-0.4-3-0.7-4.4-1.1L295.3,726.2z"/>
	<path class="st0" d="M324.8,731.6c1.7,0.2,3.3,0.3,5,0.5l1.2-16c-1.5-0.1-3.1-0.3-4.6-0.4L324.8,731.6z"/>
	<path class="st0" d="M314.9,730.3c1.6,0.3,3.3,0.5,4.9,0.7l2.1-15.9c-1.5-0.2-3-0.4-4.5-0.7L314.9,730.3z"/>
	<path class="st0" d="M334.9,350.9L334.9,350.9c-1.7,0.1-3.3,0.2-5,0.3l1.2,16c1.5-0.1,3.1-0.2,4.6-0.3L334.9,350.9z"/>
	<path class="st0" d="M324.9,351.7c-1.7,0.2-3.3,0.4-5,0.6l2.1,15.9c1.5-0.2,3-0.4,4.6-0.5L324.9,351.7z"/>
	<path class="st0" d="M282,705.1l-5.7,14.9c1.6,0.6,3.1,1.2,4.7,1.7l5.3-15.1C284.9,706.2,283.5,705.6,282,705.1z"/>
	<path class="st0" d="M334.7,732.4c1.7,0.1,3.3,0.2,5,0.2l0.4-16c-1.5,0-3.1-0.1-4.6-0.2L334.7,732.4z"/>
	<path class="st0" d="M345.1,366.7l0-16c-1.7,0-3.5,0-5.2,0.1l0.4,16C341.9,366.7,343.5,366.7,345.1,366.7z"/>
	<path class="st0" d="M344.9,716.7h-0.1l0,16c1.7,0,3.3,0,5-0.1l-0.4-16C347.9,716.7,346.3,716.7,344.9,716.7z"/>
	<path class="st0" d="M295.4,357.1c-1.6,0.4-3.2,0.9-4.8,1.4l4.5,15.3c1.5-0.4,2.9-0.8,4.4-1.2L295.4,357.1z"/>
	<path class="st0" d="M353.9,716.5l0.8,16c1.7-0.1,3.3-0.2,5-0.3l-1.2-16C357,716.3,355.4,716.4,353.9,716.5z"/>
	<path class="st0" d="M315,353c-1.7,0.3-3.3,0.5-4.9,0.8l2.9,15.7c1.5-0.3,3-0.5,4.5-0.8L315,353z"/>
	<path class="st0" d="M285.7,723.4c1.6,0.5,3.2,1,4.8,1.5l4.5-15.3c-1.5-0.4-2.9-0.9-4.4-1.4L285.7,723.4z"/>
	<path class="st0" d="M305,728.5c1.6,0.3,3.3,0.7,4.9,1l2.9-15.7c-1.5-0.3-3-0.6-4.5-0.9L305,728.5z"/>
	<path class="st0" d="M305.1,354.8c-1.6,0.3-3.3,0.7-4.9,1.1l3.7,15.6c1.5-0.4,3-0.7,4.5-1L305.1,354.8z"/>
</g>
<g>
	<g>
		<path class="st6" d="M225.2,581.7h-23.8v-1.3h11.2v-2.1h1.5v2.1h11.2L225.2,581.7L225.2,581.7z M224.1,600.4
			c0,1.2-0.6,1.7-1.7,1.7h-4l-0.3-1.5l3.7,0.1c0.3,0,0.8,0,0.8-0.9v-8.1H204v10.4h-1.4v-11.6h21.5V600.4z M221.2,588.7h-15.8v-5.2
			h15.8V588.7z M219.7,584.6h-12.9v3h12.9V584.6z M219.1,598.8h-11.6v-5.1h11.6V598.8z M217.7,594.8h-8.8v2.8h8.8V594.8z"/>
		<path class="st6" d="M245.1,599.9c0,1.6-0.8,2.2-2.2,2.2h-4.7l-0.2-1.5l4.8,0.1c0.6,0,0.9,0,0.9-1v-18.8h-18.8v-1.4h23.8v1.4h-3.5
			v19H245.1L245.1,599.9z M238.9,595.3h-10v1.6h-1.4v-12.4h11.4V595.3z M237.5,585.9h-8.6v8.1h8.6V585.9z"/>
		<path class="st6" d="M270.5,600c0,1.4-0.4,2.1-1.8,2.1h-3.6l-0.2-1.4l3.5,0.1c0.6,0,0.6-0.5,0.6-0.8v-6.1h-7.9v8h-1.4v-8h-7.4
			c-0.5,4.4-2,6.6-3.3,8.2l-1-1c2.2-2.8,2.9-5.8,2.9-10.2v-11.5h19.6V600z M252.4,590.7c0,0.8,0,1.3,0,2h7.3v-5.6h-7.3L252.4,590.7
			L252.4,590.7z M259.7,580.7h-7.3v5.2h7.3V580.7z M269,580.7h-7.9v5.2h7.9V580.7z M269,587.1h-7.9v5.6h7.9V587.1z"/>
		<path class="st6" d="M271.1,590.3c0.9-2.4,1.1-4.7,1.2-6.7l1.4,0.1c-0.2,3-0.5,5-1.2,7.1L271.1,590.3z M276.5,578.3v23.8H275
			v-23.8H276.5z M278.7,587.5c-0.2-1.6-0.8-3.2-1.2-4.3l1.2-0.3c0.7,1.8,1,3.1,1.3,4.1L278.7,587.5z M287.4,584.4v-6.1h1.5v6.1h6.2
			v1.3h-6.2v6h5.6v1.3h-5.6v6.8h6.6v1.4h-16.1v-1.4h8V593h-6.2v-1.3h6.2v-6h-4.5c-0.5,1.4-1.3,3.5-2.5,4.9l-1.1-0.9
			c2.4-3.4,3.2-7.6,3.5-10.1l1.4,0.3c-0.1,0.8-0.2,2.2-0.9,4.5L287.4,584.4L287.4,584.4z"/>
		<path class="st6" d="M308.5,590.2c0,0.9-0.7,1.6-1.6,1.6s-1.6-0.7-1.6-1.6c0-0.9,0.7-1.6,1.6-1.6
			C307.8,588.7,308.5,589.4,308.5,590.2z"/>
		<path class="st6" d="M342.2,581.7h-23.8v-1.3h11.2v-2.1h1.5v2.1h11.2v1.3H342.2z M341.1,600.4c0,1.2-0.6,1.7-1.7,1.7h-4l-0.3-1.5
			l3.7,0.1c0.3,0,0.8,0,0.8-0.9v-8.1H321v10.4h-1.4v-11.6h21.5V600.4z M338.2,588.7h-15.8v-5.2h15.8V588.7z M336.7,584.6h-12.9v3
			h12.9V584.6z M336.1,598.8h-11.6v-5.1h11.6V598.8z M334.7,594.8h-8.8v2.8h8.8V594.8z"/>
		<path class="st6" d="M345.4,578.3h1.5v2.3h6.1v-2.3h1.4v2.3h6.2v-2.3h1.4v2.3h3.5v1.2H362v4h-16.7v-4h-3.5v-1.2h3.5v-2.3H345.4z
			 M365,593.3h-1.5v-4.2h-9.1v2.8h7.6v7c0,1.2-0.4,1.7-2.2,1.7H357l-0.4-1.5l3,0.1c0.8,0,0.9-0.2,0.9-0.9v-5.2h-6.2v9h-1.5v-9h-6.1
			v7.4h-1.5v-8.7h7.6V589h-9.1v4.2h-1.4v-5.4H365V593.3z M353,581.9h-6.1v2.8h6.1V581.9z M360.6,581.9h-6.2v2.8h6.2V581.9z"/>
		<path class="st6" d="M372.7,596.3c-1.7,0.9-5.1,2.1-7.5,2.7l-0.3-1.5c1.1-0.2,2.2-0.5,3.6-0.9v-10.5h-3.4v-1.2h3.4v-6.4h1.4v6.4
			h2.4v1.2H370v10.1c1.7-0.6,2.3-0.9,2.8-1.1L372.7,596.3L372.7,596.3z M371.2,598.1c2.1-0.4,6-1.4,8.9-2.5v1.4
			c-2.8,1.2-7.1,2.3-8.6,2.6L371.2,598.1z M389,582.3v1.3h-6.3c0.1,5.9,0.2,7,0.7,10.2c0.7-1.2,1.9-3.4,2.9-8.1l1.4,0.4
			c-0.8,3.3-1.9,6.6-3.9,9.6c0.6,2.9,1.7,4.8,2.4,4.8c0.8,0,1.6-2.8,2-4.2l1.2,0.7c0,0.2-1,5-3.1,5s-3.2-3.7-3.5-5
			c-2.2,2.8-4.5,4.3-5.8,5.1l-1.1-1.2c1.9-1.1,4.3-2.7,6.5-5.6c-0.8-3.9-0.9-6-1-11.9h-9.2v-1.3h9.2c0-0.6-0.1-3.4-0.1-4h1.4
			c0,0.6,0.1,3.4,0.1,4h6.2L389,582.3L389,582.3z M379.8,593.5h-6.9V586h6.9V593.5z M378.5,587.1h-4.3v5.2h4.3V587.1z M386.7,582
			c-0.6-0.8-1.5-1.8-2.7-2.7l1-0.9c0.8,0.6,2,1.7,2.8,2.7L386.7,582z"/>
		<path class="st6" d="M393.1,602.1h-1.4v-15.2c-0.6,1.4-1.4,2.6-2.4,3.7l-0.9-1.4c3.2-3.7,4.5-9.5,4.8-11l1.4,0.3
			c-0.4,1.8-0.8,3.2-1.5,5.2V602.1z M412.2,587.2v1.3h-6.9c0.6,4.8,1.3,7.4,2.4,9.6c0.5,1,1.5,2.4,2.2,2.4c0.8,0,1.1-2.6,1.2-3.8
			l1.4,0.4c-0.4,2.7-0.9,5-2.4,5c-2.9,0-5.5-6.2-6.2-13.6h-6.1v7.8c0.3-0.1,2.9-0.5,5.8-1.5v1.3c-3.8,1.1-6.7,1.6-8.8,2l-0.2-1.3
			c0.5-0.1,0.8-0.1,1.9-0.3v-15.8c4.7-0.1,10.1-0.9,13.3-2.5l0.9,1.2c-1.7,0.7-3.2,1.2-5.7,1.7c0,2.4,0.2,5.2,0.3,6L412.2,587.2
			L412.2,587.2z M395,601.1v-1.3h10.6v1.3H395z M403.7,587.2c-0.1-1.1-0.1-1.6-0.3-5.7c-2.7,0.4-4.9,0.5-5.7,0.6v5.1H403.7
			L403.7,587.2z"/>
		<path class="st6" d="M417.4,599.2c10.9-1.2,14.1-6.9,16.3-13.9l1.4,0.9c-2.2,6.4-5.4,13.9-19.3,14.7v-21.7h1.6V599.2z"/>
		<path class="st6" d="M449.9,601.6h-1.6v-13.4c-3.5,2.6-7.3,4.7-11.5,6.1l-0.7-1.5c3.7-1.1,12.6-5,19.3-13.9l1.6,0.9
			c-3.5,4.3-6.4,6.6-7,7.1L449.9,601.6L449.9,601.6z"/>
		<path class="st6" d="M481.5,586.8v1.5h-9.1v1c-0.2,7.4-3.2,10.7-10.2,12.1l-0.6-1.5c7.2-1.3,9-4.6,9.2-10.5l0.1-1.1h-11v-1.5
			H481.5z M479.3,579.8v1.5H462v-1.5H479.3z"/>
		<path class="st6" d="M316.5,624c-2.3-1.6-5.7-3-8.2-3.8l0.9-1.5c2,0.6,5.5,1.9,8.2,3.7L316.5,624z M308.6,636.8
			c7.7-0.2,16.1-4.2,19.9-16.1l1.5,0.6c-1,2.7-3,8.3-8.2,12.5c-3.6,2.9-8.1,4.5-12.7,4.8L308.6,636.8z"/>
		<path class="st6" d="M339.1,628.4c-2.8-1.6-4.6-2.4-7.5-3.2l0.7-1.4c2.6,0.7,4.7,1.5,7.6,3.1L339.1,628.4z M332.9,636.9
			c11.6-1.1,16-6.5,18.8-15l1.4,0.6c-3.5,9.8-7.3,14.5-19.9,16.1L332.9,636.9z M341.2,622.2c-1.2-0.7-3.2-1.9-7.6-3.2l0.7-1.4
			c3.2,0.8,5.5,1.7,7.7,3L341.2,622.2z"/>
		<path class="st6" d="M376.9,627.4v1.7h-23.1v-1.7H376.9z"/>
	</g>
</g>
<g>
	<line class="st7" x1="309" y1="534.7" x2="371" y2="534.7"/>
	<circle class="st0" cx="310.7" cy="535" r="3.7"/>
	<circle class="st0" cx="373.3" cy="535" r="3.7"/>
</g>
<circle class="st2" cx="77.3" cy="834.4" r="18"/>
<g>
	<polygon class="st8" points="71.1,820.3 71.1,824.2 74.7,824.2 76.1,828.8 65.4,844.5 70.8,844.5 78.2,833.8 82.9,845.9 
		90.3,843.1 89.3,839.5 85.7,840.6 77.5,820.3 	"/>
</g>
<g>
	<g>
		<path class="st5" d="M250.6,468.2l10.8,29.7h-4.1l-3.8-10.5h-7.9l-3.8,10.5h-4.1l10.8-29.7H250.6z M252.1,483.5l-2.5-7l-2.5,7
			H252.1z"/>
		<path class="st5" d="M273.2,492.3v-24.1h3.8v24.1c0.1,0.2,0.3,0.5,0.6,0.8c0.8,0.8,1.8,1.2,2.9,1.2s2.1-0.4,2.9-1.2
			c0.8-0.8,1.2-1.7,1.2-2.8v-22.1h3.9v22.2c0,2.1-0.8,3.9-2.3,5.4c-1.5,1.6-3.4,2.3-5.6,2.3s-4-0.8-5.4-2.3
			c-1.4,1.5-3.2,2.3-5.4,2.3c-2.2,0-4.1-0.8-5.6-2.3s-2.3-3.3-2.3-5.4v-22.2h3.8v22.1c0,1.1,0.4,2,1.2,2.8c0.8,0.8,1.8,1.2,2.9,1.2
			s2.1-0.4,2.9-1.2C272.8,492.8,273.1,492.5,273.2,492.3z"/>
		<path class="st5" d="M298.2,482.6c-2.1-0.7-3.8-1.7-5.1-3c-1.3-1.3-2-2.9-2-4.9c0-1.9,0.7-3.5,2-4.9c1.4-1.4,3-2,4.9-2
			s3.5,0.7,4.9,2c0.8,0.7,1.4,1.9,1.9,3.5l-3.5,1.4c-0.4-1.1-0.8-1.9-1.2-2.2c-0.6-0.6-1.3-0.9-2.2-0.9c-0.9,0-1.6,0.3-2.2,0.9
			c-0.6,0.6-0.9,1.3-0.9,2.2s0.3,1.6,0.9,2.2c0.7,0.7,1.6,1.3,2.8,1.8c2.3,0.8,4.3,1.9,5.9,3.6c1.8,1.8,2.7,4,2.7,6.5
			s-0.9,4.7-2.7,6.6c-1.8,1.8-4,2.7-6.5,2.7c-2.6,0-4.7-0.9-6.5-2.7c-1.4-1.4-2.4-3.4-2.7-6l3.7-1.4c0.2,2.2,0.8,3.7,1.7,4.7
			c1.1,1.1,2.3,1.6,3.8,1.6s2.8-0.5,3.8-1.6c1.1-1.1,1.6-2.4,1.6-3.9s-0.5-2.8-1.6-3.8C300.9,484.1,299.7,483.3,298.2,482.6z"/>
		<path class="st5" d="M341.5,490.8l2.9,2.6c-3.5,3.2-7.2,4.8-11.2,4.8c-4.2,0-7.8-1.5-10.7-4.4c-3-3-4.4-6.5-4.4-10.7
			s1.5-7.8,4.4-10.7c3-3,6.5-4.5,10.7-4.5c3.9,0,7.6,1.6,11.2,4.8l-2.9,2.6c-2.6-2.4-5.4-3.5-8.3-3.5c-3.1,0-5.8,1.1-8,3.3
			c-2.2,2.2-3.3,4.9-3.3,8c0,3.1,1.1,5.8,3.3,8c2.2,2.2,4.9,3.3,8,3.3C336.1,494.3,338.9,493.2,341.5,490.8z"/>
		<path class="st5" d="M350,468.2v29.7h-3.9v-29.7H350z"/>
		<path class="st5" d="M362.2,477.2c2.9,0,5.4,1,7.5,3.1s3.1,4.6,3.1,7.5s-1,5.4-3.1,7.5s-4.5,3.1-7.5,3.1c-2.9,0-5.4-1-7.5-3.1
			s-3.1-4.6-3.1-7.5s1-5.4,3.1-7.5C356.8,478.3,359.3,477.2,362.2,477.2z M357.5,483.1c-1.3,1.3-1.9,2.9-1.9,4.7
			c0,1.8,0.6,3.4,1.9,4.7s2.9,1.9,4.7,1.9c1.8,0,3.4-0.6,4.7-1.9c1.3-1.3,1.9-2.8,1.9-4.7c0-1.8-0.6-3.4-1.9-4.7s-2.9-1.9-4.7-1.9
			C360.3,481.2,358.8,481.8,357.5,483.1z"/>
		<path class="st5" d="M382.4,498.1c-2.4,0-4.4-0.7-5.8-2.2c-1.5-1.5-2.2-3.3-2.3-5.5v-11.6h3.9v11.5c0,1.1,0.4,2,1.2,2.8
			c0.8,0.8,1.8,1.2,3,1.2c1.1,0,2.1-0.4,2.9-1.2s1.2-1.7,1.2-2.8v-11.5h3.8v11.6c0,2.2-0.8,4.1-2.2,5.5
			C386.6,497.4,384.7,498.1,382.4,498.1z"/>
		<path class="st5" d="M409.6,480.1v-11.9h3.9v29.7h-3.9v-2.4c-1.9,1.9-4,2.9-6.5,2.9c-2.9,0-5.4-1-7.5-3.1
			c-2.1-2.1-3.1-4.6-3.1-7.5c0-2.9,1-5.4,3.1-7.5c2.1-2.1,4.5-3.1,7.5-3.1C405.6,477.2,407.8,478.2,409.6,480.1z M409.6,489.2v-2.8
			c-0.2-1.2-0.8-2.3-1.8-3.3c-1.3-1.3-2.8-1.9-4.7-1.9c-1.8,0-3.4,0.6-4.7,1.9c-1.3,1.3-1.9,2.9-1.9,4.7c0,1.8,0.6,3.4,1.9,4.7
			s2.9,1.9,4.7,1.9c1.8,0,3.4-0.6,4.7-1.9C408.8,491.5,409.4,490.4,409.6,489.2z"/>
		<path class="st5" d="M430.5,468.2v3.8H420v9.1h10.4v3.8H420v12.9h-3.8v-29.6H430.5z"/>
		<path class="st5" d="M436.6,481.4c1.4-1.9,3.2-3,5.3-3.1v4c-1.4,0.1-2.5,0.5-3.3,1.4c-1.2,1.2-1.9,2.7-1.9,4.4v9.8h-3.8v-19.1h3.8
			v2.6H436.6L436.6,481.4z"/>
		<path class="st5" d="M452.2,477.2c2.9,0,5.4,1,7.5,3.1s3.1,4.6,3.1,7.5s-1,5.4-3.1,7.5s-4.5,3.1-7.5,3.1c-2.9,0-5.4-1-7.5-3.1
			s-3.1-4.6-3.1-7.5s1-5.4,3.1-7.5C446.8,478.3,449.3,477.2,452.2,477.2z M447.5,483.1c-1.3,1.3-1.9,2.9-1.9,4.7
			c0,1.8,0.6,3.4,1.9,4.7s2.9,1.9,4.7,1.9c1.8,0,3.4-0.6,4.7-1.9c1.3-1.3,1.9-2.8,1.9-4.7c0-1.8-0.6-3.4-1.9-4.7s-2.9-1.9-4.7-1.9
			S448.8,481.8,447.5,483.1z"/>
		<path class="st5" d="M468.2,483.9v14h-3.9v-19.1h3.9v2.2c0.8-2.2,2.4-3.3,4.8-3.3c2.1,0,3.7,0.7,4.9,2.2c1.2,1.5,1.8,3.3,1.9,5.5
			v12.4H476v-12.3c0-1.1-0.4-2-1.2-2.8c-0.8-0.8-1.8-1.2-2.9-1.2s-2.1,0.4-2.9,1.2C468.6,483.2,468.3,483.6,468.2,483.9z"/>
		<path class="st5" d="M484.9,478.8v-7.2h3.8v7.2h3.4v3.8h-3.4v15.3h-3.8v-15.3h-3.4v-3.8H484.9z"/>
	</g>
</g>
<g>
	<g>
		<path class="st5" d="M120.1,819.2l10.8,29.7h-4.1l-3.8-10.5h-7.9l-3.8,10.5h-4.1l10.8-29.7H120.1z M121.6,834.5l-2.5-7l-2.5,7
			H121.6z"/>
		<path class="st5" d="M142.7,843.3v-24.1h3.8v24.1c0.1,0.2,0.3,0.5,0.6,0.8c0.8,0.8,1.8,1.2,2.9,1.2c1.1,0,2.1-0.4,2.9-1.2
			c0.8-0.8,1.2-1.7,1.2-2.8v-22.1h3.9v22.2c0,2.1-0.8,3.9-2.3,5.4c-1.5,1.6-3.4,2.3-5.6,2.3c-2.2,0-4-0.8-5.4-2.3
			c-1.4,1.5-3.2,2.3-5.4,2.3s-4.1-0.8-5.6-2.3s-2.3-3.3-2.3-5.4v-22.2h3.8v22.1c0,1.1,0.4,2,1.2,2.8c0.8,0.8,1.8,1.2,2.9,1.2
			c1.1,0,2.1-0.4,2.9-1.2C142.4,843.8,142.6,843.5,142.7,843.3z"/>
		<path class="st5" d="M167.7,833.6c-2.1-0.7-3.8-1.7-5.1-3c-1.3-1.3-2-2.9-2-4.9c0-1.9,0.7-3.5,2-4.9c1.4-1.4,3-2,4.9-2
			s3.5,0.7,4.9,2c0.8,0.7,1.4,1.9,1.9,3.5l-3.5,1.4c-0.4-1.1-0.8-1.9-1.2-2.2c-0.6-0.6-1.3-0.9-2.2-0.9s-1.6,0.3-2.2,0.9
			c-0.6,0.6-0.9,1.3-0.9,2.2s0.3,1.6,0.9,2.2c0.7,0.7,1.6,1.3,2.8,1.8c2.3,0.8,4.3,1.9,5.9,3.6c1.8,1.8,2.7,4,2.7,6.5
			s-0.9,4.7-2.7,6.6c-1.8,1.8-4,2.7-6.5,2.7c-2.6,0-4.7-0.9-6.5-2.7c-1.4-1.4-2.4-3.4-2.7-6l3.7-1.4c0.2,2.2,0.8,3.7,1.7,4.7
			c1.1,1.1,2.3,1.6,3.8,1.6s2.8-0.5,3.8-1.6c1.1-1.1,1.6-2.4,1.6-3.9s-0.5-2.8-1.6-3.8C170.5,835.1,169.2,834.3,167.7,833.6z"/>
		<path class="st5" d="M188.1,848.9v-29.7h3.8V845h10.6v3.9H188.1z"/>
		<path class="st5" d="M216.9,831.1v-1.3h3.9v19.1h-3.9v-2.4c-1.9,1.9-4,2.9-6.5,2.9c-2.9,0-5.4-1-7.5-3.1s-3.1-4.5-3.1-7.5
			c0-2.9,1-5.4,3.1-7.5s4.5-3.1,7.5-3.1C212.9,828.3,215,829.2,216.9,831.1z M216.9,840.2v-2.8c-0.2-1.2-0.8-2.3-1.8-3.3
			c-1.3-1.3-2.9-1.9-4.7-1.9s-3.4,0.6-4.7,1.9s-1.9,2.8-1.9,4.7c0,1.8,0.6,3.4,1.9,4.7c1.3,1.3,2.9,1.9,4.7,1.9s3.4-0.6,4.7-1.9
			C216,842.5,216.6,841.4,216.9,840.2z"/>
		<path class="st5" d="M223.5,829.8h3.8v1.8c0.7-1.9,2.2-2.8,4.3-2.8s3.3,1.1,3.5,3.2c0.6-2.1,2.3-3.2,5-3.2s4,1.6,4,4.9v15.2h-3.9
			v-13.4c0-1.9-0.8-2.8-2.3-2.8c-0.6,0-1.2,0.2-1.6,0.7c-0.5,0.4-0.7,1.9-0.7,4.5V849h-3.8v-13.4c0-1.9-0.8-2.8-2.3-2.8
			c-0.6,0-1.2,0.2-1.6,0.7c-0.4,0.4-0.6,1.4-0.7,3V849h-3.8v-19.2H223.5z"/>
		<path class="st5" d="M250.8,846.5v2.4H247v-29.7h3.8v11.9c1.9-1.9,4-2.9,6.5-2.9c2.9,0,5.4,1,7.5,3.1s3.1,4.6,3.1,7.5
			s-1,5.4-3.1,7.5s-4.5,3.1-7.5,3.1C254.8,849.4,252.6,848.4,250.8,846.5z M250.8,837.3v3c0.2,1.2,0.8,2.2,1.8,3.2
			c1.3,1.3,2.9,1.9,4.7,1.9c1.8,0,3.4-0.6,4.7-1.9c1.3-1.3,1.9-2.8,1.9-4.7c0-1.8-0.6-3.4-1.9-4.7c-1.3-1.3-2.9-1.9-4.7-1.9
			c-1.8,0-3.4,0.6-4.7,1.9C251.6,835.1,251,836.1,250.8,837.3z"/>
		<path class="st5" d="M286.6,831.1v-11.9h3.9v29.7h-3.9v-2.4c-1.9,1.9-4,2.9-6.5,2.9c-2.9,0-5.4-1-7.5-3.1s-3.1-4.6-3.1-7.5
			s1-5.4,3.1-7.5s4.5-3.1,7.5-3.1C282.6,828.2,284.8,829.2,286.6,831.1z M286.6,840.2v-2.8c-0.2-1.2-0.8-2.3-1.8-3.3
			c-1.3-1.3-2.8-1.9-4.7-1.9c-1.8,0-3.4,0.6-4.7,1.9c-1.3,1.3-1.9,2.9-1.9,4.7c0,1.8,0.6,3.4,1.9,4.7c1.3,1.3,2.9,1.9,4.7,1.9
			c1.8,0,3.4-0.6,4.7-1.9C285.8,842.5,286.4,841.4,286.6,840.2z"/>
		<path class="st5" d="M309.7,831.1v-1.3h3.9v19.1h-3.9v-2.4c-1.9,1.9-4,2.9-6.5,2.9c-2.9,0-5.4-1-7.5-3.1s-3.1-4.5-3.1-7.5
			c0-2.9,1-5.4,3.1-7.5s4.5-3.1,7.5-3.1C305.7,828.3,307.9,829.2,309.7,831.1z M309.7,840.2v-2.8c-0.2-1.2-0.8-2.3-1.8-3.3
			c-1.3-1.3-2.9-1.9-4.7-1.9c-1.8,0-3.4,0.6-4.7,1.9c-1.3,1.3-1.9,2.8-1.9,4.7c0,1.8,0.6,3.4,1.9,4.7c1.3,1.3,2.9,1.9,4.7,1.9
			c1.8,0,3.4-0.6,4.7-1.9C308.9,842.5,309.5,841.4,309.7,840.2z"/>
	</g>
</g>
<g id="Layer_1">
	<polygon class="st4" points="203.2,484.7 195.3,495.3 191.2,484.8 198.7,484.3 	"/>
	<polygon class="st4" points="213.5,484.7 221.5,495.4 225.6,484.8 218.1,484.3 	"/>
	<polygon class="st3" points="203.2,477.7 195.3,467 191.2,477.7 198.8,478.1 	"/>
	<polygon class="st3" points="213.5,477.7 221.5,467 225.6,477.7 218.1,478.1 	"/>
	<polygon class="st1" points="213.5,477.7 221.5,477.1 221.5,467 213.5,469.1 	"/>
	<polygon class="st2" points="225.6,477.7 221.5,477.1 221.5,467 225.6,469.1 	"/>
	<polygon class="st1" points="213.5,484.7 221.5,485.4 221.5,495.4 213.5,493.3 	"/>
	<polygon class="st2" points="225.6,484.8 221.5,485.4 221.5,495.4 225.6,493.4 	"/>
	<polygon class="st2" points="203.2,477.7 195.3,477.1 195.3,467 203.2,469.1 	"/>
	<polygon class="st1" points="191.2,477.7 195.3,477.1 195.3,467 191.2,469.1 	"/>
	<polygon class="st2" points="203.2,484.7 195.3,485.4 195.3,495.4 203.2,493.3 	"/>
	<polygon class="st1" points="191.2,484.8 195.3,485.4 195.3,495.4 191.2,493.3 	"/>
	<polygon class="st4" points="216.6,486.1 208.4,485.2 200.1,486 208.4,501.9 	"/>
	<polygon class="st3" points="216.6,476.4 208.4,477.2 200.1,476.4 208.4,460.5 	"/>
	<polygon class="st2" points="216.6,476.4 208.4,475.2 208.4,460.5 216.6,464.6 	"/>
	<polygon class="st1" points="200.1,476.4 208.4,475.2 208.4,460.5 200.1,464.6 	"/>
	<polygon class="st2" points="216.6,486.1 208.4,487.2 208.4,501.9 216.6,497.8 	"/>
	<polygon class="st1" points="200.1,486 208.4,487.2 208.4,501.9 200.1,497.8 	"/>
</g>
</svg>
