<?xml version="1.0" encoding="utf-8"?>
<!-- Generator: Adobe Illustrator 19.2.1, SVG Export Plug-In . SVG Version: 6.00 Build 0)  -->
<svg version="1.1" id="レイヤー_1" xmlns="http://www.w3.org/2000/svg" xmlns:xlink="http://www.w3.org/1999/xlink" x="0px"
	 y="0px" viewBox="0 0 550 370" style="enable-background:new 0 0 550 370;" xml:space="preserve">
<style type="text/css">
	.st0{fill:#3A3A3A;}
	.st1{fill:none;stroke:#FF9D00;stroke-miterlimit:10;}
	.st2{fill:#FF9D00;}
	.st3{fill:#9D5025;}
	.st4{fill:#F58536;}
	.st5{fill:#1B2B79;}
	.st6{fill:#2E73B8;}
	.st7{fill:#5294CF;}
	.st8{fill:#205B99;}
	.st9{fill:#19486F;}
	.st10{fill:none;stroke:#FF9D00;stroke-width:14;stroke-miterlimit:10;stroke-dasharray:5.1;}
	.st11{fill:#99BCE3;}
	.st12{display:none;}
</style>
<g>
	<g>
		<path class="st0" d="M204,186.5c-0.6,3.5-2,6.8-4.4,9.3c-2.5,2.7-5.8,3.8-8.8,4.5l-0.5-1.1c3.3-0.7,6.1-1.7,8.4-4.2
			c1.9-2.1,3.2-4.7,3.9-7.4h-7.8c-1.1,1.5-2.3,3-4.7,4.7l-0.7-0.9c1.6-1.1,4.4-3.4,6.2-7.7l1.3,0.2c-0.3,0.7-0.6,1.3-1.4,2.7h8.5
			V186.5z"/>
		<path class="st0" d="M221.4,189.2c-1,8.3-5.7,10.3-12.3,11l-0.3-1.1c5.5-0.5,10.2-1.9,11.4-8.8h-14v-1.1L221.4,189.2L221.4,189.2z
			 M220.3,184.6v1.1h-12.7v-1.1H220.3z"/>
		<path class="st0" d="M231.6,183.6v3.2h6.6v1.3c0,3.5-0.9,6.8-3.4,8.9c-3.1,2.6-6.9,2.9-8.5,3.1L226,199c1.4-0.1,5.1-0.5,8.1-2.9
			c1.5-1.2,2.9-3.3,2.9-7.8v-0.4h-12v5.1h-1.1v-6.2h6.5v-3.2L231.6,183.6L231.6,183.6z"/>
		<path class="st0" d="M246.3,183.7v5.2c1.8,0.6,5.7,2,9.8,4.3l-0.6,1.2c-3.6-2.1-5.6-3-9.2-4.3v10.3h-1.2v-16.7H246.3z
			 M253.6,187.6c-0.5-1-1-2.1-1.6-3l0.9-0.4c0.2,0.3,1.1,1.8,1.6,2.9L253.6,187.6z M255.9,186.8c-0.6-1.2-0.9-1.7-1.6-2.8l0.9-0.5
			c0.6,0.8,1.3,2.1,1.6,2.7L255.9,186.8z"/>
		<path class="st0" d="M265.8,183.4v2.9h7.3v12.8c0,1.4-0.2,1.7-1.5,1.7h-3.2l-0.2-1.1h3.2c0.5,0,0.6-0.1,0.6-0.6v-12h-6.1
			c0.2,1.9,1,4.8,5.8,8.4l-0.8,0.8c-2.4-2-4.6-4.3-5.5-7.2c-0.8,2.9-1.8,4.7-5.8,7.2l-0.6-0.9c4.8-2.3,5.5-5.9,5.8-8.2h-6.2v13.6
			h-1.1v-14.5h7.3v-2.9H265.8z"/>
		<path class="st0" d="M290.4,186.2c-1.2-0.1-1.8-0.1-2.3-0.1c-1,0-1.4,0.1-2.2,0.4c-2.4,0.9-4,2.5-5.1,3.8
			c-1.3,1.6-1.5,2.8-1.5,3.9c0,2.2,1.2,3.3,3,3.9c2,0.7,4.3,0.8,6.2,0.8l-0.3,1.2c-5.1-0.2-10.2-1.1-10.2-5.8c0-3.3,2.6-6.2,6.6-8.3
			c-2.9,0.1-8.7,0.5-10.4,0.6l-0.2-1.3c0.6,0,4.8-0.2,7-0.3c4.2-0.2,5.3-0.2,9.3-0.2v1.4H290.4z M287.7,191.7
			c-0.1-0.3-0.7-1.7-1.6-2.8l0.9-0.5c0.7,0.9,1.1,1.5,1.7,2.7L287.7,191.7z M289.8,190.7c-0.4-0.9-0.9-1.8-1.6-2.6l0.9-0.5
			c0.5,0.6,1.3,1.7,1.7,2.5L289.8,190.7z"/>
		<path class="st0" d="M303.4,183.8h1.1v3.9h3.6v1.1h-3.6v2.9c0,1.9-0.6,4.9-3.2,6.7c-2.3,1.6-5.1,1.9-6,2l-0.4-1.2
			c1-0.1,3.6-0.3,5.8-1.8c2.6-1.8,2.6-5.5,2.6-5.6v-2.9h-7.7v5.6h-1.2v-5.6H291v-1.1h3.5V184h1.2v3.8h7.7L303.4,183.8L303.4,183.8z"
			/>
		<path class="st0" d="M318.4,200.4h-1.2v-9.8c-2.5,1.9-5.4,3.4-8.4,4.5l-0.5-1.1c2.7-0.8,9.2-3.7,14.1-10.2l1.1,0.7
			c-2.5,3.1-4.7,4.8-5.1,5.2V200.4z"/>
		<path class="st0" d="M341,200c-1.8-2-5-5-6.6-6.2c-3,3.6-6.4,5.4-8.2,6.3l-0.7-1c4.2-1.8,9.7-6,11.5-12.9h-10.7v-1.1h12.1
			c-0.2,1.1-0.8,4.3-3.4,7.9c2.5,1.9,5.8,5.1,6.9,6.1L341,200z M339.9,186.7c-0.4-1.3-0.7-1.8-1.2-2.8l0.9-0.3
			c0.5,0.8,1,1.8,1.3,2.7L339.9,186.7z M341.8,185.9c-0.4-1.1-0.7-1.7-1.3-2.7l0.9-0.4c0.6,0.8,1,1.7,1.4,2.6L341.8,185.9z"/>
		<path class="st0" d="M341.9,199.8c3.5-0.4,6-1.3,7.8-2.1c-0.7-0.4-2-1.3-3.3-2.6c-1.5,1.1-2.8,1.6-3.7,1.9l-0.6-0.9
			c2-0.7,4.7-2.1,6.5-4.3l0.9,0.4c-0.2,0.3-0.5,0.6-1,1.1h7.6v0.7c-1.2,1.5-2.4,2.5-4.4,3.8c1.7,0.8,4.1,1.7,7.6,2.1l-0.5,1.1
			c-3-0.4-5.5-1.2-8.2-2.6c-2.6,1.3-5.5,2.1-8.3,2.5L341.9,199.8z M351.3,185.3h8.2v0.9h-6.1v4.7c0,0.7-0.2,1-1,1h-1.9l-0.2-1h1.7
			c0.5,0,0.5-0.2,0.5-0.5v-4.2h-3.2c-0.1,2.2-0.6,4.4-3.2,6.3l-0.8-0.7c2.5-1.7,2.9-3.6,3-5.6h-6.1v-0.9h8.1v-1.8h1.1v1.8H351.3z
			 M342.1,190.6c1.5-0.8,2.6-2,3.4-3.5l1,0.4c-0.3,0.6-1.4,2.5-3.6,3.9L342.1,190.6z M347.6,194.2c-0.2,0.2-0.3,0.3-0.5,0.4
			c1.2,1.2,2.8,2.2,3.6,2.6c0.4-0.2,2.2-1.2,3.9-3H347.6z M355.4,187.3c1.2,1.6,2.1,2.5,3.7,3.5l-0.6,0.8c-1-0.6-2.8-2.2-3.9-3.8
			L355.4,187.3z"/>
		<path class="st0" d="M375,187.1v7.2h-7c-0.5,1.8-1.2,2.9-1.6,3.4c2.1,1.3,5.6,2.2,10.1,2.1l-0.3,1.1c-1.4,0-6.3-0.1-10.4-2.6
			c-0.7,0.6-2.6,1.8-6.3,2.5l-0.4-1c3.4-0.5,5.1-1.4,5.9-2.1c-1.4-1-2.2-1.9-2.7-2.4l0.9-0.5c0.5,0.6,1.2,1.4,2.5,2.3
			c0.2-0.3,0.9-1.1,1.4-2.8h-6.2v-7.2h6.6v-1.9h-8.2v-0.9h17.4v0.9h-8.1v1.9H375z M367.4,190.2v-2.1h-5.6v2.1H367.4z M367.2,193.4
			c0.2-0.9,0.2-1.5,0.2-2.3h-5.6v2.3H367.2z M368.4,191.1c0,0.6,0,1.2-0.2,2.3h5.7v-2.3H368.4z M368.4,188.1v2.1h5.5v-2.1H368.4z"/>
		<path class="st0" d="M382.1,184c-0.3,1.7-0.5,2.7-0.7,3.6h2.9c2,0,3.9,0.2,3.9,4.4c0,1.6-0.2,4.6-1,6.1c-0.8,1.7-2.1,1.8-3.1,1.8
			c-1.5,0-2.8-0.2-3.3-0.3l-0.1-1.2c0.5,0.1,2.1,0.3,3.2,0.3c1.3,0,1.8-0.6,2.1-1.2c0.5-1.1,0.9-3.6,0.9-5.6c0-3-1-3.3-2.4-3.3H381
			c-1.4,7.1-2.9,10.1-3.4,11.4l-1.1-0.6c1.8-3.6,2.8-7.7,3.4-10.8h-3.1v-1.1h3.3c0.3-1.6,0.5-2.8,0.6-3.8L382.1,184z M390.5,187
			c-0.4-0.9-1-1.9-1.7-2.9l0.9-0.4c0.6,0.6,1.4,2,1.8,2.9L390.5,187z M392.2,194.5c-0.4-2.6-1.3-4.4-2.8-6.3l1-0.6
			c2,2.2,2.7,4.5,3.1,6.6L392.2,194.5z M392.8,186.4c-0.5-1-1-2-1.7-2.8l0.9-0.4c0.8,1,1.4,2.2,1.7,2.8L392.8,186.4z"/>
		<path class="st0" d="M228.6,228.2c0,1.2-0.6,1.6-1.6,1.6h-3.4l-0.2-1.1h3.5c0.5,0,0.7,0,0.7-0.8v-13.8h-13.7v-1h17.4v1h-2.6
			L228.6,228.2L228.6,228.2z M224.1,224.9h-7.3v1.2h-1V217h8.3V224.9z M223.1,218h-6.3v5.9h6.3V218z"/>
		<path class="st0" d="M237,213.4c0.8,1,2.1,2.6,2.8,4L239,218c-0.2-0.4-0.3-0.7-0.8-1.3c-0.9,0.1-1.5,0.2-7.2,0.7l-0.1-1
			c0.2,0,1,0,1.3,0c0.5-1,1.1-2.5,1.7-3.8l1,0.3c-0.3,0.6-1.4,3-1.7,3.5c3.1-0.2,3.4-0.2,4.5-0.3c-0.8-1.1-1.1-1.5-1.5-2L237,213.4z
			 M238.7,218.8v9.7c0,1-0.4,1.3-1.4,1.3h-2l-0.2-1.1l2.1,0.1c0.5,0,0.5-0.3,0.5-0.5v-2.8h-4.9v4.3h-1v-11H238.7z M237.7,219.7h-4.9
			v1.9h4.9V219.7z M237.7,222.5h-4.9v2.1h4.9V222.5z M241.8,212.4v3.2c1-0.3,3.5-1,5.3-2.3l0.7,0.8c-1.7,1.2-4.5,2-6,2.3v2.5
			c0,0.4,0,0.7,0.7,0.7h3.6c0.7,0,0.9,0,1.1-2.8l1,0.3c-0.2,2.5-0.3,3.3-1.7,3.3h-4.2c-1.2,0-1.5-0.5-1.5-1.4v-6.8h1V212.4z
			 M241.8,221.2v3.1c0.8-0.2,3.1-0.7,5.2-2.3l0.7,0.8c-1.7,1.2-4.4,2-5.9,2.4v2.4c0,0.6,0.1,0.8,0.9,0.8h3.4c0.5,0,0.6-0.1,0.8-0.4
			c0.1-0.3,0.3-1.3,0.3-2.6l1,0.3c-0.3,3-0.3,3.7-2,3.7h-3.7c-0.5,0-1.7,0-1.7-1.4v-6.8H241.8z"/>
		<path class="st0" d="M253.9,212.8c-0.2,1-0.3,1.8-0.5,2.7h4.5v1.1h-4.7c-1.1,4.8-2.3,7.9-3.7,10.4l-1.1-0.6
			c2.2-3.4,3.2-7.5,3.7-9.7h-3.7v-1.1h3.9c0.2-1.1,0.3-2,0.4-2.7L253.9,212.8z M264.9,216.5c-0.5,0-0.7-0.1-1.4-0.1
			c-1.5,0-2.2,0.1-2.8,0.2l0.1,6.6c1.6,0.7,3.4,1.9,4.5,3.2l-0.8,0.9c-1.3-1.7-2.7-2.5-3.7-3v1.1c0,1.1,0,1.6-0.3,2.2
			c-0.8,1.7-2.8,1.7-3.4,1.7c-3.2,0-4.4-1.8-4.4-3.3c0-1.3,1-3.5,4.5-3.5c1.2,0,1.9,0.2,2.4,0.3l-0.2-7.1c2.4-0.4,4.5-0.4,5.3-0.3
			v1.1H264.9z M259.8,223.9c-0.5-0.2-1.2-0.4-2.4-0.4c-2.4,0-3.4,1.2-3.4,2.5c0,2.3,2.8,2.3,3.2,2.3c2.4,0,2.6-1.3,2.6-2.9
			L259.8,223.9L259.8,223.9z"/>
		<path class="st0" d="M268.5,229.8h-1V219c-1,1.6-1.7,2.2-2,2.5l-0.6-1.1c2-2,3.8-5.7,4.5-8l1,0.3c-0.2,0.8-0.7,2.2-1.9,4.6V229.8z
			 M272.1,228.9c1.6-0.6,3.2-1.4,4.9-2.9c-2-2.6-2.6-5.1-2.8-6.3l1-0.2c0.7,3.2,1.9,5,2.5,5.8c2.2-2.4,2.7-5.6,2.8-6.5h-7.8v1.9
			c0,3.2-0.5,6.5-2.4,9.1l-0.8-0.8c2-2.8,2.1-6.3,2.1-8.3v-7.6h10.8v0.9h-9.8v3.8h9c-0.3,3.1-1.3,6.1-3.3,8.3
			c1.7,1.8,3.6,2.3,4.3,2.5l-0.5,1c-0.8-0.3-2.6-0.9-4.4-2.9c-2,1.8-4,2.6-5.1,3L272.1,228.9z"/>
		<path class="st0" d="M282.1,228.7c1.5-1.5,2-2.9,2.3-4.1l1,0.3c-0.4,1.6-1,3.1-2.3,4.4L282.1,228.7z M289.3,220.3
			c-0.6-0.7-1.3-1.5-2.2-2.9v5.9h-1v-5.9c-0.4,0.8-1.3,2.7-3.4,4.6l-0.6-1c0.9-0.8,2.7-2.4,3.9-5.4h-3.7v-0.9h3.7v-2.3h1v2.3h3.2
			v0.9H287v0.4c0.9,1.5,2.5,3.1,2.9,3.5L289.3,220.3z M287.9,224.9v3.3c0,0.6,0.1,0.6,0.8,0.6h4.1c1.1,0,1.1-0.2,1.4-2.4l1,0.3
			c-0.3,2.1-0.6,3-2.1,3h-4.6c-0.7,0-1.7,0-1.7-1.3v-3.5L287.9,224.9L287.9,224.9z M291.7,226.4c-1-1.2-1.7-1.9-2.9-2.7l0.7-0.7
			c1.2,0.8,2.1,1.6,3,2.7L291.7,226.4z M298.6,223.1h-7.4V213h7.4V223.1z M297.6,214h-5.3v2h5.3V214z M297.6,216.9h-5.3v2.1h5.3
			V216.9z M297.6,219.9h-5.3v2.3h5.3V219.9z M298.7,229.1c-1-1.9-1.9-3.2-3-4.4l0.9-0.5c0.9,1,1.9,2.3,3,4.3L298.7,229.1z"/>
		<path class="st0" d="M312,212.8h1.1v3.9h3.6v1.1h-3.6v2.9c0,1.9-0.6,4.9-3.2,6.7c-2.3,1.6-5.1,1.9-6,2l-0.4-1.2
			c1-0.1,3.6-0.3,5.8-1.8c2.6-1.8,2.6-5.5,2.6-5.6v-2.9h-7.7v5.6H303v-5.6h-3.5v-1.1h3.5V213h1.2v3.8h7.7v-4H312z"/>
		<path class="st0" d="M333.5,220.5v1.2h-16.9v-1.2H333.5z"/>
		<path class="st0" d="M333.4,228c1.8-2,4.3-5.4,4.5-14.3l1.3,0.2c-0.5,8-2.1,12-4.8,14.9L333.4,228z M345.7,213.8
			c0.5,8.7,2.9,12,5.1,14.3l-1,0.9c-2.6-2.8-4.6-6.7-5.3-15L345.7,213.8z M347.8,216c-0.2-0.5-0.6-1.7-1.3-2.8l0.9-0.4
			c0.5,0.7,1.1,2,1.4,2.7L347.8,216z M350.1,215.3c-0.3-0.7-0.9-1.9-1.4-2.8l0.9-0.4c0.7,1,1,1.6,1.4,2.7L350.1,215.3z"/>
		<path class="st0" d="M356.5,226.6c0,1.5-1.2,2.7-2.7,2.7s-2.7-1.2-2.7-2.7s1.2-2.7,2.7-2.7C355.3,223.9,356.5,225.1,356.5,226.6z
			 M352,226.6c0,1,0.8,1.9,1.9,1.9c1,0,1.8-0.8,1.8-1.9c0-1-0.8-1.8-1.8-1.8C352.8,224.7,352,225.5,352,226.6z"/>
	</g>
</g>
<g>
	<line class="st1" x1="274" y1="155.5" x2="301" y2="155.5"/>
	<circle class="st2" cx="273.6" cy="155.5" r="1.6"/>
	<circle class="st2" cx="300.8" cy="155.5" r="1.6"/>
</g>
<g>
	<g>
		<polygon class="st3" points="200.8,99.8 199.3,100.6 199.3,121.9 200.8,122.7 206.9,111.8 		"/>
		<polygon class="st4" points="204.3,121.9 200.8,122.7 200.8,99.8 204.3,100.6 		"/>
		<polygon class="st3" points="202.5,99 204.3,98 213.2,112.2 204.3,124.5 202.5,123.5 		"/>
		<polygon class="st4" points="208.7,123.2 204.3,124.5 204.3,98 208.7,99.3 		"/>
		<polygon class="st3" points="206.4,97 208.7,95.8 221.8,113.8 208.7,126.7 206.4,125.5 		"/>
		<polygon class="st4" points="214.4,124.6 208.7,126.7 208.7,95.8 214.4,97.9 		"/>
		<polygon class="st3" points="211.4,94.5 214.4,93 228.5,112.3 214.4,129.5 211.4,128 		"/>
		<polygon class="st4" points="229.5,121.9 214.4,129.5 214.4,93 229.5,100.6 		"/>
	</g>
	<g>
		<g>
			<g>
				<path class="st5" d="M249.7,99.7l7.7,21.1h-2.9l-2.7-7.5h-5.6l-2.7,7.5h-2.9l7.7-21.1H249.7z M250.8,110.6l-1.8-4.9l-1.8,4.9
					H250.8z"/>
				<path class="st5" d="M269.1,116.9V99.7h2.7v17.2c0.1,0.1,0.2,0.3,0.4,0.6c0.6,0.5,1.2,0.8,2,0.8s1.5-0.3,2-0.8
					c0.6-0.6,0.9-1.2,0.9-2V99.7h2.7v15.8c0,1.5-0.6,2.8-1.6,3.8c-1.1,1.1-2.4,1.7-4,1.7c-1.5,0-2.8-0.5-3.8-1.6
					c-1,1.1-2.3,1.6-3.8,1.6c-1.6,0-2.9-0.6-4-1.7s-1.6-2.3-1.6-3.8V99.7h2.7v15.7c0,0.8,0.3,1.5,0.9,2c0.6,0.6,1.2,0.8,2,0.8
					s1.5-0.3,2-0.8C268.9,117.2,269.1,117,269.1,116.9z"/>
				<path class="st5" d="M290.3,110c-1.5-0.5-2.7-1.2-3.6-2.1s-1.4-2.1-1.4-3.4s0.5-2.5,1.4-3.5c1-1,2.1-1.5,3.5-1.5
					s2.5,0.5,3.5,1.4c0.5,0.5,1,1.4,1.4,2.5l-2.5,1c-0.3-0.8-0.6-1.3-0.8-1.6c-0.4-0.4-0.9-0.6-1.6-0.6c-0.6,0-1.1,0.2-1.6,0.6
					c-0.4,0.4-0.6,0.9-0.6,1.6c0,0.6,0.2,1.1,0.6,1.6c0.5,0.5,1.2,0.9,2,1.3c1.7,0.5,3.1,1.4,4.2,2.5c1.3,1.3,1.9,2.8,1.9,4.6
					c0,1.8-0.6,3.4-1.9,4.7c-1.3,1.3-2.8,1.9-4.6,1.9c-1.8,0-3.4-0.6-4.7-1.9c-1-1-1.7-2.4-2-4.3l2.6-1c0.2,1.6,0.6,2.7,1.2,3.3
					c0.8,0.8,1.7,1.1,2.7,1.1s2-0.4,2.7-1.1s1.1-1.7,1.1-2.7c0-1.1-0.4-2-1.1-2.7C292.2,111,291.4,110.4,290.3,110z"/>
				<path class="st5" d="M322.9,99.7v2.7h-8.6v6.4h8.6v2.7h-8.6v6.4h8.6v2.7h-11.4V99.7H322.9z"/>
				<path class="st5" d="M344.2,115.8l2,1.8c-2.5,2.3-5.1,3.4-7.9,3.4c-3,0-5.5-1.1-7.6-3.2s-3.2-4.6-3.2-7.6s1-5.5,3.2-7.6
					s4.6-3.2,7.6-3.2c2.8,0,5.4,1.1,7.9,3.4l-2,1.9c-1.9-1.7-3.8-2.5-5.9-2.5c-2.2,0-4.1,0.8-5.7,2.3c-1.6,1.6-2.4,3.5-2.4,5.7
					s0.8,4.1,2.4,5.7s3.5,2.3,5.7,2.3C340.3,118.3,342.3,117.5,344.2,115.8z"/>
				<path class="st5" d="M353.8,114.2c1.4-1.1,2.7-2,3.7-2.7s1.9-1.6,2.7-2.4c0.8-0.9,1.2-1.8,1.2-2.9s-0.4-2-1.1-2.7
					c-0.8-0.7-1.7-1.1-2.7-1.1s-1.9,0.4-2.7,1.1c-0.6,0.6-1,1.7-1.2,3.3l-2.7-1c0.3-1.8,0.9-3.3,2-4.3c1.3-1.3,2.8-2,4.7-2
					c1.8,0,3.4,0.6,4.7,1.9c1.3,1.3,1.9,2.9,1.9,4.7c0,1.8-0.6,3.4-1.9,4.7c-0.8,0.9-1.7,1.7-2.8,2.5c-1.1,0.8-2.2,1.7-3.5,2.6
					c-1.1,0.8-1.8,1.6-1.9,2.2h10v2.7H351C351.4,117.5,352.3,115.2,353.8,114.2z"/>
			</g>
		</g>
	</g>
</g>
<g>
	<g>
		<g>
			<polygon class="st6" points="88,157.8 84.4,153.8 79.2,167 84.4,180.1 88,176.1 			"/>
			<polygon class="st7" points="78,183.3 84.4,180.1 84.4,153.8 78,150.6 70.4,167 			"/>
			<polygon class="st6" points="68.9,183.3 78,183.3 78,150.6 68.9,150.6 63.5,167 			"/>
			<polygon class="st8" points="62.6,180.1 68.9,183.3 68.9,150.6 62.6,153.8 59.7,167 			"/>
			<polygon class="st9" points="58.9,176.1 62.6,180.1 62.6,153.8 58.9,157.8 			"/>
		</g>
		<g>
			<g>
				<g>
					<g>
						<path class="st0" d="M64.6,203.2c-0.1,0-0.1,0-0.2,0h-1.9v3.8h-0.6v-10.9h2.9c0.8,0.1,1.5,0.5,2.1,1c0.7,0.7,1,1.5,1,2.5
							s-0.3,1.8-1,2.5c-0.5,0.5-1,0.8-1.7,1l2.5,3.9H67L64.6,203.2z M62.6,196.7v5.9h1.9c0.8,0,1.5-0.3,2.1-0.9
							c0.6-0.6,0.9-1.3,0.9-2.1s-0.3-1.5-0.9-2.1s-1.3-0.9-2.1-0.9h-1.9V196.7z"/>
						<path class="st0" d="M70.7,196.1L70.7,196.1c1.8,0,3.2,0.5,4.2,1.5c1.1,1.1,1.6,2.4,1.6,4c0,1.5-0.5,2.9-1.6,4
							c-1,1-2.4,1.5-4.2,1.5l0,0l0,0h-0.6v-10.9L70.7,196.1L70.7,196.1z M70.7,196.7v9.7l0,0c1.6,0,2.9-0.4,3.7-1.3
							c1-1,1.5-2.1,1.5-3.5s-0.5-2.5-1.5-3.5C73.6,197.1,72.4,196.7,70.7,196.7L70.7,196.7z"/>
						<path class="st0" d="M81.7,200.9c-0.8-0.3-1.4-0.6-1.8-1.1s-0.7-1-0.7-1.6s0.2-1.2,0.7-1.6c0.5-0.5,1-0.7,1.6-0.7
							s1.2,0.2,1.6,0.7c0.3,0.2,0.4,0.5,0.5,0.8l-0.6,0.2c-0.1-0.2-0.2-0.4-0.4-0.6c-0.3-0.3-0.7-0.5-1.2-0.5s-0.9,0.2-1.2,0.5
							c-0.3,0.3-0.5,0.7-0.5,1.2s0.2,0.9,0.5,1.2s0.7,0.6,1.3,0.8c0.9,0.3,1.6,0.7,2.2,1.3s1,1.4,1,2.3c0,0.9-0.3,1.7-1,2.3
							s-1.4,1-2.3,1s-1.7-0.3-2.3-1c-0.5-0.5-0.8-1.1-0.9-1.8l0.6-0.2c0.1,0.6,0.3,1.1,0.8,1.6s1.1,0.8,1.9,0.8
							c0.7,0,1.4-0.3,1.9-0.8s0.8-1.1,0.8-1.9c0-0.7-0.3-1.3-0.8-1.9C82.9,201.6,82.4,201.2,81.7,200.9z"/>
					</g>
				</g>
			</g>
		</g>
	</g>
	<circle class="st10" cx="73.5" cy="179.5" r="58.5"/>
</g>
<g>
	<circle class="st10" cx="127.1" cy="301.5" r="58.5"/>
	<g>
		<g>
			<g>
				<g>
					<g>
						<path class="st0" d="M93.1,316.1v0.6h-4.9v4.5h4.9v0.6h-4.9v4.5h4.9v0.6h-5.5V316L93.1,316.1L93.1,316.1z"/>
						<path class="st0" d="M96.3,316.1V327h-0.6v-10.9H96.3z"/>
						<path class="st0" d="M106.3,327h-0.6v-1.4c-0.1,0.2-0.2,0.3-0.4,0.5c-0.7,0.7-1.6,1.1-2.7,1.1c-1,0-1.9-0.4-2.7-1.1
							s-1.1-1.6-1.1-2.7c0-1,0.4-1.9,1.1-2.7s1.6-1.1,2.7-1.1c1,0,1.9,0.4,2.7,1.1c0.1,0.1,0.3,0.3,0.4,0.5v-1h0.6V327z M105.7,324
							v-1.2c-0.1-0.6-0.4-1.1-0.9-1.6c-0.6-0.6-1.3-0.9-2.2-0.9s-1.6,0.3-2.2,0.9s-0.9,1.3-0.9,2.2s0.3,1.6,0.9,2.2s1.3,0.9,2.2,0.9
							s1.6-0.3,2.2-0.9C105.3,325.2,105.6,324.6,105.7,324z"/>
						<path class="st0" d="M110.9,323.5c-0.5-0.3-0.9-0.5-1.1-0.7c-0.3-0.3-0.5-0.7-0.5-1.1s0.2-0.8,0.5-1.1
							c0.3-0.3,0.7-0.5,1.1-0.5s0.8,0.1,1.1,0.4c0.3,0.3,0.4,0.6,0.4,1l0,0l-0.5,0.2c0-0.3-0.2-0.6-0.3-0.8
							c-0.2-0.2-0.4-0.3-0.7-0.3c-0.3,0-0.5,0.1-0.7,0.3c-0.2,0.2-0.3,0.4-0.3,0.7c0,0.3,0.1,0.5,0.3,0.7c0.1,0.1,0.4,0.3,0.7,0.5
							c0.6,0.3,1,0.6,1.2,0.8c0.4,0.4,0.6,0.9,0.6,1.4c0,0.6-0.2,1-0.6,1.4s-0.9,0.6-1.4,0.6s-1-0.2-1.4-0.6s-0.6-0.8-0.6-1.3
							l0.6-0.2c0,0.4,0.1,0.7,0.4,1s0.6,0.4,1,0.4s0.7-0.1,1-0.4s0.4-0.6,0.4-1s-0.1-0.7-0.4-1C111.6,324,111.3,323.8,110.9,323.5z"
							/>
						<path class="st0" d="M116.2,320.3v-2.9h0.6v2.9h1.4v0.6h-1.4v6.1h-0.6v-6.1h-1.4v-0.6H116.2z"/>
						<path class="st0" d="M121.4,318.1c0.1,0.1,0.2,0.3,0.2,0.4c0,0.2-0.1,0.3-0.2,0.4s-0.3,0.2-0.4,0.2s-0.3-0.1-0.4-0.2
							s-0.2-0.3-0.2-0.4c0-0.2,0.1-0.3,0.2-0.4s0.3-0.2,0.4-0.2S121.3,318,121.4,318.1z M121.3,320.3v6.7h-0.6v-6.7H121.3z"/>
						<path class="st0" d="M129.9,325.4l0.6,0.2c-0.1,0.2-0.3,0.3-0.4,0.5c-0.7,0.7-1.6,1.1-2.7,1.1c-1,0-1.9-0.4-2.7-1.1
							s-1.1-1.6-1.1-2.7c0-1,0.4-1.9,1.1-2.7s1.6-1.1,2.7-1.1c1,0,1.9,0.4,2.7,1.1c0.2,0.2,0.3,0.3,0.4,0.5l-0.6,0.2
							c-0.1-0.1-0.1-0.2-0.2-0.2c-0.6-0.6-1.3-0.9-2.2-0.9s-1.6,0.3-2.2,0.9s-0.9,1.3-0.9,2.2s0.3,1.6,0.9,2.2s1.3,0.9,2.2,0.9
							c0.9,0,1.6-0.3,2.2-0.9C129.8,325.5,129.8,325.5,129.9,325.4z"/>
						<path class="st0" d="M140.1,327h-0.6v-1.4c-0.1,0.2-0.2,0.3-0.4,0.5c-0.7,0.7-1.6,1.1-2.7,1.1c-1,0-1.9-0.4-2.7-1.1
							s-1.1-1.6-1.1-2.7c0-1,0.4-1.9,1.1-2.7s1.6-1.1,2.7-1.1c1,0,1.9,0.4,2.7,1.1c0.1,0.1,0.3,0.3,0.4,0.5v-1h0.6V327z M139.5,324
							v-1.2c-0.1-0.6-0.4-1.1-0.9-1.6c-0.6-0.6-1.3-0.9-2.2-0.9s-1.6,0.3-2.2,0.9s-0.9,1.3-0.9,2.2s0.3,1.6,0.9,2.2
							c0.6,0.6,1.3,0.9,2.2,0.9s1.6-0.3,2.2-0.9C139.1,325.2,139.4,324.6,139.5,324z"/>
						<path class="st0" d="M148.7,325.4l0.6,0.2c-0.1,0.2-0.3,0.3-0.4,0.5c-0.7,0.7-1.6,1.1-2.7,1.1c-1,0-1.9-0.4-2.7-1.1
							s-1.1-1.6-1.1-2.7c0-1,0.4-1.9,1.1-2.7s1.6-1.1,2.7-1.1c1,0,1.9,0.4,2.7,1.1c0.2,0.2,0.3,0.3,0.4,0.5l-0.6,0.2
							c-0.1-0.1-0.1-0.2-0.2-0.2c-0.6-0.6-1.3-0.9-2.2-0.9s-1.6,0.3-2.2,0.9c-0.6,0.6-0.9,1.3-0.9,2.2s0.3,1.6,0.9,2.2
							s1.3,0.9,2.2,0.9s1.6-0.3,2.2-0.9C148.5,325.5,148.6,325.5,148.7,325.4z"/>
						<path class="st0" d="M151.6,316.1h0.6v4.6c0.5-0.5,1.1-0.8,1.9-0.8c0.8,0,1.4,0.2,1.9,0.7s0.8,1.1,0.8,1.9v4.5h-0.6v-4.4
							c0-0.6-0.2-1.1-0.6-1.5c-0.4-0.4-0.9-0.6-1.5-0.6s-1.1,0.2-1.5,0.6c-0.2,0.2-0.3,0.4-0.4,0.6v5.3h-0.6V316.1z"/>
						<path class="st0" d="M160.9,325.7c0.6,0.5,1.3,0.8,2.1,0.8c0.9,0,1.6-0.3,2.2-0.9c0.1-0.1,0.2-0.2,0.2-0.2l0.6,0.2
							c-0.1,0.2-0.3,0.3-0.4,0.5c-0.7,0.7-1.6,1.1-2.7,1.1c-1,0-1.9-0.4-2.7-1.1s-1.1-1.6-1.1-2.7c0-1,0.4-1.9,1.1-2.7
							s1.6-1.1,2.7-1.1c0.9,0,1.7,0.3,2.3,0.8c0.1,0.1,0.2,0.2,0.3,0.3l0.1,0.1l-0.5,0.5L160.9,325.7z M164.8,321
							c-0.5-0.4-1.2-0.6-1.9-0.6c-0.9,0-1.6,0.3-2.2,0.9c-0.6,0.6-0.9,1.3-0.9,2.2c0,0.7,0.2,1.3,0.6,1.9L164.8,321z"/>
					</g>
				</g>
			</g>
		</g>
		<g>
			<polygon class="st11" points="145.1,296.7 128.4,294.6 111.7,296.7 128.4,309.7 			"/>
			<polygon class="st9" points="145.2,282.5 128.3,284.6 111.6,282.5 128.4,269.4 			"/>
			<polygon class="st8" points="128.4,269.4 111.6,277.8 111.6,282.5 128.4,277.5 			"/>
			<polygon class="st8" points="128.4,301.7 111.6,296.7 111.6,301.4 128.4,309.7 			"/>
			<polygon class="st8" points="128.4,295.7 121.1,294.6 121.1,284.6 128.4,283.6 135.2,289.6 			"/>
			<polygon class="st7" points="128.4,269.4 145.2,277.8 145.2,282.5 128.4,277.5 			"/>
			<polygon class="st7" points="128.4,301.7 145.2,296.7 145.2,301.4 128.4,309.7 			"/>
			<polygon class="st7" points="128.4,295.7 135.7,294.6 135.7,284.6 128.4,283.6 			"/>
			<g id="nyt_x5F_exporter_x5F_info_4_" class="st12">
			</g>
		</g>
	</g>
</g>
<ellipse transform="matrix(4.962938e-02 -0.9988 0.9988 4.962938e-02 175.2667 737.192)" class="st10" cx="475" cy="276.5" rx="58.5" ry="58.5"/>
<g>
	<g>
		<g>
			<g>
				<g>
					<g>
						<path class="st0" d="M441.7,294.1L441.7,294.1c1.8,0,3.2,0.5,4.2,1.5c1.1,1.1,1.6,2.4,1.6,4c0,1.5-0.5,2.9-1.6,4
							c-1,1-2.4,1.5-4.2,1.5l0,0l0,0h-0.6v-10.9L441.7,294.1L441.7,294.1z M441.7,294.7v9.7l0,0c1.6,0,2.9-0.4,3.7-1.3
							c1-1,1.5-2.1,1.5-3.5s-0.5-2.5-1.5-3.5C444.6,295.1,443.3,294.7,441.7,294.7L441.7,294.7z"/>
						<path class="st0" d="M452.4,304.4l-1.5,3.2h-0.6l1.8-3.8l-2.6-5.5h0.7l2.2,4.8l2.2-4.8h0.7L452.4,304.4L452.4,304.4z"/>
						<path class="st0" d="M458.1,299.8v5.2h-0.6v-6.7h0.6v0.4c0.6-0.6,1.2-0.8,2-0.8s1.4,0.2,1.9,0.7s0.8,1.1,0.8,1.9v4.5h-0.6
							v-4.4c0-0.6-0.2-1.1-0.6-1.5s-0.9-0.6-1.5-0.6s-1.1,0.2-1.5,0.6C458.4,299.3,458.2,299.5,458.1,299.8z"/>
						<path class="st0" d="M472.8,305h-0.6v-1.4c-0.1,0.2-0.2,0.3-0.4,0.5c-0.7,0.7-1.6,1.1-2.7,1.1c-1,0-1.9-0.4-2.7-1.1
							s-1.1-1.6-1.1-2.7c0-1,0.4-1.9,1.1-2.7s1.6-1.1,2.7-1.1c1,0,1.9,0.4,2.7,1.1c0.1,0.1,0.3,0.3,0.4,0.5v-1h0.6V305z M472.2,302
							v-1.2c-0.1-0.6-0.4-1.1-0.9-1.6c-0.6-0.6-1.3-0.9-2.2-0.9s-1.6,0.3-2.2,0.9s-0.9,1.3-0.9,2.2s0.3,1.6,0.9,2.2s1.3,0.9,2.2,0.9
							s1.6-0.3,2.2-0.9C471.8,303.2,472.1,302.6,472.2,302z"/>
						<path class="st0" d="M475.5,298.3h0.6v0.2c0.4-0.4,0.8-0.6,1.4-0.6s1,0.2,1.4,0.6c0.1,0.1,0.2,0.2,0.3,0.3
							c0.1-0.1,0.2-0.2,0.3-0.3c0.4-0.4,0.9-0.6,1.4-0.6s1,0.2,1.4,0.6s0.6,0.8,0.6,1.3v5.2h-0.6v-5.2l0,0c0-0.4-0.2-0.7-0.4-0.9
							c-0.3-0.3-0.6-0.4-1-0.4s-0.7,0.1-1,0.4s-0.4,0.6-0.4,1v5.1h-0.6v-5.2l0,0c0-0.4-0.2-0.7-0.4-0.9c-0.3-0.3-0.6-0.4-1-0.4
							s-0.7,0.1-1,0.4c-0.2,0.2-0.4,0.5-0.4,0.9v5.2h-0.6V298.3z"/>
						<path class="st0" d="M489,297.7c1,0,1.9,0.4,2.7,1.1c0.7,0.7,1.1,1.6,1.1,2.7c0,1-0.4,1.9-1.1,2.7c-0.7,0.7-1.6,1.1-2.7,1.1
							c-1,0-1.9-0.4-2.7-1.1s-1.1-1.6-1.1-2.7c0-1,0.4-1.9,1.1-2.7S487.9,297.7,489,297.7z M486.8,299.2c-0.6,0.6-0.9,1.3-0.9,2.2
							s0.3,1.6,0.9,2.2s1.3,0.9,2.2,0.9s1.6-0.3,2.2-0.9s0.9-1.3,0.9-2.2s-0.3-1.6-0.9-2.2s-1.3-0.9-2.2-0.9
							S487.4,298.6,486.8,299.2z"/>
						<path class="st0" d="M495.7,294.1L495.7,294.1c1.8,0,3.2,0.5,4.2,1.5c1.1,1.1,1.6,2.4,1.6,4c0,1.5-0.5,2.9-1.6,4
							c-1,1-2.4,1.5-4.2,1.5l0,0l0,0h-0.6v-10.9L495.7,294.1L495.7,294.1z M495.7,294.7v9.7l0,0c1.6,0,2.9-0.4,3.7-1.3
							c1-1,1.5-2.1,1.5-3.5s-0.5-2.5-1.5-3.5C498.6,295.1,497.4,294.7,495.7,294.7L495.7,294.7z"/>
						<path class="st0" d="M505.9,294.1c0.6,0,1,0.2,1.4,0.6s0.6,0.9,0.6,1.4c0,0.6-0.3,1.1-0.9,1.6c0.5,0.1,1,0.4,1.4,0.9
							c0.7,0.7,1.1,1.6,1.1,2.7c0,1-0.4,1.9-1.1,2.7c-0.7,0.7-1.5,1.1-2.4,1.1l0,0h-2.1v-10.9h2V294.1z M504.6,294.7v2.8h1.5
							c0.3,0,0.6-0.2,0.9-0.4c0.3-0.3,0.4-0.6,0.4-1s-0.1-0.7-0.4-1s-0.6-0.4-1-0.4H504.6z M504.6,298.1v6.3h1.5l0,0
							c0.8,0,1.4-0.4,2-0.9c0.6-0.6,0.9-1.4,0.9-2.2s-0.3-1.6-0.9-2.2s-1.3-0.9-2.2-0.9L504.6,298.1L504.6,298.1z"/>
					</g>
				</g>
			</g>
		</g>
	</g>
</g>
<g id="Layer_1">
	<polygon class="st6" points="492.8,258.8 492.8,254.6 488.3,249.7 481,265.8 488.3,281.9 492.8,277 492.8,272.8 491.3,273.8 
		491.3,271.7 492.8,271 492.8,266.7 491.3,266.7 491.3,264.9 492.8,264.9 492.8,260.7 491.3,259.9 491.3,258.5 	"/>
	<polygon class="st7" points="480.3,285.9 488.3,281.9 488.3,249.7 480.3,245.7 471.3,266.1 	"/>
	<polygon class="st6" points="469.2,285.9 480.3,285.9 480.3,245.7 469.2,245.7 463.4,266.1 	"/>
	<polygon class="st8" points="469.2,285.9 461.1,281.9 458.6,266.1 461.1,249.7 469.2,245.7 	"/>
	<polygon class="st9" points="491.3,271.7 488.3,273.2 480.3,274.9 474.9,274.9 469.2,274.9 461.3,273.2 461.2,273.2 461.1,273.2 
		461.1,267.1 469.2,267.6 474.9,267.6 480.3,267.6 488.3,267.1 492.8,266.7 491.3,266.7 491.3,264.9 492.7,264.9 488.3,264.6 
		480.3,264.3 474.9,264.3 469.2,264.3 461.1,264.5 461.1,258.4 461.2,258.4 469.2,256.5 474.9,256.5 480.3,256.5 488.3,258.4 
		491.3,259.9 491.3,258.9 492.8,258.8 488.3,255.7 480.3,253.1 474.9,253.1 469.2,253.1 461.1,255.8 461.1,249.7 457.2,254.6 
		457.2,258.8 458.3,258.9 458.3,260 457.2,260.7 457.2,264.9 458.3,264.9 458.3,266.7 457.2,266.7 457.2,270.9 458.3,271.6 
		458.3,272.7 457.2,272.8 457.2,277 461.1,281.9 461.1,275.8 469.2,278.3 474.9,278.3 480.3,278.3 488.3,275.8 492.8,272.8 
		491.3,272.7 	"/>
</g>
<g id="Layer_2">
</g>
<g>
	<path class="st2" d="M291.5,4.1c-1.7,0-3.3,0-5,0.1l0.5,16c1.5,0,3-0.1,4.5-0.1V4.1L291.5,4.1L291.5,4.1z M281.8,4.4
		c-1.7,0.1-3.3,0.2-5,0.4l1.5,15.9c1.5-0.1,3-0.3,4.5-0.4L281.8,4.4L281.8,4.4z M271.6,5.4c-1.7,0.2-3.3,0.5-4.9,0.7l2.6,15.8
		c1.5-0.2,3-0.5,4.4-0.7L271.6,5.4L271.6,5.4z M261.7,7c-1.6,0.3-3.3,0.7-4.9,1l3.6,15.6c1.4-0.3,2.9-0.7,4.4-0.9L261.7,7L261.7,7z
		 M252,9.3c-1.6,0.4-3.2,0.9-4.8,1.4l4.6,15.3c1.4-0.4,2.9-0.8,4.3-1.2L252,9.3L252,9.3z M242.4,12.2c-1.6,0.5-3.1,1.1-4.7,1.7
		l5.6,15c1.4-0.5,2.8-1,4.2-1.5L242.4,12.2L242.4,12.2z M233.1,15.7c-1.5,0.6-3.1,1.3-4.6,2l6.6,14.6c1.4-0.6,2.7-1.2,4.1-1.8
		L233.1,15.7L233.1,15.7z M224,19.8c-1.5,0.7-3,1.5-4.4,2.3l7.5,14.1c1.3-0.7,2.6-1.4,4-2L224,19.8L224,19.8z M215.1,24.5
		c-1.4,0.8-2.9,1.7-4.3,2.6l8.5,13.6c1.3-0.8,2.6-1.6,3.8-2.3L215.1,24.5L215.1,24.5z M206.7,29.8c-1.4,0.9-2.8,1.9-4.1,2.8l9.3,13
		c1.2-0.9,2.4-1.7,3.7-2.5L206.7,29.8L206.7,29.8z M198.5,35.6c-1.3,1-2.6,2-3.9,3.1l10.1,12.4c1.1-0.9,2.3-1.9,3.5-2.8L198.5,35.6
		L198.5,35.6z M190.8,42c-1.3,1.1-2.5,2.2-3.7,3.4L198,57c1.1-1,2.2-2,3.3-3L190.8,42L190.8,42z M183.5,48.8
		c-1.2,1.2-2.3,2.4-3.5,3.6l11.7,11c1-1.1,2.1-2.2,3.1-3.2L183.5,48.8L183.5,48.8z M176.6,56.1c-1.1,1.3-2.2,2.5-3.2,3.8l12.3,10.2
		c0.9-1.1,1.9-2.3,2.9-3.4L176.6,56.1L176.6,56.1z M170.3,63.8c-1,1.3-2,2.7-3,4l13,9.3c0.9-1.2,1.8-2.4,2.7-3.6L170.3,63.8
		L170.3,63.8z M164.4,71.9c-0.9,1.4-1.8,2.8-2.7,4.2l13.6,8.5c0.8-1.3,1.6-2.5,2.4-3.8L164.4,71.9L164.4,71.9z M159.1,80.4
		c-0.8,1.4-1.7,2.9-2.4,4.4l14.1,7.6c0.7-1.3,1.4-2.6,2.2-3.9L159.1,80.4L159.1,80.4z M154.4,89.2c-0.7,1.5-1.5,3-2.1,4.5l14.6,6.6
		c0.6-1.4,1.3-2.7,1.9-4L154.4,89.2L154.4,89.2z M150.3,98.3c-0.6,1.5-1.3,3.1-1.8,4.6l15,5.7c0.5-1.4,1.1-2.8,1.7-4.2L150.3,98.3
		L150.3,98.3z M146.7,107.6c-0.5,1.6-1.1,3.2-1.5,4.8l15.3,4.7c0.4-1.4,0.9-2.9,1.4-4.3L146.7,107.6L146.7,107.6z M143.8,117.2
		c-0.4,1.6-0.8,3.2-1.2,4.8l15.6,3.7c0.3-1.4,0.7-2.9,1.1-4.3L143.8,117.2L143.8,117.2z M141.5,126.9c-0.3,1.6-0.6,3.3-0.9,4.9
		l15.8,2.6c0.2-1.5,0.5-2.9,0.8-4.4L141.5,126.9L141.5,126.9z M139.9,136.8c-0.2,1.7-0.4,3.3-0.6,5l15.9,1.6c0.1-1.5,0.3-3,0.5-4.4
		L139.9,136.8L139.9,136.8z M138.9,146.8c-0.1,1.7-0.2,3.3-0.3,5l16,0.5c0.1-1.5,0.1-3,0.2-4.5L138.9,146.8L138.9,146.8z
		 M138.6,156.8c0,0.1,0,0.2,0,0.3l0,0c0,1.6,0,3.1,0.1,4.7l16-0.5c0-1.5-0.1-3-0.1-4.5L138.6,156.8L138.6,156.8z M154.8,165.8l-16,1
		c0.1,1.7,0.2,3.3,0.4,5l15.9-1.5C155,168.7,154.9,167.2,154.8,165.8L154.8,165.8z M155.7,174.7l-15.9,2c0.2,1.7,0.4,3.3,0.7,4.9
		l15.8-2.5C156.1,177.6,155.9,176.1,155.7,174.7L155.7,174.7z M157.1,183.5l-15.7,3.1c0.3,1.6,0.7,3.3,1,4.9l15.6-3.6
		C157.7,186.4,157.4,185,157.1,183.5L157.1,183.5z M159.1,192.2l-15.5,4.1c0.4,1.6,0.9,3.2,1.4,4.8l15.3-4.6
		C159.9,195.1,159.5,193.7,159.1,192.2L159.1,192.2z M161.7,200.8l-15.2,5.1c0.5,1.6,1.1,3.2,1.7,4.7l15-5.6
		C162.6,203.6,162.1,202.2,161.7,200.8L161.7,200.8z M164.8,209.2l-14.8,6.1c0.6,1.5,1.3,3.1,2,4.6l14.6-6.6
		C166,211.9,165.4,210.5,164.8,209.2L164.8,209.2z M168.5,217.3l-14.4,7c0.7,1.5,1.5,3,2.3,4.5l14.1-7.5
		C169.8,220,169.1,218.7,168.5,217.3L168.5,217.3z M172.7,225.2l-13.9,8c0.8,1.4,1.7,2.9,2.6,4.3l13.6-8.4
		C174.2,227.8,173.4,226.5,172.7,225.2L172.7,225.2z M177.4,232.8l-13.3,8.9c0.9,1.4,1.9,2.8,2.8,4.1l13-9.3
		C179.1,235.3,178.2,234.1,177.4,232.8L177.4,232.8z M182.6,240.1l-12.7,9.7c1,1.3,2,2.6,3.1,3.9l12.4-10.1
		C184.4,242.5,183.5,241.3,182.6,240.1L182.6,240.1z M188.2,247.1l-12.1,10.5c1.1,1.3,2.2,2.5,3.3,3.7l11.7-10.9
		C190.2,249.3,189.2,248.2,188.2,247.1L188.2,247.1z M194.4,253.6L183,264.9c1.2,1.2,2.4,2.3,3.6,3.5l11-11.6
		C196.5,255.7,195.4,254.7,194.4,253.6L194.4,253.6z M200.9,259.8l-10.6,12c1.2,1.1,2.5,2.2,3.8,3.2l10.2-12.3
		C203.1,261.7,202,260.8,200.9,259.8L200.9,259.8z M207.8,265.5l-9.8,12.7c1.3,1,2.7,2,4,3l9.4-13
		C210.2,267.3,208.9,266.4,207.8,265.5L207.8,265.5z M215,270.7l-9,13.3c1.4,0.9,2.8,1.8,4.2,2.7l8.5-13.5
		C217.5,272.4,216.3,271.6,215,270.7L215,270.7z M222.6,275.5l-8.1,13.8c1.4,0.8,2.9,1.7,4.4,2.4l7.6-14.1
		C225.2,277,223.9,276.3,222.6,275.5L222.6,275.5z M230.5,279.8l-7.1,14.3c1.5,0.7,3,1.5,4.5,2.2l6.7-14.5
		C233.2,281.1,231.8,280.4,230.5,279.8L230.5,279.8z M238.6,283.5l-6.2,14.8c1.5,0.6,3.1,1.3,4.6,1.9l5.7-15
		C241.4,284.6,240,284.1,238.6,283.5L238.6,283.5z M247,286.7l-5.2,15.1c1.6,0.5,3.2,1.1,4.8,1.5l4.7-15.3
		C249.8,287.6,248.4,287.2,247,286.7L247,286.7z M255.5,289.3l-4.2,15.4c1.6,0.4,3.2,0.8,4.8,1.2l3.7-15.6
		C258.4,290.1,257,289.7,255.5,289.3L255.5,289.3z M264.2,291.4l-3.2,15.7c1.6,0.3,3.3,0.6,4.9,0.9l2.7-15.8
		C267.2,291.9,265.7,291.7,264.2,291.4L264.2,291.4z M273.1,292.9l-2.1,15.9c1.7,0.2,3.3,0.4,5,0.6l1.6-15.9
		C276,293.2,274.5,293.1,273.1,292.9L273.1,292.9z M282,293.8l-1.1,16c1.7,0.1,3.3,0.2,5,0.3l0.6-16
		C285,293.9,283.4,293.9,282,293.8L282,293.8z M295.4,294c-1.5,0-3,0.1-4.5,0.1l-0.1,16c1.7,0,3.3,0,5-0.1L295.4,294L295.4,294z
		 M304.4,293.5c-1.5,0.1-3,0.3-4.5,0.3l1,16c1.7-0.1,3.3-0.2,5-0.4L304.4,293.5L304.4,293.5z M313.2,292.4c-1.5,0.2-3,0.4-4.4,0.6
		l2,15.9c1.7-0.2,3.3-0.4,5-0.7L313.2,292.4L313.2,292.4z M322,290.7c-1.4,0.3-2.9,0.6-4.4,0.9l3,15.7c1.6-0.3,3.3-0.7,4.9-1
		L322,290.7L322,290.7z M330.7,288.4c-1.4,0.4-2.9,0.8-4.3,1.2l4.1,15.5c1.6-0.4,3.2-0.9,4.8-1.3L330.7,288.4L330.7,288.4z
		 M339.2,285.6c-1.4,0.5-2.8,1-4.2,1.5l5.1,15.2c1.6-0.5,3.2-1.1,4.7-1.7L339.2,285.6L339.2,285.6z M347.4,282.2
		c-1.4,0.6-2.7,1.2-4.1,1.8l6.1,14.8c1.5-0.6,3.1-1.3,4.6-2L347.4,282.2L347.4,282.2z M355.5,278.3c-1.3,0.7-2.7,1.4-4,2l7,14.4
		c1.5-0.7,3-1.5,4.5-2.3L355.5,278.3L355.5,278.3z M363.3,273.8c-1.3,0.8-2.6,1.5-3.8,2.3l7.9,13.9c1.4-0.8,2.9-1.7,4.3-2.6
		L363.3,273.8L363.3,273.8z M370.7,268.9c-1.2,0.9-2.5,1.7-3.7,2.5l8.8,13.3c1.4-0.9,2.8-1.9,4.1-2.8L370.7,268.9L370.7,268.9z
		 M377.9,263.5c-1.2,0.9-2.3,1.9-3.5,2.8L384,279c1.3-1,2.6-2,3.9-3.1L377.9,263.5L377.9,263.5z M384.6,257.6c-1.1,1-2.2,2-3.3,3
		l10.5,12.1c1.3-1.1,2.5-2.2,3.7-3.3L384.6,257.6L384.6,257.6z M391,251.3c-1,1.1-2.1,2.2-3.1,3.2l11.2,11.4
		c1.2-1.2,2.4-2.4,3.5-3.6L391,251.3L391,251.3z M396.9,244.6c-1,1.1-1.9,2.3-2.9,3.4l12,10.6c1.1-1.2,2.2-2.5,3.3-3.8L396.9,244.6
		L396.9,244.6z M402.4,237.5c-0.9,1.2-1.8,2.4-2.7,3.6l12.6,9.8c1-1.3,2-2.6,3-4L402.4,237.5L402.4,237.5z M407.5,230.1
		c-0.8,1.3-1.6,2.5-2.5,3.7l13.2,9c0.9-1.4,1.8-2.8,2.7-4.2L407.5,230.1L407.5,230.1z M412,222.4c-0.7,1.3-1.4,2.6-2.2,3.9l13.8,8.1
		c0.8-1.4,1.7-2.9,2.5-4.4L412,222.4L412,222.4z M416,214.4c-0.6,1.3-1.3,2.7-1.9,4l14.3,7.2c0.7-1.5,1.5-3,2.2-4.5L416,214.4
		L416,214.4z M419.5,206.2c-0.5,1.4-1.1,2.8-1.7,4.1l14.7,6.2c0.6-1.5,1.3-3.1,1.9-4.6L419.5,206.2L419.5,206.2z M422.4,197.7
		c-0.4,1.4-0.9,2.8-1.4,4.2l15.1,5.2c0.5-1.6,1.1-3.2,1.6-4.8L422.4,197.7L422.4,197.7z M424.8,189.1c-0.3,1.4-0.7,2.9-1.1,4.3
		l15.4,4.2c0.4-1.6,0.9-3.2,1.2-4.8L424.8,189.1L424.8,189.1z M426.6,180.3c-0.2,1.5-0.5,2.9-0.8,4.4l15.7,3.2
		c0.3-1.6,0.6-3.3,0.9-4.9L426.6,180.3L426.6,180.3z M427.8,171.5c-0.2,1.5-0.3,3-0.5,4.4l15.9,2.2c0.2-1.7,0.4-3.3,0.6-5
		L427.8,171.5L427.8,171.5z M428.4,162.5c-0.1,1.5-0.1,3-0.2,4.5l16,1.1c0.1-1.7,0.2-3.3,0.3-5L428.4,162.5L428.4,162.5z
		 M444.5,153.1l-16,0.4c0,1.5,0.1,3,0,4.5l16,0.1C444.6,156.5,444.5,154.8,444.5,153.1L444.5,153.1z M443.9,143.2l-15.9,1.4
		c0.1,1.5,0.2,3,0.3,4.5l16-0.9C444.2,146.5,444.1,144.8,443.9,143.2z M442.7,133.2l-15.8,2.5c0.2,1.5,0.4,3,0.6,4.4l15.9-2
		C443.2,136.5,443,134.9,442.7,133.2L442.7,133.2z M440.8,123.4l-15.6,3.5c0.3,1.4,0.6,2.9,0.9,4.4l15.7-3
		C441.5,126.7,441.2,125,440.8,123.4L440.8,123.4z M438.3,113.7l-15.3,4.5c0.4,1.4,0.8,2.9,1.2,4.3l15.5-4
		C439.2,116.9,438.8,115.3,438.3,113.7L438.3,113.7z M435.2,104.2l-15,5.5c0.5,1.4,1,2.8,1.5,4.2l15.2-5
		C436.3,107.4,435.7,105.8,435.2,104.2L435.2,104.2z M431.4,95l-14.6,6.5c0.6,1.4,1.2,2.7,1.8,4.1l14.8-6
		C432.7,98,432.1,96.5,431.4,95L431.4,95z M427,86l-14.2,7.4c0.7,1.3,1.4,2.7,2,4l14.4-7C428.6,88.9,427.8,87.5,427,86L427,86z
		 M422.1,77.3l-13.6,8.4c0.8,1.3,1.5,2.6,2.3,3.9l13.9-7.9C423.8,80.2,423,78.7,422.1,77.3L422.1,77.3z M416.6,68.9l-13.1,9.2
		c0.9,1.2,1.7,2.5,2.5,3.7l13.4-8.8C418.5,71.7,417.6,70.3,416.6,68.9L416.6,68.9z M410.6,61L398.1,71c0.9,1.2,1.9,2.3,2.8,3.5
		l12.8-9.7C412.7,63.6,411.6,62.3,410.6,61L410.6,61z M404,53.4l-11.8,10.8c1,1.1,2,2.2,3,3.3l12.1-10.5
		C406.3,55.9,405.2,54.6,404,53.4L404,53.4z M397,46.3l-11,11.6c1.1,1,2.2,2.1,3.2,3.1l11.4-11.2C399.4,48.6,398.2,47.4,397,46.3
		L397,46.3z M389.6,39.6l-10.3,12.3c1.1,1,2.3,1.9,3.4,2.9l10.7-11.9C392.1,41.8,390.8,40.7,389.6,39.6L389.6,39.6z M381.7,33.5
		l-9.4,12.9c1.2,0.9,2.4,1.8,3.6,2.7l9.9-12.6C384.4,35.5,383,34.4,381.7,33.5L381.7,33.5z M373.4,27.8l-8.6,13.5
		c1.3,0.8,2.5,1.6,3.7,2.5l9-13.2C376.2,29.6,374.8,28.7,373.4,27.8L373.4,27.8z M364.8,22.8l-7.7,14c1.3,0.7,2.6,1.5,3.9,2.2
		l8.1-13.8C367.7,24.4,366.3,23.6,364.8,22.8z M355.9,18.3l-6.7,14.5c1.3,0.6,2.7,1.3,4,2l7.2-14.3C358.9,19.7,357.4,19,355.9,18.3z
		 M346.7,14.3l-5.8,14.9c1.4,0.5,2.8,1.1,4.1,1.7l6.3-14.7C349.8,15.6,348.2,14.9,346.7,14.3L346.7,14.3z M337.2,11l-4.8,15.3
		c1.4,0.4,2.8,0.9,4.2,1.4l5.3-15.1C340.4,12.1,338.8,11.5,337.2,11L337.2,11z M327.6,8.4l-3.8,15.6c1.4,0.3,2.9,0.7,4.3,1.1
		l4.3-15.4C330.8,9.2,329.2,8.8,327.6,8.4z M317.8,6.4l-2.7,15.8c1.5,0.3,2.9,0.5,4.4,0.8l3.2-15.7C321.1,6.9,319.5,6.6,317.8,6.4
		L317.8,6.4z M307.9,5l-1.7,15.9c1.5,0.2,3,0.3,4.4,0.5l2.2-15.8C311.2,5.4,309.6,5.1,307.9,5L307.9,5z M297.9,4.2l-0.7,16
		c1.5,0.1,3,0.1,4.5,0.3l1.2-16c-0.5,0-1-0.1-1.6-0.1C300.2,4.3,299.1,4.3,297.9,4.2L297.9,4.2z"/>
</g>
</svg>
