<?xml version="1.0" encoding="utf-8"?>
<!-- Generator: Adobe Illustrator 19.2.1, SVG Export Plug-In . SVG Version: 6.00 Build 0)  -->
<svg version="1.1" id="レイヤー_1" xmlns="http://www.w3.org/2000/svg" xmlns:xlink="http://www.w3.org/1999/xlink" x="0px"
	 y="0px" viewBox="0 0 550 555" style="enable-background:new 0 0 550 555;" xml:space="preserve">
<style type="text/css">
	.st0{fill:#8C3123;}
	.st1{fill:#E05243;}
	.st2{fill:#5E1F18;}
	.st3{fill:#F2B0A9;}
	.st4{fill:#1B2B79;}
	.st5{fill:#3A3A3A;}
	.st6{fill:none;stroke:#FF9D00;stroke-miterlimit:10;}
	.st7{fill:#FF9D00;}
	.st8{fill:#2E73B8;}
	.st9{fill:#5294CF;}
	.st10{fill:#205B99;}
	.st11{fill:#19486F;}
	.st12{fill:#99BCE3;}
	.st13{display:none;}
</style>
<g>
	<g>
		<polygon class="st0" points="172.1,117.9 169,119.4 169,146.3 172.1,147.8 179.6,132.9 		"/>
		<polygon class="st1" points="188,144 172.1,147.8 172.1,117.9 188,121.8 195.5,132.9 		"/>
		<polygon class="st0" points="188,144 203.9,147.8 206.7,133.2 203.9,117.9 188,121.8 		"/>
		<polygon class="st1" points="203.9,117.9 207,119.4 207,146.3 203.9,147.8 		"/>
		<polygon class="st0" points="181,137.8 188,138.7 193.5,132.9 188,127.1 181,128 		"/>
		<polygon class="st2" points="194.9,123.2 188,124.5 181,123.2 188,110 		"/>
		<polygon class="st3" points="194.9,142.6 188,141.3 181,142.6 188,155.8 		"/>
		<polygon class="st1" points="194.9,123.2 188,121.5 188,110 194.9,113.4 		"/>
		<polygon class="st0" points="181,123.2 188,121.5 188,110 181,113.4 		"/>
		<polygon class="st1" points="188,155.8 194.9,152.4 194.9,142.6 188,144.3 		"/>
		<polygon class="st0" points="188,155.8 181,152.4 181,142.6 188,144.3 		"/>
		<polygon class="st1" points="194.9,137.8 188,138.7 188,127.1 194.9,128 		"/>
	</g>
	<g>
		<g>
			<path class="st4" d="M231.2,118l10.8,29.7h-4l-3.8-10.5h-7.9l-3.8,10.5h-4.1l10.8-29.7H231.2z M232.8,133.3l-2.5-7l-2.5,7H232.8z
				"/>
			<path class="st4" d="M253.8,142.1V118h3.8v24.1c0.1,0.2,0.3,0.5,0.6,0.8c0.8,0.8,1.8,1.2,2.9,1.2s2.1-0.4,2.9-1.2
				s1.2-1.7,1.2-2.8V118h3.9v22.2c0,2.1-0.8,3.9-2.3,5.4c-1.5,1.6-3.4,2.3-5.6,2.3s-4-0.8-5.4-2.3c-1.4,1.5-3.2,2.3-5.4,2.3
				s-4.1-0.8-5.6-2.3s-2.3-3.3-2.3-5.4V118h3.8v22.1c0,1.1,0.4,2,1.2,2.8s1.8,1.2,2.9,1.2c1.1,0,2.1-0.4,2.9-1.2
				C253.5,142.6,253.7,142.3,253.8,142.1z"/>
			<path class="st4" d="M278.9,132.4c-2.1-0.7-3.8-1.7-5.1-3c-1.3-1.3-2-2.9-2-4.9c0-1.9,0.7-3.5,2-4.9c1.4-1.4,3-2,4.9-2
				s3.5,0.7,4.9,2c0.8,0.7,1.4,1.9,1.9,3.5l-3.5,1.4c-0.4-1.1-0.8-1.9-1.2-2.2c-0.6-0.6-1.3-0.9-2.2-0.9c-0.9,0-1.6,0.3-2.2,0.9
				s-0.9,1.3-0.9,2.2c0,0.9,0.3,1.6,0.9,2.2c0.7,0.7,1.6,1.3,2.8,1.8c2.3,0.8,4.3,1.9,5.9,3.6c1.8,1.8,2.7,4,2.7,6.5
				s-0.9,4.7-2.7,6.6c-1.8,1.8-4,2.7-6.5,2.7c-2.6,0-4.7-0.9-6.5-2.7c-1.4-1.4-2.4-3.4-2.7-6l3.7-1.4c0.2,2.2,0.8,3.7,1.7,4.7
				c1.1,1.1,2.3,1.6,3.8,1.6s2.8-0.5,3.8-1.6c1.1-1.1,1.6-2.3,1.6-3.9c0-1.5-0.5-2.8-1.6-3.8C281.6,133.9,280.4,133.1,278.9,132.4z"
				/>
			<path class="st4" d="M315.2,118v3.8H303v9.1h12.2v3.8H303v9.1h12.2v3.9h-16V118H315.2z"/>
			<path class="st4" d="M340.4,140.6l2.9,2.6c-3.5,3.2-7.2,4.8-11.2,4.8c-4.2,0-7.8-1.5-10.7-4.4c-3-3-4.4-6.5-4.4-10.7
				s1.5-7.8,4.4-10.7c3-3,6.5-4.5,10.7-4.5c3.9,0,7.6,1.6,11.2,4.8l-2.9,2.6c-2.6-2.3-5.4-3.5-8.3-3.5c-3.1,0-5.8,1.1-8,3.3
				c-2.2,2.2-3.3,4.9-3.3,8c0,3.1,1.1,5.8,3.3,8c2.2,2.2,4.9,3.3,8,3.3C335,144.1,337.8,143,340.4,140.6z"/>
			<path class="st4" d="M349.2,138.3c2-1.5,3.7-2.8,5.2-3.9c1.4-1.1,2.7-2.2,3.8-3.4c1.1-1.2,1.7-2.6,1.7-4.1c0-1.5-0.5-2.8-1.6-3.8
				c-1.1-1.1-2.3-1.6-3.8-1.6s-2.7,0.5-3.8,1.6c-0.9,0.9-1.5,2.5-1.7,4.7l-3.8-1.4c0.4-2.6,1.3-4.6,2.8-6c1.8-1.8,4-2.7,6.6-2.7
				s4.8,0.9,6.6,2.7c1.8,1.8,2.7,4,2.7,6.6c0,2.5-0.9,4.8-2.6,6.7c-1.1,1.2-2.4,2.4-3.9,3.5s-3.1,2.3-4.9,3.7
				c-1.6,1.2-2.5,2.2-2.7,3h14.1v3.9h-18.6C345.8,142.9,347.2,139.8,349.2,138.3z"/>
		</g>
	</g>
</g>
<g>
	<g>
		<path class="st5" d="M159.7,232.3c-0.9,4.7-2.8,9.3-6.1,12.8c-3.4,3.7-8,5.2-12.1,6.1l-0.7-1.5c4.5-0.9,8.4-2.3,11.5-5.8
			c2.6-2.9,4.4-6.4,5.3-10.2H147c-1.5,2-3.2,4.1-6.4,6.4l-0.9-1.3c2.2-1.6,6.1-4.7,8.6-10.5l1.7,0.3c-0.4,0.9-0.8,1.8-1.9,3.6
			L159.7,232.3L159.7,232.3z"/>
		<path class="st5" d="M181.9,236c-1.3,11.3-7.9,14.1-16.8,15.1l-0.4-1.6c7.5-0.7,14-2.6,15.5-12H161V236H181.9z M180.3,229.7v1.5
			h-17.4v-1.5H180.3z"/>
		<path class="st5" d="M194.8,228.3v4.4h9v1.8c0,4.8-1.2,9.3-4.7,12.2c-4.2,3.5-9.4,4-11.6,4.2l-0.5-1.5c1.9-0.2,7-0.7,11.1-4
			c2.1-1.7,3.9-4.5,3.9-10.7v-0.6h-16.3v7h-1.6v-8.4h8.8v-4.4H194.8z"/>
		<path class="st5" d="M210.2,228.5v7.2c2.5,0.8,7.8,2.7,13.4,5.9l-0.8,1.6c-4.9-2.9-7.7-4.2-12.6-5.9v14.1h-1.7v-22.9L210.2,228.5
			L210.2,228.5z M220.3,233.9c-0.6-1.4-1.4-2.8-2.2-4.1l1.3-0.6c0.3,0.4,1.6,2.5,2.2,4L220.3,233.9z M223.3,232.7
			c-0.8-1.6-1.2-2.4-2.1-3.9l1.2-0.6c0.8,1,1.8,2.9,2.2,3.7L223.3,232.7z"/>
		<path class="st5" d="M238.5,228.1v4h10v17.5c0,1.9-0.3,2.3-2.1,2.3h-4.3l-0.3-1.5l4.4,0.1c0.6,0,0.8-0.2,0.8-0.8v-16.4h-8.4
			c0.3,2.6,1.3,6.6,7.9,11.5l-1.1,1.1c-3.3-2.7-6.2-5.9-7.6-9.9c-1.1,3.9-2.4,6.4-8,9.8l-0.9-1.2c6.6-3.1,7.5-8.1,7.9-11.3h-8.4V252
			H227v-19.9h10v-4H238.5z"/>
		<path class="st5" d="M272.1,231.9c-1.6-0.1-2.5-0.2-3.2-0.2c-1.4,0-1.9,0.2-3,0.6c-3.2,1.3-5.5,3.5-6.9,5.3
			c-1.7,2.1-2.1,3.8-2.1,5.3c0,3,1.7,4.5,4.2,5.4c2.7,0.9,5.9,1.1,8.5,1.1l-0.4,1.7c-6.9-0.3-13.9-1.5-13.9-8c0-4.6,3.5-8.4,9-11.3
			c-4,0.1-11.9,0.6-14.3,0.9l-0.2-1.7c0.8,0,6.6-0.3,9.6-0.4c5.7-0.3,7.2-0.3,12.8-0.3v1.6H272.1z M268.5,239.5
			c-0.2-0.4-1-2.3-2.1-3.8l1.2-0.6c1,1.2,1.5,2.1,2.3,3.6L268.5,239.5z M271.3,238.1c-0.5-1.2-1.3-2.4-2.1-3.5l1.2-0.6
			c0.7,0.9,1.7,2.3,2.3,3.5L271.3,238.1z"/>
		<path class="st5" d="M290,228.7h1.6v5.4h4.9v1.5h-4.9v3.9c0,2.6-0.8,6.7-4.3,9.1c-3.1,2.2-6.9,2.5-8.2,2.7l-0.6-1.6
			c1.3-0.1,4.9-0.4,8-2.5c3.5-2.4,3.5-7.5,3.5-7.7v-3.9h-10.5v7.6h-1.6v-7.6H273V234h4.8v-5.3h1.6v5.3H290V228.7z"/>
		<path class="st5" d="M310.5,251.3h-1.6V238c-3.5,2.6-7.3,4.7-11.5,6.1l-0.7-1.5c3.7-1.1,12.6-5,19.3-13.9l1.6,0.9
			c-3.5,4.3-6.4,6.6-7,7.1L310.5,251.3L310.5,251.3z"/>
		<path class="st5" d="M341.4,250.9c-2.4-2.7-6.8-6.8-9.1-8.5c-4.1,5-8.7,7.4-11.2,8.7l-0.9-1.4c5.7-2.5,13.3-8.2,15.8-17.7h-14.6
			v-1.5H338c-0.3,1.5-1.1,5.9-4.7,10.8c3.4,2.5,8,6.9,9.5,8.3L341.4,250.9z M339.9,232.6c-0.5-1.7-0.9-2.5-1.7-3.8l1.3-0.5
			c0.7,1,1.4,2.5,1.8,3.7L339.9,232.6z M342.5,231.5c-0.5-1.5-1-2.3-1.7-3.6l1.2-0.5c0.8,1.1,1.4,2.3,1.9,3.5L342.5,231.5z"/>
		<path class="st5" d="M342.6,250.6c4.8-0.6,8.3-1.8,10.7-2.9c-0.9-0.5-2.8-1.8-4.5-3.6c-2.1,1.5-3.8,2.2-5,2.7l-0.8-1.3
			c2.8-1,6.5-2.8,8.9-5.9l1.3,0.5c-0.3,0.5-0.6,0.8-1.3,1.5h10.4v0.9c-1.7,2.1-3.2,3.4-6.1,5.1c2.4,1.1,5.6,2.3,10.4,2.9l-0.7,1.5
			c-4.1-0.5-7.6-1.6-11.2-3.6c-3.6,1.8-7.5,2.8-11.4,3.5L342.6,250.6z M355.5,230.6h11.2v1.3h-8.3v6.4c0,1-0.3,1.4-1.4,1.4h-2.6
			l-0.3-1.4h2.3c0.7,0,0.7-0.3,0.7-0.7v-5.8h-4.3c-0.1,3.1-0.8,6-4.4,8.6l-1.1-1c3.4-2.3,4-4.9,4.1-7.6h-8.3v-1.3H354V228h1.5V230.6
			z M342.9,238c2-1.1,3.6-2.8,4.7-4.8l1.3,0.6c-0.4,0.8-2,3.4-4.9,5.3L342.9,238z M350.5,242.8c-0.3,0.3-0.5,0.4-0.7,0.5
			c1.6,1.6,3.8,3,5,3.6c0.6-0.3,3-1.6,5.4-4.1H350.5z M361.1,233.4c1.7,2.1,2.9,3.4,5.1,4.8l-0.9,1.1c-1.3-0.9-3.9-3.1-5.3-5.1
			L361.1,233.4z"/>
		<path class="st5" d="M387.9,233.2v9.9h-9.6c-0.6,2.5-1.6,4-2.1,4.6c2.9,1.7,7.6,3,13.8,2.9l-0.4,1.5c-1.9,0-8.7-0.1-14.3-3.5
			c-1,0.9-3.5,2.5-8.7,3.4l-0.5-1.3c4.6-0.6,7-1.9,8.1-2.9c-2-1.4-3.1-2.6-3.7-3.3l1.2-0.7c0.7,0.9,1.7,2,3.4,3.1
			c0.3-0.4,1.3-1.5,1.9-3.9h-8.5v-9.9h9v-2.7h-11.2v-1.3H390v1.3h-11.1v2.7L387.9,233.2L387.9,233.2z M377.5,237.4v-2.9h-7.6v2.9
			H377.5z M377.2,241.7c0.2-1.2,0.3-2.1,0.3-3.1h-7.6v3.1H377.2z M378.9,238.6c0,0.8-0.1,1.7-0.3,3.1h7.9v-3.1H378.9z M378.9,234.5
			v2.9h7.6v-2.9H378.9z"/>
		<path class="st5" d="M397.7,229c-0.4,2.3-0.7,3.6-0.9,5h4c2.7,0,5.3,0.3,5.3,6c0,2.2-0.3,6.3-1.3,8.4c-1.1,2.4-2.9,2.5-4.2,2.5
			c-2,0-3.8-0.3-4.5-0.4l-0.1-1.6c0.7,0.1,2.9,0.5,4.4,0.5c1.8,0,2.5-0.8,2.9-1.7c0.7-1.5,1.2-4.9,1.2-7.7c0-4.1-1.4-4.5-3.2-4.5
			h-4.8c-2,9.7-3.9,13.9-4.7,15.5l-1.5-0.8c2.5-4.9,3.8-10.6,4.6-14.8h-4.3V234h4.6c0.4-2.2,0.6-3.8,0.8-5.2L397.7,229z M409.1,233
			c-0.5-1.2-1.4-2.6-2.3-4l1.2-0.5c0.8,0.9,1.9,2.8,2.4,4L409.1,233z M411.4,243.3c-0.5-3.6-1.7-6.1-3.9-8.6l1.4-0.8
			c2.7,3,3.7,6.2,4.2,9L411.4,243.3z M412.2,232.2c-0.7-1.4-1.4-2.7-2.3-3.9l1.3-0.5c1.1,1.3,1.9,3,2.3,3.9L412.2,232.2z"/>
		<path class="st5" d="M187.9,287.7c0,1.6-0.8,2.2-2.2,2.2H181l-0.2-1.5l4.8,0.1c0.6,0,0.9,0,0.9-1v-18.8h-18.8v-1.4h23.8v1.4H188
			v19H187.9z M181.7,283.1h-10v1.6h-1.4v-12.4h11.4V283.1z M180.3,273.7h-8.6v8.1h8.6V273.7z"/>
		<path class="st5" d="M199.4,267.4c1.1,1.3,2.8,3.6,3.9,5.5l-1.2,0.8c-0.3-0.5-0.5-0.9-1-1.8c-1.2,0.2-2.1,0.3-9.9,1l-0.2-1.4
			c0.3,0,1.4-0.1,1.8-0.1c0.7-1.3,1.6-3.5,2.3-5.2l1.4,0.4c-0.4,0.8-2,4.1-2.3,4.8c4.2-0.3,4.7-0.3,6.2-0.5c-1.1-1.5-1.5-2.1-2-2.8
			L199.4,267.4z M201.7,274.8v13.3c0,1.3-0.6,1.8-1.9,1.8h-2.7l-0.3-1.5l2.8,0.1c0.7,0,0.7-0.4,0.7-0.7V284h-6.7v5.9h-1.4v-15.1
			H201.7z M200.3,276.1h-6.7v2.6h6.7V276.1z M200.3,280h-6.7v2.8h6.7V280z M206,266.1v4.4c1.4-0.4,4.8-1.4,7.3-3.1l1,1.1
			c-2.4,1.6-6.1,2.7-8.2,3.2v3.4c0,0.5,0,1,1,1h5c1,0,1.3,0,1.5-3.8l1.4,0.5c-0.2,3.4-0.4,4.6-2.4,4.6h-5.7c-1.6,0-2.1-0.7-2.1-1.9
			v-9.3h1.2V266.1z M206,278.2v4.2c1.1-0.2,4.2-1,7.2-3.1l1,1.1c-2.4,1.7-6.1,2.8-8.1,3.2v3.3c0,0.8,0.1,1.1,1.2,1.1h4.7
			c0.7,0,0.9-0.1,1-0.6c0.1-0.4,0.4-1.8,0.4-3.5l1.4,0.4c-0.4,4.2-0.4,5-2.8,5h-5.1c-0.7,0-2.3,0-2.3-2V278h1.4V278.2z"/>
		<path class="st5" d="M222.4,266.6c-0.3,1.4-0.4,2.5-0.7,3.7h6.2v1.5h-6.5c-1.5,6.6-3.1,10.9-5.1,14.2l-1.6-0.8
			c3-4.6,4.4-10.3,5.1-13.3h-5v-1.5h5.3c0.3-1.6,0.5-2.8,0.6-3.7L222.4,266.6z M237.6,271.7c-0.7-0.1-1-0.1-1.9-0.1
			c-2.1,0-3,0.1-3.8,0.2l0.2,9c2.2,0.9,4.6,2.6,6.1,4.4l-1.1,1.3c-1.8-2.3-3.7-3.4-5-4.1v1.5c0,1.5,0,2.2-0.4,3
			c-1.1,2.3-3.8,2.4-4.7,2.4c-4.4,0-6-2.5-6-4.6c0-1.8,1.4-4.8,6.2-4.8c1.6,0,2.5,0.2,3.2,0.4l-0.3-9.7c3.3-0.5,6.1-0.5,7.3-0.5v1.6
			H237.6z M230.6,281.8c-0.7-0.2-1.7-0.6-3.3-0.6c-3.2,0-4.6,1.6-4.6,3.4c0,3.1,3.8,3.1,4.4,3.1c3.3,0,3.6-1.8,3.6-4L230.6,281.8
			L230.6,281.8z"/>
		<path class="st5" d="M242.5,289.9h-1.4v-14.8c-1.4,2.1-2.3,3-2.7,3.4l-0.8-1.5c2.7-2.8,5.2-7.8,6.2-10.9l1.4,0.4
			c-0.3,1.1-0.9,3-2.7,6.2V289.9z M247.3,288.7c2.1-0.9,4.4-2,6.7-4c-2.7-3.5-3.5-6.9-3.8-8.6l1.3-0.3c1,4.4,2.6,6.8,3.4,7.9
			c3-3.2,3.7-7.7,3.8-8.9h-10.6v2.6c0,4.4-0.7,8.9-3.3,12.4l-1.1-1.1c2.8-3.9,2.9-8.6,2.9-11.3V267h14.8v1.3H248v5.2h12.3
			c-0.4,4.2-1.8,8.4-4.6,11.4c2.3,2.5,4.9,3.2,5.9,3.5l-0.7,1.4c-1.1-0.4-3.6-1.2-6.1-3.9c-2.7,2.5-5.5,3.6-6.9,4.1L247.3,288.7z"/>
		<path class="st5" d="M261.1,288.4c2-2,2.7-4,3.1-5.6l1.3,0.4c-0.5,2.2-1.4,4.2-3.1,6.1L261.1,288.4z M270.9,276.9
			c-0.9-0.9-1.8-2.1-3-4v8.1h-1.4v-8c-0.5,1.1-1.8,3.7-4.7,6.3l-0.8-1.4c1.2-1,3.7-3.3,5.4-7.3h-5v-1.3h5.1v-3.2h1.4v3.2h4.3v1.3
			h-4.3v0.5c1.2,2,3.4,4.2,4,4.8L270.9,276.9z M269,283.2v4.5c0,0.8,0.2,0.8,1,0.8h5.6c1.5,0,1.6-0.3,2-3.3l1.4,0.4
			c-0.4,2.9-0.8,4.1-2.8,4.1h-6.3c-1,0-2.4,0-2.4-1.8v-4.8L269,283.2L269,283.2z M274.3,285.3c-1.4-1.7-2.3-2.5-3.9-3.7l1-0.9
			c1.7,1.1,2.8,2.2,4.1,3.7L274.3,285.3z M283.6,280.8h-10.1V267h10.1V280.8z M282.3,268.3H275v2.8h7.3V268.3z M282.3,272.2H275v2.9
			h7.3V272.2z M282.3,276.3H275v3.2h7.3V276.3z M283.8,288.9c-1.4-2.7-2.6-4.4-4.1-6.1l1.2-0.6c1.3,1.4,2.7,3.2,4.1,5.9L283.8,288.9
			z"/>
		<path class="st5" d="M301.9,266.7h1.6v5.4h4.9v1.5h-4.9v3.9c0,2.6-0.8,6.7-4.3,9.1c-3.1,2.2-6.9,2.5-8.2,2.7l-0.6-1.6
			c1.3-0.1,4.9-0.4,8-2.5c3.5-2.4,3.5-7.5,3.5-7.7v-3.9h-10.5v7.6h-1.6v-7.6H285V272h4.8v-5.3h1.6v5.3h10.5V266.7z"/>
		<path class="st5" d="M331.4,277.2v1.7h-23.1v-1.7H331.4z"/>
		<path class="st5" d="M331.2,287.5c2.5-2.7,5.8-7.4,6.1-19.6l1.7,0.3c-0.7,10.9-2.8,16.4-6.6,20.4L331.2,287.5z M348.1,268
			c0.7,11.9,4,16.5,6.9,19.6l-1.4,1.2c-3.6-3.9-6.3-9.2-7.2-20.5L348.1,268z M351,271.1c-0.2-0.6-0.9-2.3-1.8-3.9l1.2-0.5
			c0.7,1,1.5,2.7,1.9,3.7L351,271.1z M354.1,270c-0.4-1-1.2-2.6-1.9-3.8l1.2-0.6c0.9,1.4,1.3,2.2,2,3.7L354.1,270z"/>
		<path class="st5" d="M362.9,285.5c0,2.1-1.7,3.7-3.7,3.7c-2.1,0-3.7-1.6-3.7-3.7s1.7-3.7,3.7-3.7
			C361.3,281.8,362.9,283.4,362.9,285.5z M356.7,285.5c0,1.4,1.1,2.5,2.5,2.5s2.5-1.1,2.5-2.5s-1.1-2.5-2.5-2.5
			C357.8,283,356.7,284.1,356.7,285.5z"/>
	</g>
</g>
<g>
	<line class="st6" x1="238" y1="184.5" x2="300" y2="184.5"/>
	<circle class="st7" cx="239.4" cy="184.8" r="3.7"/>
	<circle class="st7" cx="302" cy="184.8" r="3.7"/>
</g>
<g>
	<g>
		<polygon class="st8" points="92.2,335.9 87.2,330.4 80.2,348.4 87.2,366.3 92.2,360.8 		"/>
		<polygon class="st9" points="78.6,370.7 87.2,366.3 87.2,330.4 78.6,326 68.2,348.4 		"/>
		<polygon class="st8" points="66.1,370.7 78.6,370.7 78.6,326 66.1,326 58.7,348.4 		"/>
		<polygon class="st10" points="57.4,366.3 66.1,370.7 66.1,326 57.4,330.4 53.6,348.4 		"/>
		<polygon class="st11" points="52.5,360.8 57.4,366.3 57.4,330.4 52.5,335.9 		"/>
	</g>
	<g>
		<g>
			<g>
				<g>
					<path class="st5" d="M61.2,391.1c-0.1,0-0.2,0-0.3,0h-3.1v6.2h-1v-18h4.7c1.4,0.2,2.5,0.8,3.5,1.7c1.1,1.1,1.7,2.5,1.7,4.1
						s-0.6,3-1.7,4.2c-0.8,0.8-1.7,1.3-2.7,1.6l4.1,6.4h-1.2L61.2,391.1z M57.8,380.4v9.7h3.1c1.3,0,2.5-0.5,3.4-1.4
						c0.9-0.9,1.4-2.1,1.4-3.4s-0.5-2.5-1.4-3.4s-2.1-1.4-3.4-1.4h-3.1V380.4z"/>
					<path class="st5" d="M71.2,379.4L71.2,379.4c3,0,5.3,0.8,7,2.4c1.8,1.8,2.7,4,2.7,6.5s-0.9,4.7-2.7,6.5
						c-1.6,1.6-3.9,2.4-6.9,2.4h-0.1l0,0h-1v-18L71.2,379.4L71.2,379.4z M71.2,380.5v15.9h0.1c2.7,0,4.7-0.7,6.1-2.2
						c1.6-1.6,2.4-3.5,2.4-5.8s-0.8-4.2-2.4-5.8C76,381.2,74,380.5,71.2,380.5L71.2,380.5z"/>
					<path class="st5" d="M89.3,387.4c-1.3-0.4-2.3-1-3-1.8c-0.7-0.7-1.1-1.6-1.1-2.7c0-1,0.4-1.9,1.1-2.7c0.7-0.7,1.6-1.1,2.7-1.1
						c1,0,1.9,0.4,2.7,1.1c0.4,0.4,0.7,0.8,0.9,1.3l-0.9,0.4c-0.1-0.4-0.4-0.7-0.7-1c-0.5-0.5-1.2-0.8-2-0.8s-1.4,0.3-2,0.8
						s-0.8,1.2-0.8,2s0.3,1.4,0.8,2c0.5,0.5,1.2,1,2.1,1.4c1.4,0.5,2.6,1.2,3.6,2.2s1.6,2.3,1.6,3.8s-0.5,2.7-1.6,3.8
						c-1,1-2.3,1.6-3.8,1.6s-2.7-0.5-3.8-1.6c-0.8-0.8-1.3-1.8-1.5-2.9l1-0.3c0.1,1,0.5,1.8,1.2,2.5c0.8,0.8,1.9,1.3,3.1,1.3
						s2.2-0.4,3.1-1.3c0.8-0.8,1.3-1.9,1.3-3.1s-0.4-2.2-1.3-3.1C91.3,388.4,90.4,387.9,89.3,387.4z"/>
				</g>
			</g>
		</g>
	</g>
</g>
<g>
	<g>
		<g>
			<g>
				<g>
					<path class="st5" d="M393.2,446.5v1h-8v7.5h8v1h-8v7.5h8v1h-9v-18H393.2z"/>
					<path class="st5" d="M398.5,446.5v18h-1v-18H398.5z"/>
					<path class="st5" d="M414.9,464.4h-1v-2.2c-0.2,0.3-0.4,0.5-0.6,0.8c-1.2,1.2-2.7,1.8-4.4,1.8c-1.7,0-3.2-0.6-4.4-1.8
						c-1.2-1.2-1.8-2.7-1.8-4.4c0-1.7,0.6-3.2,1.8-4.4s2.7-1.8,4.4-1.8c1.7,0,3.2,0.6,4.4,1.8c0.2,0.2,0.4,0.5,0.6,0.8v-1.6h1V464.4
						z M413.9,459.6v-2c-0.2-1-0.7-1.9-1.4-2.6c-1-1-2.2-1.5-3.6-1.5s-2.6,0.5-3.6,1.5s-1.5,2.2-1.5,3.6s0.5,2.6,1.5,3.6
						s2.2,1.5,3.6,1.5s2.6-0.5,3.6-1.5C413.2,461.4,413.7,460.6,413.9,459.6z"/>
					<path class="st5" d="M422.4,458.8c-0.9-0.5-1.5-0.9-1.8-1.2c-0.5-0.5-0.8-1.1-0.8-1.9c0-0.7,0.3-1.4,0.8-1.9s1.1-0.8,1.9-0.8
						c0.7,0,1.3,0.2,1.8,0.7s0.7,1,0.7,1.6v0.1l-0.9,0.3c-0.1-0.6-0.3-1-0.5-1.3c-0.3-0.3-0.6-0.4-1.1-0.4c-0.4,0-0.8,0.2-1.2,0.5
						s-0.5,0.7-0.5,1.2c0,0.4,0.2,0.8,0.5,1.2c0.2,0.2,0.6,0.5,1.2,0.9c1,0.5,1.6,1,2,1.4c0.6,0.6,1,1.4,1,2.3s-0.3,1.7-1,2.3
						c-0.6,0.6-1.4,1-2.3,1s-1.7-0.3-2.3-1c-0.6-0.6-1-1.3-1-2.1l1-0.3c0,0.7,0.2,1.2,0.7,1.7c0.4,0.4,1,0.7,1.6,0.7
						s1.2-0.2,1.6-0.7c0.4-0.4,0.7-1,0.7-1.6s-0.2-1.2-0.7-1.6C423.6,459.6,423.2,459.2,422.4,458.8z"/>
					<path class="st5" d="M431.1,453.4v-4.7h1v4.7h2.2v1h-2.2v10h-1v-10h-2.2v-1H431.1z"/>
					<path class="st5" d="M439.7,449.8c0.2,0.2,0.3,0.4,0.3,0.7c0,0.3-0.1,0.5-0.3,0.7c-0.2,0.2-0.4,0.3-0.7,0.3
						c-0.3,0-0.5-0.1-0.7-0.3c-0.2-0.2-0.3-0.4-0.3-0.7c0-0.3,0.1-0.5,0.3-0.7c0.2-0.2,0.4-0.3,0.7-0.3
						C439.2,449.5,439.5,449.6,439.7,449.8z M439.5,453.4v11h-1v-11H439.5z"/>
					<path class="st5" d="M453.7,461.8l1.1,0.4c-0.2,0.3-0.4,0.5-0.7,0.8c-1.2,1.2-2.7,1.8-4.4,1.8c-1.7,0-3.2-0.6-4.4-1.8
						c-1.2-1.2-1.8-2.7-1.8-4.4c0-1.7,0.6-3.2,1.8-4.4s2.7-1.8,4.4-1.8c1.7,0,3.2,0.6,4.4,1.8c0.2,0.2,0.5,0.5,0.7,0.8l-1.1,0.4
						c-0.1-0.1-0.2-0.3-0.4-0.4c-1-1-2.2-1.5-3.6-1.5s-2.6,0.5-3.6,1.5s-1.5,2.2-1.5,3.6s0.5,2.6,1.5,3.6s2.2,1.5,3.6,1.5
						s2.6-0.5,3.6-1.5C453.4,462,453.6,461.9,453.7,461.8z"/>
					<path class="st5" d="M470.5,464.4h-1v-2.2c-0.2,0.3-0.4,0.5-0.6,0.8c-1.2,1.2-2.7,1.8-4.4,1.8c-1.7,0-3.2-0.6-4.4-1.8
						c-1.2-1.2-1.8-2.7-1.8-4.4c0-1.7,0.6-3.2,1.8-4.4s2.7-1.8,4.4-1.8c1.7,0,3.2,0.6,4.4,1.8c0.2,0.2,0.4,0.5,0.6,0.8v-1.6h1V464.4
						z M469.5,459.6v-2c-0.2-1-0.7-1.9-1.4-2.6c-1-1-2.2-1.5-3.6-1.5s-2.6,0.5-3.6,1.5s-1.5,2.2-1.5,3.6s0.5,2.6,1.5,3.6
						s2.2,1.5,3.6,1.5s2.6-0.5,3.6-1.5C468.8,461.4,469.3,460.6,469.5,459.6z"/>
					<path class="st5" d="M484.5,461.8l1.1,0.4c-0.2,0.3-0.4,0.5-0.7,0.8c-1.2,1.2-2.7,1.8-4.4,1.8c-1.7,0-3.2-0.6-4.4-1.8
						c-1.2-1.2-1.8-2.7-1.8-4.4c0-1.7,0.6-3.2,1.8-4.4c1.2-1.2,2.7-1.8,4.4-1.8c1.7,0,3.2,0.6,4.4,1.8c0.2,0.2,0.5,0.5,0.7,0.8
						l-1.1,0.4c-0.1-0.1-0.2-0.3-0.4-0.4c-1-1-2.2-1.5-3.6-1.5s-2.6,0.5-3.6,1.5s-1.5,2.2-1.5,3.6s0.5,2.6,1.5,3.6s2.2,1.5,3.6,1.5
						s2.6-0.5,3.6-1.5C484.2,462,484.4,461.9,484.5,461.8z"/>
					<path class="st5" d="M489.4,446.5h1v7.5c0.9-0.8,1.9-1.2,3.1-1.2c1.3,0,2.4,0.4,3.2,1.2c0.8,0.8,1.2,1.8,1.3,3.1v7.4h-1v-7.3
						c0-0.9-0.3-1.7-1-2.4c-0.7-0.7-1.5-1-2.4-1s-1.7,0.3-2.4,1c-0.3,0.3-0.5,0.6-0.7,0.9v8.8h-1v-18H489.4z"/>
					<path class="st5" d="M504.5,462.4c0.9,0.9,2.1,1.3,3.4,1.3c1.4,0,2.6-0.5,3.6-1.5c0.1-0.1,0.2-0.3,0.4-0.4l1.1,0.4
						c-0.2,0.3-0.4,0.5-0.7,0.8c-1.2,1.2-2.7,1.8-4.4,1.8c-1.7,0-3.2-0.6-4.4-1.8c-1.2-1.2-1.8-2.7-1.8-4.4c0-1.7,0.6-3.2,1.8-4.4
						s2.7-1.8,4.4-1.8c1.5,0,2.7,0.4,3.8,1.3c0.2,0.1,0.4,0.3,0.5,0.5c0.1,0.1,0.1,0.1,0.2,0.2l-0.8,0.8L504.5,462.4z M511,454.5
						c-0.9-0.7-1.9-1-3.1-1c-1.4,0-2.6,0.5-3.6,1.5s-1.5,2.2-1.5,3.6c0,1.2,0.3,2.2,1,3.1L511,454.5z"/>
				</g>
			</g>
		</g>
	</g>
	<g>
		<polygon class="st12" points="477.6,416.9 450.1,413.5 422.7,416.9 450.1,438.4 		"/>
		<polygon class="st11" points="477.8,393.6 450,397 422.5,393.6 450.1,372.1 		"/>
		<polygon class="st10" points="450.1,372.1 422.5,385.9 422.5,393.6 450.1,385.4 		"/>
		<polygon class="st10" points="450.1,425.2 422.5,416.9 422.5,424.7 450.1,438.4 		"/>
		<polygon class="st10" points="450.1,415.3 438.2,413.6 438.2,397.2 450.1,395.4 461.4,405.4 		"/>
		<polygon class="st9" points="450.1,372.1 477.8,385.9 477.8,393.6 450.1,385.4 		"/>
		<polygon class="st9" points="450.1,425.2 477.8,416.9 477.8,424.7 450.1,438.4 		"/>
		<polygon class="st9" points="450.1,415.3 462.1,413.6 462.1,397.2 450.1,395.4 		"/>
		<g id="nyt_x5F_exporter_x5F_info_6_" class="st13">
		</g>
	</g>
</g>
<g>
	<g>
		<g>
			<g>
				<g>
					<path class="st5" d="M145.3,486L145.3,486c3,0,5.3,0.8,7,2.4c1.8,1.8,2.7,4,2.7,6.5s-0.9,4.7-2.7,6.5c-1.6,1.6-3.9,2.4-6.9,2.4
						h-0.1l0,0h-1v-18L145.3,486L145.3,486z M145.3,487v15.9h0.1c2.7,0,4.7-0.7,6.1-2.2c1.6-1.6,2.4-3.5,2.4-5.8s-0.8-4.2-2.4-5.8
						C150.1,487.7,148,487,145.3,487L145.3,487z"/>
					<path class="st5" d="M162.8,502.9l-2.5,5.2h-1l3-6.2l-4.3-9h1.1l3.7,7.9l3.7-7.9h1.1L162.8,502.9L162.8,502.9z"/>
					<path class="st5" d="M172.3,495.3v8.6h-1v-11h1v0.7c0.9-0.9,2-1.4,3.2-1.4c1.3,0,2.4,0.4,3.2,1.2s1.2,1.8,1.3,3.1v7.4h-1v-7.3
						c0-0.9-0.3-1.7-1-2.4c-0.7-0.7-1.5-1-2.4-1s-1.7,0.3-2.4,1C172.8,494.6,172.5,494.9,172.3,495.3z"/>
					<path class="st5" d="M196.4,503.9h-1v-2.2c-0.2,0.3-0.4,0.5-0.6,0.8c-1.2,1.2-2.7,1.8-4.4,1.8s-3.2-0.6-4.4-1.8
						c-1.2-1.2-1.8-2.7-1.8-4.4c0-1.7,0.6-3.2,1.8-4.4s2.7-1.8,4.4-1.8s3.2,0.6,4.4,1.8c0.2,0.2,0.4,0.5,0.6,0.8v-1.6h1V503.9z
						 M195.4,499.1v-2c-0.2-1-0.7-1.9-1.4-2.6c-1-1-2.2-1.5-3.6-1.5c-1.4,0-2.6,0.5-3.6,1.5s-1.5,2.2-1.5,3.6s0.5,2.6,1.5,3.6
						s2.2,1.5,3.6,1.5c1.4,0,2.6-0.5,3.6-1.5C194.7,500.9,195.2,500,195.4,499.1z"/>
					<path class="st5" d="M200.9,492.9h1v0.3c0.6-0.6,1.4-0.9,2.3-0.9c0.9,0,1.7,0.3,2.3,1c0.2,0.2,0.3,0.4,0.4,0.6
						c0.1-0.2,0.3-0.4,0.5-0.6c0.6-0.6,1.4-1,2.3-1s1.7,0.3,2.3,1c0.6,0.6,0.9,1.4,1,2.2v8.5h-1v-8.5l0,0c0-0.6-0.3-1.1-0.7-1.5
						s-1-0.7-1.6-0.7s-1.2,0.2-1.6,0.7c-0.4,0.4-0.7,1-0.7,1.7v8.4h-1v-8.5l0,0c0-0.6-0.2-1.1-0.7-1.5c-0.4-0.4-1-0.7-1.6-0.7
						s-1.2,0.2-1.6,0.7c-0.4,0.4-0.6,0.8-0.7,1.4v8.6h-1v-11.2H200.9z"/>
					<path class="st5" d="M223,491.9c1.7,0,3.2,0.6,4.4,1.8s1.8,2.7,1.8,4.4c0,1.7-0.6,3.2-1.8,4.4c-1.2,1.2-2.7,1.8-4.4,1.8
						s-3.2-0.6-4.4-1.8c-1.2-1.2-1.8-2.7-1.8-4.4c0-1.7,0.6-3.2,1.8-4.4S221.3,491.9,223,491.9z M219.4,494.4c-1,1-1.5,2.2-1.5,3.6
						s0.5,2.6,1.5,3.6s2.2,1.5,3.6,1.5s2.6-0.5,3.6-1.5s1.5-2.2,1.5-3.6s-0.5-2.6-1.5-3.6s-2.2-1.5-3.6-1.5S220.4,493.5,219.4,494.4
						z"/>
					<path class="st5" d="M234,486L234,486c3,0,5.3,0.8,7,2.4c1.8,1.8,2.7,4,2.7,6.5s-0.9,4.7-2.7,6.5c-1.6,1.6-3.9,2.4-6.9,2.4H234
						l0,0h-1v-18L234,486L234,486z M234,487v15.9h0.1c2.7,0,4.7-0.7,6.1-2.2c1.6-1.6,2.4-3.5,2.4-5.8s-0.8-4.2-2.4-5.8
						C238.8,487.7,236.8,487,234,487L234,487z"/>
					<path class="st5" d="M250.8,485.9c0.9,0,1.7,0.3,2.4,1s1,1.4,1,2.4c0,0.9-0.5,1.8-1.4,2.6c0.8,0.2,1.6,0.7,2.4,1.5
						c1.2,1.2,1.8,2.7,1.8,4.4c0,1.7-0.6,3.2-1.8,4.4c-1.1,1.2-2.4,1.7-4,1.8l0,0h-3.5v-18L250.8,485.9L250.8,485.9z M248.6,486.9
						v4.6h2.4c0.6-0.1,1-0.3,1.4-0.6c0.5-0.4,0.7-1,0.7-1.6s-0.2-1.2-0.7-1.7c-0.5-0.4-1-0.7-1.7-0.7L248.6,486.9L248.6,486.9z
						 M248.6,492.6v10.3h2.5l0,0c1.2-0.1,2.3-0.6,3.2-1.5c1-1,1.5-2.2,1.5-3.6s-0.5-2.6-1.5-3.6s-2.2-1.5-3.6-1.5L248.6,492.6
						L248.6,492.6z"/>
				</g>
			</g>
		</g>
	</g>
</g>
<g>
	<path class="st7" d="M270.9,0.9c-1.7,0-3.3,0-5,0.1l0.4,16c1.5,0,3.1-0.1,4.6-0.1V0.9L270.9,0.9L270.9,0.9z M260.9,1.1
		c-1.7,0.1-3.3,0.2-5,0.3l1.2,16c1.5-0.1,3.1-0.2,4.6-0.3L260.9,1.1L260.9,1.1z M250.9,1.9c-1.7,0.2-3.3,0.4-5,0.6l2.1,15.9
		c1.5-0.2,3-0.4,4.6-0.5L250.9,1.9L250.9,1.9z M241,3.2c-1.7,0.3-3.3,0.5-4.9,0.8l2.9,15.7c1.5-0.3,3-0.5,4.5-0.8L241,3.2L241,3.2z
		 M231.2,5c-1.6,0.3-3.3,0.7-4.9,1.1l3.7,15.6c1.5-0.4,3-0.7,4.5-1L231.2,5L231.2,5z M221.5,7.3c-1.6,0.4-3.2,0.9-4.8,1.4l4.5,15.3
		c1.5-0.4,2.9-0.8,4.4-1.2L221.5,7.3L221.5,7.3z M211.9,10.1c-1.6,0.5-3.2,1.1-4.7,1.6l5.3,15.1c1.4-0.5,2.9-1,4.3-1.5L211.9,10.1
		L211.9,10.1z M202.4,13.5c-1.6,0.6-3.1,1.2-4.6,1.9l6.1,14.8c1.4-0.6,2.8-1.2,4.3-1.7L202.4,13.5L202.4,13.5z M193.2,17.3
		c-1.5,0.7-3,1.4-4.5,2.1l6.9,14.4c1.4-0.7,2.8-1.3,4.2-1.9L193.2,17.3L193.2,17.3z M184.2,21.6c-1.5,0.8-3,1.5-4.4,2.3l7.6,14.1
		c1.3-0.7,2.7-1.4,4.1-2.1L184.2,21.6L184.2,21.6z M175.4,26.4c-1.4,0.8-2.9,1.7-4.3,2.6l8.4,13.6c1.3-0.8,2.6-1.6,3.9-2.3
		L175.4,26.4L175.4,26.4z M166.9,31.6c-1.4,0.9-2.8,1.8-4.2,2.8l9.1,13.2c1.3-0.9,2.5-1.7,3.8-2.5L166.9,31.6L166.9,31.6z
		 M158.6,37.3c-1.3,1-2.7,2-4,3l9.7,12.7c1.2-0.9,2.4-1.8,3.7-2.7L158.6,37.3L158.6,37.3z M150.7,43.4c-1.3,1-2.6,2.1-3.8,3.2
		l10.4,12.2c1.2-1,2.3-2,3.5-2.9L150.7,43.4L150.7,43.4z M143.1,49.9c-1.2,1.1-2.5,2.2-3.7,3.4l11,11.6c1.1-1,2.2-2.1,3.4-3.1
		L143.1,49.9L143.1,49.9z M135.9,56.8c-1.2,1.2-2.3,2.4-3.5,3.6l11.6,11c1-1.1,2.1-2.2,3.2-3.3L135.9,56.8L135.9,56.8z M129,64
		c-1.1,1.2-2.2,2.5-3.3,3.8l12.2,10.4c1-1.2,2-2.3,3-3.4L129,64L129,64z M122.5,71.6c-1,1.3-2.1,2.6-3.1,3.9l12.7,9.8
		c0.9-1.2,1.9-2.4,2.8-3.6L122.5,71.6L122.5,71.6z M116.4,79.6c-1,1.3-1.9,2.7-2.9,4.1l13.2,9.1c0.9-1.3,1.8-2.5,2.6-3.7L116.4,79.6
		L116.4,79.6z M110.7,87.8c-0.9,1.4-1.8,2.8-2.7,4.2l13.6,8.4c0.8-1.3,1.6-2.6,2.4-3.9L110.7,87.8L110.7,87.8z M105.5,96.3
		c-0.8,1.4-1.7,2.9-2.4,4.4l14.1,7.6c0.7-1.3,1.5-2.7,2.2-4L105.5,96.3L105.5,96.3z M100.7,105.1c-0.8,1.5-1.5,3-2.2,4.5l14.4,6.9
		c0.7-1.4,1.3-2.8,2-4.1L100.7,105.1L100.7,105.1z M96.4,114.1c-0.7,1.5-1.3,3.1-2,4.6l14.8,6.1c0.6-1.4,1.2-2.8,1.8-4.2L96.4,114.1
		L96.4,114.1z M92.5,123.3c-0.6,1.6-1.2,3.1-1.7,4.7l15.1,5.3c0.5-1.4,1-2.9,1.6-4.3L92.5,123.3L92.5,123.3z M89.2,132.8
		c-0.5,1.6-1,3.2-1.5,4.8l15.3,4.5c0.4-1.5,0.9-2.9,1.4-4.4L89.2,132.8L89.2,132.8z M86.4,142.4c-0.4,1.6-0.8,3.2-1.2,4.8l15.6,3.7
		c0.4-1.5,0.7-3,1.1-4.4L86.4,142.4L86.4,142.4z M84,152.1c-0.3,1.6-0.7,3.3-1,4.9l15.7,2.9c0.3-1.5,0.6-3,0.9-4.5L84,152.1
		L84,152.1z M82.2,161.9c-0.3,1.6-0.5,3.3-0.7,4.9l15.9,2.1c0.2-1.5,0.4-3,0.7-4.5L82.2,161.9L82.2,161.9z M80.9,171.8
		c-0.2,1.7-0.3,3.3-0.5,5l16,1.2c0.1-1.5,0.3-3.1,0.4-4.6L80.9,171.8L80.9,171.8z M80.2,181.8c-0.1,1.7-0.2,3.3-0.2,5l16,0.4
		c0-1.5,0.1-3.1,0.2-4.6L80.2,181.8L80.2,181.8z M79.9,191.8C79.9,191.8,79.9,191.8,79.9,191.8L79.9,191.8c0,1.7,0,3.4,0.1,5l16-0.4
		c0-1.5-0.1-3.1-0.1-4.6L79.9,191.8L79.9,191.8z M96.1,201l-16,0.8c0.1,1.7,0.2,3.3,0.3,5l16-1.2C96.3,204,96.2,202.5,96.1,201
		L96.1,201z M96.8,210.1l-15.9,1.6c0.2,1.7,0.4,3.3,0.6,5l15.9-2.1C97.2,213.2,97,211.6,96.8,210.1L96.8,210.1z M98,219.2l-15.8,2.5
		c0.3,1.7,0.5,3.3,0.8,4.9l15.7-2.9C98.5,222.2,98.3,220.7,98,219.2L98,219.2z M99.7,228.2L84,231.5c0.3,1.6,0.7,3.3,1.1,4.9
		l15.6-3.7C100.3,231.2,100,229.7,99.7,228.2L99.7,228.2z M101.8,237.1l-15.5,4.1c0.4,1.6,0.9,3.2,1.4,4.8l15.3-4.5
		C102.6,240.1,102.2,238.6,101.8,237.1L101.8,237.1z M104.4,245.9l-15.2,4.9c0.5,1.6,1,3.2,1.6,4.7l15.1-5.3
		C105.4,248.8,104.9,247.3,104.4,245.9L104.4,245.9z M107.4,254.5l-14.9,5.7c0.6,1.6,1.2,3.1,1.9,4.6l14.8-6.1
		C108.6,257.4,108,255.9,107.4,254.5L107.4,254.5z M110.9,263l-14.6,6.5c0.7,1.5,1.4,3,2.1,4.5l14.4-6.9
		C112.2,265.8,111.6,264.4,110.9,263L110.9,263z M114.9,271.2l-14.3,7.3c0.8,1.5,1.5,3,2.3,4.4l14.1-7.6
		C116.3,274,115.6,272.6,114.9,271.2L114.9,271.2z M119.3,279.3l-13.9,8c0.8,1.4,1.7,2.9,2.6,4.3l13.6-8.4
		C120.8,281.9,120,280.6,119.3,279.3L119.3,279.3z M124.1,287.1l-13.4,8.7c0.9,1.4,1.8,2.8,2.8,4.2l13.2-9.1
		C125.7,289.7,124.9,288.4,124.1,287.1L124.1,287.1z M129.3,294.7l-12.9,9.4c1,1.3,2,2.7,3,4l12.7-9.7
		C131.1,297.1,130.1,295.9,129.3,294.7L129.3,294.7z M134.8,301.9L122.4,312c1,1.3,2.1,2.6,3.2,3.8l12.2-10.4
		C136.8,304.3,135.8,303.1,134.8,301.9L134.8,301.9z M140.8,308.9l-11.9,10.7c1.1,1.2,2.2,2.5,3.4,3.7l11.6-11
		C142.8,311.2,141.8,310,140.8,308.9L140.8,308.9z M147.1,315.5l-11.3,11.3c1.2,1.2,2.4,2.3,3.6,3.5l11-11.6
		C149.3,317.7,148.2,316.6,147.1,315.5L147.1,315.5z M153.7,321.9L143,333.7c1.2,1.1,2.5,2.2,3.8,3.3l10.4-12.2
		C156,323.9,154.9,322.9,153.7,321.9L153.7,321.9z M160.7,327.8l-10.1,12.4c1.3,1.1,2.6,2.1,3.9,3.1l9.8-12.7
		C163.1,329.7,161.9,328.8,160.7,327.8L160.7,327.8z M168,333.4l-9.4,12.9c1.3,1,2.7,1.9,4.1,2.9l9.1-13.2
		C170.5,335.2,169.2,334.3,168,333.4L168,333.4z M175.5,338.6l-8.7,13.4c1.4,0.9,2.8,1.8,4.2,2.7l8.4-13.6
		C178.1,340.3,176.8,339.4,175.5,338.6L175.5,338.6z M183.3,343.4l-8,13.8c1.4,0.8,2.9,1.7,4.4,2.4l7.7-14.1
		C186,344.9,184.6,344.2,183.3,343.4L183.3,343.4z M191.4,347.8l-7.3,14.2c1.5,0.8,3,1.5,4.5,2.2l6.9-14.4
		C194.1,349.2,192.7,348.5,191.4,347.8L191.4,347.8z M199.6,351.7l-6.5,14.6c1.5,0.7,3.1,1.3,4.6,2l6.1-14.8
		C202.4,353,201,352.4,199.6,351.7L199.6,351.7z M208.1,355.2l-5.7,14.9c1.6,0.6,3.1,1.2,4.7,1.7l5.3-15.1
		C210.9,356.3,209.5,355.8,208.1,355.2L208.1,355.2z M216.7,358.3l-4.9,15.2c1.6,0.5,3.2,1,4.8,1.5l4.5-15.3
		C219.6,359.2,218.1,358.8,216.7,358.3L216.7,358.3z M225.5,360.9l-4.1,15.5c1.6,0.4,3.2,0.8,4.8,1.2l3.7-15.6
		C228.4,361.7,226.9,361.3,225.5,360.9L225.5,360.9z M234.4,363l-3.3,15.7c1.6,0.3,3.3,0.7,4.9,1l2.9-15.7
		C237.4,363.7,235.9,363.4,234.4,363L234.4,363z M243.4,364.7l-2.5,15.8c1.6,0.3,3.3,0.5,4.9,0.7l2.1-15.9
		C246.4,365.2,244.9,364.9,243.4,364.7L243.4,364.7z M252.5,365.9l-1.7,15.9c1.7,0.2,3.3,0.3,5,0.5l1.2-16
		C255.5,366.2,254,366.1,252.5,365.9L252.5,365.9z M261.6,366.6l-0.8,16c1.7,0.1,3.3,0.2,5,0.2l0.4-16
		C264.7,366.8,263.1,366.7,261.6,366.6L261.6,366.6z M275.4,366.8c-1.5,0-3.1,0.1-4.6,0.1l0,16c0,0,0.1,0,0.1,0c1.6,0,3.3,0,4.9-0.1
		L275.4,366.8L275.4,366.8z M284.5,366.3c-1.5,0.1-3.1,0.2-4.6,0.3l0.8,16c1.7-0.1,3.3-0.2,5-0.3L284.5,366.3L284.5,366.3z
		 M293.7,365.4c-1.5,0.2-3,0.4-4.6,0.5l1.6,15.9c1.7-0.2,3.3-0.4,5-0.6L293.7,365.4L293.7,365.4z M302.7,364c-1.5,0.3-3,0.5-4.5,0.8
		l2.5,15.8c1.6-0.3,3.3-0.5,4.9-0.8L302.7,364L302.7,364z M311.7,362.1c-1.5,0.4-3,0.7-4.5,1l3.3,15.7c1.6-0.3,3.3-0.7,4.9-1.1
		L311.7,362.1L311.7,362.1z M320.5,359.7c-1.5,0.4-2.9,0.8-4.4,1.2l4.1,15.5c1.6-0.4,3.2-0.9,4.8-1.4L320.5,359.7L320.5,359.7z
		 M329.2,356.9c-1.4,0.5-2.9,1-4.3,1.5l4.9,15.2c1.6-0.5,3.2-1,4.7-1.6L329.2,356.9L329.2,356.9z M337.8,353.6
		c-1.4,0.6-2.8,1.2-4.3,1.7l5.7,14.9c1.6-0.6,3.1-1.2,4.6-1.9L337.8,353.6L337.8,353.6z M346.1,349.9c-1.4,0.7-2.8,1.3-4.2,1.9
		l6.5,14.6c1.5-0.7,3-1.4,4.5-2.1L346.1,349.9L346.1,349.9z M354.3,345.7c-1.3,0.7-2.7,1.4-4.1,2.1l7.3,14.3c1.5-0.8,3-1.5,4.4-2.3
		L354.3,345.7L354.3,345.7z M362.2,341.2c-1.3,0.8-2.6,1.6-3.9,2.3l8,13.9c1.4-0.8,2.9-1.7,4.3-2.6L362.2,341.2L362.2,341.2z
		 M369.9,336.2c-1.3,0.9-2.5,1.7-3.8,2.5l8.7,13.4c1.4-0.9,2.8-1.8,4.2-2.8L369.9,336.2L369.9,336.2z M377.3,330.8
		c-1.2,0.9-2.4,1.8-3.7,2.7l9.4,12.9c1.3-1,2.7-2,4-3L377.3,330.8L377.3,330.8z M384.4,325c-1.2,1-2.3,2-3.5,2.9l10.1,12.4
		c1.3-1,2.6-2.1,3.8-3.2L384.4,325L384.4,325z M391.3,318.9c-1.1,1-2.2,2.1-3.4,3.1l10.7,11.9c1.2-1.1,2.5-2.2,3.7-3.4L391.3,318.9
		L391.3,318.9z M397.7,312.4c-1,1.1-2.1,2.2-3.2,3.3l11.3,11.3c1.2-1.2,2.3-2.4,3.5-3.6L397.7,312.4L397.7,312.4z M403.9,305.6
		c-1,1.2-2,2.3-3,3.4l11.9,10.7c1.1-1.2,2.2-2.5,3.3-3.8L403.9,305.6L403.9,305.6z M409.7,298.5c-0.9,1.2-1.9,2.4-2.8,3.6l12.4,10.1
		c1.1-1.3,2.1-2.6,3.1-3.9L409.7,298.5L409.7,298.5z M415.1,291.1c-0.9,1.3-1.8,2.5-2.7,3.7l12.9,9.4c1-1.3,1.9-2.7,2.9-4.1
		L415.1,291.1L415.1,291.1z M420.1,283.4c-0.8,1.3-1.6,2.6-2.5,3.9L431,296c0.9-1.4,1.8-2.8,2.7-4.2L420.1,283.4L420.1,283.4z
		 M424.7,275.5c-0.7,1.3-1.5,2.7-2.2,4l13.8,8c0.8-1.4,1.7-2.9,2.5-4.4L424.7,275.5L424.7,275.5z M428.8,267.3
		c-0.7,1.4-1.3,2.8-2,4.1l14.2,7.3c0.8-1.5,1.5-3,2.2-4.5L428.8,267.3L428.8,267.3z M432.6,259c-0.6,1.4-1.2,2.8-1.8,4.2l14.6,6.5
		c0.7-1.5,1.3-3.1,2-4.6L432.6,259L432.6,259z M435.9,250.4c-0.5,1.4-1,2.9-1.6,4.3l14.9,5.7c0.6-1.6,1.2-3.1,1.7-4.7L435.9,250.4
		L435.9,250.4z M438.7,241.7c-0.4,1.5-0.9,2.9-1.4,4.4l15.2,5c0.5-1.6,1-3.2,1.5-4.8L438.7,241.7L438.7,241.7z M441.1,232.9
		c-0.4,1.5-0.7,3-1.1,4.4l15.5,4.1c0.4-1.6,0.8-3.2,1.2-4.8L441.1,232.9L441.1,232.9z M443,223.9c-0.3,1.5-0.6,3-0.9,4.5l15.7,3.3
		c0.3-1.6,0.7-3.3,1-4.9L443,223.9L443,223.9z M444.4,214.9c-0.2,1.5-0.4,3-0.7,4.5l15.8,2.5c0.3-1.6,0.5-3.3,0.7-4.9L444.4,214.9
		L444.4,214.9z M445.3,205.8c-0.1,1.5-0.3,3.1-0.4,4.6l15.9,1.7c0.2-1.7,0.3-3.3,0.5-5L445.3,205.8L445.3,205.8z M445.8,196.6
		c0,1.5-0.1,3.1-0.2,4.6l16,0.8c0.1-1.7,0.2-3.3,0.2-5L445.8,196.6L445.8,196.6z M461.8,187l-16,0.4c0,1.5,0.1,3.1,0.1,4.6l16,0
		c0-0.1,0-0.1,0-0.2l0,0C461.9,190.2,461.9,188.6,461.8,187L461.8,187z M461.3,177l-16,1.2c0.1,1.5,0.2,3.1,0.3,4.6l16-0.8
		C461.6,180.4,461.5,178.7,461.3,177L461.3,177z M460.3,167.1l-15.9,2.1c0.2,1.5,0.4,3,0.5,4.6l15.9-1.6
		C460.7,170.4,460.5,168.7,460.3,167.1L460.3,167.1z M458.8,157.2l-15.7,2.9c0.3,1.5,0.5,3,0.8,4.5l15.8-2.5
		C459.3,160.5,459.1,158.9,458.8,157.2L458.8,157.2z M456.7,147.4l-15.6,3.7c0.4,1.5,0.7,3,1,4.5l15.7-3.3
		C457.4,150.7,457.1,149,456.7,147.4L456.7,147.4z M454.1,137.8l-15.3,4.5c0.4,1.5,0.8,2.9,1.2,4.4l15.5-4.1
		C455,141,454.6,139.4,454.1,137.8L454.1,137.8z M451,128.3l-15.1,5.3c0.5,1.4,1,2.9,1.5,4.3l15.2-4.9
		C452.1,131.4,451.6,129.8,451,128.3L451,128.3z M447.5,118.9l-14.8,6.1c0.6,1.4,1.2,2.8,1.7,4.3l14.9-5.7
		C448.7,122,448.1,120.5,447.5,118.9L447.5,118.9z M443.4,109.8l-14.4,6.9c0.7,1.4,1.3,2.8,1.9,4.2l14.6-6.5
		C444.8,112.8,444.1,111.3,443.4,109.8L443.4,109.8z M438.9,100.9l-14.1,7.6c0.7,1.3,1.4,2.7,2.1,4.1l14.3-7.3
		C440.4,103.8,439.7,102.3,438.9,100.9L438.9,100.9z M433.9,92.2l-13.6,8.4c0.8,1.3,1.6,2.6,2.3,3.9l13.9-8
		C435.6,95.1,434.7,93.6,433.9,92.2L433.9,92.2z M428.4,83.8l-13.2,9.1c0.9,1.3,1.7,2.5,2.5,3.8l13.4-8.7
		C430.3,86.6,429.4,85.2,428.4,83.8L428.4,83.8z M422.6,75.7l-12.7,9.7c0.9,1.2,1.8,2.4,2.7,3.7l12.9-9.4
		C424.6,78.4,423.6,77.1,422.6,75.7z M416.3,68l-12.2,10.4c1,1.2,2,2.3,2.9,3.5l12.4-10.1C418.4,70.5,417.3,69.2,416.3,68L416.3,68z
		 M409.6,60.5l-11.6,11c1,1.1,2.1,2.2,3.1,3.4L413,64.2C411.9,63,410.7,61.7,409.6,60.5L409.6,60.5z M402.5,53.4l-11,11.6
		c1.1,1,2.2,2.1,3.3,3.2l11.3-11.3C404.9,55.8,403.7,54.6,402.5,53.4L402.5,53.4z M395.1,46.7l-10.4,12.2c1.2,1,2.3,2,3.4,3
		L398.8,50C397.6,48.9,396.4,47.8,395.1,46.7L395.1,46.7z M387.3,40.4l-9.8,12.7c1.2,0.9,2.4,1.9,3.6,2.8l10.1-12.4
		C390,42.5,388.7,41.5,387.3,40.4L387.3,40.4z M379.3,34.5l-9.1,13.2c1.3,0.9,2.5,1.8,3.7,2.7l9.4-12.9
		C382,36.5,380.6,35.5,379.3,34.5z M370.9,29.1l-8.4,13.6c1.3,0.8,2.6,1.6,3.9,2.5l8.7-13.4C373.7,30.8,372.3,30,370.9,29.1
		L370.9,29.1z M362.2,24.1l-7.7,14c1.3,0.7,2.7,1.5,4,2.2l8-13.8C365.1,25.7,363.7,24.9,362.2,24.1L362.2,24.1z M353.3,19.5
		l-6.9,14.4c1.4,0.7,2.8,1.3,4.1,2l7.3-14.2C356.3,21,354.8,20.2,353.3,19.5z M344.2,15.4l-6.1,14.8c1.4,0.6,2.8,1.2,4.2,1.8
		l6.5-14.6C347.3,16.7,345.7,16.1,344.2,15.4L344.2,15.4z M334.9,11.8l-5.4,15.1c1.4,0.5,2.9,1,4.3,1.6l5.8-14.9
		C338,13,336.4,12.4,334.9,11.8L334.9,11.8z M325.4,8.7l-4.6,15.3c1.5,0.4,2.9,0.9,4.4,1.4l5-15.2C328.6,9.7,327,9.2,325.4,8.7
		L325.4,8.7z M315.7,6.1L312,21.7c1.5,0.4,3,0.7,4.4,1.1l4.1-15.5C318.9,6.9,317.3,6.5,315.7,6.1L315.7,6.1z M305.9,4.1L303,19.8
		c1.5,0.3,3,0.6,4.5,0.9L310.8,5C309.2,4.7,307.6,4.4,305.9,4.1L305.9,4.1z M296.1,2.5L294,18.4c1.5,0.2,3,0.4,4.5,0.7L301,3.2
		C299.4,3,297.7,2.7,296.1,2.5L296.1,2.5z M286.1,1.5l-1.3,16c1.5,0.1,3.1,0.3,4.6,0.4l1.7-15.9C289.4,1.7,287.8,1.6,286.1,1.5
		L286.1,1.5z M276.1,0.9l-0.4,16c1.5,0,3.1,0.1,4.6,0.2l0.8-16C279.5,1,277.8,1,276.1,0.9L276.1,0.9z M270.9,0.9v16l0.2,0l0-16
		C271,0.9,271,0.9,270.9,0.9L270.9,0.9z"/>
</g>
<g>
	<path class="st7" d="M72,293c-1.7,0-3.3,0.1-5,0.2l1.1,16.3c1.3-0.1,2.6-0.1,3.9-0.1V293L72,293L72,293z M62,293.7
		c-1.7,0.2-3.3,0.5-4.9,0.9l3.4,16c1.3-0.3,2.5-0.5,3.8-0.7L62,293.7L62,293.7z M52.2,295.8c-1.6,0.5-3.2,1-4.8,1.5l5.6,15.3
		c1.2-0.4,2.4-0.8,3.7-1.2L52.2,295.8L52.2,295.8z M42.8,299.2c-1.5,0.7-3,1.4-4.5,2.2l7.7,14.4c1.1-0.6,2.3-1.2,3.5-1.7L42.8,299.2
		L42.8,299.2z M34,303.9c-1.4,0.9-2.8,1.8-4.1,2.8l9.6,13.2c1-0.8,2.1-1.5,3.2-2.2L34,303.9L34,303.9z M25.9,309.7
		c-1.3,1.1-2.5,2.2-3.7,3.3l11.3,11.8c0.9-0.9,1.9-1.8,2.9-2.6L25.9,309.7L25.9,309.7z M18.7,316.7c-1.1,1.2-2.2,2.5-3.2,3.8
		l12.8,10.1c0.8-1,1.6-2,2.5-3L18.7,316.7L18.7,316.7z M12.6,324.5c-0.9,1.4-1.8,2.8-2.7,4.2l14.1,8.2c0.6-1.1,1.3-2.2,2.1-3.3
		L12.6,324.5L12.6,324.5z M7.5,333.2c-0.7,1.5-1.4,3-2,4.6l15.1,6.1c0.5-1.2,1-2.4,1.6-3.5L7.5,333.2L7.5,333.2z M3.8,342.4
		c-0.5,1.6-1,3.2-1.4,4.8l15.8,4c0.3-1.2,0.7-2.5,1.1-3.7L3.8,342.4L3.8,342.4z M1.3,352.1c-0.3,1.6-0.5,3.3-0.7,4.9l16.2,1.7
		c0.1-1.3,0.3-2.6,0.5-3.8L1.3,352.1L1.3,352.1z M0.3,362c0,0.9,0,1.8,0,2.7l0,0c0,0.8,0,1.5,0,2.3l16.3-0.5c0-1.3,0-2.6,0-3.9
		L0.3,362L0.3,362z M16.8,370.4L0.6,372c0.2,1.7,0.4,3.3,0.7,5l16.1-2.8C17.1,373,17,371.7,16.8,370.4L16.8,370.4z M18.1,378
		l-15.8,3.9c0.4,1.6,0.9,3.2,1.4,4.8l15.5-5C18.8,380.5,18.4,379.2,18.1,378L18.1,378z M20.5,385.3l-15.1,6.1c0.6,1.5,1.3,3.1,2,4.6
		l14.7-7.1C21.5,387.7,21,386.5,20.5,385.3L20.5,385.3z M23.9,392.3l-14.2,8.1c0.8,1.4,1.7,2.9,2.6,4.2l13.6-9.1
		C25.2,394.5,24.5,393.4,23.9,392.3L23.9,392.3z M28.2,398.7l-12.9,10c1,1.3,2.1,2.6,3.2,3.8l12.2-10.9
		C29.8,400.7,28.9,399.7,28.2,398.7L28.2,398.7z M33.3,404.4l-11.4,11.7c1.2,1.2,2.4,2.3,3.7,3.4L36.2,407
		C35.2,406.2,34.2,405.3,33.3,404.4L33.3,404.4z M39.2,409.4l-9.7,13.2c1.3,1,2.7,1.9,4.1,2.8l8.7-13.8
		C41.3,410.9,40.2,410.2,39.2,409.4L39.2,409.4z M45.7,413.6L38,427.9c1.5,0.8,3,1.5,4.5,2.2l6.7-14.9
		C48,414.7,46.9,414.2,45.7,413.6L45.7,413.6z M52.8,416.7L47.1,432c1.6,0.6,3.1,1.1,4.7,1.6l4.6-15.7
		C55.2,417.6,54,417.2,52.8,416.7L52.8,416.7z M60.2,418.9l-3.5,15.9c1.6,0.4,3.3,0.6,4.9,0.9l2.3-16.2
		C62.7,419.4,61.4,419.2,60.2,418.9L60.2,418.9z M67.8,420l-1.2,16.3c1.7,0.1,3.3,0.2,5,0.2l0.1-16.3
		C70.4,420.1,69.1,420.1,67.8,420L67.8,420z M79.4,419.7c-1.3,0.2-2.6,0.3-3.8,0.4l1,16.3c1.1-0.1,2.3-0.2,3.4-0.3
		c0.5-0.1,1-0.1,1.6-0.2L79.4,419.7L79.4,419.7z M86.9,418.1c-1.2,0.3-2.5,0.6-3.7,0.9l3.3,16c1.6-0.3,3.3-0.7,4.9-1.2L86.9,418.1
		L86.9,418.1z M94.2,415.5c-1.2,0.5-2.4,1-3.6,1.4l5.5,15.4c1.6-0.6,3.1-1.2,4.6-1.8L94.2,415.5L94.2,415.5z M101,411.9
		c-1.1,0.7-2.2,1.3-3.4,1.9l7.6,14.4c1.2-0.7,2.5-1.3,3.7-2.1c0.2-0.1,0.4-0.3,0.7-0.4L101,411.9L101,411.9z M107.3,407.4
		c-1,0.8-2,1.6-3.1,2.4l9.5,13.3c1.4-1,2.7-2,4-3.1L107.3,407.4L107.3,407.4z M112.9,402.1c-0.9,0.9-1.8,1.9-2.7,2.8l11.3,11.8
		c1.2-1.1,2.4-2.3,3.5-3.6L112.9,402.1L112.9,402.1z M117.7,396c-0.7,1.1-1.5,2.1-2.3,3.1l12.8,10.1c1-1.3,2-2.6,3-4L117.7,396
		L117.7,396z M121.6,389.4c-0.6,1.1-1.2,2.3-1.8,3.4l14.1,8.3c0.8-1.4,1.6-2.9,2.4-4.4L121.6,389.4L121.6,389.4z M124.6,382.3
		c-0.4,1.2-0.9,2.4-1.3,3.6l15.1,6.2c0.6-1.5,1.2-3.1,1.7-4.7L124.6,382.3L124.6,382.3z M126.5,374.8c-0.2,1.3-0.5,2.5-0.8,3.8
		l15.8,4.1c0.4-1.6,0.8-3.2,1.1-4.9L126.5,374.8L126.5,374.8z M127.3,367.1c-0.1,1.3-0.2,2.6-0.3,3.9l16.2,1.8
		c0.2-1.7,0.3-3.3,0.4-5L127.3,367.1L127.3,367.1z M143.4,357.8l-16.2,1.6c0.1,1.3,0.2,2.6,0.2,3.9l16.3-0.4
		C143.6,361.2,143.5,359.5,143.4,357.8L143.4,357.8z M141.7,348l-15.9,3.8c0.3,1.2,0.6,2.5,0.8,3.8l16.1-2.7
		C142.5,351.2,142.1,349.6,141.7,348L141.7,348z M138.7,338.4l-15.2,6c0.5,1.2,0.9,2.4,1.3,3.6l15.6-4.9
		C139.9,341.6,139.3,340,138.7,338.4L138.7,338.4z M134.4,329.4l-14.2,8c0.6,1.1,1.2,2.3,1.8,3.4l14.7-7
		C136,332.4,135.3,330.9,134.4,329.4L134.4,329.4z M128.9,321.1L116,331c0.8,1,1.5,2.1,2.2,3.1l13.6-9
		C130.9,323.8,129.9,322.4,128.9,321.1L128.9,321.1z M122.3,313.6l-11.4,11.6c0.9,0.9,1.8,1.8,2.7,2.8l12.2-10.8
		C124.6,316,123.5,314.8,122.3,313.6z M114.7,307.1l-9.7,13.1c1,0.8,2,1.6,3,2.4l10.6-12.4c-1-0.9-2.1-1.8-3.2-2.6
		C115.2,307.5,114.9,307.3,114.7,307.1L114.7,307.1z M106.3,301.7L98.5,316c1.1,0.6,2.2,1.3,3.3,2l8.8-13.7
		C109.2,303.4,107.8,302.5,106.3,301.7L106.3,301.7z M97.2,297.6l-5.7,15.3c1.2,0.5,2.4,0.9,3.6,1.5l6.8-14.8
		C100.3,298.8,98.8,298.1,97.2,297.6L97.2,297.6z M87.6,294.7l-3.5,15.9c1.2,0.3,2.5,0.6,3.7,1l4.7-15.6
		C90.9,295.5,89.3,295.1,87.6,294.7L87.6,294.7z M77.7,293.2l-1.3,16.3c1.3,0.1,2.6,0.3,3.8,0.4l2.4-16.1
		C81.1,293.6,79.4,293.4,77.7,293.2L77.7,293.2z M72,293v16.3c0.2,0,0.4,0,0.6,0l0.2-16.3C72.5,293,72.2,293,72,293L72,293z"/>
</g>
<g>
	<path class="st7" d="M447.5,322.5c-1.4,0-2.9,0-4.3,0.1l0.7,16.3c1.2,0,2.4-0.1,3.6-0.1V322.5L447.5,322.5L447.5,322.5z
		 M438.9,322.9c-1.4,0.1-2.9,0.3-4.3,0.4l2,16.2c1.2-0.1,2.4-0.3,3.6-0.4L438.9,322.9L438.9,322.9z M430.4,323.9
		c-1.4,0.2-2.8,0.5-4.2,0.8l3.4,16c1.2-0.2,2.4-0.5,3.6-0.7L430.4,323.9L430.4,323.9z M422,325.7c-1.4,0.4-2.8,0.7-4.1,1.2l4.7,15.6
		c1.1-0.3,2.3-0.7,3.5-1L422,325.7L422,325.7z M413.7,328.2c-1.4,0.5-2.7,1-4,1.5l6,15.2c1.1-0.4,2.3-0.9,3.4-1.3L413.7,328.2
		L413.7,328.2z M405.7,331.4c-1.3,0.6-2.6,1.2-3.9,1.8l7.3,14.6c1.1-0.5,2.2-1.1,3.3-1.5L405.7,331.4L405.7,331.4z M398,335.2
		c-1.3,0.7-2.5,1.4-3.7,2.2l8.5,14c1-0.6,2.1-1.2,3.1-1.8L398,335.2L398,335.2z M390.7,339.7c-1.2,0.8-2.4,1.6-3.5,2.5l9.6,13.2
		c1-0.7,2-1.4,3-2.1L390.7,339.7L390.7,339.7z M383.7,344.7c-1.1,0.9-2.2,1.8-3.3,2.7l10.7,12.4c0.9-0.8,1.8-1.6,2.8-2.3
		L383.7,344.7L383.7,344.7z M377.2,350.3c-1,1-2.1,2-3.1,3l11.6,11.4c0.8-0.9,1.7-1.7,2.6-2.5L377.2,350.3L377.2,350.3z
		 M371.2,356.5c-1,1.1-1.9,2.1-2.8,3.3l12.6,10.4c0.8-0.9,1.6-1.8,2.4-2.7L371.2,356.5L371.2,356.5z M365.7,363.1
		c-0.9,1.1-1.7,2.3-2.5,3.5l13.4,9.3c0.7-1,1.4-2,2.1-2.9L365.7,363.1L365.7,363.1z M360.8,370.1c-0.8,1.2-1.5,2.4-2.2,3.7l14.1,8.2
		c0.6-1,1.2-2.1,1.9-3.1L360.8,370.1L360.8,370.1z M356.5,377.6c-0.7,1.3-1.3,2.6-1.9,3.8l14.8,7c0.5-1.1,1.1-2.2,1.6-3.2
		L356.5,377.6L356.5,377.6z M352.8,385.3c-0.6,1.3-1.1,2.7-1.6,4l15.3,5.7c0.4-1.1,0.9-2.3,1.3-3.4L352.8,385.3L352.8,385.3z
		 M349.8,393.4c-0.4,1.4-0.9,2.7-1.2,4.1l15.7,4.4c0.3-1.2,0.7-2.3,1-3.5L349.8,393.4L349.8,393.4z M347.5,401.7
		c-0.3,1.4-0.6,2.8-0.9,4.2l16,3.1c0.2-1.2,0.5-2.4,0.8-3.5L347.5,401.7L347.5,401.7z M345.9,410.1c-0.2,1.4-0.4,2.8-0.5,4.3
		l16.2,1.7c0.1-1.2,0.3-2.4,0.5-3.6L345.9,410.1L345.9,410.1z M345,418.7c-0.1,1.4-0.2,2.9-0.2,4.3l16.3,0.4c0-1.2,0.1-2.4,0.2-3.6
		L345,418.7L345,418.7z M361.1,427l-16.3,0.3c0,1.4,0.1,2.9,0.2,4.3l16.3-1C361.2,429.4,361.1,428.2,361.1,427L361.1,427z
		 M361.5,434.2l-16.2,1.7c0.1,1.4,0.3,2.8,0.5,4.3l16.1-2.3C361.8,436.6,361.7,435.4,361.5,434.2L361.5,434.2z M362.6,441.3l-16,3
		c0.3,1.4,0.6,2.8,0.9,4.2l15.9-3.7C363,443.7,362.8,442.5,362.6,441.3L362.6,441.3z M364.2,448.4l-15.7,4.4
		c0.4,1.4,0.8,2.8,1.2,4.1l15.5-5C364.9,450.7,364.5,449.5,364.2,448.4L364.2,448.4z M366.4,455.3l-15.3,5.7c0.5,1.3,1,2.7,1.6,4
		l15.1-6.3C367.3,457.5,366.8,456.4,366.4,455.3L366.4,455.3z M369.2,461.9l-14.8,6.9c0.6,1.3,1.2,2.6,1.9,3.9l14.5-7.5
		C370.3,464.1,369.7,463,369.2,461.9L369.2,461.9z M372.6,468.3l-14.1,8.1c0.7,1.2,1.5,2.5,2.2,3.7l13.8-8.7
		C373.8,470.4,373.2,469.4,372.6,468.3L372.6,468.3z M376.4,474.4l-13.4,9.3c0.8,1.2,1.7,2.3,2.5,3.5l13-9.8
		C377.8,476.4,377.1,475.4,376.4,474.4L376.4,474.4z M380.8,480.2l-12.6,10.4c0.9,1.1,1.8,2.2,2.8,3.3l12.1-10.9
		C382.4,482.1,381.6,481.1,380.8,480.2L380.8,480.2z M385.6,485.6L373.9,497c1,1,2,2,3.1,3l11.2-11.9
		C387.3,487.3,386.5,486.5,385.6,485.6L385.6,485.6z M390.9,490.6l-10.7,12.3c1.1,0.9,2.2,1.9,3.3,2.7l10.2-12.8
		C392.7,492.1,391.8,491.4,390.9,490.6L390.9,490.6z M396.6,495.1l-9.6,13.2c1.2,0.8,2.3,1.7,3.5,2.5l9.1-13.6
		C398.5,496.5,397.5,495.8,396.6,495.1L396.6,495.1z M402.6,499.1l-8.5,13.9c1.2,0.7,2.5,1.5,3.7,2.2l7.9-14.3
		C404.6,500.3,403.6,499.7,402.6,499.1L402.6,499.1z M408.9,502.6l-7.3,14.6c1.3,0.6,2.6,1.3,3.9,1.8l6.7-14.9
		C411.1,503.7,410,503.1,408.9,502.6L408.9,502.6z M415.5,505.6l-6,15.2c1.3,0.5,2.7,1,4,1.5l5.4-15.4
		C417.7,506.4,416.6,506,415.5,505.6L415.5,505.6z M422.3,508l-4.8,15.6c1.4,0.4,2.8,0.8,4.1,1.2l4.1-15.8
		C424.6,508.6,423.4,508.3,422.3,508L422.3,508z M429.3,509.8l-3.4,16c1.4,0.3,2.8,0.6,4.2,0.8l2.7-16.1
		C431.7,510.2,430.5,510,429.3,509.8L429.3,509.8z M436.4,511l-2.1,16.2c1.4,0.2,2.8,0.3,4.3,0.5l1.4-16.3
		C438.8,511.3,437.6,511.1,436.4,511L436.4,511z M443.6,511.6l-0.7,16.3c1.4,0.1,2.9,0.1,4.3,0.1l0-16.3
		C446,511.7,444.8,511.6,443.6,511.6L443.6,511.6z M454.5,511.4c-1.2,0.1-2.4,0.2-3.6,0.2l0.6,16.3c1.4-0.1,2.9-0.1,4.3-0.3
		L454.5,511.4L454.5,511.4z M461.7,510.5c-1.2,0.2-2.4,0.4-3.6,0.5l2,16.2c1.4-0.2,2.8-0.4,4.3-0.6L461.7,510.5L461.7,510.5z
		 M468.8,509.1c-1.2,0.3-2.3,0.6-3.5,0.8l3.3,16c1.4-0.3,2.8-0.6,4.2-1L468.8,509.1L468.8,509.1z M475.7,507
		c-1.1,0.4-2.3,0.8-3.4,1.1l4.7,15.6c1.4-0.4,2.7-0.8,4.1-1.3L475.7,507L475.7,507z M482.4,504.4c-1.1,0.5-2.2,1-3.3,1.4l6,15.2
		c1.3-0.5,2.7-1.1,4-1.7L482.4,504.4L482.4,504.4z M488.9,501.2c-1.1,0.6-2.1,1.1-3.2,1.7l7.2,14.6c1.3-0.6,2.6-1.3,3.8-2
		L488.9,501.2L488.9,501.2z M495.1,497.4c-1,0.7-2,1.3-3.1,1.9l8.4,14c1.2-0.7,2.4-1.5,3.6-2.3L495.1,497.4L495.1,497.4z
		 M500.9,493.2c-0.9,0.7-1.9,1.5-2.9,2.2l9.6,13.2c1.2-0.8,2.3-1.7,3.4-2.6L500.9,493.2L500.9,493.2z M506.4,488.5
		c-0.9,0.8-1.8,1.6-2.7,2.4l10.6,12.4c1.1-0.9,2.2-1.9,3.2-2.9L506.4,488.5L506.4,488.5z M511.5,483.3c-0.8,0.9-1.6,1.8-2.5,2.6
		l11.6,11.5c1-1,2-2.1,3-3.1L511.5,483.3L511.5,483.3z M516.2,477.8c-0.7,1-1.5,1.9-2.3,2.8l12.5,10.5c0.9-1.1,1.8-2.2,2.7-3.4
		L516.2,477.8L516.2,477.8z M520.3,471.8c-0.6,1-1.3,2-2,3l13.4,9.4c0.8-1.2,1.6-2.4,2.4-3.6L520.3,471.8L520.3,471.8z M524,465.6
		c-0.6,1.1-1.2,2.1-1.8,3.2l14.1,8.2c0.7-1.2,1.4-2.5,2.1-3.8L524,465.6L524,465.6z M527.1,459.1c-0.5,1.1-1,2.2-1.5,3.3l14.7,7
		c0.6-1.3,1.2-2.6,1.8-3.9L527.1,459.1L527.1,459.1z M529.6,452.3c-0.4,1.1-0.8,2.3-1.2,3.4l15.3,5.8c0.5-1.3,1-2.7,1.4-4.1
		L529.6,452.3L529.6,452.3z M531.6,445.4c-0.3,1.2-0.6,2.3-0.9,3.5l15.7,4.4c0.4-1.4,0.8-2.8,1.1-4.2L531.6,445.4L531.6,445.4z
		 M532.9,438.3c-0.2,1.2-0.4,2.4-0.6,3.6l16,3.1c0.3-1.4,0.5-2.8,0.7-4.2L532.9,438.3L532.9,438.3z M533.7,431.1
		c-0.1,1.2-0.2,2.4-0.3,3.6l16.2,1.8c0.2-1.4,0.3-2.8,0.4-4.3L533.7,431.1L533.7,431.1z M550.2,423.5l-16.3,0.3c0,1.2,0,2.4,0,3.6
		l16.3,0.4c0-0.9,0-1.7,0-2.6l0,0c0-0.1,0-0.2,0-0.3l0,0C550.2,424.5,550.2,424,550.2,423.5L550.2,423.5z M549.7,415l-16.2,1.6
		c0.1,1.2,0.2,2.4,0.3,3.6l16.3-0.9C550,417.8,549.9,416.4,549.7,415L549.7,415z M548.5,406.5l-16,3c0.2,1.2,0.4,2.4,0.6,3.6
		l16.2-2.3C549,409.3,548.8,407.9,548.5,406.5L548.5,406.5z M546.6,398.1l-15.7,4.3c0.3,1.2,0.6,2.3,0.9,3.5l15.9-3.6
		C547.3,400.8,547,399.5,546.6,398.1L546.6,398.1z M544,389.9l-15.3,5.6c0.4,1.1,0.8,2.3,1.2,3.4l15.5-5
		C544.9,392.6,544.5,391.2,544,389.9L544,389.9z M540.7,381.9l-14.8,6.9c0.5,1.1,1,2.2,1.5,3.3l15.1-6.3
		C541.9,384.6,541.3,383.2,540.7,381.9L540.7,381.9z M536.7,374.3l-14.2,8.1c0.6,1,1.2,2.1,1.7,3.2l14.5-7.5
		C538.1,376.8,537.4,375.6,536.7,374.3L536.7,374.3z M532.2,367l-13.4,9.3c0.7,1,1.4,2,2,3l13.8-8.7
		C533.8,369.4,533,368.2,532.2,367z M527,360.2l-12.6,10.3c0.8,0.9,1.5,1.9,2.2,2.8l13-9.8C528.8,362.4,527.9,361.3,527,360.2z
		 M521.3,353.7l-11.7,11.4c0.8,0.9,1.7,1.8,2.5,2.7l12.2-10.9C523.2,355.8,522.3,354.8,521.3,353.7L521.3,353.7z M515,347.8
		l-10.7,12.3c0.9,0.8,1.8,1.6,2.7,2.4l11.2-11.8C517.2,349.7,516.1,348.8,515,347.8L515,347.8z M508.3,342.5l-9.7,13.1
		c1,0.7,1.9,1.5,2.9,2.2l10.2-12.7C510.6,344.2,509.5,343.3,508.3,342.5L508.3,342.5z M501.2,337.7l-8.5,13.9c1,0.6,2,1.3,3,2
		l9.1-13.5C503.6,339.2,502.4,338.4,501.2,337.7z M493.7,333.5l-7.3,14.6c1.1,0.5,2.1,1.1,3.2,1.7l7.9-14.3
		C496.2,334.8,495,334.1,493.7,333.5z M485.8,329.9l-6.1,15.1c1.1,0.4,2.2,0.9,3.3,1.4l6.7-14.9C488.5,331,487.2,330.5,485.8,329.9z
		 M477.7,327l-4.8,15.6c1.1,0.4,2.3,0.7,3.4,1.1l5.4-15.4C480.5,327.9,479.1,327.5,477.7,327L477.7,327z M469.4,324.9l-3.5,15.9
		c1.2,0.3,2.4,0.5,3.5,0.8l4.1-15.8C472.2,325.5,470.8,325.2,469.4,324.9L469.4,324.9z M460.9,323.4l-2.1,16.2
		c1.2,0.2,2.4,0.3,3.6,0.5l2.8-16.1C463.8,323.8,462.4,323.6,460.9,323.4L460.9,323.4z M452.4,322.6l-0.8,16.3
		c1.2,0.1,2.4,0.1,3.6,0.2l1.4-16.3C455.2,322.8,453.8,322.7,452.4,322.6L452.4,322.6z M447.5,322.5v16.3l0.5,0l0.1-16.3
		C447.9,322.5,447.7,322.5,447.5,322.5L447.5,322.5z"/>
</g>
<g>
	<path class="st7" d="M199.5,374c-1.7,0-3.3,0-5,0.1l0.9,16.3c1.4-0.1,2.7-0.1,4.1-0.1V374L199.5,374L199.5,374z M189.5,374.5
		c-1.7,0.2-3.3,0.4-5,0.7l2.7,16.1c1.3-0.2,2.7-0.4,4.1-0.6L189.5,374.5L189.5,374.5z M179.7,376.2c-1.6,0.4-3.2,0.8-4.8,1.2
		l4.4,15.7c1.3-0.4,2.6-0.7,4-1L179.7,376.2L179.7,376.2z M170,378.9c-1.6,0.5-3.1,1.1-4.7,1.8l6.1,15.1c1.3-0.5,2.5-1,3.8-1.4
		L170,378.9L170,378.9z M160.8,382.7c-1.5,0.7-3,1.5-4.5,2.3l7.8,14.3c1.2-0.6,2.4-1.3,3.7-1.9L160.8,382.7L160.8,382.7z M152,387.4
		c-1.4,0.9-2.8,1.8-4.2,2.7l9.3,13.4c1.1-0.8,2.3-1.5,3.4-2.2L152,387.4L152,387.4z M143.8,393.1c-1.3,1-2.6,2.1-3.9,3.2l10.7,12.3
		c1-0.9,2.1-1.8,3.2-2.6L143.8,393.1L143.8,393.1z M136.2,399.7c-1.2,1.2-2.4,2.4-3.5,3.6l12,11.1c0.9-1,1.9-2,2.9-2.9L136.2,399.7
		L136.2,399.7z M129.5,407c-1.1,1.3-2.1,2.6-3.1,3.9l13.1,9.7c0.8-1.1,1.7-2.2,2.5-3.2L129.5,407L129.5,407z M123.5,415.1
		c-0.9,1.4-1.8,2.8-2.6,4.3l14.1,8.2c0.7-1.2,1.4-2.4,2.2-3.5L123.5,415.1L123.5,415.1z M118.5,423.7c-0.8,1.5-1.5,3-2.1,4.5
		l14.9,6.6c0.5-1.2,1.1-2.5,1.8-3.7L118.5,423.7L118.5,423.7z M114.5,432.9c-0.6,1.6-1.1,3.1-1.6,4.7l15.6,4.9
		c0.4-1.3,0.9-2.6,1.3-3.9L114.5,432.9L114.5,432.9z M111.5,442.4c-0.4,1.6-0.8,3.2-1.1,4.9l16,3.1c0.3-1.3,0.6-2.7,0.9-4
		L111.5,442.4L111.5,442.4z M109.6,452.2c-0.2,1.6-0.4,3.3-0.5,5l16.3,1.3c0.1-1.4,0.3-2.7,0.4-4.1L109.6,452.2L109.6,452.2z
		 M108.8,462.2c0,0.8,0,1.7,0,2.5l0,0c0,0.8,0,1.6,0,2.5l16.3-0.4c0-1.4,0-2.7,0-4.1L108.8,462.2L108.8,462.2z M125.3,470.9
		l-16.3,1.3c0.1,1.7,0.3,3.3,0.5,5l16.2-2.2C125.6,473.6,125.4,472.2,125.3,470.9L125.3,470.9z M126.4,479l-16,3.1
		c0.3,1.6,0.7,3.3,1.1,4.9l15.8-4C127,481.7,126.7,480.3,126.4,479L126.4,479z M128.4,486.9l-15.6,4.9c0.5,1.6,1,3.2,1.6,4.7
		l15.3-5.7C129.3,489.5,128.8,488.2,128.4,486.9L128.4,486.9z M131.3,494.6l-14.9,6.6c0.7,1.5,1.4,3,2.1,4.5l14.6-7.4
		C132.4,497.1,131.9,495.8,131.3,494.6L131.3,494.6z M135,501.9l-14.1,8.2c0.8,1.4,1.7,2.9,2.6,4.3l13.7-8.9
		C136.4,504.2,135.7,503.1,135,501.9L135,501.9z M139.5,508.8l-13.1,9.7c1,1.3,2,2.7,3.1,3.9L142,512
		C141.1,510.9,140.3,509.9,139.5,508.8L139.5,508.8z M144.7,515.1l-12,11c1.1,1.2,2.3,2.4,3.5,3.6l11.4-11.7
		C146.6,517.1,145.6,516.1,144.7,515.1L144.7,515.1z M150.6,520.8l-10.7,12.3c1.3,1.1,2.5,2.2,3.9,3.2l10-12.9
		C152.7,522.6,151.6,521.7,150.6,520.8L150.6,520.8z M157.1,525.9l-9.3,13.4c1.4,1,2.8,1.9,4.2,2.7l8.6-13.9
		C159.3,527.4,158.2,526.7,157.1,525.9L157.1,525.9z M164,530.2l-7.8,14.3c1.5,0.8,3,1.6,4.5,2.3l7-14.7
		C166.5,531.5,165.2,530.8,164,530.2L164,530.2z M171.4,533.7l-6.2,15.1c1.5,0.6,3.1,1.2,4.7,1.8l5.3-15.4
		C174,534.7,172.7,534.2,171.4,533.7L171.4,533.7z M179.2,536.3l-4.4,15.7c1.6,0.5,3.2,0.9,4.8,1.2l3.6-15.9
		C181.8,537.1,180.5,536.7,179.2,536.3L179.2,536.3z M187.2,538.1l-2.7,16.1c1.6,0.3,3.3,0.5,5,0.7l1.8-16.2
		C189.9,538.5,188.5,538.4,187.2,538.1L187.2,538.1z M195.3,539l-0.9,16.3c1.7,0.1,3.3,0.1,5,0.1l0-16.3
		C198.1,539.2,196.7,539.1,195.3,539L195.3,539z M207.6,538.7c-1.4,0.1-2.7,0.3-4.1,0.3l0.9,16.3c1.7-0.1,3.3-0.2,5-0.4L207.6,538.7
		L207.6,538.7z M215.7,537.4c-1.3,0.3-2.7,0.6-4,0.8l2.7,16.1c1.6-0.3,3.3-0.6,4.9-0.9L215.7,537.4L215.7,537.4z M223.6,535.2
		c-1.3,0.4-2.6,0.8-3.9,1.2l4.4,15.7c1.6-0.5,3.2-0.9,4.8-1.5L223.6,535.2L223.6,535.2z M231.2,532.1c-1.2,0.6-2.5,1.1-3.8,1.6
		l6.1,15.1c1.5-0.6,3.1-1.3,4.6-2L231.2,532.1L231.2,532.1z M238.4,528.2c-1.2,0.7-2.4,1.4-3.6,2l7.8,14.4c1.5-0.8,2.9-1.6,4.3-2.5
		L238.4,528.2L238.4,528.2z M245.1,523.5c-1.1,0.8-2.2,1.7-3.3,2.4l9.3,13.4c1.4-1,2.7-1.9,4-3L245.1,523.5L245.1,523.5z
		 M251.3,518.1c-1,0.9-2,1.9-3,2.8l10.7,12.3c1.3-1.1,2.5-2.2,3.7-3.4L251.3,518.1L251.3,518.1z M256.9,512.1
		c-0.9,1.1-1.8,2.1-2.7,3.1l12,11.1c1.1-1.2,2.2-2.5,3.3-3.8L256.9,512.1L256.9,512.1z M261.8,505.5c-0.7,1.1-1.5,2.3-2.3,3.4
		l13.1,9.7c1-1.3,1.9-2.7,2.9-4.1L261.8,505.5L261.8,505.5z M265.9,498.4c-0.6,1.2-1.3,2.4-2,3.6l14.1,8.2c0.8-1.4,1.6-2.9,2.4-4.4
		L265.9,498.4L265.9,498.4z M269.2,490.9c-0.5,1.3-1,2.5-1.5,3.8l14.9,6.6c0.7-1.5,1.3-3.1,1.9-4.6L269.2,490.9L269.2,490.9z
		 M271.6,483.1c-0.3,1.3-0.7,2.6-1.1,3.9l15.6,4.9c0.5-1.6,1-3.2,1.4-4.8L271.6,483.1L271.6,483.1z M273.2,475.1
		c-0.2,1.3-0.4,2.7-0.7,4l16,3.1c0.3-1.6,0.6-3.3,0.8-4.9L273.2,475.1L273.2,475.1z M273.9,466.9c0,1.4-0.1,2.7-0.2,4.1l16.3,1.4
		c0.1-1.7,0.2-3.3,0.3-5L273.9,466.9L273.9,466.9z M289.9,457.4l-16.3,1.3c0.1,1.4,0.2,2.7,0.2,4.1l16.3-0.4
		C290.2,460.7,290.1,459,289.9,457.4L289.9,457.4z M288.6,447.5l-16,3.1c0.3,1.3,0.5,2.7,0.7,4l16.2-2.2
		C289.2,450.8,288.9,449.1,288.6,447.5z M286.2,437.8l-15.6,4.8c0.4,1.3,0.8,2.6,1.1,3.9l15.8-4C287.1,441,286.7,439.4,286.2,437.8z
		 M282.7,428.4l-15,6.5c0.5,1.2,1.1,2.5,1.5,3.8l15.3-5.7C284,431.5,283.3,429.9,282.7,428.4L282.7,428.4z M278.2,419.5l-14.1,8.1
		c0.7,1.2,1.3,2.4,1.9,3.6l14.6-7.4C279.8,422.4,279,420.9,278.2,419.5L278.2,419.5z M272.7,411.1l-13.2,9.7
		c0.8,1.1,1.6,2.2,2.3,3.4l13.7-8.9C274.6,413.8,273.7,412.5,272.7,411.1z M266.4,403.4l-12,11c0.9,1,1.8,2,2.7,3.1l12.6-10.4
		C268.6,405.9,267.5,404.6,266.4,403.4L266.4,403.4z M259.2,396.4l-10.7,12.3c1,0.9,2,1.8,3,2.8l11.4-11.7
		C261.7,398.6,260.5,397.5,259.2,396.4L259.2,396.4z M251.3,390.3l-9.3,13.4c1.1,0.8,2.2,1.6,3.3,2.4l10.1-12.9
		C254,392.2,252.7,391.2,251.3,390.3L251.3,390.3z M242.8,385l-7.8,14.3c1.2,0.7,2.4,1.3,3.5,2.1l8.6-13.9
		C245.7,386.6,244.3,385.8,242.8,385L242.8,385z M233.8,380.7l-6.2,15.1c1.3,0.5,2.5,1.1,3.7,1.7l7-14.7
		C236.9,382,235.3,381.3,233.8,380.7L233.8,380.7z M224.4,377.4l-4.5,15.7c1.3,0.4,2.6,0.8,3.9,1.2l5.3-15.4
		C227.6,378.4,226,377.9,224.4,377.4L224.4,377.4z M214.6,375.3l-2.7,16.1c1.3,0.2,2.7,0.5,4,0.8l3.6-15.9
		C217.9,375.8,216.3,375.5,214.6,375.3z M204.7,374.1l-0.9,16.3c1.4,0.1,2.7,0.2,4.1,0.3l1.8-16.2
		C208,374.4,206.3,374.2,204.7,374.1L204.7,374.1z M199.5,374v16.3l0.1,0l0-16.3C199.6,374,199.6,374,199.5,374L199.5,374z"/>
</g>
<g id="Layer_2">
</g>
<g id="Layer_1">
	<polygon class="st8" points="228,433.1 228,426.3 220.8,418.4 209.1,444.3 220.8,470 228,462.3 228,455.5 225.6,457.1 225.6,453.8 
		228,452.6 228,445.7 225.6,445.8 225.6,442.7 228,442.8 228,436.1 225.6,434.9 225.6,432.6 	"/>
	<polygon class="st9" points="208,476.5 220.8,470.1 220.8,418.4 208,412.1 193.5,444.8 	"/>
	<polygon class="st8" points="190.1,476.5 208,476.5 208,412.1 190.1,412.1 180.9,444.8 	"/>
	<polygon class="st10" points="190.1,476.5 177.3,470.1 173.2,444.8 177.3,418.4 190.1,412.1 	"/>
	<polygon class="st11" points="225.6,453.8 220.8,456.1 208,458.9 199.4,458.9 190.1,458.9 177.6,456.1 177.4,456.1 177.3,456.1 
		177.3,446.3 190.1,447.2 199.4,447.2 208,447.2 220.8,446.3 228,445.7 225.6,445.7 225.6,442.8 227.9,442.8 220.8,442.3 208,441.8 
		199.4,441.8 190.2,441.8 177.3,442.2 177.3,432.4 177.4,432.4 190.2,429.3 199.4,429.3 208,429.3 220.8,432.4 225.6,434.9 
		225.6,433.3 228,433.1 220.8,428.1 208,424 199.4,424 190.2,424 177.3,428.2 177.3,418.4 171,426.3 171,433.1 172.8,433.3 
		172.8,435 171,436 171,442.8 172.8,442.8 172.8,445.7 171,445.7 171,452.5 172.8,453.6 172.8,455.3 171,455.5 171,462.3 177.3,470 
		177.3,460.3 190.1,464.2 199.4,464.2 208,464.2 220.8,460.3 228,455.5 225.6,455.3 	"/>
</g>
</svg>
