<?xml version="1.0" encoding="utf-8"?>
<!-- Generator: Adobe Illustrator 19.1.0, SVG Export Plug-In . SVG Version: 6.00 Build 0)  -->
<svg version="1.0" id="レイヤー_1" xmlns="http://www.w3.org/2000/svg" xmlns:xlink="http://www.w3.org/1999/xlink" x="0px"
	 y="0px" viewBox="0 0 30 30" enable-background="new 0 0 30 30" xml:space="preserve">
<g>
	<polygon fill="#99BCE3" points="25.4,19.3 15.1,18 4.8,19.3 15.1,27.3 	"/>
	<polygon fill="#19486F" points="25.4,10.6 15,11.8 4.8,10.6 15.1,2.5 	"/>
	<polygon fill="#205B99" points="15.1,2.5 4.8,7.6 4.8,10.6 15.1,7.5 	"/>
	<polygon fill="#205B99" points="15.1,22.4 4.8,19.3 4.8,22.2 15.1,27.3 	"/>
	<polygon fill="#205B99" points="15.1,18.7 10.6,18 10.6,11.9 15.1,11.2 19.3,14.9 	"/>
	<polygon fill="#5294CF" points="15.1,2.5 25.4,7.6 25.4,10.6 15.1,7.5 	"/>
	<polygon fill="#5294CF" points="15.1,22.4 25.4,19.3 25.4,22.2 15.1,27.3 	"/>
	<polygon fill="#5294CF" points="15.1,18.7 19.6,18 19.6,11.9 15.1,11.2 	"/>
	<g id="nyt_x5F_exporter_x5F_info_2_" display="none">
	</g>
</g>
</svg>
