<?xml version="1.0" encoding="utf-8"?>
<!-- Generator: Adobe Illustrator 19.1.0, SVG Export Plug-In . SVG Version: 6.00 Build 0)  -->
<svg version="1.0" id="レイヤー_1" xmlns="http://www.w3.org/2000/svg" xmlns:xlink="http://www.w3.org/1999/xlink" x="0px"
	 y="0px" viewBox="0 0 87 39" enable-background="new 0 0 87 39" xml:space="preserve">
<g>
	<path fill="#1B2B79" d="M10.4,11.1c0,0.2-0.1,0.4-0.3,0.4c-0.2,0-0.3-0.2-0.3-0.5C9.3,7.3,8,2.2,5.8,2.2c-1.9,0-2.3,4.1-2.3,13.3
		c0,13,1,14.9,2.9,14.9c2.4,0,3.3-8,3.3-8.4c0-0.2,0.1-0.3,0.3-0.3c0.2,0,0.3,0.1,0.3,0.4c0,6.4-1,10.5-4.8,10.5
		C0.6,32.5,0,22.7,0,15.4C0,10.1,0.2,0,5.6,0c0.7,0,1.4,0.4,2.1,0.9C8,1.1,8.2,1.2,8.5,1.2C8.7,1.2,9,1,9.3,0.7
		C9.5,0.3,9.9,0,10.1,0c0.3,0,0.3,0.3,0.3,0.7V11.1z"/>
	<path fill="#1B2B79" d="M21.8,19.4c0,10.7-2.3,13.1-5.2,13.1c-2.8,0-5.1-2.4-5.1-13.1c0-8.5,2.3-11,5.1-11
		C19.4,8.4,21.8,10.9,21.8,19.4z M18.4,19.4c0-7.6-0.6-9.2-1.8-9.2c-1.1,0-1.7,1.6-1.7,9.2c0,9.8,0.6,11.2,1.7,11.2
		C17.8,30.7,18.4,29.2,18.4,19.4z"/>
	<path fill="#1B2B79" d="M23.6,10.5c0-0.2,0-0.3-0.1-0.3l-1.3-1.2C22.1,8.8,22,8.7,22,8.6c0-0.1,0.1-0.2,0.3-0.2h4.2
		c0.2,0,0.2,0.1,0.2,0.3v1.3h0.1c0.8-0.8,1.5-1.5,3-1.5c1.3,0,2.2,0.7,2.8,1.5c0.8-0.8,1.8-1.5,3.3-1.5c2,0,3.4,1.5,3.4,4.4v17.3
		c0,0.2,0,0.3,0.1,0.4l1.3,1.5c0.1,0.1,0.2,0.2,0.2,0.3c0,0.1-0.1,0.2-0.3,0.2h-5.7c-0.1,0-0.3,0-0.3-0.2c0-0.1,0.1-0.2,0.2-0.3
		l1.3-1.5c0.1-0.1,0.1-0.2,0.1-0.4V12.8c0-1.6-0.3-2.5-1.2-2.5c-0.9,0-2,1.4-2,3.8v16.1c0,0.2,0,0.3,0.1,0.4l1,1.5
		c0.1,0.1,0.1,0.2,0.1,0.3c0,0.1-0.1,0.2-0.3,0.2h-5c-0.1,0-0.3,0-0.3-0.2c0-0.1,0.1-0.2,0.2-0.3l1-1.5c0.1-0.1,0.1-0.2,0.1-0.4
		V12.8c0-1.6-0.3-2.5-1.2-2.5c-1,0-2,1.4-2,3.8v16.1c0,0.2,0,0.3,0.1,0.4l1.3,1.5c0.1,0.1,0.2,0.2,0.2,0.3c0,0.1-0.1,0.2-0.3,0.2
		h-5.7c-0.1,0-0.3,0-0.3-0.2c0-0.1,0.1-0.2,0.2-0.3l1.3-1.5c0.1-0.1,0.1-0.2,0.1-0.4V10.5z"/>
	<path fill="#1B2B79" d="M41.8,10.2c0-0.1,0-0.3-0.2-0.3l-1.3-1c-0.1-0.1-0.2-0.3-0.2-0.3c0-0.1,0.1-0.2,0.3-0.2h4.2
		c0.1,0,0.2,0.1,0.2,0.3v1.3H45c0.7-0.8,1.6-1.5,2.9-1.5c1.9,0,3.9,1.1,3.9,10.8c-0.1,12.2-2.1,13.3-4,13.3c-1.4,0-2.2-0.8-2.8-1.6
		h-0.1v5c0,0.1,0,0.3,0,0.3l1.3,1.5c0.1,0.1,0.2,0.2,0.2,0.3c0,0.1-0.1,0.1-0.3,0.1h-5.7c-0.2,0-0.3,0-0.3-0.1c0-0.1,0-0.2,0.2-0.3
		l1.3-1.5c0.1,0,0.1-0.2,0.1-0.3V10.2z M44.9,27.5c0,1.8,1.2,3.2,2.1,3.2s1.4-1,1.4-11.5c0-8-0.5-8.9-1.6-8.9
		c-0.6,0-1.9,1.1-1.9,3.3V27.5z"/>
	<path fill="#1B2B79" d="M62.3,29.6c0,0.6,0.2,1.1,0.6,1.1c0.4,0,0.9-0.2,1.3-0.7c0.1-0.1,0.1-0.2,0.2-0.2c0.1,0,0.1,0.1,0.1,0.2
		c-0.2,1.3-1.2,2.6-2.3,2.6c-1.3,0-2-0.9-2.6-1.6c-0.7,0.8-1.8,1.6-3,1.6c-1.7,0-3.8-1.1-3.8-7c0-4.9,0.7-6.2,5.5-10
		c0.9-0.7,0.9-1.1,0.9-2.9c0-1.9-0.4-2.4-1.8-2.4c-1.3,0-3.1,1-3.9,1.8c-0.1,0.1-0.2,0.1-0.3,0.1c-0.1,0-0.1-0.1-0.1-0.2
		c0-0.5,2.5-3.6,4.9-3.6c1.6,0,4.3,1,4.3,5.4V29.6z M59.2,16.8L59.2,16.8c-2.5,2-3.2,3.6-3.2,8c0,4.9,0.5,5.9,1.4,5.9
		s1.7-1.3,1.7-2.6V16.8z"/>
	<path fill="#1B2B79" d="M68.2,9.9L68.2,9.9c0.9-0.8,1.6-1.5,3.1-1.5c2.2,0,3.6,1.5,3.6,4.4v17.3c0,0.2,0,0.3,0.1,0.4l1.3,1.5
		c0.1,0.1,0.2,0.2,0.2,0.3c0,0.1-0.1,0.2-0.3,0.2h-5.7c-0.2,0-0.3,0-0.3-0.2c0-0.1,0.1-0.2,0.2-0.3l1.3-1.5c0.1-0.1,0.1-0.2,0.1-0.4
		V12.8c0-1.6-0.5-2.5-1.5-2.5c-1,0-2.2,1.4-2.2,3.8v16.1c0,0.2,0,0.3,0,0.4l1.3,1.5c0.1,0.1,0.2,0.2,0.2,0.3c0,0.1-0.1,0.2-0.3,0.2
		h-5.7c-0.2,0-0.3,0-0.3-0.2c0-0.1,0-0.2,0.2-0.3l1.3-1.5c0.1-0.1,0.1-0.2,0.1-0.4V10.5c0-0.2,0-0.3-0.1-0.3l-1.3-1.2
		c-0.1-0.1-0.2-0.3-0.2-0.3c0-0.1,0.1-0.2,0.3-0.2H68c0.2,0,0.2,0.1,0.2,0.3V9.9z"/>
	<path fill="#1B2B79" d="M80.9,8.4c0.1,0,0.3,0,0.3,0.2c0,0.1,0,0.2-0.1,0.3L80.2,10c-0.1,0.2-0.2,0.5-0.2,0.8l1.6,12.6h0.1
		l1.3-12.6c0-0.3,0-0.7-0.2-0.8l-1-1.1c-0.1-0.1-0.2-0.3-0.2-0.3c0-0.1,0.1-0.2,0.3-0.2h4.6c0.1,0,0.3,0,0.3,0.2
		c0,0.1,0,0.3-0.2,0.3l-1.1,1c-0.2,0.2-0.3,0.5-0.3,0.8l-2.9,23.5c-0.3,2.8-1.6,4-2.9,4c-2.2,0-3.1-2.8-3.1-4.1c0-0.2,0-0.3,0.2-0.3
		c0.2,0,0.3,0.1,0.3,0.3c0.6,1.2,1.1,2.3,2,2.3c1,0,1.4-1,1.4-2.5c0-0.9-0.1-2.5-0.3-3.8l-2.6-19.4c0-0.2-0.2-0.5-0.3-0.7l-1-1.2
		c-0.1-0.1-0.2-0.3-0.2-0.3c0-0.1,0.1-0.2,0.3-0.2H80.9z"/>
</g>
</svg>
