<?xml version="1.0" encoding="utf-8"?>
<!-- Generator: Adobe Illustrator 19.1.0, SVG Export Plug-In . SVG Version: 6.00 Build 0)  -->
<svg version="1.0" id="レイヤー_1" xmlns="http://www.w3.org/2000/svg" xmlns:xlink="http://www.w3.org/1999/xlink" x="0px"
	 y="0px" viewBox="0 0 232 30" enable-background="new 0 0 232 30" xml:space="preserve">
<g>
	<g>
		<path fill="#1B2B79" d="M0,12.352C2.016,11.039,6.335,7.999,9.983,0l1.567,0.768C9.759,5.248,6.111,10.56,1.312,13.887L0,12.352z
			 M14.559,10.527c-1.216,3.487-4,10.976-6.623,15.774c5.215-0.416,10.751-0.863,15.742-1.889c-1.376-1.983-2.464-3.583-5.76-7.391
			l1.504-1.056c3.168,3.263,7.231,8.99,9.056,12.606l-1.792,1.088c-0.448-0.928-0.863-1.792-2.111-3.872
			c-6.943,1.569-18.751,2.433-23.103,2.657l-0.32-1.729c0.992-0.063,2.016-0.096,4.736-0.256c2.048-3.999,5.023-11.295,6.751-16.606
			L14.559,10.527z M20.318,0.064c4.287,8.35,8.031,11.069,9.951,12.382l-1.408,1.567C24.03,10.303,21.118,5.888,18.654,0.8
			L20.318,0.064z"/>
		<path fill="#1B2B79" d="M41.982,1.599v9.792H31.871v18.143h-1.76V1.599H41.982z M40.223,3.135h-8.352v2.56h8.352V3.135z
			 M40.223,7.103h-8.352v2.784h8.352V7.103z M53.79,19.582v1.535h-5.344v7.936h-1.76v-7.936h-5.76
			c-0.416,3.072-1.472,6.048-5.12,7.936l-1.184-1.407c3.584-1.761,4.191-4.353,4.576-6.528h-5.472v-1.535h5.6
			c0.031-0.641,0.031-0.704,0.031-1.057v-3.039h-4.543V13.95h17.918v1.536h-4.287v4.096H53.79z M46.687,19.582v-4.096h-5.568v3.136
			c0,0.319,0,0.575-0.031,0.96H46.687z M57.47,1.599v25.246c0,1.504-0.513,2.688-2.368,2.688h-4.256l-0.479-1.984l4.096,0.097
			c0.64,0,1.248,0,1.248-0.896V11.391H45.534V1.599H57.47z M55.71,3.135h-8.448v2.56h8.448V3.135z M55.71,7.103h-8.448v2.784h8.448
			V7.103z"/>
		<path fill="#1B2B79" d="M87.165,4.317H73.534v2.176h10.719v6.048H73.534v1.984h11.52v4.063h2.335v1.536h-2.335v5.823h-1.696
			v-1.536h-9.823v2.816c0,0.863-0.032,2.304-2.815,2.304l-4.448,0.001l-0.224-1.856l4.575,0.096c0.8,0.031,1.152-0.288,1.152-0.992
			v-2.368l-11.68,0.001v-1.536l11.68-0.001v-2.751l-13.728,0.001V18.59l13.728-0.001v-2.656l-11.68,0.001v-1.407l11.68-0.001v-1.984
			l-10.911,0.001V6.494l10.911-0.001V4.317L58.335,4.318V2.783l13.439-0.001V0.222h1.76v2.561h13.631V4.317z M71.774,7.901
			l-9.056,0.001v3.168l9.056-0.001V7.901z M82.43,7.901h-8.896v3.168h8.896V7.901z M83.357,15.933h-9.823v2.656h9.823V15.933z
			 M83.357,20.125h-9.823v2.751h9.823V20.125z"/>
		<path fill="#1B2B79" d="M91.968,29.5H90.24V11.678c-1.088,2.111-1.696,2.783-2.496,3.711l-1.088-1.664
			c2.432-2.943,4.8-8.062,5.663-13.631l1.729,0.353c-0.288,1.376-0.8,3.775-2.08,7.295V29.5z M92.928,17.213
			c3.487-3.744,5.216-8.735,5.312-13.855h-3.552V1.822h11.487v1.535h-6.208c-0.063,2.464-0.416,4.225-0.64,5.312h5.983
			c-0.352,12.99-7.039,18.654-9.759,20.734l-1.216-1.344c1.375-1.024,4.799-3.648,7.135-8.896c-1.151-1.248-3.071-2.656-4.8-3.937
			c-0.96,1.536-1.919,2.561-2.623,3.328L92.928,17.213z M98.911,10.205c-0.256,0.96-0.672,2.145-1.472,3.712
			c1.983,1.376,3.296,2.368,4.672,3.647c0.863-2.367,1.247-4.863,1.407-7.359H98.911z M109.311,22.524h-1.728V2.43h1.728V22.524z
			 M115.198,0.222v26.942c0,0.928-0.097,2.336-2.145,2.336h-3.903l-0.256-1.792l3.712,0.064c0.735,0,0.832-0.192,0.832-0.864V0.222
			H115.198z"/>
		<path fill="#1B2B79" d="M129.663,26.459c3.775-0.352,12.863-1.216,12.863-11.455c0-2.688-0.896-11.039-11.264-11.104
			c-0.576,6.848-1.439,13.151-4.479,18.015c-1.984,3.168-4,3.809-5.151,3.809c-3.104,0.001-5.632-3.808-5.632-8.991
			c0-8.223,5.663-14.592,15.23-14.592c9.92,0,13.279,6.784,13.279,12.64c0,11.999-10.463,13.183-14.271,13.535L129.663,26.459z
			 M117.855,16.732c0,2.656,0.992,6.976,3.744,6.975c1.216,0,2.367-0.863,3.615-2.88c3.008-4.799,3.744-11.871,4.064-16.862
			C120.959,4.893,117.855,11.069,117.855,16.732z"/>
		<path fill="#1B2B79" d="M152.287,13.788c-1.824,1.76-3.136,4.063-3.136,6.432c0,5.376,6.943,5.504,11.135,5.504
			c4.928,0,9.088-0.481,11.327-0.737l0.128,2.112c-2.976,0.191-7.583,0.48-10.911,0.48c-3.52,0-7.135-0.288-9.631-1.376
			c-2.656-1.184-3.872-3.743-3.872-5.983c0-3.296,1.888-5.792,3.456-7.552L152.287,13.788z M169.054,4.443
			c-3.871,0.481-8.64,2.785-10.815,4.097l-1.216-1.407c2.561-1.472,3.936-1.984,6.432-2.72c-9.503,0.096-10.047,0.128-14.847,0.256
			V2.653c2.655,0.031,17.471,0.031,20.446-0.001V4.443z M168.382,13.371c-0.704-1.759-1.248-2.847-2.464-4.767l1.536-0.704
			c0.735,1.023,1.664,2.431,2.527,4.734L168.382,13.371z M171.806,11.739c-0.768-2.016-1.344-3.071-2.399-4.575l1.567-0.704
			c1.024,1.407,1.792,2.815,2.4,4.479L171.806,11.739z"/>
		<path fill="#1B2B79" d="M184.318,3.932c-1.695,2.944-4.191,7.04-6.399,9.823c1.6-0.096,2.496-0.16,5.056-0.384
			c-0.448-1.12-0.735-1.695-1.056-2.336l1.312-0.704c1.185,1.889,2.304,4.864,2.656,5.952l-1.664,0.607
			c-0.16-0.672-0.288-1.151-0.704-2.176c-0.607,0.064-1.439,0.16-3.359,0.353V29.53h-1.729V15.195
			c-0.8,0.031-4.383,0.224-5.119,0.256l-0.32-1.568c0.992,0,1.76,0,3.04-0.063c0.479-0.608,1.184-1.568,1.728-2.368
			c-0.672-0.8-3.167-3.231-4.959-4.575l1.023-1.248c0.64,0.512,0.864,0.704,1.216,0.992c1.216-1.92,2.752-4.512,3.392-6.432
			l1.696,0.64c-1.312,2.656-2.848,5.216-3.968,6.848c0.672,0.607,2.144,2.176,2.464,2.527c1.536-2.239,2.943-4.575,4.191-6.976
			L184.318,3.932z M172.928,26.522c1.151-2.4,1.792-6.56,1.92-8.256l1.567,0.192c-0.096,1.279-0.512,5.375-1.952,8.799
			L172.928,26.522z M183.967,25.53c-0.416-3.231-1.728-6.848-1.888-7.264l1.472-0.512c0.479,1.248,1.76,4.928,2.144,7.296
			L183.967,25.53z M194.75,13.883l-0.448-1.823l3.52,0.063c1.345,0.032,2.433,0.064,2.624-9.055h-6.655
			c-0.768,5.663-2.88,8.895-7.327,11.679l-1.12-1.408c1.92-1.056,5.951-3.615,6.72-10.271h-5.6V1.5h15.774
			c-0.032,2.688-0.16,8.256-0.832,10.047c-0.768,2.048-1.888,2.336-3.456,2.336H194.75z M201.47,29.53h-1.76v-1.76h-10.752v1.76
			h-1.728V15.643h14.239V29.53z M199.71,17.211h-10.752v8.991h10.752V17.211z"/>
		<path fill="#1B2B79" d="M201.695,10.939c5.407-1.888,11.295-6.655,13.951-10.783l1.823-0.001
			c3.168,4.384,8.384,8.575,14.207,10.527l-0.96,1.855c-5.631-2.271-10.814-6.367-14.047-10.719
			c-2.655,3.841-8.479,8.704-14.015,10.784L201.695,10.939z M211.551,16.091c0,6.368-1.632,10.751-7.872,13.439l-1.023-1.696
			c3.808-1.408,7.104-3.808,7.104-11.935v-4.96h1.792V16.091z M223.485,29.529h-1.823V10.938h1.823V29.529z"/>
	</g>
</g>
</svg>
