<?xml version="1.0" encoding="utf-8"?>
<!-- Generator: Adobe Illustrator 19.1.0, SVG Export Plug-In . SVG Version: 6.00 Build 0)  -->
<svg version="1.0" id="レイヤー_1" xmlns="http://www.w3.org/2000/svg" xmlns:xlink="http://www.w3.org/1999/xlink" x="0px"
	 y="0px" viewBox="0 0 195 188" enable-background="new 0 0 195 188" xml:space="preserve">
<g>
	<g>
		<path fill="#1B2B79" d="M0,109.94l0.008-0.034l9.485-5.66l9.81,16.438l-9.506,5.672L0,109.94z"/>
		<path fill="#1B2B79" d="M20.281,113.216l0.062-0.038c0.75-0.419,1.516-0.532,2.299-0.34c0.788,0.199,1.387,0.643,1.797,1.33
			c0.436,0.729,0.551,1.481,0.344,2.255c-0.203,0.781-0.674,1.392-1.41,1.832c-0.465,0.278-0.961,0.418-1.486,0.42
			c-0.533,0.008-1.032-0.118-1.498-0.377c-0.465-0.241-0.834-0.591-1.107-1.05c-0.277-0.466-0.422-0.959-0.432-1.48
			c-0.015-0.529,0.113-1.019,0.38-1.47C19.486,113.841,19.837,113.481,20.281,113.216z"/>
		<path fill="#1B2B79" d="M21.715,107.031l-4.423-7.41l18.959-11.315l4.41,7.389l-8.696-3.841l-0.041,0.025l9.374,15.707
			l-9.433,5.629L22.49,97.508l-0.041,0.025L21.715,107.031z"/>
		<path fill="#1B2B79" d="M57.896,91.545l0.811-0.087c0.132,0.665,0.207,1.201,0.223,1.606c0.017,0.423-0.025,0.872-0.129,1.348
			c-0.185,1.016-0.556,1.887-1.111,2.614c-0.767,1.051-1.867,2.004-3.298,2.858c-0.827,0.494-1.618,0.873-2.376,1.136
			c-0.764,0.267-1.482,0.419-2.158,0.455c-0.698,0.047-1.391-0.023-2.08-0.215c-0.9-0.245-1.713-0.645-2.441-1.201
			c-0.723-0.549-1.332-1.24-1.83-2.075c-0.506-0.847-0.823-1.741-0.952-2.682c-0.128-0.941-0.071-1.871,0.173-2.79
			c0.241-0.906,0.647-1.743,1.217-2.507c0.59-0.766,1.312-1.405,2.166-1.915l0.25-0.149l6.924,11.602
			c0.567-0.281,0.965-0.491,1.194-0.628c1.751-1.045,2.853-2.381,3.305-4.008c0.155-0.545,0.241-1.034,0.256-1.467
			C58.049,92.971,58.002,92.34,57.896,91.545z M57.851,89.339l-6.463,3.856l-3.645-6.108c0.615-0.311,1.158-0.554,1.627-0.73
			c0.424-0.159,0.869-0.258,1.334-0.301c0.941-0.157,1.908-0.108,2.901,0.149c0.665,0.168,1.313,0.441,1.944,0.818
			c0.66,0.397,1.169,0.814,1.524,1.252C57.303,88.545,57.56,88.899,57.851,89.339z"/>
		<path fill="#1B2B79" d="M72.459,84.125l0.809-0.256c0.029,0.633,0.025,1.101-0.01,1.405c-0.018,0.255-0.094,0.607-0.23,1.058
			c-0.538,1.846-1.832,3.382-3.881,4.605c-1.293,0.771-2.603,1.198-3.928,1.283c-0.676,0.037-1.311-0.008-1.904-0.136
			c-0.594-0.125-1.182-0.345-1.764-0.658c-1.123-0.602-2.042-1.504-2.76-2.706c-0.456-0.765-0.75-1.635-0.881-2.612
			c-0.135-0.966-0.094-1.895,0.119-2.786c0.459-1.819,1.585-3.264,3.378-4.334l0.292-0.174l6.867,11.507
			c0.426-0.188,0.697-0.316,0.814-0.387c1.141-0.68,1.982-1.678,2.526-2.992c0.192-0.482,0.326-0.907,0.401-1.271
			C72.39,85.321,72.441,84.806,72.459,84.125z M65.567,76.606c0.459-0.274,0.934-0.411,1.423-0.412
			c0.497-0.004,0.963,0.114,1.398,0.354c0.431,0.232,0.783,0.579,1.057,1.037c0.273,0.459,0.411,0.933,0.411,1.423
			c0.001,0.49-0.122,0.955-0.37,1.393c-0.232,0.431-0.574,0.782-1.025,1.052c-0.438,0.261-0.902,0.391-1.393,0.391
			c-0.5-0.002-0.969-0.123-1.404-0.362c-0.441-0.235-0.793-0.573-1.055-1.011c-0.27-0.451-0.404-0.921-0.404-1.411
			c-0.002-0.509,0.114-0.978,0.346-1.409C64.785,77.219,65.123,76.872,65.567,76.606z"/>
		<path fill="#1B2B79" d="M76.814,86.39l-9.748-16.333l6.535-3.9l9.748,16.333L76.814,86.39z M91.353,77.712l-6.617,3.95
			l-7.21-12.08c0.521-0.453,1.031-0.828,1.532-1.126c0.785-0.469,1.537-0.787,2.258-0.952c0.729-0.17,1.436-0.187,2.12-0.049
			c0.686,0.138,1.295,0.41,1.83,0.816c0.558,0.43,1.042,0.988,1.453,1.676L91.353,77.712z"/>
		<path fill="#1B2B79" d="M92.404,60.561l7.321,12.268l-0.333,0.199c-1.217,0.726-2.488,1.123-3.814,1.188
			c-1.309,0.066-2.533-0.203-3.674-0.803s-2.049-1.467-2.725-2.6c-0.507-0.849-0.822-1.748-0.947-2.701
			c-0.12-0.927-0.05-1.859,0.21-2.797c0.265-0.931,0.696-1.778,1.296-2.54c0.61-0.779,1.363-1.436,2.26-1.971L92.404,60.561z
			 M101.154,71.977l-7.322-12.268l0.24-0.143c0.986-0.589,1.977-0.976,2.967-1.163c1.016-0.191,1.975-0.188,2.875,0.009
			c0.93,0.2,1.787,0.579,2.572,1.136c0.787,0.577,1.441,1.303,1.965,2.178c0.692,1.161,1.029,2.374,1.012,3.637
			c-0.02,1.264-0.375,2.467-1.07,3.606c-0.693,1.13-1.672,2.072-2.938,2.827L101.154,71.977z"/>
		<path fill="#1B2B79" d="M109.584,66.833l-7.197-12.06l6.555-3.913l7.197,12.06L109.584,66.833z M117.525,62.093l-7.197-12.06
			l1.814-1.082c0.951-0.568,1.9-0.913,2.846-1.034c0.928-0.103,1.773,0.035,2.535,0.41c0.758,0.386,1.375,0.979,1.852,1.777
			l4.791,8.026L117.525,62.093z"/>
		<path fill="#1B2B79" d="M125.342,40.905l7.32,12.268l-0.332,0.199c-1.217,0.726-2.487,1.123-3.815,1.188
			c-1.308,0.065-2.532-0.203-3.674-0.803c-1.141-0.6-2.048-1.467-2.724-2.6c-0.507-0.849-0.822-1.748-0.947-2.701
			c-0.121-0.927-0.051-1.859,0.209-2.797c0.266-0.931,0.697-1.778,1.297-2.541c0.61-0.778,1.363-1.436,2.26-1.971L125.342,40.905z
			 M134.091,52.32l-7.321-12.268l0.24-0.143c0.986-0.588,1.976-0.976,2.967-1.163c1.016-0.192,1.975-0.188,2.875,0.009
			c0.93,0.2,1.786,0.578,2.572,1.136c0.787,0.577,1.441,1.304,1.964,2.179c0.692,1.161,1.03,2.373,1.013,3.637
			c-0.02,1.264-0.375,2.467-1.07,3.607c-0.693,1.13-1.673,2.072-2.938,2.826L134.091,52.32z"/>
		<path fill="#1B2B79" d="M142.625,47.114l-9.748-16.333l6.598-3.937l9.748,16.333L142.625,47.114z"/>
		<path fill="#1B2B79" d="M150.482,25.901l7.32,12.268l-0.332,0.199c-1.217,0.726-2.487,1.123-3.814,1.188
			c-1.309,0.066-2.533-0.203-3.675-0.803c-1.141-0.6-2.048-1.467-2.724-2.6c-0.507-0.849-0.822-1.748-0.947-2.701
			c-0.121-0.927-0.051-1.859,0.21-2.797c0.265-0.931,0.696-1.778,1.296-2.541c0.61-0.778,1.363-1.436,2.26-1.971L150.482,25.901z
			 M159.231,37.316l-7.321-12.268l0.24-0.144c0.986-0.588,1.977-0.976,2.967-1.163c1.016-0.192,1.975-0.188,2.875,0.009
			c0.93,0.2,1.786,0.579,2.572,1.136c0.787,0.577,1.441,1.303,1.964,2.178c0.692,1.161,1.03,2.374,1.013,3.637
			c-0.02,1.264-0.375,2.467-1.07,3.606c-0.693,1.13-1.673,2.072-2.938,2.827L159.231,37.316z"/>
		<path fill="#1B2B79" d="M166.664,16.244l7.284,12.205l-0.72,0.429c-1.098,0.655-2.284,0.987-3.561,0.996
			c-1.267,0.01-2.453-0.29-3.562-0.899c-1.112-0.6-1.994-1.448-2.65-2.547c-0.518-0.868-0.846-1.771-0.98-2.708
			c-0.142-0.934-0.092-1.843,0.15-2.733c0.239-0.876,0.656-1.702,1.253-2.472c0.572-0.746,1.323-1.398,2.255-1.954L166.664,16.244z
			 M177.269,30.863l-9.207-15.425l6.577-3.925l5.909,9.901c0.416,0.695,0.736,1.352,0.963,1.97c0.216,0.597,0.334,1.167,0.357,1.709
			c0.014,0.547-0.072,1.065-0.26,1.555c-0.194,0.512-0.486,1.016-0.879,1.513c-0.654,0.815-1.558,1.566-2.711,2.254L177.269,30.863z
			"/>
		<path fill="#1B2B79" d="M187.923,17.819l-11.861-7.014l7.171-4.28l11.062,6.458c0.055,0.627,0.097,1.277,0.125,1.947
			c0.027,0.672,0.028,1.204-0.001,1.599c-0.043,0.542-0.096,1.008-0.157,1.394c-0.058,0.345-0.137,0.695-0.237,1.047
			c-0.069,0.248-0.222,0.656-0.46,1.222c-0.092-0.567-0.248-1.035-0.469-1.403c-0.319-0.536-0.75-0.957-1.291-1.264
			c-0.523-0.291-1.102-0.446-1.733-0.465c-0.606-0.005-1.177,0.151-1.712,0.471C188.241,17.601,188.096,17.697,187.923,17.819z
			 M194.348,11.13l-9.51-5.562L194.166,0L194.348,11.13z M188.869,18.385c0.39-0.232,0.799-0.349,1.23-0.353
			c0.429,0.008,0.842,0.115,1.238,0.321c0.383,0.215,0.689,0.517,0.923,0.906c0.235,0.396,0.355,0.81,0.358,1.242
			c-0.004,0.436-0.113,0.844-0.328,1.227c-0.207,0.379-0.502,0.683-0.883,0.91c-0.383,0.228-0.794,0.346-1.232,0.352
			c-0.445,0.012-0.857-0.085-1.235-0.293c-0.386-0.204-0.696-0.504-0.933-0.9s-0.354-0.812-0.35-1.248
			c-0.004-0.431,0.1-0.844,0.305-1.241C188.179,18.926,188.479,18.618,188.869,18.385z"/>
	</g>
</g>
<g>
	<g>
		<path fill="#1B2B79" d="M10.769,153.106l3.375-8.847c0.408-1.112,0.375-1.99-0.057-2.715c-0.714-1.195-2.41-1.37-3.776-0.554
			c-1.237,0.739-1.91,2.037-1.961,3.457l-2.827,0.5c0.129-2.451,1.342-4.737,3.689-6.138c3.095-1.847,6.025-0.962,7.375,1.301
			c0.854,1.43,0.735,3.122-0.037,5.03L14,151.438l0.025,0.043l6.852-4.088l1.324,2.22l-9.967,5.949L10.769,153.106z"/>
		<path fill="#1B2B79" d="M24.507,145.081c0.726-0.433,1.646-0.201,2.079,0.524s0.201,1.646-0.525,2.079
			c-0.725,0.433-1.646,0.201-2.078-0.525C23.549,146.434,23.781,145.514,24.507,145.081z"/>
		<path fill="#1B2B79" d="M21.935,131.216l9.547,2.464l2.363-9.573l8.165,13.682l-2.476,1.478l-4.943-8.282l-1.326,5.685
			l-5.632-1.532l4.942,8.282l-2.477,1.478L21.935,131.216z"/>
		<path fill="#1B2B79" d="M37.746,126.326l2.219-1.325l3.452,5.783c0.905,1.517,2.664,1.942,4.052,1.114
			c1.387-0.828,1.848-2.579,0.943-4.095l-3.452-5.783l2.22-1.325l3.566,5.977c1.732,2.902,0.502,5.981-1.953,7.446
			c-2.454,1.465-5.748,1.086-7.48-1.816L37.746,126.326z"/>
		<path fill="#1B2B79" d="M48.932,115.48l5.517,9.242c0.714,1.195,1.224,1.469,2.114,1.458l1.604-0.03l0.062,2.336
			c-2.934,0.275-4.472,0.122-5.758-2.035l-5.758-9.647L48.932,115.48z"/>
		<path fill="#1B2B79" d="M53.328,117.026l1.26-0.751l-1.631-2.732l1.851-1.944l2,3.352l1.771-1.057l1.248,2.091l-1.771,1.057
			l2.433,4.077c0.662,1.109,1.225,1.469,2.115,1.458l1.604-0.029l0.062,2.335c-2.934,0.275-4.473,0.123-5.76-2.034l-2.674-4.482
			l-1.26,0.751L53.328,117.026z"/>
		<path fill="#1B2B79" d="M59.525,108.783c0.683-0.408,1.568-0.184,1.977,0.5c0.406,0.683,0.184,1.568-0.5,1.976
			c-0.683,0.408-1.568,0.185-1.977-0.498C58.617,110.077,58.842,109.19,59.525,108.783z M60.415,112.797l2.22-1.325l6.165,10.33
			l-2.22,1.325L60.415,112.797z"/>
		<path fill="#1B2B79" d="M74.914,108.717c-1.146-0.562-2.359-0.706-3.619,0.046c-1.942,1.159-2.46,3.494-1.352,5.351
			c1.108,1.857,3.408,2.511,5.351,1.352c1.217-0.726,1.723-1.868,1.76-3.164l2.63-0.006c-0.051,1.999-1.178,4.089-3.141,5.261
			c-3.607,2.153-7.316,0.69-8.947-2.042c-1.631-2.731-1.156-6.69,2.45-8.843c2.198-1.312,4.253-1.12,6.122-0.266L74.914,108.717z"/>
		<path fill="#1B2B79" d="M76.531,99.009l5.516,9.242c0.714,1.195,1.225,1.469,2.115,1.458l1.604-0.03l0.062,2.336
			c-2.934,0.275-4.473,0.122-5.759-2.035l-5.758-9.647L76.531,99.009z"/>
		<path fill="#1B2B79" d="M85.777,97.283c3.607-2.153,7.317-0.69,8.947,2.042c1.631,2.732,1.157,6.691-2.45,8.844
			c-3.606,2.153-7.317,0.69-8.948-2.042C81.696,103.395,82.171,99.436,85.777,97.283z M91.025,106.077
			c1.943-1.159,2.461-3.494,1.352-5.352c-1.107-1.856-3.408-2.51-5.351-1.351s-2.46,3.494-1.352,5.351
			C86.783,106.583,89.084,107.236,91.025,106.077z"/>
		<path fill="#1B2B79" d="M92.625,93.574l2.221-1.325l3.451,5.783c0.904,1.517,2.664,1.942,4.051,1.114
			c1.389-0.828,1.849-2.578,0.943-4.095l-3.451-5.783l2.22-1.325l3.566,5.977c1.732,2.902,0.501,5.981-1.953,7.446
			s-5.749,1.087-7.481-1.815L92.625,93.574z"/>
		<path fill="#1B2B79" d="M118.103,90.67l-0.043,0.025c-0.145,1.36-1.068,2.722-2.477,3.562c-3.395,2.025-7.014,0.423-8.606-2.246
			c-1.516-2.54-1.136-6.703,2.216-8.704c1.537-0.917,3.105-0.956,4.204-0.424l0.043-0.025l-2.586-4.333l2.22-1.325l8,13.404
			l-2.22,1.325L118.103,90.67z M114.612,92.001c1.75-1.044,2.354-3.43,1.245-5.288c-1.108-1.856-3.494-2.459-5.244-1.415
			c-1.793,1.07-2.396,3.456-1.288,5.312C110.433,92.469,112.819,93.071,114.612,92.001z"/>
	</g>
</g>
<g>
	<g>
		<path fill="#1B2B79" d="M7.121,177.163l-1.182-1.98c0.578-0.864,1.162-1.598,1.752-2.205c0.59-0.607,1.211-1.105,1.864-1.495
			c0.786-0.469,1.546-0.757,2.282-0.866c0.735-0.109,1.396-0.029,1.979,0.238c0.585,0.27,1.065,0.721,1.442,1.353
			c0.354,0.591,0.545,1.18,0.576,1.77c0.031,0.588-0.068,1.177-0.296,1.766s-0.587,1.246-1.078,1.972l0.056,0.094
			c0.471-0.176,0.957-0.29,1.459-0.339c0.502-0.05,0.994-0.021,1.474,0.089s0.933,0.312,1.36,0.609
			c0.426,0.296,0.795,0.705,1.106,1.226c0.481,0.806,0.732,1.627,0.755,2.462c0.021,0.834-0.221,1.649-0.727,2.441
			c-0.508,0.792-1.278,1.498-2.314,2.116c-0.598,0.357-1.282,0.673-2.055,0.95c-0.771,0.278-1.513,0.478-2.223,0.598l-1.318-2.209
			l1.251-0.746c0.675,0.578,1.309,0.911,1.903,0.999c0.595,0.087,1.235-0.074,1.923-0.484c0.903-0.539,1.439-1.193,1.606-1.961
			c0.168-0.769-0.036-1.636-0.613-2.603c-0.605-1.015-1.373-1.607-2.304-1.777c-0.931-0.17-1.987,0.098-3.168,0.802l-0.938,0.56
			l-0.547-0.917c0.904-0.616,1.588-1.267,2.048-1.957c0.46-0.689,0.703-1.367,0.729-2.033c0.027-0.666-0.138-1.297-0.494-1.895
			c-0.461-0.771-1.02-1.243-1.68-1.417c-0.658-0.171-1.381-0.022-2.165,0.446c-0.653,0.39-1.079,0.884-1.278,1.483
			c-0.198,0.598-0.178,1.321,0.064,2.167L7.121,177.163z"/>
		<path fill="#1B2B79" d="M25.599,178.149l1.443,2.419l-2.105,1.256l-1.443-2.419L25.599,178.149z"/>
		<path fill="#1B2B79" d="M28.24,175.458c0.504,0.529,0.98,0.9,1.428,1.113c0.448,0.213,0.91,0.293,1.387,0.239
			c0.478-0.053,1.01-0.257,1.602-0.609c0.812-0.485,1.31-1.069,1.492-1.752c0.181-0.682,0.029-1.431-0.457-2.243
			c-0.311-0.521-0.662-0.905-1.055-1.153c-0.392-0.246-0.887-0.403-1.482-0.471c-0.598-0.068-1.44-0.06-2.529,0.025
			c-1.054,0.083-1.932,0.072-2.635-0.032c-0.703-0.103-1.305-0.312-1.808-0.625c-0.502-0.313-0.913-0.737-1.232-1.271
			c-0.464-0.778-0.685-1.563-0.662-2.355c0.022-0.79,0.293-1.552,0.812-2.286c0.52-0.733,1.232-1.373,2.143-1.916
			c0.529-0.315,1.061-0.595,1.6-0.84c0.536-0.245,1.24-0.496,2.115-0.754l1.68,2.814l-1.032,0.616
			c-0.524-0.516-1.011-0.872-1.457-1.068c-0.446-0.195-0.874-0.263-1.28-0.203c-0.408,0.058-0.873,0.244-1.394,0.555
			c-0.452,0.27-0.806,0.595-1.065,0.976c-0.258,0.38-0.391,0.8-0.398,1.262c-0.006,0.462,0.129,0.925,0.406,1.391
			c0.295,0.493,0.632,0.857,1.012,1.092c0.381,0.234,0.846,0.386,1.395,0.454c0.551,0.068,1.301,0.063,2.252-0.016
			c1.156-0.086,2.093-0.084,2.811,0.005c0.718,0.09,1.359,0.298,1.927,0.625c0.567,0.325,1.046,0.815,1.435,1.469
			c0.436,0.729,0.689,1.414,0.761,2.055c0.071,0.641-0.001,1.24-0.22,1.799c-0.218,0.558-0.567,1.078-1.049,1.559
			c-0.48,0.48-1.059,0.922-1.732,1.324c-1.092,0.651-2.459,1.217-4.104,1.699l-1.704-2.855L28.24,175.458z"/>
		<path fill="#1B2B79" d="M32.728,163.662l2.971-1.772l3.166,5.305c0.485,0.813,0.886,1.413,1.201,1.799s0.6,0.65,0.854,0.791
			c0.254,0.14,0.539,0.215,0.855,0.224c0.316,0.01,0.676-0.106,1.079-0.347c0.265-0.158,0.486-0.361,0.667-0.609
			c0.182-0.25,0.344-0.594,0.486-1.033c0.145-0.438,0.203-0.824,0.178-1.159c-0.024-0.333-0.139-0.671-0.342-1.012l-2.332-3.908
			c-0.237-0.396-0.426-0.688-0.566-0.878c-0.142-0.189-0.273-0.329-0.395-0.422c-0.121-0.092-0.236-0.157-0.349-0.195
			c-0.112-0.037-0.247-0.05-0.405-0.04c-0.16,0.01-0.395,0.062-0.708,0.154l-0.305-0.511l2.971-1.773l4.249,7.118
			c0.318,0.535,0.561,0.915,0.721,1.138c0.162,0.225,0.319,0.385,0.473,0.482c0.151,0.098,0.326,0.146,0.524,0.146
			c0.198,0,0.507-0.074,0.929-0.222l0.323,0.542l-2.325,1.528l-0.636,0.379l-0.958-1.746l-0.181,0.051
			c-0.204,0.97-0.48,1.758-0.831,2.362c-0.351,0.605-0.789,1.066-1.317,1.381c-0.632,0.377-1.229,0.563-1.788,0.557
			c-0.559-0.005-1.088-0.196-1.586-0.573s-1.016-1.017-1.555-1.919l-2.352-3.94c-0.35-0.584-0.611-0.972-0.787-1.164
			c-0.176-0.191-0.365-0.313-0.571-0.366c-0.206-0.051-0.556-0.004-1.054,0.142L32.728,163.662z"/>
		<path fill="#1B2B79" d="M52.712,164.825l1.312,2.2c0.269,0.451,0.485,0.779,0.649,0.982c0.164,0.203,0.325,0.346,0.482,0.427
			c0.156,0.081,0.334,0.119,0.533,0.112c0.199-0.005,0.486-0.073,0.861-0.202l0.305,0.511l-4.253,2.538l-0.305-0.511
			c0.209-0.219,0.37-0.412,0.482-0.578c0.112-0.167,0.167-0.346,0.166-0.539c-0.001-0.191-0.061-0.417-0.178-0.677
			c-0.118-0.261-0.297-0.592-0.537-0.995l-5.337-8.943c-0.299-0.5-0.519-0.853-0.658-1.056c-0.141-0.204-0.273-0.362-0.398-0.477
			c-0.125-0.114-0.254-0.192-0.387-0.235c-0.135-0.042-0.287-0.055-0.461-0.037c-0.172,0.02-0.434,0.09-0.783,0.214l-0.33-0.552
			l2.393-1.556l0.637-0.379l0.879,1.779l0.18-0.052c0.17-0.695,0.321-1.215,0.453-1.563s0.292-0.667,0.48-0.958
			c0.189-0.291,0.391-0.539,0.604-0.742c0.214-0.203,0.459-0.387,0.737-0.553c1.146-0.684,2.284-0.781,3.411-0.29
			c1.127,0.49,2.184,1.563,3.171,3.217c0.685,1.146,1.086,2.214,1.205,3.204c0.118,0.989-0.036,1.878-0.466,2.667
			c-0.429,0.789-1.102,1.457-2.02,2.004c-0.514,0.307-1.006,0.541-1.475,0.704C53.598,164.652,53.146,164.764,52.712,164.825z
			 M50.658,161.385c0.398,0.668,0.747,1.157,1.047,1.468c0.299,0.312,0.621,0.518,0.968,0.616c0.347,0.1,0.698,0.119,1.053,0.058
			s0.768-0.233,1.241-0.515c0.84-0.502,1.265-1.228,1.271-2.179c0.006-0.951-0.396-2.108-1.209-3.469
			c-1.625-2.725-3.234-3.612-4.824-2.663c-0.391,0.232-0.689,0.494-0.897,0.783c-0.208,0.29-0.372,0.653-0.488,1.089
			c-0.116,0.438-0.155,0.816-0.119,1.139c0.037,0.322,0.143,0.629,0.316,0.921L50.658,161.385z"/>
		<path fill="#1B2B79" d="M64.37,157.867l1.312,2.2c0.269,0.451,0.485,0.779,0.65,0.983c0.163,0.203,0.324,0.346,0.481,0.427
			c0.156,0.081,0.334,0.119,0.533,0.112c0.199-0.005,0.486-0.073,0.861-0.202l0.305,0.511l-4.253,2.538l-0.305-0.511
			c0.209-0.22,0.37-0.412,0.482-0.578c0.112-0.167,0.168-0.347,0.167-0.539c-0.002-0.191-0.062-0.417-0.178-0.677
			c-0.119-0.26-0.297-0.592-0.537-0.994l-5.338-8.943c-0.299-0.5-0.518-0.853-0.658-1.056s-0.273-0.362-0.397-0.477
			c-0.125-0.114-0.255-0.193-0.388-0.235c-0.135-0.042-0.287-0.055-0.461-0.037c-0.172,0.019-0.434,0.09-0.783,0.213l-0.33-0.552
			l2.393-1.555l0.637-0.379l0.879,1.779l0.18-0.052c0.17-0.694,0.321-1.215,0.453-1.562s0.292-0.667,0.481-0.959
			c0.188-0.29,0.39-0.539,0.603-0.741c0.214-0.203,0.46-0.387,0.738-0.553c1.146-0.684,2.283-0.781,3.41-0.29
			c1.127,0.49,2.185,1.563,3.172,3.217c0.684,1.146,1.085,2.214,1.204,3.204c0.118,0.989-0.036,1.878-0.466,2.667
			c-0.429,0.789-1.102,1.457-2.02,2.004c-0.514,0.307-1.006,0.541-1.475,0.704C65.256,157.694,64.805,157.806,64.37,157.867z
			 M62.316,154.427c0.398,0.668,0.747,1.157,1.047,1.469c0.299,0.312,0.621,0.517,0.969,0.616c0.347,0.1,0.697,0.119,1.052,0.058
			s0.769-0.233,1.241-0.515c0.84-0.502,1.265-1.228,1.271-2.179c0.007-0.951-0.396-2.108-1.209-3.469
			c-1.625-2.725-3.234-3.612-4.824-2.663c-0.39,0.232-0.689,0.494-0.897,0.783c-0.208,0.29-0.372,0.653-0.487,1.089
			c-0.116,0.438-0.156,0.816-0.12,1.139c0.037,0.322,0.143,0.629,0.316,0.921L62.316,154.427z"/>
		<path fill="#1B2B79" d="M77.17,150.879c-1.445,0.863-2.803,1.094-4.07,0.698c-1.27-0.397-2.402-1.429-3.396-3.097
			c-0.686-1.146-1.063-2.234-1.137-3.266c-0.073-1.031,0.123-1.946,0.588-2.747c0.465-0.8,1.141-1.465,2.03-1.996
			c1.487-0.888,2.871-1.126,4.152-0.718c1.28,0.408,2.403,1.423,3.37,3.042c0.688,1.154,1.078,2.241,1.168,3.26
			c0.091,1.021-0.097,1.938-0.564,2.749C78.843,149.615,78.129,150.307,77.17,150.879z M71.542,147.085
			c0.854,1.432,1.738,2.396,2.651,2.892c0.914,0.496,1.794,0.491,2.643-0.015c0.465-0.278,0.793-0.626,0.984-1.047
			c0.192-0.42,0.277-0.884,0.254-1.389c-0.022-0.503-0.139-1.035-0.35-1.593c-0.211-0.558-0.479-1.111-0.807-1.66
			c-0.609-1.021-1.229-1.801-1.857-2.341c-0.628-0.54-1.23-0.851-1.809-0.935c-0.578-0.084-1.117,0.023-1.617,0.321
			c-0.841,0.502-1.268,1.251-1.28,2.249C70.342,144.564,70.737,145.737,71.542,147.085z"/>
		<path fill="#1B2B79" d="M80.699,137.38l0.164-0.056c0.104-0.694,0.24-1.271,0.407-1.734s0.396-0.88,0.688-1.251
			c0.292-0.373,0.677-0.701,1.157-0.987c0.402-0.24,0.78-0.438,1.131-0.59l1.432,2.397l-1.178,0.703
			c-0.391-0.276-0.73-0.443-1.021-0.501c-0.288-0.058-0.598,0.01-0.924,0.205c-0.25,0.149-0.456,0.371-0.614,0.664
			c-0.16,0.293-0.271,0.647-0.334,1.063c-0.064,0.414-0.066,0.769-0.008,1.064c0.058,0.295,0.188,0.61,0.386,0.943l2.177,3.648
			c0.378,0.632,0.676,1.045,0.896,1.239c0.219,0.194,0.452,0.294,0.694,0.299c0.244,0.006,0.562-0.067,0.953-0.215l0.305,0.511
			l-4.2,2.507l-0.305-0.511c0.214-0.241,0.36-0.427,0.437-0.558c0.078-0.132,0.125-0.277,0.142-0.438
			c0.018-0.161-0.021-0.368-0.116-0.623c-0.096-0.254-0.288-0.625-0.578-1.111l-2.713-4.545c-0.265-0.444-0.486-0.797-0.661-1.061
			c-0.176-0.263-0.354-0.451-0.534-0.564c-0.182-0.114-0.381-0.16-0.599-0.138c-0.218,0.022-0.5,0.098-0.847,0.229l-0.322-0.542
			l2.377-1.559l0.635-0.379L80.699,137.38z"/>
		<path fill="#1B2B79" d="M85.152,133.082c0.314-0.263,0.537-0.527,0.67-0.795c0.133-0.268,0.195-0.547,0.186-0.838
			c-0.009-0.292-0.077-0.623-0.204-0.996c-0.128-0.37-0.343-0.896-0.643-1.573l1.479-0.883l1.536,2.574l3.367-2.009l0.628,1.052
			l-3.367,2.009l2.769,4.639c0.402,0.674,0.751,1.194,1.044,1.561c0.295,0.366,0.586,0.617,0.873,0.751s0.559,0.193,0.811,0.174
			c0.252-0.02,0.531-0.12,0.838-0.303c0.277-0.166,0.504-0.378,0.679-0.638c0.175-0.259,0.315-0.568,0.423-0.924l0.806,0.284
			c-0.208,0.773-0.467,1.399-0.779,1.878c-0.313,0.479-0.706,0.859-1.178,1.141c-0.896,0.535-1.723,0.667-2.478,0.396
			c-0.756-0.27-1.471-0.971-2.146-2.104l-3.452-5.785l-1.542,0.92L85.152,133.082z"/>
	</g>
</g>
</svg>
