<?xml version="1.0" encoding="utf-8"?>
<!-- Generator: Adobe Illustrator 19.2.1, SVG Export Plug-In . SVG Version: 6.00 Build 0)  -->
<svg version="1.1" id="レイヤー_1" xmlns="http://www.w3.org/2000/svg" xmlns:xlink="http://www.w3.org/1999/xlink" x="0px"
	 y="0px" viewBox="0 0 640 360" style="enable-background:new 0 0 640 360;" xml:space="preserve">
<style type="text/css">
	.st0{fill:#0A5DC1;}
	.st1{fill:#11BAD1;}
	.st2{fill:#1B2B79;}
	.st3{clip-path:url(#SVGID_2_);}
	.st4{fill:none;stroke:#0A5DC1;stroke-linecap:round;stroke-linejoin:round;stroke-miterlimit:10;}
	.st5{fill:none;stroke:#00A0E9;stroke-width:0.196;stroke-miterlimit:10;}
	.st6{fill:#00A0E9;}
	.st7{fill:none;stroke:#11BAD1;stroke-width:0.196;stroke-miterlimit:10;}
	
		.st8{opacity:0.4;fill:#00A0E9;stroke:#00A0E9;stroke-width:0.5341;stroke-linecap:round;stroke-linejoin:round;stroke-miterlimit:10;enable-background:new    ;}
	
		.st9{opacity:0.2;fill:#00A0E9;stroke:#00A0E9;stroke-width:0.5341;stroke-linecap:round;stroke-linejoin:round;stroke-miterlimit:10;enable-background:new    ;}
	
		.st10{opacity:0.1;fill:#00A0E9;stroke:#00A0E9;stroke-width:0.5341;stroke-linecap:round;stroke-linejoin:round;stroke-miterlimit:10;enable-background:new    ;}
</style>
<g>
	<g>
		<path class="st0" d="M639,334v21h-21v-21H639 M640,333h-23v23h23V333L640,333z"/>
		<path class="st0" d="M617,334v21h-21v-21H617 M618,333h-23v23h23V333L618,333z"/>
		<path class="st0" d="M595,334v21h-21v-21H595 M596,333h-23v23h23V333L596,333z"/>
		<path class="st0" d="M573,334v21h-21v-21H573 M574,333h-23v23h23V333L574,333z"/>
		<path class="st0" d="M551,334v21h-21v-21H551 M552,333h-23v23h23V333L552,333z"/>
		<path class="st0" d="M529,334v21h-22v-21H529 M530,333h-24v23h24V333L530,333z"/>
		<path class="st0" d="M507,312h22v21h-22V312 M506,311v23h24v-23H506L506,311z"/>
		<path class="st0" d="M529,290v21h-22v-21H529 M530,289h-24v23h24V289L530,289z"/>
		<path class="st1" d="M506,334v21h-21v-21H506 M507,333h-23v23h23V333L507,333z"/>
		<path class="st1" d="M506,268v21h-21v-21H506 M507,267h-23v23h23V267L507,267z"/>
		<path class="st1" d="M484,334v21h-21v-21H484 M485,333h-23v23h23V333L485,333z"/>
		<path class="st2" d="M462,334v21h-21v-21H462 M463,333h-23v23h23V333L463,333z"/>
		<path class="st1" d="M595,312v21h-21v-21H595 M596,311h-23v23h23V311L596,311z"/>
		<path class="st1" d="M573,312v21h-21v-21H573 M574,311h-23v23h23V311L574,311z"/>
		<path class="st2" d="M551,312v21h-21v-21H551 M552,311h-23v23h23V311L552,311z"/>
		<path class="st2" d="M440,334v21h-21v-21H440 M441,333h-23v23h23V333L441,333z"/>
	</g>
	<g>
		<g>
			<defs>
				<path id="SVGID_1_" d="M-252.1,123.8c57.8-84.3,172-105.1,255.8-47.7s105.5,171.5,47.7,255.8L-252.1,123.8z"/>
			</defs>
			<clipPath id="SVGID_2_">
				<use xlink:href="#SVGID_1_"  style="overflow:visible;"/>
			</clipPath>
			<g class="st3">
				<g>
					<line class="st4" x1="36.8" y1="-473" x2="-158.3" y2="192.8"/>
					<line class="st4" x1="41.3" y1="-470.3" x2="-153.9" y2="195.6"/>
					<line class="st4" x1="45.7" y1="-467.5" x2="-149.4" y2="198.3"/>
					<line class="st4" x1="50.2" y1="-464.8" x2="-145" y2="201.1"/>
					<line class="st4" x1="54.6" y1="-462" x2="-140.5" y2="203.8"/>
					<line class="st4" x1="59.1" y1="-459.3" x2="-136" y2="206.5"/>
					<line class="st4" x1="63.5" y1="-456.5" x2="-131.6" y2="209.3"/>
					<line class="st4" x1="68" y1="-453.8" x2="-127.1" y2="212"/>
					<line class="st4" x1="72.4" y1="-451" x2="-122.7" y2="214.8"/>
					<line class="st4" x1="76.9" y1="-448.3" x2="-118.2" y2="217.5"/>
					<line class="st4" x1="81.4" y1="-445.5" x2="-113.8" y2="220.3"/>
					<line class="st4" x1="85.8" y1="-442.8" x2="-109.3" y2="223"/>
					<line class="st4" x1="90.3" y1="-440.1" x2="-104.9" y2="225.8"/>
					<line class="st4" x1="94.7" y1="-437.3" x2="-100.4" y2="228.5"/>
					<line class="st4" x1="99.2" y1="-434.6" x2="-96" y2="231.3"/>
					<line class="st4" x1="103.6" y1="-431.8" x2="-91.5" y2="234"/>
					<line class="st4" x1="108.1" y1="-429.1" x2="-87.1" y2="236.7"/>
					<line class="st4" x1="112.5" y1="-426.3" x2="-82.6" y2="239.5"/>
					<line class="st4" x1="117" y1="-423.6" x2="-78.1" y2="242.2"/>
					<line class="st4" x1="121.4" y1="-420.8" x2="-73.7" y2="245"/>
					<line class="st4" x1="125.9" y1="-418.1" x2="-69.2" y2="247.7"/>
					<line class="st4" x1="130.3" y1="-415.3" x2="-64.8" y2="250.5"/>
					<line class="st4" x1="134.8" y1="-412.6" x2="-60.3" y2="253.2"/>
					<line class="st4" x1="139.3" y1="-409.8" x2="-55.9" y2="256"/>
					<line class="st4" x1="143.7" y1="-407.1" x2="-51.4" y2="258.7"/>
					<line class="st4" x1="148.2" y1="-404.4" x2="-47" y2="261.5"/>
					<line class="st4" x1="152.6" y1="-401.6" x2="-42.5" y2="264.2"/>
					<line class="st4" x1="157.1" y1="-398.9" x2="-38.1" y2="266.9"/>
					<line class="st4" x1="161.5" y1="-396.1" x2="-33.6" y2="269.7"/>
					<line class="st4" x1="166" y1="-393.4" x2="-29.2" y2="272.4"/>
					<line class="st4" x1="170.4" y1="-390.6" x2="-24.7" y2="275.2"/>
					<line class="st4" x1="174.9" y1="-387.9" x2="-20.2" y2="277.9"/>
					<line class="st4" x1="179.3" y1="-385.1" x2="-15.8" y2="280.7"/>
					<line class="st4" x1="183.8" y1="-382.4" x2="-11.3" y2="283.4"/>
					<line class="st4" x1="188.2" y1="-379.6" x2="-6.9" y2="286.2"/>
					<line class="st4" x1="192.7" y1="-376.9" x2="-2.4" y2="288.9"/>
					<line class="st4" x1="201.6" y1="-371.4" x2="6.5" y2="294.4"/>
					<line class="st4" x1="206.1" y1="-368.7" x2="10.9" y2="297.2"/>
					<line class="st4" x1="210.5" y1="-365.9" x2="15.4" y2="299.9"/>
					<line class="st4" x1="215" y1="-363.2" x2="19.8" y2="302.6"/>
					<line class="st4" x1="219.4" y1="-360.4" x2="24.3" y2="305.4"/>
					<line class="st4" x1="223.9" y1="-357.7" x2="28.7" y2="308.1"/>
					<line class="st4" x1="228.3" y1="-354.9" x2="33.2" y2="310.9"/>
					<line class="st4" x1="232.8" y1="-352.2" x2="37.7" y2="313.6"/>
					<line class="st4" x1="237.2" y1="-349.4" x2="42.1" y2="316.4"/>
					<line class="st4" x1="241.7" y1="-346.7" x2="46.6" y2="319.1"/>
					<line class="st4" x1="246.1" y1="-344" x2="51" y2="321.9"/>
					<line class="st4" x1="250.6" y1="-341.2" x2="55.5" y2="324.6"/>
					<line class="st4" x1="255.1" y1="-338.5" x2="59.9" y2="327.4"/>
					<line class="st4" x1="259.5" y1="-335.7" x2="64.4" y2="330.1"/>
					<line class="st4" x1="264" y1="-333" x2="68.8" y2="332.8"/>
					<line class="st4" x1="268.4" y1="-330.2" x2="73.3" y2="335.6"/>
					<line class="st4" x1="272.9" y1="-327.5" x2="77.7" y2="338.3"/>
					<line class="st4" x1="277.3" y1="-324.7" x2="82.2" y2="341.1"/>
					<line class="st4" x1="281.8" y1="-322" x2="86.6" y2="343.8"/>
					<line class="st4" x1="286.2" y1="-319.2" x2="91.1" y2="346.6"/>
					<line class="st4" x1="295.1" y1="-313.7" x2="100" y2="352.1"/>
					<line class="st4" x1="299.6" y1="-311" x2="104.5" y2="354.8"/>
					<line class="st4" x1="304" y1="-308.3" x2="108.9" y2="357.6"/>
					<line class="st4" x1="308.5" y1="-305.5" x2="113.4" y2="360.3"/>
					<line class="st4" x1="313" y1="-302.8" x2="117.8" y2="363"/>
					<line class="st4" x1="317.4" y1="-300" x2="122.3" y2="365.8"/>
					<line class="st4" x1="321.9" y1="-297.3" x2="126.7" y2="368.5"/>
					<line class="st4" x1="326.3" y1="-294.5" x2="131.2" y2="371.3"/>
					<line class="st4" x1="330.8" y1="-291.8" x2="135.6" y2="374"/>
					<line class="st4" x1="335.2" y1="-289" x2="140.1" y2="376.8"/>
					<line class="st4" x1="339.7" y1="-286.3" x2="144.5" y2="379.5"/>
					<line class="st4" x1="344.1" y1="-283.5" x2="149" y2="382.3"/>
					<line class="st4" x1="348.6" y1="-280.8" x2="153.5" y2="385"/>
					<line class="st4" x1="353" y1="-278.1" x2="157.9" y2="387.8"/>
					<line class="st4" x1="357.5" y1="-275.3" x2="162.4" y2="390.5"/>
					<line class="st4" x1="362" y1="-272.6" x2="166.8" y2="393.3"/>
					<line class="st4" x1="366.4" y1="-269.8" x2="171.3" y2="396"/>
					<line class="st4" x1="370.9" y1="-267.1" x2="175.7" y2="398.7"/>
					<line class="st4" x1="375.3" y1="-264.3" x2="180.2" y2="401.5"/>
					<line class="st4" x1="379.8" y1="-261.6" x2="184.6" y2="404.2"/>
					<line class="st4" x1="384.2" y1="-258.8" x2="189.1" y2="407"/>
					<line class="st4" x1="388.7" y1="-256.1" x2="193.5" y2="409.7"/>
					<line class="st4" x1="393.1" y1="-253.3" x2="198" y2="412.5"/>
					<line class="st4" x1="397.6" y1="-250.6" x2="202.4" y2="415.2"/>
					<line class="st4" x1="402" y1="-247.9" x2="206.9" y2="418"/>
					<line class="st4" x1="406.5" y1="-245.1" x2="211.4" y2="420.7"/>
					<line class="st4" x1="410.9" y1="-242.4" x2="215.8" y2="423.5"/>
					<line class="st4" x1="195.8" y1="-368.7" x2="0.7" y2="297.1"/>
					<line class="st4" x1="290" y1="-313.3" x2="94.9" y2="352.5"/>
				</g>
				<g>
					<line class="st4" x1="415" y1="-240.2" x2="219.8" y2="425.6"/>
					<line class="st4" x1="419.4" y1="-237.4" x2="224.3" y2="428.4"/>
					<line class="st4" x1="423.9" y1="-234.7" x2="228.8" y2="431.1"/>
					<line class="st4" x1="428.3" y1="-231.9" x2="233.2" y2="433.9"/>
					<line class="st4" x1="432.8" y1="-229.2" x2="237.7" y2="436.6"/>
					<line class="st4" x1="437.2" y1="-226.5" x2="242.1" y2="439.4"/>
					<line class="st4" x1="441.7" y1="-223.7" x2="246.6" y2="442.1"/>
					<line class="st4" x1="446.2" y1="-221" x2="251" y2="444.9"/>
					<line class="st4" x1="450.6" y1="-218.2" x2="255.5" y2="447.6"/>
					<line class="st4" x1="455.1" y1="-215.5" x2="259.9" y2="450.3"/>
					<line class="st4" x1="459.5" y1="-212.7" x2="264.4" y2="453.1"/>
					<line class="st4" x1="464" y1="-210" x2="268.8" y2="455.8"/>
					<line class="st4" x1="468.4" y1="-207.2" x2="273.3" y2="458.6"/>
					<line class="st4" x1="472.9" y1="-204.5" x2="277.7" y2="461.3"/>
					<line class="st4" x1="477.3" y1="-201.7" x2="282.2" y2="464.1"/>
					<line class="st4" x1="481.8" y1="-199" x2="286.7" y2="466.8"/>
					<line class="st4" x1="486.2" y1="-196.2" x2="291.1" y2="469.6"/>
					<line class="st4" x1="490.7" y1="-193.5" x2="295.6" y2="472.3"/>
					<line class="st4" x1="495.2" y1="-190.8" x2="300" y2="475.1"/>
					<line class="st4" x1="499.6" y1="-188" x2="304.5" y2="477.8"/>
					<line class="st4" x1="504.1" y1="-185.3" x2="308.9" y2="480.5"/>
					<line class="st4" x1="508.5" y1="-182.5" x2="313.4" y2="483.3"/>
					<line class="st4" x1="513" y1="-179.8" x2="317.8" y2="486"/>
					<line class="st4" x1="517.4" y1="-177" x2="322.3" y2="488.8"/>
					<line class="st4" x1="521.9" y1="-174.3" x2="326.7" y2="491.5"/>
					<line class="st4" x1="526.3" y1="-171.5" x2="331.2" y2="494.3"/>
					<line class="st4" x1="530.8" y1="-168.8" x2="335.6" y2="497"/>
					<line class="st4" x1="535.2" y1="-166" x2="340.1" y2="499.8"/>
					<line class="st4" x1="539.7" y1="-163.3" x2="344.6" y2="502.5"/>
					<line class="st4" x1="544.1" y1="-160.6" x2="349" y2="505.3"/>
					<line class="st4" x1="548.6" y1="-157.8" x2="353.5" y2="508"/>
					<line class="st4" x1="553.1" y1="-155.1" x2="357.9" y2="510.8"/>
					<line class="st4" x1="557.5" y1="-152.3" x2="362.4" y2="513.5"/>
					<line class="st4" x1="562" y1="-149.6" x2="366.8" y2="516.2"/>
					<line class="st4" x1="566.4" y1="-146.8" x2="371.3" y2="519"/>
					<line class="st4" x1="570.9" y1="-144.1" x2="375.7" y2="521.7"/>
					<line class="st4" x1="579.8" y1="-138.6" x2="384.6" y2="527.2"/>
					<line class="st4" x1="584.2" y1="-135.8" x2="389.1" y2="530"/>
					<line class="st4" x1="588.7" y1="-133.1" x2="393.5" y2="532.7"/>
					<line class="st4" x1="593.1" y1="-130.4" x2="398" y2="535.5"/>
					<line class="st4" x1="597.6" y1="-127.6" x2="402.5" y2="538.2"/>
					<line class="st4" x1="602" y1="-124.9" x2="406.9" y2="541"/>
					<line class="st4" x1="606.5" y1="-122.1" x2="411.4" y2="543.7"/>
					<line class="st4" x1="611" y1="-119.4" x2="415.8" y2="546.4"/>
					<line class="st4" x1="615.4" y1="-116.6" x2="420.3" y2="549.2"/>
					<line class="st4" x1="619.9" y1="-113.9" x2="424.7" y2="551.9"/>
					<line class="st4" x1="624.3" y1="-111.1" x2="429.2" y2="554.7"/>
					<line class="st4" x1="628.8" y1="-108.4" x2="433.6" y2="557.4"/>
					<line class="st4" x1="633.2" y1="-105.6" x2="438.1" y2="560.2"/>
					<line class="st4" x1="637.7" y1="-102.9" x2="442.5" y2="562.9"/>
					<line class="st4" x1="642.1" y1="-100.1" x2="447" y2="565.7"/>
					<line class="st4" x1="646.6" y1="-97.4" x2="451.4" y2="568.4"/>
					<line class="st4" x1="651" y1="-94.7" x2="455.9" y2="571.2"/>
					<line class="st4" x1="655.5" y1="-91.9" x2="460.4" y2="573.9"/>
					<line class="st4" x1="659.9" y1="-89.2" x2="464.8" y2="576.6"/>
					<line class="st4" x1="664.4" y1="-86.4" x2="469.3" y2="579.4"/>
					<line class="st4" x1="673.3" y1="-80.9" x2="478.2" y2="584.9"/>
					<line class="st4" x1="677.8" y1="-78.2" x2="482.6" y2="587.6"/>
					<line class="st4" x1="682.2" y1="-75.4" x2="487.1" y2="590.4"/>
					<line class="st4" x1="686.7" y1="-72.7" x2="491.5" y2="593.1"/>
					<line class="st4" x1="691.1" y1="-69.9" x2="496" y2="595.9"/>
					<line class="st4" x1="695.6" y1="-67.2" x2="500.4" y2="598.6"/>
					<line class="st4" x1="700" y1="-64.5" x2="504.9" y2="601.4"/>
					<line class="st4" x1="704.5" y1="-61.7" x2="509.3" y2="604.1"/>
					<line class="st4" x1="708.9" y1="-59" x2="513.8" y2="606.9"/>
					<line class="st4" x1="713.4" y1="-56.2" x2="518.3" y2="609.6"/>
					<line class="st4" x1="717.8" y1="-53.5" x2="522.7" y2="612.3"/>
					<line class="st4" x1="722.3" y1="-50.7" x2="527.2" y2="615.1"/>
					<line class="st4" x1="726.8" y1="-48" x2="531.6" y2="617.8"/>
					<line class="st4" x1="731.2" y1="-45.2" x2="536.1" y2="620.6"/>
					<line class="st4" x1="735.7" y1="-42.5" x2="540.5" y2="623.3"/>
					<line class="st4" x1="740.1" y1="-39.7" x2="545" y2="626.1"/>
					<line class="st4" x1="744.6" y1="-37" x2="549.4" y2="628.8"/>
					<line class="st4" x1="749" y1="-34.3" x2="553.9" y2="631.6"/>
					<line class="st4" x1="753.5" y1="-31.5" x2="558.3" y2="634.3"/>
					<line class="st4" x1="757.9" y1="-28.8" x2="562.8" y2="637.1"/>
					<line class="st4" x1="762.4" y1="-26" x2="567.2" y2="639.8"/>
					<line class="st4" x1="766.8" y1="-23.3" x2="571.7" y2="642.5"/>
					<line class="st4" x1="771.3" y1="-20.5" x2="576.2" y2="645.3"/>
					<line class="st4" x1="775.7" y1="-17.8" x2="580.6" y2="648"/>
					<line class="st4" x1="780.2" y1="-15" x2="585.1" y2="650.8"/>
					<line class="st4" x1="784.7" y1="-12.3" x2="589.5" y2="653.5"/>
					<line class="st4" x1="789.1" y1="-9.5" x2="594" y2="656.3"/>
					<line class="st4" x1="574.4" y1="-136.7" x2="379.2" y2="529.1"/>
					<line class="st4" x1="669.1" y1="-86" x2="474" y2="579.8"/>
				</g>
			</g>
		</g>
	</g>
	<g>
		<polyline class="st5" points="99.7,5.1 114.6,63.6 48.3,70.6 99.5,3.5 		"/>
		<g>
			<path class="st2" d="M50.8,70.2c-0.2-1.4-1.5-2.4-2.8-2.2c-1.4,0.2-2.4,1.5-2.2,2.8c0.2,1.4,1.5,2.4,2.8,2.2
				C50,72.9,50.9,71.6,50.8,70.2z"/>
			<circle class="st6" cx="99.5" cy="3.5" r="1.7"/>
		</g>
		<g>
			<path class="st6" d="M116.4,63.5c-0.1-0.9-1-1.6-1.9-1.4c-0.9,0.1-1.6,1-1.4,1.9c0.1,0.9,1,1.6,1.9,1.4
				C115.9,65.2,116.5,64.4,116.4,63.5z"/>
		</g>
	</g>
	<g>
		<polyline class="st7" points="159.2,8.2 13.5,166.3 295.2,94.2 158.6,6.6 		"/>
		<g>
			<path class="st2" d="M292.9,95.2c-0.5-1.3,0.1-2.8,1.4-3.3s2.8,0.1,3.3,1.4s-0.1,2.8-1.4,3.3S293.4,96.4,292.9,95.2z"/>
			<path class="st1" d="M158.1,8.1c-0.4-0.9,0.1-1.8,0.9-2.2c0.9-0.4,1.8,0.1,2.2,0.9c0.4,0.9-0.1,1.8-0.9,2.2
				C159.5,9.4,158.5,9,158.1,8.1z"/>
		</g>
		<g>
			<path class="st1" d="M11.8,167.1c-0.4-0.9,0.1-1.8,0.9-2.2c0.9-0.4,1.8,0.1,2.2,0.9c0.4,0.9-0.1,1.8-0.9,2.2
				C13.2,168.4,12.2,168,11.8,167.1z"/>
		</g>
	</g>
	<g>
		<circle class="st2" cx="600" cy="124" r="7.6"/>
		<circle class="st6" cx="583.1" cy="127.5" r="7.6"/>
		<circle class="st1" cx="568" cy="136.5" r="7.6"/>
		<circle class="st8" cx="554.7" cy="148.1" r="7.6"/>
		<circle class="st9" cx="547.1" cy="163.5" r="7.6"/>
		<circle class="st10" cx="543.4" cy="180.7" r="7.6"/>
	</g>
</g>
</svg>
