<?xml version="1.0" encoding="utf-8"?>
<!-- Generator: Adobe Illustrator 19.1.0, SVG Export Plug-In . SVG Version: 6.00 Build 0)  -->
<svg version="1.0" id="レイヤー_1" xmlns="http://www.w3.org/2000/svg" xmlns:xlink="http://www.w3.org/1999/xlink" x="0px"
	 y="0px" viewBox="0 0 234 213" enable-background="new 0 0 234 213" xml:space="preserve">
<g>
	<g>
		<path fill="#1B2B79" d="M21.129,167.126c-3.046,2.552-6.846,4.831-10.53,6.027c-1.898,4.983-4.197,8.519-5.63,10.574l-1.495-0.519
			c1.234-1.593,3.557-4.705,5.549-9.562c-2.823,0.764-4.92,0.822-5.894,0.851c-0.471,2.635-1.335,4.481-1.767,5.441L0,179.695
			c2.972-6.263,1.96-9.874,1.598-11.214l1.313-1.043c0.172,0.68,0.324,1.192,0.444,2.184l7.571-7.725l0.817,0.801
			c0.714,3.283,0.103,6.508-0.609,8.867c4.872-1.812,8.079-4.714,9.281-5.829L21.129,167.126z M3.429,171.332
			c0.005,0.478,0.009,0.955-0.11,1.932c3.436-0.311,5.435-0.901,6.277-1.166c1.319-3.984,1.089-6.833,0.966-8.045L3.429,171.332z
			 M26.851,176.777l-1.019,1.039l-1.077-1.055L14.545,187.18l1.077,1.055l-1,1.021l-7.335-7.188l12.229-12.479L26.851,176.777z
			 M19.39,171.502L9.179,181.92l4.438,4.35l10.211-10.418L19.39,171.502z"/>
		<path fill="#1B2B79" d="M29.93,170.146c8.837-11.579,1.502-20.663-0.584-23.216l-13.121,13.389l-1.059-1.037l12.43-12.683
			c-0.148-0.072-0.277-0.163-0.501-0.382c-1.133-1.109-1.058-2.819-0.056-3.842c1.056-1.077,2.746-1.094,3.823-0.038
			c1.002,0.982,1.167,2.672,0.002,3.86c2.852,3.74,9.151,12.319,0.543,24.669L29.93,170.146z M27.878,145.382
			c0.612,0.601,1.604,0.591,2.206-0.022c0.618-0.631,0.571-1.623-0.022-2.205c-0.632-0.619-1.605-0.591-2.205,0.021
			C27.272,143.77,27.246,144.763,27.878,145.382z"/>
		<path fill="#1B2B79" d="M43.749,127.775l1.059,1.037l-12.192,12.441l-1.059-1.037L43.749,127.775z M49.353,131.046
			c7.168,8.845,4.588,15.49-1.04,22.571l-1.406-0.795c4.703-5.84,7.971-11.811,2.285-19.532l-13.414,13.688l-1.039-1.02
			L49.353,131.046z"/>
		<path fill="#1B2B79" d="M56.958,123.026c-2.734,0.524-6.176,1.957-8.425,3.211l-0.422-1.65c1.811-0.992,5.178-2.572,8.389-3.283
			L56.958,123.026z M60.636,137.625c5.237-5.678,8.256-14.442,2.446-25.489l1.501-0.641c1.277,2.598,3.812,7.96,3.161,14.604
			c-0.467,4.601-2.41,8.924-5.481,12.393L60.636,137.625z"/>
		<path fill="#1B2B79" d="M65.145,105.275c1.401,2.21,3.305,5.022,7.725,9.354c4.271,4.187,6.305,5.381,7.378,6.03l-1.091,1.336
			c-1.555-1.051-3.795-2.702-7.249-6.088c-2.989-2.93-5.834-6.008-8.058-9.535L65.145,105.275z M78.607,94.622l1.077,1.056
			l-8.554,8.729l-1.077-1.056L78.607,94.622z M78.065,108.399c0.447,2.33,1.616,3.477,1.84,3.695
			c2.023,1.983,4.52-0.191,6.541-2.254c0.273-0.279,2.855-3.025,3.98-4.471l1.207,1.183c-0.963,1.131-1.763,2.096-3.127,3.487
			c-2.312,2.359-6.279,6.407-9.641,3.113c-0.816-0.801-1.602-2.005-2.174-4.06L78.065,108.399z"/>
		<path fill="#1B2B79" d="M84.491,91.145c-2.263-0.032-4.045,0.152-5.971,0.447l-0.124-1.287c0.568-0.096,3.964-0.665,5.931-0.665
			L84.491,91.145z M92.998,99.737c1.147,0.725,4.238,2.734,7.987-1.091l8.917-9.1l0.82,1.058l-8.699,8.876
			c-3.312,3.38-6.242,2.729-7.532,2.449c0.365,1.743,0.451,4.591,0.389,5.843l-1.511-0.354c0.138-2.703,0.105-4.229-0.128-5.403
			l-5.199-5.096l-2.401,2.45l-0.984-0.965l3.421-3.49L92.998,99.737z M88.732,83.324c-0.282-0.603-0.376-0.804-1.312-2.561
			l1.295-0.951c0.15,0.403,0.903,2.124,1.035,2.473l5.042-5.145l4.772,4.678l-8.663,8.839l2.21,2.166l8.99-9.174l4.81,4.714
			l-9.991,10.194L85.129,87.001L88.732,83.324z M94.72,79.036l-7.68,7.836l2.972,2.911l7.68-7.836L94.72,79.036z M102.029,85.545
			l-8.007,8.17l3.008,2.948l8.008-8.17L102.029,85.545z"/>
		<path fill="#1B2B79" d="M97.05,71.161l0.982-1.003l3.398,3.331l3.804-3.881c8.486,8.391,10.867,11.014,11.639,12.9
			c0.435,1.043,0.407,1.963-0.686,3.077l-1.802,1.839l-1.241-0.889l2.058-1.987c0.601-0.577,0.614-1.109,0.016-2.134
			c-1.216-2.104-3.929-4.833-10.021-10.912l-2.838,2.896c6.555,6.424,9.142,11.362,8.951,16.274l-1.562-0.004
			c0.103-4.45-1.724-8.753-8.371-15.268l-3.258,3.323l-0.929-0.91l3.258-3.323L97.05,71.161z M111.054,59.584l15.654,15.342
			l-1.001,1.021l-1.689-1.656l-4.277,4.364l1.689,1.656l-0.946,0.965l-15.654-15.342L111.054,59.584z M110.963,61.497l-4.277,4.364
			l12.145,11.902l4.277-4.364L110.963,61.497z"/>
		<path fill="#1B2B79" d="M139.743,58.431c1.133,1.11,1.068,2.104,0.031,3.162l-3.295,3.362l-1.259-0.907l3.368-3.362
			c0.455-0.464,0.654-0.668-0.089-1.396l-13.444-13.176l-13.158,13.426l-0.983-0.965l16.652-16.991l0.983,0.965l-2.456,2.507
			L139.743,58.431z M132.161,59.628l-6.988,7.131l1.151,1.129l-0.966,0.985l-8.857-8.682l7.953-8.116L132.161,59.628z
			 M124.455,54.007l-6.023,6.146l5.775,5.659l6.023-6.146L124.455,54.007z"/>
		<path fill="#1B2B79" d="M133.337,35.992c1.693,0.13,4.547,0.524,6.611,1.055l-0.243,1.399c-0.535-0.16-0.978-0.302-2.011-0.512
			c-0.725,0.999-1.287,1.686-6.172,7.748l-1.148-0.871c0.237-0.206,0.945-1.04,1.218-1.318c-0.456-1.393-1.396-3.553-2.149-5.273
			l1.262-0.768c0.266,0.808,1.568,4.27,1.797,5.002c2.744-3.171,3.054-3.524,3.997-4.746c-1.842-0.312-2.56-0.398-3.388-0.482
			L133.337,35.992z M140.23,39.509l9.489,9.3c0.947,0.928,0.898,1.682-0.029,2.629l-1.874,1.912l-1.259-0.833l2.04-1.933
			c0.492-0.465,0.214-0.737-0.009-0.956l-2.748-2.693l-4.697,4.791l4.216,4.131l-0.965,0.985l-10.789-10.573L140.23,39.509z
			 M140.214,41.42l-4.696,4.791l1.875,1.839l4.696-4.791L140.214,41.42z M136.975,30.385l3.139,3.075
			c0.705-1.239,2.364-4.418,2.85-7.364l1.472,0.095c-0.523,2.838-2.346,6.294-3.468,8.107l2.451,2.402
			c0.372,0.363,0.688,0.673,1.362-0.015l3.494-3.565c0.672-0.687,0.909-0.928-1.656-3.696l1.281-0.64
			c2.286,2.533,2.976,3.465,1.575,4.895l-3.986,4.066c-1.146,1.17-1.976,1.013-2.848,0.158l-6.648-6.516L136.975,30.385z
			 M142.943,44.096l-4.696,4.791l2.024,1.983l4.696-4.791L142.943,44.096z M145.61,38.848l3.008,2.948
			c0.635-0.981,2.243-3.663,2.796-7.272l1.49,0.076c-0.468,2.892-2.271,6.292-3.395,8.069l2.377,2.33
			c0.576,0.563,0.854,0.727,1.673-0.109l3.295-3.361c0.508-0.519,0.524-0.722,0.318-1.143c-0.168-0.349-1.008-1.498-2.215-2.754
			l1.242-0.748c2.717,3.171,3.312,3.827,1.656,5.517l-3.568,3.641c-0.473,0.482-1.638,1.671-3.049,0.288l-6.611-6.479L145.61,38.848
			z"/>
		<path fill="#1B2B79" d="M148.886,18.975c0.82,1.169,1.492,2.081,2.145,3.05l4.313-4.401l1.059,1.038l-4.532,4.623
			c3.68,5.682,5.598,9.817,6.572,13.54l-1.687,0.533c-1.175-5.377-4.277-10.311-5.978-12.958l-3.53,3.602l-1.059-1.037l3.73-3.807
			c-0.896-1.315-1.659-2.281-2.272-3.029L148.886,18.975z M163.099,11.716c-0.51,0.446-0.747,0.652-1.385,1.303
			c-1.474,1.502-2.001,2.189-2.509,2.856l6.535,6.147c2.196-0.94,5.06-1.484,7.396-1.306l0.164,1.653
			c-2.89-0.283-5.017,0.326-6.427,0.763l1.058,1.037c1.096,1.074,1.542,1.511,1.862,2.336c0.888,2.363-0.985,4.387-1.567,4.98
			c-3.076,3.138-5.97,2.524-7.455,1.068c-1.3-1.274-2.433-4.316,0.952-7.77c1.146-1.171,1.951-1.656,2.571-2.03l-7.126-6.621
			c1.921-2.703,3.923-4.709,4.779-5.546L163.099,11.716z M165.408,23.772c-0.64,0.32-1.573,0.788-2.72,1.959
			c-2.275,2.321-2.069,4.451-0.825,5.671c2.247,2.202,4.903-0.509,5.304-0.917c2.33-2.377,1.23-3.782-0.329-5.312L165.408,23.772z"
			/>
		<path fill="#1B2B79" d="M34.058,212.055c1.748-5.312,1.741-13.254,0.49-18.813l-9.209,9.396l-1.059-1.037l9.301-9.49l-3.454-3.385
			l1.128-1.15l3.454,3.385l4.805-4.903l1.059,1.038l-4.805,4.902l9.545,9.355c1.504,1.474,1.48,2.688-0.286,4.488
			c-1.036,1.059-2.241,1.953-2.843,2.418l-1.244-1.071c0.822-0.615,1.917-1.436,3.045-2.586c0.874-0.892,0.943-1.371,0.219-2.081
			l-7.873-7.717c1.042,4.954,1.058,11.996-0.615,17.382L34.058,212.055z"/>
		<path fill="#1B2B79" d="M54.212,193.943c8.837-11.579,1.502-20.663-0.584-23.216l-13.121,13.389l-1.059-1.037l12.43-12.683
			c-0.148-0.072-0.277-0.163-0.5-0.381c-1.133-1.11-1.059-2.82-0.057-3.843c1.056-1.077,2.746-1.094,3.823-0.038
			c1.003,0.983,1.167,2.672,0.002,3.86c2.852,3.74,9.151,12.319,0.543,24.669L54.212,193.943z M52.16,169.18
			c0.612,0.601,1.605,0.591,2.207-0.022c0.618-0.631,0.57-1.622-0.023-2.205c-0.632-0.618-1.605-0.591-2.205,0.021
			C51.556,167.567,51.528,168.562,52.16,169.18z"/>
		<path fill="#1B2B79" d="M64.491,161.354c-1.322,0.345-3.595,0.955-7.617,3.202l-0.512-1.446c2.852-1.757,5.085-2.7,7.486-3.404
			L64.491,161.354z M67.472,167.226c-3.099,0.821-4.929,1.612-7.578,3.128l-0.531-1.502c2.34-1.384,4.334-2.305,7.523-3.256
			L67.472,167.226z M69.14,177.56c7.355-9.102,6.551-15.933,2.406-23.926l1.411-0.548c4.562,9.313,5.228,15.319-2.373,25.489
			L69.14,177.56z"/>
		<path fill="#1B2B79" d="M86.942,139.782l10.752,10.537l-9.973,10.176l-1.003-0.982l8.954-9.137l-4.159-4.077l-8.663,8.84
			l-0.966-0.946l8.663-8.84l-3.677-3.604l-8.772,8.951l-0.947-0.928L86.942,139.782z"/>
		<path fill="#1B2B79" d="M97.62,130.112c-2.735,0.525-6.177,1.957-8.426,3.211l-0.421-1.65c1.811-0.993,5.178-2.571,8.388-3.284
			L97.62,130.112z M101.297,144.711c5.237-5.679,8.258-14.442,2.446-25.489l1.501-0.641c1.276,2.599,3.812,7.959,3.163,14.604
			c-0.469,4.601-2.412,8.923-5.483,12.392L101.297,144.711z"/>
		<path fill="#1B2B79" d="M109.345,107.896c0.446,0.437,0.948,0.965,1.729,1.729c2.433,2.384,3.637,3.31,4.965,3.774
			c1.371-2.698,2.801-4.863,5.211-8.325l1.316,1.07c-2.212,2.927-10.668,14.081-6.119,18.54c2.544,2.493,5.206,0.261,9.884-4.513
			c3.002-3.063,4.745-5.214,5.509-6.142l1.225,1.129c-2.399,2.707-4.055,4.471-5.639,6.086c-3.33,3.399-8.171,8.302-12.016,4.534
			c-1.819-1.783-2.609-5.323-0.056-10.976c-1.882-0.679-3.571-2.263-3.887-2.572c-1.096-1.036-2.914-2.747-3.305-3.129
			L109.345,107.896z"/>
		<path fill="#1B2B79" d="M130.548,86.299l1.092-1.113l3.844,3.767l3.422-3.491l1.077,1.056l-3.422,3.491l2.804,2.748
			c1.838,1.802,4.228,5.308,3.496,9.472c-0.641,3.737-3.021,6.723-3.801,7.704l-1.533-0.701c0.836-1.001,3.18-3.802,3.805-7.448
			c0.73-4.2-2.909-7.768-3.058-7.913l-2.804-2.748l-7.371,7.521l5.459,5.351l-1.11,1.133l-5.459-5.351l-3.367,3.436l-1.077-1.056
			l3.367-3.436l-3.751-3.676l1.11-1.133l3.751,3.676l7.371-7.521L130.548,86.299z"/>
		<path fill="#1B2B79" d="M158.706,72.575l1.207,1.183l-16.16,16.489l-1.207-1.183L158.706,72.575z"/>
		<path fill="#1B2B79" d="M155.037,62.574l6.295,6.17c2.154-3.351,5.006-8.638,6.365-14.185l1.693,0.13
			c-1.071,4.956-4.99,12.001-6.981,15.11l4.698,4.604c1.485,1.456,1.929,1.672,4.804-1.262l4.805-4.902
			c1.219-1.244,2.91-3.155,3.944-4.546l1.168,1.001c-0.944,1.186-3.107,3.615-4.182,4.712l-4.769,4.865
			c-3.421,3.49-4.709,3.432-6.882,1.303l-12.089-11.849L155.037,62.574z M167.741,53.4c-0.554-0.216-2.013-0.77-3.873-1.139
			l0.447-1.31c1.271,0.153,2.634,0.545,3.87,1.029L167.741,53.4z M169.423,50.57c-0.296-0.107-2.141-0.715-3.816-0.973l0.446-1.347
			c1.398,0.206,2.414,0.472,3.779,0.973L169.423,50.57z"/>
		<path fill="#1B2B79" d="M182.986,62.845c1.987-5.223,3.476-14.505-1.404-24.347l-10.628,10.844l-1.059-1.038l12.048-12.293
			c2.113,3.528,3.514,7.411,4.068,11.488c1.157-0.141,6.335-0.78,12.588-0.845l-0.021,1.802c-3.493-0.112-9.467,0.188-12.367,0.549
			c0.451,4.739-0.033,9.543-1.66,14.026L182.986,62.845z"/>
		<path fill="#1B2B79" d="M192.379,22.429l2.86,2.803l7.006-7.149l12.516,12.267c1.337,1.311,1.435,1.88,0.215,3.124l-3.021,3.082
			l-1.257-0.796l3.147-3.139c0.438-0.447,0.416-0.648-0.048-1.104L202.08,20.033l-5.878,5.998c2.058,1.652,5.626,3.657,13.723,2.417
			l0.035,1.562c-4.188,0.446-8.547,0.361-12.372-1.53c2.003,3.565,2.896,6.259,1.432,12.545l-1.473-0.243
			c2.339-6.883-0.535-11.045-2.527-13.544l-5.896,6.017l13.296,13.03l-1.037,1.059l-14.187-13.904l6.988-7.131l-2.86-2.803
			L192.379,22.429z"/>
		<path fill="#1B2B79" d="M208.702,5.773l1.728,1.692L217.746,0l3.825,3.749l-1.002,1.023l-2.897-2.84l-13.685,13.963l2.897,2.84
			l-1.038,1.059l-3.825-3.749l7.353-7.502l-1.728-1.692L208.702,5.773z M207.639,20.714c0.88-2.05,1.719-4.65,1.539-7.811
			l1.285-0.271c0.329,3.564-0.923,7.033-1.405,8.381L207.639,20.714z M231.063,17.021l-1.021,1.04l-0.946-0.929l-9.646,9.843
			l0.946,0.929l-1,1.021l-6.258-6.134c-0.52,1.311-1.006,2.29-1.349,2.975l-1.346-0.337c2.164-4.104,3.987-9.381,3.33-12.647
			l1.091-1.113c3.296,0.427,7.86-0.962,12.394-3.619l0.474,1.449c-0.878,0.449-1.702,0.881-2.908,1.407L231.063,17.021z
			 M224.219,11.151c-2.289,0.924-4.014,1.311-4.654,1.444c-2.478,0.521-3.711,0.405-4.429,0.32c0.422,3.581-1.406,8.344-1.764,9.304
			L224.219,11.151z M214.746,7.222c2.868-0.104,5.161-0.623,7.946-1.607l0.161,1.433c-4.179,1.328-6.751,1.466-8.295,1.48
			L214.746,7.222z M224.528,12.656l-9.646,9.843l3.677,3.604l9.646-9.843L224.528,12.656z"/>
	</g>
</g>
</svg>
