<?xml version="1.0" encoding="utf-8"?>
<!-- Generator: Adobe Illustrator 19.2.1, SVG Export Plug-In . SVG Version: 6.00 Build 0)  -->
<svg version="1.1" id="レイヤー_1" xmlns="http://www.w3.org/2000/svg" xmlns:xlink="http://www.w3.org/1999/xlink" x="0px"
	 y="0px" viewBox="0 0 550 540" style="enable-background:new 0 0 550 540;" xml:space="preserve">
<style type="text/css">
	.st0{fill:none;stroke:#00C2EF;stroke-miterlimit:10;}
	.st1{fill:#00C2EF;}
	.st2{fill:#394D54;}
	.st3{fill:#00AADA;}
	.st4{fill:#24B8EB;}
	.st5{fill:#008BB8;}
	.st6{fill:#039BC6;}
	.st7{fill:#00ACD3;}
	.st8{fill:#20C2EF;}
	.st9{fill:#D4EDF1;}
	.st10{fill:#BFDBE0;}
	.st11{fill:#3A3A3A;}
</style>
<g>
	<line class="st0" x1="238" y1="228.8" x2="300" y2="228.8"/>
	<circle class="st1" cx="239.7" cy="229" r="3.7"/>
	<circle class="st1" cx="302.3" cy="229" r="3.7"/>
</g>
<g>
	<g>
		<path id="outline_4_" class="st2" d="M178.9,146.5h11.3V158h5.7c2.6,0,5.4-0.5,7.9-1.3c1.2-0.4,2.6-1,3.8-1.7
			c-1.6-2.1-2.4-4.7-2.7-7.3c-0.3-3.5,0.4-8.1,2.8-10.8l1.2-1.4l1.4,1.1c3.6,2.9,6.6,6.8,7.1,11.4c4.3-1.3,9.4-1,13.2,1.2l1.6,0.9
			l-0.8,1.6c-3.2,6.2-9.9,8.1-16.5,7.8c-9.8,24.3-31.2,35.8-57.2,35.8c-13.4,0-25.7-5-32.7-16.8v-0.2l-1-2.1
			c-2.4-5.2-3.2-10.9-2.6-16.6l0.2-1.7h9.7v-11.5h11.3v-11.1h22.7V124h13.6L178.9,146.5L178.9,146.5z"/>
		<g id="body_colors_4_">
			<path class="st3" d="M215.7,150.8c0.8-5.9-3.7-10.5-6.4-12.7c-3.2,3.6-3.7,13.1,1.3,17.1c-2.8,2.4-8.6,4.7-14.6,4.7h-72.7
				c-0.6,6.2,0.5,11.9,3,16.8l0.8,1.5c0.5,0.9,1.1,1.7,1.7,2.6l0,0c3,0.2,5.7,0.3,8.3,0.2l0,0c5-0.1,9-0.7,12.1-1.7
				c0.5-0.2,1,0.1,1.1,0.5c0.2,0.5-0.1,0.9-0.5,1.1c-0.4,0.1-0.8,0.3-1.3,0.4l0,0c-2.4,0.7-5,1.1-8.3,1.3c0.2,0-0.2,0-0.2,0
				c-0.1,0-0.3,0-0.4,0c-1.3,0.1-2.7,0.1-4.2,0.1c-1.6,0-3.1,0-4.9-0.1l0,0c6.1,6.8,15.5,10.8,27.4,10.8c25.1,0,46.5-11.1,55.9-35.9
				c6.7,0.7,13.1-1,16.1-6.7C225.2,148.2,219.2,149.1,215.7,150.8z"/>
			<path class="st4" d="M215.7,150.8c0.8-5.9-3.7-10.5-6.4-12.7c-3.2,3.6-3.7,13.1,1.3,17.1c-2.8,2.4-8.6,4.7-14.6,4.7h-68.4
				c-0.3,9.5,3.2,16.7,9.5,21l0,0c5-0.1,9-0.7,12.1-1.7c0.5-0.2,1,0.1,1.1,0.5c0.2,0.5-0.1,0.9-0.5,1.1c-0.4,0.1-0.8,0.3-1.3,0.4
				l0,0c-2.4,0.7-5.2,1.2-8.6,1.4l-0.1-0.1c8.6,4.4,21,4.3,35.2-1.1c15.9-6.1,30.8-17.7,41.1-30.9
				C216,150.6,215.9,150.7,215.7,150.8z"/>
			<path class="st5" d="M123.4,167.4c0.5,3.3,1.4,6.4,2.9,9.2l0.8,1.5c0.5,0.9,1.1,1.7,1.7,2.6c3,0.2,5.7,0.3,8.3,0.2
				c5-0.1,9-0.7,12.1-1.7c0.5-0.2,1,0.1,1.1,0.5c0.2,0.5-0.1,0.9-0.5,1.1c-0.4,0.1-0.8,0.3-1.3,0.4l0,0c-2.4,0.7-5.2,1.2-8.5,1.4
				c-0.1,0-0.3,0-0.4,0c-1.3,0.1-2.7,0.1-4.2,0.1c-1.6,0-3.2,0-5-0.1c6.1,6.8,15.6,10.8,27.5,10.8c21.5,0,40.2-8.1,51.1-26H123.4z"
				/>
			<path class="st6" d="M128.3,167.4c1.3,5.8,4.4,10.4,8.9,13.5c5-0.1,9-0.7,12.1-1.7c0.5-0.2,1,0.1,1.1,0.5
				c0.2,0.5-0.1,0.9-0.5,1.1c-0.4,0.1-0.8,0.3-1.3,0.4l0,0c-2.4,0.7-5.3,1.2-8.6,1.4c8.6,4.4,20.9,4.3,35.1-1.1
				c8.6-3.3,16.9-8.2,24.3-14L128.3,167.4L128.3,167.4z"/>
		</g>
		<g id="Containers_4_">
			<path class="st7" d="M141.4,149.2h0.8v8.1h-0.8V149.2z M139.9,149.2h0.8v8.1h-0.8V149.2z M138.4,149.2h0.8v8.1h-0.8V149.2z
				 M136.9,149.2h0.8v8.1h-0.8V149.2z M135.4,149.2h0.8v8.1h-0.8V149.2z M134,149.2h0.8v8.1H134V149.2z M133.2,148.4h9.8v9.8h-9.8
				V148.4z"/>
			<path class="st7" d="M152.8,138h0.8v8.1h-0.8V138z M151.3,138h0.8v8.1h-0.8V138z M149.8,138h0.8v8.1h-0.8V138z M148.3,138h0.8
				v8.1h-0.8V138z M146.8,138h0.8v8.1h-0.8V138z M145.3,138h0.8v8.1h-0.8V138z M144.5,137.1h9.8v9.8h-9.8V137.1z"/>
			<path class="st8" d="M152.8,149.2h0.8v8.1h-0.8V149.2z M151.3,149.2h0.8v8.1h-0.8V149.2z M149.8,149.2h0.8v8.1h-0.8V149.2z
				 M148.3,149.2h0.8v8.1h-0.8V149.2z M146.8,149.2h0.8v8.1h-0.8V149.2z M145.3,149.2h0.8v8.1h-0.8V149.2z M144.5,148.4h9.8v9.8
				h-9.8V148.4z"/>
			<path class="st7" d="M164.1,149.2h0.8v8.1h-0.8V149.2z M162.6,149.2h0.8v8.1h-0.8V149.2z M161.1,149.2h0.8v8.1h-0.8V149.2z
				 M159.6,149.2h0.8v8.1h-0.8V149.2z M158.1,149.2h0.8v8.1h-0.8V149.2z M156.7,149.2h0.8v8.1h-0.8V149.2z M155.9,148.4h9.8v9.8
				h-9.8V148.4z"/>
			<path class="st8" d="M164.1,138h0.8v8.1h-0.8V138z M162.6,138h0.8v8.1h-0.8V138z M161.1,138h0.8v8.1h-0.8V138z M159.6,138h0.8
				v8.1h-0.8V138z M158.1,138h0.8v8.1h-0.8V138z M156.7,138h0.8v8.1h-0.8V138z M155.9,137.1h9.8v9.8h-9.8V137.1z"/>
			<path class="st8" d="M175.5,149.2h0.8v8.1h-0.8V149.2z M174,149.2h0.8v8.1H174V149.2z M172.5,149.2h0.8v8.1h-0.8V149.2z
				 M171,149.2h0.8v8.1H171V149.2z M169.5,149.2h0.8v8.1h-0.8V149.2z M168,149.2h0.8v8.1H168V149.2z M167.2,148.4h9.8v9.8h-9.8
				V148.4z"/>
			<path class="st7" d="M175.5,138h0.8v8.1h-0.8V138z M174,138h0.8v8.1H174V138z M172.5,138h0.8v8.1h-0.8V138z M171,138h0.8v8.1H171
				V138z M169.5,138h0.8v8.1h-0.8V138z M168,138h0.8v8.1H168V138z M167.2,137.1h9.8v9.8h-9.8V137.1z"/>
			<path class="st8" d="M175.5,126.7h0.8v8.1h-0.8V126.7z M174,126.7h0.8v8.1H174V126.7z M172.5,126.7h0.8v8.1h-0.8V126.7z
				 M171,126.7h0.8v8.1H171V126.7z M169.5,126.7h0.8v8.1h-0.8V126.7z M168,126.7h0.8v8.1H168V126.7z M167.2,125.9h9.8v9.8h-9.8
				V125.9z"/>
			<path class="st7" d="M186.8,149.2h0.8v8.1h-0.8V149.2z M185.3,149.2h0.8v8.1h-0.8V149.2z M183.8,149.2h0.8v8.1h-0.8V149.2z
				 M182.3,149.2h0.8v8.1h-0.8V149.2z M180.8,149.2h0.8v8.1h-0.8V149.2z M179.4,149.2h0.8v8.1h-0.8V149.2z M178.6,148.4h9.8v9.8
				h-9.8V148.4z"/>
		</g>
		<path class="st9" d="M153.7,174c1.5,0,2.7,1.2,2.7,2.7s-1.2,2.7-2.7,2.7s-2.7-1.2-2.7-2.7S152.2,174,153.7,174"/>
		<path class="st2" d="M153.7,174.7c0.2,0,0.5,0,0.7,0.1c-0.2,0.1-0.4,0.4-0.4,0.7c0,0.4,0.4,0.8,0.8,0.8c0.3,0,0.6-0.2,0.7-0.4
			c0.1,0.2,0.1,0.5,0.1,0.7c0,1.1-0.9,1.9-1.9,1.9c-1.1,0-1.9-0.9-1.9-1.9C151.8,175.6,152.7,174.7,153.7,174.7"/>
		<path class="st2" d="M105.7,168.4h59.4h7.4H232c-2.8-0.7-8.7-1.6-7.7-5.2c-5,5.7-17.1,4-20.1,1.2c-3.4,4.9-23.1,3-24.5-0.8
			c-4.2,4.9-17.4,4.9-21.7,0c-1.4,3.8-21.1,5.6-24.5,0.8c-3,2.8-15.1,4.5-20.1-1.2C114.4,166.8,108.5,167.7,105.7,168.4"/>
		<path class="st10" d="M161,193.4c-6.7-3.2-10.4-7.5-12.5-12.2c-2.5,0.7-5.5,1.2-9,1.4c-1.3,0.1-2.7,0.1-4.1,0.1
			c-1.7,0-3.4,0-5.3-0.1c6.2,6.1,13.7,10.8,27.8,10.9C158.9,193.4,159.9,193.4,161,193.4z"/>
		<path class="st9" d="M151,185.5c-0.9-1.3-1.8-2.8-2.5-4.3c-2.5,0.7-5.5,1.2-9,1.4C141.9,183.9,145.3,185,151,185.5z"/>
	</g>
	<path class="st2" d="M364.6,173.6c3.9-3.3,7.8-6.6,11.6-9.9c1.3-1.1,2.8-2.3,4.1-3.5c-1.1-1.3-2.8-2.3-4.3-2.8
		c-3-1.1-6-0.8-8.8,0.8c-3.6,2.1-5.2,5.4-5,9.5c0.1,1.6,0.5,3.2,1.4,4.6C363.9,172.7,364.2,173.1,364.6,173.6 M369.1,176.7
		c1.9,0.7,4.1,0.6,6,0.2c1-0.4,3.6-1.5,4.5-1.4h0.1l0.1,0.1c0.6,0.3,1.1,0.7,1.4,1.2c0.7,1.4,0.4,2.7-1,3.5l-0.4,0.3
		c-5,2.8-10.2,2.4-15.2-0.2c-2.4-1.3-4.2-3.2-5.5-5.4l-0.3-0.5c-3.2-5.5-2.8-11.2,0.8-16.4c1.2-1.8,2.9-3.2,4.8-4.3l0.7-0.4
		c4.7-2.7,9.7-2.5,14.5-0.1c2.6,1.3,4.7,3.1,6.1,5.6l0.3,0.4c1,1.8-0.3,3.4-1.7,4.4c-1.6,1.2-3.3,2.7-4.8,4.1
		C376,170.8,372.6,173.7,369.1,176.7z M406.3,151.8h0.5c1.6,0,2.6,1,2.6,2.6c0,2.1-2.1,2.7-3.9,2.7c-2.4,0-4.6,1.4-6.2,3
		c-2,2-2.9,4.5-2.9,7.3V180c0,1.4-0.9,2.6-2.4,2.6h-0.4c-1.5,0-2.4-1.2-2.4-2.6v-13.3c0-5.1,2.5-9.3,6.7-12.2
		C400.4,152.7,403.2,151.8,406.3,151.8z M341.1,160.7c2-2,4.1-4,6.1-6c0.6-0.6,2.8-2.9,3.6-2.9h0.9h0.1c1.2,0.2,2.1,1,2.1,2.3v0.5
		c0,0.9-1,1.9-1.6,2.5c-1.2,1.3-2.5,2.5-3.7,3.7l-6.3,6.4c2.7,2.7,5.4,5.4,8.1,8.1c0.7,0.8,1.5,1.5,2.2,2.3c0.3,0.3,0.6,0.6,0.9,1
		c0.2,0.4,0.4,0.8,0.4,1.2v0.5v0.1c-0.3,1.2-1.1,2.1-2.4,2.1h-0.4c-0.9,0-1.8-1-2.4-1.5c-1.2-1.1-2.4-2.3-3.6-3.5l-4-3.9v6.3
		c0,1.4-0.9,2.6-2.4,2.6h-0.4c-1.5,0-2.4-1.2-2.4-2.6v-35.2c0-1.4,0.9-2.6,2.4-2.6h0.4c1.5,0,2.4,1.2,2.4,2.6L341.1,160.7
		L341.1,160.7z M324.1,157.2c-0.8-0.4-2.3-0.5-3.1-0.5c-4.4-0.2-7.5,2.3-9.4,6.1c-0.6,1.3-0.9,2.7-0.9,4.2c0,4.4,2.4,7.6,6.4,9.5
		c1.5,0.7,3.3,0.8,4.9,0.8c1.4,0,3.4-0.9,4.6-1.4l0.2-0.1h1h0.1c1.2,0.2,2.1,1,2.1,2.3v0.5c0,3.2-5.8,3.9-8,4
		c-7.8,0.5-13.7-3.7-15.9-11.1c-0.4-1.3-0.6-2.6-0.6-3.9v-1c0-5.6,2.8-10.1,7.7-12.9c2.3-1.3,4.8-2,7.4-2h1c2.8,0,5.4,0.8,7.7,2.3
		l0.2,0.1l0.1,0.2c0.2,0.4,0.5,0.9,0.5,1.4v0.5c0,1.3-1,2-2.2,2.3h-0.1h-0.3C326.6,158.3,324.8,157.5,324.1,157.2z M276.4,167.1
		c0,3.9,2,6.8,5.3,8.9c1.6,1,3.3,1.4,5.2,1.4c3.9,0,6.8-2,8.9-5.3c1-1.6,1.4-3.3,1.4-5.1c0-3.7-1.8-6.5-4.8-8.5
		c-1.7-1.1-3.5-1.7-5.5-1.7c-4.4,0-7.5,2.2-9.4,6.1C276.7,164.2,276.4,165.6,276.4,167.1z M286.2,151.6h0.7c6.1,0,10.7,2.9,13.6,8.2
		c1.2,2.1,1.8,4.4,1.8,6.8v1c0,5.6-2.8,10.1-7.7,13c-2.3,1.3-4.8,2-7.4,2h-1c-5.7,0-10.2-2.8-13.1-7.6c-1.3-2.2-2-4.7-2-7.3v-1
		c0-5.6,2.8-10.1,7.7-13C281.1,152.3,283.6,151.6,286.2,151.6z M242.1,167.1c0,4.1,2,7.1,5.6,9.1c1.5,0.8,3,1.2,4.7,1.2
		c4,0,7-1.9,9.1-5.3c1-1.6,1.4-3.3,1.4-5.1c0-3.5-1.7-6.3-4.5-8.3c-1.7-1.2-3.7-1.9-5.8-1.9c-4.4,0-7.5,2.2-9.4,6.1
		C242.4,164.2,242.1,165.6,242.1,167.1z M262.9,155.5v-11c0-1.4,0.9-2.6,2.4-2.6h0.4c1.5,0,2.4,1.2,2.4,2.6v23.1
		c0,5.6-2.8,10.1-7.7,13c-2.3,1.3-4.8,2-7.4,2h-1c-5.7,0-10.2-2.8-13.1-7.6c-1.3-2.2-2-4.7-2-7.3v-1c0-5.6,2.8-10.1,7.7-13
		c2.3-1.3,4.8-2,7.4-2h1C256.9,151.6,260.1,153.1,262.9,155.5z"/>
</g>
<g>
	<g>
		<path class="st11" d="M101.2,271.6v18.3H81.5v-1.5h18.1v-15.3H81.7v-1.5H101.2z"/>
		<path class="st11" d="M112.6,276.5c-2.3-1.6-5.7-3-8.2-3.8l0.9-1.5c2,0.6,5.5,1.9,8.2,3.7L112.6,276.5z M104.8,289.4
			c7.7-0.2,16.1-4.2,19.9-16.1l1.5,0.6c-1,2.7-3,8.3-8.2,12.5c-3.6,2.9-8.1,4.5-12.7,4.8L104.8,289.4z"/>
		<path class="st11" d="M149,277.3v1.5h-9.1v1c-0.2,7.4-3.2,10.7-10.2,12.1l-0.6-1.5c7.2-1.3,9-4.6,9.2-10.5l0.1-1.1h-11v-1.5H149z
			 M146.8,270.3v1.5h-17.3v-1.5H146.8z"/>
		<path class="st11" d="M160.7,275.3v-5.9h1.6v5.9h10.1v1.5h-10.1v1.1c0,9.6-6.6,12.4-10.1,13.8l-0.9-1.4c1.2-0.4,4.6-1.7,6.8-4.1
			c2.5-2.8,2.5-7.5,2.5-8.3v-1.1h-10.8v-1.5H160.7z"/>
		<path class="st11" d="M185.9,269.9v1.2h-2.8v4.1h3.5v1.2h-3.5v6.7h-1.4v-6.7h-3.4c-0.5,3.2-1.9,5.6-4.2,7.4l-1.1-1.1
			c1.6-1.2,3.6-3.2,3.9-6.3H173v-1.2h4v-4.1h-3.2v-1.2H185.9z M184.2,290.5v-4h-9.1v-1.2h9.1v-2.7h1.4v2.7h9.2v1.2h-9.2v4h11.3v1.3
			H173v-1.3H184.2z M181.7,271.1h-3.4v4.1h3.4V271.1z M189.8,270.3v9.9h-1.4v-9.9H189.8z M195.8,281.4c0,1.2-0.2,1.7-2,1.7H191
			l-0.3-1.3l2.9,0.1c0.7,0,0.8-0.2,0.8-0.8v-11.9h1.4L195.8,281.4L195.8,281.4z"/>
		<path class="st11" d="M207.8,290.2c3.1-0.3,10.5-1,10.5-9.3c0-2.2-0.7-9-9.2-9c-0.5,5.6-1.2,10.7-3.6,14.6
			c-1.6,2.6-3.2,3.1-4.2,3.1c-2.5,0-4.6-3.1-4.6-7.3c0-6.7,4.6-11.9,12.4-11.9c8.1,0,10.8,5.5,10.8,10.3c0,9.8-8.5,10.7-11.6,11
			L207.8,290.2z M198.2,282.3c0,2.2,0.8,5.7,3,5.7c1,0,1.9-0.7,2.9-2.3c2.4-3.9,3-9.6,3.3-13.7C200.7,272.6,198.2,277.7,198.2,282.3
			z"/>
		<path class="st11" d="M224.6,292.7h-1.4v-14.8c-1.4,2.1-2.3,3-2.7,3.4l-0.8-1.5c2.7-2.8,5.2-7.8,6.2-10.9l1.4,0.4
			c-0.3,1.1-0.9,3-2.7,6.2V292.7z M229.4,291.4c2.1-0.9,4.4-2,6.7-4c-2.7-3.5-3.5-6.9-3.8-8.6l1.3-0.3c1,4.4,2.6,6.8,3.4,7.9
			c3-3.2,3.7-7.7,3.8-8.9h-10.6v2.6c0,4.4-0.7,8.9-3.3,12.4l-1.1-1.1c2.8-3.9,2.9-8.6,2.9-11.3v-10.4h14.8v1.3h-13.4v5.2h12.3
			c-0.4,4.2-1.8,8.4-4.6,11.4c2.3,2.5,4.9,3.2,5.9,3.5l-0.7,1.4c-1.1-0.4-3.6-1.2-6.1-3.9c-2.7,2.5-5.5,3.6-6.9,4.1L229.4,291.4z"/>
		<path class="st11" d="M243.1,291.1c2-2,2.7-4,3.1-5.6l1.3,0.4c-0.5,2.2-1.4,4.2-3.1,6.1L243.1,291.1z M253,279.7
			c-0.9-0.9-1.8-2.1-3-4v8.1h-1.4v-8.1c-0.5,1.1-1.8,3.7-4.7,6.3l-0.8-1.4c1.2-1,3.7-3.3,5.4-7.3h-5V272h5.1v-3.2h1.4v3.2h4.3v1.3
			H250v0.5c1.2,2,3.4,4.2,4,4.8L253,279.7z M251,285.9v4.5c0,0.8,0.2,0.8,1,0.8h5.6c1.5,0,1.6-0.3,2-3.2l1.4,0.4
			c-0.4,2.9-0.8,4.1-2.8,4.1h-6.3c-1,0-2.4,0-2.4-1.8v-4.8H251z M256.3,288c-1.4-1.7-2.3-2.5-3.9-3.7l1-0.9c1.7,1.1,2.8,2.2,4.1,3.7
			L256.3,288z M265.7,283.5h-10.1v-13.8h10.1V283.5z M264.3,271H257v2.8h7.3V271z M264.3,275H257v2.9h7.3V275z M264.3,279.1H257v3.2
			h7.3V279.1z M265.9,291.7c-1.4-2.7-2.6-4.4-4.1-6.1l1.2-0.7c1.3,1.4,2.7,3.2,4.1,5.9L265.9,291.7z"/>
		<path class="st11" d="M272,292.7h-1.5v-14.8c-1.4,2-2.6,3-3.3,3.6l-0.9-1.3c2.8-2.2,5.5-6.1,7-11.1l1.5,0.4c-1,3-2.1,4.9-2.8,6.2
			L272,292.7L272,292.7z M289.8,275c-3.2,2.9-7.5,4.2-9.8,4.8v9.5c0,1,0,1.3,1.3,1.3h5.9c1,0,1.2-0.5,1.3-1c0.2-0.9,0.3-3,0.3-3.9
			l1.6,0.3c-0.2,5.3-1,6-2.7,6h-6.9c-1.7,0-2.3-0.6-2.3-1.9v-21.3h1.5v9.6c3.8-1.2,6-2.3,8.8-4.6L289.8,275z"/>
		<path class="st11" d="M296.4,279.7c-1.6-3.5-3.8-6.2-4.7-7.3l1.4-0.8c2,2.3,3.7,4.9,4.8,7.3L296.4,279.7z M294,290.1
			c11.7-2.5,15-11.1,16.5-19.3l1.7,0.3c-1.1,5.5-3.7,17.6-17.5,20.5L294,290.1z"/>
		<path class="st11" d="M335.6,271.3c-0.4,5.2-1.7,17.3-16.9,20.2l-0.6-1.5c13.7-2.7,15.2-12,15.6-17.2h-18.5v-1.5H335.6z"/>
		<path class="st11" d="M346.2,269.2v7.2c5,1.5,10.2,4.2,13.4,5.9l-0.8,1.6c-3.5-2.2-8.1-4.4-12.6-5.9v14.1h-1.7v-22.9L346.2,269.2
			L346.2,269.2z"/>
		<path class="st11" d="M372.9,269.1v4.4h9v1.8c0,4.8-1.2,9.3-4.7,12.2c-4.2,3.5-9.4,4-11.6,4.2l-0.5-1.5c1.9-0.2,7-0.7,11.1-4
			c2.1-1.7,3.9-4.5,3.9-10.7v-0.6h-16.3v7h-1.6v-8.4h8.8v-4.4H372.9z"/>
		<path class="st11" d="M403.3,275.8v1.4h-7.2V289h8.4v1.4h-18V289h8.1v-11.8h-6.9v-1.4H403.3z"/>
		<path class="st11" d="M429.9,270.4c-0.9,5.5-3.7,8.3-8.6,10.6l-0.9-1.4c5.3-2,6.9-5,7.5-7.7H408v-1.5H429.9z M408.7,290.3
			c7.9-3.6,8.3-9.5,8.3-15.4h1.6c-0.1,5.3-0.1,12.5-8.9,16.8L408.7,290.3z"/>
		<path class="st11" d="M438.6,288.2c0,2.1-1.7,3.7-3.7,3.7c-2.1,0-3.7-1.6-3.7-3.7s1.7-3.7,3.7-3.7
			C436.9,284.5,438.6,286.1,438.6,288.2z M432.4,288.2c0,1.4,1.1,2.5,2.5,2.5s2.5-1.1,2.5-2.5s-1.1-2.5-2.5-2.5
			S432.4,286.8,432.4,288.2z"/>
		<path class="st11" d="M184.2,308.4c-0.9,5.5-3.7,8.3-8.6,10.6l-0.9-1.4c5.3-2,6.9-5,7.5-7.7h-19.8v-1.5H184.2z M163,328.3
			c7.9-3.6,8.3-9.5,8.3-15.4h1.6c-0.1,5.3-0.1,12.5-8.9,16.8L163,328.3z"/>
		<path class="st11" d="M188.8,328.2c14.5-1.8,15.8-13.4,16.2-16.7h-18.7V310H204c-0.1-0.2-0.1-0.3-0.1-0.6c0-1.6,1.3-2.7,2.7-2.7
			c1.5,0,2.7,1.2,2.7,2.7c0,1.4-1.1,2.7-2.8,2.7c-0.7,4.7-2.4,15.2-17.2,17.7L188.8,328.2z M205,309.4c0,0.9,0.7,1.6,1.6,1.6
			c0.9,0,1.6-0.7,1.6-1.6s-0.7-1.6-1.6-1.6S205,308.5,205,309.4z"/>
		<path class="st11" d="M213.6,322.6H212v-14.4h1.6V322.6z M227.8,319.2c0,8.6-7,10.3-14.2,10.6l-0.3-1.5c9.4-0.2,12.9-2.9,12.9-9
			v-11.6h1.6V319.2z"/>
		<path class="st11" d="M254.5,312.4v1.5h-6.8c-0.7,6.9-2.1,14-12.6,16l-0.6-1.5c7.4-1.5,10.7-5.1,11.5-14.5h-8.2
			c-1.6,3.7-4.1,5.6-4.9,6.2l-1.1-1.2c1.5-1.1,5.1-3.7,6.3-11.6l1.7,0.2c-0.4,1.8-0.8,3.2-1.4,4.9H254.5z"/>
		<path class="st11" d="M278.4,317.9v1.7h-23.1v-1.7H278.4z"/>
		<path class="st11" d="M287.3,319c-2.8-1.6-4.6-2.4-7.5-3.2l0.7-1.4c2.6,0.7,4.7,1.5,7.6,3.1L287.3,319z M281.1,327.4
			c11.6-1.1,16-6.5,18.8-15l1.4,0.6c-3.5,9.8-7.3,14.5-19.9,16.1L281.1,327.4z M289.4,312.7c-1.2-0.7-3.2-1.9-7.6-3.2l0.7-1.4
			c3.2,0.8,5.5,1.7,7.7,3L289.4,312.7z"/>
		<path class="st11" d="M320.6,313.7v15.1h-14.2v-1.5h12.8v-5.8h-12.4v-1.4h12.4V315h-12.5v-1.3L320.6,313.7L320.6,313.7z"/>
		<path class="st11" d="M334.9,314.5c-2.3-1.6-5.7-3-8.2-3.8l0.9-1.5c2,0.6,5.5,1.9,8.2,3.7L334.9,314.5z M327.1,327.4
			c7.7-0.2,16.1-4.2,19.9-16.1l1.5,0.6c-1,2.7-3,8.3-8.2,12.5c-3.6,2.9-8.1,4.5-12.7,4.8L327.1,327.4z"/>
		<path class="st11" d="M358.7,307c-0.2,0.8-0.3,1.6-0.7,3.2h11.8v1.5h-12.2c-1,3-1.7,4.1-2.1,4.7c0.8-0.6,2.5-2,5-2
			c3.2,0,3.6,2.3,3.8,3.5c4-1.6,4.4-1.8,7-2.8l0.6,1.6c-2.5,0.8-5.1,1.7-7.4,2.6c0.1,1.1,0.2,2.7,0.2,3.7c0,0.4,0,1-0.1,1.8H363
			c0.1-0.8,0.1-1.4,0.1-2.7c0-0.2,0-1.1-0.1-2.1c-3.4,1.5-6.4,3.5-6.4,5.8c0,2.7,3.7,2.7,6.4,2.7c3.6,0,6.1-0.3,7.3-0.4l0.1,1.6
			c-1.4,0.1-3.5,0.3-6.7,0.3c-2.8,0-8.6,0-8.6-4c0-3.2,3.9-5.7,7.7-7.4c-0.2-1.2-0.5-2.8-2.6-2.8c-2.7,0-5.1,2.4-5.4,2.8
			s-3.5,4.5-4.3,5.3l-1.1-1.3c1.4-1.3,4.2-3.9,6.5-10.8H350v-1.5h6.4c0.4-1.6,0.5-2.5,0.6-3.3H358.7z"/>
		<path class="st11" d="M115.4,345.7h-7.1v23H107v-24.4h8.5L115.4,345.7L115.4,345.7z"/>
		<path class="st11" d="M136.4,347.6v18.3h-19.7v-1.5h18.1v-15.3h-17.9v-1.5H136.4z"/>
		<path class="st11" d="M147.7,352.5c-2.3-1.6-5.7-3-8.2-3.8l0.9-1.5c2,0.6,5.5,1.9,8.2,3.7L147.7,352.5z M139.9,365.4
			c7.7-0.2,16.1-4.2,19.9-16.1l1.5,0.6c-1,2.7-3,8.3-8.2,12.5c-3.6,2.9-8.1,4.5-12.7,4.8L139.9,365.4z"/>
		<path class="st11" d="M184.1,353.3v1.5H175v1c-0.2,7.4-3.2,10.7-10.2,12.1l-0.7-1.5c7.2-1.3,9-4.6,9.2-10.5l0.1-1.1h-11v-1.5
			H184.1z M181.9,346.3v1.5h-17.3v-1.5H181.9z"/>
		<path class="st11" d="M195.8,351.3v-5.9h1.6v5.9h10.1v1.5h-10.1v1.1c0,9.6-6.6,12.4-10.1,13.8l-0.9-1.4c1.2-0.4,4.6-1.7,6.8-4.1
			c2.5-2.8,2.5-7.5,2.5-8.3v-1.1H185v-1.5H195.8z"/>
		<path class="st11" d="M207.7,367.8h7.1v-23h1.4v24.4h-8.5V367.8z"/>
		<path class="st11" d="M236.3,345.9c-0.6,2.5-1.3,5.9-1.3,12.1c0,6,0.6,8.3,0.9,9.5l-1.7,0.2c-0.3-1.8-0.7-4.6-0.7-9.4
			c0-4.2,0.2-8.4,1.2-12.4L236.3,345.9z M243.2,357.4c-1.4,2-1.4,3.6-1.4,3.9c0,2.8,3.3,3.1,6.2,3.1c0.4,0,4.2-0.1,6-0.3v1.7
			c-1.5,0.1-2.7,0.2-4.7,0.2c-3.3,0-9,0-9-4.7c0-1.1,0.3-2.5,1.4-4.4L243.2,357.4z M253.4,348.1v1.5h-12.2v-1.5H253.4z"/>
		<path class="st11" d="M254.8,366.2c2.8-3,5.8-7.9,6.1-19.6l1.7,0.3c-0.7,11-2.9,16.4-6.6,20.4L254.8,366.2z M271.7,346.7
			c0.7,11.6,3.8,16.3,6.9,19.6l-1.4,1.2c-3.6-3.8-6.3-9.1-7.2-20.5L271.7,346.7z M278.7,347.5c0,1.5-1.2,2.7-2.7,2.7
			s-2.7-1.2-2.7-2.7s1.2-2.7,2.7-2.7C277.5,344.7,278.7,345.9,278.7,347.5z M274.5,347.5c0,0.9,0.7,1.6,1.6,1.6s1.6-0.7,1.6-1.6
			s-0.7-1.6-1.6-1.6S274.5,346.6,274.5,347.5z"/>
		<path class="st11" d="M284.1,359.1c-0.4-2.6-1.2-4.6-2.1-6.4l1.4-0.4c1.3,2.6,2,5.1,2.3,6.4L284.1,359.1z M284.2,366.8
			c6.1-1.2,12.1-4.1,13.5-15.1l1.5,0.3c-1.9,10.9-7,14.4-14.4,16.1L284.2,366.8z M289.9,357.9c-0.3-2.1-0.9-4.2-1.7-6.2l1.3-0.3
			c0.6,1.5,1.6,4.4,1.9,6.2L289.9,357.9z"/>
		<path class="st11" d="M324.7,350.4v1.5h-6.8c-0.7,6.9-2.1,14-12.6,16l-0.6-1.5c7.4-1.5,10.7-5.1,11.5-14.5H308
			c-1.6,3.7-4.1,5.6-4.9,6.2l-1.1-1.2c1.5-1.1,5.1-3.7,6.3-11.6l1.7,0.2c-0.4,1.8-0.8,3.2-1.4,4.9H324.7z"/>
		<path class="st11" d="M348.6,355.9v1.7h-23.1v-1.7H348.6z"/>
		<path class="st11" d="M357.6,356.9c-2.5-1.4-4.9-2.4-7.6-3.1l0.7-1.4c2.9,0.7,6.3,2.3,7.6,3L357.6,356.9z M351.3,365.4
			c12.7-1.2,16.3-7.5,18.7-15.1l1.5,0.7c-3.2,9.9-8.2,14.7-19.7,16.1L351.3,365.4z M359.7,350.7c-2.2-1.2-4.6-2.3-7.7-3.1l0.7-1.4
			c1.2,0.3,3.2,0.8,7.6,3L359.7,350.7z M368.3,349.7c-0.8-1.6-1.3-2.4-2.2-3.7l1.2-0.6c1.3,1.4,2,3,2.3,3.6L368.3,349.7z
			 M371.3,348.4c-0.5-1-1.2-2.2-2.3-3.6l1.2-0.6c1.2,1.3,2,2.7,2.3,3.4L371.3,348.4z"/>
		<path class="st11" d="M381.7,352.5c-2.3-1.6-5.7-3-8.2-3.8l0.9-1.5c2,0.6,5.5,1.9,8.2,3.7L381.7,352.5z M373.9,365.4
			c7.7-0.2,16.1-4.2,19.9-16.1l1.5,0.6c-1,2.7-3,8.3-8.2,12.5c-3.6,2.9-8.1,4.5-12.7,4.8L373.9,365.4z"/>
		<path class="st11" d="M396.9,355.6c5.3-3.4,7.7-8.5,8.6-10.5l1.8,0.3c-0.4,1-0.9,2-1.9,3.6h11.9c-1,4.7-2.9,9.2-6.1,12.8
			c-3.4,3.7-7.4,5.1-12.1,6.2l-0.7-1.5c4.1-0.7,13.5-2.7,16.8-16h-10.7c-1.3,1.8-3.6,4.7-6.4,6.4L396.9,355.6z M415,348.3
			c-0.6-1.7-1-2.6-1.5-3.5l1.3-0.4c0.7,1.1,1.3,2.5,1.6,3.4L415,348.3z M418.2,348c-0.2-0.4-1-2.5-1.7-3.5l1.3-0.4
			c0.4,0.8,1.2,2.3,1.7,3.5L418.2,348z"/>
		<path class="st11" d="M425.2,345.6c0,2-0.3,10.9-0.3,12.8c0,4.1,0.2,7.8,5.8,7.8c5.5,0,7-3,7.6-4.1c0.8-1.5,1.2-3.9,1.4-5.1
			l1.5,0.4c-0.6,3.7-1.7,10.3-10.2,10.3c-7,0-7.8-4-7.8-9.6c0-2,0.2-10.7,0.2-12.5L425.2,345.6L425.2,345.6z"/>
		<path class="st11" d="M125.7,386.6c-2.2-0.2-2.4-0.2-3-0.2c-1.6,0-2.1,0.2-2.5,0.3c-4.3,1.6-9.7,5.8-9.7,10.8
			c0,3.1,1.7,4.5,4.2,5.4c2.7,1,5.9,1.1,8.5,1.1l-0.4,1.7c-6.8-0.3-13.9-1.5-13.9-8c0-5.1,4.3-8.8,8.9-11.3
			c-2.7,0.1-11.6,0.6-14.3,0.9l-0.2-1.7c1.1,0,5.7-0.2,7.9-0.3c7.1-0.4,8.9-0.4,14.5-0.4V386.6z"/>
		<path class="st11" d="M131,405.9c-1.5-2.3-2.6-3.5-4-4.9l1.4-1.1c1.7,1.6,3.3,3.5,4.2,4.9L131,405.9z"/>
		<path class="st11" d="M172.3,391.2v1.5h-9.2v1.1c0,2.3-0.5,5.8-2.5,8.2c-1.8,2.2-4.5,3.2-7.6,3.8l-0.6-1.5
			c3.2-0.6,5.6-1.5,7.3-3.6c1.9-2.5,1.9-6.4,1.9-6.9v-1h-10.9v-1.5h21.6V391.2z M167.4,384.3v1.5h-14.7v-1.5H167.4z M170,388.4
			c-0.3-1-1-2.6-1.7-3.8l1.2-0.6c0.5,0.9,1.6,2.9,1.9,3.8L170,388.4z M172.9,387.1c-0.2-0.5-1-2.2-2-3.8l1.2-0.6
			c0.8,1.1,1.5,2.5,2,3.6L172.9,387.1z"/>
		<path class="st11" d="M177.1,404.2c14.5-1.8,15.8-13.4,16.2-16.7h-18.7V386h17.8c-0.1-0.2-0.1-0.3-0.1-0.6c0-1.6,1.3-2.7,2.7-2.7
			c1.5,0,2.7,1.2,2.7,2.7c0,1.4-1.1,2.7-2.8,2.7c-0.7,4.7-2.4,15.2-17.2,17.7L177.1,404.2z M193.3,385.4c0,0.9,0.7,1.6,1.6,1.6
			c0.9,0,1.6-0.7,1.6-1.6s-0.7-1.6-1.6-1.6S193.3,384.5,193.3,385.4z"/>
		<path class="st11" d="M218.4,385.6V404h-20.2v-18.4H218.4z M216.9,387.1h-17.1v15.3h17.1V387.1z"/>
		<path class="st11" d="M234.3,406.1h-1.6v-13.4c-3.5,2.6-7.3,4.7-11.5,6.1l-0.7-1.5c3.7-1.1,12.6-5,19.3-13.9l1.6,0.9
			c-3.5,4.3-6.4,6.6-7,7.1v14.7L234.3,406.1L234.3,406.1z"/>
		<path class="st11" d="M248,405.9c-1.5-2.3-2.6-3.5-4-4.9l1.4-1.1c1.7,1.6,3.3,3.5,4.2,4.9L248,405.9z"/>
		<path class="st11" d="M269.4,390.6v-1.2h8.4v-2.1h1.5v2.1h8.5v1.2h-8.5v2.9h8.5v1.2h-8.5c0,0.9-0.1,1.7-0.4,3h11.6v1.2H280
			c1.7,3.3,4.5,5.1,10.5,6.4l-0.5,1.4c-7-1.6-9.7-4.3-11.4-7.7h-0.1c-2,4.8-7.4,6.8-11.1,7.6l-0.8-1.4c7.9-1.7,9.5-4.6,10.2-6.3
			h-10.2v-1.2h10.7c0.3-1.1,0.4-2.1,0.5-3h-8.4v-1.2h8.4v-2.9L269.4,390.6L269.4,390.6z M279.3,382.8v2.2h10.5v5.1h-1.5v-3.8h-19.5
			v3.8h-1.5V385h10.5v-2.2L279.3,382.8L279.3,382.8z"/>
		<path class="st11" d="M289.7,396.6c3.5-2.5,5.6-5.8,6.8-8.2l1.1,0.6c-0.4,0.7-1.1,2.1-2.7,4.2v13.4h-1.5V395
			c-1.7,1.8-2.8,2.5-3.4,2.9L289.7,396.6z M297,383.4c-3,4.9-5.5,6.4-6.5,7.1l-0.5-1.4c2.4-1.3,4.7-4.1,5.9-6.3L297,383.4z
			 M313.9,392.4h-4.4v12.3c0,0.6,0,1.9-1.8,1.9h-4.2l-0.2-1.6l4,0.1c0.6,0,0.7-0.1,0.7-0.7v-12h-9.6v-1.3h15.5V392.4z M312.8,385.4
			h-13.4V384h13.4V385.4z"/>
		<path class="st11" d="M336.3,386.6c-1.6-0.1-2.5-0.2-3.2-0.2c-1.4,0-1.9,0.2-3,0.6c-3.3,1.3-5.5,3.5-6.9,5.3
			c-1.7,2.1-2.1,3.8-2.1,5.3c0,3,1.7,4.5,4.2,5.4c2.7,0.9,5.9,1.1,8.5,1.1l-0.4,1.7c-6.9-0.3-13.9-1.5-13.9-8c0-4.6,3.5-8.4,9-11.3
			c-4,0.1-11.9,0.6-14.3,0.9l-0.2-1.7c0.8,0,6.6-0.3,9.6-0.4c5.7-0.3,7.2-0.3,12.8-0.3v1.6H336.3z M332.7,394.2
			c-0.2-0.4-1-2.3-2.1-3.8l1.2-0.6c1,1.2,1.5,2.1,2.3,3.6L332.7,394.2z M335.5,392.8c-0.5-1.2-1.3-2.4-2.1-3.5l1.2-0.6
			c0.7,0.9,1.7,2.3,2.3,3.5L335.5,392.8z"/>
		<path class="st11" d="M349.4,383.6c0.1,0.9,0.2,1.9,0.5,3.4c1.4-0.1,4.3-0.2,7.7-0.8l0.1,1.6c-3.5,0.5-5.7,0.6-7.5,0.6
			c0.5,1.9,0.8,2.9,1.1,3.7c2.5-0.1,5.8-0.3,8.2-0.9l0.1,1.6c-1.9,0.4-5.6,0.7-7.7,0.7c1.2,2.6,2.4,4.2,3.1,5.1l-1.3,1
			c-0.8-1-2.2-2.8-3.6-6.1c-2.7,0.1-3.4,0.2-5.3,0.1l-7.2-0.1v-1.2l7.2,0.1c1,0,2.9,0,4.8-0.1c-0.5-1.5-0.7-2.2-1.1-3.7
			c-2,0.1-3.4,0.1-4.1,0.1h-5.7v-1.5l5.5,0.1c2,0,3.9-0.1,4-0.1c-0.3-1.5-0.4-2.6-0.5-3.5h1.7L349.4,383.6L349.4,383.6z M344.5,397
			c-1.3,0.9-2.8,2.2-2.8,3.7c0,3.4,5.8,3.5,9.9,3.5c3,0,4.4-0.1,5.4-0.2v1.6c-1,0.1-2.2,0.2-5.4,0.2c-5.8,0-7.5-0.6-8.5-1.1
			c-0.7-0.3-3-1.5-3-3.7c0-2.1,1.6-3.8,3.3-5L344.5,397z"/>
		<path class="st11" d="M372.1,386.6v-3.1h1.5v3.1h8.9v1.4h-8.9v4h8.4v1.4h-8.4v4.3c1.1,0.4,4.1,1.4,8.3,5l-1,1.5
			c-2.4-2.5-4.2-3.8-7.2-5.1v2c0,3.2-1.8,4.8-5.3,4.8c-4.7,0-6-2.4-6-4.3c0-2.7,2.7-4.7,6.7-4.7c1.4,0,2.5,0.2,3.1,0.3v-3.9H362
			v-1.4h10.2v-4h-10.6v-1.4L372.1,386.6L372.1,386.6z M372.1,398.6c-0.6-0.2-1.4-0.4-2.9-0.4c-2.9,0-5.4,1.1-5.4,3.3
			c0,2.5,2.9,2.9,4.4,2.9c3.1,0,3.9-1.2,3.9-3.5V398.6z"/>
		<path class="st11" d="M397.9,383.3h1.6v3.3h7.2v1.4h-7.2v5.4c0.1,0.4,0.2,1,0.4,1.7c0.1,0.7,0.2,1.5,0.2,2.4
			c0,4.8-2.7,8.2-10.7,8.6l-0.5-1.5c9.2,0.1,9.8-4.9,10-7.1c-0.4,1-1.4,3.4-5,3.4c-3.5,0-4.9-2.8-4.9-5.1c0-2.7,1.7-5.5,5.5-5.5
			c2.2,0,3.1,1,3.5,1.4V388h-13.8v-1.4h13.7L397.9,383.3z M398,394.5c0-0.2-0.5-2.8-3.5-2.8c-2.1,0-3.9,1.2-3.9,3.8
			c0,1.4,0.8,3.9,3.5,3.9c0.8,0,1.6-0.2,2.4-0.7c1.1-0.7,1.6-2.5,1.6-3v-1.2L398,394.5L398,394.5z"/>
		<path class="st11" d="M415.2,402.2c0,2.1-1.7,3.7-3.7,3.7c-2.1,0-3.7-1.6-3.7-3.7s1.7-3.7,3.7-3.7
			C413.5,398.5,415.2,400.1,415.2,402.2z M409,402.2c0,1.4,1.1,2.5,2.5,2.5s2.5-1.1,2.5-2.5s-1.1-2.5-2.5-2.5S409,400.8,409,402.2z"
			/>
	</g>
</g>
<g>
	<path class="st1" d="M271.3,0.3c-2.4,0-4.7,0-7.1,0.1l0.6,22.6c2.1-0.1,4.3-0.1,6.5-0.1V0.3L271.3,0.3L271.3,0.3z M257.2,0.6
		c-2.4,0.1-4.7,0.3-7.1,0.5l1.8,22.5c2.1-0.2,4.3-0.3,6.5-0.4L257.2,0.6L257.2,0.6z M243.1,1.7c-2.3,0.2-4.7,0.5-7,0.8L239,25
		c2.1-0.3,4.3-0.5,6.4-0.8L243.1,1.7L243.1,1.7z M229.1,3.5c-2.3,0.4-4.7,0.8-7,1.2l4.1,22.2c2.1-0.4,4.3-0.8,6.4-1.1L229.1,3.5
		L229.1,3.5z M215.2,6.1c-2.3,0.5-4.6,1-6.9,1.6l5.3,22c2.1-0.5,4.2-1,6.3-1.4L215.2,6.1L215.2,6.1z M201.4,9.4
		c-2.3,0.6-4.5,1.2-6.8,1.9L201,33c2.1-0.6,4.2-1.2,6.2-1.8L201.4,9.4L201.4,9.4z M187.9,13.4c-2.2,0.7-4.5,1.5-6.7,2.3l7.5,21.3
		c2-0.7,4.1-1.4,6.1-2.1L187.9,13.4L187.9,13.4z M174.5,18.1c-2.2,0.8-4.4,1.7-6.6,2.6l8.7,20.9c2-0.8,4-1.6,6-2.4L174.5,18.1
		L174.5,18.1z M161.5,23.5c-2.2,1-4.3,1.9-6.4,3l9.7,20.4c1.9-0.9,3.9-1.8,5.9-2.7L161.5,23.5L161.5,23.5z M148.7,29.6
		c-2.1,1.1-4.2,2.2-6.3,3.3l10.8,19.9c1.9-1,3.8-2,5.7-3L148.7,29.6L148.7,29.6z M136.3,36.4c-2,1.2-4.1,2.4-6.1,3.6l11.8,19.3
		c1.8-1.1,3.7-2.2,5.6-3.3L136.3,36.4L136.3,36.4z M124.3,43.8c-2,1.3-3.9,2.6-5.9,3.9l12.8,18.6c1.8-1.2,3.6-2.4,5.4-3.6
		L124.3,43.8L124.3,43.8z M112.6,51.8c-1.9,1.4-3.8,2.8-5.7,4.2l13.8,17.9c1.7-1.3,3.5-2.6,5.2-3.9L112.6,51.8L112.6,51.8z
		 M101.4,60.4c-1.8,1.5-3.6,3-5.4,4.5l14.7,17.2c1.6-1.4,3.3-2.8,5-4.1L101.4,60.4L101.4,60.4z M90.7,69.6c-1.8,1.6-3.5,3.2-5.2,4.8
		L101,90.8c1.6-1.5,3.2-3,4.8-4.4L90.7,69.6L90.7,69.6z M80.4,79.3c-1.7,1.7-3.3,3.4-4.9,5.1l16.4,15.6c1.5-1.6,3-3.1,4.5-4.6
		L80.4,79.3L80.4,79.3z M70.7,89.6c-1.6,1.8-3.1,3.5-4.7,5.3l17.2,14.7c1.4-1.6,2.8-3.3,4.3-4.9L70.7,89.6L70.7,89.6z M61.5,100.3
		c-1.5,1.8-2.9,3.7-4.4,5.5L75,119.6c1.3-1.7,2.7-3.4,4-5.1L61.5,100.3L61.5,100.3z M52.9,111.5c-1.4,1.9-2.7,3.8-4.1,5.8l18.6,12.8
		c1.2-1.8,2.5-3.5,3.7-5.3L52.9,111.5L52.9,111.5z M44.9,123.1c-1.3,2-2.5,4-3.8,6L60.4,141c1.1-1.8,2.3-3.7,3.5-5.5L44.9,123.1
		L44.9,123.1z M37.5,135.2c-1.2,2-2.3,4.1-3.5,6.2l19.9,10.8c1-1.9,2.1-3.8,3.2-5.6L37.5,135.2L37.5,135.2z M30.7,147.6
		c-1.1,2.1-2.1,4.2-3.1,6.3l20.4,9.8c0.9-1.9,1.9-3.9,2.9-5.8L30.7,147.6L30.7,147.6z M24.6,160.4c-1,2.2-1.9,4.3-2.8,6.5l20.9,8.7
		c0.8-2,1.7-4,2.6-5.9L24.6,160.4L24.6,160.4z M19.2,173.4c-0.8,2.2-1.7,4.4-2.4,6.6l21.3,7.6c0.7-2,1.5-4.1,2.2-6.1L19.2,173.4
		L19.2,173.4z M14.5,186.7c-0.7,2.2-1.4,4.5-2.1,6.7l21.7,6.4c0.6-2.1,1.3-4.1,1.9-6.2L14.5,186.7L14.5,186.7z M10.5,200.3
		c-0.6,2.3-1.2,4.6-1.7,6.9l22,5.3c0.5-2.1,1-4.2,1.6-6.3L10.5,200.3L10.5,200.3z M7.2,214c-0.5,2.3-0.9,4.6-1.4,6.9l22.2,4.1
		c0.4-2.1,0.8-4.2,1.3-6.3L7.2,214L7.2,214z M4.6,227.9c-0.4,2.3-0.7,4.7-1,7l22.4,2.9c0.3-2.1,0.6-4.3,0.9-6.4L4.6,227.9L4.6,227.9
		z M2.8,241.9c-0.2,2.3-0.5,4.7-0.6,7l22.5,1.8c0.2-2.1,0.4-4.3,0.6-6.5L2.8,241.9L2.8,241.9z M1.7,256c-0.1,2.4-0.2,4.7-0.3,7.1
		l22.6,0.6c0.1-2.2,0.1-4.3,0.3-6.5L1.7,256L1.7,256z M1.3,270.2C1.3,270.2,1.3,270.2,1.3,270.2L1.3,270.2c0,2.4,0,4.7,0.1,7.1
		l22.6-0.6c-0.1-2.2-0.1-4.3-0.1-6.5L1.3,270.2L1.3,270.2z M24.2,283.1l-22.6,1.2c0.1,2.4,0.3,4.7,0.5,7.1l22.6-1.7
		C24.5,287.5,24.4,285.3,24.2,283.1L24.2,283.1z M25.2,296.1l-22.5,2.3c0.2,2.3,0.5,4.7,0.8,7l22.4-2.9
		C25.7,300.4,25.5,298.2,25.2,296.1L25.2,296.1z M26.9,308.9l-22.3,3.5c0.4,2.3,0.8,4.7,1.2,7l22.2-4.1
		C27.6,313.2,27.3,311,26.9,308.9L26.9,308.9z M29.3,321.6l-22.1,4.7c0.5,2.3,1,4.6,1.6,6.9l22-5.3
		C30.2,325.9,29.7,323.7,29.3,321.6L29.3,321.6z M32.3,334.2l-21.9,5.8c0.6,2.3,1.2,4.5,1.9,6.8l21.7-6.4
		C33.4,338.4,32.8,336.3,32.3,334.2L32.3,334.2z M35.9,346.6l-21.5,7c0.7,2.2,1.5,4.5,2.3,6.7l21.3-7.5
		C37.3,350.7,36.6,348.7,35.9,346.6L35.9,346.6z M40.2,358.8l-21.1,8.1c0.8,2.2,1.7,4.4,2.6,6.6l20.9-8.7
		C41.8,362.9,41,360.8,40.2,358.8L40.2,358.8z M45.2,370.8L24.5,380c1,2.2,1.9,4.3,3,6.4l20.4-9.7C47,374.7,46.1,372.8,45.2,370.8
		L45.2,370.8z M50.8,382.5l-20.1,10.3c1.1,2.1,2.2,4.2,3.3,6.3l19.9-10.8C52.8,386.3,51.8,384.4,50.8,382.5L50.8,382.5z M57,393.9
		l-19.6,11.3c1.2,2,2.4,4.1,3.6,6.1l19.3-11.8C59.1,397.6,58,395.7,57,393.9L57,393.9z M63.7,404.9l-19,12.3c1.3,2,2.6,3.9,3.9,5.9
		l18.6-12.8C66.1,408.5,64.9,406.7,63.7,404.9L63.7,404.9z M71.1,415.6l-18.3,13.3c1.4,1.9,2.8,3.8,4.2,5.7L75,420.8
		C73.6,419.1,72.3,417.3,71.1,415.6L71.1,415.6z M79,425.8l-17.6,14.2c1.5,1.8,3,3.6,4.5,5.4l17.2-14.7
		C81.7,429.2,80.3,427.5,79,425.8L79,425.8z M87.4,435.7l-16.8,15.1c1.6,1.8,3.2,3.5,4.8,5.2l16.4-15.6
		C90.3,438.9,88.8,437.3,87.4,435.7L87.4,435.7z M96.3,445.1l-16,16c1.7,1.7,3.3,3.3,5.1,4.9l15.6-16.4
		C99.4,448.1,97.8,446.6,96.3,445.1L96.3,445.1z M105.7,454l-15.1,16.8c1.7,1.6,3.5,3.1,5.3,4.7l14.7-17.2
		C108.9,456.9,107.3,455.5,105.7,454L105.7,454z M115.5,462.4L101.3,480c1.8,1.5,3.7,2.9,5.5,4.4l13.8-17.9
		C118.9,465.2,117.2,463.8,115.5,462.4L115.5,462.4z M125.8,470.3l-13.3,18.3c1.9,1.4,3.8,2.7,5.8,4.1l12.8-18.6
		C129.3,472.9,127.5,471.6,125.8,470.3L125.8,470.3z M136.5,477.7l-12.3,19c2,1.3,4,2.5,6,3.8l11.8-19.3
		C140.1,480,138.3,478.9,136.5,477.7L136.5,477.7z M147.5,484.5l-11.3,19.6c2,1.2,4.1,2.3,6.2,3.5l10.8-19.9
		C151.3,486.6,149.4,485.6,147.5,484.5L147.5,484.5z M158.9,490.7l-10.3,20.1c2.1,1.1,4.2,2.1,6.3,3.1l9.8-20.4
		C162.7,492.6,160.8,491.7,158.9,490.7L158.9,490.7z M170.5,496.3l-9.2,20.7c2.1,1,4.3,1.9,6.5,2.8l8.7-20.9
		C174.5,498,172.5,497.1,170.5,496.3L170.5,496.3z M182.5,501.2l-8.1,21.1c2.2,0.8,4.4,1.7,6.6,2.5l7.6-21.3
		C186.6,502.8,184.5,502,182.5,501.2L182.5,501.2z M194.7,505.6l-7,21.5c2.2,0.7,4.5,1.4,6.7,2.1l6.4-21.7
		C198.8,506.9,196.7,506.2,194.7,505.6L194.7,505.6z M207.1,509.2l-5.9,21.8c2.3,0.6,4.6,1.2,6.9,1.7l5.3-22
		C211.3,510.3,209.2,509.8,207.1,509.2L207.1,509.2z M219.7,512.2l-4.7,22.1c2.3,0.5,4.6,0.9,6.9,1.4l4.1-22.2
		C223.9,513.1,221.8,512.7,219.7,512.2L219.7,512.2z M232.4,514.6l-3.5,22.3c2.3,0.4,4.7,0.7,7,1l2.9-22.4
		C236.7,515.2,234.5,514.9,232.4,514.6L232.4,514.6z M245.3,516.3l-2.4,22.5c2.3,0.2,4.7,0.5,7,0.6l1.8-22.5
		C249.6,516.7,247.4,516.5,245.3,516.3L245.3,516.3z M258.2,517.3l-1.2,22.6c2.4,0.1,4.7,0.2,7.1,0.3l0.6-22.6
		C262.5,517.5,260.3,517.4,258.2,517.3L258.2,517.3z M277.6,517.6c-2.2,0.1-4.3,0.1-6.5,0.1l0,22.6c0.1,0,0.1,0,0.2,0l0,0
		c2.3,0,4.6,0,6.9-0.1L277.6,517.6L277.6,517.6z M290.6,516.9c-2.1,0.2-4.3,0.3-6.5,0.4l1.2,22.6c2.4-0.1,4.7-0.3,7.1-0.5
		L290.6,516.9L290.6,516.9z M303.5,515.6c-2.1,0.3-4.3,0.5-6.4,0.7l2.3,22.5c2.3-0.2,4.7-0.5,7-0.8L303.5,515.6L303.5,515.6z
		 M316.3,513.6c-2.1,0.4-4.3,0.8-6.4,1.1l3.5,22.3c2.3-0.4,4.7-0.8,7-1.2L316.3,513.6L316.3,513.6z M328.9,510.9
		c-2.1,0.5-4.2,1-6.3,1.4l4.7,22.1c2.3-0.5,4.6-1,6.9-1.5L328.9,510.9L328.9,510.9z M341.4,507.6c-2.1,0.6-4.2,1.2-6.2,1.7l5.8,21.9
		c2.3-0.6,4.5-1.2,6.8-1.9L341.4,507.6L341.4,507.6z M353.7,503.6c-2,0.7-4.1,1.4-6.1,2.1l7,21.5c2.2-0.7,4.5-1.5,6.7-2.3
		L353.7,503.6L353.7,503.6z M365.8,498.9c-2,0.8-4,1.6-6,2.4l8.1,21.1c2.2-0.8,4.4-1.7,6.6-2.6L365.8,498.9L365.8,498.9z
		 M377.7,493.7c-1.9,0.9-3.9,1.8-5.9,2.7L381,517c2.2-1,4.3-1.9,6.4-3L377.7,493.7L377.7,493.7z M389.2,487.8c-1.9,1-3.8,2-5.7,3
		l10.3,20.2c2.1-1.1,4.2-2.2,6.3-3.3L389.2,487.8L389.2,487.8z M400.4,481.3c-1.8,1.1-3.7,2.2-5.6,3.3l11.3,19.6
		c2-1.2,4.1-2.4,6.1-3.6L400.4,481.3L400.4,481.3z M411.3,474.3c-1.8,1.2-3.6,2.4-5.4,3.6l12.3,19c2-1.3,3.9-2.6,5.9-3.9
		L411.3,474.3L411.3,474.3z M421.7,466.6c-1.7,1.3-3.5,2.6-5.2,3.9l13.3,18.3c1.9-1.4,3.8-2.8,5.7-4.2L421.7,466.6L421.7,466.6z
		 M431.8,458.5c-1.6,1.4-3.3,2.8-5,4.1l14.2,17.6c1.8-1.5,3.6-3,5.4-4.5L431.8,458.5L431.8,458.5z M441.5,449.8
		c-1.6,1.5-3.2,3-4.8,4.4l15.1,16.8c1.8-1.6,3.5-3.2,5.2-4.8L441.5,449.8L441.5,449.8z M450.6,440.7c-1.5,1.6-3,3.1-4.5,4.6l16,16
		c1.7-1.7,3.3-3.4,4.9-5.1L450.6,440.7L450.6,440.7z M459.3,431c-1.4,1.6-2.8,3.3-4.3,4.9l16.8,15.2c1.6-1.7,3.1-3.5,4.7-5.3
		L459.3,431L459.3,431z M467.5,421c-1.3,1.7-2.7,3.4-4,5.1l17.6,14.3c1.5-1.8,2.9-3.7,4.4-5.5L467.5,421L467.5,421z M475.1,410.5
		c-1.2,1.8-2.5,3.5-3.7,5.3l18.3,13.3c1.4-1.9,2.8-3.8,4.1-5.8L475.1,410.5L475.1,410.5z M482.2,399.7c-1.1,1.8-2.3,3.7-3.5,5.5
		l18.9,12.4c1.3-2,2.5-4,3.8-6L482.2,399.7L482.2,399.7z M488.7,388.5c-1,1.9-2.1,3.8-3.2,5.6l19.6,11.3c1.2-2,2.3-4.1,3.5-6.2
		L488.7,388.5L488.7,388.5z M494.6,376.9c-0.9,1.9-1.9,3.9-2.9,5.8l20.1,10.3c1.1-2.1,2.1-4.2,3.1-6.3L494.6,376.9L494.6,376.9z
		 M499.8,365.1c-0.8,2-1.7,4-2.6,5.9l20.6,9.2c1-2.1,1.9-4.3,2.8-6.5L499.8,365.1L499.8,365.1z M504.5,353c-0.7,2-1.5,4.1-2.2,6.1
		l21.1,8.1c0.8-2.2,1.7-4.4,2.5-6.6L504.5,353L504.5,353z M508.5,340.7c-0.6,2.1-1.3,4.1-1.9,6.2l21.5,7c0.7-2.2,1.4-4.5,2.1-6.7
		L508.5,340.7L508.5,340.7z M511.9,328.2c-0.5,2.1-1,4.2-1.6,6.3l21.8,5.9c0.6-2.3,1.2-4.6,1.7-6.8L511.9,328.2L511.9,328.2z
		 M514.5,315.6c-0.4,2.1-0.8,4.2-1.3,6.3l22.1,4.7c0.5-2.3,0.9-4.6,1.4-6.9L514.5,315.6L514.5,315.6z M516.6,302.8
		c-0.3,2.1-0.6,4.3-0.9,6.4l22.3,3.5c0.4-2.3,0.7-4.7,1-7L516.6,302.8L516.6,302.8z M517.9,289.9c-0.2,2.1-0.4,4.3-0.6,6.5l22.5,2.4
		c0.2-2.3,0.5-4.7,0.6-7L517.9,289.9L517.9,289.9z M518.6,277c-0.1,2.2-0.1,4.3-0.3,6.5l22.6,1.2c0.1-2.3,0.2-4.7,0.3-7.1L518.6,277
		L518.6,277z M541.2,263.4l-22.6,0.6c0.1,2.2,0.1,4.3,0.1,6.5l22.6,0c0-0.1,0-0.2,0-0.2l0,0C541.3,268,541.3,265.7,541.2,263.4
		L541.2,263.4z M540.5,249.3l-22.6,1.7c0.2,2.1,0.3,4.3,0.4,6.5l22.6-1.1C540.8,254,540.7,251.7,540.5,249.3L540.5,249.3z
		 M539.1,235.2l-22.4,2.9c0.3,2.1,0.5,4.3,0.7,6.4l22.5-2.3C539.6,239.9,539.4,237.6,539.1,235.2L539.1,235.2z M536.9,221.3
		l-22.2,4.1c0.4,2.1,0.8,4.3,1.1,6.4l22.3-3.5C537.7,225.9,537.3,223.6,536.9,221.3L536.9,221.3z M534,207.4l-22,5.2
		c0.5,2.1,1,4.2,1.4,6.3l22.1-4.7C535,212,534.5,209.7,534,207.4L534,207.4z M530.3,193.8l-21.7,6.4c0.6,2.1,1.2,4.2,1.7,6.2
		l21.9-5.8C531.6,198.3,531,196,530.3,193.8z M526,180.3l-21.3,7.5c0.7,2,1.4,4.1,2.1,6.1l21.5-7C527.5,184.8,526.8,182.6,526,180.3
		L526,180.3z M520.9,167.1l-20.9,8.6c0.8,2,1.6,4,2.4,6l21.1-8.1C522.7,171.5,521.8,169.3,520.9,167.1L520.9,167.1z M515.2,154.2
		l-20.4,9.7c0.9,1.9,1.8,3.9,2.7,5.9l20.7-9.2C517.2,158.5,516.2,156.4,515.2,154.2z M508.8,141.6l-19.9,10.8c1,1.9,2,3.8,3,5.7
		l20.2-10.3C511,145.8,509.9,143.7,508.8,141.6L508.8,141.6z M501.7,129.4l-19.3,11.8c1.1,1.8,2.2,3.7,3.3,5.6l19.6-11.3
		C504.1,133.4,502.9,131.4,501.7,129.4L501.7,129.4z M494,117.5l-18.6,12.8c1.2,1.8,2.4,3.6,3.6,5.4l19-12.3
		C496.6,121.4,495.3,119.5,494,117.5L494,117.5z M485.7,106.1l-17.9,13.8c1.3,1.7,2.6,3.5,3.9,5.2l18.3-13.3
		C488.5,109.9,487.1,108,485.7,106.1L485.7,106.1z M476.8,95.1l-17.2,14.7c1.4,1.6,2.8,3.3,4.1,5l17.6-14.2
		C479.8,98.7,478.3,96.9,476.8,95.1L476.8,95.1z M467.3,84.6l-16.4,15.6c1.5,1.6,3,3.2,4.4,4.8l16.8-15.1
		C470.6,88,469,86.3,467.3,84.6L467.3,84.6z M457.4,74.6L441.8,91c1.6,1.5,3.1,3,4.6,4.5l16-16C460.8,77.9,459.1,76.2,457.4,74.6
		L457.4,74.6z M446.9,65.1l-14.7,17.2c1.6,1.4,3.3,2.8,4.9,4.3l15.2-16.8C450.4,68.2,448.7,66.7,446.9,65.1L446.9,65.1z M435.9,56.2
		l-13.8,17.9c1.7,1.3,3.4,2.7,5.1,4l14.3-17.6C439.6,59.1,437.8,57.6,435.9,56.2L435.9,56.2z M424.5,47.9l-12.8,18.6
		c1.8,1.2,3.5,2.5,5.3,3.7L430.2,52C428.3,50.6,426.4,49.2,424.5,47.9L424.5,47.9z M412.6,40.2l-11.9,19.3c1.8,1.1,3.7,2.3,5.5,3.5
		l12.4-18.9C416.6,42.7,414.6,41.4,412.6,40.2L412.6,40.2z M400.4,33.1l-10.8,19.9c1.9,1,3.8,2.1,5.6,3.2l11.3-19.6
		C404.5,35.3,402.5,34.2,400.4,33.1z M387.8,26.6L378.1,47c1.9,0.9,3.9,1.9,5.8,2.9l10.3-20.1C392.1,28.7,390,27.6,387.8,26.6
		L387.8,26.6z M374.9,20.9l-8.7,20.9c2,0.8,4,1.7,5.9,2.6l9.2-20.6C379.3,22.7,377.1,21.8,374.9,20.9L374.9,20.9z M361.7,15.8
		l-7.6,21.3c2,0.7,4.1,1.5,6.1,2.2l8.1-21.1C366.2,17.4,364,16.6,361.7,15.8L361.7,15.8z M348.3,11.4l-6.4,21.7
		c2.1,0.6,4.1,1.3,6.2,1.9l7-21.5C352.8,12.8,350.6,12.1,348.3,11.4L348.3,11.4z M334.7,7.7l-5.3,22c2.1,0.5,4.2,1,6.3,1.6l5.9-21.8
		C339.2,8.9,336.9,8.3,334.7,7.7L334.7,7.7z M320.8,4.8L316.7,27c2.1,0.4,4.2,0.8,6.3,1.3l4.7-22.1C325.5,5.7,323.2,5.2,320.8,4.8
		L320.8,4.8z M306.9,2.6l-3,22.4c2.1,0.3,4.3,0.6,6.4,0.9l3.5-22.3C311.5,3.2,309.2,2.9,306.9,2.6L306.9,2.6z M292.8,1.1L291,23.6
		c2.1,0.2,4.3,0.4,6.5,0.6l2.4-22.5C297.5,1.5,295.2,1.3,292.8,1.1z M278.7,0.3L278.1,23c2.2,0.1,4.3,0.1,6.5,0.3l1.2-22.6
		C283.4,0.5,281.1,0.4,278.7,0.3L278.7,0.3z M271.3,0.3v22.6l0.3,0l0-22.6C271.5,0.3,271.4,0.3,271.3,0.3L271.3,0.3L271.3,0.3z"/>
</g>
</svg>
