<?xml version="1.0" encoding="utf-8"?>
<!-- Generator: Adobe Illustrator 19.1.0, SVG Export Plug-In . SVG Version: 6.00 Build 0)  -->
<svg version="1.0" id="レイヤー_1" xmlns="http://www.w3.org/2000/svg" xmlns:xlink="http://www.w3.org/1999/xlink" x="0px"
	 y="0px" viewBox="0 0 390 390" enable-background="new 0 0 390 390" xml:space="preserve">
<g>
	
		<circle fill="none" stroke="#00C2EF" stroke-width="16" stroke-miterlimit="10" stroke-dasharray="5" cx="194.6" cy="195" r="185"/>
	<g>
		<g>
			<path id="outline_1_" fill-rule="evenodd" clip-rule="evenodd" fill="#394D54" d="M129.2,97.5h8.1v8.2h4.1c1.9,0,3.8-0.3,5.6-0.9
				c0.9-0.3,1.9-0.7,2.7-1.2c-1.1-1.5-1.7-3.3-1.9-5.2c-0.2-2.5,0.3-5.7,2-7.7l0.8-1l1,0.8c2.5,2,4.7,4.9,5.1,8.1
				c3.1-0.9,6.7-0.7,9.4,0.9l1.1,0.6l-0.6,1.1c-2.3,4.4-7.1,5.8-11.7,5.5c-7,17.2-22.2,25.4-40.6,25.4c-9.5,0-18.3-3.5-23.2-11.9
				l-0.1-0.1l-0.7-1.5c-1.7-3.7-2.2-7.7-1.9-11.8l0.1-1.2h6.9v-8.2h8.1v-8h16.1v-8h9.7V97.5z"/>
			<g id="body_colors_1_">
				<path fill="#00AADA" d="M155.3,100.5c0.5-4.2-2.6-7.4-4.6-9c-2.2,2.6-2.6,9.3,0.9,12.2c-2,1.7-6.1,3.3-10.4,3.3H89.7
					c-0.4,4.4,0.4,8.4,2.1,11.9l0.6,1.1c0.4,0.6,0.8,1.2,1.2,1.8l0,0c2.1,0.1,4.1,0.2,5.9,0.1h0c3.5-0.1,6.4-0.5,8.6-1.2
					c0.3-0.1,0.7,0.1,0.8,0.4c0.1,0.3-0.1,0.7-0.4,0.8c-0.3,0.1-0.6,0.2-0.9,0.3h0c-1.7,0.5-3.6,0.8-5.9,1c0.1,0-0.1,0-0.1,0
					c-0.1,0-0.2,0-0.3,0c-0.9,0.1-1.9,0.1-3,0.1c-1.1,0-2.2,0-3.5-0.1l0,0c4.3,4.8,11,7.7,19.5,7.7c17.9,0,33-7.8,39.7-25.5
					c4.8,0.5,9.3-0.7,11.4-4.7C162,98.7,157.7,99.3,155.3,100.5z"/>
				<path fill="#24B8EB" d="M155.3,100.5c0.5-4.2-2.6-7.4-4.6-9c-2.2,2.6-2.6,9.3,0.9,12.2c-2,1.7-6.1,3.3-10.4,3.3H92.7
					c-0.2,6.7,2.3,11.8,6.8,14.9h0c3.5-0.1,6.4-0.5,8.6-1.2c0.3-0.1,0.7,0.1,0.8,0.4c0.1,0.3-0.1,0.7-0.4,0.8
					c-0.3,0.1-0.6,0.2-0.9,0.3h0c-1.7,0.5-3.7,0.9-6.1,1l-0.1-0.1c6.1,3.1,14.9,3.1,25-0.8c11.3-4.3,21.9-12.5,29.2-21.9
					C155.5,100.4,155.4,100.4,155.3,100.5z"/>
				<path fill="#008BB8" d="M89.7,112.3c0.3,2.4,1,4.6,2,6.6l0.6,1.1c0.4,0.6,0.8,1.2,1.2,1.8c2.1,0.1,4.1,0.2,5.9,0.1
					c3.5-0.1,6.4-0.5,8.6-1.2c0.3-0.1,0.7,0.1,0.8,0.4c0.1,0.3-0.1,0.7-0.4,0.8c-0.3,0.1-0.6,0.2-0.9,0.3h0c-1.7,0.5-3.7,0.8-6.1,1
					c-0.1,0-0.2,0-0.3,0c-0.9,0.1-1.9,0.1-3,0.1c-1.1,0-2.3,0-3.5-0.1c4.3,4.8,11.1,7.7,19.5,7.7c15.3,0,28.6-5.8,36.3-18.5H89.7z"
					/>
				<path fill="#039BC6" d="M93.2,112.3c0.9,4.1,3.1,7.4,6.3,9.6c3.5-0.1,6.4-0.5,8.6-1.2c0.3-0.1,0.7,0.1,0.8,0.4
					c0.1,0.3-0.1,0.7-0.4,0.8c-0.3,0.1-0.6,0.2-0.9,0.3h0c-1.7,0.5-3.7,0.8-6.1,1c6.1,3.1,14.9,3,25-0.8c6.1-2.3,12-5.8,17.3-10
					H93.2z"/>
			</g>
			<g id="Containers_1_">
				<path fill-rule="evenodd" clip-rule="evenodd" fill="#00ACD3" d="M102.5,99.4h0.6v5.8h-0.6V99.4z M101.5,99.4h0.6v5.8h-0.6V99.4
					z M100.4,99.4h0.6v5.8h-0.6V99.4z M99.3,99.4h0.6v5.8h-0.6V99.4z M98.3,99.4h0.6v5.8h-0.6V99.4z M97.2,99.4h0.6v5.8h-0.6V99.4z
					 M96.7,98.8h7v6.9h-7V98.8z"/>
				<path fill-rule="evenodd" clip-rule="evenodd" fill="#00ACD3" d="M110.6,91.4h0.6v5.8h-0.6V91.4z M109.5,91.4h0.6v5.8h-0.6V91.4
					z M108.5,91.4h0.6v5.8h-0.6V91.4z M107.4,91.4h0.6v5.8h-0.6V91.4z M106.3,91.4h0.6v5.8h-0.6V91.4z M105.3,91.4h0.6v5.8h-0.6
					V91.4z M104.7,90.8h7v6.9h-7V90.8z"/>
				<path fill-rule="evenodd" clip-rule="evenodd" fill="#20C2EF" d="M110.6,99.4h0.6v5.8h-0.6V99.4z M109.5,99.4h0.6v5.8h-0.6V99.4
					z M108.5,99.4h0.6v5.8h-0.6V99.4z M107.4,99.4h0.6v5.8h-0.6V99.4z M106.3,99.4h0.6v5.8h-0.6V99.4z M105.3,99.4h0.6v5.8h-0.6
					V99.4z M104.7,98.8h7v6.9h-7V98.8z"/>
				<path fill-rule="evenodd" clip-rule="evenodd" fill="#00ACD3" d="M118.6,99.4h0.6v5.8h-0.6V99.4z M117.6,99.4h0.6v5.8h-0.6V99.4
					z M116.5,99.4h0.6v5.8h-0.6V99.4z M115.5,99.4h0.6v5.8h-0.6V99.4z M114.4,99.4h0.6v5.8h-0.6V99.4z M113.4,99.4h0.6v5.8h-0.6
					V99.4z M112.8,98.8h7v6.9h-7V98.8z"/>
				<path fill-rule="evenodd" clip-rule="evenodd" fill="#20C2EF" d="M118.6,91.4h0.6v5.8h-0.6V91.4z M117.6,91.4h0.6v5.8h-0.6V91.4
					z M116.5,91.4h0.6v5.8h-0.6V91.4z M115.5,91.4h0.6v5.8h-0.6V91.4z M114.4,91.4h0.6v5.8h-0.6V91.4z M113.4,91.4h0.6v5.8h-0.6
					V91.4z M112.8,90.8h7v6.9h-7V90.8z"/>
				<path fill-rule="evenodd" clip-rule="evenodd" fill="#20C2EF" d="M126.7,99.4h0.6v5.8h-0.6V99.4z M125.6,99.4h0.6v5.8h-0.6V99.4
					z M124.6,99.4h0.6v5.8h-0.6V99.4z M123.5,99.4h0.6v5.8h-0.6V99.4z M122.5,99.4h0.6v5.8h-0.6V99.4z M121.4,99.4h0.6v5.8h-0.6
					V99.4z M120.8,98.8h7v6.9h-7V98.8z"/>
				<path fill-rule="evenodd" clip-rule="evenodd" fill="#00ACD3" d="M126.7,91.4h0.6v5.8h-0.6V91.4z M125.6,91.4h0.6v5.8h-0.6V91.4
					z M124.6,91.4h0.6v5.8h-0.6V91.4z M123.5,91.4h0.6v5.8h-0.6V91.4z M122.5,91.4h0.6v5.8h-0.6V91.4z M121.4,91.4h0.6v5.8h-0.6
					V91.4z M120.8,90.8h7v6.9h-7V90.8z"/>
				<path fill-rule="evenodd" clip-rule="evenodd" fill="#20C2EF" d="M126.7,83.4h0.6v5.8h-0.6V83.4z M125.6,83.4h0.6v5.8h-0.6V83.4
					z M124.6,83.4h0.6v5.8h-0.6V83.4z M123.5,83.4h0.6v5.8h-0.6V83.4z M122.5,83.4h0.6v5.8h-0.6V83.4z M121.4,83.4h0.6v5.8h-0.6
					V83.4z M120.8,82.8h7v6.9h-7V82.8z"/>
				<path fill-rule="evenodd" clip-rule="evenodd" fill="#00ACD3" d="M134.8,99.4h0.6v5.8h-0.6V99.4z M133.7,99.4h0.6v5.8h-0.6V99.4
					z M132.6,99.4h0.6v5.8h-0.6V99.4z M131.6,99.4h0.6v5.8h-0.6V99.4z M130.5,99.4h0.6v5.8h-0.6V99.4z M129.5,99.4h0.6v5.8h-0.6
					V99.4z M128.9,98.8h7v6.9h-7V98.8z"/>
			</g>
			<path fill-rule="evenodd" clip-rule="evenodd" fill="#D4EDF1" d="M111.3,116.9c1.1,0,1.9,0.9,1.9,1.9c0,1.1-0.9,1.9-1.9,1.9
				c-1.1,0-1.9-0.9-1.9-1.9C109.3,117.8,110.2,116.9,111.3,116.9"/>
			<path fill-rule="evenodd" clip-rule="evenodd" fill="#394D54" d="M111.3,117.5c0.2,0,0.3,0,0.5,0.1c-0.2,0.1-0.3,0.3-0.3,0.5
				c0,0.3,0.3,0.6,0.6,0.6c0.2,0,0.4-0.1,0.5-0.3c0.1,0.2,0.1,0.3,0.1,0.5c0,0.8-0.6,1.4-1.4,1.4c-0.8,0-1.4-0.6-1.4-1.4
				C109.9,118.1,110.5,117.5,111.3,117.5"/>
			<path fill-rule="evenodd" clip-rule="evenodd" fill="#394D54" d="M77.2,113h42.2h5.2h42.2c-2-0.5-6.2-1.2-5.5-3.7
				c-3.5,4.1-12.1,2.9-14.3,0.8c-2.4,3.5-16.4,2.1-17.4-0.6c-3,3.5-12.4,3.5-15.4,0c-1,2.7-15,4-17.4,0.6c-2.2,2-10.7,3.2-14.3-0.8
				C83.4,111.8,79.1,112.5,77.2,113"/>
			<path fill="#BFDBE0" d="M116.4,130.7c-4.8-2.2-7.4-5.3-8.9-8.6c-1.8,0.5-3.9,0.8-6.4,1c-0.9,0.1-1.9,0.1-2.9,0.1
				c-1.2,0-2.4,0-3.8-0.1c4.4,4.3,9.8,7.7,19.7,7.7C114.9,130.8,115.7,130.8,116.4,130.7z"/>
			<path fill="#D4EDF1" d="M109.3,125.2c-0.7-0.9-1.3-2-1.8-3.1c-1.8,0.5-3.9,0.8-6.4,1C102.9,124,105.3,124.8,109.3,125.2z"/>
		</g>
		<path fill-rule="evenodd" clip-rule="evenodd" fill="#394D54" d="M261,116.7c2.8-2.3,5.5-4.7,8.3-7c0.9-0.8,2-1.6,2.9-2.5
			c-0.7-0.9-2-1.6-3.1-2c-2.1-0.8-4.3-0.5-6.2,0.6c-2.6,1.5-3.7,3.8-3.6,6.7c0,1.1,0.4,2.3,1,3.2C260.5,116,260.8,116.4,261,116.7
			 M264.2,118.9c1.4,0.5,2.9,0.4,4.3,0.2c0.7-0.3,2.5-1.1,3.2-1l0.1,0l0.1,0c0.4,0.2,0.8,0.5,1,0.9c0.5,1,0.3,1.9-0.7,2.5l-0.3,0.2
			c-3.5,2-7.3,1.7-10.8-0.1c-1.7-0.9-3-2.2-3.9-3.9l-0.2-0.4c-2.3-3.9-2-8,0.6-11.7c0.9-1.3,2-2.3,3.4-3l0.5-0.3
			c3.3-1.9,6.9-1.8,10.3-0.1c1.8,0.9,3.3,2.2,4.3,4l0.2,0.3c0.7,1.3-0.2,2.4-1.2,3.2c-1.2,0.9-2.3,1.9-3.4,2.9
			C269.2,114.7,266.7,116.8,264.2,118.9z M290.6,101.2h0.4c1.1,0,1.9,0.7,1.9,1.8c0,1.5-1.5,1.9-2.7,1.9c-1.7,0-3.3,1-4.4,2.1
			c-1.4,1.4-2.1,3.2-2.1,5.2v8.9c0,1-0.6,1.8-1.7,1.8h-0.3c-1.1,0-1.7-0.8-1.7-1.8v-9.4c0-3.6,1.8-6.6,4.7-8.7
			C286.5,101.9,288.5,101.2,290.6,101.2z M244.3,107.5c1.4-1.4,2.9-2.9,4.4-4.3c0.4-0.4,2-2.1,2.6-2.1h0.7l0.1,0
			c0.8,0.2,1.5,0.7,1.5,1.6v0.4c0,0.6-0.7,1.3-1.1,1.8c-0.9,0.9-1.8,1.8-2.6,2.6l-4.5,4.5c1.9,1.9,3.9,3.8,5.8,5.8
			c0.5,0.5,1.1,1.1,1.6,1.6c0.2,0.2,0.5,0.4,0.6,0.7c0.2,0.3,0.3,0.5,0.3,0.8v0.4l0,0.1c-0.2,0.8-0.7,1.5-1.7,1.5h-0.3
			c-0.6,0-1.3-0.7-1.7-1.1c-0.9-0.8-1.7-1.7-2.6-2.5l-2.9-2.8v4.4c0,1-0.6,1.8-1.7,1.8h-0.3c-1.1,0-1.7-0.8-1.7-1.8v-25
			c0-1,0.6-1.8,1.7-1.8h0.3c1.1,0,1.7,0.8,1.7,1.8V107.5z M232.3,105c-0.6-0.3-1.6-0.3-2.2-0.4c-3.1-0.1-5.4,1.6-6.7,4.3
			c-0.5,0.9-0.7,1.9-0.7,3c0,3.2,1.7,5.4,4.5,6.7c1,0.5,2.4,0.6,3.5,0.6c1,0,2.4-0.6,3.3-1l0.2-0.1h0.7l0.1,0
			c0.8,0.2,1.5,0.7,1.5,1.6v0.4c0,2.2-4.1,2.8-5.7,2.9c-5.6,0.4-9.7-2.7-11.3-7.9c-0.3-0.9-0.4-1.8-0.4-2.8v-0.7c0-4,2-7.2,5.5-9.2
			c1.6-0.9,3.4-1.4,5.3-1.4h0.7c2,0,3.8,0.6,5.4,1.7l0.1,0.1l0.1,0.1c0.2,0.3,0.3,0.6,0.3,1v0.4c0,0.9-0.7,1.4-1.6,1.6l-0.1,0h-0.2
			C234,105.8,232.8,105.3,232.3,105z M198.4,112.1c0,2.8,1.4,4.9,3.8,6.3c1.1,0.7,2.4,1,3.7,1c2.8,0,4.9-1.4,6.3-3.7
			c0.7-1.1,1-2.3,1-3.6c0-2.6-1.3-4.6-3.4-6c-1.2-0.8-2.5-1.2-3.9-1.2c-3.1,0-5.4,1.6-6.7,4.3C198.6,110,198.4,111,198.4,112.1z
			 M205.4,101.1h0.5c4.3,0,7.6,2.1,9.7,5.8c0.8,1.5,1.3,3.1,1.3,4.8v0.7c0,4-2,7.2-5.5,9.2c-1.6,0.9-3.4,1.4-5.2,1.4h-0.7
			c-4,0-7.2-2-9.3-5.4c-0.9-1.6-1.4-3.4-1.4-5.2v-0.7c0-4,2-7.2,5.5-9.2C201.7,101.5,203.5,101.1,205.4,101.1z M174.1,112.1
			c0,2.9,1.4,5.1,4,6.4c1,0.6,2.2,0.9,3.3,0.9c2.9,0,5-1.3,6.4-3.7c0.7-1.1,1-2.3,1-3.6c0-2.5-1.2-4.5-3.2-5.9
			c-1.2-0.9-2.6-1.3-4.1-1.3c-3.1,0-5.4,1.6-6.7,4.3C174.3,110,174.1,111,174.1,112.1z M188.8,103.8V96c0-1,0.6-1.8,1.7-1.8h0.3
			c1.1,0,1.7,0.8,1.7,1.8v16.4c0,4-2,7.2-5.5,9.2c-1.6,0.9-3.4,1.4-5.3,1.4H181c-4,0-7.2-2-9.3-5.4c-0.9-1.6-1.4-3.4-1.4-5.2v-0.7
			c0-4,2-7.2,5.5-9.2c1.6-0.9,3.4-1.4,5.2-1.4h0.7C184.5,101.1,186.8,102.1,188.8,103.8z"/>
	</g>
	<g>
		<g>
			<path fill="#3A3A3A" d="M73.3,186.5v13.3H58.9v-1.1h13.2v-11.2H59v-1.1H73.3z"/>
			<path fill="#3A3A3A" d="M81.6,190c-1.7-1.2-4.2-2.2-6-2.8l0.6-1.1c1.4,0.4,4,1.4,6,2.7L81.6,190z M75.9,199.4
				c5.6-0.2,11.8-3.1,14.6-11.8l1.1,0.5c-0.7,2-2.2,6.1-6,9.1c-2.6,2.1-5.9,3.3-9.3,3.5L75.9,199.4z"/>
			<path fill="#3A3A3A" d="M108.2,190.6v1.1h-6.7l0,0.7c-0.2,5.4-2.3,7.8-7.4,8.9l-0.5-1.1c5.3-0.9,6.6-3.4,6.7-7.7l0-0.8h-8v-1.1
				H108.2z M106.5,185.5v1.1H93.9v-1.1H106.5z"/>
			<path fill="#3A3A3A" d="M116.7,189.2v-4.3h1.2v4.3h7.4v1.1h-7.4v0.8c0,7-4.8,9-7.4,10l-0.6-1c0.9-0.3,3.3-1.2,4.9-3
				c1.8-2.1,1.9-5.5,1.9-6.1v-0.8h-7.9v-1.1H116.7z"/>
			<path fill="#3A3A3A" d="M135.2,185.2v0.9h-2.1v3h2.5v0.9h-2.5v4.9h-1V190h-2.5c-0.3,2.4-1.4,4.1-3.1,5.4l-0.8-0.8
				c1.2-0.9,2.6-2.4,2.8-4.6h-2.8v-0.9h2.9v-3h-2.4v-0.9H135.2z M133.9,200.2v-2.9h-6.7v-0.9h6.7v-2h1v2h6.7v0.9h-6.7v2.9h8.2v0.9
				h-17.4v-0.9H133.9z M132.1,186.1h-2.5v3h2.5V186.1z M138,185.5v7.2h-1v-7.2H138z M142.4,193.6c0,0.9-0.2,1.3-1.4,1.3h-2.1l-0.2-1
				l2.1,0c0.5,0,0.6-0.1,0.6-0.6v-8.7h1V193.6z"/>
			<path fill="#3A3A3A" d="M151.1,200c2.2-0.2,7.6-0.7,7.6-6.8c0-1.6-0.5-6.6-6.7-6.6c-0.3,4.1-0.9,7.8-2.7,10.7
				c-1.2,1.9-2.4,2.3-3.1,2.3c-1.8,0-3.3-2.3-3.3-5.3c0-4.9,3.4-8.7,9-8.7c5.9,0,7.9,4,7.9,7.5c0,7.1-6.2,7.8-8.5,8L151.1,200z
				 M144.1,194.2c0,1.6,0.6,4.1,2.2,4.1c0.7,0,1.4-0.5,2.1-1.7c1.8-2.8,2.2-7,2.4-10C146,187.2,144.1,190.9,144.1,194.2z"/>
			<path fill="#3A3A3A" d="M163.4,201.8h-1V191c-1,1.6-1.7,2.2-2,2.5l-0.6-1.1c2-2,3.8-5.7,4.5-8l1,0.3c-0.2,0.8-0.7,2.2-1.9,4.6
				V201.8z M166.9,200.9c1.6-0.6,3.2-1.4,4.9-2.9c-2-2.6-2.6-5.1-2.8-6.3l1-0.2c0.7,3.2,1.9,5,2.5,5.8c2.2-2.4,2.7-5.6,2.8-6.5h-7.8
				v1.9c0,3.2-0.5,6.5-2.4,9.1l-0.8-0.8c2-2.8,2.1-6.3,2.1-8.3v-7.6h10.8v0.9h-9.8v3.8h9c-0.3,3.1-1.3,6.1-3.3,8.3
				c1.7,1.8,3.6,2.3,4.3,2.5l-0.5,1c-0.8-0.3-2.6-0.9-4.4-2.9c-2,1.8-4,2.6-5.1,3L166.9,200.9z"/>
			<path fill="#3A3A3A" d="M177,200.7c1.5-1.5,2-2.9,2.3-4.1l1,0.3c-0.4,1.6-1,3.1-2.3,4.4L177,200.7z M184.2,192.3
				c-0.6-0.7-1.3-1.5-2.2-2.9v5.9h-1v-5.9c-0.4,0.8-1.3,2.7-3.4,4.6l-0.6-1c0.9-0.8,2.7-2.4,3.9-5.4h-3.7v-0.9h3.7v-2.3h1v2.3h3.2
				v0.9H182v0.4c0.9,1.5,2.5,3.1,2.9,3.5L184.2,192.3z M182.7,196.9v3.3c0,0.6,0.1,0.6,0.8,0.6h4.1c1.1,0,1.1-0.2,1.4-2.4l1,0.3
				c-0.3,2.1-0.6,3-2.1,3h-4.6c-0.7,0-1.7,0-1.7-1.3v-3.5H182.7z M186.6,198.4c-1-1.2-1.7-1.9-2.9-2.7l0.7-0.7
				c1.2,0.8,2.1,1.6,3,2.7L186.6,198.4z M193.4,195.1h-7.4v-10.1h7.4V195.1z M192.4,186h-5.3v2h5.3V186z M192.4,188.9h-5.3v2.1h5.3
				V188.9z M192.4,191.9h-5.3v2.3h5.3V191.9z M193.6,201.1c-1-1.9-1.9-3.2-3-4.4l0.9-0.5c0.9,1,1.9,2.3,3,4.3L193.6,201.1z"/>
			<path fill="#3A3A3A" d="M198,201.8H197V191c-1,1.4-1.9,2.2-2.4,2.6l-0.7-1c2-1.6,4-4.5,5.1-8.1l1.1,0.3c-0.7,2.2-1.5,3.6-2.1,4.5
				V201.8z M211,188.9c-2.3,2.1-5.5,3.1-7.1,3.5v6.9c0,0.7,0,1,1,1h4.3c0.7,0,0.9-0.4,1-0.7c0.2-0.6,0.2-2.2,0.2-2.9l1.2,0.2
				c-0.1,3.9-0.7,4.4-2,4.4h-5c-1.3,0-1.7-0.4-1.7-1.4v-15.6h1.1v7c2.8-0.9,4.4-1.7,6.4-3.3L211,188.9z"/>
			<path fill="#3A3A3A" d="M215.9,192.3c-1.1-2.5-2.8-4.6-3.4-5.3l1-0.6c1.5,1.7,2.7,3.6,3.5,5.3L215.9,192.3z M214.1,200
				c8.5-1.8,10.9-8.1,12-14.1l1.3,0.2c-0.8,4-2.7,12.8-12.8,15L214.1,200z"/>
			<path fill="#3A3A3A" d="M244.6,186.2c-0.3,3.8-1.3,12.7-12.4,14.8l-0.4-1.1c10-2,11.1-8.8,11.4-12.6h-13.5v-1.1H244.6z"/>
			<path fill="#3A3A3A" d="M252.3,184.7v5.2c3.7,1.1,7.5,3,9.8,4.3l-0.6,1.2c-2.6-1.6-5.9-3.2-9.2-4.3v10.3h-1.2v-16.7H252.3z"/>
			<path fill="#3A3A3A" d="M271.8,184.6v3.2h6.6v1.3c0,3.5-0.9,6.8-3.4,8.9c-3.1,2.6-6.9,2.9-8.5,3.1l-0.3-1.1
				c1.4-0.1,5.1-0.5,8.1-2.9c1.5-1.2,2.9-3.3,2.9-7.8v-0.4h-11.9v5.1h-1.1v-6.2h6.5v-3.2H271.8z"/>
			<path fill="#3A3A3A" d="M294,189.5v1h-5.2v8.6h6.1v1h-13.1v-1h5.9v-8.6h-5.1v-1H294z"/>
			<path fill="#3A3A3A" d="M313.4,185.6c-0.6,4-2.7,6.1-6.3,7.7l-0.7-1c3.9-1.4,5-3.6,5.5-5.6h-14.5v-1.1H313.4z M298,200.1
				c5.8-2.6,6.1-6.9,6.1-11.3h1.2c0,3.8-0.1,9.1-6.5,12.3L298,200.1z"/>
			<path fill="#3A3A3A" d="M319.8,198.6c0,1.5-1.2,2.7-2.7,2.7c-1.5,0-2.7-1.2-2.7-2.7c0-1.5,1.2-2.7,2.7-2.7
				C318.6,195.9,319.8,197.1,319.8,198.6z M315.2,198.6c0,1,0.8,1.9,1.9,1.9c1,0,1.8-0.8,1.8-1.9c0-1-0.8-1.8-1.8-1.8
				C316.1,196.7,315.2,197.5,315.2,198.6z"/>
			<path fill="#3A3A3A" d="M133.9,214.6c-0.6,4-2.7,6.1-6.3,7.7l-0.7-1c3.9-1.4,5-3.6,5.5-5.6h-14.5v-1.1H133.9z M118.4,229.1
				c5.8-2.6,6.1-6.9,6.1-11.3h1.2c0,3.8-0.1,9.1-6.5,12.3L118.4,229.1z"/>
			<path fill="#3A3A3A" d="M137.2,229c10.6-1.3,11.6-9.8,11.8-12.2h-13.7v-1.1h13c0-0.1-0.1-0.2-0.1-0.5c0-1.2,0.9-2,2-2
				c1.1,0,2,0.9,2,2c0,1-0.8,2-2,2c-0.5,3.4-1.7,11.1-12.6,12.9L137.2,229z M149.1,215.3c0,0.6,0.5,1.1,1.1,1.1
				c0.6,0,1.1-0.5,1.1-1.1c0-0.6-0.5-1.1-1.1-1.1C149.6,214.1,149.1,214.6,149.1,215.3z"/>
			<path fill="#3A3A3A" d="M155.4,224.9h-1.1v-10.5h1.1V224.9z M165.7,222.5c0,6.3-5.1,7.5-10.4,7.7l-0.2-1.1
				c6.9-0.2,9.4-2.1,9.4-6.6v-8.5h1.2V222.5z"/>
			<path fill="#3A3A3A" d="M185.3,217.5v1.1h-5c-0.5,5-1.5,10.2-9.2,11.7l-0.4-1.1c5.4-1.1,7.8-3.7,8.4-10.6h-6
				c-1.2,2.7-3,4.1-3.6,4.5l-0.8-0.9c1.1-0.8,3.7-2.7,4.6-8.5l1.3,0.2c-0.3,1.3-0.6,2.4-1,3.6H185.3z"/>
			<path fill="#3A3A3A" d="M202.7,221.5v1.2h-16.9v-1.2H202.7z"/>
			<path fill="#3A3A3A" d="M209.3,222.3c-2-1.2-3.4-1.7-5.5-2.4l0.5-1c1.9,0.5,3.4,1.1,5.5,2.3L209.3,222.3z M204.7,228.4
				c8.5-0.8,11.7-4.7,13.7-11l1,0.5c-2.5,7.1-5.3,10.6-14.5,11.8L204.7,228.4z M210.8,217.7c-0.9-0.5-2.3-1.4-5.6-2.3l0.5-1
				c2.4,0.6,4,1.3,5.6,2.2L210.8,217.7z"/>
			<path fill="#3A3A3A" d="M233.5,218.4v11h-10.4v-1h9.3v-4.3h-9v-1h9v-3.8h-9.2v-1H233.5z"/>
			<path fill="#3A3A3A" d="M244,219c-1.7-1.2-4.2-2.2-6-2.8l0.6-1.1c1.4,0.4,4,1.4,6,2.7L244,219z M238.3,228.4
				c5.6-0.2,11.8-3.1,14.6-11.8l1.1,0.5c-0.7,2-2.2,6.1-6,9.1c-2.6,2.1-5.9,3.3-9.3,3.5L238.3,228.4z"/>
			<path fill="#3A3A3A" d="M261.4,213.5c-0.1,0.6-0.2,1.1-0.5,2.4h8.6v1.1h-8.9c-0.7,2.2-1.3,3-1.6,3.4c0.6-0.5,1.8-1.4,3.7-1.4
				c2.4,0,2.6,1.7,2.8,2.5c2.9-1.2,3.2-1.3,5.1-2l0.4,1.2c-1.8,0.6-3.7,1.2-5.4,1.9c0.1,0.8,0.1,2,0.1,2.7c0,0.3,0,0.8-0.1,1.3h-1.1
				c0.1-0.6,0.1-1,0.1-1.9c0-0.1,0-0.8,0-1.6c-2.5,1.1-4.7,2.6-4.7,4.2c0,1.9,2.7,1.9,4.7,1.9c2.6,0,4.4-0.2,5.3-0.3l0.1,1.1
				c-1,0.1-2.5,0.2-4.9,0.2c-2.1,0-6.3,0-6.3-2.9c0-2.4,2.8-4.1,5.6-5.4c-0.2-0.9-0.3-2-1.9-2c-1.9,0-3.7,1.8-4,2
				c-0.2,0.3-2.6,3.3-3.1,3.9l-0.8-0.9c1-0.9,3.1-2.8,4.7-7.9H255v-1.1h4.7c0.3-1.2,0.4-1.8,0.5-2.4L261.4,213.5z"/>
			<path fill="#3A3A3A" d="M66.5,243.1h-5.2v16.8h-1v-17.8h6.2V243.1z"/>
			<path fill="#3A3A3A" d="M81.8,244.5v13.3H67.4v-1.1h13.2v-11.2H67.6v-1.1H81.8z"/>
			<path fill="#3A3A3A" d="M90.1,248c-1.7-1.2-4.2-2.2-6-2.8l0.6-1.1c1.4,0.4,4,1.4,6,2.7L90.1,248z M84.4,257.4
				c5.6-0.2,11.8-3.1,14.6-11.8l1.1,0.5c-0.7,2-2.2,6.1-6,9.1c-2.6,2.1-5.9,3.3-9.3,3.5L84.4,257.4z"/>
			<path fill="#3A3A3A" d="M116.7,248.6v1.1H110l0,0.7c-0.2,5.4-2.3,7.8-7.4,8.9l-0.5-1.1c5.3-0.9,6.6-3.4,6.7-7.7l0-0.8h-8v-1.1
				H116.7z M115.1,243.5v1.1h-12.6v-1.1H115.1z"/>
			<path fill="#3A3A3A" d="M125.2,247.2v-4.3h1.2v4.3h7.4v1.1h-7.4v0.8c0,7-4.8,9-7.4,10l-0.6-1c0.9-0.3,3.3-1.2,4.9-3
				c1.8-2.1,1.9-5.5,1.9-6.1v-0.8h-7.9v-1.1H125.2z"/>
			<path fill="#3A3A3A" d="M133.9,259.2h5.2v-16.8h1v17.8h-6.2V259.2z"/>
			<path fill="#3A3A3A" d="M154.9,243.2c-0.4,1.9-0.9,4.3-0.9,8.8c0,4.4,0.4,6,0.6,6.9l-1.3,0.1c-0.2-1.3-0.5-3.4-0.5-6.9
				c0-3.1,0.2-6.1,0.9-9.1L154.9,243.2z M159.9,251.6c-1,1.4-1,2.6-1,2.8c0,2.1,2.4,2.3,4.5,2.3c0.3,0,3-0.1,4.4-0.2v1.2
				c-1.1,0.1-2,0.2-3.4,0.2c-2.4,0-6.6,0-6.6-3.4c0-0.8,0.2-1.9,1-3.2L159.9,251.6z M167.3,244.8v1.1h-8.9v-1.1H167.3z"/>
			<path fill="#3A3A3A" d="M168.4,258c2.1-2.2,4.2-5.7,4.5-14.3l1.3,0.2c-0.5,8.1-2.1,12-4.8,14.9L168.4,258z M180.7,243.8
				c0.5,8.5,2.8,11.9,5.1,14.3l-1,0.9c-2.6-2.8-4.6-6.7-5.3-15L180.7,243.8z M185.9,244.3c0,1.1-0.9,2-2,2c-1.1,0-2-0.9-2-2
				c0-1.1,0.9-2,2-2C185,242.3,185.9,243.2,185.9,244.3z M182.8,244.3c0,0.6,0.5,1.1,1.1,1.1c0.6,0,1.1-0.5,1.1-1.1
				c0-0.6-0.5-1.1-1.1-1.1C183.3,243.2,182.8,243.7,182.8,244.3z"/>
			<path fill="#3A3A3A" d="M189.8,252.8c-0.3-1.9-0.9-3.3-1.6-4.7l1-0.3c1,1.9,1.4,3.8,1.7,4.7L189.8,252.8z M189.8,258.4
				c4.4-0.9,8.8-3,9.8-11l1.1,0.2c-1.4,7.9-5.1,10.5-10.5,11.8L189.8,258.4z M194,251.9c-0.2-1.5-0.7-3.1-1.3-4.6l1-0.2
				c0.5,1.1,1.1,3.2,1.4,4.6L194,251.9z"/>
			<path fill="#3A3A3A" d="M219.5,246.5v1.1h-5c-0.5,5-1.5,10.2-9.2,11.7l-0.4-1.1c5.4-1.1,7.8-3.7,8.4-10.6h-6
				c-1.2,2.7-3,4.1-3.6,4.5l-0.8-0.9c1.1-0.8,3.7-2.7,4.6-8.5l1.3,0.2c-0.3,1.3-0.6,2.4-1,3.6H219.5z"/>
			<path fill="#3A3A3A" d="M236.9,250.5v1.2h-16.9v-1.2H236.9z"/>
			<path fill="#3A3A3A" d="M243.5,251.2c-1.8-1-3.6-1.7-5.5-2.3l0.5-1c2.1,0.5,4.6,1.7,5.6,2.2L243.5,251.2z M238.9,257.4
				c9.3-0.9,11.9-5.5,13.6-11l1.1,0.5c-2.4,7.2-6,10.7-14.4,11.8L238.9,257.4z M245,246.7c-1.6-0.9-3.4-1.7-5.6-2.3l0.5-1
				c0.9,0.2,2.3,0.6,5.6,2.2L245,246.7z M251.3,245.9c-0.6-1.2-0.9-1.8-1.6-2.7l0.9-0.5c0.9,1,1.4,2.2,1.7,2.6L251.3,245.9z
				 M253.5,245c-0.4-0.7-0.9-1.6-1.7-2.6l0.9-0.5c0.9,0.9,1.4,2,1.7,2.5L253.5,245z"/>
			<path fill="#3A3A3A" d="M261.1,248c-1.7-1.2-4.2-2.2-6-2.8l0.6-1.1c1.4,0.4,4,1.4,6,2.7L261.1,248z M255.4,257.4
				c5.6-0.2,11.8-3.1,14.6-11.8l1.1,0.5c-0.7,2-2.2,6.1-6,9.1c-2.6,2.1-5.9,3.3-9.3,3.5L255.4,257.4z"/>
			<path fill="#3A3A3A" d="M272.2,250.3c3.9-2.5,5.6-6.2,6.3-7.7l1.3,0.2c-0.3,0.7-0.6,1.5-1.4,2.7h8.7c-0.7,3.4-2.1,6.7-4.5,9.3
				c-2.5,2.7-5.4,3.8-8.9,4.5l-0.5-1.1c3-0.5,9.9-1.9,12.3-11.7h-7.8c-1,1.3-2.6,3.4-4.7,4.7L272.2,250.3z M285.5,244.9
				c-0.5-1.3-0.8-1.9-1.1-2.5l0.9-0.3c0.5,0.8,1,1.8,1.2,2.5L285.5,244.9z M287.8,244.7c-0.1-0.3-0.8-1.9-1.2-2.6l1-0.3
				c0.3,0.6,0.9,1.7,1.2,2.5L287.8,244.7z"/>
			<path fill="#3A3A3A" d="M292.9,243c0,1.5-0.2,8-0.2,9.3c0,3,0.2,5.7,4.3,5.7c4,0,5.1-2.2,5.5-3c0.6-1.1,0.9-2.9,1-3.7l1.1,0.3
				c-0.5,2.7-1.3,7.5-7.5,7.5c-5.1,0-5.7-2.9-5.7-7c0-1.4,0.1-7.8,0.2-9.1H292.9z"/>
			<path fill="#3A3A3A" d="M322,245.2c-1.6-0.1-1.8-0.1-2.2-0.1c-1.1,0-1.5,0.2-1.8,0.2c-3.1,1.1-7.1,4.2-7.1,7.9
				c0,2.2,1.2,3.3,3,3.9c2,0.7,4.3,0.8,6.2,0.8l-0.3,1.2c-5-0.2-10.2-1.1-10.2-5.8c0-3.7,3.2-6.5,6.5-8.3c-2,0-8.5,0.4-10.4,0.6
				l-0.2-1.3c0.8,0,4.1-0.2,5.7-0.2c5.2-0.3,6.5-0.3,10.6-0.3V245.2z"/>
			<path fill="#3A3A3A" d="M325.9,259.3c-1.1-1.7-1.9-2.5-2.9-3.6l1-0.8c1.3,1.2,2.4,2.6,3.1,3.6L325.9,259.3z"/>
			<path fill="#3A3A3A" d="M108.1,277.5v1.1h-6.7v0.8c0,1.7-0.4,4.3-1.8,6c-1.3,1.6-3.3,2.3-5.6,2.8l-0.5-1.1
				c2.3-0.5,4.1-1.1,5.3-2.7c1.4-1.9,1.4-4.7,1.4-5.1l0-0.8h-8v-1.1H108.1z M104.5,272.5v1.1H93.8v-1.1H104.5z M106.4,275.5
				c-0.2-0.7-0.7-1.9-1.3-2.8l0.9-0.4c0.4,0.6,1.1,2.1,1.4,2.8L106.4,275.5z M108.5,274.6c-0.2-0.3-0.7-1.6-1.4-2.8l0.9-0.4
				c0.6,0.8,1.1,1.8,1.5,2.6L108.5,274.6z"/>
			<path fill="#3A3A3A" d="M111.6,287c10.6-1.3,11.6-9.8,11.8-12.2h-13.7v-1.1h13c0-0.1-0.1-0.2-0.1-0.5c0-1.2,0.9-2,2-2
				c1.1,0,2,0.9,2,2c0,1-0.8,2-2,2c-0.5,3.4-1.7,11.1-12.6,12.9L111.6,287z M123.5,273.3c0,0.6,0.5,1.1,1.1,1.1
				c0.6,0,1.1-0.5,1.1-1.1c0-0.6-0.5-1.1-1.1-1.1C124,272.1,123.5,272.6,123.5,273.3z"/>
			<path fill="#3A3A3A" d="M141.8,273.4v13.4h-14.7v-13.4H141.8z M140.7,274.5h-12.5v11.2h12.5V274.5z"/>
			<path fill="#3A3A3A" d="M153.4,288.4h-1.2v-9.8c-2.5,1.9-5.4,3.4-8.4,4.5l-0.5-1.1c2.7-0.8,9.2-3.7,14.1-10.2l1.1,0.7
				c-2.5,3.1-4.7,4.8-5.1,5.2V288.4z"/>
			<path fill="#3A3A3A" d="M163.4,288.3c-1.1-1.7-1.9-2.5-2.9-3.6l1-0.8c1.3,1.2,2.4,2.6,3.1,3.6L163.4,288.3z"/>
			<path fill="#3A3A3A" d="M179.1,277.1v-0.9h6.1v-1.5h1.1v1.5h6.2v0.9h-6.2v2.1h6.2v0.9h-6.2c0,0.6,0,1.2-0.3,2.2h8.5v0.9h-7.7
				c1.3,2.4,3.3,3.7,7.7,4.7l-0.4,1c-5.1-1.2-7.1-3.1-8.3-5.7h-0.1c-1.4,3.5-5.4,4.9-8.1,5.6l-0.6-1c5.8-1.3,6.9-3.4,7.5-4.6H177
				v-0.9h7.8c0.2-0.8,0.3-1.5,0.4-2.2h-6.1v-0.9h6.1v-2.1H179.1z M186.3,271.4v1.6h7.6v3.7h-1.1v-2.8h-14.2v2.8h-1.1V273h7.6v-1.6
				H186.3z"/>
			<path fill="#3A3A3A" d="M193.9,281.5c2.6-1.8,4.1-4.2,5-6l0.8,0.5c-0.3,0.5-0.8,1.6-1.9,3.1v9.8h-1.1v-8.5
				c-1.3,1.3-2,1.8-2.5,2.1L193.9,281.5z M199.2,271.8c-2.2,3.6-4,4.7-4.8,5.2l-0.4-1c1.7-0.9,3.4-3,4.3-4.6L199.2,271.8z
				 M211.5,278.4h-3.2v9c0,0.4,0,1.4-1.3,1.4H204l-0.2-1.1l2.9,0.1c0.4,0,0.5-0.1,0.5-0.5v-8.8h-7v-1h11.3V278.4z M210.8,273.3H201
				v-1h9.8V273.3z"/>
			<path fill="#3A3A3A" d="M228,274.2c-1.2-0.1-1.8-0.1-2.3-0.1c-1,0-1.4,0.1-2.2,0.4c-2.4,0.9-4,2.5-5.1,3.8
				c-1.3,1.6-1.5,2.8-1.5,3.9c0,2.2,1.2,3.3,3,3.9c2,0.7,4.3,0.8,6.2,0.8l-0.3,1.2c-5.1-0.2-10.2-1.1-10.2-5.8
				c0-3.3,2.6-6.2,6.6-8.3c-2.9,0.1-8.7,0.5-10.4,0.6l-0.2-1.3c0.6,0,4.8-0.2,7-0.3c4.2-0.2,5.3-0.2,9.3-0.2V274.2z M225.3,279.7
				c-0.1-0.3-0.7-1.7-1.6-2.8l0.9-0.5c0.7,0.9,1.1,1.5,1.7,2.7L225.3,279.7z M227.4,278.7c-0.4-0.9-0.9-1.8-1.6-2.6l0.9-0.5
				c0.5,0.6,1.3,1.7,1.7,2.5L227.4,278.7z"/>
			<path fill="#3A3A3A" d="M237.5,272c0.1,0.7,0.1,1.4,0.3,2.5c1,0,3.1-0.2,5.6-0.6l0.1,1.2c-2.6,0.4-4.1,0.4-5.5,0.5
				c0.3,1.4,0.6,2.1,0.8,2.7c1.8-0.1,4.2-0.2,6-0.6l0.1,1.2c-1.4,0.3-4.1,0.5-5.6,0.5c0.9,1.9,1.8,3.1,2.3,3.8l-1,0.8
				c-0.6-0.7-1.6-2-2.6-4.5c-2,0.1-2.5,0.1-3.9,0.1l-5.2-0.1v-1.1l5.2,0.1c0.7,0,2.1,0,3.5-0.1c-0.4-1.1-0.5-1.6-0.8-2.7
				c-1.5,0.1-2.5,0.1-3,0.1l-4.1,0v-1.1l4,0c1.5,0,2.8-0.1,2.9-0.1c-0.2-1.1-0.3-1.9-0.4-2.5H237.5z M234,281.8
				c-1,0.6-2.1,1.6-2.1,2.7c0,2.5,4.2,2.6,7.2,2.6c2.2,0,3.2-0.1,4-0.2v1.1c-0.7,0.1-1.6,0.1-3.9,0.1c-4.3,0-5.5-0.5-6.2-0.8
				c-0.5-0.2-2.2-1.1-2.2-2.7c0-1.6,1.2-2.8,2.4-3.7L234,281.8z"/>
			<path fill="#3A3A3A" d="M254.1,274.2v-2.3h1.1v2.3h6.5v1h-6.5v2.9h6.1v1h-6.1v3.2c0.8,0.3,3,1,6,3.7l-0.8,1.1
				c-1.8-1.8-3-2.8-5.3-3.8v1.5c0,2.3-1.3,3.5-3.9,3.5c-3.5,0-4.4-1.8-4.4-3.1c0-2,2-3.4,4.9-3.4c1,0,1.8,0.2,2.2,0.2v-2.8h-7.5v-1
				h7.5v-2.9h-7.7v-1H254.1z M254.1,282.9c-0.5-0.1-1-0.3-2.1-0.3c-2.1,0-3.9,0.8-3.9,2.4c0,1.9,2.1,2.1,3.2,2.1
				c2.3,0,2.9-0.9,2.9-2.6V282.9z"/>
			<path fill="#3A3A3A" d="M273,271.7h1.2v2.4h5.2v1h-5.2v3.9c0.1,0.3,0.2,0.7,0.3,1.2c0.1,0.5,0.2,1.1,0.2,1.8c0,3.5-2,6-7.8,6.2
				l-0.4-1.1c6.7,0.1,7.1-3.6,7.3-5.2c-0.3,0.7-1,2.5-3.6,2.5c-2.6,0-3.6-2.1-3.6-3.8c0-2,1.2-4,4-4c1.6,0,2.3,0.7,2.5,1l0-2.7h-10
				v-1h10L273,271.7z M273,279.9c0-0.1-0.4-2.1-2.6-2.1c-1.5,0-2.9,0.9-2.9,2.8c0,1,0.6,2.8,2.5,2.8c0.6,0,1.2-0.2,1.7-0.5
				c0.8-0.5,1.2-1.9,1.2-2.2V279.9z"/>
			<path fill="#3A3A3A" d="M285.6,285.6c0,1.5-1.2,2.7-2.7,2.7c-1.5,0-2.7-1.2-2.7-2.7c0-1.5,1.2-2.7,2.7-2.7
				C284.4,282.9,285.6,284.1,285.6,285.6z M281,285.6c0,1,0.8,1.9,1.9,1.9c1,0,1.8-0.8,1.8-1.9c0-1-0.8-1.8-1.8-1.8
				C281.9,283.7,281,284.5,281,285.6z"/>
		</g>
	</g>
	<g>
		<line fill="#FFFFFF" stroke="#35C8EF" stroke-miterlimit="10" x1="182" y1="156.5" x2="209" y2="156.5"/>
		<circle fill="#35C8EF" cx="181.6" cy="156.5" r="1.6"/>
		<circle fill="#35C8EF" cx="208.8" cy="156.5" r="1.6"/>
	</g>
</g>
</svg>
