<?xml version="1.0" encoding="utf-8"?>
<!-- Generator: Adobe Illustrator 19.1.0, SVG Export Plug-In . SVG Version: 6.00 Build 0)  -->
<svg version="1.0" id="レイヤー_1" xmlns="http://www.w3.org/2000/svg" xmlns:xlink="http://www.w3.org/1999/xlink" x="0px"
	 y="0px" viewBox="-61 -224 112 660" enable-background="new -61 -224 112 660" xml:space="preserve">
<path fill="none" stroke="#1B2B79" stroke-width="6" stroke-miterlimit="10" d="M33.259-135c8-8.833,13.142-21.705,12.996-33.991
	c-0.163-13.962-5.21-26.006-14.999-35.795l-0.553-0.546c-10.155-9.898-22.492-14.831-36.667-14.664
	c-14.218,0.167-26.446,5.389-36.342,15.522c-9.896,10.129-14.83,22.476-14.664,36.699C-56.824-155.5-51.497-144.23-43.741-135"/>
<polyline fill="none" stroke="#1B2B79" stroke-width="6" stroke-miterlimit="10" points="-58.364,-126.492 41.259,-90.179 
	-58.398,-54 "/>
<line fill="none" stroke="#1B2B79" stroke-width="6" stroke-miterlimit="10" x1="-13.724" y1="-109.033" x2="-13.741" y2="-71.362"/>
<path fill="none" stroke="#1B2B79" stroke-width="6" stroke-miterlimit="10" d="M34.259-3c1.564-0.888,4.851-3.892,6.206-5.278
	c3.6-3.736,5.388-8.258,5.327-13.45c-0.06-5.134-1.923-9.571-5.536-13.184l-0.135-0.133c-3.707-3.645-8.246-5.461-13.491-5.398
	c-5.2,0.061-9.682,1.982-13.321,5.707c-3.102,3.22-5.935,7.65-8.436,13.179l-0.114,0.3C2.281-13.259-1.688-6.429-7.035-0.955
	C-12.556,4.74-19.091,7.551-27.02,7.644C-34.996,7.737-41.64,5.08-47.332-0.48l-0.283-0.28c-5.504-5.504-8.224-11.971-8.315-19.771
	c-0.093-7.93,2.583-14.55,8.183-20.242c3.922-4.015,9.977-7.023,15.007-8.228"/>
<line fill="none" stroke="#1B2B79" stroke-width="6" stroke-miterlimit="10" x1="47.214" y1="25.436" x2="-56.741" y2="25.436"/>
<line fill="none" stroke="#1B2B79" stroke-width="6" stroke-miterlimit="10" x1="44.457" y1="22.678" x2="44.585" y2="75"/>
<line fill="none" stroke="#1B2B79" stroke-width="6" stroke-miterlimit="10" x1="-5.009" y1="28.342" x2="-5.028" y2="75"/>
<line fill="none" stroke="#1B2B79" stroke-width="6" stroke-miterlimit="10" x1="-54.598" y1="22.952" x2="-54.741" y2="75"/>
<path fill="none" stroke="#1B2B79" stroke-width="6" stroke-miterlimit="10" d="M34.259,134.354
	c1.564-0.888,4.851-3.892,6.206-5.278c3.6-3.736,5.388-8.258,5.327-13.45c-0.06-5.134-1.923-9.571-5.536-13.184l-0.135-0.133
	c-3.707-3.645-8.246-5.461-13.491-5.398c-5.2,0.061-9.682,1.982-13.321,5.707c-3.102,3.22-5.935,7.65-8.436,13.179l-0.114,0.3
	c-2.479,7.998-6.448,14.828-11.795,20.302c-5.521,5.695-12.056,8.506-19.984,8.599c-7.976,0.093-14.621-2.564-20.313-8.123
	l-0.283-0.28c-5.504-5.504-8.224-11.971-8.315-19.771c-0.093-7.93,2.583-14.55,8.183-20.242c3.922-4.015,9.977-7.023,15.007-8.228"
	/>
<line fill="none" stroke="#1B2B79" stroke-width="6" stroke-miterlimit="10" x1="45.259" y1="142" x2="45.259" y2="202"/>
<line fill="none" stroke="#1B2B79" stroke-width="6" stroke-miterlimit="10" x1="43.818" y1="171.936" x2="-61" y2="171.976"/>
<path fill="none" stroke="#1B2B79" stroke-width="6" stroke-miterlimit="10" d="M46.901,216.402l-71.786-0.348
	c-8.838,0.018-16.092,3.027-22.175,9.201c-2.059,2.089-3.771,4.349-5.089,6.718c-2.538,4.56-3.741,9.757-3.576,15.447
	c0.25,8.697,3.501,15.914,9.939,22.063c5.355,5.114,11.589,8.098,19.054,9.119l75.436,0.342"/>
<line fill="none" stroke="#1B2B79" stroke-width="6" stroke-miterlimit="10" x1="48.259" y1="303" x2="-57.941" y2="303.244"/>
<path fill="none" stroke="#1B2B79" stroke-width="6" stroke-miterlimit="10" d="M44.928,303.244v3.001l-0.132,0.132v0.461
	c0,16.505-4.558,29.41-13.546,38.357C21.253,355.151,9.054,360.2-5.006,360.2c-14.102,0-26.299-5.047-36.253-15
	c-8.992-8.951-13.55-21.856-13.55-38.362v-0.461l-0.132-0.132v-3.001"/>
<line fill="none" stroke="#1B2B79" stroke-width="6" stroke-miterlimit="10" x1="48.259" y1="361" x2="-11.842" y2="396.244"/>
<polyline fill="none" stroke="#1B2B79" stroke-width="6" stroke-miterlimit="10" points="47.259,433 -11.841,397.848 
	-13.092,397.512 -58.741,397.512 "/>
</svg>
