<?xml version="1.0" encoding="utf-8"?>
<!-- Generator: Adobe Illustrator 19.2.1, SVG Export Plug-In . SVG Version: 6.00 Build 0)  -->
<svg version="1.1" id="レイヤー_1" xmlns="http://www.w3.org/2000/svg" xmlns:xlink="http://www.w3.org/1999/xlink" x="0px"
	 y="0px" viewBox="0 0 152 124" style="enable-background:new 0 0 152 124;" xml:space="preserve">
<style type="text/css">
	.st0{fill:#FFFFFF;}
	.st1{fill:#00C1B7;}
	.st2{fill:none;stroke:#FFFFFF;stroke-width:3;stroke-miterlimit:10;}
</style>
<g>
	<g>
		<path class="st0" d="M15.2,62.8c0,0-8.3,2.3-9.8,9.3s2.4,11.2,2.4,11.2s-7.7,5.6-4.7,10.9c3,5.2,22.6-4.3,23-12.1
			c0.2-5.5-5.2-8.1-5.2-8.1s1.7-1.4,2.2-5.3C24.1,61.7,18.7,60.5,15.2,62.8z"/>
		<path class="st1" d="M6.8,98.1L6.8,98.1c-3.4,0-5-1.5-5.7-2.8c-2.7-4.7,0.4-9.6,3.5-12.6C3.3,80.5,1.9,76.6,3,71.4
			c1.6-7.5,9.3-10.4,11.2-11c1.4-0.8,2.9-1.2,4.5-1.2c2.1,0,4,0.8,5.3,2.3c1.1,1.2,2.3,3.5,1.8,7.4c-0.2,1.8-0.7,3.3-1.2,4.3
			c2,1.6,4.4,4.6,4.2,8.9C28.4,90.1,14.4,98.1,6.8,98.1z M5.4,92.9c0,0,0.3,0.2,1.3,0.2l0,0c2.7,0,7-1.6,10.7-4.1
			c3.7-2.4,6.2-5.2,6.2-7.2c0.2-3.8-3.8-5.8-3.8-5.8l-4-1.9l3.5-2.3c0.2-0.2,1-1.2,1.3-3.6c0.2-1.6,0-2.8-0.6-3.5
			c-0.4-0.5-1.1-0.6-1.5-0.6c-0.7,0-1.4,0.2-2.1,0.6l-0.3,0.2L15.7,65c-0.1,0-6.8,2-8,7.4c-1.2,5.6,1.8,8.9,1.8,9l1.9,2.1l-2.3,1.7
			C9.4,85.3,3.6,89.7,5.4,92.9L5.4,92.9z"/>
	</g>
	<g>
		<path class="st0" d="M97.7,92.3c4-3.2,6.2-8.1,5.4-13.3c-0.9-6-5.8-10.6-11.9-11.7c0.5-1.9,0.6-4,0.3-6
			c-1.4-8.8-10.3-14.6-19.8-13.1c-4.6,0.7-8.5,3-11.2,6.2c-3.7-2.2-8.8-3.2-14.1-2.4c-8.3,1.3-14.6,6.6-15.7,12.5
			c-0.8,0-1.7,0.1-2.5,0.2c-8,1.3-13.6,8.3-12.4,15.6c0.4,2.7,1.7,5,3.5,6.9c-1.5,2.5-2.2,5.4-1.7,8.4c0.9,5.9,6,10.2,12.1,10.8
			c0,0.5,0.1,0.9,0.1,1.4c1.1,7,8.1,11.6,15.7,10.5c3.6-0.6,6.7-2.4,8.8-4.8c2.8,5.1,9,8.1,15.5,7.1c6-0.9,10.7-5,12.2-10.1
			c2.2,0.9,4.7,1.3,7.3,0.9c6.9-1.1,11.7-7.1,10.7-13.5C99.8,95.7,98.9,93.8,97.7,92.3z M45,78.1L45,78.1c0.1-0.1,0.1-0.1,0.2-0.1
			C45.1,78,45,78,45,78.1z"/>
		<path class="st1" d="M67.3,123.1c-5.3,0-10.2-2.2-13.3-6c-2.3,1.8-5.1,3-8,3.5c-0.9,0.1-1.8,0.2-2.7,0.2
			c-7.9,0-14.4-5.2-15.8-12.3c-6.4-1.4-11.4-6.4-12.3-12.6c-0.5-2.9,0-5.8,1.2-8.4c-1.5-2-2.6-4.4-3-6.9c-1.4-8.7,5.1-17,14.5-18.5
			c0.3,0,0.6-0.1,1-0.1c2.1-6.2,8.9-11.3,17.2-12.6c1.4-0.2,2.8-0.3,4.2-0.3c3.6,0,6.9,0.7,9.8,2.1c3-2.9,7-4.8,11.3-5.5
			c1.1-0.2,2.2-0.3,3.4-0.3c9.8,0,17.9,6.5,19.3,15.5c0.2,1.5,0.3,3.1,0.1,4.6c6.1,2,10.6,7,11.5,13.2c0.8,5.1-0.9,10.2-4.6,14
			c0.8,1.4,1.4,3,1.6,4.6c0.6,3.8-0.4,7.6-2.9,10.7c-2.4,3-5.9,5-9.9,5.7c-2.1,0.3-4.3,0.2-6.3-0.2c-2.5,4.9-7.5,8.6-13.3,9.5
			C69.3,123,68.3,123.1,67.3,123.1z M54.8,109l1.7,3.1c2,3.7,6.2,6,10.8,6c0.7,0,1.4-0.1,2.2-0.2c4.9-0.8,8.9-4.1,10.2-8.4l0.8-2.6
			l2.6,1.1c1.8,0.8,3.9,1,6,0.7c2.7-0.4,5.1-1.8,6.8-3.8c1.6-2,2.3-4.4,1.9-6.8c-0.2-1.5-0.9-2.9-1.9-4.1l-1.8-2l2-1.6
			c3.5-2.8,5.1-6.9,4.5-10.9c-0.8-4.9-4.7-8.6-9.9-9.7l-2.6-0.5l0.7-2.6c0.4-1.7,0.5-3.3,0.2-5c-1-6.5-7.1-11.3-14.3-11.3
			c-0.9,0-1.7,0.1-2.6,0.2c-3.8,0.6-7.2,2.5-9.6,5.3l-1.4,1.6l-1.8-1.1c-3.3-2-7.9-2.8-12.4-2.1c-7,1.1-12.7,5.5-13.6,10.4l-0.4,2.1
			h-2.1l0,0c-0.7,0-1.5,0.1-2.1,0.2c-6.7,1-11.3,6.8-10.4,12.8c0.3,2.1,1.3,4,2.8,5.5l1.4,1.4l-1,1.7c-1.3,2.1-1.7,4.4-1.4,6.7
			c0.7,4.6,4.8,8.2,9.9,8.7l2.2,0.2l0.1,2.2c0,0.4,0.1,0.7,0.1,1.1c0.8,4.9,5.4,8.5,10.9,8.5c0.7,0,1.3-0.1,2-0.2
			c2.9-0.5,5.5-1.9,7.3-4L54.8,109z M42.3,82.9l0.2-5.1l0.1-2.6l2.8,0.2l7.4,0.5l-6.3,4.2L42.3,82.9z"/>
	</g>
	<path class="st1" d="M32.3,106.6c0,0-0.8-4.2,2.1-10.3c0,0-6.2,0.7-6.4,8.2"/>
	<path class="st1" d="M79.7,109.7c0,0,2.3-5.9-0.2-11.6c0,0,6.9,3.3,4.7,11.4"/>
	<g>
		<path class="st0" d="M95,40.1c1-2.3,1.5-4.8,1.5-7.5c0-10.3-8.4-18.7-18.7-18.7c-1.2,0-2.4,0.1-3.6,0.3C72,7.2,63.4,2,53.3,2.2
			C41.9,2.5,32.7,9.4,32.4,17.7c-0.3,0-0.6,0-0.9,0c-7.7,0-13.9,6.2-13.9,13.9c0,2.8,0.8,5.3,2.2,7.5c-5.4,2.9-9,8.6-9,15.1
			c0,8.4,6,15.4,14,16.9c2.8,7,9.7,12,17.8,12c4.7,0,8.9-1.7,12.3-4.4c3.6,3.1,8.7,5,14.4,5c8.1,0,15-3.9,18-9.4
			c8.1,1.1,16.1-4.7,18.3-13.5C107.8,51.7,103.1,42.6,95,40.1z"/>
		<path class="st1" d="M69.3,86.2c-5.4,0-10.4-1.5-14.4-4.4c-3.6,2.5-7.9,3.8-12.2,3.8c-8.4,0-16-4.8-19.6-12.4
			C14.5,71,8.3,63.2,8.3,54.1c0-6.4,3.1-12.3,8.2-16c-0.9-2.1-1.4-4.3-1.4-6.6c0-8.6,6.7-15.7,15.1-16.3C32,6.6,41.6,0,53.2-0.2
			c10.2-0.2,19.2,4.6,22.6,11.7c0.7-0.1,1.3-0.1,2-0.1c11.7,0,21.2,9.5,21.2,21.2c0,2.1-0.3,4.1-0.9,6c7.9,3.8,12.1,13.3,9.8,22.7
			c-2.3,9.2-9.9,15.5-18.7,15.5l0,0c-0.2,0-0.4,0-0.7,0C84.8,82.6,77.4,86.2,69.3,86.2z M54.9,75.4l1.6,1.4
			c3.3,2.8,7.9,4.4,12.8,4.4c7,0,13.2-3.2,15.8-8.1l0.8-1.5l1.7,0.2c0.5,0.1,1.1,0.1,1.7,0.1c6.3,0,12.2-4.9,13.8-11.7
			c1.9-7.8-2-15.5-8.8-17.7l-2.7-0.8l1.1-2.6c0.9-2,1.3-4.2,1.3-6.5c0-9-7.3-16.2-16.2-16.2c-1,0-2.1,0.1-3.1,0.3l-2.2,0.4L71.9,15
			c-2-6-9.8-10.4-18.6-10.2c-9.8,0.2-18.1,6-18.4,13.1l-0.1,2.6l-2.6-0.2c-0.3,0-0.5,0-0.7,0c-6.3,0-11.4,5.1-11.4,11.4
			c0,2.2,0.6,4.3,1.8,6.1l1.5,2.3L21,41.4c-4.7,2.6-7.7,7.5-7.7,12.9c0,7.1,5,13.2,12,14.5l1.4,0.3l0.5,1.3
			c2.5,6.4,8.6,10.5,15.4,10.5c3.9,0,7.7-1.4,10.7-3.9L54.9,75.4z"/>
	</g>
	<path class="st1" d="M80.4,16.5c0,0-12.5-0.7-21.8,16.8c0,0-0.7-11.6,12.9-20.8"/>
	<path class="st1" d="M23.7,21.8c6.9-2.6,18.7,1.7,22.4,12.5c0,0-0.6-9.5-11.1-16.1"/>
	<path class="st1" d="M85.6,72.5c0,0,2.9-7.3,1.9-11.7c0,0,5.4,9.2,2.9,13"/>
	<path class="st1" d="M27.1,70.1c0,0-1.8-3.5-0.6-7.2c0,0-4.2,2.9-2.9,7"/>
	<path class="st1" d="M94.3,42.6c0,0-5.9-2.4-9.5-0.7c0,0,5.3-5.7,11.2-4"/>
	<path class="st1" d="M21.1,41.3c0,0,3.5-2.8,8.8-2.1c0,0-4.8-4-9.9-1.1"/>
	<g>
		<path class="st0" d="M109.1,60.7c0,0,1.5-6.2,8.9-10.7c9.2-5.6,4.4,6.3,3.7,7.5c0,0,9.2-7.8,17,0c6.1,6.1,0.7,12.9-9.5,13.1
			s-12.6-1.3-12.6-1.3s-1.2,14.3-8.3,17.5C101.3,90,92.7,79.3,93,72c0.3-6.1,5.7-6.7,9.6-3.3c1.6,1.4,3,4.1,3,4.1
			S105.5,67.5,109.1,60.7z"/>
		<path class="st1" d="M105.7,89.8c-3.1,0-6.5-1.7-9.3-4.7c-3.6-3.8-5.8-9-5.6-13.2c0.3-5.6,3.9-7.6,7-7.6c2.2,0,4.5,0.9,6.4,2.6
			c0.5-2.1,1.4-4.5,2.8-7.2c0.4-1.4,2.7-7.4,9.9-11.8c2.1-1.2,3.7-1.8,5-1.8c1.5,0,2.8,0.7,3.5,2c0.7,1.2,0.7,2.9,0.4,4.5
			c1.5-0.5,3.2-0.9,5.1-0.9c3.6,0,6.8,1.4,9.5,4.1c3,3,4,6.6,2.7,9.9c-1.7,4.3-7,7.1-13.8,7.3c-0.7,0-1.5,0-2.2,0
			c-4,0-6.7-0.3-8.5-0.6c-0.8,4.8-3.1,13.8-9.3,16.6C108.2,89.6,107,89.8,105.7,89.8z M97.8,69.1c-1.4,0-2.2,1.1-2.3,3.1
			c-0.1,2.9,1.7,6.9,4.3,9.7c1.9,2,4.1,3.2,5.9,3.2c0.6,0,1.2-0.1,1.7-0.4c4.7-2.1,6.6-12.2,6.9-15.6l0.4-4.4l3.2,2.6
			c0.4,0.2,2.8,1,9.2,1c0.7,0,1.3,0,2.1,0c5.5-0.1,8.7-2.3,9.5-4.3c0.7-1.9-0.5-3.6-1.7-4.8c-1.9-1.9-3.9-2.8-6.2-2.8
			c-4.1,0-7.6,2.9-7.6,2.9l-3.5-3c0.6-1,1.5-3.8,1.6-5.3c-0.4,0.1-1.1,0.4-2,1c-6.4,3.9-7.8,9-7.9,9.2l-0.1,0.3l-0.1,0.3
			c-3.3,6.1-3.1,10.9-3.1,11l-4.4,1.2c-0.3-0.6-1.4-2.5-2.5-3.4C100.1,69.6,98.8,69.1,97.8,69.1z"/>
	</g>
	<polygon class="st1" points="103.6,73.8 107.3,79.6 108,72.7 	"/>
	<g>
		<path class="st1" d="M36.6,52.5c0.7,0.6,1.5,1.1,2.3,1.6s1.6,0.9,2.5,1.3c1.7,0.7,3.4,1.3,5.2,1.6s3.6,0.4,5.4,0.4
			c0.9,0,1.8-0.1,2.7-0.2l0.7-0.1h0.3H56c0.4-0.1,0.9-0.2,1.3-0.2c1.7-0.4,3.3-1,4.8-1.8c0.7-0.4,1.5-0.9,2.1-1.4
			c0.7-0.5,1.3-1.1,1.9-1.7c0.6-0.6,1.2-1.2,1.7-1.9s1-1.4,1.5-2.1c0.9-1.5,1.7-3.1,2.3-4.7l0,0c0.4-1,1.4-1.5,2.4-1.1
			c0.9,0.3,1.4,1.3,1.2,2.3c-0.6,2-1.4,3.9-2.5,5.6c-1.1,1.8-2.3,3.4-3.8,4.8c-3,2.9-6.9,4.9-11,5.5c-2.1,0.3-4,0.4-6,0.2
			c-2-0.1-4-0.5-5.9-1.1S42.3,58,40.6,57c-1.6-1.1-3.2-2.4-4.3-4c-0.1-0.1-0.1-0.2,0-0.3C36.4,52.4,36.6,52.4,36.6,52.5L36.6,52.5z"
			/>
		<path class="st1" d="M68.6,41.8c0.5-1.3,1.3-2.4,2.4-3.3c0.6-0.4,1.3-0.8,2.1-0.9c0.8-0.2,1.7-0.1,2.5,0.2h0.1h0.1l0.1,0.1
			c0.1,0,0.2,0.1,0.3,0.1c0.2,0.1,0.4,0.2,0.5,0.3c0.3,0.2,0.7,0.5,0.9,0.9c0.5,0.6,0.8,1.4,1,2.1c0.2,0.7,0.2,1.4,0.1,2.1
			c-0.1,0.7-0.2,1.3-0.5,2c-0.1,0.2-0.3,0.3-0.5,0.2c-0.1,0-0.2-0.1-0.2-0.2l0,0c-0.3-1.2-0.6-2.3-1.1-3.3c-0.2-0.5-0.5-0.8-0.8-1.1
			s-0.6-0.5-1-0.6s-0.8-0.2-1.2-0.2c-0.4,0-0.9,0.1-1.4,0.3c-1,0.4-2,1-3,1.7l0,0c-0.2,0.1-0.4,0.1-0.5-0.1
			C68.5,42,68.5,41.9,68.6,41.8z"/>
	</g>
	<circle class="st1" cx="128.5" cy="39.6" r="23.2"/>
	<g>
		<g>
			<polygon class="st0" points="134.5,34 134.5,36.3 136.6,35.8 137.3,38.4 130.9,49.2 134,48.5 138.5,41.1 141.1,47.9 145.5,45.2 
				144.9,43.1 142.8,44.3 138.3,33 			"/>
		</g>
	</g>
	<path class="st2" d="M117.1,26.8c0,0-3.3,0.9-4.8,5.5c-0.6,1.7-0.7,3.5-0.7,3.5v3.5"/>
</g>
</svg>
