<?xml version="1.0" encoding="utf-8"?>
<!-- Generator: Adobe Illustrator 19.1.0, SVG Export Plug-In . SVG Version: 6.00 Build 0)  -->
<svg version="1.0" id="レイヤー_1" xmlns="http://www.w3.org/2000/svg" xmlns:xlink="http://www.w3.org/1999/xlink" x="0px"
	 y="0px" viewBox="0 0 191 28" enable-background="new 0 0 191 28" xml:space="preserve">
<g>
	<g>
		<path fill="#1B2B79" d="M23.5,3.5v21.7H0v-1.8h21.5V5.3H0.2V3.5H23.5z"/>
		<path fill="#1B2B79" d="M37,9.3c-2.7-1.9-6.8-3.6-9.7-4.5l1-1.7c2.3,0.7,6.5,2.3,9.8,4.4L37,9.3z M27.7,24.6
			c9.2-0.3,19.1-5,23.7-19.1l1.8,0.7C52,9.4,49.5,16,43.4,21c-4.3,3.4-9.6,5.4-15.1,5.7L27.7,24.6z"/>
		<path fill="#1B2B79" d="M80.2,10.2V12H69.3l0,1.1c-0.2,8.8-3.8,12.7-12.1,14.4l-0.8-1.7c8.6-1.5,10.7-5.5,11-12.5l0.1-1.4H54.4
			v-1.8H80.2z M77.6,1.9v1.8H57V1.9H77.6z"/>
		<path fill="#1B2B79" d="M94.1,7.9v-7H96v7h12.1v1.8H96v1.4c0,11.4-7.8,14.7-12,16.3L83,25.8c1.5-0.5,5.4-2,8-4.9
			c2.9-3.3,3-9,3-9.9V9.7H81.2V7.9H94.1z"/>
		<path fill="#1B2B79" d="M113.6,25.6c17.2-2.1,18.8-15.9,19.2-19.8h-22.3V4h21.1c-0.1-0.2-0.1-0.4-0.1-0.7c0-1.9,1.5-3.2,3.2-3.2
			c1.8,0,3.2,1.4,3.2,3.2c0,1.7-1.3,3.2-3.3,3.2c-0.8,5.5-2.8,18-20.5,21L113.6,25.6z M132.9,3.2c0,1,0.8,1.9,1.9,1.9
			c1.1,0,1.9-0.9,1.9-1.9c0-1.1-0.8-1.9-1.9-1.9C133.7,1.4,132.9,2.2,132.9,3.2z"/>
		<path fill="#1B2B79" d="M162.9,9.5c-1.5,13.4-9.3,16.8-20,17.9l-0.5-1.9c8.9-0.9,16.7-3.1,18.5-14.3h-22.8V9.5H162.9z M161,2v1.8
			h-20.7V2H161z"/>
		<path fill="#1B2B79" d="M174.2,9.3c-2.7-1.9-6.8-3.6-9.7-4.5l1-1.7c2.3,0.7,6.5,2.3,9.8,4.4L174.2,9.3z M164.8,24.6
			c9.2-0.3,19.1-5,23.7-19.1l1.8,0.7c-1.1,3.2-3.6,9.9-9.8,14.8c-4.3,3.4-9.6,5.4-15.1,5.7L164.8,24.6z"/>
	</g>
</g>
</svg>
