<?xml version="1.0" encoding="utf-8"?>
<!-- Generator: Adobe Illustrator 19.1.0, SVG Export Plug-In . SVG Version: 6.00 Build 0)  -->
<svg version="1.0" id="レイヤー_1" xmlns="http://www.w3.org/2000/svg" xmlns:xlink="http://www.w3.org/1999/xlink" x="0px"
	 y="0px" viewBox="0 0 366 13" enable-background="new 0 0 366 13" xml:space="preserve">
<g>
	<path d="M8.3,8.8l0.4,0.4c-1,0.9-2.2,1.4-3.5,1.4C3.8,10.5,2.5,10,1.5,9S0,6.8,0,5.3c0-1.4,0.5-2.7,1.5-3.7s2.2-1.5,3.7-1.5
		c1.3,0,2.5,0.5,3.5,1.4L8.3,1.9C7.4,1.1,6.4,0.7,5.2,0.7C3.9,0.7,2.8,1.1,1.9,2C1,3,0.6,4,0.6,5.3c0,1.3,0.5,2.4,1.4,3.3
		c0.9,0.9,2,1.4,3.3,1.4C6.4,9.9,7.4,9.5,8.3,8.8z"/>
	<path d="M16,3.6c1,0,1.8,0.3,2.5,1c0.7,0.7,1,1.5,1,2.5c0,1-0.3,1.8-1,2.5c-0.7,0.7-1.5,1-2.5,1c-1,0-1.8-0.3-2.5-1
		c-0.7-0.7-1-1.5-1-2.5c0-1,0.3-1.8,1-2.5C14.2,3.9,15,3.6,16,3.6z M14,5c-0.6,0.6-0.8,1.2-0.8,2c0,0.8,0.3,1.5,0.8,2s1.2,0.8,2,0.8
		c0.8,0,1.5-0.3,2-0.8s0.8-1.2,0.8-2c0-0.8-0.3-1.5-0.8-2s-1.2-0.8-2-0.8C15.2,4.2,14.5,4.5,14,5z"/>
	<path d="M23.6,4.2h0.6V5c0.1-0.1,0.2-0.3,0.4-0.4c0.7-0.7,1.5-1,2.5-1c1,0,1.8,0.3,2.5,1c0.7,0.7,1,1.5,1,2.5c0,1-0.3,1.8-1,2.5
		c-0.7,0.7-1.5,1-2.5,1c-1,0-1.8-0.3-2.5-1c-0.1-0.1-0.3-0.3-0.4-0.4v3.6h-0.6V4.2z M24.2,6.5v1.2c0.1,0.5,0.4,1,0.8,1.4
		c0.6,0.6,1.2,0.8,2,0.8c0.8,0,1.5-0.3,2-0.8s0.8-1.2,0.8-2c0-0.8-0.3-1.5-0.8-2s-1.2-0.8-2-0.8c-0.8,0-1.5,0.3-2,0.8
		C24.5,5.5,24.3,5.9,24.2,6.5z"/>
	<path d="M36.9,9.8l-1.4,2.9h-0.6l1.7-3.5l-2.4-5.1h0.6l2.1,4.5L39,4.2h0.6L36.9,9.8L36.9,9.8z"/>
	<path d="M43.6,4.2h0.6v1.1c0.1-0.2,0.3-0.3,0.4-0.5c0.5-0.5,1-0.8,1.5-0.8v0.6c-0.4,0-0.7,0.2-1.1,0.6c-0.5,0.5-0.8,1.2-0.8,1.9
		v3.2h-0.6V4.2z"/>
	<path d="M50.9,2.1C51,2.2,51,2.4,51,2.5c0,0.2-0.1,0.3-0.2,0.4c-0.1,0.1-0.2,0.2-0.4,0.2c-0.2,0-0.3-0.1-0.4-0.2
		c-0.1-0.1-0.2-0.2-0.2-0.4c0-0.2,0.1-0.3,0.2-0.4c0.1-0.1,0.2-0.2,0.4-0.2C50.6,1.9,50.7,2,50.9,2.1z M50.7,4.2v6.2h-0.6V4.2H50.7z
		"/>
	<path d="M61.5,9.2c-0.1,0.1-0.2,0.3-0.3,0.4c-0.7,0.7-1.5,1-2.5,1c-1,0-1.8-0.3-2.5-1c-0.7-0.7-1-1.5-1-2.5c0-1,0.3-1.8,1-2.5
		s1.5-1,2.5-1c1,0,1.8,0.3,2.5,1c0.1,0.1,0.3,0.3,0.4,0.4V4.2h0.6V9c0,0.9-0.3,1.7-1,2.4c-0.7,0.7-1.5,1-2.5,1c-1,0-1.8-0.3-2.5-1
		c-0.1-0.1-0.3-0.3-0.4-0.4l0.6-0.2c0.1,0.1,0.1,0.2,0.2,0.2c0.6,0.6,1.2,0.8,2,0.8c0.8,0,1.5-0.3,2-0.8
		C61.2,10.5,61.5,9.9,61.5,9.2z M61.5,6.5c-0.1-0.5-0.4-1-0.8-1.4c-0.6-0.6-1.2-0.8-2-0.8s-1.5,0.3-2,0.8c-0.6,0.6-0.8,1.2-0.8,2
		c0,0.8,0.3,1.5,0.8,2c0.6,0.6,1.2,0.8,2,0.8s1.5-0.3,2-0.8c0.4-0.4,0.7-0.9,0.8-1.4V6.5z"/>
	<path d="M66.6,0.2h0.6v4.2c0.5-0.5,1.1-0.7,1.7-0.7c0.7,0,1.3,0.2,1.8,0.7c0.5,0.5,0.7,1,0.7,1.7v4.2h-0.6V6.3c0-0.5-0.2-1-0.6-1.4
		c-0.4-0.4-0.8-0.6-1.4-0.6s-1,0.2-1.4,0.6c-0.2,0.2-0.3,0.3-0.4,0.5v5h-0.6V0.2z"/>
	<path d="M76.8,4.2V1.5h0.6v2.7h1.3v0.6h-1.3v5.7h-0.6V4.7h-1.3V4.2H76.8z"/>
	<path d="M89,3.9c0.7,0.7,1.1,1.6,1.1,2.7c0,1.1-0.4,2-1.1,2.7c-0.7,0.7-1.6,1.1-2.7,1.1c-1.1,0-2-0.4-2.7-1.1
		c-0.7-0.7-1.1-1.6-1.1-2.7c0-1.1,0.4-2,1.1-2.7c0.7-0.7,1.6-1.1,2.7-1.1C87.3,2.7,88.2,3.1,89,3.9z M86.3,3.2c-0.9,0-1.7,0.3-2.4,1
		c-0.7,0.7-1,1.4-1,2.4c0,0.9,0.3,1.7,1,2.4c0.7,0.7,1.5,1,2.4,1c0.9,0,1.7-0.3,2.4-1s1-1.4,1-2.4c0-0.9-0.3-1.7-1-2.4
		S87.2,3.2,86.3,3.2z M87.7,7.6l0.4,0.2C88,7.9,87.9,8,87.9,8c-0.4,0.4-0.9,0.6-1.5,0.6c-0.6,0-1.1-0.2-1.5-0.6
		c-0.4-0.4-0.6-0.9-0.6-1.5s0.2-1.1,0.6-1.5c0.4-0.4,0.9-0.6,1.5-0.6c0.6,0,1.1,0.2,1.5,0.6c0.1,0.1,0.2,0.2,0.3,0.3l-0.4,0.2
		c0-0.1-0.1-0.1-0.1-0.2c-0.3-0.3-0.7-0.5-1.2-0.5s-0.8,0.2-1.2,0.5s-0.5,0.7-0.5,1.2c0,0.5,0.2,0.8,0.5,1.2s0.7,0.5,1.2,0.5
		s0.8-0.2,1.2-0.5C87.6,7.7,87.6,7.6,87.7,7.6z"/>
	<path d="M102,6.9v3.5h-0.6V0.2h2.7c0.8,0.1,1.4,0.4,2,1c0.6,0.6,1,1.4,1,2.3c0,0.9-0.3,1.7-1,2.3c-0.6,0.6-1.4,1-2.3,1H102z
		 M102,0.8v5.5h1.7c0.8,0,1.4-0.3,1.9-0.8s0.8-1.2,0.8-1.9s-0.3-1.4-0.8-1.9s-1.2-0.8-1.9-0.8H102z"/>
	<path d="M110.9,4.2h0.6v1.1c0.1-0.2,0.3-0.3,0.4-0.5c0.5-0.5,1-0.8,1.5-0.8v0.6c-0.4,0-0.7,0.2-1.1,0.6c-0.5,0.5-0.8,1.2-0.8,1.9
		v3.2h-0.6V4.2z"/>
	<path d="M120.4,3.6c1,0,1.8,0.3,2.5,1c0.7,0.7,1,1.5,1,2.5c0,1-0.3,1.8-1,2.5c-0.7,0.7-1.5,1-2.5,1c-1,0-1.8-0.3-2.5-1
		c-0.7-0.7-1-1.5-1-2.5c0-1,0.3-1.8,1-2.5C118.7,3.9,119.5,3.6,120.4,3.6z M118.4,5c-0.6,0.6-0.8,1.2-0.8,2c0,0.8,0.3,1.5,0.8,2
		s1.2,0.8,2,0.8c0.8,0,1.5-0.3,2-0.8s0.8-1.2,0.8-2c0-0.8-0.3-1.5-0.8-2s-1.2-0.8-2-0.8C119.6,4.2,119,4.5,118.4,5z"/>
	<path d="M130.6,10.5c-0.8,0-1.4-0.2-1.9-0.7s-0.7-1-0.7-1.7V4.2h0.6V8c0,0.5,0.2,1,0.6,1.4c0.4,0.4,0.9,0.6,1.4,0.6
		c0.5,0,1-0.2,1.4-0.6s0.6-0.8,0.6-1.4V4.2h0.6V8c0,0.7-0.2,1.3-0.7,1.7C131.9,10.2,131.4,10.5,130.6,10.5z"/>
	<path d="M144.4,10.4h-0.6V9.1c-0.1,0.1-0.2,0.3-0.4,0.4c-0.7,0.7-1.5,1-2.5,1c-1,0-1.8-0.3-2.5-1c-0.7-0.7-1-1.5-1-2.5
		c0-1,0.3-1.8,1-2.5s1.5-1,2.5-1c1,0,1.8,0.3,2.5,1c0.1,0.1,0.3,0.3,0.4,0.4V0.2h0.6V10.4z M143.8,7.6V6.5c-0.1-0.6-0.4-1-0.8-1.5
		c-0.6-0.6-1.2-0.8-2-0.8s-1.5,0.3-2,0.8c-0.6,0.6-0.8,1.2-0.8,2c0,0.8,0.3,1.5,0.8,2c0.6,0.6,1.2,0.8,2,0.8s1.5-0.3,2-0.8
		C143.4,8.7,143.7,8.2,143.8,7.6z"/>
	<path d="M149.7,2.1c0.1,0.1,0.2,0.2,0.2,0.4c0,0.2-0.1,0.3-0.2,0.4c-0.1,0.1-0.2,0.2-0.4,0.2c-0.2,0-0.3-0.1-0.4-0.2
		c-0.1-0.1-0.2-0.2-0.2-0.4c0-0.2,0.1-0.3,0.2-0.4c0.1-0.1,0.2-0.2,0.4-0.2C149.4,1.9,149.6,2,149.7,2.1z M149.6,4.2v6.2H149V4.2
		H149.6z"/>
	<path d="M155.1,4.2V1.5h0.6v2.7h1.3v0.6h-1.3v5.7h-0.6V4.7h-1.3V4.2H155.1z"/>
	<path d="M168.8,0.2v10.2h-0.6V0.2H168.8z"/>
	<path d="M174,5.5v4.8h-0.6V4.2h0.6v0.4c0.5-0.5,1.1-0.8,1.8-0.8c0.7,0,1.3,0.2,1.8,0.7c0.5,0.5,0.7,1,0.7,1.7v4.2h-0.6V6.3
		c0-0.5-0.2-1-0.6-1.4c-0.4-0.4-0.8-0.6-1.4-0.6s-1,0.2-1.4,0.6C174.3,5.1,174.1,5.3,174,5.5z"/>
	<path d="M188.2,8.9l0.6,0.2c-0.1,0.2-0.2,0.3-0.4,0.4c-0.7,0.7-1.5,1-2.5,1c-1,0-1.8-0.3-2.5-1c-0.7-0.7-1-1.5-1-2.5
		c0-1,0.3-1.8,1-2.5c0.7-0.7,1.5-1,2.5-1c1,0,1.8,0.3,2.5,1c0.1,0.1,0.3,0.3,0.4,0.4l-0.6,0.2c-0.1-0.1-0.1-0.2-0.2-0.2
		c-0.6-0.6-1.2-0.8-2-0.8c-0.8,0-1.5,0.3-2,0.8c-0.6,0.6-0.8,1.2-0.8,2c0,0.8,0.3,1.5,0.8,2c0.6,0.6,1.2,0.8,2,0.8
		c0.8,0,1.5-0.3,2-0.8C188.1,9,188.1,9,188.2,8.9z"/>
	<path d="M193.6,9.5c0.1,0.1,0.2,0.2,0.2,0.4c0,0.2-0.1,0.3-0.2,0.4c-0.1,0.1-0.2,0.2-0.4,0.2s-0.3-0.1-0.4-0.2
		c-0.1-0.1-0.2-0.2-0.2-0.4c0-0.2,0.1-0.3,0.2-0.4s0.2-0.2,0.4-0.2S193.5,9.4,193.6,9.5z"/>
	<path d="M209.9,6.5h-3.5l-1.4,3.9h-0.6L208.2,0l3.8,10.4h-0.6L209.9,6.5z M209.7,5.9l-1.5-4.3l-1.5,4.3H209.7z"/>
	<path d="M216.4,0.2v10.2h-0.6V0.2H216.4z"/>
	<path d="M221.5,0.2v10.2h-0.6V0.2H221.5z"/>
	<path d="M235.5,6.9c-0.1,0-0.1,0-0.2,0h-1.7v3.5h-0.6V0.2h2.7c0.8,0.1,1.4,0.4,2,1c0.6,0.6,1,1.4,1,2.3c0,0.9-0.3,1.7-1,2.3
		c-0.4,0.4-1,0.7-1.5,0.9l2.3,3.6h-0.7L235.5,6.9z M233.6,0.8v5.5h1.7c0.8,0,1.4-0.3,1.9-0.8s0.8-1.2,0.8-1.9s-0.3-1.4-0.8-1.9
		s-1.2-0.8-1.9-0.8H233.6z"/>
	<path d="M243.4,2.1c0.1,0.1,0.2,0.2,0.2,0.4c0,0.2-0.1,0.3-0.2,0.4c-0.1,0.1-0.2,0.2-0.4,0.2c-0.2,0-0.3-0.1-0.4-0.2
		c-0.1-0.1-0.2-0.2-0.2-0.4c0-0.2,0.1-0.3,0.2-0.4c0.1-0.1,0.2-0.2,0.4-0.2C243.2,1.9,243.3,2,243.4,2.1z M243.3,4.2v6.2h-0.6V4.2
		H243.3z"/>
	<path d="M254.1,9.2c-0.1,0.1-0.2,0.3-0.3,0.4c-0.7,0.7-1.5,1-2.5,1c-1,0-1.8-0.3-2.5-1c-0.7-0.7-1-1.5-1-2.5c0-1,0.3-1.8,1-2.5
		s1.5-1,2.5-1c1,0,1.8,0.3,2.5,1c0.1,0.1,0.3,0.3,0.4,0.4V4.2h0.6V9c0,0.9-0.3,1.7-1,2.4c-0.7,0.7-1.5,1-2.5,1c-1,0-1.8-0.3-2.5-1
		c-0.1-0.1-0.3-0.3-0.4-0.4l0.6-0.2c0.1,0.1,0.1,0.2,0.2,0.2c0.6,0.6,1.2,0.8,2,0.8c0.8,0,1.5-0.3,2-0.8
		C253.7,10.5,254,9.9,254.1,9.2z M254.1,6.5c-0.1-0.5-0.4-1-0.8-1.4c-0.6-0.6-1.2-0.8-2-0.8s-1.5,0.3-2,0.8c-0.6,0.6-0.8,1.2-0.8,2
		c0,0.8,0.3,1.5,0.8,2c0.6,0.6,1.2,0.8,2,0.8s1.5-0.3,2-0.8c0.4-0.4,0.7-0.9,0.8-1.4V6.5z"/>
	<path d="M259.2,0.2h0.6v4.2c0.5-0.5,1.1-0.7,1.7-0.7c0.7,0,1.3,0.2,1.8,0.7c0.5,0.5,0.7,1,0.7,1.7v4.2h-0.6V6.3
		c0-0.5-0.2-1-0.6-1.4c-0.4-0.4-0.8-0.6-1.4-0.6s-1,0.2-1.4,0.6c-0.2,0.2-0.3,0.3-0.4,0.5v5h-0.6V0.2z"/>
	<path d="M269.4,4.2V1.5h0.6v2.7h1.3v0.6H270v5.7h-0.6V4.7h-1.3V4.2H269.4z"/>
	<path d="M277.1,7.2c-0.5-0.3-0.8-0.5-1-0.7c-0.3-0.3-0.4-0.6-0.4-1.1c0-0.4,0.1-0.8,0.4-1.1c0.3-0.3,0.6-0.4,1.1-0.4
		c0.4,0,0.8,0.1,1,0.4c0.3,0.3,0.4,0.6,0.4,0.9v0L278,5.5c0-0.3-0.1-0.6-0.3-0.7c-0.2-0.2-0.4-0.2-0.6-0.2c-0.3,0-0.5,0.1-0.7,0.3
		s-0.3,0.4-0.3,0.7c0,0.3,0.1,0.5,0.3,0.7c0.1,0.1,0.3,0.3,0.7,0.5c0.5,0.3,0.9,0.6,1.2,0.8c0.4,0.4,0.5,0.8,0.5,1.3
		c0,0.5-0.2,1-0.5,1.3s-0.8,0.5-1.3,0.5s-0.9-0.2-1.3-0.5s-0.5-0.8-0.5-1.2l0.6-0.1c0,0.4,0.1,0.7,0.4,0.9c0.3,0.2,0.6,0.4,0.9,0.4
		s0.7-0.1,0.9-0.4c0.3-0.2,0.4-0.6,0.4-0.9c0-0.4-0.1-0.7-0.4-0.9C277.8,7.6,277.5,7.4,277.1,7.2z"/>
	<path d="M292.6,6.9c-0.1,0-0.1,0-0.2,0h-1.7v3.5h-0.6V0.2h2.7c0.8,0.1,1.4,0.4,2,1c0.6,0.6,1,1.4,1,2.3c0,0.9-0.3,1.7-1,2.3
		c-0.4,0.4-1,0.7-1.5,0.9l2.3,3.6h-0.7L292.6,6.9z M290.7,0.8v5.5h1.7c0.8,0,1.4-0.3,1.9-0.8s0.8-1.2,0.8-1.9s-0.3-1.4-0.8-1.9
		s-1.2-0.8-1.9-0.8H290.7z"/>
	<path d="M300.8,9.2c0.5,0.5,1.2,0.7,1.9,0.7c0.8,0,1.5-0.3,2-0.8c0.1-0.1,0.1-0.1,0.2-0.2l0.6,0.2c-0.1,0.2-0.2,0.3-0.4,0.4
		c-0.7,0.7-1.5,1-2.5,1c-1,0-1.8-0.3-2.5-1c-0.7-0.7-1-1.5-1-2.5c0-1,0.3-1.8,1-2.5c0.7-0.7,1.5-1,2.5-1c0.8,0,1.5,0.2,2.2,0.7
		c0.1,0.1,0.2,0.2,0.3,0.3c0,0,0.1,0.1,0.1,0.1l-0.4,0.4L300.8,9.2z M304.5,4.8c-0.5-0.4-1.1-0.6-1.7-0.6c-0.8,0-1.5,0.3-2,0.8
		c-0.6,0.6-0.8,1.2-0.8,2c0,0.7,0.2,1.2,0.6,1.7L304.5,4.8z"/>
	<path d="M311.4,7.2c-0.5-0.3-0.8-0.5-1-0.7c-0.3-0.3-0.4-0.6-0.4-1.1c0-0.4,0.1-0.8,0.4-1.1c0.3-0.3,0.6-0.4,1.1-0.4
		c0.4,0,0.8,0.1,1,0.4c0.3,0.3,0.4,0.6,0.4,0.9v0l-0.5,0.2c0-0.3-0.1-0.6-0.3-0.7c-0.2-0.2-0.4-0.2-0.6-0.2c-0.3,0-0.5,0.1-0.7,0.3
		s-0.3,0.4-0.3,0.7c0,0.3,0.1,0.5,0.3,0.7c0.1,0.1,0.3,0.3,0.7,0.5c0.5,0.3,0.9,0.6,1.2,0.8c0.4,0.4,0.5,0.8,0.5,1.3
		c0,0.5-0.2,1-0.5,1.3s-0.8,0.5-1.3,0.5s-0.9-0.2-1.3-0.5s-0.5-0.8-0.5-1.2l0.6-0.1c0,0.4,0.1,0.7,0.4,0.9c0.3,0.2,0.6,0.4,0.9,0.4
		s0.7-0.1,0.9-0.4c0.3-0.2,0.4-0.6,0.4-0.9c0-0.4-0.1-0.7-0.4-0.9C312.1,7.6,311.8,7.4,311.4,7.2z"/>
	<path d="M318.6,9.2c0.5,0.5,1.2,0.7,1.9,0.7c0.8,0,1.5-0.3,2-0.8c0.1-0.1,0.1-0.1,0.2-0.2l0.6,0.2c-0.1,0.2-0.2,0.3-0.4,0.4
		c-0.7,0.7-1.5,1-2.5,1c-1,0-1.8-0.3-2.5-1c-0.7-0.7-1-1.5-1-2.5c0-1,0.3-1.8,1-2.5c0.7-0.7,1.5-1,2.5-1c0.8,0,1.5,0.2,2.2,0.7
		c0.1,0.1,0.2,0.2,0.3,0.3c0,0,0.1,0.1,0.1,0.1l-0.4,0.4L318.6,9.2z M322.2,4.8c-0.5-0.4-1.1-0.6-1.7-0.6c-0.8,0-1.5,0.3-2,0.8
		c-0.6,0.6-0.8,1.2-0.8,2c0,0.7,0.2,1.2,0.6,1.7L322.2,4.8z"/>
	<path d="M327.5,4.2h0.6v1.1c0.1-0.2,0.3-0.3,0.4-0.5c0.5-0.5,1-0.8,1.5-0.8v0.6c-0.4,0-0.7,0.2-1.1,0.6c-0.5,0.5-0.8,1.2-0.8,1.9
		v3.2h-0.6V4.2z"/>
	<path d="M336.3,9.3l2.4-5.2h0.7l-3.1,6.4l-3.1-6.4h0.7L336.3,9.3z"/>
	<path d="M344.4,9.2c0.5,0.5,1.2,0.7,1.9,0.7c0.8,0,1.5-0.3,2-0.8c0.1-0.1,0.1-0.1,0.2-0.2l0.6,0.2c-0.1,0.2-0.2,0.3-0.4,0.4
		c-0.7,0.7-1.5,1-2.5,1c-1,0-1.8-0.3-2.5-1c-0.7-0.7-1-1.5-1-2.5c0-1,0.3-1.8,1-2.5c0.7-0.7,1.5-1,2.5-1c0.8,0,1.5,0.2,2.2,0.7
		c0.1,0.1,0.2,0.2,0.3,0.3c0,0,0.1,0.1,0.1,0.1l-0.4,0.4L344.4,9.2z M348.1,4.8c-0.5-0.4-1.1-0.6-1.7-0.6c-0.8,0-1.5,0.3-2,0.8
		c-0.6,0.6-0.8,1.2-0.8,2c0,0.7,0.2,1.2,0.6,1.7L348.1,4.8z"/>
	<path d="M360,10.4h-0.6V9.1c-0.1,0.1-0.2,0.3-0.4,0.4c-0.7,0.7-1.5,1-2.5,1c-1,0-1.8-0.3-2.5-1c-0.7-0.7-1-1.5-1-2.5
		c0-1,0.3-1.8,1-2.5s1.5-1,2.5-1c1,0,1.8,0.3,2.5,1c0.1,0.1,0.3,0.3,0.4,0.4V0.2h0.6V10.4z M359.5,7.6V6.5c-0.1-0.6-0.4-1-0.8-1.5
		c-0.6-0.6-1.2-0.8-2-0.8s-1.5,0.3-2,0.8c-0.6,0.6-0.8,1.2-0.8,2c0,0.8,0.3,1.5,0.8,2c0.6,0.6,1.2,0.8,2,0.8s1.5-0.3,2-0.8
		C359.1,8.7,359.4,8.2,359.5,7.6z"/>
	<path d="M365.2,9.5c0.1,0.1,0.2,0.2,0.2,0.4c0,0.2-0.1,0.3-0.2,0.4c-0.1,0.1-0.2,0.2-0.4,0.2s-0.3-0.1-0.4-0.2
		c-0.1-0.1-0.2-0.2-0.2-0.4c0-0.2,0.1-0.3,0.2-0.4s0.2-0.2,0.4-0.2S365.1,9.4,365.2,9.5z"/>
</g>
</svg>
