<?xml version="1.0" encoding="utf-8"?>
<!-- Generator: Adobe Illustrator 19.1.0, SVG Export Plug-In . SVG Version: 6.00 Build 0)  -->
<svg version="1.0" id="レイヤー_1" xmlns="http://www.w3.org/2000/svg" xmlns:xlink="http://www.w3.org/1999/xlink" x="0px"
	 y="0px" viewBox="131 -70 495 353" enable-background="new 131 -70 495 353" xml:space="preserve">
<line fill="none" stroke="#1B2B79" stroke-width="6" stroke-miterlimit="10" x1="133.85" y1="180.711" x2="192.9" y2="281.9"/>
<line fill="none" stroke="#1B2B79" stroke-width="6" stroke-miterlimit="10" x1="164.9" y1="228.9" x2="204.9" y2="205.9"/>
<line fill="none" stroke="#1B2B79" stroke-width="6" stroke-miterlimit="10" x1="176.9" y1="158.9" x2="135.85" y2="182.711"/>
<g>
	<path fill="none" stroke="#1B2B79" stroke-width="6" stroke-miterlimit="10" d="M246.036,246.275"/>
	<path fill="none" stroke="#1B2B79" stroke-width="6" stroke-miterlimit="10" d="M190.749,150.432"/>
	
		<line fill="none" stroke="#1B2B79" stroke-width="6" stroke-miterlimit="10" x1="190.749" y1="150.432" x2="246.036" y2="246.275"/>
</g>
<line fill="none" stroke="#1B2B79" stroke-width="6" stroke-miterlimit="10" x1="188.378" y1="151.646" x2="238.9" y2="122.9"/>
<line fill="none" stroke="#1B2B79" stroke-width="6" stroke-miterlimit="10" x1="220.9" y1="196.9" x2="266.119" y2="170.9"/>
<line fill="none" stroke="#1B2B79" stroke-width="6" stroke-miterlimit="10" x1="243.9" y1="247.9" x2="293.422" y2="218.9"/>
<path fill="none" stroke="#1B2B79" stroke-width="6" stroke-miterlimit="10" d="M302.9,216.9l-20.312-115.348L371.9,176.9"/>
<line fill="none" stroke="#1B2B79" stroke-width="6" stroke-miterlimit="10" x1="295.9" y1="165.9" x2="330.9" y2="144.9"/>
<line fill="none" stroke="#1B2B79" stroke-width="6" stroke-miterlimit="10" x1="336.9" y1="67.9" x2="392.9" y2="164.9"/>
<g>
	<line fill="none" stroke="#1B2B79" stroke-width="6" stroke-miterlimit="10" x1="307.9" y1="82.9" x2="364.9" y2="49.9"/>
</g>
<path fill="none" stroke="#1B2B79" stroke-width="6" stroke-miterlimit="10" d="M372.9,42.9l39.566,68.411
	c4.868,8.438,11.816,13.77,21.242,16.299c3.189,0.856,6.357,1.29,9.417,1.29c5.889,0,11.673-1.615,17.193-4.8
	c8.438-4.866,13.77-11.812,16.299-21.236c2.104-7.839,1.624-15.385-1.466-23.062L433.411,6.9"/>
<line fill="none" stroke="#1B2B79" stroke-width="6" stroke-miterlimit="10" x1="452.84" y1="-3.882" x2="512.9" y2="96.9"/>
<path fill="none" stroke="#1B2B79" stroke-width="6" stroke-miterlimit="10" d="M455.179-1.943l23.65-13.64
	c4.514-1.814,9.105-2.734,13.651-2.734c3.103,0,6.27,0.428,9.412,1.271c9.425,2.529,16.373,7.861,21.242,16.3
	c4.892,8.479,6.04,17.183,3.51,26.606c-1.731,6.452-4.904,11.902-9.431,16.198l-5.41,4.127c-0.439,0.303-0.917,0.603-1.46,0.915
	l-19.536,11.17"/>
<g>
	<line fill="none" stroke="#1B2B79" stroke-width="6" stroke-miterlimit="10" x1="513.808" y1="45.271" x2="559.9" y2="68.9"/>
</g>
<line fill="none" stroke="#1B2B79" stroke-width="6" stroke-miterlimit="10" x1="520.155" y1="-39.401" x2="575.76" y2="56.258"/>
<line fill="none" stroke="#1B2B79" stroke-width="6" stroke-miterlimit="10" x1="517.788" y1="-38.179" x2="568.215" y2="-67.093"/>
<line fill="none" stroke="#1B2B79" stroke-width="6" stroke-miterlimit="10" x1="550.461" y1="6.966" x2="595.593" y2="-19.184"/>
<g>
	<line fill="none" stroke="#1B2B79" stroke-width="6" stroke-miterlimit="10" x1="573.63" y1="57.89" x2="623.056" y2="28.725"/>
</g>
</svg>
