<?xml version="1.0" encoding="utf-8"?>
<!-- Generator: Adobe Illustrator 19.1.0, SVG Export Plug-In . SVG Version: 6.00 Build 0)  -->
<svg version="1.0" id="レイヤー_1" xmlns="http://www.w3.org/2000/svg" xmlns:xlink="http://www.w3.org/1999/xlink" x="0px"
	 y="0px" viewBox="0 0 145 93" enable-background="new 0 0 145 93" xml:space="preserve">
<g>
	<g>
		<path fill="#1B2B79" d="M0.2,11.1c8.7,3.7,13.2-2.4,14.5-4.2L4.2,0.8L4.6,0l10,5.7c0-0.1,0.1-0.2,0.2-0.4c0.5-0.9,1.6-1.1,2.4-0.7
			c0.8,0.5,1.1,1.5,0.6,2.4c-0.5,0.8-1.5,1.2-2.4,0.6c-1.9,2.4-6.3,7.8-15.4,4.4L0.2,11.1z M15.5,5.7c-0.3,0.5-0.1,1.1,0.4,1.4
			c0.5,0.3,1.1,0.1,1.4-0.4c0.3-0.5,0.1-1.1-0.4-1.4C16.4,5.1,15.7,5.2,15.5,5.7z"/>
		<path fill="#1B2B79" d="M27.4,16.6c-4.4,6-9,5.4-14.4,3l0.3-1c4.4,2,8.7,3.1,12.7-1.8l-10.8-6.2l0.5-0.8L27.4,16.6z M28.6,12.5
			l-0.5,0.8l-9.8-5.6l0.5-0.8L28.6,12.5z"/>
		<path fill="#1B2B79" d="M37.7,16.7l-1.4,2.5l5.1,2.9l-0.6,1c-1.6,2.7-3.7,4.8-6.6,5.4c-3.5,0.6-6.6-0.8-7.9-1.4l0.2-1
			c1.1,0.5,4.2,1.9,7.5,1.4c1.7-0.3,3.7-1.3,5.7-4.7l0.2-0.3l-9.2-5.3l-2.3,3.9l-0.9-0.5l2.7-4.8l5,2.9l1.4-2.5L37.7,16.7z"/>
		<path fill="#1B2B79" d="M49,23.4l-2.3,4c1.1,1.3,3.5,4.1,5.6,7.6l-1,0.7c-1.9-3.2-3-4.8-5.2-7.4l-4.6,8l-0.9-0.5l7.4-12.9L49,23.4
			z M52.9,29.6c0.1-1,0.1-2,0.1-3l0.9,0.1c0,0.3,0.1,1.9-0.1,3L52.9,29.6z M55,30c0.1-1.2,0.1-1.7,0.1-2.9l0.9,0
			c0.1,0.8,0.1,2.2,0,2.8L55,30z"/>
		<path fill="#1B2B79" d="M68,37.1c-2,2.4-4.6,4.3-7.6,5.3c-3.1,1-6.2,0.4-8.8-0.5l0.1-1.1c2.8,0.9,5.5,1.4,8.4,0.5
			c2.4-0.8,4.6-2.2,6.3-4l-6.1-3.5c-1.5,0.6-3.1,1.3-5.7,1.5l-0.1-1c1.7-0.2,4.9-0.7,8.2-3.2l0.9,0.7c-0.5,0.4-1.1,0.8-2.3,1.4
			L68,37.1z"/>
		<path fill="#1B2B79" d="M80.2,46.9c-4.4,6-9,5.4-14.4,3l0.3-1c4.4,2,8.7,3.1,12.7-1.8l-10.8-6.2l0.5-0.8L80.2,46.9z M81.3,42.8
			l-0.5,0.8L71,38l0.5-0.8L81.3,42.8z"/>
		<path fill="#1B2B79" d="M90.5,47l-1.4,2.5l5.1,2.9l-0.6,1c-1.6,2.7-3.7,4.8-6.6,5.4c-3.5,0.6-6.6-0.8-7.9-1.4l0.2-1
			c1.1,0.5,4.2,1.9,7.5,1.4c1.7-0.3,3.7-1.3,5.7-4.7l0.2-0.3l-9.2-5.3l-2.3,3.9l-0.9-0.5l2.7-4.8l5,2.9l1.4-2.5L90.5,47z"/>
		<path fill="#1B2B79" d="M98.3,51.6l-2.3,4c1.1,1.3,3.5,4.1,5.6,7.6l-1,0.7c-1.9-3.2-3-4.8-5.2-7.4l-4.6,8L89.9,64l7.4-12.9
			L98.3,51.6z M102.2,57.9c0.1-1,0.1-2,0.1-3l0.9,0.1c0,0.3,0.1,1.9-0.1,3L102.2,57.9z M104.3,58.2c0.1-1.2,0.1-1.7,0.1-2.9l0.9,0
			c0.1,0.8,0.1,2.2,0,2.8L104.3,58.2z"/>
		<path fill="#1B2B79" d="M105.8,71.7c1.8,0.8,6.2,2.8,8.9-1.9c0.7-1.2,2.5-5.3-2.2-8.1c-2.1,3-4.1,5.6-6.8,7.1
			c-1.7,0.9-2.8,0.7-3.4,0.4c-1.4-0.8-1.6-3.2-0.2-5.6c2.2-3.8,6.4-5.2,10.8-2.7c4.5,2.6,4.3,6.6,2.8,9.3c-3.2,5.5-8.3,3.3-10.1,2.4
			L105.8,71.7z M103,64.1c-0.7,1.2-1.4,3.5-0.1,4.2c0.6,0.3,1.3,0.2,2.4-0.4c2.6-1.4,4.8-4.5,6.3-6.7
			C107.5,59.5,104.4,61.5,103,64.1z"/>
		<path fill="#1B2B79" d="M120.6,67.8l1.6-2.8l0.8,0.5l-1.6,2.8l1.4,0.8l-0.4,0.7L121,69l-2.1,3.7c0.8,0.1,1.3,0.1,1.7,0.1l-0.3,0.8
			c-0.4,0-0.8,0-1.9,0l-3.1,5.4l-0.8-0.5l2.9-5c-1.6-0.2-2.6-0.4-3.1-0.6l0.2-1c0.6,0.2,1.8,0.5,3.5,0.7l2.3-4l-1.3-0.7
			c-0.5,0.6-1.4,1.7-2.5,2.4l-0.4-0.9c1.9-1.2,3.7-4.2,4-4.7l0.8,0.5c-0.3,0.5-0.6,0.9-1.3,2L120.6,67.8z M129.1,69l-0.9,1.6
			l3.3,1.9l-0.4,0.7l-3.3-1.9l-1.3,2.3l3.9,2.2l-0.4,0.7l-1.8-1l-1.1,1.9l1.7,1l-0.4,0.7l-1.7-1l-2.5,4.3c-0.6,1.1-1.1,1-2.2,0.4
			l-1.9-1.1l0.3-1l2,1.2c0.6,0.4,0.8,0.3,1.1-0.1l2.4-4.1l-5.6-3.2l0.4-0.7l5.6,3.2l1.1-1.9l-6-3.5l0.4-0.7l3.9,2.2l1.3-2.3
			l-3.2-1.9l0.4-0.7l3.2,1.9l0.9-1.6L129.1,69z M121,79.2c-0.1-1.2-0.3-2.1-0.7-3.4l0.9-0.2c0.1,0.4,0.6,1.9,0.7,3.5L121,79.2z"/>
		<path fill="#1B2B79" d="M128.3,78.2c1.9-0.4,4-1.5,5.3-2.7l0.4,0.8c-0.3,0.3-0.9,0.7-2.2,1.4l-4.6,8l-0.8-0.5l3.9-6.8
			c-1.2,0.5-1.7,0.6-2.1,0.7L128.3,78.2z M134.7,87.3c-1.5-0.4-4.7-1.5-5.9-2l0.3-0.8c0.7,0.3,1.9,0.8,2.8,1.1l1.4-2.4l-2.1-1.2
			l0.4-0.7l2.1,1.2l1.2-2l-2.3-1.3l0.4-0.7l4.8,2.8l-0.4,0.7l-1.8-1l-1.2,2l1.8,1.1l-0.4,0.7l-1.8-1.1l-1.3,2.3
			c1.5,0.5,2,0.7,2.4,0.8L134.7,87.3z M130.9,73.8c1.4,0,2.9-0.7,4-1.5l0.5,0.7c-0.4,0.3-2.2,1.5-4.6,1.7L130.9,73.8z M144.7,81.3
			l-0.4,0.8l-0.7-0.4c-0.5,0.8-2.3,3.8-5.3,5.7c-0.1,2.1,0.3,3.6,0.5,4.3l-0.9,0.5c-0.2-0.7-0.6-2-0.5-4.2c-1.9,1-3.7,1.1-4.6,1.2
			l-0.2-0.9c1.2-0.1,2.9-0.3,4.8-1.3c0.2-1.9,0.8-3.7,1.6-5.4c-0.5,0.3-0.7,0.3-1,0.4l-0.2-0.9c1.5-0.6,3.5-1.9,5.2-3.8l0.7,0.5
			c-0.6,0.7-1.2,1.3-2.1,2L144.7,81.3z M139.1,74.7l-1.8,3.2l1.5,0.8l1.4-2.5l0.8,0.4l-1.8,3.2l-5.1-2.9l1.8-3.2l0.7,0.4l-1.4,2.5
			l1.4,0.8l1.8-3.2L139.1,74.7z M140.9,80.1c-0.2,0.1-0.3,0.2-0.6,0.4c-1.1,2.2-1.6,4.1-1.9,5.6c1.1-0.8,2.8-2.3,4.3-5L140.9,80.1z"
			/>
	</g>
</g>
</svg>
