<?xml version="1.0" encoding="utf-8"?>
<!-- Generator: Adobe Illustrator 19.1.0, SVG Export Plug-In . SVG Version: 6.00 Build 0)  -->
<svg version="1.0" id="レイヤー_1" xmlns="http://www.w3.org/2000/svg" xmlns:xlink="http://www.w3.org/1999/xlink" x="0px"
	 y="0px" viewBox="0 0 48 52" enable-background="new 0 0 48 52" xml:space="preserve">
<g>
	<g>
		<path fill="#1B2B79" d="M0.6,11.1V4c2.9-1.4,5.6-2.4,8.1-3c2.5-0.7,4.9-1,7.2-1c2.8,0,5.2,0.4,7.3,1.3C25.3,2.2,26.9,3.4,28,5
			c1.1,1.6,1.7,3.6,1.7,5.8c0,2.1-0.4,4-1.3,5.5c-0.8,1.6-2,3-3.5,4.2S21.4,22.9,19,24v0.3c1.5,0.3,3,0.7,4.4,1.4
			c1.4,0.7,2.6,1.5,3.7,2.5c1.1,1,2,2.3,2.6,3.7c0.7,1.4,1,3.1,1,5c0,2.9-0.6,5.4-1.9,7.6c-1.2,2.2-3.2,4-5.7,5.3
			c-2.6,1.3-5.7,1.9-9.4,1.9c-2.1,0-4.4-0.2-6.9-0.7C4.3,50.6,2.1,50,0,49.2v-7.9h4.5c0.9,2.6,2,4.4,3.4,5.6
			c1.4,1.2,3.4,1.7,5.8,1.7c3.2,0,5.6-0.9,7.3-2.6c1.6-1.8,2.5-4.4,2.5-7.8c0-3.6-1.1-6.4-3.3-8.3c-2.2-1.9-5.4-2.9-9.6-2.9H7.3
			v-3.3c3.3-0.2,6.2-0.8,8.4-1.9c2.3-1.1,4-2.5,5.1-4.2s1.7-3.6,1.7-5.8c0-2.7-0.7-4.9-2.2-6.3c-1.5-1.5-3.6-2.2-6.4-2.2
			c-2.3,0-4.2,0.6-5.7,1.9C6.8,6.6,5.7,8.5,5,11.1H0.6z"/>
		<path fill="#1B2B79" d="M47.5,42.6v8.6H40v-8.6H47.5z"/>
	</g>
</g>
</svg>
