<?xml version="1.0" encoding="utf-8"?>
<!-- Generator: Adobe Illustrator 19.1.0, SVG Export Plug-In . SVG Version: 6.00 Build 0)  -->
<svg version="1.0" id="レイヤー_1" xmlns="http://www.w3.org/2000/svg" xmlns:xlink="http://www.w3.org/1999/xlink" x="0px"
	 y="0px" viewBox="0 0 55 50" enable-background="new 0 0 55 50" xml:space="preserve">
<g>
	<g>
		<path fill="#1B2B79" d="M1,40L23.7,22c2.8-2.3,4.1-4.6,4.1-7.2c0-4.3-4.2-7.4-9-7.4c-4.4,0-8.2,2.4-10.6,6L0,10.3
			C4.2,4.1,10.9,0,19.3,0c11,0,17.3,6.9,17.3,15c0,5.1-3,9.3-8,13.1L12.1,40.7v0.2h24.4v7.9H1V40z"/>
		<path fill="#1B2B79" d="M49.6,40.4c2.6,0,4.6,2.1,4.6,4.6s-2.1,4.6-4.6,4.6S45,47.7,45,45.1S47,40.4,49.6,40.4z"/>
	</g>
</g>
</svg>
