<?xml version="1.0" encoding="utf-8"?>
<!-- Generator: Adobe Illustrator 19.1.0, SVG Export Plug-In . SVG Version: 6.00 Build 0)  -->
<svg version="1.0" id="レイヤー_1" xmlns="http://www.w3.org/2000/svg" xmlns:xlink="http://www.w3.org/1999/xlink" x="0px"
	 y="0px" viewBox="0 0 184 26" enable-background="new 0 0 184 26" xml:space="preserve">
<g>
	<g>
		<path fill="#1B2B79" d="M4.4,17.5l-2.2,6H0L8.5,1.4h2.6l8.5,22.1h-2.1l-2.3-6H4.4z M14.6,15.8L9.8,2.9L5,15.8H14.6z"/>
		<path fill="#1B2B79" d="M18.7,1.4l5,20.6l4.9-20.6h2.7L36.2,22l5-20.6h2l-5.6,22.1h-2.7L30,2.9l-4.9,20.6h-2.7L16.7,1.4H18.7z"/>
		<path fill="#1B2B79" d="M59.2,7.8c0-2.7-0.6-4.9-6.3-4.9c-4.1,0-5.9,1.2-5.9,4.5c0,2.2,0.9,3.4,3.4,3.7l5.9,0.6
			c1.8,0.2,5.8,0.6,5.8,5.8c0,4.3-2.3,6.3-8.6,6.3c-7,0-8.7-2.9-8.8-7.1h1.9c0,3.1,0.7,5.5,6.9,5.5c5.7,0,6.6-1.8,6.6-4.5
			c0-2.4-0.8-3.9-3.9-4.2l-6.2-0.7c-3.4-0.4-5.1-2.4-5.1-5.4c0-6,5.5-6,7.7-6c7.6,0,8.3,3.2,8.3,6.6H59.2z"/>
		<path fill="#1B2B79" d="M72.3,11.7v-9h1.5v9h9v1.5h-9v9h-1.5v-9h-9v-1.5H72.3z"/>
		<path fill="#1B2B79" d="M104.4,7l-5.7,10.5c0,0.3-0.4,3.4-0.4,3.5c0,0.8,0.3,0.8,1,0.8h1.7l-0.5,1.6h-2.2c-0.6,0-1.8-0.4-1.8-1.9
			c0-0.3,0-0.6,0.1-1.1c-0.7,1-2.3,3.2-6.4,3.2c-1.1,0-6.1-0.1-6.1-5.5c0-3.3,1.4-6.6,2.5-8.4c1.4-2.4,3.9-3,6.3-3
			c0.5,0,2.9,0,4.7,1.3c1.3,0.9,1.7,2.4,1.7,3.8c0,0.3,0,0.5-0.1,1.1l3.1-5.9H104.4z M88.7,10.1c-1.3,1.5-2.8,5.3-2.8,8.3
			c0,3.6,3.4,3.8,4.6,3.8c6.7,0,7.3-9.1,7.3-9.9c0-0.8,0-3.8-4.3-3.8C91.8,8.4,90.2,8.4,88.7,10.1z"/>
		<path fill="#1B2B79" d="M117.2,23c3.3-0.3,11.3-1.1,11.3-10c0-2.4-0.8-9.7-9.9-9.7c-0.5,6-1.3,11.5-3.9,15.8
			c-1.7,2.8-3.5,3.3-4.5,3.3c-2.7,0-4.9-3.3-4.9-7.9c0-7.2,5-12.8,13.3-12.8c8.7,0,11.6,5.9,11.6,11.1c0,10.5-9.2,11.5-12.5,11.8
			L117.2,23z M106.9,14.5c0,2.3,0.9,6.1,3.3,6.1c1.1,0,2.1-0.8,3.2-2.5c2.6-4.2,3.3-10.4,3.6-14.8C109.6,4.1,106.9,9.5,106.9,14.5z"
			/>
		<path fill="#1B2B79" d="M140.1,13.7c-0.5,0.3-1.1,0.7-3.4,1.6v8.1c0,1.2-0.3,2.2-2.3,2.2H132l-0.4-1.6l2.3,0.1
			c0.8,0,1.2-0.1,1.2-1V16c-2.4,0.9-3.1,1.1-3.9,1.4l-0.3-1.6c1-0.3,2.1-0.6,4.1-1.4V6.9h-3.8V5.5h3.8V0h1.5v5.5h3.7v1.3h-3.7v6.9
			c1.2-0.5,2.2-1,3.2-1.4L140.1,13.7z M138.6,24.6c2.7-2.2,3.8-5.7,4.1-9.7l1.5,0.2c-0.1,0.8-0.3,1.8-0.6,3.5
			c0.8,2.1,2.3,3.7,4.1,4.4V13h-7.2v-1.3H157V13h-7.7v4h6.6v1.3h-6.6v5.1c1,0.2,2,0.2,2.4,0.2h5.7l-0.3,1.4h-5.4c-2,0-6.2,0-8.5-4.5
			c-1,3-2.5,4.4-3.3,5.2L138.6,24.6z M155.3,9.5h-13.6V0.6h13.6V9.5z M153.9,1.9h-10.7v2.6h10.7V1.9z M153.9,5.7h-10.7v2.5h10.7V5.7
			z"/>
		<path fill="#1B2B79" d="M182.6,24.7c-4.6-1.2-8.5-3.3-11.3-6.7v7.6h-1.6v-7.4c-1.2,1.2-5.4,5.2-11.6,6.7l-0.6-1.4
			c6.5-1.5,10.9-5.7,11.5-6.2h-11.3V16h12.1v-2.2h1.6V16h12v1.3h-11c3.9,4.2,7.9,5.4,11.2,6L182.6,24.7z M169.7,2.1V0h1.7v2.1h11.5
			v5.5h-1.6V3.4h-21.6v4.1h-1.6V2.1H169.7z M170,4.4c-0.3,0.4-0.4,0.6-1.1,1.4h11.6v1.3h-3c-0.7,1-1.8,2.6-3.7,4
			c4.6,1.2,6.6,2,7.7,2.4l-1.1,1.4c-1.2-0.5-3.5-1.5-8.2-2.8c-1.2,0.6-5.4,2.2-12.5,2.5l-0.4-1.5c2.4-0.1,7.1-0.3,10.9-1.6
			c-2.5-0.6-5.2-1.1-7.2-1.4c0.6-0.6,1.2-1.1,2.9-3h-5.2V5.8h6.4c0.9-1.1,1.1-1.3,1.5-1.8L170,4.4z M167.7,7.1
			c-0.8,0.8-1.3,1.4-2.2,2.3c1.7,0.3,3.5,0.6,6.4,1.2c1.9-1.1,3-2.5,3.8-3.6H167.7z"/>
	</g>
</g>
</svg>
