<?xml version="1.0" encoding="utf-8"?>
<!-- Generator: Adobe Illustrator 19.1.0, SVG Export Plug-In . SVG Version: 6.00 Build 0)  -->
<svg version="1.0" id="レイヤー_1" xmlns="http://www.w3.org/2000/svg" xmlns:xlink="http://www.w3.org/1999/xlink" x="0px"
	 y="0px" viewBox="0 0 264 26" enable-background="new 0 0 264 26" xml:space="preserve">
<g>
	<g>
		<path fill="#3A3A3A" d="M7.1,0.6h1.7v4h7.5v1.6H8.8v4.5c0.9-0.2,2.4-0.5,4.7-0.5c1.5,0,4.6,0.2,6.8,1.7c2.2,1.6,2.9,3.9,2.9,5.8
			c0,3.5-2.3,5.1-3.6,5.7c-1.9,0.9-3.8,1.3-8.2,1.3l-0.2-1.6c4.4,0,5.9-0.2,7.6-1.1c1.2-0.7,2.5-2.1,2.5-4.3c0-1.7-0.8-3.8-3.1-5
			c-1.1-0.6-2.9-0.9-4.8-0.9c-2.5,0-3.9,0.4-4.8,0.6v9.6c0,1.3-0.1,2.3-2.6,2.3c-3.5,0-6.2-1.9-6.2-5.5c0-3.9,3.2-6.2,7.1-7.6V6.2
			H0.3V4.6h6.8V0.6z M7.1,12.6c-3.2,1.2-5.5,3.3-5.5,5.9c0,1.9,1.3,4,4.5,4c0.8,0,1-0.2,1-0.8V12.6z M18.6,0.8
			c1.8,1.5,4.3,4.2,5.9,7.7l-1.6,1.1c-1.7-3.7-3.3-5.7-5.8-7.9L18.6,0.8z"/>
		<path fill="#3A3A3A" d="M37,1.1v9.4h-8.5v15.2h-1.5V1.1H37z M35.4,2.4h-7v2.8h7V2.4z M35.4,6.4h-7v2.8h7V6.4z M44.5,21.7H32.3
			v-8.7h12.2V21.7z M43,14.3h-9.1v6.1H43V14.3z M50,23.7c0,0.9,0,2-1.8,2h-4.4l-0.2-1.6l3.8,0.1c1,0,1-0.3,1-1V10.4H40V1.1H50V23.7z
			 M48.4,2.4h-6.9v2.8h6.9V2.4z M48.4,6.4h-6.9v2.8h6.9V6.4z"/>
		<path fill="#3A3A3A" d="M55.6,1.8c-0.2,1.2-0.5,3.8-0.5,7.9c0,5.3,0.4,12.4,4.3,12.4c1.1,0,1.9-0.6,2.7-1.6
			c0.6-0.8,1.8-2.5,2.9-5.4l1.4,0.8c-1.6,4.2-3.4,6.1-4,6.8c-0.4,0.4-1.5,1.3-3.1,1.3c-4.6,0-5.8-6.2-5.8-14.4c0-3.2,0.3-6.2,0.4-8
			L55.6,1.8z M75.3,21.2c0.1-0.8,0.1-1.8,0.1-3.2C75.5,8.7,72,5.5,70,3.8l1.2-1.1c3.8,2.9,6.1,7.3,6.1,15.9c0,1,0,1.7-0.1,2.5
			L75.3,21.2z"/>
		<path fill="#3A3A3A" d="M78.3,9.3C84.5,7.1,88.6,3.2,90.6,0h1.7c4,5.5,8.7,7.9,12.4,9.3l-0.8,1.6c-3.9-1.5-9-5-12.4-9.6
			c-2.9,4-7.1,7.3-12.4,9.6L78.3,9.3z M101.1,13.5v12.2h-1.6v-1.5H83.7v1.5h-1.6V13.5H101.1z M99.5,14.8H83.7v7.9h15.7V14.8z
			 M98.3,10H84.8V8.6h13.5V10z"/>
		<path fill="#3A3A3A" d="M116.8,22.1c2.9,0.1,11.6,0.4,11.6-8.2c0-2.2-0.8-7.1-6.6-7.1c-1.4,0-4.5,0.1-9.2,4.8l-0.1,13h-1.6l0.1-11
			c-1.6,3.3-3.2,4.9-4.3,6.1l-1-1.6c3.6-3.6,5.1-7.3,5.3-7.9l0-3.3h-4.6V5.3h4.6l0-4.7h1.6l0,4.7h1v0.9c-0.3,0.7-1.1,2.8-1.1,3.5
			c2.3-2,5-4.5,9.7-4.5c5.4,0,7.9,4.5,7.9,8.6c0,7.2-5.5,10.2-13.2,9.9L116.8,22.1z"/>
		<path fill="#3A3A3A" d="M152.1,0.5c0,1,0,1.5,0,6.3l5.4,0v1.6l-5.4,0c0,0.9,0.1,4.6,0.1,5.4c0,2.5-0.3,4.1-3.9,4.1
			c-1.8,0-2.9-0.2-3.7-0.4l0.1-1.6c1.6,0.3,2.1,0.4,3.5,0.4c1.7,0,2.3-0.1,2.3-2.9c0-1.6,0-3.4,0-5.1l-11.6,0.1v9.1
			c0,5.2,3.1,5.2,7.8,5.2c4.2,0,6-0.1,8.2-0.3l0.1,1.6c-4.1,0.2-4.5,0.2-8.3,0.2c-5.4,0-9.4-0.1-9.4-7.4V8.4h-4.8V6.9l4.8,0v-6h1.7
			v6l11.6-0.1c0-1-0.1-5.4-0.1-6.3H152.1z"/>
		<path fill="#3A3A3A" d="M182.5,2.7c-0.4,5.6-1.8,18.7-18.2,21.8l-0.6-1.6c14.8-2.9,16.4-12.9,16.8-18.6h-19.9V2.7H182.5z"/>
		<path fill="#3A3A3A" d="M188,22c5-2.3,9.3-7,11.9-10.8h-11.3V9.7H200V5.6h1.5v4.2h5.9v1.4h-5.9v11.1c0,2.2-0.9,2.9-3.2,2.9
			c-1,0-2.2-0.1-3.1-0.2l-0.1-1.6c0.4,0.1,0.5,0.1,1.8,0.3c0.4,0.1,1,0.1,1.5,0.1c1.5,0,1.5-0.1,1.5-1.6v-8.8c-4.2,5.6-8,8.3-11,10
			L188,22z"/>
		<path fill="#3A3A3A" d="M237.1,11.9v1.8h-24.9v-1.8H237.1z"/>
		<path fill="#3A3A3A" d="M255.8,11.1c3.8,4.9,5.8,8.8,7.5,12.8l-1.7,0.8c-0.3-0.8-0.6-1.6-1.1-2.7c-10,1.3-17.6,1.7-21.2,1.8
			l-0.1-1.8c0.5,0,2.3-0.1,2.5-0.1c3.2-7.4,5.3-14.8,6.8-20.8l1.9,0.3c-1.3,5.1-4.4,14.8-6.9,20.4c6.4-0.2,13.5-0.7,16.3-1.2
			c-1.6-3.1-3.4-5.9-5.5-8.7L255.8,11.1z"/>
	</g>
</g>
</svg>
