<?xml version="1.0" encoding="utf-8"?>
<!-- Generator: Adobe Illustrator 19.1.0, SVG Export Plug-In . SVG Version: 6.00 Build 0)  -->
<svg version="1.0" id="レイヤー_1" xmlns="http://www.w3.org/2000/svg" xmlns:xlink="http://www.w3.org/1999/xlink" x="0px"
	 y="0px" viewBox="0 0 153 128" enable-background="new 0 0 153 128" xml:space="preserve">
<g>
	<g>
		<g>
			<g>
				<path fill="#1B2B79" d="M31.4,23.1c-0.2,0.3-0.5,0.5-0.8,0.4c-0.3-0.2-0.3-0.6-0.1-1.1c2.7-6.3,5.7-15.6,2.2-17.7
					c-3-1.8-7.5,4.3-16.3,18.8C3.9,44,3.5,47.9,6.6,49.8c3.8,2.3,12.9-9.4,13.3-10c0.2-0.3,0.5-0.4,0.9-0.2c0.3,0.2,0.4,0.5,0.1,0.9
					c-6.2,10.1-11.6,15.7-17.6,12c-8-4.9,0.6-21,7.6-32.5C15.9,11.5,25.9-4.2,34.5,1c1.1,0.7,1.9,2,2.4,3.4c0.2,0.6,0.6,0.9,0.9,1.1
					c0.3,0.2,1,0.2,1.8,0c0.7-0.2,1.6-0.4,1.9-0.2c0.4,0.2,0.2,0.8-0.2,1.5L31.4,23.1z"/>
				<path fill="#1B2B79" d="M40.3,46.6C30,63.5,24,65.1,19.5,62.3c-4.4-2.7-5.8-8.7,4.5-25.6c8.2-13.5,14.3-15.1,18.7-12.5
					C47.2,27,48.5,33.1,40.3,46.6z M34.9,43.4c7.3-11.9,7.8-15,6-16.2c-1.8-1.1-4.3,0.9-11.5,12.8c-9.4,15.4-9.8,18.3-8.1,19.4
					C23.2,60.5,25.5,58.8,34.9,43.4z"/>
				<path fill="#1B2B79" d="M56.1,35.7l0.1,0.1c2-0.5,3.9-0.9,6.2,0.5c3.4,2.1,4.2,5.9,1.4,10.4L47.2,74c-0.2,0.3-0.3,0.5-0.2,0.7
					l0.7,3.7c0.1,0.2,0.1,0.5,0,0.6c-0.1,0.2-0.4,0.1-0.6,0l-9-5.5c-0.3-0.2-0.4-0.3-0.2-0.5c0.1-0.1,0.3-0.3,0.6-0.3l3.6-1.1
					c0.2-0.1,0.3-0.3,0.5-0.5l16.7-27.4c1.6-2.6,1.7-4.4,0.1-5.4c-1.6-1-4.8,0.2-7.1,3.9L36.7,67.6c-0.2,0.3-0.3,0.5-0.3,0.7L37,72
					c0.1,0.3,0.1,0.6,0.1,0.7c-0.1,0.2-0.4,0.1-0.6,0l-9-5.5c-0.3-0.2-0.4-0.3-0.2-0.5c0.1-0.1,0.3-0.3,0.6-0.3l3.6-1.1
					c0.2-0.1,0.3-0.3,0.5-0.5l18.9-31c0.2-0.3,0.2-0.5,0.1-0.7L50,29.8c0-0.3,0-0.6,0.1-0.7c0.1-0.2,0.4-0.1,0.6,0l6.6,4
					c0.3,0.2,0.3,0.3,0.1,0.6L56.1,35.7z"/>
				<path fill="#1B2B79" d="M57.4,78c-0.9,1.4-0.8,2.9,0.1,3.5c0.8,0.5,2.2,0.3,3-0.1c0.2-0.1,0.4-0.1,0.6,0c0.1,0.1,0.1,0.4,0,0.5
					c-1.6,1.6-4.4,3.1-7.3,1.4c-2.9-1.8-3.7-4-0.2-9.6l16.9-27.7c0.2-0.3,0.4-0.7,0.3-1l-0.8-3.1c-0.1-0.2-0.2-0.5-0.1-0.6
					c0.1-0.2,0.5-0.2,1.2,0.1c3.3,1.3,6.9-3.7,8.5-6.4c0.2-0.3,0.6-0.5,0.9-0.3l2.1,1.3c0.3,0.2,0.3,0.4,0.1,0.7l-4.8,7.9
					c-0.2,0.3-0.3,0.7,0.2,1l1.6,1c0.3,0.2,0.1,0.7-0.5,0.8l-2.7,0.8c-0.4,0.2-1,0.4-1.3,0.9L57.4,78z"/>
				<path fill="#1B2B79" d="M75.1,89.8c-0.5,0.9-0.8,1.9-0.2,2.3c0.7,0.4,1.6,0.5,2.7,0c0.2-0.1,0.4-0.1,0.5-0.1
					c0.1,0.1,0.1,0.3,0,0.5c-1.5,1.8-4.3,2.9-6,1.9c-2.1-1.3-2.4-3.3-2.5-5.1c-1.8,0.6-4.5,0.9-6.3-0.3c-2.7-1.6-4.9-5.3,0.8-14.7
					c4.7-7.7,7.1-9,18.3-10.5c2-0.3,2.4-0.9,4.1-3.7c1.8-3,1.6-4.2-0.6-5.5c-2-1.2-5.8-1.4-7.8-0.9c-0.2,0.1-0.5,0-0.7-0.1
					c-0.1-0.1-0.1-0.3,0-0.5c0.5-0.8,7.3-3.2,11.2-0.9c2.5,1.5,5.9,5.6,1.6,12.7L75.1,89.8z M82.6,66.6l-0.1-0.1
					c-5.7,0.9-8.3,2.7-12.5,9.6c-4.8,7.8-5,9.8-3.5,10.8s4-0.5,5.2-2.4L82.6,66.6z"/>
				<path fill="#1B2B79" d="M98.4,62.7c0.2-0.3,0.2-0.5,0.1-0.7l-0.9-3.2c0-0.3,0-0.6,0.1-0.7c0.1-0.2,0.4-0.1,0.6,0l6.6,4
					c0.2,0.1,0.3,0.3,0.1,0.6L84.3,96.6c-0.2,0.3-0.3,0.5-0.2,0.7l0.7,3.7c0.1,0.2,0.1,0.5,0,0.6c-0.1,0.2-0.3,0.2-0.6,0l-9-5.5
					c-0.2-0.1-0.4-0.3-0.2-0.5c0.1-0.1,0.3-0.3,0.6-0.3l3.6-1.1c0.2-0.1,0.3-0.3,0.5-0.5L98.4,62.7z M111.1,52.6
					c-1.1,1.8-3.3,3-4.7,2.1c-1.4-0.9-1.4-3.4-0.3-5.2c1.1-1.8,3.3-3,4.7-2.1C112.2,48.3,112.2,50.8,111.1,52.6z"/>
				<path fill="#1B2B79" d="M112.9,70.3l0.1,0.1c2-0.5,3.9-0.9,6.2,0.5c3.4,2.1,4.2,5.9,1.4,10.4L104,108.6
					c-0.2,0.3-0.3,0.5-0.2,0.7l0.7,3.7c0.1,0.2,0.1,0.5,0,0.6c-0.1,0.2-0.4,0.1-0.6,0l-9-5.5c-0.3-0.2-0.4-0.3-0.2-0.5
					c0.1-0.1,0.3-0.3,0.6-0.3l3.6-1.1c0.2-0.1,0.3-0.3,0.5-0.5l16.7-27.4c1.6-2.6,1.7-4.4,0.1-5.4c-1.6-1-4.8,0.2-7.1,3.9
					l-15.5,25.4c-0.2,0.3-0.3,0.5-0.3,0.7l0.7,3.7c0.1,0.3,0.1,0.6,0.1,0.7c-0.1,0.2-0.4,0.1-0.6,0l-9-5.5c-0.3-0.2-0.4-0.3-0.2-0.5
					c0.1-0.1,0.3-0.3,0.6-0.3l3.6-1.1c0.2-0.1,0.3-0.3,0.5-0.5l18.9-31c0.2-0.3,0.2-0.5,0.1-0.7l-0.9-3.2c0-0.3,0-0.6,0.1-0.7
					c0.1-0.2,0.4-0.1,0.6,0l6.6,4c0.3,0.2,0.3,0.3,0.1,0.6L112.9,70.3z"/>
				<path fill="#1B2B79" d="M116.7,101.1c-5.3,8.6-6.1,12.6-2.9,14.5c2.3,1.4,4,0.9,6.8-0.3c0.3-0.1,0.5-0.2,0.7-0.1s0.2,0.3,0,0.5
					c-2.8,2.8-6.7,4.3-10,2.3c-6.2-3.8-5.1-11.5,4.3-26.9c6.3-10.4,13.1-14.7,17.9-11.8c4,2.4,5.6,7.4-0.4,17.4l-2.6,4.2
					c-0.3,0.5-0.6,0.7-1.1,0.4l-9.2-5.6L116.7,101.1z M126.5,96.3l4.2-6.8c2.2-3.6,2.4-6.1,0.8-7.1c-1.8-1.1-3.6,0.4-5.8,4l-4.2,6.8
					L126.5,96.3z"/>
				<path fill="#1B2B79" d="M126.5,122.3c-0.2,0.3-0.3,0.5-0.3,0.7l0.9,3.8c0.1,0.3,0.1,0.5,0,0.6c-0.1,0.2-0.3,0.2-0.6,0l-9.2-5.6
					c-0.3-0.2-0.4-0.3-0.2-0.5c0.1-0.1,0.3-0.3,0.6-0.3l3.6-1.1c0.2-0.1,0.3-0.3,0.5-0.5l18.9-31c0.2-0.3,0.2-0.5,0.1-0.7l-0.8-3.1
					c-0.1-0.3,0-0.6,0.1-0.7c0.1-0.2,0.3-0.2,0.6,0l6.6,4c0.2,0.1,0.3,0.3,0.1,0.6l-1.4,2.3l0.1,0.1c1.9-0.7,3.9-1.4,5.5-0.4
					c2.3,1.4,1.5,5.9,0.2,8.1c-0.2,0.3-0.4,0.6-0.7,0.4c-0.3-0.2-0.2-0.5-0.2-1c0.4-2.3-0.5-3.9-2-4.8c-2-1.2-4.9,0.8-7.1,4.3
					L126.5,122.3z"/>
			</g>
		</g>
	</g>
</g>
</svg>
