<?xml version="1.0" encoding="utf-8"?>
<!-- Generator: Adobe Illustrator 19.1.0, SVG Export Plug-In . SVG Version: 6.00 Build 0)  -->
<svg version="1.0" id="レイヤー_1" xmlns="http://www.w3.org/2000/svg" xmlns:xlink="http://www.w3.org/1999/xlink" x="0px"
	 y="0px" viewBox="0 0 60 60" enable-background="new 0 0 60 60" xml:space="preserve">
<g>
	<g>
		<g>
			<g>
				<path fill="#1B2B79" stroke="#1B2B79" stroke-miterlimit="10" d="M11.1,4.6l-8.3,8.4l-0.5-0.5l8.3-8.4L8.4,1.8l0.5-0.5l5,5
					l-0.5,0.5L11.1,4.6z"/>
				<path fill="#1B2B79" stroke="#1B2B79" stroke-miterlimit="10" d="M21.1,15.8c0,1.8-0.6,3.3-1.9,4.5c-1.2,1.3-2.8,1.9-4.5,1.9
					c-1.8,0-3.3-0.6-4.5-1.9c-1.3-1.2-1.9-2.8-1.9-4.5c0-1.8,0.6-3.3,1.9-4.5c1.2-1.3,2.8-1.9,4.5-1.9c1.8,0,3.3,0.6,4.5,1.9
					C20.4,12.6,21.1,14.1,21.1,15.8z M18.7,11.8c-1.1-1.1-2.5-1.7-4-1.7c-1.6,0-2.9,0.6-4,1.7S9,14.3,9,15.9c0,1.6,0.6,2.9,1.7,4
					s2.5,1.7,4,1.7c1.6,0,2.9-0.6,4-1.7s1.7-2.5,1.7-4C20.4,14.3,19.8,12.9,18.7,11.8z"/>
				<path fill="#1B2B79" stroke="#1B2B79" stroke-miterlimit="10" d="M20,23.9L16.9,27l-0.5-0.5l8.8-8.9l2.3,2.3
					c0.6,0.8,0.9,1.6,0.9,2.6c0,1.1-0.4,2.1-1.2,2.9c-0.8,0.8-1.8,1.2-2.9,1.2c-1.1,0-2.1-0.4-2.9-1.2L20,23.9z M25.2,18.6l-4.8,4.8
					l1.5,1.5c0.7,0.7,1.5,1,2.4,1s1.7-0.3,2.4-1c0.7-0.7,1-1.5,1-2.4c0-0.9-0.3-1.7-1-2.4L25.2,18.6z"/>
				<path fill="#1B2B79" stroke="#1B2B79" stroke-miterlimit="10" d="M26.6,30.4l-3.1,3.1L23,33l8.8-8.9l2.3,2.3
					c0.6,0.8,0.9,1.6,0.9,2.6c0,1.1-0.4,2.1-1.2,2.9c-0.8,0.8-1.8,1.2-2.9,1.2c-1.1,0-2.1-0.4-2.9-1.2L26.6,30.4z M31.9,25.1
					l-4.8,4.8l1.5,1.5c0.7,0.7,1.5,1,2.4,1c0.9,0,1.7-0.3,2.4-1c0.7-0.7,1-1.5,1-2.4c0-0.9-0.3-1.7-1-2.4L31.9,25.1z"/>
				<path fill="#1B2B79" stroke="#1B2B79" stroke-miterlimit="10" d="M36.2,39.3l-3.1-3l-4.6,2.2L28,37.9l12.3-5.8l-5.7,12.4
					L34,43.9L36.2,39.3z M36.5,38.6l2.3-5.1l-5,2.4L36.5,38.6z"/>
				<path fill="#1B2B79" stroke="#1B2B79" stroke-miterlimit="10" d="M44.1,51.7c-1.6,0-3-0.6-4.2-1.8c-1.3-1.2-1.9-2.8-1.9-4.5
					c0-1.8,0.6-3.3,1.9-4.5c1.2-1.3,2.7-1.9,4.5-1.9c1.8,0,3.3,0.6,4.5,1.9c1.2,1.2,1.8,2.6,1.9,4.2L50,45c-0.1-1.4-0.6-2.7-1.7-3.7
					c-1.1-1.1-2.5-1.7-4-1.6s-2.9,0.6-4,1.7c-1.1,1.1-1.7,2.5-1.7,4c0,1.6,0.6,2.9,1.7,4c1,0.9,2.1,1.5,3.4,1.6l2.7-2.7l0.5,0.5
					L44.1,51.7z"/>
				<path fill="#1B2B79" stroke="#1B2B79" stroke-miterlimit="10" d="M57.7,49.8l-0.5,0.5l-3.9-3.9l-3.7,3.7l3.9,3.9L53,54.5
					l-3.9-3.9l-3.7,3.7l3.9,3.9l-0.5,0.5l-4.4-4.4l8.8-8.9L57.7,49.8z"/>
			</g>
		</g>
	</g>
</g>
</svg>
