<?xml version="1.0" encoding="utf-8"?>
<!-- Generator: Adobe Illustrator 19.1.0, SVG Export Plug-In . SVG Version: 6.00 Build 0)  -->
<svg version="1.0" id="レイヤー_1" xmlns="http://www.w3.org/2000/svg" xmlns:xlink="http://www.w3.org/1999/xlink" x="0px"
	 y="0px" viewBox="0 0 574 38" enable-background="new 0 0 574 38" xml:space="preserve">
<g>
	<g>
		<path fill="#1B2B79" d="M112.4,0.7v10.8c3.7,1.2,11.7,4.1,20,8.8l-1.2,2.5c-7.4-4.3-11.5-6.2-18.8-8.9v21.2h-2.5V0.7H112.4z
			 M127.5,8.8c-0.9-2.1-2.1-4.2-3.2-6.1l1.9-0.9c0.4,0.6,2.3,3.7,3.3,6L127.5,8.8z M132.1,7c-1.1-2.5-1.8-3.6-3.2-5.8l1.8-0.9
			c1.2,1.6,2.7,4.4,3.2,5.6L132.1,7z"/>
		<path fill="#1B2B79" d="M163.8,27.8c-1.2-1.3-4.1-4.4-8.9-8.4c-6.3,9-14.8,13-18.7,14.8l-1.3-2.1c3.6-1.6,11.8-5.2,18.2-14.2
			c-6.1-4.8-9.9-7.1-12.3-8.4l1.3-1.8c4.4,2.3,8.4,5.1,12.3,8.2c4.1-6.4,6.1-12.6,6.8-14.7l2.5,0.9c-2.7,7.5-5.6,12.6-7.4,15.3
			c5.3,4.2,8.2,7.3,9.4,8.5L163.8,27.8z"/>
		<path fill="#1B2B79" d="M190.3,35h-2.5V14.9c-5.2,3.9-11,7.1-17.2,9.2l-1.1-2.3c5.5-1.7,18.8-7.6,28.9-20.9l2.3,1.4
			c-5.2,6.4-9.6,9.9-10.5,10.6V35z"/>
		<path fill="#1B2B79" d="M218.4,11.7c-3.4-2.4-8.6-4.6-12.3-5.7l1.3-2.2c3,0.9,8.2,2.8,12.3,5.5L218.4,11.7z M206.6,30.9
			c11.6-0.4,24.1-6.3,29.9-24.1l2.3,0.9c-1.4,4.1-4.5,12.4-12.3,18.7c-5.4,4.3-12.1,6.8-19,7.1L206.6,30.9z"/>
		<path fill="#1B2B79" d="M269,11c0-3.8-0.8-6.9-8.7-6.9c-5.7,0-8.3,1.7-8.3,6.2c0,3.1,1.3,4.7,4.7,5.1l8.3,0.9
			c2.5,0.3,8.1,0.9,8.1,8.1c0,6-3.2,8.7-11.9,8.7c-9.8,0-12.1-4-12.2-9.9h2.7c0,4.3,0.9,7.6,9.6,7.6c7.9,0,9.2-2.5,9.2-6.2
			c0-3.3-1.1-5.4-5.5-5.9l-8.6-0.9c-4.8-0.5-7.1-3.3-7.1-7.6c0-8.4,7.7-8.4,10.7-8.4c10.6,0,11.5,4.5,11.6,9.2H269z"/>
		<path fill="#1B2B79" d="M295.5,11c0-3.8-0.8-6.9-8.7-6.9c-5.7,0-8.3,1.7-8.3,6.2c0,3.1,1.3,4.7,4.7,5.1l8.3,0.9
			c2.5,0.3,8.1,0.9,8.1,8.1c0,6-3.2,8.7-11.9,8.7c-9.8,0-12.1-4-12.2-9.9h2.7c0,4.3,0.9,7.6,9.6,7.6c7.9,0,9.2-2.5,9.2-6.2
			c0-3.3-1.1-5.4-5.5-5.9l-8.6-0.9c-4.8-0.5-7.1-3.3-7.1-7.6c0-8.4,7.7-8.4,10.7-8.4c10.6,0,11.5,4.5,11.6,9.2H295.5z"/>
		<path fill="#1B2B79" d="M305.3,2.1v28.4h17v2.3h-19.7V2.1H305.3z"/>
		<path fill="#1B2B79" d="M322.9,28.4c1.4-0.2,2-0.2,3-0.4V3H323v-2h18.2v2h-2v32.8h-2.1v-8c-1.7,0.5-9.4,2.4-14,2.8L322.9,28.4z
			 M337.1,3h-9v6.6h9V3z M337.1,11.4h-9V18h9V11.4z M328,27.7c0.2,0,5.8-1,9-1.9v-5.9h-9V27.7z M339.7,33.8c2.1-1.3,5.5-3.5,8.6-7.6
			c-2.9-4.4-5.1-10.9-6-18.5l2.1-0.3c0.7,7.8,2.8,13.2,5.2,16.9c1.2-1.8,4.7-8.1,5.4-18.4h-13.8V3.7h16.2c-0.7,10.4-3.5,18-6.4,22.5
			c3,3.9,6.2,6.1,8,7.3l-1.3,2.2c-2.7-2.1-5.4-4.4-8-7.6c-3.4,4.4-6.8,6.7-8.3,7.7L339.7,33.8z"/>
		<path fill="#1B2B79" d="M357.7,20.7c4.2-3,7.2-7.4,9.3-12.1l1.7,0.9c-1.6,3.5-3,5.5-4,6.9v19.5h-2.1V19.1
			c-2.1,2.3-3.3,3.2-4.1,3.8L357.7,20.7z M367.4,0.9c-2.2,4.2-5.3,8.2-8.6,10.6l-0.9-2.1c3.7-2.6,6.7-7.1,7.7-9.4L367.4,0.9z
			 M393,18.9h-4.9v3.6h5.8v1.8h-5.8v8.6c0,1-0.1,2.9-2.6,2.9h-4.8l-0.4-2.4l4.5,0.1c0.7,0,1.1-0.1,1.1-1.1v-8.1h-18.3v-1.8h18.3
			v-3.6h-17V17H393V18.9z M390.8,14h-19.7V1.3h19.7V14z M372.9,25.3c2.3,2.4,4,5,4.6,5.8l-1.7,1.2c-1-1.6-3-4.6-4.4-5.9L372.9,25.3z
			 M388.7,3.2h-15.6v3.6h15.6V3.2z M388.7,8.6h-15.6v3.6h15.6V8.6z"/>
		<path fill="#1B2B79" d="M400.5,35.9h-2.1V13.7c-2,3.1-3.4,4.4-4.1,5.1l-1.5-1.9c3.7-3.7,7.6-10.3,9.6-16.7l2.1,0.6
			c-0.9,2.7-2,5.7-4,9.3V35.9z M428.7,10.7l0.1,1.9l-14,0.9c2.6,18.7,8.9,19.7,9.2,19.7c1.8,0,2.8-4.4,3.3-6.6l2,0.9
			c-0.4,1.8-1.8,8.1-5.4,8.1c-3.7,0-9.6-6.9-11.4-22l-8.9,0.6l-0.2-2l8.9-0.6c-0.2-1.3-0.6-5.9-0.9-11.7h2.4
			c0.1,4.6,0.6,9.9,0.8,11.5L428.7,10.7z M424.7,8.3c-1.9-2.3-3.8-4-6.6-5.9l1.4-1.4c2.2,1.3,5.1,3.7,6.7,5.6L424.7,8.3z"/>
		<path fill="#1B2B79" d="M427.9,20.8c5.3-3.7,8.4-8.7,10.2-12.2l1.7,0.9c-0.5,1.1-1.6,3.2-4,6.4v20.1h-2.2V18.5
			c-2.6,2.8-4.1,3.8-5,4.4L427.9,20.8z M438.8,1c-4.5,7.3-8.2,9.6-9.8,10.6l-0.8-2.1c3.6-1.9,7-6.2,8.9-9.4L438.8,1z M464.1,14.5
			h-6.6V33c0,0.9,0,2.9-2.7,2.9h-6.3l-0.4-2.3l6,0.1c0.9,0,1-0.2,1-1.1v-18h-14.4v-2h23.2V14.5z M462.5,4h-20V2h20V4z"/>
	</g>
</g>
</svg>
