<?xml version="1.0" encoding="utf-8"?>
<!-- Generator: Adobe Illustrator 19.1.0, SVG Export Plug-In . SVG Version: 6.00 Build 0)  -->
<svg version="1.0" id="レイヤー_1" xmlns="http://www.w3.org/2000/svg" xmlns:xlink="http://www.w3.org/1999/xlink" x="0px"
	 y="0px" viewBox="0 0 574 38" enable-background="new 0 0 574 38" xml:space="preserve">
<g>
	<g>
		<path fill="#1B2B79" d="M156,4.3v1.9c-1.4,2.1-3.5,4.2-3.8,4.5h8.4v19.3h-26.3V11.5c-1.7,1.1-2.8,1.6-3.7,2.1l-1.3-1.8
			c5-2.4,9.6-5.9,12.5-10.6l2.4,0.4c-0.7,1.2-1.2,1.9-1.8,2.7H156z M129.6,35.1c2.3-0.5,8.7-2,11.7-4.1l1.6,1.4
			c-3.7,2.5-10.6,4.2-12.1,4.5L129.6,35.1z M140.7,6c-1.2,1.3-2.8,2.9-5.2,4.6h13.8c2-1.6,3.4-3.7,4-4.6H140.7z M158.5,12.4h-22v3.9
			h22V12.4z M158.5,18.1h-22v3.9h22V18.1z M158.5,23.8h-22v4.3h22V23.8z M153,31c1.9,1,7.7,3.4,12,3.8l-1.1,2
			c-3.8-0.5-9.9-2.8-12.4-4.3L153,31z"/>
		<path fill="#1B2B79" d="M164,22.7c2.2-1.9,5.1-5,8.3-12.8l1.9,1c-0.5,1.3-1.2,2.9-2.8,5.7v20.3h-2.1v-17c-2.1,3-3.5,4.2-4.3,4.8
			L164,22.7z M174.7,4.3V1.1h2.1v3.2h10.6V1.1h2.1v3.2h10.6v1.9h-10.6v3.6h-2.1V6.3h-10.6v3.6h-2.1V6.3h-10.2V4.3H174.7z
			 M200.2,13.7h-4.3V34c0,1.5-0.2,2.8-2.8,2.8h-4.6l-0.5-2.1l4.6,0.1c1.2,0,1.2-0.2,1.2-1.4V13.7h-18.5v-1.9h25V13.7z M189.4,29.6
			h-12.9V17.7h12.9V29.6z M187.4,19.5h-8.9v8.3h8.9V19.5z"/>
		<path fill="#1B2B79" d="M233.7,13.8V16H220l0,1.4c-0.3,11.1-4.8,16-15.3,18.2l-1-2.2c10.8-1.9,13.5-6.9,13.8-15.8l0.1-1.7h-16.5
			v-2.2H233.7z M230.4,3.3v2.3h-25.9V3.3H230.4z"/>
		<path fill="#1B2B79" d="M235.6,33.5c7.7-3.4,19.2-11.5,24.6-27.1h-22.8V4.2h25.8c-1.6,6-4.2,11.5-8,16.4c1.4,1.1,7.5,6,14.1,12.6
			l-2,1.9c-3.5-3.9-10.1-9.9-13.6-12.7c-4.6,5.5-10.3,10-16.8,12.9L235.6,33.5z"/>
		<path fill="#1B2B79" d="M283.8,1.7v10.8c7.6,2.3,15.3,6.2,20,8.8l-1.2,2.4c-5.3-3.2-12.1-6.6-18.9-8.8v21.2h-2.5V1.7H283.8z"/>
		<path fill="#1B2B79" d="M330.9,1.9h2.3V10h7.3v2.3h-7.3v5.9c0,3.9-1.2,10.1-6.5,13.7c-4.7,3.2-10.4,3.8-12.2,4l-0.9-2.4
			c1.9-0.2,7.4-0.6,12-3.7c5.3-3.6,5.3-11.3,5.3-11.6v-5.9h-15.8v11.5h-2.4V12.2h-7.2V10h7.2V2.1h2.4V10h15.8V1.9z"/>
		<path fill="#1B2B79" d="M375.2,17.7v2.5h-34.6v-2.5H375.2z"/>
		<path fill="#1B2B79" d="M382,3.2v13.2c5.8-1.2,14.5-3.7,21.9-8.1l1.6,2c-6.4,4.1-18.1,7.3-23.5,8.4v9.9c0,3.1,0.2,3.8,6.4,3.8
			h10.3c2.6,0,6.4-0.2,9-0.5l0.2,2.3c-2.3,0.2-7.1,0.5-9.4,0.5h-10.2c-7.3,0-8.6-1.4-8.6-6V3.2H382z M405.2,7.2
			c-0.4-0.8-1.3-3-2.8-5.3l1.9-0.9c1.2,1.5,2.2,3.4,3,5.2L405.2,7.2z M410,6c-0.2-0.4-1.5-3-3-5.1l1.9-0.9c1.2,1.7,2,3.1,2.9,5.1
			L410,6z"/>
		<path fill="#1B2B79" d="M411.1,33.5c7.7-3.4,19.2-11.5,24.6-27.1h-22.8V4.2h25.8c-1.6,6-4.2,11.5-8,16.4c1.4,1.1,7.5,6,14.1,12.6
			l-2,1.9c-3.5-3.9-10.1-9.9-13.6-12.7c-4.6,5.5-10.3,10-16.8,12.9L411.1,33.5z"/>
	</g>
</g>
</svg>
