<?xml version="1.0" encoding="utf-8"?>
<!-- Generator: Adobe Illustrator 19.1.0, SVG Export Plug-In . SVG Version: 6.00 Build 0)  -->
<svg version="1.0" id="レイヤー_1" xmlns="http://www.w3.org/2000/svg" xmlns:xlink="http://www.w3.org/1999/xlink" x="0px"
	 y="0px" viewBox="0 0 73 69" enable-background="new 0 0 73 69" xml:space="preserve">
<g>
	<g>
		<linearGradient id="SVGID_1_" gradientUnits="userSpaceOnUse" x1="48.3954" y1="4.5531" x2="27.901" y2="35.922">
			<stop  offset="0" style="stop-color:#009BD9"/>
			<stop  offset="0.4909" style="stop-color:#0F5292"/>
			<stop  offset="1" style="stop-color:#1B2B79"/>
		</linearGradient>
		<path fill="url(#SVGID_1_)" d="M43,44.5c-16.9-1.7-21.2-11.6-21.2-18.7c0-7,6.5-13.6,14.1-13.6c6.3,0,12.9,3.3,13.3,8.1
			c0.4,4.8-1.8,9-6.4,10.5c-6.2,2-9.5-1.8-9.5-1.8s-1,6.3,6.8,8.5c3.2,0.9,13.2,3.2,20.8-6.9c5.9-7.8-1-14.7-1-14.7
			s-0.6-10-7.4-13.4c-13-6.3-20.4,1.1-20.4,1.1s-9.1-6-18.4,1.2C6.2,10.8,10,20.8,10,20.8s-4.7,7.5-1.9,13.7c5.9,13.1,17,10,17,10
			s1.8,5.2,15.8,5.2c20.3,0,24.3-19.8,24.3-19.8S58.3,46.1,43,44.5z"/>
	</g>
	<g>
		
			<radialGradient id="SVGID_2_" cx="452.2795" cy="-114.3957" r="40.3055" gradientTransform="matrix(1.0762 0 0 1.0763 -450.0919 186.7944)" gradientUnits="userSpaceOnUse">
			<stop  offset="0" style="stop-color:#1B92D1"/>
			<stop  offset="0.4909" style="stop-color:#0F5292"/>
			<stop  offset="1" style="stop-color:#1B2B79"/>
		</radialGradient>
		<path fill="url(#SVGID_2_)" d="M29.5,59.7c-1-0.8-2.2-1.2-3.7-1.2c-1.5,0-2.7,0.4-3.7,1.2c-1.1,0.9-1.6,2.2-1.6,3.9
			c0,1.6,0.5,2.9,1.6,3.9c1,0.8,2.2,1.2,3.7,1.2c1.5,0,2.7-0.4,3.7-1.2c1.1-0.9,1.6-2.2,1.6-3.9C31.1,61.9,30.6,60.6,29.5,59.7z
			 M27.3,65.6c-0.3,0.6-0.8,1-1.5,1c-0.7,0-1.2-0.3-1.5-1c-0.2-0.5-0.3-1.1-0.3-2c0-0.8,0.1-1.5,0.4-2c0.3-0.6,0.8-1,1.5-1
			c0.7,0,1.2,0.3,1.5,1c0.2,0.5,0.3,1.1,0.3,2C27.7,64.4,27.6,65.1,27.3,65.6z M40,64.4c0,0.6-0.2,1-0.6,1.3
			c-0.3,0.2-0.7,0.3-1.1,0.3c-0.4,0-0.7-0.1-1-0.2c-0.3-0.2-0.4-0.5-0.4-1v-5.5h-3.2v5.9c0,1.1,0.4,2,1.1,2.6
			c0.6,0.5,1.5,0.8,2.6,0.8c1.1,0,2-0.3,2.7-0.9v0.7h3.1v-9.1H40V64.4z M58.7,57.8h3.2v-2.7h-3.2V57.8z M58.7,68.5h3.2v-9.2h-3.2
			V68.5z M16.9,59.5c-0.3,0.1-0.5,0.3-0.8,0.6v-0.7H13v9.1h3.2v-5.1c0-0.4,0.1-0.8,0.4-1c0.3-0.3,0.9-0.5,1.7-0.5c0.2,0,0.3,0,0.4,0
			c0.1,0,0.2,0,0.3,0l0.4,0v-2.7h-0.8C17.9,59.2,17.4,59.3,16.9,59.5z M6.4,55.1H0v13.4h3.4v-3.8h2.9c1.7,0,2.9-0.6,3.7-1.9
			c0.6-0.9,0.8-1.9,0.8-2.9c0-1.5-0.4-2.7-1.2-3.5C8.8,55.5,7.7,55.1,6.4,55.1z M5.1,62.5H3.4v-5.6H5c1.8,0,2.2,1.7,2.2,2.6
			C7.2,60.3,6.9,62.5,5.1,62.5z M72,61.5v-2.2h-3.1v-3.6L65.7,57v2.3h-2v2.2h2v4.8c0,0.7,0.2,1.3,0.6,1.6c0.5,0.4,1.2,0.6,2.4,0.6
			H69l3,0v-2.3h-2.3c-0.6,0-0.7-0.1-0.7-0.1l0,0c0,0,0-0.1,0-0.3v-4.2H72z M52.5,58.7h-2.2c-4.1,0-5.3,2.4-5.3,5
			c0,2.4,1.1,4.8,5.3,4.8h5.2V54.9h-3V58.7z M52.5,66.5h-1.2c-1.8,0-2.7-0.9-2.7-2.8c0-1.9,0.9-2.9,2.8-2.8h1.1V66.5z"/>
	</g>
	<defs>
		<filter id="Adobe_OpacityMaskFilter" filterUnits="userSpaceOnUse" x="9.7" y="2" width="21" height="17">
			<feColorMatrix  type="matrix" values="1 0 0 0 0  0 1 0 0 0  0 0 1 0 0  0 0 0 1 0"/>
		</filter>
	</defs>
	<mask maskUnits="userSpaceOnUse" x="9.7" y="2" width="21" height="17" id="SVGID_3_">
		<g filter="url(#Adobe_OpacityMaskFilter)">
			<linearGradient id="SVGID_4_" gradientUnits="userSpaceOnUse" x1="14.7217" y1="2.9556" x2="25.8582" y2="18.5467">
				<stop  offset="0" style="stop-color:#F6F6F6"/>
				<stop  offset="0.8939" style="stop-color:#000000"/>
			</linearGradient>
			<rect x="-1.3" y="-10.2" fill="url(#SVGID_4_)" width="40.6" height="38.5"/>
		</g>
	</mask>
	<g opacity="0.52" mask="url(#SVGID_3_)">
		<path fill="#FFFFFF" d="M30.6,3.5C27,1.7,20.5,0.7,14.5,5.3C10.2,8.6,8.9,14.1,10,19C12.9,16.8,26.8,5.3,30.6,3.5z"/>
	</g>
	<defs>
		<filter id="Adobe_OpacityMaskFilter_1_" filterUnits="userSpaceOnUse" x="36.6" y="0.5" width="21.9" height="10.6">
			<feColorMatrix  type="matrix" values="1 0 0 0 0  0 1 0 0 0  0 0 1 0 0  0 0 0 1 0"/>
		</filter>
	</defs>
	<mask maskUnits="userSpaceOnUse" x="36.6" y="0.5" width="21.9" height="10.6" id="SVGID_5_">
		<g filter="url(#Adobe_OpacityMaskFilter_1_)">
			<linearGradient id="SVGID_6_" gradientUnits="userSpaceOnUse" x1="53.6864" y1="-6.7649" x2="46.0007" y2="10.116">
				<stop  offset="0.4962" style="stop-color:#FFFFFF"/>
				<stop  offset="0.8584" style="stop-color:#000000"/>
			</linearGradient>
			<rect x="29.5" y="-4.9" fill="url(#SVGID_6_)" width="33.1" height="29.9"/>
		</g>
	</mask>
	<g opacity="0.47" mask="url(#SVGID_5_)">
		<path fill="#F5F5F5" d="M47.3,4.6c3.9,1.7,7.4,4.5,11.2,6.5c-1.2-3.2-3.4-6.8-7-8.4c-6.5-2.9-11.5-2.4-14.9-1.2
			C40.3,2,43.9,3.2,47.3,4.6z"/>
	</g>
</g>
</svg>
