<svg version="1.0" id="レイヤー_1" xmlns="http://www.w3.org/2000/svg" xmlns:xlink="http://www.w3.org/1999/xlink" x="0px"
	 y="0px" viewBox="0 0 1800 1200" enable-background="new 0 0 1800 1200" xml:space="preserve">
<g>
	<g>
		<path fill="#FFFFFF" d="M703.8,508.3h-11.6l-4.7,12.9h-2l12.5-34.4l12.5,34.4h-2L703.8,508.3z M703.1,506.4l-5.1-14.1l-5.1,14.1
			H703.1z"/>
		<path fill="#FFFFFF" d="M729.2,516.1v-28.6h1.9v28.6c0.3,0.6,0.7,1.1,1.2,1.6c1.3,1.2,2.8,1.8,4.5,1.8s3.2-0.6,4.5-1.9
			c1.3-1.2,1.9-2.7,1.9-4.5v-25.7h1.9v25.8c0,2.2-0.8,4.1-2.4,5.6c-1.6,1.6-3.6,2.4-5.9,2.4c-2.3,0-4.2-0.8-5.9-2.4
			c-0.3-0.3-0.6-0.6-0.8-0.9c-0.2,0.3-0.5,0.6-0.8,0.9c-1.6,1.6-3.6,2.4-5.9,2.4c-2.3,0-4.2-0.8-5.9-2.4c-1.6-1.6-2.4-3.4-2.4-5.6
			v-25.8h1.9v25.7c0,1.8,0.6,3.2,1.9,4.5c1.3,1.2,2.8,1.9,4.5,1.9s3.2-0.6,4.5-1.8C728.5,517.3,728.9,516.7,729.2,516.1z"/>
		<path fill="#FFFFFF" d="M760.3,502.6c-2.4-0.8-4.3-1.9-5.7-3.3s-2.1-3.1-2.1-5s0.7-3.6,2.1-5s3.1-2.1,5-2.1c2,0,3.6,0.7,5,2.1
			c0.8,0.7,1.3,1.6,1.6,2.5l-1.7,0.7c-0.3-0.7-0.7-1.3-1.2-1.9c-1-1-2.3-1.5-3.7-1.5s-2.7,0.5-3.7,1.5s-1.5,2.2-1.5,3.7
			c0,1.4,0.5,2.7,1.5,3.7c1,0.9,2.3,1.8,3.9,2.6c2.7,0.9,4.9,2.2,6.8,4.1c1.9,1.9,2.9,4.3,2.9,7c0,2.8-1,5.1-2.9,7.1
			c-1.9,1.9-4.3,2.9-7,2.9s-5.1-1-7-2.9c-1.6-1.6-2.5-3.4-2.8-5.4l1.8-0.7c0.2,1.8,1,3.4,2.3,4.8c1.6,1.6,3.5,2.4,5.7,2.4
			s4.2-0.8,5.7-2.4c1.6-1.6,2.4-3.5,2.4-5.7s-0.8-4.1-2.4-5.7C764,504.5,762.3,503.4,760.3,502.6z"/>
		<path fill="#FFFFFF" d="M799.4,485.8h2v8.9h8.2v1.9h-8.2v4.8c0,7.1,0,19.6-20.6,21.5l-0.6-2c18.5-1.4,19.2-11.7,19.2-19.5v-4.8
			h-18v13h-2.1v-13h-8v-1.9h8V486h2.1v8.7h18L799.4,485.8L799.4,485.8z"/>
		<path fill="#FFFFFF" d="M846.9,503.3v2.1h-37.7v-2.1H846.9z"/>
		<path fill="#FFFFFF" d="M846.4,520.3c6.9-6.8,9.7-16.4,10.4-32.6l2.2,0.2c-0.9,15.8-3.6,26.5-11,33.5L846.4,520.3z M873.2,487.5
			c0.9,14.3,2.9,23.5,11,32.7l-1.8,1.3c-9.1-11.1-10.2-20.2-11.3-33.6L873.2,487.5z M878.6,492.6c-1.3-2.8-2.3-4.5-3.5-6.2l1.8-0.8
			c1,1.2,2.3,3.1,3.5,6.1L878.6,492.6z M883.3,491c-0.9-2.3-1.9-4-3.3-5.9l1.8-0.8c1.6,2,2.5,3.6,3.4,5.9L883.3,491z"/>
		<path fill="#FFFFFF" d="M894.6,501.9v11.9c0.4,2.4,1.4,4.2,3.5,5.3c2.2,1.1,4.8,1.8,7.2,1.8h22l-0.6,1.7h-21.1
			c-4.3,0-8.7-1.3-11.1-4.8c-3.5,3.6-4.2,4.3-5.9,5.6l-0.9-1.7c1.3-1,3.7-2.8,5.1-4.6v-13.5h-4.7v-1.7L894.6,501.9L894.6,501.9z
			 M895.3,492.8c-1.4-1.5-3.4-3.6-6.6-5.6l1.1-1.4c3.7,2.2,5.6,4.4,6.7,5.7L895.3,492.8z M926.7,514.8h-14.2v4.9h-1.7v-4.9H897v-1.5
			h13.7v-3.5H899v-13h11.8v-3.4h-9.6v-1.6h9.6V488h-11.4v5.8h-1.7v-7.4H926v7.4h-1.7V488h-11.8v3.8h9.3v1.6h-9.3v3.4h11.8v13h-11.8
			v3.5h14.2V514.8z M910.7,498.2h-10v4.3h10V498.2z M910.7,504h-10v4.3h10V504z M922.5,498.2h-10.1v4.3h10.1V498.2z M922.5,504
			h-10.1v4.3h10.1V504z"/>
		<path fill="#FFFFFF" d="M963.6,520c0,2.7-0.2,3.7-3.3,3.7h-5.4l-0.3-1.8l6,0.1c1.1,0,1.1-0.6,1.1-1.4v-10.4h-13.5v13.1h-1.8v-13.1
			h-12.7c-0.4,3.7-0.8,8.1-5,13.5l-1.5-1c4.8-6.7,4.8-12.4,4.8-17.5v-18.4h31.7L963.6,520L963.6,520z M946.4,508.6v-9.7h-12.6v7
			c0,0.5,0,1.2,0,2.7H946.4z M946.4,488.3h-12.6v9h12.6V488.3z M961.7,488.3h-13.5v9h13.5V488.3z M961.7,498.9h-13.5v9.7h13.5V498.9
			z"/>
		<path fill="#FFFFFF" d="M995,485.8h2v8.9h8.2v1.9H997v4.8c0,7.1,0,19.6-20.6,21.5l-0.6-2c18.5-1.4,19.2-11.7,19.2-19.5v-4.8h-18
			v13h-2v-13h-8v-1.9h8V486h2.1v8.7h18L995,485.8L995,485.8z"/>
		<path fill="#FFFFFF" d="M1043.4,503.3v2.1h-37.7v-2.1H1043.4z"/>
		<path fill="#FFFFFF" d="M1051.3,487.2V502c12.1-2.5,19.7-5.9,25.1-8.9l1.4,1.6c-7.6,4.1-17,7.1-26.5,9.1v11c0,4.2,0.8,4.7,7.9,4.7
			h9.9c3,0,7.8-0.1,10.7-0.6l0.1,1.9c-3.7,0.5-9.2,0.5-12.1,0.5h-8.8c-7.7,0-9.8-0.7-9.8-6.6v-27.6L1051.3,487.2L1051.3,487.2z
			 M1077.7,491.6c-1.2-2.7-2.3-4.4-3.6-6.2l1.8-0.8c1.5,1.9,2.7,3.9,3.6,6.1L1077.7,491.6z M1082.5,490.2c-1-2.3-1.9-3.9-3.4-5.9
			l1.8-0.8c1.6,2,2.6,3.7,3.4,5.8L1082.5,490.2z"/>
		<path fill="#FFFFFF" d="M1085.1,520.6c12.4-5.6,24.2-18.1,27.3-30.5H1087v-1.9h28c-1.7,8-5.5,13.9-8.8,18.1
			c7.7,6.5,8.6,7.2,15.5,14.1l-1.7,1.6c-3.7-4.2-10.8-11.1-14.9-14.4c-8.2,9.5-16.2,13.3-18.8,14.5L1085.1,520.6z"/>
		<path fill="#FFFFFF" d="M756.4,574.9c10.5-1.2,24.6-7.3,27-27.2c-0.6-0.3-0.8-0.6-1.1-0.9h-30.2v-1.9h29.1c-0.1-0.2-0.2-0.5-0.2-1
			c0-2.5,2-4.5,4.5-4.5s4.5,2,4.5,4.5c0,2.3-1.8,4.5-4.6,4.4c-1.7,15.5-11.3,26.1-28.5,28.6L756.4,574.9z M782.9,543.8
			c0,1.5,1.2,2.7,2.7,2.7s2.7-1.2,2.7-2.7s-1.2-2.7-2.7-2.7C784.1,541.1,782.9,542.3,782.9,543.8z"/>
		<path fill="#FFFFFF" d="M825.3,552.3c-2.3,19.8-14.5,23.1-27.5,24.5l-0.6-1.9c14.7-1.4,23.4-5.6,25.8-20.7h-31.7v-1.9L825.3,552.3
			L825.3,552.3z M822.6,542v1.9h-28.3V542H822.6z"/>
		<path fill="#FFFFFF" d="M848,539.7v7.4h14.9v2.7c0,12.6-4,24.4-26.5,26.9l-0.6-2c16.8-2,24.9-8.1,24.9-24.6V549h-27.4v11.7h-2.1
			v-13.6h14.7v-7.4L848,539.7L848,539.7z"/>
		<path fill="#FFFFFF" d="M877.5,540v11.9c7.4,2.3,15.7,6,22,9.7l-1,2c-4.5-2.8-13.6-7.5-21-9.8v23.5h-2.1V540H877.5z M895,548.2
			c-0.5-1-1.5-3.5-3.5-6.2l1.8-0.8c1.4,1.9,2.5,3.6,3.5,6.2L895,548.2z M899.6,546.3c-0.9-2.3-1.8-3.9-3.3-5.9l1.8-0.8
			c1.5,1.9,2.5,3.6,3.4,5.9L899.6,546.3z"/>
		<path fill="#FFFFFF" d="M936.6,546.3c-0.5,2.8-2.3,12.1-10,20.6c-5.3,5.8-11.6,8.4-19.6,10.3l-0.9-2c6.4-1.3,13.5-3.5,19.2-10
			c6.5-7.2,8.2-14.7,8.7-17h-18.1c-4.9,6.8-8.8,9.3-10.7,10.6l-1.3-1.6c7.1-4.8,11.7-11,14.1-17.3l2.4,0.3c-0.4,1-1.1,2.7-3.2,6.1
			L936.6,546.3L936.6,546.3z"/>
		<path fill="#FFFFFF" d="M974,552.3c-2.3,19.8-14.5,23.1-27.5,24.5l-0.6-1.9c14.7-1.4,23.4-5.6,25.8-20.7H940v-1.9L974,552.3
			L974,552.3z M971.3,542v1.9H943V542H971.3z"/>
		<path fill="#FFFFFF" d="M995.8,539.7v7.4h14.9v2.7c0,12.6-4,24.4-26.5,26.9l-0.6-2c16.8-2,24.9-8.1,24.9-24.6V549H981v11.7h-2
			v-13.6h14.7v-7.4L995.8,539.7L995.8,539.7z"/>
		<path fill="#FFFFFF" d="M1024.5,540v11.9c7.4,2.3,15.7,6,22,9.7l-1,2c-4.5-2.8-13.6-7.5-21-9.8v23.5h-2.1V540H1024.5z M1042,548.2
			c-0.5-1-1.5-3.5-3.5-6.2l1.8-0.8c1.4,1.9,2.5,3.6,3.5,6.2L1042,548.2z M1046.6,546.3c-0.9-2.3-1.8-3.9-3.3-5.9l1.8-0.8
			c1.5,1.9,2.5,3.6,3.4,5.9L1046.6,546.3z"/>
	</g>
</g>
</svg>
