<?xml version="1.0" encoding="utf-8"?>
<!-- Generator: Adobe Illustrator 19.1.0, SVG Export Plug-In . SVG Version: 6.00 Build 0)  -->
<svg version="1.0" id="レイヤー_1" xmlns="http://www.w3.org/2000/svg" xmlns:xlink="http://www.w3.org/1999/xlink" x="0px"
	 y="0px" viewBox="0 0 1800 1200" enable-background="new 0 0 1800 1200" xml:space="preserve">
<path fill="none" stroke="#1B2B79" stroke-width="5" stroke-miterlimit="10" d="M752.2,646.8c1.5,0,2.6,1.2,2.6,2.7
	s-1.2,2.7-2.6,2.7s-2.6-1.2-2.6-2.7S750.7,646.8,752.2,646.8"/>
<path fill="none" stroke="#00A0E9" stroke-width="6" stroke-miterlimit="10" d="M728.7,649.2c1.5,0,2.6,1.2,2.6,2.7
	s-1.2,2.7-2.6,2.7s-2.6-1.2-2.6-2.7S727.2,649.2,728.7,649.2"/>
<path fill="none" stroke="#11BAD1" stroke-width="6" stroke-miterlimit="10" d="M718.1,655.6c1.5,0,2.7,1.2,2.7,2.6
	s-1.2,2.6-2.7,2.6s-2.7-1.2-2.7-2.6S716.6,655.6,718.1,655.6"/>
<path opacity="0.4" fill="none" stroke="#00A0E9" stroke-width="5" stroke-linecap="round" stroke-linejoin="round" stroke-miterlimit="10" enable-background="new    " d="
	M708.8,663.7c1.5,0,2.6,1.2,2.6,2.6s-1.2,2.6-2.6,2.6s-2.6-1.2-2.6-2.6S707.3,663.7,708.8,663.7"/>
<path opacity="0.2" fill="none" stroke="#00A0E9" stroke-width="5" stroke-linecap="round" stroke-linejoin="round" stroke-miterlimit="10" enable-background="new    " d="
	M703.5,674.4c1.5,0,2.7,1.2,2.7,2.7s-1.2,2.7-2.7,2.7s-2.7-1.2-2.7-2.7S702,674.4,703.5,674.4"/>
<path opacity="0.1" fill="none" stroke="#00A0E9" stroke-width="5" stroke-linecap="round" stroke-linejoin="round" stroke-miterlimit="10" enable-background="new    " d="
	M700.9,686.4c1.5,0,2.7,1.2,2.7,2.7s-1.2,2.7-2.7,2.7s-2.7-1.2-2.7-2.7S699.4,686.4,700.9,686.4"/>
<path fill="none" stroke="#1B2B79" stroke-width="6.1317" stroke-miterlimit="10" d="M1187.5,48.7c1.6,0.8,2.3,2.7,1.5,4.3
	c-0.8,1.6-2.7,2.3-4.3,1.5s-2.3-2.7-1.5-4.3S1185.9,47.9,1187.5,48.7"/>
<path fill="none" stroke="#00A0E9" stroke-width="7.358" stroke-miterlimit="10" d="M1160.3,38.8c1.6,0.8,2.3,2.7,1.5,4.3
	c-0.8,1.6-2.7,2.3-4.3,1.5s-2.3-2.7-1.5-4.3C1156.7,38.6,1158.7,38,1160.3,38.8"/>
<path fill="none" stroke="#11BAD1" stroke-width="7.358" stroke-miterlimit="10" d="M1145.2,40c1.6,0.8,2.3,2.7,1.5,4.3
	c-0.8,1.6-2.7,2.3-4.3,1.5c-1.6-0.8-2.3-2.7-1.5-4.3C1141.7,39.9,1143.6,39.3,1145.2,40"/>
<path opacity="0.4" fill="none" stroke="#00A0E9" stroke-width="6.1317" stroke-linecap="round" stroke-linejoin="round" stroke-miterlimit="10" enable-background="new    " d="
	M1130.6,44c1.6,0.8,2.3,2.7,1.5,4.3c-0.8,1.6-2.7,2.3-4.3,1.5c-1.6-0.8-2.3-2.7-1.5-4.3S1129,43.2,1130.6,44"/>
<path opacity="0.2" fill="none" stroke="#00A0E9" stroke-width="6.1317" stroke-linecap="round" stroke-linejoin="round" stroke-miterlimit="10" enable-background="new    " d="
	M1119,53.1c1.6,0.8,2.3,2.7,1.5,4.3c-0.8,1.6-2.7,2.3-4.3,1.5s-2.3-2.7-1.5-4.3C1115.5,53,1117.4,52.3,1119,53.1"/>
<path opacity="0.1" fill="none" stroke="#00A0E9" stroke-width="6.1317" stroke-linecap="round" stroke-linejoin="round" stroke-miterlimit="10" enable-background="new    " d="
	M1109.7,65c1.6,0.8,2.3,2.7,1.5,4.3c-0.8,1.6-2.7,2.3-4.3,1.5s-2.3-2.7-1.5-4.3C1106.2,64.8,1108.1,64.2,1109.7,65"/>
<path opacity="0.1" fill="none" stroke="#00A0E9" stroke-width="5" stroke-linecap="round" stroke-linejoin="round" stroke-miterlimit="10" enable-background="new    " d="
	M700.9,731.6c1.5,0,2.7,1.2,2.7,2.6s-1.2,2.6-2.7,2.6s-2.7-1.2-2.7-2.6S699.4,731.6,700.9,731.6"/>
<path opacity="0.1" fill="none" stroke="#00A0E9" stroke-width="5" stroke-linecap="round" stroke-linejoin="round" stroke-miterlimit="10" enable-background="new    " d="
	M700.9,774.6c1.5,0,2.7,1.2,2.7,2.6s-1.2,2.6-2.7,2.6s-2.7-1.2-2.7-2.6S699.4,774.6,700.9,774.6"/>
<g opacity="0.15">
	<polyline fill="none" stroke="#00A0E9" stroke-width="7" stroke-miterlimit="10" points="70.9,981.8 85.7,994.2 70.9,1006.4 
		80.8,998.2 80.8,990.1 	"/>
</g>
<g opacity="0.15">
	<polyline fill="none" stroke="#00A0E9" stroke-width="7" stroke-miterlimit="10" points="89.8,981.8 104.6,994.2 89.8,1006.4 
		99.7,998.2 99.7,990.1 	"/>
</g>
<g opacity="0.15">
	<polyline fill="none" stroke="#00A0E9" stroke-width="7" stroke-miterlimit="10" points="108.7,981.8 123.5,994.2 108.7,1006.4 
		118.6,998.2 118.6,990.1 	"/>
</g>
<g opacity="0.15">
	<polyline fill="none" stroke="#00A0E9" stroke-width="7" stroke-miterlimit="10" points="127.6,981.8 142.4,994.2 127.6,1006.4 
		137.5,998.2 137.5,990.1 	"/>
</g>
<g opacity="0.15">
	<polyline fill="none" stroke="#00A0E9" stroke-width="7" stroke-miterlimit="10" points="146.5,981.8 161.3,994.2 146.5,1006.4 
		156.4,998.2 156.4,990.1 	"/>
</g>
<g opacity="0.15">
	<polyline fill="none" stroke="#00A0E9" stroke-width="7" stroke-miterlimit="10" points="165.4,981.8 180.2,994.2 165.4,1006.4 
		175.3,998.2 175.3,990.1 	"/>
</g>
<g opacity="0.15">
	<polyline fill="none" stroke="#00A0E9" stroke-width="7" stroke-miterlimit="10" points="184.3,981.8 199.1,994.2 184.3,1006.4 
		194.2,998.2 194.2,990.1 	"/>
</g>
<g opacity="0.15">
	<polyline fill="none" stroke="#00A0E9" stroke-width="7" stroke-miterlimit="10" points="203.2,981.8 218,994.2 203.2,1006.4 
		213.1,998.2 213.1,990.1 	"/>
</g>
<g opacity="0.4">
	<g>
		<polyline fill="#FFFFFF" points="222.1,981.8 236.9,994.2 222.1,1006.4 232,998.2 232,990.1 		"/>
	</g>
	<g>
		<polyline fill="none" stroke="#00A0E9" stroke-width="7" stroke-miterlimit="10" points="222.1,981.8 236.9,994.2 222.1,1006.4 
			232,998.2 232,990.1 		"/>
	</g>
	<g>
		<polyline fill="none" stroke="#11BAD1" stroke-width="7.375" stroke-miterlimit="10" points="222.1,981.8 236.9,994.2 
			222.1,1006.4 232,998.2 232,990.1 		"/>
	</g>
</g>
<g>
	<g>
		<polyline fill="#FFFFFF" points="241,981.8 255.8,994.2 241,1006.4 250.9,998.2 250.9,990.1 		"/>
	</g>
	<g>
		<polyline fill="none" stroke="#00A0E9" stroke-width="7" stroke-miterlimit="10" points="241,981.8 255.8,994.2 241,1006.4 
			250.9,998.2 250.9,990.1 		"/>
	</g>
	<g>
		<polyline fill="none" stroke="#11BAD1" stroke-width="7.375" stroke-miterlimit="10" points="241,981.8 255.8,994.2 241,1006.4 
			250.9,998.2 250.9,990.1 		"/>
	</g>
</g>
<g opacity="0.5">
	<polyline fill="none" stroke="#00A0E9" stroke-width="7" stroke-miterlimit="10" points="259.9,981.8 274.7,994.2 259.9,1006.4 
		269.8,998.2 269.8,990.1 	"/>
</g>
<g opacity="0.15">
	<polyline fill="none" stroke="#00A0E9" stroke-width="7" stroke-miterlimit="10" points="149,947.7 163.8,960 149,972.2 158.9,964 
		158.9,955.9 	"/>
</g>
<g opacity="0.15">
	<polyline fill="none" stroke="#00A0E9" stroke-width="7" stroke-miterlimit="10" points="167.9,947.7 182.7,960 167.9,972.2 
		177.8,964 177.8,955.9 	"/>
</g>
<g opacity="0.15">
	<polyline fill="none" stroke="#00A0E9" stroke-width="7" stroke-miterlimit="10" points="186.8,947.7 201.6,960 186.8,972.2 
		196.7,964 196.7,955.9 	"/>
</g>
<g opacity="0.15">
	<polyline fill="none" stroke="#00A0E9" stroke-width="7" stroke-miterlimit="10" points="205.7,947.7 220.5,960 205.7,972.2 
		215.6,964 215.6,955.9 	"/>
</g>
<g opacity="0.15">
	<polyline fill="none" stroke="#00A0E9" stroke-width="7" stroke-miterlimit="10" points="224.6,947.7 239.4,960 224.6,972.2 
		234.5,964 234.5,955.9 	"/>
</g>
<g opacity="0.15">
	<polyline fill="none" stroke="#00A0E9" stroke-width="7" stroke-miterlimit="10" points="243.5,947.7 258.3,960 243.5,972.2 
		253.4,964 253.4,955.9 	"/>
</g>
<g opacity="0.15">
	<polyline fill="none" stroke="#00A0E9" stroke-width="7" stroke-miterlimit="10" points="262.4,947.7 277.2,960 262.4,972.2 
		272.3,964 272.3,955.9 	"/>
</g>
<g opacity="0.15">
	<polyline fill="none" stroke="#00A0E9" stroke-width="7" stroke-miterlimit="10" points="281.3,947.7 296.1,960 281.3,972.2 
		291.2,964 291.2,955.9 	"/>
</g>
<g opacity="0.4">
	<polyline fill="#FFFFFF" stroke="#11BAD1" stroke-width="7.375" stroke-miterlimit="10" points="300.2,947.7 315,960 300.2,972.2 
		310.1,964 310.1,955.9 	"/>
</g>
<g>
	<polyline fill="#FFFFFF" stroke="#11BAD1" stroke-width="7.375" stroke-miterlimit="10" points="319.1,947.7 333.9,960 
		319.1,972.2 329,964 329,955.9 	"/>
</g>
<g opacity="0.5">
	<polyline fill="none" stroke="#00A0E9" stroke-width="7.375" stroke-miterlimit="10" points="338,947.7 352.8,960 338,972.2 
		347.9,964 347.9,955.9 	"/>
</g>
<g opacity="0.75">
	<polyline fill="none" stroke="#00A0E9" stroke-width="7.375" stroke-miterlimit="10" points="356.9,947.7 371.7,960 356.9,972.2 
		366.8,964 366.8,955.9 	"/>
</g>
<g>
	<g>
		<polyline fill="none" stroke="#00A0E9" stroke-width="7" stroke-miterlimit="10" points="375.8,947.7 390.6,960 375.8,972.2 
			385.7,964 385.7,955.9 		"/>
	</g>
	<g>
		<polyline fill="none" stroke="#00A0E9" stroke-width="7.375" stroke-miterlimit="10" points="375.8,947.7 390.6,960 375.8,972.2 
			385.7,964 385.7,955.9 		"/>
	</g>
</g>
<g>
	<polyline fill="none" stroke="#0A5DC1" stroke-width="7.375" stroke-miterlimit="10" points="394.7,947.7 409.5,960 394.7,972.2 
		404.6,964 404.6,955.9 	"/>
</g>
<g>
	<g>
		<polyline fill="none" stroke="#00A0E9" stroke-width="7" stroke-miterlimit="10" points="432.5,947.7 447.3,960 432.5,972.2 
			442.4,964 442.4,955.9 		"/>
	</g>
	<g>
		<polyline fill="none" stroke="#0A5DC1" stroke-width="7.375" stroke-miterlimit="10" points="432.5,947.7 447.3,960 432.5,972.2 
			442.4,964 442.4,955.9 		"/>
	</g>
</g>
<g opacity="0.15">
	<polyline fill="none" stroke="#00A0E9" stroke-width="8.944" stroke-miterlimit="10" points="1569.9,129.7 1588.8,145.4 
		1569.9,161.1 1582.6,150.6 1582.5,140.2 	"/>
</g>
<g opacity="0.4">
	<polyline fill="#FFFFFF" stroke="#11BAD1" stroke-width="9.4231" stroke-miterlimit="10" points="1594,129.7 1613,145.4 
		1594,161.1 1606.8,150.6 1606.7,140.2 	"/>
</g>
<g>
	<polyline fill="#FFFFFF" stroke="#11BAD1" stroke-width="9.4231" stroke-miterlimit="10" points="1618.2,129.7 1637.1,145.4 
		1618.2,161.1 1630.9,150.6 1630.8,140.2 	"/>
</g>
<g opacity="0.5">
	<polyline fill="none" stroke="#00A0E9" stroke-width="9.4231" stroke-miterlimit="10" points="1642.3,129.7 1661.3,145.4 
		1642.3,161.1 1655.1,150.6 1655,140.2 	"/>
</g>
<g opacity="0.75">
	<polyline fill="none" stroke="#00A0E9" stroke-width="9.4231" stroke-miterlimit="10" points="1666.5,129.7 1685.4,145.4 
		1666.5,161.1 1679.2,150.6 1679.1,140.2 	"/>
</g>
<g>
	<g>
		<polyline fill="none" stroke="#00A0E9" stroke-width="8.944" stroke-miterlimit="10" points="1690.6,129.7 1709.6,145.4 
			1690.6,161.1 1703.4,150.6 1703.3,140.2 		"/>
	</g>
	<g>
		<polyline fill="none" stroke="#00A0E9" stroke-width="9.4231" stroke-miterlimit="10" points="1690.6,129.7 1709.6,145.4 
			1690.6,161.1 1703.4,150.6 1703.3,140.2 		"/>
	</g>
</g>
<g>
	<polyline fill="none" stroke="#0A5DC1" stroke-width="9.4231" stroke-miterlimit="10" points="1714.8,129.7 1733.7,145.4 
		1714.8,161.1 1727.5,150.6 1727.4,140.2 	"/>
</g>
<g>
	<g>
		<polyline fill="none" stroke="#00A0E9" stroke-width="8.944" stroke-miterlimit="10" points="1763.1,129.7 1782,145.4 
			1763.1,161.1 1775.8,150.6 1775.7,140.2 		"/>
	</g>
	<g>
		<polyline fill="none" stroke="#0A5DC1" stroke-width="9.4231" stroke-miterlimit="10" points="1763.1,129.7 1782,145.4 
			1763.1,161.1 1775.8,150.6 1775.7,140.2 		"/>
	</g>
</g>
</svg>
