<?xml version="1.0" encoding="utf-8"?>
<!-- Generator: Adobe Illustrator 19.1.0, SVG Export Plug-In . SVG Version: 6.00 Build 0)  -->
<svg version="1.0" id="レイヤー_1" xmlns="http://www.w3.org/2000/svg" xmlns:xlink="http://www.w3.org/1999/xlink" x="0px"
	 y="0px" viewBox="0 0 1800 1200" enable-background="new 0 0 1800 1200" xml:space="preserve">
<polyline fill="none" stroke="#0A5DC1" stroke-miterlimit="10" points="1446,680 1466.5,680 1466.5,700 1446.5,700 1446.5,680 "/>
<polyline fill="none" stroke="#0A5DC1" stroke-miterlimit="10" points="1466,680 1486.5,680 1486.5,700 1466.5,700 1466.5,680 "/>
<polyline fill="none" stroke="#1B2B79" stroke-miterlimit="10" points="1486,680 1506.5,680 1506.5,700 1486.5,700 1486.5,680 "/>
<polyline fill="none" stroke="#1B2B79" stroke-miterlimit="10" points="1506,680 1526.5,680 1526.5,700 1506.5,700 1506.5,680 "/>
<polyline fill="none" stroke="#1B2B79" stroke-miterlimit="10" points="1526,680 1546.5,680 1546.5,700 1526.5,700 1526.5,680 "/>
<polyline fill="none" stroke="#1B2B79" stroke-miterlimit="10" points="1546,680 1566.5,680 1566.5,700 1546.5,700 1546.5,680 "/>
<polyline fill="none" stroke="#1B2B79" stroke-miterlimit="10" points="1586,680 1606.5,680 1606.5,700 1586.5,700 1586.5,680 "/>
<polyline fill="none" stroke="#1B2B79" stroke-miterlimit="10" points="1606,680 1626.5,680 1626.5,700 1606.5,700 1606.5,680 "/>
<polyline fill="none" stroke="#1B2B79" stroke-miterlimit="10" points="1626,680 1646.5,680 1646.5,700 1626.5,700 1626.5,680 "/>
<polyline fill="none" stroke="#1B2B79" stroke-miterlimit="10" points="1686,680 1706.5,680 1706.5,700 1686.5,700 1686.5,680 "/>
<polyline fill="none" stroke="#1B2B79" stroke-miterlimit="10" points="1706,680 1726.5,680 1726.5,700 1706.5,700 1706.5,680 "/>
<polyline fill="none" stroke="#1B2B79" stroke-miterlimit="10" points="1726,680 1746.5,680 1746.5,700 1726.5,700 1726.5,680 "/>
<polyline fill="none" stroke="#1B2B79" stroke-miterlimit="10" points="1486,700 1506.5,700 1506.5,720 1486.5,720 1486.5,700 "/>
<polyline fill="none" stroke="#1B2B79" stroke-miterlimit="10" points="1506,700 1526.5,700 1526.5,720 1506.5,720 1506.5,700 "/>
<polyline fill="none" stroke="#1B2B79" stroke-miterlimit="10" points="1526,700 1546.5,700 1546.5,720 1526.5,720 1526.5,700 "/>
<polyline fill="none" stroke="#1B2B79" stroke-miterlimit="10" points="1546,700 1566.5,700 1566.5,720 1546.5,720 1546.5,700 "/>
<polyline fill="none" stroke="#1B2B79" stroke-miterlimit="10" points="1566,700 1586.5,700 1586.5,720 1566.5,720 1566.5,700 "/>
<polyline fill="none" stroke="#1B2B79" stroke-miterlimit="10" points="1586,700 1606.5,700 1606.5,720 1586.5,720 1586.5,700 "/>
<polyline fill="none" stroke="#1B2B79" stroke-miterlimit="10" points="1606,700 1626.5,700 1626.5,720 1606.5,720 1606.5,700 "/>
<polyline fill="none" stroke="#1B2B79" stroke-miterlimit="10" points="1626,700 1646.5,700 1646.5,720 1626.5,720 1626.5,700 "/>
<polyline fill="none" stroke="#1B2B79" stroke-miterlimit="10" points="1666,700 1686.5,700 1686.5,720 1666.5,720 1666.5,700 "/>
<polyline fill="none" stroke="#1B2B79" stroke-miterlimit="10" points="1686,700 1706.5,700 1706.5,720 1686.5,720 1686.5,700 "/>
<polyline fill="none" stroke="#1B2B79" stroke-miterlimit="10" points="1706,700 1726.5,700 1726.5,720 1706.5,720 1706.5,700 "/>
<polyline fill="none" stroke="#1B2B79" stroke-miterlimit="10" points="1726,700 1746.5,700 1746.5,720 1726.5,720 1726.5,700 "/>
<polyline fill="none" stroke="#1B2B79" stroke-miterlimit="10" points="1746,700 1766.5,700 1766.5,720 1746.5,720 1746.5,700 "/>
<polyline fill="none" stroke="#0A5DC1" stroke-miterlimit="10" points="1446,720 1466.5,720 1466.5,740 1446.5,740 1446.5,720 "/>
<polyline fill="none" stroke="#0A5DC1" stroke-miterlimit="10" points="1466,720 1486.5,720 1486.5,740 1466.5,740 1466.5,720 "/>
<polyline fill="none" stroke="#11BAD1" stroke-miterlimit="10" points="1446,740 1466.5,740 1466.5,760 1446.5,760 1446.5,740 "/>
<polyline fill="none" stroke="#11BAD1" stroke-miterlimit="10" points="1466,740 1486.5,740 1486.5,760 1466.5,760 1466.5,740 "/>
<polyline fill="none" stroke="#0A5DC1" stroke-miterlimit="10" points="1486,720 1506.5,720 1506.5,740 1486.5,740 1486.5,720 "/>
<polyline fill="none" stroke="#0A5DC1" stroke-miterlimit="10" points="1506,720 1526.5,720 1526.5,740 1506.5,740 1506.5,720 "/>
<polyline fill="none" stroke="#11BAD1" stroke-miterlimit="10" points="1526,720 1546.5,720 1546.5,740 1526.5,740 1526.5,720 "/>
<polyline fill="none" stroke="#11BAD1" stroke-miterlimit="10" points="1546,720 1566.5,720 1566.5,740 1546.5,740 1546.5,720 "/>
<polyline fill="none" stroke="#1B2B79" stroke-miterlimit="10" points="1566,720 1586.5,720 1586.5,740 1566.5,740 1566.5,720 "/>
<polyline fill="none" stroke="#1B2B79" stroke-miterlimit="10" points="1586,720 1606.5,720 1606.5,740 1586.5,740 1586.5,720 "/>
<polyline fill="none" stroke="#1B2B79" stroke-miterlimit="10" points="1606,720 1626.5,720 1626.5,740 1606.5,740 1606.5,720 "/>
<polyline fill="none" stroke="#1B2B79" stroke-miterlimit="10" points="1626,720 1646.5,720 1646.5,740 1626.5,740 1626.5,720 "/>
<polyline fill="none" stroke="#1B2B79" stroke-miterlimit="10" points="1646,720 1666.5,720 1666.5,740 1646.5,740 1646.5,720 "/>
<polyline fill="none" stroke="#1B2B79" stroke-miterlimit="10" points="1666,720 1686.5,720 1686.5,740 1666.5,740 1666.5,720 "/>
<polyline fill="none" stroke="#0A5DC1" stroke-miterlimit="10" points="1686,720 1706.5,720 1706.5,740 1686.5,740 1686.5,720 "/>
<polyline fill="none" stroke="#0A5DC1" stroke-miterlimit="10" points="1706,720 1726.5,720 1726.5,740 1706.5,740 1706.5,720 "/>
<polyline fill="none" stroke="#0A5DC1" stroke-miterlimit="10" points="1726,720 1746.5,720 1746.5,740 1726.5,740 1726.5,720 "/>
<polyline fill="none" stroke="#1B2B79" stroke-miterlimit="10" points="1746,720 1766.5,720 1766.5,740 1746.5,740 1746.5,720 "/>
<polyline fill="none" stroke="#11BAD1" stroke-miterlimit="10" points="1766,720 1786.5,720 1786.5,740 1766.5,740 1766.5,720 "/>
<polyline fill="none" stroke="#11BAD1" stroke-miterlimit="10" points="1786,720 1806.5,720 1806.5,740 1786.5,740 1786.5,720 "/>
<polyline fill="none" stroke="#1B2B79" stroke-miterlimit="10" points="1486,740 1506.5,740 1506.5,760 1486.5,760 1486.5,740 "/>
<polyline fill="none" stroke="#0A5DC1" stroke-miterlimit="10" points="1506,740 1526.5,740 1526.5,760 1506.5,760 1506.5,740 "/>
<polyline fill="none" stroke="#0A5DC1" stroke-miterlimit="10" points="1686,740 1706.5,740 1706.5,760 1686.5,760 1686.5,740 "/>
<polyline fill="none" stroke="#0A5DC1" stroke-miterlimit="10" points="1706,740 1726.5,740 1726.5,760 1706.5,760 1706.5,740 "/>
<polyline fill="none" stroke="#0A5DC1" stroke-miterlimit="10" points="1726,740 1746.5,740 1746.5,760 1726.5,760 1726.5,740 "/>
<polyline fill="none" stroke="#1B2B79" stroke-miterlimit="10" points="1746,740 1766.5,740 1766.5,760 1746.5,760 1746.5,740 "/>
<polyline fill="none" stroke="#11BAD1" stroke-miterlimit="10" points="1766,740 1786.5,740 1786.5,760 1766.5,760 1766.5,740 "/>
<polyline fill="none" stroke="#11BAD1" stroke-miterlimit="10" points="1786,740 1806.5,740 1806.5,760 1786.5,760 1786.5,740 "/>
<polyline fill="none" stroke="#0A5DC1" stroke-miterlimit="10" points="1506,760 1526.5,760 1526.5,780 1506.5,780 1506.5,760 "/>
<polyline fill="none" stroke="#11BAD1" stroke-miterlimit="10" points="1526,780 1546.5,780 1546.5,800 1526.5,800 1526.5,780 "/>
<polyline fill="none" stroke="#1B2B79" stroke-miterlimit="10" points="1686,760 1706.5,760 1706.5,780 1686.5,780 1686.5,760 "/>
<polyline fill="none" stroke="#0A5DC1" stroke-miterlimit="10" points="117.5,473.9 136.5,483.9 136.5,499.9 117.5,489.9 
	117.5,473.9 "/>
<polyline fill="none" stroke="#0A5DC1" stroke-miterlimit="10" points="117.5,489.9 136.5,499.9 136.5,515.8 117.5,505.9 
	117.5,489.9 "/>
<polyline fill="none" stroke="#0A5DC1" stroke-miterlimit="10" points="117.5,505.9 136.5,515.8 136.5,531.8 117.5,521.8 
	117.5,505.9 "/>
<polyline fill="none" stroke="#0A5DC1" stroke-miterlimit="10" points="117.5,521.8 136.5,531.8 136.5,547.8 117.5,537.8 
	117.5,521.8 "/>
<polyline fill="none" stroke="#0A5DC1" stroke-miterlimit="10" points="117.5,537.8 136.5,547.8 136.5,563.8 117.5,553.8 
	117.5,537.8 "/>
<polyline fill="none" stroke="#0A5DC1" stroke-miterlimit="10" points="117.5,553.8 136.5,563.8 136.5,579.8 117.5,569.8 
	117.5,553.8 "/>
<polyline fill="none" stroke="#0A5DC1" stroke-miterlimit="10" points="117.5,569.8 136.5,579.8 136.5,595.8 117.5,585.8 
	117.5,569.8 "/>
<polyline fill="none" stroke="#0A5DC1" stroke-miterlimit="10" points="117.5,585.8 136.5,595.8 136.5,611.8 117.5,601.8 
	117.5,585.8 "/>
<polyline fill="none" stroke="#0A5DC1" stroke-miterlimit="10" points="117.5,601.8 136.5,611.8 136.5,627.8 117.5,617.8 
	117.5,601.8 "/>
<polyline fill="none" stroke="#0A5DC1" stroke-miterlimit="10" points="117.5,617.8 136.5,627.8 136.5,643.8 117.5,633.8 
	117.5,617.8 "/>
<polyline fill="none" stroke="#0A5DC1" stroke-miterlimit="10" points="117.5,633.8 136.5,643.8 136.5,659.8 117.5,649.8 
	117.5,633.8 "/>
<polyline fill="none" stroke="#0A5DC1" stroke-miterlimit="10" points="117.5,649.8 136.5,659.8 136.5,675.8 117.5,665.8 
	117.5,649.8 "/>
<polyline fill="none" stroke="#0A5DC1" stroke-miterlimit="10" points="117.5,665.8 136.5,675.8 136.5,691.8 117.5,681.8 
	117.5,665.8 "/>
<polyline fill="none" stroke="#0A5DC1" stroke-miterlimit="10" points="117.5,681.8 136.5,691.8 136.5,707.8 117.5,697.8 
	117.5,681.8 "/>
<polyline fill="none" stroke="#0A5DC1" stroke-miterlimit="10" points="117.5,697.8 136.5,707.8 136.5,723.8 117.5,713.8 
	117.5,697.8 "/>
<polyline fill="none" stroke="#0A5DC1" stroke-miterlimit="10" points="117.5,713.8 136.5,723.8 136.5,739.8 117.5,729.8 
	117.5,713.8 "/>
<polyline fill="none" stroke="#0A5DC1" stroke-miterlimit="10" points="117.5,729.8 136.5,739.8 136.5,755.8 117.5,745.8 
	117.5,729.8 "/>
<polyline fill="none" stroke="#0A5DC1" stroke-miterlimit="10" points="117.5,745.8 136.5,755.8 136.5,771.8 117.5,761.8 
	117.5,745.8 "/>
<polyline fill="none" stroke="#0A5DC1" stroke-miterlimit="10" points="117.5,761.8 136.5,771.8 136.5,787.8 117.5,777.8 
	117.5,761.8 "/>
<polyline fill="none" stroke="#0A5DC1" stroke-miterlimit="10" points="117.5,777.8 136.5,787.8 136.5,803.8 117.5,793.8 
	117.5,777.8 "/>
<polyline fill="none" stroke="#0A5DC1" stroke-miterlimit="10" points="117.5,793.8 136.5,803.8 136.5,819.8 117.5,809.8 
	117.5,793.8 "/>
<polyline fill="none" stroke="#0A5DC1" stroke-miterlimit="10" points="117.5,809.8 136.5,819.8 136.5,835.8 117.5,825.8 
	117.5,809.8 "/>
<polyline fill="none" stroke="#0A5DC1" stroke-miterlimit="10" points="136.5,483.9 152.5,483.9 152.5,499.9 136.5,499.9 
	136.5,483.9 "/>
<polyline fill="none" stroke="#0A5DC1" stroke-miterlimit="10" points="136.5,499.9 152.5,499.9 152.5,515.8 136.5,515.8 
	136.5,499.9 "/>
<polyline fill="none" stroke="#0A5DC1" stroke-miterlimit="10" points="136.5,515.8 152.5,515.8 152.5,531.8 136.5,531.8 
	136.5,515.8 "/>
<polyline fill="none" stroke="#0A5DC1" stroke-miterlimit="10" points="136.5,531.8 152.5,531.8 152.5,547.8 136.5,547.8 
	136.5,531.8 "/>
<polyline fill="none" stroke="#0A5DC1" stroke-miterlimit="10" points="136.5,547.8 152.5,547.8 152.5,563.8 136.5,563.8 
	136.5,547.8 "/>
<polyline fill="none" stroke="#0A5DC1" stroke-miterlimit="10" points="136.5,563.8 152.5,563.8 152.5,579.8 136.5,579.8 
	136.5,563.8 "/>
<polyline fill="none" stroke="#0A5DC1" stroke-miterlimit="10" points="136.5,579.8 152.5,579.8 152.5,595.8 136.5,595.8 
	136.5,579.8 "/>
<polyline fill="none" stroke="#0A5DC1" stroke-miterlimit="10" points="136.5,595.8 152.5,595.8 152.5,611.8 136.5,611.8 
	136.5,595.8 "/>
<polyline fill="none" stroke="#0A5DC1" stroke-miterlimit="10" points="136.5,611.8 152.5,611.8 152.5,627.8 136.5,627.8 
	136.5,611.8 "/>
<polyline fill="none" stroke="#0A5DC1" stroke-miterlimit="10" points="136.5,627.8 152.5,627.8 152.5,643.8 136.5,643.8 
	136.5,627.8 "/>
<polyline fill="none" stroke="#0A5DC1" stroke-miterlimit="10" points="136.5,643.8 152.5,643.8 152.5,659.8 136.5,659.8 
	136.5,643.8 "/>
<polyline fill="none" stroke="#0A5DC1" stroke-miterlimit="10" points="136.5,659.8 152.5,659.8 152.5,675.8 136.5,675.8 
	136.5,659.8 "/>
<polyline fill="none" stroke="#11BAD1" stroke-miterlimit="10" points="152.5,531.8 168.5,531.8 168.5,547.8 152.5,547.8 
	152.5,531.8 "/>
<polyline fill="none" stroke="#11BAD1" stroke-miterlimit="10" points="152.5,547.8 168.5,547.8 168.5,563.8 152.5,563.8 
	152.5,547.8 "/>
<polyline fill="none" stroke="#11BAD1" stroke-miterlimit="10" points="152.5,563.8 168.5,563.8 168.5,579.8 152.5,579.8 
	152.5,563.8 "/>
<polyline fill="none" stroke="#11BAD1" stroke-miterlimit="10" points="152.5,579.8 168.5,579.8 168.5,595.8 152.5,595.8 
	152.5,579.8 "/>
<polyline fill="none" stroke="#11BAD1" stroke-miterlimit="10" points="152.5,595.8 168.5,595.8 168.5,611.8 152.5,611.8 
	152.5,595.8 "/>
<polyline fill="none" stroke="#11BAD1" stroke-miterlimit="10" points="152.5,611.8 168.5,611.8 168.5,627.8 152.5,627.8 
	152.5,611.8 "/>
<polyline fill="none" stroke="#11BAD1" stroke-miterlimit="10" points="152.5,627.8 168.5,627.8 168.5,643.8 152.5,643.8 
	152.5,627.8 "/>
<polyline fill="none" stroke="#11BAD1" stroke-miterlimit="10" points="152.5,643.8 168.5,643.8 168.5,659.8 152.5,659.8 
	152.5,643.8 "/>
<polyline fill="none" stroke="#11BAD1" stroke-miterlimit="10" points="152.5,659.8 168.5,659.8 168.5,675.8 152.5,675.8 
	152.5,659.8 "/>
<polyline fill="none" stroke="#0A5DC1" stroke-miterlimit="10" points="136.5,675.8 152.5,675.8 152.5,691.8 136.5,691.8 
	136.5,675.8 "/>
<polyline fill="none" stroke="#0A5DC1" stroke-miterlimit="10" points="136.5,691.8 152.5,691.8 152.5,707.8 136.5,707.8 
	136.5,691.8 "/>
<polyline fill="none" stroke="#0A5DC1" stroke-miterlimit="10" points="136.5,707.8 152.5,707.8 152.5,723.8 136.5,723.8 
	136.5,707.8 "/>
<polyline fill="none" stroke="#0A5DC1" stroke-miterlimit="10" points="136.5,723.8 152.5,723.8 152.5,739.8 136.5,739.8 
	136.5,723.8 "/>
<polyline fill="none" stroke="#0A5DC1" stroke-miterlimit="10" points="136.5,739.8 152.5,739.8 152.5,755.8 136.5,755.8 
	136.5,739.8 "/>
<polyline fill="none" stroke="#0A5DC1" stroke-miterlimit="10" points="136.5,755.8 152.5,755.8 152.5,771.8 136.5,771.8 
	136.5,755.8 "/>
<polyline fill="none" stroke="#0A5DC1" stroke-miterlimit="10" points="136.5,771.8 152.5,771.8 152.5,787.8 136.5,787.8 
	136.5,771.8 "/>
<polyline fill="none" stroke="#11BAD1" stroke-miterlimit="10" points="152.5,707.8 168.5,707.8 168.5,723.8 152.5,723.8 
	152.5,707.8 "/>
<polyline fill="none" stroke="#11BAD1" stroke-miterlimit="10" points="152.5,723.8 168.5,723.8 168.5,739.8 152.5,739.8 
	152.5,723.8 "/>
<polyline fill="none" stroke="#11BAD1" stroke-miterlimit="10" points="152.5,739.8 168.5,739.8 168.5,755.8 152.5,755.8 
	152.5,739.8 "/>
<polyline fill="none" stroke="#11BAD1" stroke-miterlimit="10" points="152.5,755.8 168.5,755.8 168.5,771.8 152.5,771.8 
	152.5,755.8 "/>
<polyline fill="none" stroke="#11BAD1" stroke-miterlimit="10" points="152.5,771.8 168.5,771.8 168.5,787.8 152.5,787.8 
	152.5,771.8 "/>
<polyline fill="none" stroke="#0A5DC1" stroke-miterlimit="10" points="136.5,787.8 152.5,787.8 152.5,803.8 136.5,803.8 
	136.5,787.8 "/>
<polyline fill="none" stroke="#0A5DC1" stroke-miterlimit="10" points="136.5,803.8 152.5,803.8 152.5,819.8 136.5,819.8 
	136.5,803.8 "/>
<polyline fill="none" stroke="#0A5DC1" stroke-miterlimit="10" points="136.5,819.8 152.5,819.8 152.5,835.8 136.5,835.8 
	136.5,819.8 "/>
<polyline fill="none" stroke="#11BAD1" stroke-miterlimit="10" points="152.5,819.8 168.5,819.8 168.5,835.8 152.5,835.8 
	152.5,819.8 "/>
</svg>
