<?xml version="1.0" encoding="utf-8"?>
<!-- Generator: Adobe Illustrator 19.1.0, SVG Export Plug-In . SVG Version: 6.00 Build 0)  -->
<svg version="1.0" id="レイヤー_1" xmlns="http://www.w3.org/2000/svg" xmlns:xlink="http://www.w3.org/1999/xlink" x="0px"
	 y="0px" viewBox="0 0 1800 1200" enable-background="new 0 0 1800 1200" xml:space="preserve">
<path fill="none" stroke="#0A5DC1" stroke-miterlimit="10" d="M389.6,759.6l-3.6,3.2l3.3-3.2"/>
<path fill="none" stroke="#0A5DC1" stroke-miterlimit="10" d="M396,760l-8,7L396,760"/>
<path fill="none" stroke="#0A5DC1" stroke-miterlimit="10" d="M402.3,760.6l-12.2,10.7L402.3,760.6"/>
<path fill="none" stroke="#0A5DC1" stroke-miterlimit="10" d="M408.2,761.4l-16.1,14.1L408.2,761.4"/>
<path fill="none" stroke="#0A5DC1" stroke-miterlimit="10" d="M414,762.4l-19.8,17.3L414,762.4"/>
<path fill="none" stroke="#0A5DC1" stroke-miterlimit="10" d="M419.6,763.5L396.3,784L419.6,763.5"/>
<path fill="none" stroke="#0A5DC1" stroke-miterlimit="10" d="M425,764.8l-26.7,23.4L425,764.8"/>
<path fill="none" stroke="#0A5DC1" stroke-miterlimit="10" d="M430.2,766.3l-29.8,26.1L430.2,766.3"/>
<path fill="none" stroke="#0A5DC1" stroke-miterlimit="10" d="M435.3,767.9l-32.8,28.8L435.3,767.9"/>
<path fill="none" stroke="#0A5DC1" stroke-miterlimit="10" d="M440.2,769.6l-35.7,31.3L440.2,769.6"/>
<path fill="none" stroke="#0A5DC1" stroke-miterlimit="10" d="M445,771.4l-38.4,33.7L445,771.4"/>
<path fill="none" stroke="#0A5DC1" stroke-miterlimit="10" d="M449.7,773.4l-41.1,36L449.7,773.4"/>
<path fill="none" stroke="#0A5DC1" stroke-miterlimit="10" d="M454.2,775.4l-43.5,38.2L454.2,775.4"/>
<path fill="none" stroke="#0A5DC1" stroke-miterlimit="10" d="M458.6,777.6l-45.8,40.2L458.6,777.6"/>
<path fill="none" stroke="#0A5DC1" stroke-miterlimit="10" d="M462.9,779.9l-48.1,42.2L462.9,779.9"/>
<path fill="none" stroke="#0A5DC1" stroke-miterlimit="10" d="M467.1,782.3l-50.2,44L467.1,782.3"/>
<path fill="none" stroke="#0A5DC1" stroke-miterlimit="10" d="M471.1,784.7l-52.2,45.8L471.1,784.7"/>
<path fill="none" stroke="#0A5DC1" stroke-miterlimit="10" d="M475.1,787.3L421,834.8L475.1,787.3"/>
<path fill="none" stroke="#0A5DC1" stroke-miterlimit="10" d="M479,790l-55.9,49L479,790"/>
<path fill="none" stroke="#0A5DC1" stroke-miterlimit="10" d="M482.7,792.7l-57.6,50.5L482.7,792.7"/>
<path fill="none" stroke="#0A5DC1" stroke-miterlimit="10" d="M486.4,795.5l-59.2,52L486.4,795.5"/>
<path fill="none" stroke="#0A5DC1" stroke-miterlimit="10" d="M489.6,798.1l-60.4,53L489.6,798.1"/>
<path fill="none" stroke="#0A5DC1" stroke-miterlimit="10" d="M493,801.1l-61.7,54.2L493,801.1"/>
<path fill="none" stroke="#0A5DC1" stroke-miterlimit="10" d="M496.4,804.2l-63.1,55.3L496.4,804.2"/>
<path fill="none" stroke="#0A5DC1" stroke-miterlimit="10" d="M499.7,807.4l-64.3,56.4L499.7,807.4"/>
<path fill="none" stroke="#0A5DC1" stroke-miterlimit="10" d="M502.8,810.6L437.4,868L502.8,810.6"/>
<path fill="none" stroke="#0A5DC1" stroke-miterlimit="10" d="M505.9,813.9l-66.4,58.3L505.9,813.9"/>
<path fill="none" stroke="#0A5DC1" stroke-miterlimit="10" d="M509,817.4l-67.4,59.1L509,817.4"/>
<path fill="none" stroke="#0A5DC1" stroke-miterlimit="10" d="M511.8,820.8l-68.2,59.9L511.8,820.8"/>
<path fill="none" stroke="#0A5DC1" stroke-miterlimit="10" d="M514.7,824.5l-69,60.5L514.7,824.5"/>
<path fill="none" stroke="#0A5DC1" stroke-miterlimit="10" d="M517.4,828.1l-69.7,61.1L517.4,828.1"/>
<path fill="none" stroke="#0A5DC1" stroke-miterlimit="10" d="M520,831.8l-70.2,61.6L520,831.8"/>
<path fill="none" stroke="#0A5DC1" stroke-miterlimit="10" d="M522.6,835.7l-70.7,62L522.6,835.7"/>
<path fill="none" stroke="#0A5DC1" stroke-miterlimit="10" d="M525,839.6l-71.1,62.3L525,839.6"/>
<path fill="none" stroke="#0A5DC1" stroke-miterlimit="10" d="M527.3,843.6L456,906.1L527.3,843.6"/>
<path fill="none" stroke="#0A5DC1" stroke-miterlimit="10" d="M529.5,847.6L458,910.4L529.5,847.6"/>
<path fill="none" stroke="#0A5DC1" stroke-miterlimit="10" d="M531.6,851.8l-71.5,62.8L531.6,851.8"/>
<path fill="none" stroke="#0A5DC1" stroke-miterlimit="10" d="M533.7,856.1l-71.5,62.7L533.7,856.1"/>
<path fill="none" stroke="#0A5DC1" stroke-miterlimit="10" d="M535.6,860.5l-71.4,62.6L535.6,860.5"/>
<path fill="none" stroke="#0A5DC1" stroke-miterlimit="10" d="M537.4,864.9l-71.1,62.4L537.4,864.9"/>
<path fill="none" stroke="#0A5DC1" stroke-miterlimit="10" d="M539.1,869.4l-70.8,62.1L539.1,869.4"/>
<path fill="none" stroke="#0A5DC1" stroke-miterlimit="10" d="M540.7,874.2l-70.3,61.6L540.7,874.2"/>
<path fill="none" stroke="#0A5DC1" stroke-miterlimit="10" d="M542.1,878.9L472.5,940L542.1,878.9"/>
<path fill="none" stroke="#0A5DC1" stroke-miterlimit="10" d="M543.4,883.7l-68.9,60.5L543.4,883.7"/>
<path fill="none" stroke="#0A5DC1" stroke-miterlimit="10" d="M544.6,888.8l-68,59.7L544.6,888.8"/>
<path fill="none" stroke="#0A5DC1" stroke-miterlimit="10" d="M545.7,893.9l-67.1,58.8L545.7,893.9"/>
<path fill="none" stroke="#0A5DC1" stroke-miterlimit="10" d="M546.6,899.1l-65.9,57.8L546.6,899.1"/>
<path fill="none" stroke="#0A5DC1" stroke-miterlimit="10" d="M547.3,904.6l-64.5,56.6L547.3,904.6"/>
<path fill="none" stroke="#0A5DC1" stroke-miterlimit="10" d="M547.9,910l-63.1,55.4L547.9,910"/>
<path fill="none" stroke="#0A5DC1" stroke-miterlimit="10" d="M548.3,915.7l-61.4,53.9L548.3,915.7"/>
<path fill="none" stroke="#0A5DC1" stroke-miterlimit="10" d="M548.6,921.6l-59.7,52.3L548.6,921.6"/>
<path fill="none" stroke="#0A5DC1" stroke-miterlimit="10" d="M548.6,927.6L491,978.1L548.6,927.6"/>
<path fill="none" stroke="#0A5DC1" stroke-miterlimit="10" d="M548.4,933.8l-55.3,48.5L548.4,933.8"/>
<path fill="none" stroke="#0A5DC1" stroke-miterlimit="10" d="M547.9,940.3l-52.8,46.3L547.9,940.3"/>
<path fill="none" stroke="#0A5DC1" stroke-miterlimit="10" d="M547.2,947l-50,43.8L547.2,947"/>
<path fill="none" stroke="#0A5DC1" stroke-miterlimit="10" d="M546.1,953.8L499.2,995L546.1,953.8"/>
<path fill="none" stroke="#0A5DC1" stroke-miterlimit="10" d="M544.7,961.3l-43.4,38L544.7,961.3"/>
<path fill="none" stroke="#0A5DC1" stroke-miterlimit="10" d="M542.6,969.6l-39.2,34L542.6,969.6"/>
<path fill="none" stroke="#0A5DC1" stroke-miterlimit="10" d="M540.3,977.1l-34.9,30.6L540.3,977.1"/>
<path fill="none" stroke="#0A5DC1" stroke-miterlimit="10" d="M537.1,986l-29.6,26L537.1,986"/>
<path fill="none" stroke="#0A5DC1" stroke-miterlimit="10" d="M533,995.6l-23.5,20.6L533,995.6"/>
<path fill="none" stroke="#0A5DC1" stroke-miterlimit="10" d="M527.3,1006.6l-15.7,13.8L527.3,1006.6"/>
<path fill="none" stroke="#0A5DC1" stroke-miterlimit="10" d="M518.4,1020.4l-4.7,4.3l4.9-4.3"/>
</svg>
