<?xml version="1.0" encoding="utf-8"?>
<!-- Generator: Adobe Illustrator 19.1.0, SVG Export Plug-In . SVG Version: 6.00 Build 0)  -->
<svg version="1.0" id="t" xmlns="http://www.w3.org/2000/svg" xmlns:xlink="http://www.w3.org/1999/xlink" x="0px" y="0px"
	 viewBox="700 -368 1800 1200" enable-background="new 700 -368 1800 1200" xml:space="preserve">
<line fill="none" stroke="#1B2B79" stroke-width="9" stroke-miterlimit="10" x1="1218.5" y1="-87" x2="1218.5" y2="34"/>
<line fill="none" stroke="#1B2B79" stroke-width="9" stroke-miterlimit="10" x1="1293.5" y1="-41" x2="1293.5" y2="34"/>
<line fill="none" stroke="#1B2B79" stroke-width="9" stroke-miterlimit="10" x1="1552.5" y1="-87" x2="1552.5" y2="34"/>
<line fill="none" stroke="#1B2B79" stroke-width="8" stroke-miterlimit="10" x1="1738" y1="-87" x2="1738" y2="34"/>
<line fill="none" stroke="#1B2B79" stroke-width="9" stroke-miterlimit="10" x1="1985.5" y1="-87" x2="1985.5" y2="33"/>
<line opacity="0" fill="none" stroke="#1B2B79" stroke-width="9" stroke-miterlimit="10" x1="2073.5" y1="-87" x2="2073.5" y2="33"/>
<line opacity="0" fill="none" stroke="#1B2B79" stroke-width="9" stroke-miterlimit="10" x1="2104.5" y1="-87" x2="2104.5" y2="33"/>
<line opacity="0" fill="none" stroke="#1B2B79" stroke-width="9" stroke-miterlimit="10" x1="2135.5" y1="-87" x2="2135.5" y2="33"/>
<path fill="none" stroke="#1B2B79" stroke-width="9" stroke-miterlimit="10" d="M1219-82.5h27.4c8.3,1,15.4,4.7,21.2,10.5
	c7,7,10.5,15.3,10.5,25.3c0,10-3.4,17.5-10.5,24.6s-15.3,10.7-25.3,10.7H1220"/>
<path fill="none" stroke="#1B2B79" stroke-width="9" stroke-miterlimit="10" d="M1320.5-39c-4.2-0.2-11.1,3.5-15.1,7.5
	c-6.9,6.9-11.6,14.8-11.9,24.5"/>
<path fill="none" stroke="#1B2B79" stroke-width="9" stroke-miterlimit="10" d="M1360-42.8c-10.2,0-19.1,3.7-26.3,10.9
	c-7.2,7.2-10.9,16.1-10.9,26.3c0,10.2,3.7,19,10.9,26.2c7.2,7.2,16.1,10.8,26.3,10.8c10.2,0,19.1-3.6,26.3-10.8
	c7.2-7.2,10.9-16,10.9-26.2c0-10.2-3.7-19.1-10.9-26.3C1379-39.2,1370.2-42.8,1360-42.8z"/>
<path fill="none" stroke="#1B2B79" stroke-width="9" stroke-miterlimit="10" d="M1412.5-41V4.8c0,7.2,2.2,13.3,7.1,18.2
	c4.8,4.8,10.9,7.2,18.5,7.2c8.1,0,15-2.4,19.8-7.2c4.8-4.8,7.6-10.9,7.6-18.1V-41"/>
<path fill="none" stroke="#1B2B79" stroke-width="9" stroke-miterlimit="10" d="M1551.9-12.9c-1.1-7.1-4.3-13.5-9.8-19
	c-7.2-7.2-15.8-10.9-25.9-10.9c-10.2,0-19.1,3.7-26.3,10.9c-7.2,7.2-10.9,16.1-10.9,26.3c0,10.2,3.7,19.1,10.9,26.3
	c7.2,7.2,16.1,10.9,26.3,10.9c10.1,0,18.9-3.7,26.1-10.9c5.6-5.6,8.4-11.9,9.6-19"/>
<path fill="none" stroke="#1B2B79" stroke-width="9" stroke-miterlimit="10" d="M1721-68c-10.6-10.8-24.8-15.4-38.5-15.4
	c-15.8,0-29.5,5.7-40.6,16.8c-11.1,11.2-16.8,24.8-16.8,40.6c0,15.8,5.6,29.5,16.8,40.6c11.1,11.1,24.8,16.8,40.6,16.8
	c13.7,0,29.1-6.8,39.5-15.4"/>
<path fill="none" stroke="#1B2B79" stroke-width="9" stroke-miterlimit="10" d="M1793-42.8c-10.2,0-19.1,3.7-26.3,10.9
	c-7.2,7.2-10.9,16.1-10.9,26.3c0,10.2,3.7,19,10.9,26.2c7.2,7.2,16.1,10.8,26.3,10.8c10.2,0,19.1-3.6,26.3-10.8
	c7.2-7.2,10.9-16,10.9-26.2c0-10.2-3.7-19.1-10.9-26.3C1812-39.2,1803.2-42.8,1793-42.8z"/>
<path fill="none" stroke="#1B2B79" stroke-width="9" stroke-miterlimit="10" d="M1845.4-41V4.8c0,7.2,2.5,13.3,7.4,18.2
	c4.8,4.8,11,7.2,18.6,7.2c8.1,0,14.6-2.4,19.4-7.2c4.8-4.8,7.2-10.9,7.2-18.1V-41"/>
<path fill="none" stroke="#1B2B79" stroke-width="9" stroke-miterlimit="10" d="M1984.9-12.9c-1.1-7.1-4.3-13.5-9.8-19
	c-7.2-7.2-15.8-10.9-25.9-10.9c-10.2,0-19.1,3.7-26.3,10.9c-7.2,7.2-10.9,16.1-10.9,26.3c0,10.2,3.7,19.1,10.9,26.3
	c7.2,7.2,16.1,10.9,26.3,10.9c10.1,0,18.9-3.7,26.1-10.9c5.6-5.6,8.4-11.9,9.6-19"/>
</svg>
