<?xml version="1.0" encoding="utf-8"?>
<!-- Generator: Adobe Illustrator 19.1.0, SVG Export Plug-In . SVG Version: 6.00 Build 0)  -->
<svg version="1.0" id="レイヤー_1" xmlns="http://www.w3.org/2000/svg" xmlns:xlink="http://www.w3.org/1999/xlink" x="0px"
	 y="0px" viewBox="0 0 1800 1200" enable-background="new 0 0 1800 1200" xml:space="preserve">
<line fill="none" stroke="#00A0E9" stroke-linecap="round" stroke-linejoin="round" stroke-miterlimit="10" x1="1255" y1="607.5" x2="1252" y2="611.5"/>
<line fill="none" stroke="#00A0E9" stroke-linecap="round" stroke-linejoin="round" stroke-miterlimit="10" x1="1263.1" y1="602.1" x2="1258.5" y2="609"/>
<line fill="none" stroke="#00A0E9" stroke-linecap="round" stroke-linejoin="round" stroke-miterlimit="10" x1="1271.2" y1="596.7" x2="1264.9" y2="606.5"/>
<line fill="none" stroke="#00A0E9" stroke-linecap="round" stroke-linejoin="round" stroke-miterlimit="10" x1="1279.3" y1="591.3" x2="1271.4" y2="603.9"/>
<line fill="none" stroke="#00A0E9" stroke-linecap="round" stroke-linejoin="round" stroke-miterlimit="10" x1="1287.4" y1="585.9" x2="1277.8" y2="601.4"/>
<line fill="none" stroke="#00A0E9" stroke-linecap="round" stroke-linejoin="round" stroke-miterlimit="10" x1="1295.5" y1="580.5" x2="1284.3" y2="598.9"/>
<line fill="none" stroke="#00A0E9" stroke-linecap="round" stroke-linejoin="round" stroke-miterlimit="10" x1="1303.6" y1="575.1" x2="1290.7" y2="596.4"/>
<line fill="none" stroke="#00A0E9" stroke-linecap="round" stroke-linejoin="round" stroke-miterlimit="10" x1="1311.7" y1="569.7" x2="1297.2" y2="593.9"/>
<line fill="none" stroke="#00A0E9" stroke-linecap="round" stroke-linejoin="round" stroke-miterlimit="10" x1="1319.8" y1="564.3" x2="1303.7" y2="591.3"/>
<line fill="none" stroke="#00A0E9" stroke-linecap="round" stroke-linejoin="round" stroke-miterlimit="10" x1="1328" y1="558.9" x2="1310.1" y2="588.8"/>
<line fill="none" stroke="#00A0E9" stroke-linecap="round" stroke-linejoin="round" stroke-miterlimit="10" x1="1336.1" y1="553.5" x2="1316.6" y2="586.3"/>
<line fill="none" stroke="#00A0E9" stroke-linecap="round" stroke-linejoin="round" stroke-miterlimit="10" x1="1344.2" y1="548" x2="1323" y2="583.8"/>
<line fill="none" stroke="#00A0E9" stroke-linecap="round" stroke-linejoin="round" stroke-miterlimit="10" x1="1352.3" y1="542.6" x2="1329.5" y2="581.3"/>
<line fill="none" stroke="#00A0E9" stroke-linecap="round" stroke-linejoin="round" stroke-miterlimit="10" x1="1360.4" y1="537.2" x2="1335.9" y2="578.7"/>
<line fill="none" stroke="#00A0E9" stroke-linecap="round" stroke-linejoin="round" stroke-miterlimit="10" x1="1368.5" y1="531.8" x2="1342.4" y2="576.2"/>
<line fill="none" stroke="#00A0E9" stroke-linecap="round" stroke-linejoin="round" stroke-miterlimit="10" x1="1376.6" y1="526.4" x2="1348.9" y2="573.7"/>
<line fill="none" stroke="#00A0E9" stroke-linecap="round" stroke-linejoin="round" stroke-miterlimit="10" x1="1384.7" y1="521" x2="1355.3" y2="571.2"/>
<line fill="none" stroke="#00A0E9" stroke-linecap="round" stroke-linejoin="round" stroke-miterlimit="10" x1="1392.8" y1="515.6" x2="1361.8" y2="568.7"/>
<line fill="none" stroke="#00A0E9" stroke-linecap="round" stroke-linejoin="round" stroke-miterlimit="10" x1="1400.9" y1="510.2" x2="1368.2" y2="566.1"/>
<line fill="none" stroke="#00A0E9" stroke-linecap="round" stroke-linejoin="round" stroke-miterlimit="10" x1="1409" y1="504.8" x2="1374.7" y2="563.6"/>
<line fill="none" stroke="#00A0E9" stroke-linecap="round" stroke-linejoin="round" stroke-miterlimit="10" x1="1417.1" y1="499.4" x2="1381.1" y2="561.1"/>
<line fill="none" stroke="#00A0E9" stroke-linecap="round" stroke-linejoin="round" stroke-miterlimit="10" x1="1425.2" y1="494" x2="1387.6" y2="558.6"/>
<line fill="none" stroke="#00A0E9" stroke-linecap="round" stroke-linejoin="round" stroke-miterlimit="10" x1="1433.3" y1="488.6" x2="1394" y2="556.1"/>
<line fill="none" stroke="#00A0E9" stroke-linecap="round" stroke-linejoin="round" stroke-miterlimit="10" x1="1441.4" y1="483.2" x2="1400.5" y2="553.5"/>
<line fill="none" stroke="#00A0E9" stroke-linecap="round" stroke-linejoin="round" stroke-miterlimit="10" x1="1449.5" y1="477.8" x2="1407" y2="551"/>
<line fill="none" stroke="#00A0E9" stroke-linecap="round" stroke-linejoin="round" stroke-miterlimit="10" x1="1457.7" y1="472.4" x2="1413.4" y2="548.5"/>
<line fill="none" stroke="#00A0E9" stroke-linecap="round" stroke-linejoin="round" stroke-miterlimit="10" x1="1465.8" y1="467" x2="1419.9" y2="546"/>
<line fill="none" stroke="#00A0E9" stroke-linecap="round" stroke-linejoin="round" stroke-miterlimit="10" x1="1473.9" y1="461.6" x2="1426.3" y2="543.4"/>
<line fill="none" stroke="#00A0E9" stroke-linecap="round" stroke-linejoin="round" stroke-miterlimit="10" x1="1482" y1="456.2" x2="1432.8" y2="540.9"/>
<line fill="none" stroke="#00A0E9" stroke-linecap="round" stroke-linejoin="round" stroke-miterlimit="10" x1="1490.1" y1="450.8" x2="1439.2" y2="538.4"/>
<line fill="none" stroke="#00A0E9" stroke-linecap="round" stroke-linejoin="round" stroke-miterlimit="10" x1="1498.2" y1="445.4" x2="1445.7" y2="535.9"/>
<line fill="none" stroke="#00A0E9" stroke-linecap="round" stroke-linejoin="round" stroke-miterlimit="10" x1="1506.3" y1="440" x2="1452.2" y2="533.4"/>
<line fill="none" stroke="#00A0E9" stroke-linecap="round" stroke-linejoin="round" stroke-miterlimit="10" x1="1514.4" y1="434.6" x2="1458.6" y2="530.8"/>
<line fill="none" stroke="#00A0E9" stroke-linecap="round" stroke-linejoin="round" stroke-miterlimit="10" x1="1522.5" y1="429.1" x2="1465.1" y2="528.3"/>
<line fill="none" stroke="#00A0E9" stroke-linecap="round" stroke-linejoin="round" stroke-miterlimit="10" x1="1530.6" y1="423.7" x2="1471.5" y2="525.8"/>
<line fill="none" stroke="#00A0E9" stroke-linecap="round" stroke-linejoin="round" stroke-miterlimit="10" x1="1538.7" y1="418.3" x2="1478" y2="523.3"/>
<line fill="none" stroke="#00A0E9" stroke-linecap="round" stroke-linejoin="round" stroke-miterlimit="10" x1="1546.8" y1="412.9" x2="1484.4" y2="520.8"/>
<line fill="none" stroke="#00A0E9" stroke-linecap="round" stroke-linejoin="round" stroke-miterlimit="10" x1="1554.9" y1="407.5" x2="1490.9" y2="518.2"/>
<line fill="none" stroke="#00A0E9" stroke-linecap="round" stroke-linejoin="round" stroke-miterlimit="10" x1="1563" y1="402.1" x2="1497.4" y2="515.7"/>
<line fill="none" stroke="#00A0E9" stroke-linecap="round" stroke-linejoin="round" stroke-miterlimit="10" x1="1571.1" y1="396.7" x2="1503.8" y2="513.2"/>
<line fill="none" stroke="#00A0E9" stroke-linecap="round" stroke-linejoin="round" stroke-miterlimit="10" x1="1579.2" y1="391.3" x2="1510.3" y2="510.7"/>
<line fill="none" stroke="#00A0E9" stroke-linecap="round" stroke-linejoin="round" stroke-miterlimit="10" x1="1587.4" y1="385.9" x2="1516.7" y2="508.2"/>
<line fill="none" stroke="#00A0E9" stroke-linecap="round" stroke-linejoin="round" stroke-miterlimit="10" x1="1595.5" y1="380.5" x2="1523.2" y2="505.6"/>
<line fill="none" stroke="#00A0E9" stroke-linecap="round" stroke-linejoin="round" stroke-miterlimit="10" x1="1603.6" y1="375.1" x2="1529.6" y2="503.1"/>
<line fill="none" stroke="#00A0E9" stroke-linecap="round" stroke-linejoin="round" stroke-miterlimit="10" x1="1611.7" y1="369.7" x2="1536.1" y2="500.6"/>
<line fill="none" stroke="#00A0E9" stroke-linecap="round" stroke-linejoin="round" stroke-miterlimit="10" x1="1619.8" y1="364.3" x2="1542.6" y2="498.1"/>
<line fill="none" stroke="#00A0E9" stroke-linecap="round" stroke-linejoin="round" stroke-miterlimit="10" x1="1627.9" y1="358.9" x2="1549" y2="495.6"/>
<line fill="none" stroke="#00A0E9" stroke-linecap="round" stroke-linejoin="round" stroke-miterlimit="10" x1="1636" y1="353.5" x2="1555.5" y2="493"/>
<line fill="none" stroke="#00A0E9" stroke-linecap="round" stroke-linejoin="round" stroke-miterlimit="10" x1="1644.1" y1="348.1" x2="1561.9" y2="490.5"/>
<line fill="none" stroke="#00A0E9" stroke-linecap="round" stroke-linejoin="round" stroke-miterlimit="10" x1="1652.2" y1="342.7" x2="1568.4" y2="488"/>
<line fill="none" stroke="#00A0E9" stroke-linecap="round" stroke-linejoin="round" stroke-miterlimit="10" x1="1660.3" y1="337.3" x2="1574.8" y2="485.5"/>
<line fill="none" stroke="#00A0E9" stroke-linecap="round" stroke-linejoin="round" stroke-miterlimit="10" x1="1668.4" y1="331.9" x2="1581.3" y2="483"/>
</svg>
