<?xml version="1.0" encoding="utf-8"?>
<!-- Generator: Adobe Illustrator 19.1.0, SVG Export Plug-In . SVG Version: 6.00 Build 0)  -->
<svg version="1.0" id="レイヤー_1" xmlns="http://www.w3.org/2000/svg" xmlns:xlink="http://www.w3.org/1999/xlink" x="0px"
	 y="0px" viewBox="0 0 1800 1200" enable-background="new 0 0 1800 1200" xml:space="preserve">
<line fill="none" stroke="#11BAD1" stroke-miterlimit="10" x1="685.9" y1="343.4" x2="687" y2="342"/>
<line fill="none" stroke="#11BAD1" stroke-miterlimit="10" x1="680.9" y1="341.8" x2="683.1" y2="339.5"/>
<line fill="none" stroke="#11BAD1" stroke-miterlimit="10" x1="675.9" y1="340.2" x2="679.2" y2="337"/>
<line fill="none" stroke="#11BAD1" stroke-miterlimit="10" x1="670.9" y1="338.6" x2="675.2" y2="334.5"/>
<line fill="none" stroke="#11BAD1" stroke-miterlimit="10" x1="665.9" y1="337" x2="671.3" y2="332.1"/>
<line fill="none" stroke="#11BAD1" stroke-miterlimit="10" x1="660.9" y1="335.4" x2="667.3" y2="329.6"/>
<line fill="none" stroke="#11BAD1" stroke-miterlimit="10" x1="655.9" y1="333.8" x2="663.4" y2="327.1"/>
<line fill="none" stroke="#11BAD1" stroke-miterlimit="10" x1="650.9" y1="332.2" x2="659.5" y2="324.6"/>
<line fill="none" stroke="#11BAD1" stroke-miterlimit="10" x1="645.9" y1="330.6" x2="655.5" y2="322.1"/>
<line fill="none" stroke="#11BAD1" stroke-miterlimit="10" x1="641" y1="329" x2="651.6" y2="319.6"/>
<line fill="none" stroke="#11BAD1" stroke-miterlimit="10" x1="636" y1="327.4" x2="647.6" y2="317.1"/>
<line fill="none" stroke="#11BAD1" stroke-miterlimit="10" x1="631" y1="325.8" x2="643.7" y2="314.7"/>
<line fill="none" stroke="#11BAD1" stroke-miterlimit="10" x1="626" y1="324.2" x2="639.8" y2="312.2"/>
<line fill="none" stroke="#11BAD1" stroke-miterlimit="10" x1="621" y1="322.6" x2="635.8" y2="309.7"/>
<line fill="none" stroke="#11BAD1" stroke-miterlimit="10" x1="616" y1="321" x2="631.9" y2="307.2"/>
<line fill="none" stroke="#11BAD1" stroke-miterlimit="10" x1="611" y1="319.4" x2="627.9" y2="304.7"/>
<line fill="none" stroke="#11BAD1" stroke-miterlimit="10" x1="606" y1="317.8" x2="624" y2="302.2"/>
<line fill="none" stroke="#11BAD1" stroke-miterlimit="10" x1="601" y1="316.2" x2="620.1" y2="299.7"/>
<line fill="none" stroke="#11BAD1" stroke-miterlimit="10" x1="596" y1="314.6" x2="616.1" y2="297.3"/>
<line fill="none" stroke="#11BAD1" stroke-miterlimit="10" x1="591" y1="313" x2="612.2" y2="294.8"/>
<line fill="none" stroke="#11BAD1" stroke-miterlimit="10" x1="586" y1="311.4" x2="608.2" y2="292.3"/>
<line fill="none" stroke="#11BAD1" stroke-miterlimit="10" x1="581" y1="309.8" x2="604.3" y2="289.8"/>
<line fill="none" stroke="#11BAD1" stroke-miterlimit="10" x1="576.1" y1="308.2" x2="600.4" y2="287.3"/>
<line fill="none" stroke="#11BAD1" stroke-miterlimit="10" x1="571.1" y1="306.6" x2="596.4" y2="284.8"/>
<line fill="none" stroke="#11BAD1" stroke-miterlimit="10" x1="566.1" y1="305" x2="592.5" y2="282.3"/>
<line fill="none" stroke="#11BAD1" stroke-miterlimit="10" x1="561.1" y1="303.4" x2="588.5" y2="279.9"/>
<line fill="none" stroke="#11BAD1" stroke-miterlimit="10" x1="556.1" y1="301.8" x2="584.6" y2="277.4"/>
<line fill="none" stroke="#11BAD1" stroke-miterlimit="10" x1="551.1" y1="300.2" x2="580.7" y2="274.9"/>
<line fill="none" stroke="#11BAD1" stroke-miterlimit="10" x1="546.1" y1="298.6" x2="576.7" y2="272.4"/>
<line fill="none" stroke="#11BAD1" stroke-miterlimit="10" x1="541.1" y1="297" x2="572.8" y2="269.9"/>
<line fill="none" stroke="#11BAD1" stroke-miterlimit="10" x1="536.1" y1="295.4" x2="568.8" y2="267.4"/>
<line fill="none" stroke="#11BAD1" stroke-miterlimit="10" x1="531.1" y1="293.8" x2="564.9" y2="264.9"/>
<line fill="none" stroke="#11BAD1" stroke-miterlimit="10" x1="526.1" y1="292.2" x2="561" y2="262.5"/>
<line fill="none" stroke="#11BAD1" stroke-miterlimit="10" x1="521.1" y1="290.6" x2="557" y2="260"/>
<line fill="none" stroke="#11BAD1" stroke-miterlimit="10" x1="516.1" y1="289" x2="553.1" y2="257.5"/>
<line fill="none" stroke="#11BAD1" stroke-miterlimit="10" x1="511.2" y1="287.4" x2="549.1" y2="255"/>
<line fill="none" stroke="#11BAD1" stroke-miterlimit="10" x1="506.2" y1="285.8" x2="545.2" y2="252.5"/>
<line fill="none" stroke="#11BAD1" stroke-miterlimit="10" x1="501.2" y1="284.2" x2="541.3" y2="250"/>
<line fill="none" stroke="#11BAD1" stroke-miterlimit="10" x1="496.2" y1="282.6" x2="537.3" y2="247.5"/>
<line fill="none" stroke="#11BAD1" stroke-miterlimit="10" x1="491.2" y1="281" x2="533.4" y2="245"/>
<line fill="none" stroke="#11BAD1" stroke-miterlimit="10" x1="486.2" y1="279.4" x2="529.4" y2="242.6"/>
<line fill="none" stroke="#11BAD1" stroke-miterlimit="10" x1="481.2" y1="277.8" x2="525.5" y2="240.1"/>
<line fill="none" stroke="#11BAD1" stroke-miterlimit="10" x1="476.2" y1="276.2" x2="521.6" y2="237.6"/>
<line fill="none" stroke="#11BAD1" stroke-miterlimit="10" x1="471.2" y1="274.6" x2="517.6" y2="235.1"/>
<line fill="none" stroke="#11BAD1" stroke-miterlimit="10" x1="466.2" y1="273" x2="513.7" y2="232.6"/>
<line fill="none" stroke="#11BAD1" stroke-miterlimit="10" x1="461.2" y1="271.4" x2="509.7" y2="230.1"/>
<line fill="none" stroke="#11BAD1" stroke-miterlimit="10" x1="456.2" y1="269.9" x2="505.8" y2="227.6"/>
<line fill="none" stroke="#11BAD1" stroke-miterlimit="10" x1="451.2" y1="268.3" x2="501.9" y2="225.2"/>
<line fill="none" stroke="#11BAD1" stroke-miterlimit="10" x1="446.2" y1="266.7" x2="497.9" y2="222.7"/>
<line fill="none" stroke="#11BAD1" stroke-miterlimit="10" x1="441.3" y1="265.1" x2="494" y2="220.2"/>
<line fill="none" stroke="#11BAD1" stroke-miterlimit="10" x1="436.3" y1="263.5" x2="490" y2="217.7"/>
<line fill="none" stroke="#11BAD1" stroke-miterlimit="10" x1="431.3" y1="261.9" x2="486.1" y2="215.2"/>
<line fill="none" stroke="#11BAD1" stroke-miterlimit="10" x1="426.3" y1="260.3" x2="482.2" y2="212.7"/>
<line fill="none" stroke="#11BAD1" stroke-miterlimit="10" x1="421.3" y1="258.7" x2="478.2" y2="210.2"/>
<line fill="none" stroke="#11BAD1" stroke-miterlimit="10" x1="416.3" y1="257.1" x2="474.3" y2="207.8"/>
<line fill="none" stroke="#11BAD1" stroke-miterlimit="10" x1="411.3" y1="255.5" x2="470.3" y2="205.3"/>
<line fill="none" stroke="#11BAD1" stroke-miterlimit="10" x1="406.3" y1="253.9" x2="466.4" y2="202.8"/>
<line fill="none" stroke="#11BAD1" stroke-miterlimit="10" x1="401.3" y1="252.3" x2="462.5" y2="200.3"/>
<line fill="none" stroke="#11BAD1" stroke-miterlimit="10" x1="396.3" y1="250.7" x2="458.5" y2="197.8"/>
<line fill="none" stroke="#11BAD1" stroke-miterlimit="10" x1="391.3" y1="249.1" x2="454.6" y2="195.3"/>
<line fill="none" stroke="#11BAD1" stroke-miterlimit="10" x1="386.3" y1="247.5" x2="450.6" y2="192.8"/>
<line fill="none" stroke="#11BAD1" stroke-miterlimit="10" x1="381.3" y1="245.9" x2="446.7" y2="190.4"/>
<line fill="none" stroke="#11BAD1" stroke-miterlimit="10" x1="376.4" y1="244.3" x2="442.8" y2="187.9"/>
<line fill="none" stroke="#11BAD1" stroke-miterlimit="10" x1="371.4" y1="242.7" x2="438.8" y2="185.4"/>
<line fill="none" stroke="#11BAD1" stroke-miterlimit="10" x1="366.4" y1="241.1" x2="434.9" y2="182.9"/>
<line fill="none" stroke="#11BAD1" stroke-miterlimit="10" x1="361.4" y1="239.5" x2="430.9" y2="180.4"/>
<line fill="none" stroke="#11BAD1" stroke-miterlimit="10" x1="356.4" y1="237.9" x2="427" y2="177.9"/>
<line fill="none" stroke="#11BAD1" stroke-miterlimit="10" x1="351.4" y1="236.3" x2="423.1" y2="175.4"/>
<line fill="none" stroke="#11BAD1" stroke-miterlimit="10" x1="346.4" y1="234.7" x2="419.1" y2="173"/>
<line fill="none" stroke="#11BAD1" stroke-miterlimit="10" x1="341.4" y1="233.1" x2="415.2" y2="170.5"/>
<line fill="none" stroke="#11BAD1" stroke-miterlimit="10" x1="336.4" y1="231.5" x2="411.2" y2="168"/>
<line fill="none" stroke="#11BAD1" stroke-miterlimit="10" x1="331.4" y1="229.9" x2="407.3" y2="165.5"/>
<line fill="none" stroke="#11BAD1" stroke-miterlimit="10" x1="326.4" y1="228.3" x2="403.4" y2="163"/>
<line fill="none" stroke="#11BAD1" stroke-miterlimit="10" x1="321.4" y1="226.7" x2="399.4" y2="160.5"/>
<line fill="none" stroke="#11BAD1" stroke-miterlimit="10" x1="316.4" y1="225.1" x2="395.5" y2="158"/>
<line fill="none" stroke="#11BAD1" stroke-miterlimit="10" x1="311.5" y1="223.5" x2="391.5" y2="155.6"/>
<line fill="none" stroke="#11BAD1" stroke-miterlimit="10" x1="306.5" y1="221.9" x2="387.6" y2="153.1"/>
<line fill="none" stroke="#11BAD1" stroke-miterlimit="10" x1="301.5" y1="220.3" x2="383.7" y2="150.6"/>
<line fill="none" stroke="#11BAD1" stroke-miterlimit="10" x1="296.5" y1="218.7" x2="379.7" y2="148.1"/>
<line fill="none" stroke="#11BAD1" stroke-miterlimit="10" x1="291.5" y1="217.1" x2="375.8" y2="145.6"/>
<line fill="none" stroke="#11BAD1" stroke-miterlimit="10" x1="286.5" y1="215.5" x2="371.8" y2="143.1"/>
<line fill="none" stroke="#11BAD1" stroke-miterlimit="10" x1="281.5" y1="213.9" x2="367.9" y2="140.6"/>
<line fill="none" stroke="#11BAD1" stroke-miterlimit="10" x1="276.3" y1="212.3" x2="360.6" y2="140.7"/>
<line fill="none" stroke="#11BAD1" stroke-miterlimit="10" x1="271.1" y1="210.6" x2="353.4" y2="140.8"/>
<line fill="none" stroke="#11BAD1" stroke-miterlimit="10" x1="265.9" y1="208.9" x2="346.1" y2="140.9"/>
<line fill="none" stroke="#11BAD1" stroke-miterlimit="10" x1="260.6" y1="207.3" x2="338.8" y2="141"/>
<line fill="none" stroke="#11BAD1" stroke-miterlimit="10" x1="255.4" y1="205.6" x2="331.5" y2="141"/>
<line fill="none" stroke="#11BAD1" stroke-miterlimit="10" x1="250.2" y1="203.9" x2="324.2" y2="141.1"/>
<line fill="none" stroke="#11BAD1" stroke-miterlimit="10" x1="245" y1="202.3" x2="317" y2="141.2"/>
<line fill="none" stroke="#11BAD1" stroke-miterlimit="10" x1="239.8" y1="200.6" x2="309.7" y2="141.3"/>
<line fill="none" stroke="#11BAD1" stroke-miterlimit="10" x1="234.6" y1="198.9" x2="302.4" y2="141.4"/>
<line fill="none" stroke="#11BAD1" stroke-miterlimit="10" x1="229.3" y1="197.2" x2="295.1" y2="141.5"/>
<line fill="none" stroke="#11BAD1" stroke-miterlimit="10" x1="224.1" y1="195.6" x2="287.9" y2="141.5"/>
<line fill="none" stroke="#11BAD1" stroke-miterlimit="10" x1="218.9" y1="193.9" x2="280.6" y2="141.6"/>
<line fill="none" stroke="#11BAD1" stroke-miterlimit="10" x1="213.7" y1="192.2" x2="273.3" y2="141.7"/>
<line fill="none" stroke="#11BAD1" stroke-miterlimit="10" x1="208.5" y1="190.6" x2="266" y2="141.8"/>
<line fill="none" stroke="#11BAD1" stroke-miterlimit="10" x1="203.3" y1="188.9" x2="258.7" y2="141.9"/>
<line fill="none" stroke="#11BAD1" stroke-miterlimit="10" x1="198.1" y1="187.2" x2="251.5" y2="141.9"/>
<line fill="none" stroke="#11BAD1" stroke-miterlimit="10" x1="192.8" y1="185.6" x2="244.2" y2="142"/>
<line fill="none" stroke="#11BAD1" stroke-miterlimit="10" x1="187.6" y1="183.9" x2="236.9" y2="142.1"/>
<line fill="none" stroke="#11BAD1" stroke-miterlimit="10" x1="182.4" y1="182.2" x2="229.6" y2="142.2"/>
<line fill="none" stroke="#11BAD1" stroke-miterlimit="10" x1="177.2" y1="180.6" x2="222.4" y2="142.3"/>
<line fill="none" stroke="#11BAD1" stroke-miterlimit="10" x1="172" y1="178.9" x2="215.1" y2="142.3"/>
<line fill="none" stroke="#11BAD1" stroke-miterlimit="10" x1="166.8" y1="177.2" x2="207.8" y2="142.4"/>
<line fill="none" stroke="#11BAD1" stroke-miterlimit="10" x1="161.6" y1="175.6" x2="200.5" y2="142.5"/>
<line fill="none" stroke="#11BAD1" stroke-miterlimit="10" x1="156.3" y1="173.9" x2="193.2" y2="142.6"/>
<line fill="none" stroke="#11BAD1" stroke-miterlimit="10" x1="151.1" y1="172.2" x2="186" y2="142.7"/>
<line fill="none" stroke="#11BAD1" stroke-miterlimit="10" x1="145.9" y1="170.6" x2="178.7" y2="142.8"/>
<line fill="none" stroke="#11BAD1" stroke-miterlimit="10" x1="140.7" y1="168.9" x2="171.4" y2="142.8"/>
<line fill="none" stroke="#11BAD1" stroke-miterlimit="10" x1="135.5" y1="167.2" x2="164.1" y2="142.9"/>
<line fill="none" stroke="#11BAD1" stroke-miterlimit="10" x1="130.3" y1="165.6" x2="156.9" y2="143"/>
<line fill="none" stroke="#11BAD1" stroke-miterlimit="10" x1="125.1" y1="163.9" x2="149.6" y2="143.1"/>
<line fill="none" stroke="#11BAD1" stroke-miterlimit="10" x1="119.8" y1="162.2" x2="142.3" y2="143.2"/>
<line fill="none" stroke="#11BAD1" stroke-miterlimit="10" x1="114.6" y1="160.5" x2="135" y2="143.2"/>
<line fill="none" stroke="#11BAD1" stroke-miterlimit="10" x1="109.4" y1="158.9" x2="127.7" y2="143.3"/>
<line fill="none" stroke="#11BAD1" stroke-miterlimit="10" x1="104.2" y1="157.2" x2="120.5" y2="143.4"/>
<line fill="none" stroke="#11BAD1" stroke-miterlimit="10" x1="99" y1="155.5" x2="113.2" y2="143.5"/>
<line fill="none" stroke="#11BAD1" stroke-miterlimit="10" x1="93.8" y1="153.9" x2="105.9" y2="143.6"/>
<line fill="none" stroke="#11BAD1" stroke-miterlimit="10" x1="88.5" y1="152.2" x2="98.6" y2="143.7"/>
<line fill="none" stroke="#11BAD1" stroke-miterlimit="10" x1="83.3" y1="150.5" x2="91.4" y2="143.7"/>
<line fill="none" stroke="#11BAD1" stroke-miterlimit="10" x1="78.1" y1="148.9" x2="84.1" y2="143.8"/>
<line fill="none" stroke="#11BAD1" stroke-miterlimit="10" x1="72.9" y1="147.2" x2="76.8" y2="143.9"/>
<line fill="none" stroke="#11BAD1" stroke-miterlimit="10" x1="67.7" y1="145.5" x2="69.5" y2="144"/>
</svg>
