<?xml version="1.0" encoding="utf-8"?>
<!-- Generator: Adobe Illustrator 19.1.0, SVG Export Plug-In . SVG Version: 6.00 Build 0)  -->
<svg version="1.0" id="レイヤー_1" xmlns="http://www.w3.org/2000/svg" xmlns:xlink="http://www.w3.org/1999/xlink" x="0px"
	 y="0px" viewBox="0 0 113 52" enable-background="new 0 0 113 52" xml:space="preserve">
<g>
	<g>
		<path fill="#1B2B79" d="M4.2,9.5v7.1c0.2,0.8,0.7,2.3,2.2,3c1.4,0.7,3.1,1,4.1,1h12.9L23,21.9H10.6c-4.4,0-5.8-1.8-6.6-2.8
			c-0.3,0.4-2.2,2.3-3.5,3.4L0,21.1c1-0.8,2.1-1.8,2.9-2.6v-7.6H0.2V9.5H4.2z M4.2,4.5C2.7,2.8,2.1,2.2,0.5,1l0.8-1
			c1.3,0.8,2.6,2,3.9,3.5L4.2,4.5z M23,17.2h-8.3v2.7h-1.4v-2.7H5.5v-1.1h7.9v-1.8H6.6V6.5h6.8V4.7H7.9V3.6h5.5V1.5H7.1v3.2H5.7V0.3
			h16.9v4.3h-1.4V1.5h-6.5v2.1h5.4v1.1h-5.4v1.8h6.9v7.7h-6.9v1.8H23V17.2z M13.4,7.6H7.9v2.2h5.5V7.6z M13.4,10.9H7.9v2.2h5.5V10.9
			z M20.4,7.6h-5.6v2.2h5.6V7.6z M20.4,10.9h-5.6v2.2h5.6V10.9z"/>
		<path fill="#1B2B79" d="M44.1,20.4c0,1.3-0.3,2-1.7,2h-3.4l-0.2-1.4l3.4,0c0.5,0,0.5-0.5,0.5-0.8v-5.8h-7.6v7.6h-1.3v-7.6h-7.1
			c-0.5,4.3-1.9,6.4-3.1,7.9l-1-0.9c2.1-2.7,2.8-5.5,2.8-9.8V0.7h18.8V20.4z M26.7,11.5c0,0.8,0,1.3,0,1.9h7V8h-7V11.5z M33.8,1.9
			h-7v5h7V1.9z M42.7,1.9h-7.6v5h7.6V1.9z M42.7,8h-7.6v5.3h7.6V8z"/>
		<path fill="#1B2B79" d="M45.5,18.5c4.8-2.4,10.3-7.7,13.2-12.3H46.1V4.7h12.8V0.1h1.5v4.6h6.6v1.4h-6.6V19c0,2-0.8,2.8-3.3,2.8
			c-1.4,0-2.8-0.2-3.6-0.3l-0.1-1.6c1,0.2,2.3,0.3,3.8,0.3c1.2,0,1.6-0.3,1.6-1.2V8.4c-2.7,4-7.5,8.8-12.3,11.3L45.5,18.5z"/>
		<path fill="#1B2B79" d="M90.2,10.2v1.6H68v-1.6H90.2z"/>
		<path fill="#1B2B79" d="M99.2,0v6.9c4.8,1.4,9.8,4,12.8,5.6l-0.8,1.5c-3.4-2.1-7.8-4.2-12.1-5.6V22h-1.6V0H99.2z"/>
		<path fill="#1B2B79" d="M19.6,47.3c-0.8-0.9-2.6-2.8-5.7-5.4c-4,5.7-9.5,8.3-12,9.5l-0.8-1.3c2.3-1,7.5-3.3,11.6-9.1
			c-3.9-3.1-6.3-4.5-7.9-5.4l0.8-1.1c2.8,1.5,5.4,3.3,7.9,5.3c2.6-4.1,3.9-8.1,4.3-9.4l1.6,0.6c-1.7,4.8-3.6,8.1-4.7,9.8
			c3.4,2.7,5.2,4.6,6,5.4L19.6,47.3z"/>
		<path fill="#1B2B79" d="M45.2,40.2v1.6H23v-1.6H45.2z"/>
		<path fill="#1B2B79" d="M53.8,41.3c-2.6-1.6-4.4-2.3-7.2-3.1l0.7-1.4c2.5,0.7,4.5,1.4,7.3,3L53.8,41.3z M47.8,49.4
			c11.2-1.1,15.3-6.2,18-14.4l1.3,0.6c-3.3,9.4-7,13.9-19.1,15.5L47.8,49.4z M55.8,35.3c-1.1-0.7-3.1-1.8-7.3-3.1l0.7-1.3
			c3.1,0.8,5.3,1.7,7.4,2.8L55.8,35.3z"/>
		<path fill="#1B2B79" d="M85.8,36.2v14.5H72.1v-1.4h12.3v-5.6H72.5v-1.3h11.9l0-4.9h-12v-1.3H85.8z"/>
		<path fill="#1B2B79" d="M99.6,37c-2.2-1.5-5.5-2.9-7.9-3.6l0.8-1.4c1.9,0.6,5.2,1.8,7.9,3.5L99.6,37z M92,49.3
			c7.4-0.2,15.5-4,19.1-15.5l1.4,0.6c-0.9,2.6-2.9,8-7.9,12c-3.5,2.8-7.7,4.3-12.2,4.6L92,49.3z"/>
	</g>
</g>
</svg>
