<?xml version="1.0" encoding="utf-8"?>
<!-- Generator: Adobe Illustrator 19.1.0, SVG Export Plug-In . SVG Version: 6.00 Build 0)  -->
<svg version="1.0" id="レイヤー_1" xmlns="http://www.w3.org/2000/svg" xmlns:xlink="http://www.w3.org/1999/xlink" x="0px"
	 y="0px" viewBox="0 0 135 24" enable-background="new 0 0 135 24" xml:space="preserve">
<g>
	<g>
		<path fill="#1B2B79" d="M8.1,14.9c-1.2-1.4-1.7-2.4-2.2-3.4v12H4.6V11.6C4.4,12,3.1,15.2,0.7,18L0,16.8c0.6-0.8,3.4-4.3,4.5-8.4
			H0.2V7.1h4.4V2.8c-2,0.4-3.1,0.4-4,0.5L0.2,2.1C2.5,2,5.9,1.6,8.2,0.7l0.8,1C8.3,2,7.8,2.2,5.9,2.6v4.5h2.9v1.2H5.9v0.5
			c0.4,1,1.4,2.9,3.1,5L8.1,14.9z M7.7,22.3c1.8-0.3,4.9-1,8.4-3c-0.8-1-2.5-2.7-3.6-3.6c-1.7,1.2-2.5,1.5-3.3,1.8l-0.8-1.1
			c3.3-1.4,6.3-3.8,8.2-6.2l1.1,0.6c-0.3,0.5-0.8,1-1.7,2h6.7V14c-3.2,6.3-9.8,8.6-14.4,9.4L7.7,22.3z M21.7,2.6v1
			c-2.5,4.7-7.6,7.3-12.2,8.6l-0.7-1.2c2.4-0.6,4.2-1.4,6.1-2.5c-0.9-0.9-1.5-1.4-3.7-3c-0.8,0.6-1.4,0.9-1.9,1.2l-0.9-1
			c2.2-1.1,4.4-3,5.8-5.2L15.6,1c-0.3,0.4-0.6,0.9-1.2,1.6H21.7z M13.3,3.8c-0.4,0.4-0.6,0.5-1,1c0.6,0.4,2.9,2.3,3.8,3.1
			c2.6-1.8,3.6-3.4,4-4.1H13.3z M14.7,14c-0.3,0.3-0.7,0.5-1.2,0.9c1.1,0.8,2.8,2.5,3.7,3.6c2.3-1.6,3.4-3.5,4-4.5H14.7z"/>
		<path fill="#1B2B79" d="M31.6,4.8V6h-9V4.8H31.6z M30.8,1.3v1.2h-7.3V1.3H30.8z M30.8,8.2v1.2h-7.3V8.2H30.8z M30.8,11.6v1.2h-7.3
			v-1.2H30.8z M30.8,15v7.2h-6v1.2h-1.2V15H30.8z M29.6,16.2h-4.8V21h4.8V16.2z M44.8,23.5c-1.5-0.6-4.3-1.8-6.2-3.3
			c-2.5,2-5,2.9-6.4,3.3l-0.6-1.3c1-0.3,3.6-1.1,5.9-2.9c-2-2-2.9-3.9-3.5-5.4l1.2-0.6c0.8,2.1,1.8,3.6,3.3,5.1
			c2.1-2.1,3-4.3,3.6-5.9h-9.8v-1.3h11.2v1.2c-0.5,1.2-1.6,4.2-4,6.8c1.2,0.8,3,1.9,6,2.9L44.8,23.5z M41.9,1.3v5.8
			c0,0.6,0.2,0.7,0.7,0.7h0.7c0.4,0,0.8,0,0.9-2.9l1.3,0.4c-0.2,3.2-0.7,3.8-1.9,3.8h-1.6c-1.2,0-1.5-0.5-1.5-1.6v-5h-4.8
			c0,4-0.7,5.8-2.8,7.6l-1-1c2.4-1.9,2.4-3.6,2.4-7.8H41.9z"/>
		<path fill="#1B2B79" d="M61.8,1.1h1.5v5.2H68v1.4h-4.7v3.8c0,2.5-0.8,6.5-4.1,8.8c-3,2.1-6.6,2.4-7.8,2.6l-0.5-1.5
			c1.2-0.1,4.7-0.4,7.7-2.4c3.4-2.3,3.4-7.2,3.4-7.4V7.7H51.7v7.3h-1.5V7.7h-4.6V6.3h4.6v-5h1.5v5h10.1V1.1z"/>
		<path fill="#1B2B79" d="M68.7,20.3c1.2-1.4,3.2-3.9,4.1-10l1.4,0.1c-1,7.1-3.2,9.7-4.2,10.9L68.7,20.3z M79.8,1.3v4.6h9.4v1.4
			h-9.4v15.6h-1.5V7.3h-9.2V5.9h9.2V1.3H79.8z M85.7,10.2c0.4,3.1,1.6,7.1,4,10.3l-1.4,0.8c-2.4-3-3.6-7.4-4.1-11L85.7,10.2z
			 M90.6,2.6c0,1.4-1.2,2.6-2.6,2.6c-1.4,0-2.6-1.2-2.6-2.6c0-1.5,1.2-2.6,2.6-2.6S90.6,1.1,90.6,2.6z M86.4,2.6
			c0,0.8,0.7,1.5,1.5,1.5c0.8,0,1.5-0.7,1.5-1.5c0-0.9-0.7-1.5-1.5-1.5C87.1,1.1,86.4,1.7,86.4,2.6z"/>
		<path fill="#1B2B79" d="M112.7,11.2v1.6H90.5v-1.6H112.7z"/>
		<path fill="#1B2B79" d="M121.6,1v6.9c4.8,1.4,9.8,4,12.8,5.6l-0.8,1.5c-3.4-2.1-7.8-4.2-12.1-5.6V23H120V1H121.6z"/>
	</g>
</g>
</svg>
