<?xml version="1.0" encoding="utf-8"?>
<!-- Generator: Adobe Illustrator 19.1.0, SVG Export Plug-In . SVG Version: 6.00 Build 0)  -->
<svg version="1.0" id="レイヤー_1" xmlns="http://www.w3.org/2000/svg" xmlns:xlink="http://www.w3.org/1999/xlink" x="0px"
	 y="0px" viewBox="0 0 218 38" enable-background="new 0 0 218 38" xml:space="preserve">
<g>
	<g>
		<g>
			<path fill="#3A3A3A" d="M2.4,9.3l-1.2,3.2H0L4.6,0.8H6l4.6,11.8H9.4L8.2,9.3H2.4z M7.8,8.4L5.3,1.6L2.7,8.4H7.8z"/>
			<path fill="#3A3A3A" d="M10.9,0.8l2.7,11l2.6-11h1.5l2.6,11l2.7-11H24l-3,11.8h-1.5L17,1.5l-2.6,11h-1.5l-3-11.8H10.9z"/>
			<path fill="#3A3A3A" d="M32.3,4.2c0-1.5-0.3-2.6-3.4-2.6c-2.2,0-3.2,0.6-3.2,2.4c0,1.2,0.5,1.8,1.8,2l3.2,0.3
				c1,0.1,3.1,0.3,3.1,3.1c0,2.3-1.2,3.4-4.6,3.4c-3.8,0-4.7-1.5-4.7-3.8h1c0,1.7,0.4,2.9,3.7,2.9c3,0,3.6-1,3.6-2.4
				c0-1.3-0.4-2.1-2.1-2.3l-3.3-0.4c-1.8-0.2-2.7-1.3-2.7-2.9c0-3.2,3-3.2,4.1-3.2c4.1,0,4.4,1.7,4.5,3.5H32.3z"/>
			<path fill="#3A3A3A" d="M45.7,0.8v0.9h-7.1V6h6.7v0.9h-6.7v4.8h7.2v0.9h-8.2V0.8H45.7z"/>
			<path fill="#3A3A3A" d="M55.8,4.5c0-2.3-1.3-3-3.6-3c-3.2,0-3.9,1.3-3.9,5.3c0,3.1,0.3,5,3.8,5c2.4,0,3.6-0.5,3.6-3.3h1
				c0,3.9-2.6,4.2-4.5,4.2c-3.9,0-5.1-1.4-5.1-5.9c0-3.6,0.5-6.2,4.9-6.2c3.8,0,4.6,1.9,4.6,3.9H55.8z"/>
			<path fill="#3A3A3A" d="M61.3,8.1C59.9,8.4,59,8.7,59,11.3v0.4H67v0.9h-9.1v-0.3c0-1.4,0-2.1,0.3-2.9c0.5-1.6,1.9-1.9,2.9-2.1
				l2.4-0.5C64.7,6.6,66,6.2,66,4.2c0-2.2-1.3-2.7-3.2-2.7c-2.8,0-3.6,1-3.6,3h-1c0-3.3,2-3.9,4.4-3.9c1.4,0,4.5,0,4.5,3.5
				c0,1.9-0.8,3-3.3,3.5L61.3,8.1z"/>
			<path fill="#3A3A3A" d="M73.2,0.1C73.1,0.6,73,1,72.8,2h6.8v0.8h-7c-0.6,1.7-1,2.4-1.2,2.7c0.5-0.4,1.5-1.1,2.9-1.1
				c1.9,0,2.1,1.3,2.2,2c2.3-0.9,2.6-1,4.1-1.6l0.3,0.9c-1.4,0.5-3,1-4.3,1.5c0.1,0.7,0.1,1.5,0.1,2.1c0,0.2,0,0.6-0.1,1h-0.9
				c0-0.5,0.1-0.8,0.1-1.5c0-0.1,0-0.7,0-1.2c-2,0.9-3.7,2-3.7,3.3c0,1.5,2.1,1.5,3.7,1.5c2.1,0,3.5-0.2,4.2-0.2l0.1,0.9
				c-0.8,0.1-2,0.2-3.9,0.2c-1.6,0-5,0-5-2.3c0-1.9,2.2-3.3,4.5-4.2c-0.1-0.7-0.3-1.6-1.5-1.6c-1.5,0-2.9,1.4-3.1,1.6
				c-0.2,0.2-2,2.6-2.5,3.1L67.8,9c0.8-0.7,2.4-2.2,3.7-6.2h-3.4V2h3.7c0.3-0.9,0.3-1.4,0.4-1.9L73.2,0.1z"/>
			<path fill="#3A3A3A" d="M80.6,8.1c0.6-0.8,3.6-4.6,3.9-4.9c0.5-0.6,0.9-0.7,1.3-0.7c0.6,0,1.2,0.3,2,1l7,6.9l-0.7,0.8L86.9,4
				c-0.1-0.1-0.6-0.5-1-0.5c-0.2,0-0.5,0.1-0.8,0.4c-0.5,0.5-1.3,1.6-3.7,5L80.6,8.1z M91.8,3.4c-0.5-0.9-1.1-1.7-1.5-2.1L91,0.8
				c0.5,0.6,1.1,1.2,1.5,2L91.8,3.4z M93.6,2.5c-0.4-0.7-1-1.4-1.5-2L92.7,0c0.3,0.3,0.8,0.9,1.6,2L93.6,2.5z"/>
			<path fill="#3A3A3A" d="M107.8,6.4v1H94.5v-1H107.8z"/>
			<path fill="#3A3A3A" d="M108.1,12.4c3-1.3,7.4-4.4,9.5-10.4h-8.8V1.2h9.9c-0.6,2.3-1.6,4.4-3.1,6.3c0.5,0.4,2.9,2.3,5.4,4.8
				l-0.8,0.7c-1.4-1.5-3.9-3.8-5.2-4.9c-1.8,2.1-3.9,3.8-6.4,5L108.1,12.4z"/>
			<path fill="#3A3A3A" d="M127.3,0.3c0,0.4,0,0.8,0,1.4c0,2,0.1,2.8,0.4,3.6c1.7-0.5,3.1-0.8,5.5-1.2l0.1,1
				c-2.1,0.3-10.1,1.3-10.1,5c0,2.1,2,2.2,5.8,2.2c2.5,0,4.1-0.2,4.8-0.2l0,1c-2.1,0.1-3.5,0.1-4.8,0.1c-2.7,0-6.7,0-6.7-3.1
				c0-1.5,1.1-3.2,4.5-4.5c-0.5-1-0.5-2.4-0.5-2.6c0-0.9,0-2.3,0-2.6H127.3z"/>
			<path fill="#3A3A3A" d="M138.5,0.5c0,1.2-0.2,6.3-0.2,7.4c0,2.3,0.1,4.5,3.4,4.5c3.2,0,4.1-1.7,4.4-2.4c0.4-0.9,0.7-2.3,0.8-3
				l0.9,0.2c-0.4,2.2-1,6-5.9,6c-4,0-4.5-2.3-4.5-5.5c0-1.1,0.1-6.2,0.1-7.2H138.5z"/>
			<path fill="#3A3A3A" d="M161.5,2.2c-1.3-0.1-1.4-0.1-1.7-0.1c-0.9,0-1.2,0.1-1.4,0.2c-2.5,0.9-5.6,3.3-5.6,6.2
				c0,1.8,1,2.6,2.4,3.1c1.6,0.6,3.4,0.6,4.9,0.6l-0.2,1c-3.9-0.2-8-0.8-8-4.6c0-3,2.5-5.1,5.2-6.5c-1.6,0-6.7,0.3-8.2,0.5l-0.1-1
				c0.7,0,3.3-0.1,4.5-0.2c4.1-0.2,5.1-0.2,8.4-0.2V2.2z"/>
			<path fill="#3A3A3A" d="M166,4h2.9v0.7h-2.8c0.5,0.9,1.5,2.6,2.6,3.5L168.2,9c-0.5-0.6-1.2-1.4-2.2-3v7.7h-0.8V6.3
				c-1.2,2.5-2.6,3.8-3.2,4.4l-0.4-0.9c1.7-1.5,2.8-3.2,3.5-4.9h-3.4V4h3.4V1.6c-1.3,0.2-2.2,0.3-2.9,0.3l-0.3-0.8
				c2.3-0.1,4.3-0.4,6.3-1.1l0.5,0.6c-0.5,0.2-1.3,0.5-2.8,0.8V4z M170.9,1.1v9.4h-0.9V1.1H170.9z M175,0v12.6c0,0.3,0,1.1-1.1,1.1
				h-2.3l-0.2-0.9l2.1,0.1c0.6,0,0.7-0.1,0.7-0.5V0H175z"/>
			<path fill="#3A3A3A" d="M188.2,12.5c0,0.8-0.2,1.2-1,1.2h-2.1l-0.1-0.8l2,0c0.3,0,0.3-0.3,0.3-0.5V9h-4.5v4.6H182V9h-4.3
				c-0.3,2.6-1.1,3.8-1.9,4.8l-0.6-0.6c1.3-1.6,1.7-3.3,1.7-5.9V0.6h11.3V12.5z M177.8,7.1c0,0.5,0,0.8,0,1.2h4.2V5.1h-4.2V7.1z
				 M182,1.4h-4.2v3h4.2V1.4z M187.3,1.4h-4.5v3h4.5V1.4z M187.3,5.1h-4.5v3.2h4.5V5.1z"/>
			<path fill="#3A3A3A" d="M192.5,0.5c0,1.2-0.2,6.3-0.2,7.4c0,2.3,0.1,4.5,3.4,4.5c3.2,0,4.1-1.7,4.4-2.4c0.4-0.9,0.7-2.3,0.8-3
				l0.9,0.2c-0.4,2.2-1,6-5.9,6c-4,0-4.5-2.3-4.5-5.5c0-1.1,0.1-6.2,0.1-7.2H192.5z"/>
			<path fill="#3A3A3A" d="M206.6,0.3c-0.1,0.6-0.1,1.2-0.3,2.1h4.6v0.9h-4.8c-0.7,4.3-1.7,7.9-2.8,10.2l-0.9-0.3
				c1.4-2.4,2.4-6.8,2.8-9.8h-2.4V2.5h2.5c0-0.4,0.2-1.9,0.2-2.2L206.6,0.3z M209.5,8.6c-0.5,0.8-0.8,1.3-0.8,2c0,1.6,1.8,1.7,4,1.7
				c1.1,0,2.1-0.1,3-0.1v0.9c-0.5,0-2.8,0-3,0c-2.3,0-3-0.2-3.5-0.4c-0.9-0.4-1.4-1.3-1.4-2.1c0-1,0.5-1.7,0.9-2.4L209.5,8.6z
				 M215.3,5.4c-0.4,0-0.8-0.1-1.5-0.1c-2.4,0-3.8,0.5-4.3,0.7l-0.3-0.8c0.8-0.3,2.5-0.9,6.1-0.8V5.4z"/>
		</g>
	</g>
	<g>
		<g>
			<path fill="#3A3A3A" d="M108,37.5h-0.8v-8.6c-0.8,1.2-1.3,1.7-1.5,2l-0.5-0.9c1.5-1.6,3-4.5,3.6-6.3l0.8,0.2
				c-0.2,0.6-0.5,1.7-1.5,3.6V37.5z M110.8,36.7c1.2-0.5,2.5-1.1,3.9-2.3c-1.5-2-2-4-2.2-5l0.8-0.1c0.6,2.5,1.5,3.9,2,4.6
				c1.7-1.9,2.1-4.5,2.2-5.2h-6.1v1.5c0,2.5-0.4,5.1-1.9,7.2l-0.6-0.7c1.6-2.2,1.7-5,1.7-6.5v-6h8.6V25h-7.7v3h7.1
				c-0.3,2.4-1.1,4.8-2.6,6.6c1.3,1.4,2.8,1.8,3.4,2l-0.4,0.8c-0.6-0.2-2.1-0.7-3.5-2.3c-1.5,1.4-3.2,2.1-4,2.4L110.8,36.7z"/>
			<path fill="#3A3A3A" d="M118.7,36.6c1.2-1.2,1.6-2.3,1.8-3.2l0.8,0.3c-0.3,1.3-0.8,2.4-1.8,3.5L118.7,36.6z M124.4,30
				c-0.5-0.5-1.1-1.2-1.7-2.3v4.7h-0.8v-4.7c-0.3,0.6-1,2.1-2.7,3.6l-0.5-0.8c0.7-0.6,2.1-1.9,3.1-4.2H119v-0.7h3v-1.8h0.8v1.8h2.5
				v0.7h-2.5v0.3c0.7,1.2,2,2.4,2.3,2.8L124.4,30z M123.3,33.6v2.6c0,0.5,0.1,0.5,0.6,0.5h3.2c0.9,0,0.9-0.2,1.1-1.9l0.8,0.2
				c-0.2,1.7-0.5,2.4-1.6,2.4h-3.6c-0.6,0-1.4,0-1.4-1v-2.8H123.3z M126.3,34.8c-0.8-1-1.3-1.5-2.3-2.1l0.6-0.5
				c1,0.7,1.6,1.3,2.3,2.1L126.3,34.8z M131.8,32.2h-5.8v-7.9h5.8V32.2z M131,25h-4.2v1.6h4.2V25z M131,27.3h-4.2v1.7h4.2V27.3z
				 M131,29.6h-4.2v1.8h4.2V29.6z M131.9,36.9c-0.8-1.5-1.5-2.5-2.3-3.5l0.7-0.4c0.8,0.8,1.5,1.8,2.4,3.4L131.9,36.9z"/>
			<path fill="#3A3A3A" d="M142.3,24h0.9v3.1h2.8V28h-2.8v2.3c0,1.5-0.5,3.9-2.5,5.3c-1.8,1.2-4,1.5-4.7,1.5l-0.3-0.9
				c0.8-0.1,2.8-0.2,4.6-1.4c2-1.4,2-4.3,2-4.5V28h-6.1v4.4h-0.9V28h-2.8v-0.9h2.8v-3h0.9v3h6.1V24z"/>
			<path fill="#3A3A3A" d="M159.3,30.1v1H146v-1H159.3z"/>
			<path fill="#3A3A3A" d="M159.2,36.1c1.4-1.5,3.4-4.3,3.5-11.3l1,0.2c-0.4,6.3-1.6,9.5-3.8,11.8L159.2,36.1z M169,24.8
				c0.4,6.8,2.3,9.5,4,11.3l-0.8,0.7c-2.1-2.2-3.6-5.3-4.2-11.8L169,24.8z M170.6,26.6c-0.1-0.4-0.5-1.3-1-2.2l0.7-0.3
				c0.4,0.6,0.9,1.6,1.1,2.1L170.6,26.6z M172.4,26c-0.2-0.6-0.7-1.5-1.1-2.2l0.7-0.3c0.5,0.8,0.8,1.2,1.1,2.1L172.4,26z"/>
			<path fill="#3A3A3A" d="M175.1,36c8.3-1,9.1-7.7,9.3-9.6h-10.8v-0.9h10.2c0-0.1,0-0.2,0-0.4c0-0.9,0.7-1.6,1.6-1.6
				c0.9,0,1.6,0.7,1.6,1.6c0,0.8-0.6,1.6-1.6,1.6c-0.4,2.7-1.4,8.7-9.9,10.2L175.1,36z M184.5,25.2c0,0.5,0.4,0.9,0.9,0.9
				c0.5,0,0.9-0.4,0.9-0.9c0-0.5-0.4-0.9-0.9-0.9C184.9,24.3,184.5,24.7,184.5,25.2z"/>
			<path fill="#3A3A3A" d="M199.1,28.3c-0.8,6.5-4.5,8.1-9.7,8.7l-0.2-0.9c4.3-0.4,8.1-1.5,9-6.9H187v-0.8H199.1z M198.2,24.6v0.9
				h-10v-0.9H198.2z"/>
			<path fill="#3A3A3A" d="M205.5,28.2c-1.3-0.9-3.3-1.8-4.7-2.2l0.5-0.8c1.1,0.3,3.1,1.1,4.7,2.1L205.5,28.2z M200.9,35.6
				c4.5-0.1,9.3-2.4,11.5-9.3l0.9,0.4c-0.6,1.6-1.7,4.8-4.7,7.2c-2.1,1.7-4.7,2.6-7.3,2.7L200.9,35.6z"/>
			<path fill="#3A3A3A" d="M218,34.9c0,1.2-1,2.1-2.1,2.1c-1.2,0-2.1-0.9-2.1-2.1c0-1.2,1-2.1,2.1-2.1C217,32.8,218,33.7,218,34.9z
				 M214.4,34.9c0,0.8,0.7,1.5,1.5,1.5c0.8,0,1.5-0.7,1.5-1.5c0-0.8-0.7-1.5-1.5-1.5C215.1,33.4,214.4,34.1,214.4,34.9z"/>
		</g>
	</g>
</g>
</svg>
