<?xml version="1.0" encoding="utf-8"?>
<!-- Generator: Adobe Illustrator 19.1.0, SVG Export Plug-In . SVG Version: 6.00 Build 0)  -->
<svg version="1.0" id="レイヤー_1" xmlns="http://www.w3.org/2000/svg" xmlns:xlink="http://www.w3.org/1999/xlink" x="0px"
	 y="0px" viewBox="0 0 211 60" enable-background="new 0 0 211 60" xml:space="preserve">
<g>
	<g>
		<path fill="#3A3A3A" d="M2.4,9.5l-1.2,3.2H0L4.6,0.9H6l4.6,11.8H9.4L8.2,9.5H2.4z M7.8,8.6L5.3,1.7L2.7,8.6H7.8z"/>
		<path fill="#3A3A3A" d="M10.9,0.9l2.7,11l2.6-11h1.5l2.6,11l2.7-11H24l-3,11.8h-1.5L17,1.7l-2.6,11h-1.5l-3-11.8H10.9z"/>
		<path fill="#3A3A3A" d="M31.7,4.3c0-1.5-0.3-2.6-3.4-2.6c-2.2,0-3.2,0.6-3.2,2.4c0,1.2,0.5,1.8,1.8,2l3.2,0.3
			c1,0.1,3.1,0.3,3.1,3.1c0,2.3-1.2,3.4-4.6,3.4c-3.8,0-4.7-1.5-4.7-3.8h1c0,1.7,0.4,2.9,3.7,2.9c3,0,3.6-1,3.6-2.4
			c0-1.3-0.4-2.1-2.1-2.3l-3.3-0.4C25,6.7,24.2,5.6,24.2,4c0-3.2,3-3.2,4.1-3.2c4.1,0,4.4,1.7,4.5,3.5H31.7z"/>
		<path fill="#3A3A3A" d="M36.4,0.9v10.9h6.5v0.9h-7.6V0.9H36.4z"/>
		<path fill="#3A3A3A" d="M50.5,11c0,0.2,0,1.1,0.3,1.7h-1c-0.1-0.3-0.2-0.8-0.2-1.2c-0.3,0.6-0.7,1.3-3.1,1.3
			c-1.3,0-3.3-0.1-3.3-2.6c0-2,1.4-2.6,2.6-2.6l2.8-0.1c0.5,0,1,0,1-1.2c0-0.9-0.1-1.7-2.6-1.7c-1,0-2.4,0-2.5,1.8h-1
			c0-1,0.3-2.7,3.5-2.7c3.5,0,3.5,1.6,3.5,2.8V11z M49.6,8c-0.2,0.2-0.5,0.3-0.8,0.3l-2.7,0.1c-1.8,0-1.9,1.3-1.9,1.9
			c0,1.3,0.8,1.6,2.4,1.6c2.5,0,3-1.1,3-2.5V8z"/>
		<path fill="#3A3A3A" d="M52.7,3.9l0,1c0.3-0.3,1-1.1,2.5-1.1c1.8,0,2.3,0.9,2.7,1.4c0.4-0.6,1-1.4,2.7-1.4c2.9,0,2.9,2.1,2.9,2.9
			v6.1h-1v-6c0-0.8,0-2.1-2-2.1c-2.4,0-2.4,1.7-2.4,2.3v5.8h-0.9V6.9c0-1,0-2.3-2-2.3c-1.2,0-2.4,0.4-2.4,2.1v6h-0.9V3.9H52.7z"/>
		<path fill="#3A3A3A" d="M65.7,0.9V5c0.2-0.4,0.8-1.2,2.8-1.2c3.1,0,3.5,2.1,3.5,4.4c0,3.3-0.9,4.7-3.5,4.7c-1.7,0-2.4-0.5-2.8-1.2
			l-0.1,1.1h-0.9V0.9H65.7z M65.7,8.3c0,2.9,0.9,3.7,2.7,3.7c2.4,0,2.6-1.6,2.6-3.7c0-2.2-0.3-3.7-2.7-3.7
			C66.3,4.6,65.7,5.7,65.7,8.3z"/>
		<path fill="#3A3A3A" d="M80,0.9v11.8h-0.9L79,11.6c-0.4,0.7-1.1,1.2-2.8,1.2c-2.6,0-3.5-1.3-3.5-4.7c0-2.3,0.4-4.4,3.5-4.4
			c2,0,2.5,0.8,2.8,1.2V0.9H80z M73.7,8.3c0,2.1,0.2,3.7,2.6,3.7c1.8,0,2.7-0.8,2.7-3.7c0-2.6-0.6-3.7-2.7-3.7
			C74,4.6,73.7,6.1,73.7,8.3z"/>
		<path fill="#3A3A3A" d="M88.2,11c0,0.2,0,1.1,0.3,1.7h-1c-0.1-0.3-0.2-0.8-0.2-1.2c-0.3,0.6-0.7,1.3-3.1,1.3
			c-1.3,0-3.3-0.1-3.3-2.6c0-2,1.4-2.6,2.6-2.6l2.8-0.1c0.5,0,1,0,1-1.2c0-0.9-0.1-1.7-2.6-1.7c-1,0-2.4,0-2.5,1.8h-1
			c0-1,0.3-2.7,3.5-2.7c3.5,0,3.5,1.6,3.5,2.8V11z M87.3,8c-0.2,0.2-0.5,0.3-0.8,0.3l-2.7,0.1c-1.8,0-1.9,1.3-1.9,1.9
			c0,1.3,0.8,1.6,2.4,1.6c2.5,0,3-1.1,3-2.5V8z"/>
		<path fill="#3A3A3A" d="M95.7,1.3V2h-2.6c0.4,1.1,0.5,1.2,0.6,1.6l-0.9,0.2C92.6,3,92.3,2.3,92.2,2h-1.1c-0.7,0.9-1.3,1.5-1.6,1.7
			L89,3.1c0.5-0.4,1.5-1.3,2.3-3.1l0.8,0.2c-0.2,0.5-0.3,0.8-0.5,1.1H95.7z M102,5.2h-5.6v1.7h6.5v0.7h-3v1.6h2.9v0.8h-2.9v2.8
			c0,0.9,0,1.2-1.3,1.2h-2.1L96.3,13l2.2,0.1c0.4,0,0.5-0.1,0.5-0.5V9.9h-9.8V9.2h9.8V7.6h-9.9V6.8h6.4V5.2H90V4.4h5.6V3.5h0.8v0.9
			h5.6V5.2z M94,13c-0.7-1-1.4-1.7-2.1-2.3l0.6-0.5c0.9,0.8,1.5,1.4,2.2,2.2L94,13z M102.9,1.3V2h-3.4c0.4,0.9,0.5,1.2,0.7,1.6
			l-0.8,0.2C99.1,3,98.9,2.7,98.6,2h-1.5c-0.3,0.5-0.6,0.8-1.3,1.4l-0.7-0.5C96,2.2,96.8,1.4,97.3,0l0.8,0.2
			c-0.1,0.3-0.3,0.6-0.5,1.1H102.9z"/>
		<path fill="#3A3A3A" d="M108.6,0.2c-0.1,0.5-0.2,0.9-0.4,1.9h6.8v0.8h-7c-0.6,1.7-1,2.4-1.2,2.7c0.5-0.4,1.5-1.1,2.9-1.1
			c1.9,0,2.1,1.3,2.2,2c2.3-0.9,2.6-1,4.1-1.6l0.3,0.9c-1.4,0.5-3,1-4.3,1.5c0.1,0.7,0.1,1.5,0.1,2.1c0,0.2,0,0.6-0.1,1H111
			c0-0.5,0.1-0.8,0.1-1.5c0-0.1,0-0.7,0-1.2c-2,0.9-3.7,2-3.7,3.3c0,1.5,2.1,1.5,3.7,1.5c2.1,0,3.5-0.2,4.2-0.2l0.1,0.9
			c-0.8,0.1-2,0.2-3.9,0.2c-1.6,0-5,0-5-2.3c0-1.9,2.2-3.3,4.5-4.2c-0.1-0.7-0.3-1.6-1.5-1.6c-1.5,0-2.9,1.4-3.1,1.6
			c-0.2,0.2-2,2.6-2.5,3.1l-0.6-0.7c0.8-0.7,2.4-2.2,3.7-6.2h-3.4V2.1h3.7c0.3-0.9,0.3-1.4,0.4-1.9L108.6,0.2z"/>
		<path fill="#3A3A3A" d="M129,1.5c-0.2,3-1,10-9.8,11.7l-0.3-0.9c7.9-1.6,8.8-6.9,9-9.9h-10.6V1.5H129z"/>
		<path fill="#3A3A3A" d="M133.2,4.9c0,3.1-0.5,5.9-3.1,8.5l-0.6-0.7c2.7-2.5,2.8-5.7,2.8-7.8V1h0.9V4.9z M137.2,12.1
			c4-0.8,4.9-3.5,5.4-6.4l0.8,0.3c-0.6,2.7-1.6,6.5-7.1,7.1V0.6h0.9V12.1z"/>
		<path fill="#3A3A3A" d="M146,0.8c-0.3,1.5-0.7,3.4-0.7,7c0,3.4,0.3,4.8,0.5,5.5l-1,0.1c-0.2-1.1-0.4-2.7-0.4-5.4
			c0-2.4,0.1-4.8,0.7-7.2L146,0.8z M149.9,7.3c-0.8,1.1-0.8,2.1-0.8,2.2c0,1.6,1.9,1.8,3.6,1.8c0.2,0,2.4,0,3.4-0.2v1
			c-0.9,0.1-1.6,0.1-2.7,0.1c-1.9,0-5.2,0-5.2-2.7c0-0.7,0.2-1.5,0.8-2.5L149.9,7.3z M155.8,2v0.9h-7V2H155.8z"/>
		<path fill="#3A3A3A" d="M160.9,4.2h2.9v0.7H161c0.5,0.9,1.5,2.6,2.6,3.5l-0.5,0.8c-0.5-0.6-1.2-1.4-2.2-3v7.7h-0.8V6.4
			c-1.2,2.5-2.6,3.8-3.2,4.4l-0.4-0.9c1.7-1.5,2.8-3.2,3.5-4.9h-3.4V4.2h3.4V1.7c-1.3,0.2-2.2,0.3-2.9,0.3l-0.3-0.8
			c2.3-0.1,4.3-0.4,6.3-1.1l0.5,0.6c-0.5,0.2-1.3,0.5-2.8,0.8V4.2z M165.8,1.2v9.4h-0.9V1.2H165.8z M169.9,0.1v12.6
			c0,0.3,0,1.1-1.1,1.1h-2.3l-0.2-0.9l2.1,0.1c0.6,0,0.7-0.1,0.7-0.5V0.1H169.9z"/>
		<path fill="#3A3A3A" d="M183,12.6c0,0.8-0.2,1.2-1,1.2h-2.1l-0.1-0.8l2,0c0.3,0,0.3-0.3,0.3-0.5V9.1h-4.5v4.6h-0.8V9.1h-4.3
			c-0.3,2.6-1.1,3.8-1.9,4.8l-0.6-0.6c1.3-1.6,1.7-3.3,1.7-5.9V0.7H183V12.6z M172.6,7.2c0,0.5,0,0.8,0,1.2h4.2V5.2h-4.2V7.2z
			 M176.8,1.5h-4.2v3h4.2V1.5z M182.2,1.5h-4.5v3h4.5V1.5z M182.2,5.2h-4.5v3.2h4.5V5.2z"/>
		<path fill="#3A3A3A" d="M187.4,0.6c0,1.2-0.2,6.3-0.2,7.4c0,2.3,0.1,4.5,3.4,4.5c3.2,0,4.1-1.7,4.4-2.4c0.4-0.9,0.7-2.3,0.8-3
			l0.9,0.2c-0.4,2.2-1,6-5.9,6c-4,0-4.5-2.3-4.5-5.5c0-1.1,0.1-6.2,0.1-7.2H187.4z"/>
		<path fill="#3A3A3A" d="M201.5,0.5c-0.1,0.6-0.1,1.2-0.3,2.1h4.6v0.9h-4.8c-0.7,4.3-1.7,7.9-2.8,10.2l-0.9-0.3
			c1.4-2.4,2.4-6.8,2.8-9.8h-2.4V2.6h2.5c0-0.4,0.2-1.9,0.2-2.2L201.5,0.5z M204.4,8.7c-0.5,0.8-0.8,1.3-0.8,2c0,1.6,1.8,1.7,4,1.7
			c1.1,0,2.1-0.1,3-0.1v0.9c-0.5,0-2.8,0-3,0c-2.3,0-3-0.2-3.5-0.4c-0.9-0.4-1.4-1.3-1.4-2.1c0-1,0.5-1.7,0.9-2.4L204.4,8.7z
			 M210.2,5.5c-0.4,0-0.8-0.1-1.5-0.1c-2.4,0-3.8,0.5-4.3,0.7l-0.3-0.8c0.8-0.3,2.5-0.9,6.1-0.8V5.5z"/>
	</g>
	<g>
		<g>
			<path fill="#3A3A3A" d="M73.3,35.3c-3.1-1.1-4.2-2-5.8-3.6v3.8h-0.8v-3.8c-0.5,0.5-2.1,2.3-5.9,3.5l-0.5-0.8
				c3-0.8,4.4-1.8,5.8-3.1h-5.8v-0.7h6.5v-1.3h-5.4v-0.7h5.4v-1.2h-5.9v-0.7h3.8c-0.1-0.5-0.5-1.5-0.6-1.8h-3.8v-0.7h2.9
				c-0.3-0.7-0.7-1.2-1.2-1.9l0.8-0.4c0.7,0.9,1,1.7,1.3,2.3h1.3v-2.4h0.8v2.4H68v-2.4h0.8v2.4h1.2c0.6-0.8,1-1.5,1.4-2.3l0.8,0.4
				c-0.4,0.7-0.8,1.3-1.3,1.9H74v0.7H70c-0.3,1.1-0.4,1.4-0.6,1.8h3.9v0.7h-5.9v1.2h5.4v0.7h-5.4v1.3H74v0.7h-5.9
				c1.7,1.6,3.5,2.6,5.7,3.1L73.3,35.3z M68.7,26.7c0.2-0.5,0.5-1.6,0.6-1.8h-4.4c0.1,0.3,0.5,1.5,0.6,1.8H68.7z"/>
			<path fill="#3A3A3A" d="M83.5,35.5h-0.9v-6h0.8c-0.8-0.7-1.2-1.2-1.5-1.6h-2.8c-1.4,1.9-3.5,2.9-5.4,3.6l-0.4-0.8
				c3.3-0.9,4.3-2.2,4.8-2.8h-3.4v-5.8h11.5V28H83c0.5,0.7,1.5,1.8,4.7,2.8l-0.5,0.7c-1-0.3-2.4-0.9-3.6-1.9V35.5z M74.2,34.8
				c1.3-0.3,2.7-1,3.2-2.3c0.3-0.7,0.3-2,0.3-2.9h0.9c0,1.2-0.1,2.5-0.5,3.4c-0.6,1.5-2.1,2.3-3.6,2.7L74.2,34.8z M80.2,22.9h-4.5
				v1.8h4.5V22.9z M80.2,25.4h-4.5v1.8h4.5V25.4z M85.5,22.9h-4.6v1.8h4.6V22.9z M85.5,25.4h-4.6v1.8h4.6V25.4z"/>
			<path fill="#3A3A3A" d="M87.1,34c0.4,0,0.8-0.1,1.5-0.2v-5.9h-1.3v-0.7h13.7v0.7h-7.3v7.6h-0.8v-1.7c-0.8,0.2-4,0.8-5.6,1
				L87.1,34z M99.4,22.2v4.1H88.8v-4.1H99.4z M92.8,27.9h-3.5v1.4h3.5V27.9z M92.8,29.9h-3.5v1.4h3.5V29.9z M89.3,33.7
				c0.5-0.1,2.3-0.4,3.5-0.6V32h-3.5V33.7z M98.6,22.9h-9v1h9V22.9z M98.6,24.5h-9v1.1h9V24.5z M100.5,35.5
				c-0.8-0.3-1.9-0.8-3.1-1.8c-1.2,1-2.3,1.5-3,1.8l-0.5-0.8c0.6-0.2,1.7-0.6,2.9-1.6C95.8,32,95.2,31,95,30.4l0.7-0.3
				c0.3,0.5,0.7,1.4,1.7,2.5c1.2-1.2,1.7-2.4,1.8-2.9h-5.2V29h6.1v0.7c-0.2,0.5-0.8,2.1-2.1,3.4c1.3,1.1,2.4,1.4,3,1.6L100.5,35.5z"
				/>
			<path fill="#3A3A3A" d="M107.2,23.9v-2.1h0.8v2.1h5.6v0.8H108v3.3h6.4v0.8h-4.8v5.4c0,0.4,0,0.4,0.4,0.4h2.5c0.5,0,0.6,0,0.8-0.4
				c0-0.2,0.2-0.6,0.3-1.9l0.9,0.2c-0.2,2.9-0.9,2.9-1.7,2.9h-2.6c-1,0-1.3-0.1-1.3-1.2v-5.5h-2.7c-0.1,3.2-1.2,5.8-5,6.9l-0.4-0.9
				c3.7-0.9,4.5-3.2,4.5-6.1h-4.5v-0.8h6.5v-3.3h-3.3c-0.7,1.5-1.4,2.3-1.7,2.7l-0.8-0.5c1.7-1.7,2.4-4.2,2.6-4.9l0.8,0.2
				c-0.2,0.6-0.3,1.1-0.6,1.7H107.2z"/>
			<path fill="#3A3A3A" d="M118.9,31.8v0.7c-0.9,0.3-3.5,1.1-4.6,1.3l-0.2-0.8c0.4-0.1,0.8-0.1,2.6-0.6c0.4-1.6,0.8-5.2,1-6.5
				l0.8,0.1c-0.1,1.1-0.7,5-0.9,6.1L118.9,31.8z M116.9,21.8v2.5h1.9v0.8h-4.5v-0.8h1.8v-2.5H116.9z M114.9,31.3
				c0-1.8-0.2-3.4-0.5-5.2l0.8-0.1c0.4,1.9,0.5,3.9,0.5,5.2L114.9,31.3z M127.9,26.8v0.8h-4c-0.2,0.7-0.2,0.9-0.4,1.5h3.9v5.5
				c0,0.4,0,0.9-1.1,0.9h-0.9l-0.2-0.9l1,0c0.4,0,0.4-0.2,0.4-0.4v-4.5h-1.8v5.7h-0.7v-5.7h-1.6v5.7h-0.7v-5.7h-1.6v5.8h-0.8V29h3.2
				c0.2-0.4,0.3-1.2,0.4-1.5h-4.2v-0.8H127.9z M120.3,22.2v2.7h2.7v-3h0.8v3h2.7v-2.7h0.8v3.4h-7.8v-3.4H120.3z"/>
			<path fill="#3A3A3A" d="M132.3,22.1c-0.2,0.8-0.3,1.5-0.4,2.1h3.6v0.9h-3.7c-0.9,3.8-1.8,6.3-2.9,8.2l-0.9-0.5
				c1.7-2.7,2.5-5.9,2.9-7.7H128v-0.9h3.1c0.2-0.9,0.3-1.6,0.3-2.2L132.3,22.1z M141.1,25c-0.4,0-0.6,0-1.1,0
				c-1.2,0-1.7,0.1-2.2,0.1l0.1,5.2c1.3,0.5,2.7,1.5,3.5,2.5l-0.6,0.7c-1-1.3-2.2-1.9-2.9-2.3V32c0,0.9,0,1.2-0.2,1.7
				c-0.6,1.3-2.2,1.4-2.7,1.4c-2.5,0-3.5-1.4-3.5-2.6c0-1,0.8-2.7,3.6-2.7c0.9,0,1.5,0.1,1.9,0.2l-0.1-5.6c1.9-0.3,3.5-0.3,4.2-0.3
				V25z M137,30.8c-0.4-0.1-1-0.3-1.9-0.3c-1.9,0-2.7,0.9-2.7,2c0,1.8,2.2,1.8,2.5,1.8c1.9,0,2.1-1,2.1-2.3V30.8z"/>
			<path fill="#3A3A3A" d="M156.1,29.3h-4.6v4.8c0,0.4,0.1,0.5,0.6,0.5h2.6c0.3,0,0.4,0,0.5-0.2c0.1-0.2,0.1-0.3,0.2-2.2l0.8,0.3
				c-0.1,2.4-0.3,2.8-1.4,2.8h-2.9c-0.4,0-1.2,0-1.2-1.1v-5h-3c-0.1,3.5-1.4,5.5-5.1,6.3l-0.4-0.8c3.7-0.7,4.5-2.7,4.6-5.6h-4.4
				v-0.8h13.7V29.3z M149.7,21.8v1.3h6.2v3.6H155v-2.9h-11.4v2.9h-0.9v-3.6h6.1v-1.3H149.7z M154.2,25.8v0.7h-9.8v-0.7H154.2z"/>
			<path fill="#3A3A3A" d="M155.7,27c1.9-0.8,4.7-2.3,6.7-5.2h0.9c1.3,2,4,4.3,6.5,5.2l-0.4,0.8c-2.5-1.1-5-3.1-6.6-5.3
				c-1.3,1.8-3.8,4-6.7,5.3L155.7,27z M163.2,27.5v2.6h4.9v0.8h-4.9v3.4h6.5v0.8h-13.7v-0.8h6.4v-3.4h-4.9v-0.8h4.9v-2.6h-3.6v-0.8
				h8.1v0.8H163.2z"/>
			<path fill="#3A3A3A" d="M179.4,22.1h0.9v3.1h2.8v0.9h-2.8v2.3c0,1.5-0.5,3.9-2.5,5.3c-1.8,1.2-4,1.5-4.7,1.5l-0.3-0.9
				c0.8-0.1,2.8-0.2,4.6-1.4c2-1.4,2-4.3,2-4.5v-2.3h-6.1v4.4h-0.9v-4.4h-2.8v-0.9h2.8v-3h0.9v3h6.1V22.1z"/>
			<path fill="#3A3A3A" d="M196.4,28.2v1h-13.3v-1H196.4z"/>
			<path fill="#3A3A3A" d="M196.3,34.1c1.4-1.5,3.4-4.3,3.5-11.3l1,0.2c-0.4,6.3-1.6,9.5-3.8,11.8L196.3,34.1z M206.1,22.8
				c0.4,6.8,2.3,9.5,4,11.3l-0.8,0.7c-2.1-2.2-3.6-5.3-4.2-11.8L206.1,22.8z M207.7,24.6c-0.1-0.4-0.5-1.3-1-2.2l0.7-0.3
				c0.4,0.6,0.9,1.6,1.1,2.1L207.7,24.6z M209.5,24c-0.2-0.6-0.7-1.5-1.1-2.2l0.7-0.3c0.5,0.8,0.8,1.2,1.1,2.1L209.5,24z"/>
		</g>
	</g>
	<g>
		<g>
			<path fill="#3A3A3A" d="M88.9,58.1c6.3-0.7,8.1-4,9.4-8l0.8,0.5c-1.3,3.7-3.1,8-11.1,8.5V46.5h0.9V58.1z"/>
			<path fill="#3A3A3A" d="M99.6,58.4c3-1.3,7.4-4.4,9.5-10.4h-8.8v-0.9h9.9c-0.6,2.3-1.6,4.4-3.1,6.3c0.5,0.4,2.9,2.3,5.4,4.8
				l-0.8,0.7c-1.4-1.5-3.9-3.8-5.2-4.9c-1.8,2.1-3.9,3.8-6.4,5L99.6,58.4z"/>
			<path fill="#3A3A3A" d="M122.7,46.3h0.9v3.1h2.8v0.9h-2.8v2.3c0,1.5-0.5,3.9-2.5,5.3c-1.8,1.2-4,1.5-4.7,1.5l-0.3-0.9
				c0.8-0.1,2.8-0.2,4.6-1.4c2-1.4,2-4.3,2-4.5v-2.3h-6.1v4.4h-0.9v-4.4H113v-0.9h2.8v-3h0.9v3h6.1V46.3z"/>
			<path fill="#3A3A3A" d="M139.5,52.4v1h-13.3v-1H139.5z"/>
			<path fill="#3A3A3A" d="M141.8,46.8v5.1c2.2-0.5,5.6-1.4,8.4-3.1l0.6,0.8c-2.5,1.6-7,2.8-9,3.2v3.8c0,1.2,0.1,1.5,2.5,1.5h4
				c1,0,2.5-0.1,3.5-0.2l0.1,0.9c-0.9,0.1-2.7,0.2-3.6,0.2h-3.9c-2.8,0-3.3-0.6-3.3-2.3v-9.8H141.8z M150.7,48.4
				c-0.1-0.3-0.5-1.1-1.1-2.1l0.7-0.3c0.4,0.6,0.8,1.3,1.1,2L150.7,48.4z M152.6,47.9c-0.1-0.2-0.6-1.2-1.1-2l0.7-0.4
				c0.5,0.7,0.8,1.2,1.1,2L152.6,47.9z"/>
			<path fill="#3A3A3A" d="M153,58.4c3-1.3,7.4-4.4,9.5-10.4h-8.8v-0.9h9.9c-0.6,2.3-1.6,4.4-3.1,6.3c0.5,0.4,2.9,2.3,5.4,4.8
				l-0.8,0.7c-1.4-1.5-3.9-3.8-5.2-4.9c-1.8,2.1-3.9,3.8-6.4,5L153,58.4z"/>
			<path fill="#3A3A3A" d="M167.9,58.3c8.3-1,9.1-7.7,9.3-9.6h-10.8v-0.9h10.2c0-0.1,0-0.2,0-0.4c0-0.9,0.7-1.6,1.6-1.6
				c0.9,0,1.6,0.7,1.6,1.6c0,0.8-0.6,1.6-1.6,1.6c-0.4,2.7-1.4,8.7-9.9,10.2L167.9,58.3z M177.2,47.5c0,0.5,0.4,0.9,0.9,0.9
				c0.5,0,0.9-0.4,0.9-0.9c0-0.5-0.4-0.9-0.9-0.9C177.7,46.6,177.2,47,177.2,47.5z"/>
			<path fill="#3A3A3A" d="M191.8,50.5c-0.8,6.5-4.5,8.1-9.7,8.7l-0.2-0.9c4.3-0.4,8.1-1.5,9-6.9h-11.1v-0.8H191.8z M190.9,46.9v0.9
				h-10v-0.9H190.9z"/>
			<path fill="#3A3A3A" d="M198.2,50.4c-1.3-0.9-3.3-1.8-4.7-2.2l0.5-0.8c1.1,0.3,3.1,1.1,4.7,2.1L198.2,50.4z M193.7,57.8
				c4.5-0.1,9.3-2.4,11.5-9.3l0.9,0.4c-0.6,1.6-1.7,4.8-4.7,7.2c-2.1,1.7-4.7,2.6-7.3,2.7L193.7,57.8z"/>
			<path fill="#3A3A3A" d="M210.1,57.2c0,1.2-1,2.1-2.1,2.1c-1.2,0-2.1-0.9-2.1-2.1c0-1.2,1-2.1,2.1-2.1
				C209.2,55.1,210.1,56,210.1,57.2z M206.6,57.2c0,0.8,0.7,1.5,1.5,1.5c0.8,0,1.5-0.7,1.5-1.5c0-0.8-0.7-1.5-1.5-1.5
				C207.2,55.7,206.6,56.4,206.6,57.2z"/>
		</g>
	</g>
</g>
</svg>
