<?xml version="1.0" encoding="utf-8"?>
<!-- Generator: Adobe Illustrator 19.1.0, SVG Export Plug-In . SVG Version: 6.00 Build 0)  -->
<svg version="1.0" id="レイヤー_1" xmlns="http://www.w3.org/2000/svg" xmlns:xlink="http://www.w3.org/1999/xlink" x="0px"
	 y="0px" viewBox="0 0 400 464" enable-background="new 0 0 400 464" xml:space="preserve">
<polygon fill="#0A5DC1" points="0,115.6 200,0 400,115.6 400,346.7 200,462.2 0,346.7 "/>
<g>
	<defs>
		<polygon id="SVGID_1_" points="0,115.6 200,0 400,115.6 400,346.7 200,462.2 0,346.7 		"/>
	</defs>
	<clipPath id="SVGID_2_">
		<use xlink:href="#SVGID_1_"  overflow="visible"/>
	</clipPath>
	<g clip-path="url(#SVGID_2_)">
		<line fill="none" stroke="#00A0E9" stroke-width="0.5" stroke-miterlimit="10" x1="-218.9" y1="517.4" x2="75.8" y2="-46.9"/>
		<line fill="none" stroke="#00A0E9" stroke-width="0.5" stroke-miterlimit="10" x1="-212.9" y1="517.4" x2="81.8" y2="-46.9"/>
		<line fill="none" stroke="#00A0E9" stroke-width="0.5" stroke-miterlimit="10" x1="-206.9" y1="517.4" x2="87.8" y2="-46.9"/>
		<line fill="none" stroke="#00A0E9" stroke-width="0.5" stroke-miterlimit="10" x1="-200.9" y1="517.4" x2="93.8" y2="-46.9"/>
		<line fill="none" stroke="#00A0E9" stroke-width="0.5" stroke-miterlimit="10" x1="-194.9" y1="517.4" x2="99.8" y2="-46.9"/>
		<line fill="none" stroke="#00A0E9" stroke-width="0.5" stroke-miterlimit="10" x1="-188.9" y1="517.4" x2="105.8" y2="-46.9"/>
		<line fill="none" stroke="#00A0E9" stroke-width="0.5" stroke-miterlimit="10" x1="-182.9" y1="517.4" x2="111.8" y2="-46.9"/>
		<line fill="none" stroke="#00A0E9" stroke-width="0.5" stroke-miterlimit="10" x1="-176.9" y1="517.4" x2="117.8" y2="-46.9"/>
		<line fill="none" stroke="#00A0E9" stroke-width="0.5" stroke-miterlimit="10" x1="-170.9" y1="517.4" x2="123.8" y2="-46.9"/>
		<line fill="none" stroke="#00A0E9" stroke-width="0.5" stroke-miterlimit="10" x1="-164.9" y1="517.4" x2="129.8" y2="-46.9"/>
		<line fill="none" stroke="#00A0E9" stroke-width="0.5" stroke-miterlimit="10" x1="-158.9" y1="517.4" x2="135.8" y2="-46.9"/>
		<line fill="none" stroke="#00A0E9" stroke-width="0.5" stroke-miterlimit="10" x1="-152.9" y1="517.4" x2="141.8" y2="-46.9"/>
		<line fill="none" stroke="#00A0E9" stroke-width="0.5" stroke-miterlimit="10" x1="-146.9" y1="517.4" x2="147.8" y2="-46.9"/>
		<line fill="none" stroke="#00A0E9" stroke-width="0.5" stroke-miterlimit="10" x1="-140.9" y1="517.4" x2="153.8" y2="-46.9"/>
		<line fill="none" stroke="#00A0E9" stroke-width="0.5" stroke-miterlimit="10" x1="-134.9" y1="517.4" x2="159.8" y2="-46.9"/>
		<line fill="none" stroke="#00A0E9" stroke-width="0.5" stroke-miterlimit="10" x1="-128.9" y1="517.4" x2="165.8" y2="-46.9"/>
		<line fill="none" stroke="#00A0E9" stroke-width="0.5" stroke-miterlimit="10" x1="-122.9" y1="517.4" x2="171.8" y2="-46.9"/>
		<line fill="none" stroke="#00A0E9" stroke-width="0.5" stroke-miterlimit="10" x1="-116.9" y1="517.4" x2="177.8" y2="-46.9"/>
		<line fill="none" stroke="#00A0E9" stroke-width="0.5" stroke-miterlimit="10" x1="-110.9" y1="517.4" x2="183.8" y2="-46.9"/>
		<line fill="none" stroke="#00A0E9" stroke-width="0.5" stroke-miterlimit="10" x1="-104.9" y1="517.4" x2="189.8" y2="-46.9"/>
		<line fill="none" stroke="#00A0E9" stroke-width="0.5" stroke-miterlimit="10" x1="-98.9" y1="517.4" x2="195.8" y2="-46.9"/>
		<line fill="none" stroke="#00A0E9" stroke-width="0.5" stroke-miterlimit="10" x1="-92.9" y1="517.4" x2="201.8" y2="-46.9"/>
		<line fill="none" stroke="#00A0E9" stroke-width="0.5" stroke-miterlimit="10" x1="-86.9" y1="517.4" x2="207.8" y2="-46.9"/>
		<line fill="none" stroke="#00A0E9" stroke-width="0.5" stroke-miterlimit="10" x1="-80.9" y1="517.4" x2="213.8" y2="-46.9"/>
		<line fill="none" stroke="#00A0E9" stroke-width="0.5" stroke-miterlimit="10" x1="-74.9" y1="517.4" x2="219.8" y2="-46.9"/>
		<line fill="none" stroke="#00A0E9" stroke-width="0.5" stroke-miterlimit="10" x1="-68.9" y1="517.4" x2="225.8" y2="-46.9"/>
		<line fill="none" stroke="#00A0E9" stroke-width="0.5" stroke-miterlimit="10" x1="-62.9" y1="517.4" x2="231.8" y2="-46.9"/>
		<line fill="none" stroke="#00A0E9" stroke-width="0.5" stroke-miterlimit="10" x1="-56.9" y1="517.4" x2="237.8" y2="-46.9"/>
		<line fill="none" stroke="#00A0E9" stroke-width="0.5" stroke-miterlimit="10" x1="-50.9" y1="517.4" x2="243.8" y2="-46.9"/>
		<line fill="none" stroke="#00A0E9" stroke-width="0.5" stroke-miterlimit="10" x1="-44.9" y1="517.4" x2="249.8" y2="-46.9"/>
		<line fill="none" stroke="#00A0E9" stroke-width="0.5" stroke-miterlimit="10" x1="-38.9" y1="517.4" x2="255.8" y2="-46.9"/>
		<line fill="none" stroke="#00A0E9" stroke-width="0.5" stroke-miterlimit="10" x1="-32.9" y1="517.4" x2="261.8" y2="-46.9"/>
		<line fill="none" stroke="#00A0E9" stroke-width="0.5" stroke-miterlimit="10" x1="-26.9" y1="517.4" x2="267.8" y2="-46.9"/>
		<line fill="none" stroke="#00A0E9" stroke-width="0.5" stroke-miterlimit="10" x1="-20.9" y1="517.4" x2="273.8" y2="-46.9"/>
		<line fill="none" stroke="#00A0E9" stroke-width="0.5" stroke-miterlimit="10" x1="-14.9" y1="517.4" x2="279.8" y2="-46.9"/>
		<line fill="none" stroke="#00A0E9" stroke-width="0.5" stroke-miterlimit="10" x1="-8.9" y1="517.4" x2="285.8" y2="-46.9"/>
		<line fill="none" stroke="#00A0E9" stroke-width="0.5" stroke-miterlimit="10" x1="-2.9" y1="517.4" x2="291.8" y2="-46.9"/>
		<line fill="none" stroke="#00A0E9" stroke-width="0.5" stroke-miterlimit="10" x1="3.1" y1="517.4" x2="297.8" y2="-46.9"/>
		<line fill="none" stroke="#00A0E9" stroke-width="0.5" stroke-miterlimit="10" x1="9.1" y1="517.4" x2="303.8" y2="-46.9"/>
		<line fill="none" stroke="#00A0E9" stroke-width="0.5" stroke-miterlimit="10" x1="15.1" y1="517.4" x2="309.8" y2="-46.9"/>
		<line fill="none" stroke="#00A0E9" stroke-width="0.5" stroke-miterlimit="10" x1="21.1" y1="517.4" x2="315.8" y2="-46.9"/>
		<line fill="none" stroke="#00A0E9" stroke-width="0.5" stroke-miterlimit="10" x1="27.1" y1="517.4" x2="321.8" y2="-46.9"/>
		<line fill="none" stroke="#00A0E9" stroke-width="0.5" stroke-miterlimit="10" x1="33.1" y1="517.4" x2="327.8" y2="-46.9"/>
		<line fill="none" stroke="#00A0E9" stroke-width="0.5" stroke-miterlimit="10" x1="39.1" y1="517.4" x2="333.8" y2="-46.9"/>
		<line fill="none" stroke="#00A0E9" stroke-width="0.5" stroke-miterlimit="10" x1="45.1" y1="517.4" x2="339.8" y2="-46.9"/>
		<line fill="none" stroke="#00A0E9" stroke-width="0.5" stroke-miterlimit="10" x1="51.1" y1="517.4" x2="345.8" y2="-46.9"/>
		<line fill="none" stroke="#00A0E9" stroke-width="0.5" stroke-miterlimit="10" x1="57.1" y1="517.4" x2="351.8" y2="-46.9"/>
		<line fill="none" stroke="#00A0E9" stroke-width="0.5" stroke-miterlimit="10" x1="63.1" y1="517.4" x2="357.8" y2="-46.9"/>
		<line fill="none" stroke="#00A0E9" stroke-width="0.5" stroke-miterlimit="10" x1="69.1" y1="517.4" x2="363.8" y2="-46.9"/>
		<line fill="none" stroke="#00A0E9" stroke-width="0.5" stroke-miterlimit="10" x1="75.1" y1="517.4" x2="369.8" y2="-46.9"/>
		<line fill="none" stroke="#00A0E9" stroke-width="0.5" stroke-miterlimit="10" x1="81.1" y1="517.4" x2="375.8" y2="-46.9"/>
		<line fill="none" stroke="#00A0E9" stroke-width="0.5" stroke-miterlimit="10" x1="87.1" y1="517.4" x2="381.8" y2="-46.9"/>
		<line fill="none" stroke="#00A0E9" stroke-width="0.5" stroke-miterlimit="10" x1="93.1" y1="517.4" x2="387.8" y2="-46.9"/>
		<line fill="none" stroke="#00A0E9" stroke-width="0.5" stroke-miterlimit="10" x1="99.1" y1="517.4" x2="393.8" y2="-46.9"/>
		<line fill="none" stroke="#00A0E9" stroke-width="0.5" stroke-miterlimit="10" x1="105.1" y1="517.4" x2="399.8" y2="-46.9"/>
		<line fill="none" stroke="#00A0E9" stroke-width="0.5" stroke-miterlimit="10" x1="111.1" y1="517.4" x2="405.8" y2="-46.9"/>
		<line fill="none" stroke="#00A0E9" stroke-width="0.5" stroke-miterlimit="10" x1="117.1" y1="517.4" x2="411.8" y2="-46.9"/>
		<line fill="none" stroke="#00A0E9" stroke-width="0.5" stroke-miterlimit="10" x1="123.1" y1="517.4" x2="417.8" y2="-46.9"/>
		<line fill="none" stroke="#00A0E9" stroke-width="0.5" stroke-miterlimit="10" x1="129.1" y1="517.4" x2="423.8" y2="-46.9"/>
		<line fill="none" stroke="#00A0E9" stroke-width="0.5" stroke-miterlimit="10" x1="135.1" y1="517.4" x2="429.8" y2="-46.9"/>
		<line fill="none" stroke="#00A0E9" stroke-width="0.5" stroke-miterlimit="10" x1="141.1" y1="517.4" x2="435.8" y2="-46.9"/>
		<line fill="none" stroke="#00A0E9" stroke-width="0.5" stroke-miterlimit="10" x1="147.1" y1="517.4" x2="441.8" y2="-46.9"/>
		<line fill="none" stroke="#00A0E9" stroke-width="0.5" stroke-miterlimit="10" x1="153.1" y1="517.4" x2="447.8" y2="-46.9"/>
		<line fill="none" stroke="#00A0E9" stroke-width="0.5" stroke-miterlimit="10" x1="159.1" y1="517.4" x2="453.8" y2="-46.9"/>
		<line fill="none" stroke="#00A0E9" stroke-width="0.5" stroke-miterlimit="10" x1="165.1" y1="517.4" x2="459.8" y2="-46.9"/>
		<line fill="none" stroke="#00A0E9" stroke-width="0.5" stroke-miterlimit="10" x1="171.1" y1="517.4" x2="465.8" y2="-46.9"/>
		<line fill="none" stroke="#00A0E9" stroke-width="0.5" stroke-miterlimit="10" x1="177.1" y1="517.4" x2="471.8" y2="-46.9"/>
		<line fill="none" stroke="#00A0E9" stroke-width="0.5" stroke-miterlimit="10" x1="183.1" y1="517.4" x2="477.8" y2="-46.9"/>
		<line fill="none" stroke="#00A0E9" stroke-width="0.5" stroke-miterlimit="10" x1="189.1" y1="517.4" x2="483.8" y2="-46.9"/>
		<line fill="none" stroke="#00A0E9" stroke-width="0.5" stroke-miterlimit="10" x1="195.1" y1="517.4" x2="489.8" y2="-46.9"/>
		<line fill="none" stroke="#00A0E9" stroke-width="0.5" stroke-miterlimit="10" x1="201.1" y1="517.4" x2="495.8" y2="-46.9"/>
		<line fill="none" stroke="#00A0E9" stroke-width="0.5" stroke-miterlimit="10" x1="207.1" y1="517.4" x2="501.8" y2="-46.9"/>
		<line fill="none" stroke="#00A0E9" stroke-width="0.5" stroke-miterlimit="10" x1="213.1" y1="517.4" x2="507.8" y2="-46.9"/>
		<line fill="none" stroke="#00A0E9" stroke-width="0.5" stroke-miterlimit="10" x1="219.1" y1="517.4" x2="513.8" y2="-46.9"/>
		<line fill="none" stroke="#00A0E9" stroke-width="0.5" stroke-miterlimit="10" x1="225.1" y1="517.4" x2="519.8" y2="-46.9"/>
		<line fill="none" stroke="#00A0E9" stroke-width="0.5" stroke-miterlimit="10" x1="231.1" y1="517.4" x2="525.8" y2="-46.9"/>
		<line fill="none" stroke="#00A0E9" stroke-width="0.5" stroke-miterlimit="10" x1="237.1" y1="517.4" x2="531.8" y2="-46.9"/>
		<line fill="none" stroke="#00A0E9" stroke-width="0.5" stroke-miterlimit="10" x1="243.1" y1="517.4" x2="537.8" y2="-46.9"/>
		<line fill="none" stroke="#00A0E9" stroke-width="0.5" stroke-miterlimit="10" x1="249.1" y1="517.4" x2="543.8" y2="-46.9"/>
		<line fill="none" stroke="#00A0E9" stroke-width="0.5" stroke-miterlimit="10" x1="255.1" y1="517.4" x2="549.8" y2="-46.9"/>
		<line fill="none" stroke="#00A0E9" stroke-width="0.5" stroke-miterlimit="10" x1="261.1" y1="517.4" x2="555.8" y2="-46.9"/>
		<line fill="none" stroke="#00A0E9" stroke-width="0.5" stroke-miterlimit="10" x1="267.1" y1="517.4" x2="561.8" y2="-46.9"/>
		<line fill="none" stroke="#00A0E9" stroke-width="0.5" stroke-miterlimit="10" x1="273.1" y1="517.4" x2="567.8" y2="-46.9"/>
		<line fill="none" stroke="#00A0E9" stroke-width="0.5" stroke-miterlimit="10" x1="279.1" y1="517.4" x2="573.8" y2="-46.9"/>
		<line fill="none" stroke="#00A0E9" stroke-width="0.5" stroke-miterlimit="10" x1="285.1" y1="517.4" x2="579.8" y2="-46.9"/>
		<line fill="none" stroke="#00A0E9" stroke-width="0.5" stroke-miterlimit="10" x1="291.1" y1="517.4" x2="585.8" y2="-46.9"/>
		<line fill="none" stroke="#00A0E9" stroke-width="0.5" stroke-miterlimit="10" x1="297.1" y1="517.4" x2="591.8" y2="-46.9"/>
		<line fill="none" stroke="#00A0E9" stroke-width="0.5" stroke-miterlimit="10" x1="303.1" y1="517.4" x2="597.8" y2="-46.9"/>
		<line fill="none" stroke="#00A0E9" stroke-width="0.5" stroke-miterlimit="10" x1="309.1" y1="517.4" x2="603.8" y2="-46.9"/>
		<line fill="none" stroke="#00A0E9" stroke-width="0.5" stroke-miterlimit="10" x1="315.1" y1="517.4" x2="609.8" y2="-46.9"/>
	</g>
</g>
<g>
	<g>
		<path fill="#FFFFFF" d="M97.8,103.2h2.4v3.4h6.7v2.2h-6.7v3.7c0.9-0.2,2.3-0.5,4.4-0.5c1.5,0,4.3,0.2,6.3,1.7
			c1.5,1.2,2.6,3.3,2.6,5.6c0,7.1-8.6,6.9-11,6.9l-0.5-2.2c3.5,0,9,0,9-4.9c0-4.7-4.8-5-6.6-5c-0.9,0-2.7,0.1-4.2,0.6v8.3
			c0,0.9,0,2.7-3.1,2.7c-3.3,0-6.1-2-6.1-5.1c0-3.1,2.4-6,6.9-7.5v-4.3h-6.5v-2.2h6.5V103.2z M97.8,115.4c-3.7,1.5-4.5,4-4.5,5
			c0,2,1.6,3.1,3.5,3.1c0.6,0,1-0.1,1-0.8V115.4z M108.8,103.1c2.3,1.7,4.5,4.3,5.9,7.3l-2.2,1.2c-1.5-3-2.6-4.6-5.5-7.1
			L108.8,103.1z"/>
		<path fill="#FFFFFF" d="M118.8,113c1.9-0.7,5.8-2.3,8.6-6.2l2.2,0.5c-0.5,0.6-0.7,0.9-1.1,1.3h9.6v1.7c-0.6,0.8-1.9,2.6-5.3,4.8
			c1.9,0.8,4.9,2.1,10.6,2.8l-0.8,2.2c-0.7-0.1-1.5-0.3-3-0.6v8h-2.2v-1.1h-13.7v1.1h-2.1v-8c-1.8,0.4-2.1,0.5-3,0.6l-0.8-2.1
			c5.7-0.8,8.7-2.1,10.8-2.9c-1.9-1.3-3.1-2.5-3.7-3.1c-2.2,1.7-4.2,2.5-5.2,2.9L118.8,113z M131.7,102.4v2.1h10.7v5.6h-2.3v-3.6
			H121v3.6h-2.2v-5.6h10.6v-2.1H131.7z M137.9,119c-3.8-1-6.1-2.1-7.3-2.8c-0.8,0.4-3.4,1.6-7.4,2.8H137.9z M137.5,120.8h-13.7v3.7
			h13.7V120.8z M126.8,110.4c-0.1,0.1-0.2,0.2-0.3,0.3c2,1.9,3.4,2.8,4.2,3.3c2.7-1.5,3.8-2.8,4.5-3.6H126.8z"/>
		<path fill="#FFFFFF" d="M153.8,117.3c-1-1.6-1.3-2.4-1.8-3.4v13.6h-2.2v-12.9c-0.6,2.2-1.2,4.2-2.9,6.7l-0.9-2.7
			c1.8-2.2,3.1-5.3,3.8-8.9h-3.4v-2h3.5v-5.3h2.2v5.3h2.7v2H152v1c0.5,1.6,1.6,3.3,3,4.9L153.8,117.3z M153.5,124.7
			c0.9-0.4,3.8-1.5,6.8-3.8l0.5,1.9c-1.5,1.1-4.4,2.8-6.5,3.8L153.5,124.7z M170.7,126.5c-2.8-1.6-4.8-3.4-6.3-6v4.7
			c0,0.6,0,2.2-2.1,2.2h-3.1l-0.4-2.2l2.5,0c0.5,0,0.9-0.1,0.9-0.9v-8.6h-6.9v-1.9h6.9v-2.4h-5.8v-1.9h5.8v-2.2h-6.5v-1.9h3.6
			c-0.3-0.9-0.7-1.9-1.2-2.8l2-0.3c0.5,1,1.1,2.1,1.4,3.1h3.7c0.3-0.6,0.8-1.6,1.3-3.1l2.1,0.3c-0.6,1.6-1.2,2.6-1.3,2.8h3.7v1.9
			h-6.6v2.2h6v1.9h-6v2.4h7.1v1.9h-7.1v1c0.9,2.5,3.4,5.9,7.4,7.7L170.7,126.5z M156.8,116.4c0.4,0.3,1.9,1.2,3.3,2.8l-1.5,1.4
			c-0.8-0.9-2-2.1-3.2-2.8L156.8,116.4z M166.9,119.3c0.9-0.8,2-2,2.6-3l1.7,1.2c-0.8,1.2-1.7,2.2-2.8,3L166.9,119.3z"/>
		<path fill="#FFFFFF" d="M186.3,124c4.2-0.4,6.5-1.1,8-2.6c2.1-2.1,2.3-5.2,2.3-6.8c0-3.2-1.6-8-8.2-8.2c-0.1,5.4-2.1,17.7-8,17.7
			c-3.2,0-5-3.8-5-7.7c0-6.7,4.7-12.1,12.7-12.1c7.5,0,11.2,4.6,11.2,10.5c0,10.3-8.6,11.2-12.2,11.5L186.3,124z M181.5,108.4
			c-3.9,2.8-3.9,7.5-3.9,8.2c0,2,0.7,5.1,2.8,5.1c1.4,0,2.3-1.4,2.9-2.5c0.8-1.6,2.5-6.3,2.7-12.6C185,106.8,183.3,107,181.5,108.4z
			"/>
		<path fill="#FFFFFF" d="M208.3,114.2c-1.5,1.5-2.4,3-2.4,5c0,3.7,4.3,4.1,9,4.1c4.5,0,7.3-0.4,8.9-0.5l0.1,2.5
			c-3.1,0.2-5.2,0.4-7.9,0.4c-5.7,0-7.7-0.6-9.2-1.3c-1.9-0.9-3.3-2.9-3.3-5c0-2.6,1.3-4.4,3-6.4L208.3,114.2z M221.9,106.6
			c-4.1,0.6-7.9,2.9-9,3.6l-1.5-1.6c1.4-0.9,2-1.1,4-1.9c-8.1,0.1-9.4,0.2-10.9,0.2v-2.5c1.2,0.1,8.9,0.1,17.5,0V106.6z
			 M220.5,114.2c-0.7-1.5-1.3-2.6-2.3-4l1.6-0.9c1.3,1.6,2.2,3.5,2.4,4L220.5,114.2z M223.6,112.7c-0.8-1.6-1.3-2.5-2.3-3.8l1.6-0.9
			c1,1.2,1.8,2.6,2.3,3.8L223.6,112.7z"/>
		<path fill="#FFFFFF" d="M254.3,116.7v2h-5.2c-0.5,1.1-1.1,2.6-3,4.3c3.5,1,6,2,7.3,2.5l-1.6,1.9c-1.2-0.6-3.3-1.6-7.7-2.9
			c-2.6,1.6-8.1,2.5-13.5,2.8l-0.8-2.1c6.8,0.1,10.8-1.3,11.3-1.5c-4.6-1.2-7.6-1.6-9.1-1.8c1-0.9,2-1.9,3.1-3.2h-5.9v-2h7.5
			c0.9-1.2,1.1-1.7,1.5-2.3h-7.6v-7.1h6.6v-2.1h-8v-1.9h25v1.9H246v2.1h6.9v7.1h-12c-0.4,0.6-0.6,1.1-1.5,2.3H254.3z M232.9,109v3.5
			h4.4V109H232.9z M238,118.7c-1,1.3-1.2,1.5-1.7,2.1c1.8,0.3,4.4,0.8,7.5,1.6c2-1.4,2.6-2.9,3-3.7H238z M239.4,105.2v2.1h4.5v-2.1
			H239.4z M239.4,109v3.5h4.5V109H239.4z M246,109v3.5h4.8V109H246z"/>
		<path fill="#FFFFFF" d="M265.4,102.4v1.9h4.8v2h-8.7v5c0,0.8,0.2,0.9,1,0.9h5.9l-0.4,2h-6.4c-1.8,0-2.1-0.7-2.1-2.2v-5.7h-1.6v-2
			h5.6v-1.9H265.4z M281.3,118.3h-10.1v2h9.1v1.8h-9.1v2.4h11.3v2h-24.9v-2h11.3v-2.4h-9.1v-1.8h9.1v-2h-10.1v-1.9h22.5V118.3z
			 M277.4,113.5c1.5,0,1.6-0.1,1.9-2.4h-6.6c-0.8,2.6-1.9,3.9-2.5,4.6l-1.7-1.4c2.4-2.7,2.9-5.2,2.9-11.2h10.2c0,0.6,0,7.1-0.5,10
			c-0.4,2.2-2.1,2.3-3.5,2.3h-3l-0.4-1.9L277.4,113.5z M279.4,109.6c0-0.4,0.1-1.3,0.1-1.6h-6.2c-0.1,0.5-0.1,1-0.3,1.6H279.4z
			 M273.5,104.8c0,0.5,0,0.6-0.1,1.6h6.1c0-0.9,0-1.1,0-1.6H273.5z"/>
		<path fill="#FFFFFF" d="M291.7,103.8c-0.8,4-1.2,8-1.2,12.1c0,3.6,0.2,7,1,10.1l-2.5,0.3c-0.4-1.8-0.9-3.8-0.9-9.9
			c0-7.3,0.7-11.2,1-12.9L291.7,103.8z M298.6,115.7c-0.5,0.6-1.3,1.9-1.3,3.5c0,2.3,1.6,3.1,6,3.1c1.3,0,3.7,0,6-0.3v2.4
			c-1,0.1-2.3,0.2-4.9,0.2c-3.4,0-9.4,0-9.4-5.3c0-2.2,1-3.9,1.5-4.7L298.6,115.7z M308.8,105.6v2.3h-13.1v-2.3H308.8z"/>
		<path fill="#FFFFFF" d="M94.7,148H81v-2c-2.2,1.4-3.8,2.1-4.7,2.5l-1.3-2.2c4.3-1.5,8.8-4.2,11.7-8.2h2.2
			c3.4,4.2,7.2,6.4,11.8,8.2l-1.3,2.2c-0.8-0.4-2.3-1-4.7-2.5V148z M97.4,151.1v12.3h-2.3v-1.2H80.4v1.2h-2.3v-12.3H97.4z
			 M95.2,153.1H80.4v7h14.7V153.1z M94.6,146c-3.9-2.6-5.9-5-6.8-6c-1.8,2.4-4.1,4.4-6.7,6H94.6z"/>
		<path fill="#FFFFFF" d="M114.6,159.3c7-0.3,10.6-1.9,10.6-7.7c0-4.7-2.9-6-5.8-6c-3.8,0-6.9,2.4-8.1,3.5l0,13.1h-2.4l0.1-9.6
			c-1,1.9-1.5,2.9-3.5,4.9l-1.5-2.3c2-1.9,3.7-4.1,5-7l0-2.7l-4.3,0.1v-2.2h4.3l0-4.2h2.5l-0.1,4.2l0.8,0v1.2c-0.4,0.6-0.9,1.6-1,2
			c3-2.4,6.1-3.2,8.5-3.2c5.3,0,7.9,3.8,7.9,8.1c0,9-7.7,9.6-12.2,9.9L114.6,159.3z"/>
		<path fill="#FFFFFF" d="M151.6,139.1c0.1,0.9,0.1,5,0.1,5.8l4.7-0.1v2.2l-4.7,0.2c0,5.8-0.2,6.4-0.5,7.1c-0.8,1.9-3,1.9-3.8,1.9
			c-1.1,0-2.2-0.1-3.2-0.3v-2.2c0.6,0.1,2.1,0.3,3.2,0.3c0.7,0,1.5,0,1.8-1.1c0.2-0.6,0.2-1.2,0.2-5.7l-9.9,0.3l-0.1,7.2
			c0,4.9,1.5,5,7.5,5c4.4,0,6.2-0.2,7.4-0.4l0,2.3c-0.9,0.1-2.6,0.2-6.9,0.2c-4.3,0-7.2,0-8.9-1.8c-0.7-0.8-1.4-1.8-1.4-5.7v-6.9
			l-4.7,0.2l-0.1-2.3l4.7-0.2v-5.7h2.4l0,5.6l9.9-0.3c0-3.1-0.2-4.8-0.2-5.8L151.6,139.1z"/>
		<path fill="#FFFFFF" d="M168.9,139.3c-0.1,0.9-0.2,1.8-0.4,3.6h7.5v2.3h-7.8c-0.7,3.7-2.2,12.1-4.7,17.4l-2.5-0.8
			c2.6-5,4.1-13.1,4.6-16.6h-4v-2.3h4.3c0.2-1.5,0.2-2.7,0.3-3.7L168.9,139.3z M174.3,154c-1.2,1.8-1.6,2.3-1.6,3.2
			c0,2.4,2.6,2.7,6.3,2.7c2.9,0,4.6-0.2,5.5-0.2l0,2.4c-1,0.1-1.9,0.1-4.1,0.1c-3.9,0-9.9,0-9.9-4.8c0-1.7,0.7-2.9,2-4.6L174.3,154z
			 M183.9,148.7c-0.6-0.1-1.3-0.1-2.3-0.1c-2.6,0-5.9,0.3-8.2,1.3l-0.7-2.1c2.7-1,5.2-1.6,11.3-1.5V148.7z"/>
		<path fill="#FFFFFF" d="M204.4,139.1h2.5v5.3h4.8v2.3h-4.8v3c0,2.2-0.6,6.6-3.7,9.2c-3,2.5-7,3.2-9,3.5l-1-2.3
			c5.6-0.7,11.2-2.6,11.2-10.4v-3.1h-9.5v7.4h-2.5v-7.4h-4.8v-2.3h4.8v-5.2h2.5v5.2h9.5V139.1z"/>
		<path fill="#FFFFFF" d="M216.2,159.5c2-2.1,3.6-4.6,4.1-10.4l2.5,0.2c-0.7,7.3-2.8,10.1-4.4,12L216.2,159.5z M229,139.5v4.8h9.2
			v2.3H229v16.1h-2.5v-16.1H217v-2.3h9.6v-4.8H229z M235.3,148.9c0.4,4,1.8,7.8,4.2,10.8l-2.3,1.5c-3.5-4.7-4.1-10.3-4.3-12
			L235.3,148.9z M240.7,140.6c0,1.5-1.2,2.8-2.8,2.8c-1.5,0-2.8-1.2-2.8-2.8c0-1.6,1.3-2.8,2.8-2.8
			C239.4,137.8,240.7,139,240.7,140.6z M236.4,140.6c0,0.8,0.6,1.5,1.4,1.5c0.8,0,1.4-0.6,1.4-1.5c0-0.8-0.6-1.4-1.4-1.4
			S236.4,139.8,236.4,140.6z"/>
		<path fill="#FFFFFF" d="M268.3,149.5v2.6h-24v-2.6H268.3z"/>
		<path fill="#FFFFFF" d="M282.5,139v7.2c6.1,1.7,10.4,4.1,13.8,6l-1.3,2.4c-4.9-2.9-7.6-4.2-12.5-5.9v14.1h-2.6V139H282.5z"/>
		<path fill="#FFFFFF" d="M309.5,158.5c0,2.2-1.8,4-4,4c-2.2,0-4-1.8-4-4c0-2.2,1.8-4,4-4C307.6,154.5,309.5,156.2,309.5,158.5z
			 M302.8,158.5c0,1.5,1.2,2.6,2.7,2.6c1.5,0,2.6-1.2,2.6-2.6c0-1.5-1.2-2.7-2.6-2.7C304,155.8,302.8,157,302.8,158.5z"/>
	</g>
</g>
<g>
	<g>
		<path fill="#FFFFFF" d="M40.8,184.8v6.6c2.3,0.8,7.2,2.5,12.3,5.4l-0.7,1.5c-4.6-2.7-7.1-3.8-11.6-5.4v13.1h-1.5v-21.1H40.8z
			 M50,189.7c-0.6-1.3-1.3-2.6-2-3.7l1.2-0.6c0.3,0.4,1.4,2.3,2,3.7L50,189.7z M52.9,188.6c-0.7-1.5-1.1-2.2-2-3.6l1.1-0.6
			c0.7,1,1.7,2.7,2,3.4L52.9,188.6z"/>
		<path fill="#FFFFFF" d="M61.8,192.1c0,5-0.7,9.4-4.9,13.6l-1-1.1c4.4-3.9,4.5-9.1,4.5-12.4v-6.4h1.4V192.1z M68.1,203.5
			c6.4-1.2,7.8-5.7,8.6-10.2l1.3,0.6c-0.9,4.3-2.5,10.4-11.4,11.4v-20.2h1.4V203.5z"/>
		<path fill="#FFFFFF" d="M92.6,195.4c0,0.8-0.6,1.4-1.4,1.4c-0.8,0-1.4-0.7-1.4-1.4s0.6-1.4,1.4-1.4
			C91.9,194,92.6,194.6,92.6,195.4z"/>
		<path fill="#FFFFFF" d="M124.2,188.2c-0.8,4.4-2.6,8.5-5.6,11.8c-3.2,3.5-7.4,4.8-11.2,5.7l-0.6-1.4c4.2-0.8,7.7-2.1,10.7-5.4
			c2.4-2.6,4.1-5.9,4.9-9.4h-9.9c-1.4,1.8-2.9,3.8-6,5.9l-0.9-1.2c2-1.4,5.6-4.3,7.9-9.7l1.6,0.2c-0.4,0.8-0.7,1.7-1.8,3.4H124.2z"
			/>
		<path fill="#FFFFFF" d="M133.2,203.7c10.1-1.1,13-6.4,15.1-12.8l1.3,0.8c-2.1,5.9-5,12.9-17.8,13.6v-20h1.5V203.7z"/>
		<path fill="#FFFFFF" d="M160.5,195.5c-2.3-1.2-4.5-2.2-7-2.9l0.6-1.3c2.7,0.6,5.8,2.1,7,2.8L160.5,195.5z M154.7,203.4
			c11.7-1.1,15-6.9,17.2-13.9l1.4,0.6c-3,9.1-7.6,13.5-18.2,14.9L154.7,203.4z M162.4,189.8c-2-1.1-4.3-2.1-7.1-2.9l0.6-1.3
			c1.1,0.3,2.9,0.7,7.1,2.7L162.4,189.8z M170.4,188.8c-0.7-1.5-1.2-2.2-2-3.4l1.2-0.6c1.2,1.3,1.8,2.8,2.1,3.3L170.4,188.8z
			 M173.1,187.7c-0.5-0.9-1.1-2-2.1-3.3l1.1-0.6c1.1,1.2,1.8,2.5,2.1,3.1L173.1,187.7z"/>
		<path fill="#FFFFFF" d="M181.4,197.6c-0.4-2.4-1.1-4.2-2-5.9l1.3-0.4c1.2,2.4,1.8,4.8,2.1,5.9L181.4,197.6z M181.5,204.6
			c5.6-1.1,11.2-3.7,12.4-13.9l1.4,0.3c-1.8,10-6.4,13.3-13.3,14.9L181.5,204.6z M186.8,196.4c-0.3-1.9-0.8-3.9-1.6-5.8l1.2-0.3
			c0.6,1.4,1.4,4.1,1.8,5.8L186.8,196.4z"/>
		<path fill="#FFFFFF" d="M208.8,184.8v6.6c4.7,1.4,9.4,3.8,12.3,5.4l-0.7,1.5c-3.3-2-7.5-4.1-11.6-5.4v13.1h-1.5v-21.1H208.8z"/>
		<path fill="#FFFFFF" d="M244.1,189.6v4.2c0,2.3-0.1,8.3-1.1,10c-0.9,1.6-2.9,1.6-3.8,1.6c-2,0-3-0.2-3.9-0.4v-1.5
			c1,0.2,2.5,0.4,4.2,0.4c2,0,2.3-1,2.5-1.5c0.5-1.6,0.7-6.8,0.7-8.7V191h-8.5c-1,7.3-3.4,11.6-8.4,14.6l-0.9-1.1
			c2.7-1.7,6.8-4.8,7.8-13.4h-7.1v-1.4h7.2c0.2-2.3,0.2-3.8,0.2-4.8l1.6,0c-0.1,2.6-0.2,3.7-0.3,4.7H244.1z"/>
		<path fill="#FFFFFF" d="M269.8,194.6v1.6h-21.3v-1.6H269.8z"/>
		<path fill="#FFFFFF" d="M280.8,184.8v6.6c2.3,0.8,7.2,2.5,12.3,5.4l-0.7,1.5c-4.6-2.7-7.1-3.8-11.6-5.4v13.1h-1.5v-21.1H280.8z
			 M290,189.7c-0.6-1.3-1.3-2.6-2-3.7l1.2-0.6c0.3,0.4,1.4,2.3,2,3.7L290,189.7z M292.9,188.6c-0.7-1.5-1.1-2.2-2-3.6l1.1-0.6
			c0.7,1,1.7,2.7,2,3.4L292.9,188.6z"/>
		<path fill="#FFFFFF" d="M317.5,206c-1.7-0.3-6.1-1.2-10.2-3.8c-3.1,2-6.9,3.1-10.4,3.8l-0.6-1.4c4.8-0.8,7.6-2,9.8-3.3
			c-3.2-2.5-4.4-5-4.9-6.1l1.2-0.6c0.6,1.2,1.9,3.6,4.9,5.9c2.1-1.6,3.8-3.7,5.5-6.8h-14.8v-1.2h8.6v-3.8h-10.4v-1.2h10.4v-3h1.3v3
			h10.3v1.2h-10.3v3.8h6.6v1.2c-2.5,4.7-4.6,6.6-6,7.7c2.9,1.8,6.2,2.8,9.6,3.3L317.5,206z"/>
		<path fill="#FFFFFF" d="M329.3,196c-0.5,0.2-1.2,0.6-3,1.4v7.2c0,1.7-0.4,1.8-1.8,1.8h-2.3l-0.3-1.4l2.3,0.1
			c0.8,0,0.8-0.2,0.8-0.7v-6.5c-2.4,0.9-3,1.1-3.7,1.3l-0.2-1.3c0.6-0.2,1.5-0.4,3.9-1.3v-6.4h-3.9V189h3.9v-4.6h1.3v4.6h3.2v1.2
			h-3.2v5.8c1.8-0.7,2.2-0.9,3-1.3V196z M335.5,184.6c-1.3,7-2.6,13.1-4.7,18.9c4.9-0.5,6-0.6,9.9-1.3c-1.2-3.4-2.2-5.4-3.2-7.3
			l1.2-0.5c1.6,2.9,3.8,7.9,4.5,11.1l-1.4,0.6c-0.2-0.9-0.4-1.7-0.8-2.8c-5.4,1.1-11.7,1.7-13.4,1.8l-0.2-1.3c0.9,0,1.4,0,1.9-0.1
			c1.9-5.3,3.6-12.4,4.6-19.2L335.5,184.6z"/>
		<path fill="#FFFFFF" d="M353.5,185.2c-0.4,2.1-0.6,3.4-0.8,4.6h3.7c2.5,0,4.9,0.2,4.9,5.6c0,2-0.3,5.8-1.2,7.8
			c-1,2.2-2.7,2.3-3.9,2.3c-1.8,0-3.6-0.3-4.2-0.4l-0.1-1.5c0.7,0.1,2.6,0.4,4.1,0.4c1.7,0,2.3-0.8,2.7-1.5c0.7-1.4,1.1-4.5,1.1-7.1
			c0-3.7-1.3-4.2-3-4.2h-4.4c-1.8,9-3.6,12.8-4.3,14.4l-1.4-0.7c2.3-4.6,3.5-9.8,4.3-13.7l-4,0v-1.4h4.2c0.4-2.1,0.6-3.5,0.7-4.8
			L353.5,185.2z M364.1,188.9c-0.5-1.1-1.2-2.4-2.2-3.7l1.2-0.5c0.7,0.8,1.8,2.6,2.2,3.6L364.1,188.9z M366.2,198.4
			c-0.5-3.3-1.6-5.6-3.6-7.9l1.3-0.7c2.5,2.8,3.4,5.7,3.9,8.3L366.2,198.4z M366.9,188.2c-0.6-1.3-1.3-2.5-2.1-3.6l1.2-0.5
			c1,1.2,1.8,2.7,2.2,3.6L366.9,188.2z"/>
		<path fill="#FFFFFF" d="M43.3,234.9c-4,0-5.1-1.5-5.6-2.2c-0.9,0.9-2.1,1.9-3.9,2.9l-0.5-1.4c1.5-0.7,2.6-1.5,3.7-2.4v-4h-3.3
			v-1.2h4.6v5.2c0.9,1.7,3.3,2,4.9,2h12.2l-0.2,1.1h-4.5v1.5h4.7v1.2h-4.7v3.2c0,0.8-0.2,1.6-1.8,1.6h-2.9l-0.3-1.4l2.9,0.1
			c0.6,0,0.7,0,0.7-0.6v-2.9H33.6v-1.2h15.9v-1.5H43.3z M38.5,224c-1.6-1.1-2.8-1.7-4.1-2.3l0.6-1c1.8,0.7,3,1.5,4.2,2.3L38.5,224z
			 M42.2,241.6c-1.6-1.2-2.8-1.9-4.4-2.7l0.7-1c2.2,1,3.6,1.9,4.6,2.6L42.2,241.6z M44.4,222.1c-0.3-0.6-0.6-1-0.9-1.5l1.2-0.3
			c0.5,0.6,0.8,1.2,1.1,1.8H50c0.4-0.8,0.5-1.1,0.7-1.8l1.2,0.3c-0.2,0.6-0.4,1.1-0.6,1.5h4v1.1h-7.2c-0.2,0.5-0.3,0.8-0.6,1.3h6.4
			v8H41.2v-8h5c0.4-0.6,0.5-1,0.6-1.3h-6.9v-1.1H44.4z M52.7,226.8v-1.5H42.4v1.5H52.7z M42.4,227.7v1.5h10.2v-1.5H42.4z M42.4,230
			v1.5h10.2V230H42.4z"/>
		<path fill="#FFFFFF" d="M69.5,221.5c0,13,6.6,17.5,10.1,19.5l-0.8,1.3c-8.4-5.4-9.5-11.5-10-14.8c-0.9,4.7-2.4,10.4-10.6,14.9
			l-0.8-1.2c4.6-2.6,10.4-6.9,10.4-18.3h-6.6v-1.3H69.5z"/>
		<path fill="#FFFFFF" d="M93.2,241.9h-1.4v-8.7c-4.4,2.8-7.8,3.8-9.3,4.2l-0.6-1.3c6.4-1.7,12.9-5.8,16.5-10.4H83.5v-1.3h8.3v-3.7
			h1.4v3.7h7.1v1.3c-0.9,1.2-3,3.7-7.1,6.6V241.9z M102.4,237.3c-2.4-1.8-5.2-3.3-7.8-4.4l0.8-1.1c2,0.8,6,2.9,7.8,4.1L102.4,237.3z
			"/>
		<path fill="#FFFFFF" d="M110.9,233.6c-0.4-2.4-1.1-4.2-2-5.9l1.3-0.4c1.2,2.4,1.8,4.8,2.1,5.9L110.9,233.6z M111,240.6
			c5.6-1.1,11.2-3.7,12.4-13.9l1.4,0.3c-1.8,10-6.4,13.3-13.3,14.9L111,240.6z M116.3,232.4c-0.3-1.9-0.8-3.9-1.6-5.8l1.2-0.3
			c0.6,1.4,1.4,4.1,1.8,5.8L116.3,232.4z"/>
		<path fill="#FFFFFF" d="M149.7,224.2c-0.8,4.4-2.6,8.5-5.6,11.8c-3.2,3.5-7.4,4.8-11.2,5.7l-0.6-1.4c4.2-0.8,7.7-2.1,10.7-5.4
			c2.4-2.6,4.1-5.9,4.9-9.4h-9.9c-1.4,1.8-2.9,3.8-6,5.9l-0.9-1.2c2-1.4,5.6-4.3,7.9-9.7l1.6,0.2c-0.4,0.8-0.7,1.7-1.8,3.4H149.7z"
			/>
		<path fill="#FFFFFF" d="M174.7,223.9c-1.5-0.1-2.3-0.2-3-0.2c-1.3,0-1.8,0.2-2.8,0.6c-3,1.2-5.1,3.2-6.4,4.8
			c-1.6,2-1.9,3.5-1.9,4.9c0,2.8,1.5,4.2,3.8,5c2.5,0.9,5.4,1,7.9,1l-0.4,1.6c-6.4-0.3-12.8-1.4-12.8-7.4c0-4.2,3.3-7.8,8.3-10.4
			c-3.7,0.1-10.9,0.6-13.2,0.8l-0.2-1.6c0.7,0,6.1-0.2,8.9-0.4c5.3-0.2,6.7-0.2,11.8-0.2V223.9z M171.3,230.9
			c-0.2-0.4-0.9-2.1-2-3.5l1.1-0.6c0.9,1.1,1.4,1.9,2.1,3.4L171.3,230.9z M174,229.6c-0.5-1.2-1.2-2.3-2-3.2l1.1-0.6
			c0.7,0.8,1.6,2.1,2.1,3.2L174,229.6z"/>
		<path fill="#FFFFFF" d="M184.4,220.9h1.4v2.7H198v1.3h-12.2v3.2c1-0.2,2.3-0.5,4-0.5c5.2,0,8.8,2.6,8.8,7.1c0,6-6.1,7-11.1,6.7
			l-0.1-1.4c0.5,0,0.9,0,1.6,0c3.3,0,5.9-0.8,7-2c1-1.1,1.2-2.5,1.2-3.4c0-3.3-2.5-5.4-6-5.7c-1.9,10-6.9,11.3-9.2,11.3
			c-3.7,0-3.7-4-3.7-4.3c0-3.7,2.8-6.2,6.2-7.4v-3.6h-5.5v-1.3h5.5V220.9z M184.4,229.9c-4.3,1.8-4.9,4.7-4.9,6c0,1,0.5,2.9,2.5,2.9
			c1.7,0,3-1,3.6-1.4C184.7,234.7,184.5,231.2,184.4,229.9z M189.8,228.9c-2.1,0-3.6,0.5-4,0.6c0,2.7,0.3,4.6,0.9,7
			C188.3,234.5,189.3,231.4,189.8,228.9z"/>
		<path fill="#FFFFFF" d="M217.7,221.3v1.3c-0.7,0.6-2.3,1.9-3.3,2.8c-3,2.7-3.3,3-4.3,3.8c1.2-0.5,2.8-1.2,5.2-1.2
			c4.7,0,6.5,3.3,6.5,6.3c0,1.2-0.3,7.2-8.9,7.2c-2.6,0-3.8-0.4-4.8-1c-0.9-0.6-1.7-1.6-1.7-2.9c0-2.3,2.2-3.6,4.3-3.6
			c3.2,0,4.8,2.6,4.8,4.5c0,0.8-0.2,1.2-0.5,1.7c3.7-0.7,5.3-3.2,5.3-5.9c0-3.4-2.3-5.1-5.4-5.1c-2.7,0-5.3,1.1-6.9,2.4
			c-0.8,0.6-3.6,3.5-4.5,4.6l-1.3-1c1.2-1,5.9-5.6,6.9-6.6c1-1,5.6-5.1,6.5-6l-11.3,0.1v-1.4H217.7z M214,238.7
			c0-1.5-1.1-3.4-3.4-3.4c-1.6,0-2.9,1-2.9,2.4c0,2.7,4.5,2.7,5.8,2.7C213.8,240,214,239.5,214,238.7z"/>
		<path fill="#FFFFFF" d="M244.8,229.4c-0.6,8.8-0.7,9.2-1.3,11.1c-0.6,1.8-2.4,1.9-3.5,1.9h-3.7L236,241l4,0c0.7,0,1.7,0,2.2-0.9
			c0.9-1.6,1.2-9.2,1.2-9.5H234c-0.3,2.5-0.8,7.8-7.5,11.9l-1-1.2c6.9-3.9,7.2-8.2,7.5-16h-7.4v-1.2h10.2v-3.6h1.4v3.6h10.3v1.2
			h-13.2c-0.1,2.3-0.2,3.4-0.3,4.2H244.8z"/>
		<path fill="#FFFFFF" d="M260.1,240.1c2.8-0.3,9.6-0.9,9.6-8.6c0-2-0.7-8.3-8.4-8.3c-0.4,5.1-1.1,9.9-3.4,13.5
			c-1.5,2.4-3,2.9-3.9,2.9c-2.3,0-4.2-2.9-4.2-6.7c0-6.2,4.2-10.9,11.4-10.9c7.4,0,10,5.1,10,9.5c0,9-7.8,9.9-10.7,10.2L260.1,240.1
			z M251.2,232.8c0,2,0.7,5.2,2.8,5.2c0.9,0,1.8-0.6,2.7-2.2c2.3-3.6,2.8-8.9,3-12.6C253.5,223.9,251.2,228.5,251.2,232.8z"/>
		<path fill="#FFFFFF" d="M273.4,241.2c2.1-2.7,3.4-5.4,4.5-8.4l1.1,0.6c-1.2,3.1-2.6,6.2-4.7,8.8L273.4,241.2z M277.7,230.2
			c-2-1.4-3.2-1.9-4.2-2.3l0.6-1c2,0.7,3.2,1.4,4.3,2.3L277.7,230.2z M278.7,224.5c-1.7-1.4-2.9-2.2-4.3-2.8l0.7-1.1
			c2.1,1,3.4,1.9,4.4,2.8L278.7,224.5z M278.5,241.2c6-2.3,6.9-5.6,7.4-8.7h-6.1v-1.2h6.3c0.1-0.9,0.1-1.3,0.1-1.8v-4h-5.6v-1.2h5.6
			v-3.9h1.3v3.9h6.3v7.1h1.8v1.2h-7.4c0.7,3.3,2.6,6.5,7.7,8.6l-0.8,1.2c-2.4-1.2-6.7-3.7-7.9-9.1c-0.7,3.5-1.9,6.5-7.8,9.1
			L278.5,241.2z M287.4,229.4c0,0.6,0,1.2-0.1,1.9h5v-5.8h-4.9V229.4z"/>
		<path fill="#FFFFFF" d="M301.1,230.6c-1.4-1.2-1.9-1.6-3.6-2.5l0.7-1.1c1.2,0.5,3.1,1.8,3.7,2.4L301.1,230.6z M297.5,240.9
			c1-1.2,2.4-3.1,4.1-7.2l1.1,0.7c-0.7,1.7-2.8,6-4.2,7.6L297.5,240.9z M302.3,224c-1.6-1.2-2.5-1.8-3.7-2.4l0.6-1
			c1.1,0.4,3.6,2,3.9,2.2L302.3,224z M303,229.6c1.5,0,4.2-0.2,7.3-1.7c-1.9-1.2-3.2-2.7-4-4.3h-2.6v-1.2h7.2v-2.1h1.4v2.1h7.2v1.2
			H317c-0.6,1-1.8,2.8-4.2,4.3c3,1.2,5.5,1.5,6.8,1.7l-0.5,1.4c-1.6-0.3-4.6-1-7.7-2.4c-3.4,1.7-6.5,2.1-8.2,2.2L303,229.6z
			 M316.1,232.3V231h1.4v11.4h-1.4v-5.1h-9.4c-0.2,0.7-0.6,3.1-2.6,5.1l-1.1-0.9c1.8-1.7,2.6-4.1,2.6-6.7V231h1.3v1.2H316.1z
			 M307,233.4v1.4c0,0.6,0,1-0.1,1.3h9.2v-2.7H307z M307.7,223.7c0.4,0.6,1.4,2.3,3.8,3.6c1.7-0.9,3-2.1,4-3.6H307.7z"/>
		<path fill="#FFFFFF" d="M326,242.4h-1.3v-13.7c-1.2,1.9-2.1,2.7-2.5,3.2l-0.9-1.2c2.3-2.3,4.7-6.3,5.9-10.3l1.3,0.4
			c-0.5,1.6-1.2,3.5-2.5,5.7V242.4z M343.4,226.9l0,1.2l-8.6,0.6c1.6,11.5,5.5,12.1,5.6,12.1c1.1,0,1.7-2.7,2-4.1l1.2,0.6
			c-0.2,1.1-1.1,5-3.3,5c-2.3,0-5.9-4.3-7-13.5l-5.5,0.4l-0.1-1.2l5.5-0.4c-0.1-0.8-0.4-3.6-0.5-7.2h1.5c0.1,2.8,0.4,6.1,0.5,7.1
			L343.4,226.9z M340.9,225.4c-1.2-1.4-2.4-2.4-4-3.6l0.9-0.9c1.4,0.8,3.1,2.3,4.2,3.4L340.9,225.4z"/>
		<path fill="#FFFFFF" d="M345.3,233.1c3.2-2.3,5.2-5.3,6.3-7.5l1.1,0.6c-0.3,0.7-1,2-2.4,3.9v12.4h-1.4v-10.7
			c-1.6,1.7-2.5,2.3-3.1,2.7L345.3,233.1z M352,220.9c-2.8,4.5-5.1,5.9-6,6.5l-0.5-1.3c2.2-1.2,4.3-3.8,5.4-5.8L352,220.9z
			 M367.6,229.3h-4.1v11.4c0,0.6,0,1.8-1.6,1.8H358l-0.2-1.4l3.7,0.1c0.5,0,0.6-0.1,0.6-0.7v-11.1h-8.9V228h14.3V229.3z
			 M366.6,222.8h-12.3v-1.3h12.3V222.8z"/>
		<path fill="#FFFFFF" d="M45.4,256.6c0.6,0.7,1.7,2,2.6,4c1-0.1,1.4-0.1,1.7-0.1c3.9,0,5.4,3,5.4,5.2c0,3.5-2.9,5.4-6.2,5.4
			c-1.8,0-3-0.5-3.8-0.8l0.3-1.4c0.8,0.3,1.8,0.8,3.4,0.8c2.8,0,4.8-1.6,4.8-4.1c0-1.5-0.9-3.8-4-3.8c-0.3,0-0.6,0-1.1,0.1
			c0.3,0.7,0.4,1.3,0.6,2.1l-1.5,0.6c-0.1-0.7-0.2-1.3-0.7-2.4c-2.2,0.5-5.2,1.6-6.3,2c1.2,4.6,1.4,5.4,3.1,13.5l-1.7,0.3
			c-0.5-3.9-1.7-9.4-2.8-13.3c-2,0.7-2.7,1-4.5,1.9l-0.6-1.5c0.8-0.2,4.1-1.4,4.8-1.7c-0.4-1.8-1-3.6-1.5-5.3l1.5-0.4
			c0.1,0.3,1.3,4.9,1.4,5.2c2.4-0.8,4.7-1.4,6.1-1.8c-0.8-1.7-1.7-2.8-2.4-3.7L45.4,256.6z"/>
		<path fill="#FFFFFF" d="M63.5,256.9H65v3.5h6.4v1.3H65v3.9c0.8-0.2,2.1-0.5,4-0.5c1.3,0,3.9,0.1,5.9,1.5c1.9,1.3,2.5,3.4,2.5,4.9
			c0,3-2,4.3-3,4.9c-1.7,0.8-3.2,1.1-7,1.1l-0.2-1.4c3.7,0,5.1-0.2,6.5-1c1-0.6,2.2-1.8,2.2-3.6c0-1.4-0.7-3.3-2.6-4.3
			c-0.9-0.5-2.5-0.8-4.1-0.8c-2.1,0-3.4,0.3-4.1,0.5v8.2c0,1.1-0.1,2-2.3,2c-3,0-5.3-1.7-5.3-4.7c0-3.3,2.8-5.3,6.1-6.5v-4.2h-5.8
			v-1.3h5.8V256.9z M63.5,267.2c-2.8,1-4.7,2.8-4.7,5c0,1.7,1.2,3.4,3.9,3.4c0.7,0,0.9-0.1,0.9-0.7V267.2z M73.4,257.1
			c1.6,1.2,3.6,3.6,5,6.6l-1.4,0.9c-1.5-3.2-2.9-4.9-5-6.8L73.4,257.1z"/>
		<path fill="#FFFFFF" d="M81.4,265.9c1.3-0.5,5.3-1.9,7.8-5.9l1.2,0.5c-0.3,0.5-0.6,0.9-1.1,1.5H98v1.1c-0.6,0.7-1.8,2.4-5.1,4.4
			c2.1,1.1,5.2,2.1,9.6,2.8l-0.5,1.3c-3.9-0.7-7.8-1.9-10.5-3.4c-0.2,0.1-3.2,1.7-7.5,2.7h15v7.3h-1.3v-1H85.3v1H84V271
			c-1.8,0.4-2.3,0.5-3,0.6l-0.5-1.3c3.6-0.4,6.6-1.2,9.8-2.8c-1.3-0.9-2.5-1.9-3.6-3.2c-1.9,1.4-3.6,2.2-4.8,2.7L81.4,265.9z
			 M92.2,256.4v1.9h9.5v4.8h-1.3v-3.6H82.7v3.6h-1.3v-4.8h9.5v-1.9H92.2z M97.8,272.1H85.3v4.1h12.5V272.1z M88.3,263.1
			c-0.2,0.2-0.2,0.2-0.6,0.6c0.6,0.6,1.8,1.9,3.9,3.2c1.7-1,3.4-2.2,4.7-3.8H88.3z"/>
		<path fill="#FFFFFF" d="M111.4,269.3c-1.1-1.5-1.8-3-1.9-3.3v12.4h-1.2v-12.1c-1.2,3.7-2.5,5.6-3,6.4l-0.8-1.4
			c1.7-2.1,3-5.5,3.7-8.5h-3.5v-1.2h3.6v-5.1h1.2v5.1h2.8v1.2h-2.8v0.7c0.8,2.1,1.8,3.5,2.8,4.9L111.4,269.3z M111.1,276.4
			c1.7-0.7,3.9-2.1,5.9-3.6l0.3,1.2c-1.3,1.1-3.9,2.8-5.7,3.6L111.1,276.4z M126.2,277.4c-1.3-0.7-4.1-2.4-6.1-6v5.2
			c0,0.5,0,1.8-1.6,1.8H116l-0.2-1.4l2.4,0c0.4,0,0.6,0,0.6-0.6v-8.4h-6.2v-1.2h6.2v-2.6h-5.3V263h5.3v-2.5H113v-1.2h3.7
			c-0.4-1.2-1.1-2.3-1.3-2.7l1.2-0.2c0.2,0.4,0.9,1.5,1.4,3h2.9c0.8-1.2,1.3-2.5,1.5-3l1.2,0.3c-0.6,1.4-1.1,2.3-1.3,2.7h3.9v1.2
			h-6.1v2.5h5.5v1.1h-5.5v2.6h6.5v1.2h-6.5v0.9c1.8,4.6,5.2,6.5,6.8,7.3L126.2,277.4z M113.8,268.8c1.2,0.8,2.1,1.5,3,2.5l-0.9,0.8
			c-1-1.1-1.7-1.7-2.8-2.5L113.8,268.8z M122.6,271.3c0.9-0.8,1.7-1.7,2.4-2.7l1.1,0.8c-0.6,0.7-1.4,1.8-2.4,2.7L122.6,271.3z"/>
		<path fill="#FFFFFF" d="M146.9,278.4v-1.5h-14.8v1.5h-1.3V259h7c0.4-1,0.8-2.3,0.9-2.6l1.3,0.3c-0.3,0.7-0.7,1.7-1,2.3h9.3v19.4
			H146.9z M146.9,260.2h-14.8v4.3h14.8V260.2z M146.9,265.6h-14.8v4.3h14.8V265.6z M146.9,271h-14.8v4.7h14.8V271z"/>
		<path fill="#FFFFFF" d="M151.4,276.6c7.4-1.5,12-4.1,15.3-6.5c-3.6,0.3-7.8,0.7-14.9,1.1l-0.2-1.2c0.5,0,3.1-0.1,3.7-0.1v-11.2
			h5.6c0.5-1.3,0.7-1.8,0.8-2.4l1.2,0.2c-0.2,0.7-0.5,1.3-0.8,2.2h7.8v8.7c1.2-1.2,2-2.1,2.8-3.1l0.9,0.8c-0.7,0.8-1.7,2.1-3.7,3.8
			v7.5c0,1.7-0.9,1.9-1.7,1.9h-4.1l-0.2-1.3l3.8,0c0.9,0,1-0.5,1-1v-6c-3.4,2.7-8.4,5.8-16.7,7.7L151.4,276.6z M168.7,260h-12v2.4
			h12V260z M168.7,263.4h-12v2.3h12V263.4z M168.7,266.9h-12v3c5.6-0.3,6.1-0.3,11.4-0.7c0.1-0.1,0.6-0.5,0.7-0.6V266.9z"/>
		<path fill="#FFFFFF" d="M194.4,259.9c-1.5-0.1-2.3-0.2-3-0.2c-1.3,0-1.8,0.2-2.8,0.6c-3,1.2-5.1,3.2-6.4,4.8
			c-1.6,2-1.9,3.5-1.9,4.9c0,2.8,1.5,4.2,3.8,5c2.5,0.9,5.4,1,7.9,1l-0.4,1.6c-6.4-0.3-12.8-1.4-12.8-7.4c0-4.2,3.3-7.8,8.3-10.4
			c-3.7,0.1-10.9,0.6-13.2,0.8l-0.2-1.6c0.7,0,6.1-0.2,8.9-0.4c5.3-0.2,6.7-0.2,11.8-0.2V259.9z M191,266.9c-0.2-0.4-0.9-2.1-2-3.5
			l1.1-0.6c0.9,1.1,1.4,1.9,2.1,3.4L191,266.9z M193.7,265.6c-0.5-1.2-1.2-2.3-2-3.2l1.1-0.6c0.7,0.8,1.6,2.1,2.1,3.2L193.7,265.6z"
			/>
		<path fill="#FFFFFF" d="M196.8,276.8c7.4-0.7,8.9-3.7,9.6-5.2h-9.7v-1.2h10.1c0.2-0.6,0.2-1,0.3-1.5h1.3c-0.1,0.5-0.2,0.9-0.3,1.5
			h10.7v1.2H209c1.4,2.7,5.1,4.8,10,5.2l-0.6,1.5c-6.6-1.3-9.6-4.2-10.6-6.6c-1.1,2.5-3.1,5.2-10.2,6.6L196.8,276.8z M207.1,267.4
			c-3.9,0.8-7.4,1.2-9.9,1.5l-0.2-1.3c1.8-0.1,3.2-0.3,5-0.5v-3.7h-4.3v-1.2h4.3v-2.8h-4.8v-1.2h4.8v-1.8h1.2v1.8h4.4v1.2h-4.4v2.8
			h3.9v1.2h-3.9v3.5c1.4-0.2,2.7-0.4,3.7-0.6L207.1,267.4z M217.8,257.5c0,3.7-0.4,8.4-0.9,9.8c-0.5,1.3-1.5,1.4-2.2,1.4h-2.9
			l-0.2-1.3l2.9,0c0.7,0,1-0.1,1.2-0.9c0.4-1.3,0.7-5.1,0.7-7.8h-3.8c0,3.1-1,7.1-4.2,9.7l-1-0.9c2.5-1.9,3.8-5.3,3.8-8.8h-3.2v-1.2
			H217.8z"/>
		<path fill="#FFFFFF" d="M229.1,259.2c-1.2,2.3-3.1,5.3-4.7,7.3c1.5,0,2.8-0.2,4.2-0.4c-0.4-0.9-0.6-1.3-0.8-1.7l1-0.5
			c0.9,1.2,1.8,3.7,2,4.5l-1.1,0.6c-0.1-0.4-0.2-0.9-0.6-1.8c-0.4,0.1-1.5,0.2-2.7,0.3v10.9h-1.3v-10.8c-2.4,0.2-3.5,0.2-4.1,0.2
			l-0.2-1.2c1.3,0,1.8,0,2.2,0c0.6-0.7,1-1.2,1.3-1.8c-0.6-0.8-1.8-2.1-3.6-3.5l0.7-0.9c0.5,0.4,0.7,0.6,0.9,0.8
			c0.6-0.9,1.5-2.4,2.5-4.8l1.2,0.4c-0.9,2-2,3.7-2.9,5.1c0.6,0.5,1.1,1.1,1.8,1.9c0.2-0.2,1.5-2.2,3-5.2L229.1,259.2z M220.7,276
			c0.9-1.9,1.3-4.5,1.4-6.2l1.1,0.2c-0.1,1.5-0.4,4.5-1.4,6.5L220.7,276z M229.2,275.6c-0.2-1.8-0.7-3.9-1.2-5.5l1.2-0.3
			c0.2,0.6,1.1,3.3,1.3,5.5L229.2,275.6z M241.8,260.1c0,8.1,0,12.7-0.5,15.6c-0.3,1.4-0.9,2.7-3.3,2.7h-2.8l-0.3-1.5l3.1,0
			c1,0,1.6-0.1,1.8-1.3c0.6-2.4,0.6-8.7,0.6-14.4h-7.1c-0.9,2.2-1.9,3.5-2.4,4.2l-1-0.9c2-2.7,3-4.9,3.6-8.1l1.2,0.2
			c-0.2,0.8-0.4,1.8-1,3.5H241.8z M235.6,271.4c-0.8-2.4-1.8-4.4-2.6-5.8l1.1-0.5c0.9,1.3,2.2,4.3,2.7,5.8L235.6,271.4z"/>
		<path fill="#FFFFFF" d="M253.2,256.5c-0.1,0.8-0.3,1.4-0.7,3h10.9v1.3h-11.3c-0.9,2.8-1.6,3.8-2,4.3c0.7-0.6,2.3-1.8,4.7-1.8
			c3,0,3.3,2.1,3.5,3.2c3.7-1.5,4.1-1.6,6.5-2.6l0.5,1.5c-2.3,0.7-4.7,1.5-6.8,2.4c0.1,1.1,0.1,2.5,0.1,3.4c0,0.3,0,1-0.1,1.6h-1.4
			c0.1-0.7,0.1-1.2,0.1-2.4c0-0.2,0-1.1,0-2c-3.1,1.4-5.9,3.2-5.9,5.3c0,2.4,3.4,2.4,6,2.4c3.3,0,5.6-0.3,6.7-0.4l0.1,1.4
			c-1.3,0.1-3.2,0.3-6.2,0.3c-2.6,0-7.9,0-7.9-3.7c0-3,3.6-5.2,7.1-6.8c-0.2-1.1-0.4-2.6-2.4-2.6c-2.4,0-4.7,2.3-5,2.5
			c-0.3,0.4-3.2,4.2-3.9,4.9l-1-1.2c1.3-1.2,3.9-3.6,6-9.9h-5.5v-1.3h5.9c0.4-1.5,0.5-2.3,0.6-3L253.2,256.5z"/>
		<path fill="#FFFFFF" d="M269.9,257.1c0,1.8-0.3,10.1-0.3,11.8c0,3.7,0.2,7.2,5.4,7.2c5.1,0,6.5-2.8,7-3.8c0.7-1.4,1.1-3.6,1.3-4.7
			l1.4,0.3c-0.6,3.5-1.6,9.5-9.5,9.5c-6.5,0-7.2-3.6-7.2-8.9c0-1.8,0.2-9.9,0.2-11.5H269.9z"/>
		<path fill="#FFFFFF" d="M293.4,256.9c-0.1,1-0.2,2-0.4,3.4h7.4v1.4h-7.6c-1.1,6.9-2.7,12.6-4.5,16.2l-1.5-0.6
			c2.2-3.8,3.8-10.9,4.4-15.7h-3.8v-1.4h4c0.1-0.6,0.3-3,0.4-3.5L293.4,256.9z M298.1,270.2c-0.8,1.3-1.3,2.1-1.3,3.2
			c0,2.6,2.9,2.7,6.3,2.7c1.7,0,3.4-0.1,4.8-0.2v1.5c-0.7,0-4.5,0.1-4.7,0.1c-3.7,0-4.8-0.4-5.7-0.7c-1.5-0.6-2.2-2.1-2.2-3.4
			c0-1.6,0.8-2.8,1.5-3.8L298.1,270.2z M307.3,265c-0.6,0-1.3-0.1-2.4-0.1c-3.9,0-6.1,0.8-7,1.1l-0.4-1.3c1.3-0.5,3.9-1.4,9.8-1.2
			V265z"/>
		<path fill="#FFFFFF" d="M312.8,271.4l-1.9,5.2H309l7.3-18.9h2.2l7.3,18.9H324l-1.9-5.2H312.8z M321.6,269.9l-4.1-11l-4.1,11H321.6
			z"/>
		<path fill="#FFFFFF" d="M326.5,257.6l4.2,17.6l4.2-17.6h2.4l4.2,17.6l4.2-17.6h1.7l-4.8,18.9h-2.3l-4.2-17.6l-4.2,17.6h-2.3
			l-4.8-18.9H326.5z"/>
		<path fill="#FFFFFF" d="M361.2,263c0-2.4-0.5-4.2-5.4-4.2c-3.5,0-5.1,1-5.1,3.8c0,1.9,0.8,2.9,2.9,3.1l5.1,0.6c1.5,0.2,5,0.6,5,5
			c0,3.7-2,5.4-7.3,5.4c-6,0-7.5-2.4-7.5-6.1h1.7c0,2.7,0.6,4.7,5.9,4.7c4.8,0,5.7-1.6,5.7-3.8c0-2-0.6-3.3-3.4-3.6l-5.3-0.6
			c-2.9-0.3-4.3-2-4.3-4.7c0-5.2,4.7-5.2,6.6-5.2c6.5,0,7.1,2.8,7.1,5.6H361.2z"/>
		<path fill="#FFFFFF" d="M49.6,292.9H51v5h4.5v1.4H51v3.6c0,2.4-0.8,6.2-4,8.4c-2.9,2-6.4,2.4-7.5,2.5l-0.5-1.5
			c1.2-0.1,4.6-0.4,7.4-2.3c3.2-2.2,3.2-6.9,3.2-7.1v-3.6h-9.7v7.1h-1.5v-7.1H34v-1.4h4.4V293h1.5v4.8h9.7V292.9z"/>
		<path fill="#FFFFFF" d="M76.8,302.6v1.6H55.5v-1.6H76.8z"/>
		<path fill="#FFFFFF" d="M75.7,312.1c2.3-2.5,5.4-6.8,5.7-18.1l1.6,0.3c-0.6,10.1-2.6,15.1-6,18.8L75.7,312.1z M91.3,294.1
			c0.7,10.9,3.7,15.2,6.4,18l-1.3,1.1c-3.3-3.6-5.8-8.5-6.6-18.9L91.3,294.1z M93.9,297c-0.2-0.6-0.8-2.1-1.7-3.6l1.1-0.5
			c0.7,0.9,1.4,2.5,1.8,3.4L93.9,297z M96.8,296c-0.4-0.9-1.1-2.4-1.8-3.5l1.2-0.5c0.9,1.3,1.2,2,1.8,3.4L96.8,296z"/>
		<path fill="#FFFFFF" d="M109.3,312.1c2.8-0.3,9.6-0.9,9.6-8.6c0-2-0.7-8.3-8.4-8.3c-0.4,5.1-1.1,9.9-3.4,13.5
			c-1.5,2.4-3,2.9-3.9,2.9c-2.3,0-4.2-2.9-4.2-6.7c0-6.2,4.2-10.9,11.4-10.9c7.4,0,10,5.1,10,9.5c0,9-7.8,9.9-10.7,10.2L109.3,312.1
			z M100.5,304.8c0,2,0.7,5.2,2.8,5.2c0.9,0,1.8-0.6,2.7-2.2c2.3-3.6,2.8-8.9,3-12.6C102.8,295.9,100.5,300.5,100.5,304.8z"/>
		<path fill="#FFFFFF" d="M125.8,301.9v6.8c0.2,0.7,0.6,2.2,2.1,2.9c1.3,0.6,3,0.9,4,0.9h12.4l-0.3,1.2H132c-4.2,0-5.6-1.8-6.3-2.7
			c-0.3,0.4-2.2,2.3-3.4,3.2l-0.5-1.3c1-0.7,2-1.7,2.8-2.5v-7.3h-2.6v-1.2H125.8z M125.8,297.1c-1.5-1.7-2.1-2.3-3.6-3.4l0.8-0.9
			c1.3,0.8,2.5,1.9,3.7,3.4L125.8,297.1z M143.9,309.3h-7.9v2.6h-1.3v-2.6H127v-1.1h7.6v-1.8H128V299h6.6v-1.8h-5.3v-1.1h5.3v-2h-6
			v3.1h-1.3v-4.2h16.2v4.2h-1.4v-3.1h-6.2v2h5.2v1.1h-5.2v1.8h6.6v7.4h-6.6v1.8h7.9V309.3z M134.6,300.1h-5.3v2.2h5.3V300.1z
			 M134.6,303.2h-5.3v2.2h5.3V303.2z M141.3,300.1h-5.4v2.2h5.4V300.1z M141.3,303.2h-5.4v2.2h5.4V303.2z"/>
		<path fill="#FFFFFF" d="M166.5,312.4c0,1.3-0.3,2-1.7,2h-3.3l-0.2-1.3l3.2,0c0.5,0,0.5-0.5,0.5-0.7v-5.6h-7.3v7.3h-1.3v-7.3h-6.9
			c-0.5,4.1-1.8,6.1-3,7.6l-0.9-0.9c2.1-2.6,2.7-5.3,2.7-9.4v-10.6h18V312.4z M149.8,303.8c0,0.7,0,1.2,0,1.8h6.8v-5.1h-6.7V303.8z
			 M156.6,294.6h-6.7v4.8h6.7V294.6z M165.1,294.6h-7.3v4.8h7.3V294.6z M165.1,300.5h-7.3v5.1h7.3V300.5z"/>
		<path fill="#FFFFFF" d="M174.3,314.4H173v-13.7c-1.2,1.9-2.1,2.7-2.5,3.2l-0.9-1.2c2.3-2.3,4.7-6.3,5.9-10.3l1.3,0.4
			c-0.5,1.6-1.2,3.5-2.5,5.7V314.4z M191.7,298.9l0,1.2l-8.6,0.6c1.6,11.5,5.5,12.1,5.6,12.1c1.1,0,1.7-2.7,2-4.1l1.2,0.6
			c-0.2,1.1-1.1,5-3.3,5c-2.3,0-5.9-4.3-7-13.5l-5.5,0.4l-0.1-1.2l5.5-0.4c-0.1-0.8-0.4-3.6-0.5-7.2h1.5c0.1,2.8,0.4,6.1,0.5,7.1
			L191.7,298.9z M189.3,297.4c-1.2-1.4-2.4-2.4-4-3.6l0.9-0.9c1.4,0.8,3.1,2.3,4.2,3.4L189.3,297.4z"/>
		<path fill="#FFFFFF" d="M193.6,305.1c3.2-2.3,5.2-5.3,6.3-7.5l1.1,0.6c-0.3,0.7-1,2-2.4,3.9v12.4h-1.4v-10.7
			c-1.6,1.7-2.5,2.3-3.1,2.7L193.6,305.1z M200.3,292.9c-2.8,4.5-5.1,5.9-6,6.5l-0.5-1.3c2.2-1.2,4.3-3.8,5.4-5.8L200.3,292.9z
			 M215.9,301.3h-4.1v11.4c0,0.6,0,1.8-1.6,1.8h-3.9l-0.2-1.4l3.7,0.1c0.5,0,0.6-0.1,0.6-0.7v-11.1h-8.9V300h14.3V301.3z
			 M214.9,294.8h-12.3v-1.3h12.3V294.8z"/>
		<path fill="#FFFFFF" d="M224.4,292.9c-0.2,1.3-0.4,2.3-0.6,3.4h5.7v1.4h-6c-1.4,6.1-2.9,10-4.7,13.1l-1.4-0.8
			c2.8-4.2,4-9.5,4.7-12.3h-4.7v-1.4h4.9c0.3-1.4,0.4-2.6,0.5-3.5L224.4,292.9z M238.3,297.5c-0.6,0-0.9-0.1-1.8-0.1
			c-1.9,0-2.7,0.1-3.5,0.2l0.2,8.3c2,0.8,4.2,2.4,5.6,4l-1,1.2c-1.7-2.1-3.5-3.1-4.7-3.7v1.4c0,1.4,0,2-0.3,2.7
			c-1,2.1-3.5,2.2-4.3,2.2c-4.1,0-5.5-2.3-5.5-4.2c0-1.7,1.3-4.4,5.7-4.4c1.5,0,2.4,0.2,3,0.4l-0.2-9c3-0.5,5.6-0.5,6.7-0.4V297.5z
			 M231.9,306.8c-0.6-0.2-1.5-0.5-3-0.5c-3,0-4.3,1.5-4.3,3.1c0,2.9,3.5,2.9,4,2.9c3.1,0,3.3-1.6,3.3-3.6V306.8z"/>
		<path fill="#FFFFFF" d="M249.7,292.9c0,0.6,0,1.2,0,2.2c0,4.2,0.3,4.8,0.7,5.8c1.7-0.5,3.1-1,8.9-1.9l0.1,1.6
			c-4.7,0.6-16.2,2.3-16.2,8c0,3.3,3.3,3.5,9.6,3.5c3.7,0,6.2-0.2,7.4-0.3l0,1.5c-3.3,0.2-5.5,0.2-7.6,0.2c-4.4,0-10.8,0-10.8-5
			c0-2.2,1.7-5.1,7.2-7.1c-0.3-0.6-0.8-1.7-0.8-4.2c0-1.4-0.1-3.7-0.1-4.2H249.7z M257.4,297.4c-0.7-2.1-1.4-3-1.8-3.5l1.2-0.6
			c0.8,1.1,1.5,2.1,1.9,3.5L257.4,297.4z M260.2,296.3c-0.5-1.5-0.9-2.3-1.8-3.4l1.1-0.6c1.1,1.3,1.6,2.4,1.9,3.4L260.2,296.3z"/>
		<path fill="#FFFFFF" d="M264.6,313.7c-1.4-2.1-2.4-3.2-3.7-4.6l1.3-1.1c1.6,1.5,3,3.2,3.9,4.5L264.6,313.7z"/>
		<path fill="#FFFFFF" d="M281.8,306h10.4v1.2h-9.3c3.1,3.2,6.6,4.5,9.5,5.2l-0.7,1.4c-3.8-1.1-7.3-3-9.8-6v6.7h-1.2v-6.2
			c-1.4,1.6-4.6,3.9-9.9,5.6l-0.7-1.3c5.8-1.4,8.7-4.1,9.8-5.3h-9.5V306h10.3v-1.5h-1.8l-0.3-1.2l2.3,0.1c0.6,0,0.6-0.2,0.6-0.6
			v-3.2c-1.6,1.4-4.3,3.2-10.2,4.5l-0.6-1.2c2.1-0.4,7.2-1.4,10.3-4.4h-10.8v-1.1h10.6c-1.4-0.9-3.1-1.6-3.8-1.9l0.7-0.9
			c1.3,0.6,2.2,1,3.3,1.7c2.3-0.6,4.3-1.2,6.2-2.2h-14.8v-1.1h17.3v1c-1.2,0.8-2.7,1.8-7.4,3c0.2,0.1,0.3,0.2,0.5,0.4h8.9v1
			c-1.6,1.7-3.4,3.1-6,4.5l-0.8-1c0.8-0.4,3.1-1.6,4.8-3.5h-7.1v4.9c0,0.8-0.4,1-0.8,1.1V306z"/>
		<path fill="#FFFFFF" d="M299.1,294.6v-2.2h1.2v2.2h4.8v1.2h-4.8v2.2h4.2v8.6h-4.2v2.2h4.8v1.2h-4.8v4.4h-1.2V310h-4.9v-1.2h4.9
			v-2.2h-4v-8.6h4v-2.2h-4.6v-1.2H299.1z M299.1,299h-2.8v2.6h2.8V299z M299.1,302.7h-2.8v2.7h2.8V302.7z M303.3,299h-3v2.6h3V299z
			 M303.3,302.7h-3v2.7h3V302.7z M303.3,313.1c0.9-0.5,2.9-1.8,4.1-4c0.4-0.6,1.8-3.4,1.8-7.3v-2.9h1.4v2.8c0,2.3,0.7,5.3,1.9,7.3
			c1.3,2.2,3,3.5,4,4.2l-0.8,1.1c-3.5-2.4-4.8-5.1-5.7-8.4c-0.8,3.2-2.3,6.4-5.6,8.4L303.3,313.1z M304.9,300.8c2-2.5,3-6.7,3.4-8.4
			l1.3,0.2c-0.2,0.8-0.4,2-1,3.7h7.4v1c0,0.4-1.5,4.9-2.4,6.2l-1.2-0.7c0.5-0.8,1.3-2.4,2.2-5.4h-6.4c-0.7,1.8-1.4,3.3-2.3,4.4
			L304.9,300.8z"/>
		<path fill="#FFFFFF" d="M325.7,292.9c-0.2,1.3-0.4,2.3-0.6,3.4h5.7v1.4h-6c-1.4,6.1-2.9,10-4.7,13.1l-1.4-0.8
			c2.8-4.2,4-9.5,4.7-12.3h-4.7v-1.4h4.9c0.3-1.4,0.4-2.6,0.5-3.5L325.7,292.9z M339.6,297.5c-0.6,0-0.9-0.1-1.8-0.1
			c-1.9,0-2.7,0.1-3.5,0.2l0.2,8.3c2,0.8,4.2,2.4,5.6,4l-1,1.2c-1.7-2.1-3.5-3.1-4.7-3.7v1.4c0,1.4,0,2-0.3,2.7
			c-1,2.1-3.5,2.2-4.3,2.2c-4.1,0-5.5-2.3-5.5-4.2c0-1.7,1.3-4.4,5.7-4.4c1.5,0,2.4,0.2,3,0.4l-0.2-9c3-0.5,5.6-0.5,6.7-0.4V297.5z
			 M333.2,306.8c-0.6-0.2-1.5-0.5-3-0.5c-3,0-4.3,1.5-4.3,3.1c0,2.9,3.5,2.9,4,2.9c3.1,0,3.3-1.6,3.3-3.6V306.8z"/>
		<path fill="#FFFFFF" d="M358.2,292.9h1.4v5h4.5v1.4h-4.5v3.6c0,2.4-0.8,6.2-4,8.4c-2.9,2-6.4,2.4-7.5,2.5l-0.5-1.5
			c1.2-0.1,4.6-0.4,7.4-2.3c3.2-2.2,3.2-6.9,3.2-7.1v-3.6h-9.7v7.1H347v-7.1h-4.4v-1.4h4.4V293h1.5v4.8h9.7V292.9z"/>
		<path fill="#FFFFFF" d="M34.6,347.3c1.2-1.4,3.1-3.8,4-9.6l1.4,0.1c-0.9,6.8-3.1,9.3-4,10.5L34.6,347.3z M45.3,329.1v4.4h9v1.4h-9
			v15h-1.4v-15h-8.9v-1.4h8.9v-4.4H45.3z M50.9,337.6c0.4,3,1.5,6.9,3.8,9.9l-1.3,0.8c-2.3-2.9-3.5-7.1-3.9-10.5L50.9,337.6z
			 M55.6,330.3c0,1.4-1.1,2.5-2.5,2.5c-1.4,0-2.5-1.1-2.5-2.5c0-1.4,1.1-2.5,2.5-2.5S55.6,328.9,55.6,330.3z M51.6,330.3
			c0,0.8,0.6,1.4,1.4,1.4c0.8,0,1.4-0.7,1.4-1.4c0-0.8-0.6-1.4-1.4-1.4C52.3,328.9,51.6,329.5,51.6,330.3z"/>
		<path fill="#FFFFFF" d="M79.2,338.6v1.6H57.9v-1.6H79.2z"/>
		<path fill="#FFFFFF" d="M85.9,328.8v6.6c4.7,1.4,9.4,3.8,12.3,5.4l-0.7,1.5c-3.3-2-7.5-4.1-11.6-5.4v13.1h-1.5v-21.1H85.9z"/>
		<path fill="#FFFFFF" d="M110.7,328.5c-0.1,0.8-0.3,1.4-0.7,3h10.9v1.3h-11.3c-0.9,2.8-1.6,3.8-2,4.3c0.7-0.6,2.3-1.8,4.7-1.8
			c3,0,3.3,2.1,3.5,3.2c3.7-1.5,4.1-1.6,6.5-2.6l0.5,1.5c-2.3,0.7-4.7,1.5-6.8,2.4c0.1,1.1,0.1,2.5,0.1,3.4c0,0.3,0,1-0.1,1.6h-1.4
			c0.1-0.7,0.1-1.2,0.1-2.4c0-0.2,0-1.1,0-2c-3.1,1.4-5.9,3.2-5.9,5.3c0,2.4,3.4,2.4,6,2.4c3.3,0,5.6-0.3,6.7-0.4l0.1,1.4
			c-1.3,0.1-3.2,0.3-6.2,0.3c-2.6,0-7.9,0-7.9-3.7c0-3,3.6-5.2,7.1-6.8c-0.2-1.1-0.4-2.6-2.4-2.6c-2.4,0-4.7,2.3-5,2.5
			c-0.3,0.4-3.2,4.2-3.9,4.9l-1-1.2c1.3-1.2,3.9-3.6,6-9.9h-5.5v-1.3h5.9c0.4-1.5,0.5-2.3,0.6-3L110.7,328.5z"/>
		<path fill="#FFFFFF" d="M129.7,338.6c-1.4,1.3-2.4,3-2.4,4.8c0,4,5.2,4.1,8.4,4.1c3.7,0,6.8-0.4,8.5-0.6l0.1,1.6
			c-2.2,0.1-5.7,0.4-8.2,0.4c-2.6,0-5.4-0.2-7.2-1c-2-0.9-2.9-2.8-2.9-4.5c0-2.5,1.4-4.3,2.6-5.7L129.7,338.6z M142.3,331.6
			c-2.9,0.4-6.5,2.1-8.1,3.1l-0.9-1.1c1.9-1.1,3-1.5,4.8-2c-7.1,0.1-7.5,0.1-11.1,0.2v-1.5c2,0,13.1,0,15.3,0V331.6z M141.7,338.3
			c-0.5-1.3-0.9-2.1-1.8-3.6l1.2-0.5c0.6,0.8,1.2,1.8,1.9,3.6L141.7,338.3z M144.3,337c-0.6-1.5-1-2.3-1.8-3.4l1.2-0.5
			c0.8,1.1,1.3,2.1,1.8,3.4L144.3,337z"/>
		<path fill="#FFFFFF" d="M154.8,340.2c-0.5,0.3-1,0.6-2.9,1.4v6.9c0,1-0.2,1.9-2,1.9h-2l-0.3-1.4l1.9,0c0.6,0,1.1-0.1,1.1-0.9v-6.1
			c-2.1,0.8-2.7,1-3.3,1.2l-0.2-1.3c0.9-0.2,1.8-0.5,3.6-1.2v-6.5h-3.3v-1.2h3.3v-4.7h1.3v4.7h3.1v1.2h-3.1v5.9
			c1-0.4,1.9-0.8,2.7-1.2L154.8,340.2z M153.6,349.4c2.3-1.9,3.3-4.9,3.5-8.3l1.3,0.2c-0.1,0.7-0.2,1.5-0.6,3
			c0.7,1.8,1.9,3.1,3.5,3.8v-8.6h-6.2v-1.2h14.2v1.2h-6.6v3.4h5.7v1.2h-5.7v4.4c0.8,0.2,1.7,0.2,2,0.2h4.8l-0.3,1.2h-4.7
			c-1.7,0-5.3,0-7.3-3.8c-0.8,2.6-2.1,3.7-2.9,4.5L153.6,349.4z M167.9,336.6h-11.7v-7.7h11.7V336.6z M166.7,330h-9.2v2.2h9.2V330z
			 M166.7,333.3h-9.2v2.2h9.2V333.3z"/>
		<path fill="#FFFFFF" d="M175.3,350.4H174v-13.3c-1.1,1.7-1.8,2.4-2.1,2.7l-0.8-1.3c1.6-1.6,3.6-4,5.3-10.3l1.2,0.4
			c-0.3,1-0.8,3.2-2.3,6.1V350.4z M176.3,349.1c1.8-1,4.1-3.2,5.4-5.5l1.2,0.6c-1.6,2.8-3.8,4.7-5.6,6L176.3,349.1z M182.1,328.4
			v4.8h5.6v-4.8h1.3v4.8h3.8v1.2H189v6.4h4.3v1.2h-16.8v-1.2h4.2v-6.4h-3.9v-1.2h3.9v-4.8H182.1z M187.7,334.4h-5.6v6.4h5.6V334.4z
			 M192.7,350.3c-1.8-1.3-4.2-3.5-5.8-5.8l1.1-0.7c1.4,2,3.4,3.9,5.6,5.4L192.7,350.3z"/>
		<path fill="#FFFFFF" d="M198.3,330c-0.1,1.1-0.4,3.3-0.4,6.8c0,4.5,0.3,10.6,3.6,10.6c1,0,1.7-0.6,2.3-1.4
			c0.6-0.7,1.5-2.1,2.4-4.6l1.2,0.6c-1.3,3.6-2.9,5.3-3.4,5.8c-0.4,0.4-1.3,1.2-2.7,1.2c-3.9,0-5-5.4-5-12.3c0-2.8,0.2-5.3,0.3-6.8
			L198.3,330z M215.1,346.5c0-0.7,0.1-1.5,0.1-2.8c0-7.9-3-10.7-4.7-12.2l1-1c3.2,2.5,5.2,6.2,5.2,13.7c0,0.8,0,1.4,0,2.2
			L215.1,346.5z"/>
		<path fill="#FFFFFF" d="M225.7,328.9c-0.1,1-0.2,2-0.4,3.4h7.4v1.4h-7.6c-1.1,6.9-2.7,12.6-4.5,16.2l-1.5-0.6
			c2.2-3.8,3.8-10.9,4.4-15.7h-3.8v-1.4h4c0.1-0.6,0.3-3,0.4-3.5L225.7,328.9z M230.4,342.2c-0.8,1.3-1.3,2.1-1.3,3.2
			c0,2.6,2.9,2.7,6.3,2.7c1.7,0,3.4-0.1,4.8-0.2v1.5c-0.7,0-4.5,0.1-4.7,0.1c-3.7,0-4.8-0.4-5.7-0.7c-1.5-0.6-2.2-2.1-2.2-3.4
			c0-1.6,0.8-2.8,1.5-3.8L230.4,342.2z M239.6,337c-0.6,0-1.3-0.1-2.4-0.1c-3.9,0-6.1,0.8-7,1.1l-0.4-1.3c1.3-0.5,3.9-1.4,9.8-1.2
			V337z"/>
		<path fill="#FFFFFF" d="M246.4,329.1c0,1.8-0.3,10.1-0.3,11.8c0,3.7,0.2,7.2,5.4,7.2c5.1,0,6.5-2.8,7-3.8c0.7-1.4,1.1-3.6,1.3-4.7
			l1.4,0.3c-0.6,3.5-1.6,9.5-9.5,9.5c-6.5,0-7.2-3.6-7.2-8.9c0-1.8,0.2-9.9,0.2-11.5H246.4z"/>
		<path fill="#FFFFFF" d="M274,331.9V329h1.4v2.9h8.2v1.2h-8.2v3.7h7.7v1.2h-7.7v4c1.1,0.4,3.7,1.3,7.6,4.6l-1,1.4
			c-2.3-2.3-3.8-3.5-6.7-4.8v1.9c0,3-1.6,4.4-4.9,4.4c-4.4,0-5.5-2.2-5.5-4c0-2.5,2.5-4.3,6.2-4.3c1.3,0,2.3,0.2,2.8,0.3V338h-9.5
			v-1.2h9.5v-3.7h-9.8v-1.2H274z M274,342.9c-0.6-0.1-1.3-0.3-2.7-0.3c-2.7,0-4.9,1-4.9,3c0,2.4,2.7,2.7,4,2.7
			c2.9,0,3.6-1.2,3.6-3.3V342.9z"/>
		<path fill="#FFFFFF" d="M298.3,328.8h1.5v3h6.6v1.3h-6.6v5c0.1,0.4,0.2,0.9,0.3,1.5c0.1,0.6,0.2,1.4,0.2,2.3
			c0,4.4-2.5,7.5-9.8,7.9l-0.5-1.4c8.5,0.1,9-4.6,9.2-6.6c-0.4,0.9-1.2,3.2-4.6,3.2c-3.3,0-4.6-2.6-4.6-4.8c0-2.5,1.6-5,5.1-5
			c2,0,2.9,0.9,3.2,1.3l0-3.4h-12.7v-1.3h12.7L298.3,328.8z M298.4,339.1c0-0.1-0.5-2.6-3.2-2.6c-1.9,0-3.6,1.2-3.6,3.6
			c0,1.3,0.7,3.6,3.2,3.6c0.7,0,1.5-0.2,2.2-0.6c1-0.6,1.5-2.4,1.5-2.7V339.1z"/>
		<path fill="#FFFFFF" d="M316.6,346.3c0,1.9-1.5,3.4-3.4,3.4c-1.9,0-3.4-1.5-3.4-3.4c0-1.9,1.5-3.4,3.4-3.4
			C315.1,342.9,316.6,344.4,316.6,346.3z M310.9,346.3c0,1.3,1.1,2.4,2.4,2.4c1.3,0,2.3-1.1,2.3-2.4c0-1.3-1.1-2.3-2.3-2.3
			C311.9,343.9,310.9,345,310.9,346.3z"/>
	</g>
</g>
</svg>
