<?xml version="1.0" encoding="utf-8"?>
<!-- Generator: Adobe Illustrator 19.1.0, SVG Export Plug-In . SVG Version: 6.00 Build 0)  -->
<svg version="1.0" id="レイヤー_1" xmlns="http://www.w3.org/2000/svg" xmlns:xlink="http://www.w3.org/1999/xlink" x="0px"
	 y="0px" viewBox="0 0 195 160" enable-background="new 0 0 195 160" xml:space="preserve">
<g>
	<g>
		<path fill="#FFFFFF" d="M19.6,81.4c0,0-10.7,2.9-12.6,12c-1.9,9,3.2,14.5,3.2,14.5s-9.9,7.3-6,14.1c3.9,6.8,29.2-5.5,29.7-15.6
			c0.3-7.1-6.7-10.5-6.7-10.5s2.2-1.8,2.9-6.8C31,79.9,24.1,78.5,19.6,81.4z"/>
		<path fill="#FF9900" d="M8.7,127L8.7,127c-4.4,0-6.4-1.9-7.3-3.6c-3.5-6.1,0.5-12.4,4.5-16.3c-1.6-2.9-3.4-7.9-2-14.5
			C6,82.9,16,79.1,18.3,78.4c1.8-1,3.8-1.6,5.8-1.6c2.7,0,5.1,1,6.8,2.9c1.4,1.6,2.9,4.5,2.3,9.6c-0.3,2.4-0.9,4.2-1.6,5.6
			c2.6,2.1,5.7,5.9,5.5,11.5C36.6,116.6,18.5,127,8.7,127z M6.9,120.2c0,0,0.4,0.3,1.7,0.3l0,0c3.5,0,9.1-2.1,13.8-5.2
			c4.8-3.1,8-6.8,8.1-9.2c0.2-4.9-4.9-7.4-4.9-7.5l-5.1-2.5l4.5-2.9c0.3-0.3,1.3-1.6,1.7-4.7c0.3-2.1,0-3.7-0.7-4.5
			c-0.6-0.6-1.4-0.8-1.9-0.8c-0.9,0-1.9,0.3-2.7,0.8L21,84.3l-0.5,0.1c-0.1,0-8.8,2.5-10.3,9.5c-1.5,7.2,2.3,11.5,2.4,11.6l2.5,2.7
			l-2.9,2.2C12,110.4,4.6,116.2,6.9,120.2L6.9,120.2z"/>
	</g>
	<g>
		<path fill="#FFFFFF" d="M126.1,119.5c5.2-4.1,8-10.5,7-17.1c-1.2-7.8-7.5-13.6-15.4-15.2c0.6-2.5,0.8-5.1,0.4-7.8
			c-1.8-11.3-13.2-18.9-25.5-17c-5.9,0.9-11,3.9-14.4,8c-4.8-2.9-11.3-4.2-18.3-3.1c-10.8,1.7-19,8.5-20.3,16.2
			c-1.1,0-2.2,0.1-3.3,0.2c-10.3,1.6-17.5,10.7-16,20.2c0.5,3.5,2.2,6.5,4.5,8.9c-1.9,3.2-2.8,7-2.2,10.8c1.2,7.6,7.8,13.2,15.7,14
			c0,0.6,0.1,1.2,0.2,1.8c1.4,9,10.5,15,20.3,13.5c4.7-0.7,8.6-3,11.4-6.2c3.6,6.6,11.6,10.5,20,9.1c7.8-1.2,13.8-6.5,15.8-13.1
			c2.8,1.2,6.1,1.7,9.5,1.1c8.9-1.4,15.1-9.2,13.8-17.4C128.8,123.8,127.7,121.4,126.1,119.5z M58,101.1c0-0.1,0-0.1,0-0.2
			c0.1,0,0.2,0,0.2,0C58.2,101,58.1,101,58,101.1z"/>
		<path fill="#FF9900" d="M86.8,159.2c-6.8,0-13.1-2.9-17.2-7.7c-3,2.3-6.5,3.9-10.4,4.5c-1.2,0.2-2.4,0.3-3.5,0.3
			c-10.1,0-18.6-6.7-20.3-15.9c-8.3-1.8-14.7-8.2-15.9-16.3c-0.6-3.7-0.1-7.4,1.5-10.9c-2-2.6-3.3-5.6-3.8-8.9
			C15.4,93,23.8,82.3,36,80.4c0.4-0.1,0.8-0.1,1.2-0.2c2.7-8,11.5-14.5,22.2-16.2c1.8-0.3,3.6-0.4,5.4-0.4c4.6,0,9,0.9,12.7,2.7
			c3.9-3.8,9-6.3,14.6-7.1c1.4-0.2,2.9-0.3,4.3-0.3c12.6,0,23.1,8.4,24.9,20c0.3,2,0.4,3.9,0.1,5.9c7.9,2.6,13.6,9,14.9,17
			c1,6.6-1.2,13.2-5.9,18.1c1.1,1.8,1.8,3.9,2.1,6c0.8,4.9-0.6,9.8-3.8,13.8c-3.1,3.9-7.7,6.5-12.8,7.3c-2.7,0.4-5.5,0.3-8.1-0.3
			c-3.2,6.4-9.6,11.1-17.2,12.2C89.4,159.1,88.1,159.2,86.8,159.2z M70.7,141l2.2,4.1c2.6,4.8,8,7.7,13.9,7.7c0.9,0,1.9-0.1,2.8-0.2
			c6.3-1,11.5-5.2,13.2-10.8l1.1-3.4l3.3,1.4c2.4,1,5.1,1.3,7.7,0.9c3.5-0.6,6.6-2.3,8.7-5c2-2.6,2.9-5.7,2.4-8.7
			c-0.3-2-1.2-3.8-2.5-5.3l-2.1-2.5l2.6-2.1c4.5-3.6,6.6-8.9,5.8-14.1c-1-6.3-6-11.2-12.8-12.5l-3.4-0.7l0.9-3.3
			c0.5-2.1,0.7-4.3,0.3-6.5c-1.3-8.4-9.1-14.6-18.5-14.6c-1.1,0-2.2,0.1-3.3,0.3c-4.9,0.8-9.3,3.2-12.4,6.8l-1.8,2.1l-2.4-1.4
			c-4.2-2.6-10.2-3.6-16.1-2.7c-9.1,1.4-16.4,7.1-17.5,13.5l-0.5,2.7h-2.7l0,0c-1,0-1.9,0.1-2.8,0.2c-8.6,1.3-14.6,8.7-13.4,16.5
			c0.4,2.7,1.7,5.2,3.6,7.2l1.7,1.8l-1.3,2.1c-1.6,2.7-2.2,5.7-1.8,8.6c0.9,6,6.2,10.6,12.8,11.3l2.8,0.3l0.1,2.8
			c0,0.5,0.1,0.9,0.1,1.4c1,6.4,6.9,11,14.1,11c0.8,0,1.7-0.1,2.5-0.2c3.7-0.6,7.1-2.4,9.4-5.2L70.7,141z M54.6,107.4l0.2-6.5
			l0.1-3.4l3.6,0.3l9.5,0.6l-8.1,5.4L54.6,107.4z"/>
	</g>
	<path fill="#FF9900" d="M41.6,138c0,0-1-5.4,2.7-13.2c0,0-8.1,0.9-8.3,10.6"/>
	<path fill="#FF9900" d="M102.8,142c0,0,3-7.7-0.2-14.9c0,0,8.9,4.3,6.1,14.7"/>
	<g>
		<path fill="#FFFFFF" d="M122.6,52.1c1.3-2.9,2-6.2,2-9.6c0-13.4-10.8-24.2-24.2-24.2c-1.6,0-3.1,0.2-4.6,0.5
			C92.9,9.6,81.8,3,68.7,3.2c-14.7,0.3-26.5,9.1-27,20c-0.4,0-0.8,0-1.2,0c-9.9,0-17.9,8-17.9,17.9c0,3.6,1,6.9,2.8,9.7
			c-6.9,3.8-11.6,11.1-11.6,19.5c0,10.9,7.8,19.9,18.1,21.8c3.7,9.1,12.5,15.5,22.9,15.5c6,0,11.5-2.2,15.8-5.7
			c4.6,4,11.3,6.5,18.6,6.5c10.5,0,19.4-5,23.3-12.2c10.5,1.4,20.8-6,23.6-17.4C139.1,67,133.1,55.4,122.6,52.1z"/>
		<path fill="#FF9900" d="M89.4,111.6c-6.9,0-13.5-2-18.6-5.6c-4.6,3.2-10.1,4.9-15.8,4.9c-10.9,0-20.6-6.2-25.2-16
			c-11.1-2.9-19-13-19-24.6c0-8.3,4-15.9,10.6-20.7c-1.2-2.7-1.8-5.6-1.8-8.6C19.4,30,28,20.9,38.9,20C41.3,8.8,53.7,0.3,68.7,0
			c13.2-0.2,24.7,5.9,29.2,15.2c0.9-0.1,1.7-0.1,2.6-0.1c15.1,0,27.4,12.3,27.4,27.4c0,2.7-0.4,5.3-1.1,7.8
			c10.1,5,15.6,17.2,12.6,29.3c-2.9,11.8-12.8,20.1-24.1,20.1l0,0c-0.3,0-0.6,0-0.8,0C109.4,107,99.8,111.6,89.4,111.6z M70.8,97.7
			l2.1,1.8c4.2,3.6,10.2,5.7,16.5,5.7c9,0,17-4.1,20.5-10.5l1.1-2l2.2,0.3c0.7,0.1,1.4,0.1,2.1,0.1c8.2,0,15.7-6.4,17.9-15.2
			c2.5-10-2.5-20-11.4-22.8l-3.4-1.1l1.4-3.3c1.1-2.6,1.7-5.4,1.7-8.3c0-11.6-9.4-21-21-21c-1.3,0-2.7,0.1-4,0.4l-2.8,0.5l-0.9-2.7
			c-2.6-7.7-12.7-13.3-24-13.1C56,6.7,45.4,14.3,45,23.4l-0.1,3.3l-3.3-0.2c-0.4,0-0.7,0-1,0c-8.1,0-14.7,6.6-14.7,14.7
			c0,2.8,0.8,5.6,2.3,7.9l1.9,2.9L27,53.6c-6.1,3.3-9.9,9.7-9.9,16.7c0,9.1,6.5,17,15.5,18.7l1.7,0.3l0.7,1.6
			c3.3,8.2,11.1,13.5,20,13.5c5,0,9.9-1.8,13.8-5L70.8,97.7z"/>
	</g>
	<path fill="#FF9900" d="M103.8,21.6c0,0-16.2-0.8-28.1,21.7c0,0-0.9-14.9,16.6-26.8"/>
	<path fill="#FF9900" d="M30.5,28.4c8.9-3.4,24.1,2.2,28.9,16.1c0,0-0.8-12.3-14.4-20.8"/>
	<path fill="#FF9900" d="M110.4,94c0,0,3.7-9.4,2.5-15.2c0,0,7,11.9,3.7,16.8"/>
	<path fill="#FF9900" d="M35,90.8c0,0-2.4-4.5-0.7-9.2c0,0-5.4,3.8-3.8,9"/>
	<path fill="#FF9900" d="M121.7,55.2c0,0-7.6-3.1-12.3-0.9c0,0,6.9-7.3,14.5-5.2"/>
	<path fill="#FF9900" d="M27.1,53.6c0,0,4.5-3.6,11.4-2.7c0,0-6.2-5.2-12.8-1.4"/>
	<g>
		<path fill="#FFFFFF" d="M140.8,78.7c0,0,2-8,11.5-13.8c11.9-7.2,5.7,8.2,4.7,9.7c0,0,11.9-10,21.9,0c7.9,7.9,0.9,16.7-12.2,17
			c-13.2,0.3-16.2-1.7-16.2-1.7s-1.6,18.5-10.7,22.6c-9.1,4.1-20.2-9.7-19.7-19.1c0.4-7.9,7.4-8.7,12.4-4.3c2.1,1.8,3.9,5.3,3.9,5.3
			S136.1,87.4,140.8,78.7z"/>
		<path fill="#FF9900" d="M136.4,116.3c-4.1,0-8.3-2.1-12-6c-4.7-4.9-7.5-11.6-7.3-17c0.3-7.2,5.1-9.8,9-9.8c2.8,0,5.8,1.2,8.3,3.3
			c0.7-2.7,1.8-5.8,3.6-9.2c0.6-1.9,3.4-9.5,12.8-15.2c2.6-1.6,4.7-2.3,6.5-2.3c1.9,0,3.6,0.9,4.5,2.5s0.9,3.7,0.6,5.8
			c1.9-0.7,4.2-1.2,6.5-1.2c4.6,0,8.7,1.8,12.3,5.3c3.9,3.9,5.2,8.5,3.5,12.7c-2.2,5.6-9.1,9.2-17.8,9.4c-1,0-1.9,0-2.8,0
			c-5.2,0-8.6-0.4-11-0.8c-1,6.1-3.9,17.9-12,21.5C139.6,115.9,138.1,116.3,136.4,116.3z M126.2,89.5c-1.9,0-2.9,1.4-3,4.1
			c-0.2,3.7,2.1,8.9,5.6,12.5c2.5,2.6,5.3,4.1,7.7,4.1c0.8,0,1.5-0.2,2.2-0.5c6.1-2.7,8.5-15.7,8.9-20.1L148,84l4.1,3.3
			c0.5,0.2,3.6,1.3,11.9,1.3c0.8,0,1.7,0,2.7,0c7-0.2,11.3-2.9,12.3-5.6c1-2.4-0.6-4.7-2.1-6.2c-2.4-2.4-5-3.6-8-3.6
			c-5.2,0-9.8,3.7-9.8,3.7l-4.5-3.9c0.7-1.3,1.9-5,2-6.8c-0.5,0.2-1.4,0.5-2.6,1.3c-8.3,5-10.1,11.6-10.2,11.9l-0.1,0.3l-0.2,0.3
			c-4.2,7.8-4,14.1-4,14.2l-5.7,1.5c-0.4-0.8-1.8-3.2-3.2-4.4C129.2,90.2,127.5,89.5,126.2,89.5z"/>
	</g>
	<polygon fill="#FF9900" points="133.7,95.6 138.4,103.1 139.4,94.2 	"/>
	<g>
		<path fill="#FFFFFF" d="M135.8,31.6c0,0-1.5,1.1-1.3,3.8c0.2,2.6-0.2-0.6-0.2-0.6l28.9,49.5h3l28.9-49.5c0,0,0.4-2.2-1.6-3.2
			C193.5,31.6,135.8,31.6,135.8,31.6z"/>
		<g>
			<polygon fill="#FF9B00" points="163.1,84.3 134.2,69.5 134.2,34.8 163.1,47.6 			"/>
			<polygon fill="#FF9B00" points="166,84.3 194.9,69.5 194.9,34.8 166,47.6 			"/>
			<polygon fill="#FF9B00" points="135.8,31.6 164.7,44.2 193.3,31.6 164.6,18.7 			"/>
		</g>
	</g>
	<g>
		<path fill="#FF9B00" d="M47.3,68.1c0.9,0.8,1.9,1.4,3,2c1,0.6,2.1,1.1,3.2,1.6c2.2,0.9,4.4,1.6,6.7,2s4.6,0.6,6.9,0.5
			c1.2,0,2.3-0.1,3.5-0.2l0.9-0.1l0.4-0.1l0.4-0.1c0.5-0.1,1.1-0.2,1.7-0.3c2.2-0.5,4.3-1.3,6.2-2.4c1-0.5,1.9-1.1,2.8-1.8
			c0.9-0.7,1.7-1.4,2.5-2.2c0.8-0.8,1.5-1.6,2.2-2.5s1.3-1.8,1.9-2.8c1.2-1.9,2.2-4,3-6l0,0c0.5-1.2,1.8-1.9,3.1-1.4
			c1.2,0.4,1.8,1.7,1.5,2.9c-0.7,2.6-1.8,5-3.2,7.3c-1.4,2.3-3,4.4-5,6.2c-3.8,3.7-9,6.3-14.2,7.1c-2.7,0.5-5.2,0.5-7.8,0.3
			c-2.6-0.2-5.1-0.7-7.6-1.4c-2.5-0.8-4.8-1.9-6.9-3.3c-2.1-1.4-4.1-3.1-5.6-5.1c-0.1-0.1-0.1-0.3,0.1-0.4C47,68,47.1,68,47.3,68.1
			L47.3,68.1z"/>
		<path fill="#FF9B00" d="M88.5,54.3c0.6-1.7,1.6-3.1,3.1-4.2c0.8-0.5,1.7-1,2.7-1.2s2.2-0.1,3.2,0.2h0.1h0.1l0.2,0.1
			c0.1,0.1,0.3,0.1,0.4,0.2c0.2,0.1,0.5,0.3,0.7,0.4c0.4,0.3,0.8,0.7,1.2,1.1c0.7,0.8,1.1,1.8,1.3,2.7c0.2,0.9,0.3,1.8,0.2,2.7
			c-0.1,0.9-0.3,1.7-0.6,2.5c-0.1,0.2-0.4,0.3-0.6,0.2c-0.1-0.1-0.2-0.2-0.3-0.3l0,0c-0.4-1.5-0.8-3-1.4-4.2c-0.3-0.6-0.6-1.1-1-1.5
			s-0.8-0.6-1.3-0.8s-1-0.3-1.5-0.2c-0.5,0-1.1,0.2-1.8,0.4c-1.2,0.5-2.5,1.3-3.9,2.2l0,0c-0.2,0.1-0.5,0.1-0.6-0.1
			C88.4,54.5,88.4,54.4,88.5,54.3z"/>
	</g>
	<g>
		<path fill="#FFFFFF" d="M176.1,67.6l-1.9,1l-0.6-2.6l-2.8,1.4l-0.6,3.2l-1.9,1l2.9-15.2l2-1L176.1,67.6z M173.1,63.7l-0.9-4.2
			l-0.9,5.1L173.1,63.7z"/>
		<path fill="#FFFFFF" d="M184.3,49.8l-1.8,14.6l-1.6,0.8l-0.9-8.5l-0.9,9.4l-1.6,0.8l-1.8-12.8l1.8-0.9l0.8,8.5l0.7-9.3l1.9-1
			l0.7,8.6l0.8-9.3L184.3,49.8z"/>
		<path fill="#FFFFFF" d="M191.8,55.5c0,1.6-0.3,3-1,4c-0.5,0.8-1.4,1.5-2.5,2.1c-2.3,1.1-3.4,0.3-3.4-2.6v-0.6l1.8-0.9
			c0,1.1,0.1,1.7,0.3,1.8s0.6,0,1.4-0.3c0.5-0.2,0.8-0.5,1.1-0.7c0.4-0.4,0.5-0.9,0.5-1.6c0-0.6-0.3-0.9-0.9-0.9c-0.5,0-1.2,0-2.2,0
			c-0.7,0-1.2-0.1-1.4-0.4c-0.4-0.3-0.5-1-0.5-2c0-2.8,1.1-4.8,3.3-5.9c1.4-0.7,2.4-0.7,2.8,0c0.3,0.4,0.4,1.4,0.5,3l-1.8,0.9
			c0-0.4,0-0.7,0-0.9c0-0.3-0.1-0.5-0.3-0.6c-0.2-0.2-0.6-0.1-1.2,0.2c-1,0.5-1.5,1.2-1.5,2.1c0,0.4,0.1,0.6,0.3,0.7
			c0.1,0,0.3,0.1,0.6,0.1h2.2c0.7,0,1.2,0.2,1.4,0.5C191.6,53.8,191.8,54.5,191.8,55.5z"/>
	</g>
</g>
</svg>
