<?xml version="1.0" encoding="utf-8"?>
<!-- Generator: Adobe Illustrator 19.1.0, SVG Export Plug-In . SVG Version: 6.00 Build 0)  -->
<svg version="1.0" id="レイヤー_1" xmlns="http://www.w3.org/2000/svg" xmlns:xlink="http://www.w3.org/1999/xlink" x="0px"
	 y="0px" viewBox="0 0 93 24" enable-background="new 0 0 93 24" xml:space="preserve">
<g>
	<g>
		<path fill="#1B2B79" d="M5.8,7c0,0.1-0.1,0.1-0.2,0.1C5.5,7.1,5.5,7,5.5,6.9C5,4.8,3.7,1.3,2.5,1.3c-0.7,0-0.7,0.6-0.7,1.3
			c0,1.3,0.4,2.6,2.3,6.9c1.9,4,2.1,4.9,2.1,7c0,2.9-1.5,3.7-2.5,3.7c-0.7,0-1.2-0.3-1.5-0.5c-0.3-0.2-0.5-0.3-0.5-0.3
			c-0.1,0-0.3,0.2-0.9,0.6c-0.1,0.1-0.2,0.2-0.3,0.2c-0.1,0-0.1-0.1-0.1-0.1v-6.8c0-0.1,0-0.2,0.1-0.2c0.1,0,0.1,0.1,0.2,0.2
			c0.5,2.2,1.3,5.6,2.9,5.6c0.5,0,0.8-0.6,0.8-1.4c0-1.8-0.8-3.8-2.3-7C0.5,7.4,0,5.3,0,3.4C0,0.8,1.1,0,2.5,0C3,0,3.6,0.3,4,0.6
			c0.1,0.1,0.3,0.2,0.4,0.2c0.1,0,0.4-0.2,0.6-0.4C5.3,0.1,5.4,0,5.6,0c0.1,0,0.2,0.1,0.2,0.3V7z"/>
		<path fill="#1B2B79" d="M9.1,14.4c0,3.4,0.5,4.7,1.7,4.7c0.9,0,1.3-0.4,1.9-1.3c0.1-0.1,0.1-0.1,0.2-0.1s0.1,0.1,0.1,0.2
			c-0.3,1.3-1.2,2.4-2.5,2.4C8,20.2,7,17.8,7,11.8c0-4.1,1.2-6.5,3.1-6.5c1.6,0,2.9,1.1,2.9,5.1V12c0,0.2-0.1,0.3-0.2,0.3H9.1V14.4z
			 M11.1,11.3V8.6c0-1.4-0.4-2.2-1-2.2c-0.7,0-1,0.8-1,2.2v2.7H11.1z"/>
		<path fill="#1B2B79" d="M16.7,18.8c0,0.1,0,0.2,0,0.2l0.9,0.9c0.1,0.1,0.1,0.1,0.1,0.2c0,0.1-0.1,0.1-0.2,0.1H14
			c-0.1,0-0.2,0-0.2-0.1c0-0.1,0-0.1,0.1-0.2l0.8-0.9c0.1-0.1,0.1-0.1,0.1-0.2V6.5c0-0.1,0-0.2-0.1-0.2L14,5.6
			c-0.1-0.1-0.1-0.2-0.1-0.2c0-0.1,0.1-0.1,0.2-0.1h2.6c0.1,0,0.1,0.1,0.1,0.2v0.9h0.1c0.4-0.5,0.9-1.1,1.5-1.1
			c0.9,0,1.5,1.4,1.5,2.3c0,0.1,0,0.2-0.1,0.2c-0.1,0-0.2-0.1-0.2-0.2c-0.3-0.7-0.8-1-1.4-1c-0.8,0-1.3,1.1-1.3,2.5V18.8z"/>
		<path fill="#1B2B79" d="M24,19.8c0,0.2-0.1,0.5-0.3,0.5H23c-0.2,0-0.3-0.2-0.3-0.4L20.7,6.7c0-0.2-0.1-0.4-0.2-0.5l-0.6-0.6
			c-0.1-0.1-0.1-0.2-0.1-0.2c0-0.1,0.1-0.1,0.2-0.1h3.1c0.1,0,0.2,0,0.2,0.1c0,0.1,0,0.1-0.1,0.2l-0.7,0.8c-0.1,0.1-0.1,0.3-0.1,0.4
			l1.1,7.5h0.1l1-7.5c0-0.2,0-0.3-0.1-0.4l-0.7-0.8c-0.1-0.1-0.1-0.1-0.1-0.2c0-0.1,0.1-0.1,0.2-0.1h2.8c0.1,0,0.2,0,0.2,0.1
			c0,0.1-0.1,0.1-0.1,0.2l-0.6,0.6c-0.1,0.1-0.2,0.3-0.2,0.5L24,19.8z"/>
		<path fill="#1B2B79" d="M29.6,14.4c0,3.4,0.5,4.7,1.7,4.7c0.9,0,1.3-0.4,1.9-1.3c0.1-0.1,0.1-0.1,0.2-0.1s0.1,0.1,0.1,0.2
			c-0.3,1.3-1.2,2.4-2.5,2.4c-2.5,0-3.5-2.4-3.5-8.5c0-4.1,1.2-6.5,3.1-6.5c1.6,0,2.9,1.1,2.9,5.1V12c0,0.2-0.1,0.3-0.2,0.3h-3.6
			V14.4z M31.6,11.3V8.6c0-1.4-0.4-2.2-1-2.2c-0.7,0-1,0.8-1,2.2v2.7H31.6z"/>
		<path fill="#1B2B79" d="M37.2,18.8c0,0.1,0,0.2,0,0.2l0.9,0.9c0.1,0.1,0.1,0.1,0.1,0.2c0,0.1-0.1,0.1-0.2,0.1h-3.6
			c-0.1,0-0.2,0-0.2-0.1c0-0.1,0-0.1,0.1-0.2l0.8-0.9c0.1-0.1,0.1-0.1,0.1-0.2V6.5c0-0.1,0-0.2-0.1-0.2l-0.8-0.8
			c-0.1-0.1-0.1-0.2-0.1-0.2c0-0.1,0.1-0.1,0.2-0.1h2.6c0.1,0,0.1,0.1,0.1,0.2v0.9h0.1c0.4-0.5,0.9-1.1,1.5-1.1
			c0.9,0,1.5,1.4,1.5,2.3c0,0.1,0,0.2-0.1,0.2c-0.1,0-0.2-0.1-0.2-0.2c-0.3-0.7-0.8-1-1.4-1c-0.8,0-1.3,1.1-1.3,2.5V18.8z"/>
		<path fill="#1B2B79" d="M43.2,18.8c0,0.1,0,0.2,0.1,0.2l0.8,0.9c0.1,0.1,0.1,0.1,0.1,0.2c0,0.1-0.1,0.1-0.2,0.1h-3.6
			c-0.1,0-0.2,0-0.2-0.1c0-0.1,0.1-0.1,0.1-0.2l0.8-0.9c0.1-0.1,0.1-0.1,0.1-0.2V1.3c0-0.1,0-0.2-0.1-0.2l-0.8-0.8
			c-0.1-0.1-0.1-0.1-0.1-0.2C40.3,0,40.4,0,40.5,0h2.6c0.1,0,0.1,0.1,0.1,0.2V18.8z"/>
		<path fill="#1B2B79" d="M47.2,14.4c0,3.4,0.5,4.7,1.7,4.7c0.9,0,1.3-0.4,1.9-1.3c0.1-0.1,0.1-0.1,0.2-0.1s0.1,0.1,0.1,0.2
			c-0.3,1.3-1.2,2.4-2.5,2.4c-2.5,0-3.5-2.4-3.5-8.5c0-4.1,1.2-6.5,3.1-6.5c1.6,0,2.9,1.1,2.9,5.1V12c0,0.2-0.1,0.3-0.2,0.3h-3.6
			V14.4z M49.2,11.3V8.6c0-1.4-0.4-2.2-1-2.2c-0.7,0-1,0.8-1,2.2v2.7H49.2z"/>
		<path fill="#1B2B79" d="M57.2,10.6c0,0.1-0.1,0.2-0.2,0.2c-0.1,0-0.1-0.1-0.2-0.2c-0.2-0.8-0.4-1.6-0.8-2.8
			c-0.4-0.9-0.7-1.3-1.2-1.3c-0.6,0-0.7,0.6-0.7,1.5c0,1.1,0.6,2.7,1.6,4.4c1,1.6,1.8,3.5,1.8,5.3c0,1.7-1.2,2.7-2.3,2.7
			c-0.8,0-1.2-0.4-1.6-0.9l-0.7,0.7c-0.1,0.1-0.2,0.1-0.3,0.1c-0.1,0-0.1-0.1-0.1-0.2v-5.2c0-0.1,0-0.2,0.1-0.2
			c0.1,0,0.1,0.1,0.2,0.2c0.4,2.2,1.1,4.2,2.1,4.2c0.6,0,0.9-0.5,0.9-1.2c0-1.7-0.9-3.5-1.7-4.9c-1-1.6-1.5-3.3-1.5-4.9
			c0-1.8,1.1-2.9,2.1-2.9c0.6,0,1.1,0.3,1.6,0.9l0.8-0.7c0.1-0.1,0.1-0.2,0.2-0.2c0.1,0,0.1,0.1,0.1,0.3V10.6z"/>
		<path fill="#1B2B79" d="M63.7,10.6c0,0.1-0.1,0.2-0.2,0.2c-0.1,0-0.1-0.1-0.2-0.2c-0.2-0.8-0.4-1.6-0.8-2.8
			c-0.4-0.9-0.7-1.3-1.2-1.3c-0.6,0-0.7,0.6-0.7,1.5c0,1.1,0.6,2.7,1.6,4.4c1,1.6,1.8,3.5,1.8,5.3c0,1.7-1.2,2.7-2.3,2.7
			c-0.8,0-1.2-0.4-1.6-0.9l-0.7,0.7c-0.1,0.1-0.2,0.1-0.3,0.1c-0.1,0-0.1-0.1-0.1-0.2v-5.2c0-0.1,0-0.2,0.1-0.2
			c0.1,0,0.1,0.1,0.2,0.2c0.4,2.2,1.1,4.2,2.1,4.2c0.6,0,0.9-0.5,0.9-1.2c0-1.7-0.9-3.5-1.7-4.9c-1-1.6-1.5-3.3-1.5-4.9
			c0-1.8,1.1-2.9,2.1-2.9c0.6,0,1.1,0.3,1.6,0.9l0.8-0.7c0.1-0.1,0.1-0.2,0.2-0.2c0.1,0,0.1,0.1,0.1,0.3V10.6z"/>
		<path fill="#1B2B79" d="M65.8,6.4c0-0.1,0-0.2-0.1-0.2L65,5.6c-0.1-0.1-0.1-0.2-0.1-0.2c0-0.1,0.1-0.1,0.2-0.1h2.6
			c0.1,0,0.1,0.1,0.1,0.2v0.8h0.1c0.5-0.5,1-0.9,1.8-0.9c1.2,0,2.5,0.7,2.5,6.7c-0.1,7.6-1.3,8.3-2.5,8.3c-0.9,0-1.3-0.5-1.8-1h-0.1
			v3.1c0,0.1,0,0.2,0,0.2l0.8,0.9c0.1,0.1,0.1,0.1,0.1,0.2c0,0.1-0.1,0.1-0.2,0.1H65c-0.1,0-0.2,0-0.2-0.1c0-0.1,0-0.1,0.1-0.2
			l0.8-0.9c0.1,0,0.1-0.1,0.1-0.2V6.4z M67.7,17.1c0,1.1,0.7,2,1.3,2s0.9-0.6,0.9-7.1c0-5-0.3-5.6-1-5.6c-0.4,0-1.2,0.7-1.2,2V17.1z
			"/>
		<path fill="#1B2B79" d="M75.8,18.8c0,0.1,0,0.2,0.1,0.2l0.8,0.9c0.1,0.1,0.1,0.1,0.1,0.2c0,0.1-0.1,0.1-0.2,0.1H73
			c-0.1,0-0.2,0-0.2-0.1c0-0.1,0.1-0.1,0.1-0.2l0.8-0.9c0.1-0.1,0.1-0.1,0.1-0.2V1.3c0-0.1,0-0.2-0.1-0.2L73,0.3
			c-0.1-0.1-0.1-0.1-0.1-0.2C72.9,0,72.9,0,73,0h2.6c0.1,0,0.1,0.1,0.1,0.2V18.8z"/>
		<path fill="#1B2B79" d="M83.4,18.4c0,0.4,0.1,0.7,0.4,0.7c0.3,0,0.6-0.1,0.8-0.5c0.1-0.1,0.1-0.1,0.1-0.1c0.1,0,0.1,0.1,0.1,0.1
			c-0.1,0.8-0.7,1.6-1.4,1.6c-0.8,0-1.3-0.5-1.6-1c-0.4,0.5-1.1,1-1.9,1c-1.1,0-2.3-0.7-2.3-4.4c0-3,0.5-3.8,3.4-6.2
			c0.5-0.4,0.5-0.7,0.5-1.8c0-1.2-0.3-1.5-1.1-1.5c-0.8,0-1.9,0.6-2.4,1.1c-0.1,0.1-0.1,0.1-0.2,0.1c-0.1,0-0.1-0.1-0.1-0.1
			c0-0.3,1.5-2.2,3-2.2c1,0,2.7,0.6,2.7,3.4V18.4z M81.5,10.4L81.5,10.4c-1.5,1.3-2,2.2-2,5c0,3.1,0.3,3.7,0.9,3.7s1.1-0.8,1.1-1.6
			V10.4z"/>
		<path fill="#1B2B79" d="M87.8,6.2L87.8,6.2c0.5-0.5,1-0.9,1.9-0.9c1.3,0,2.2,0.9,2.2,2.8v10.8c0,0.1,0,0.2,0.1,0.2l0.8,0.9
			c0.1,0.1,0.1,0.1,0.1,0.2c0,0.1-0.1,0.1-0.2,0.1h-3.6c-0.1,0-0.2,0-0.2-0.1c0-0.1,0.1-0.1,0.1-0.2L90,19c0.1-0.1,0.1-0.1,0.1-0.2
			V8c0-1-0.3-1.6-0.9-1.6c-0.6,0-1.3,0.9-1.3,2.3v10c0,0.1,0,0.2,0,0.2l0.8,0.9c0.1,0.1,0.1,0.1,0.1,0.2c0,0.1-0.1,0.1-0.2,0.1H85
			c-0.1,0-0.2,0-0.2-0.1c0-0.1,0-0.1,0.1-0.2l0.8-0.9c0.1-0.1,0.1-0.1,0.1-0.2V6.5c0-0.1,0-0.2-0.1-0.2L85,5.6
			c-0.1-0.1-0.1-0.2-0.1-0.2c0-0.1,0.1-0.1,0.2-0.1h2.6c0.1,0,0.1,0.1,0.1,0.2V6.2z"/>
	</g>
</g>
</svg>
