<?xml version="1.0" encoding="utf-8"?>
<!-- Generator: Adobe Illustrator 19.1.0, SVG Export Plug-In . SVG Version: 6.00 Build 0)  -->
<svg version="1.0" id="レイヤー_1" xmlns="http://www.w3.org/2000/svg" xmlns:xlink="http://www.w3.org/1999/xlink" x="0px"
	 y="0px" viewBox="0 0 62 21" enable-background="new 0 0 62 21" xml:space="preserve">
<g>
	<g>
		<path fill="#1B2B79" d="M6.5,6.9c0,0.1-0.1,0.2-0.2,0.2C6.2,7.1,6.1,7,6.1,6.8C5.8,4.6,5,1.3,3.6,1.3c-1.2,0-1.4,2.6-1.4,8.3
			c0,8.1,0.6,9.3,1.8,9.3c1.5,0,2.1-5,2.1-5.2c0-0.1,0.1-0.2,0.2-0.2s0.2,0.1,0.2,0.2c0,4-0.6,6.5-3,6.5C0.4,20.2,0,14.1,0,9.6
			C0,6.3,0.1,0,3.5,0c0.4,0,0.9,0.2,1.3,0.6C5,0.7,5.1,0.7,5.3,0.7s0.3-0.1,0.5-0.3C5.9,0.2,6.2,0,6.3,0c0.2,0,0.2,0.2,0.2,0.5V6.9z
			"/>
		<path fill="#1B2B79" d="M14.2,12.1c0,6.7-1.5,8.2-3.2,8.2c-1.7,0-3.2-1.5-3.2-8.2c0-5.3,1.5-6.9,3.2-6.9
			C12.8,5.2,14.2,6.8,14.2,12.1z M12.1,12.1c0-4.7-0.4-5.7-1.1-5.7c-0.7,0-1.1,1-1.1,5.7c0,6.1,0.4,7,1.1,7
			C11.7,19.1,12.1,18.2,12.1,12.1z"/>
		<path fill="#1B2B79" d="M18,6.2L18,6.2c0.5-0.5,1-0.9,1.9-0.9c1.3,0,2.2,0.9,2.2,2.8v10.8c0,0.1,0,0.2,0.1,0.2l0.8,0.9
			c0.1,0.1,0.1,0.1,0.1,0.2c0,0.1-0.1,0.1-0.2,0.1h-3.6c-0.1,0-0.2,0-0.2-0.1c0-0.1,0.1-0.1,0.1-0.2l0.8-0.9
			c0.1-0.1,0.1-0.1,0.1-0.2V8c0-1-0.3-1.6-0.9-1.6c-0.6,0-1.3,0.9-1.3,2.3v10c0,0.1,0,0.2,0,0.2l0.8,0.9c0.1,0.1,0.1,0.1,0.1,0.2
			c0,0.1-0.1,0.1-0.2,0.1h-3.6c-0.1,0-0.2,0-0.2-0.1c0-0.1,0-0.1,0.1-0.2L16,19c0.1-0.1,0.1-0.1,0.1-0.2V6.5c0-0.1,0-0.2-0.1-0.2
			l-0.8-0.8c-0.1-0.1-0.1-0.2-0.1-0.2c0-0.1,0.1-0.1,0.2-0.1h2.6c0.1,0,0.1,0.1,0.1,0.2V6.2z"/>
		<path fill="#1B2B79" d="M26.3,18.1c0,0.6,0.3,1,0.6,1c0.3,0,0.7-0.3,0.8-0.6c0.1-0.1,0.1-0.1,0.2-0.1s0.1,0.1,0.1,0.2
			c-0.2,0.8-0.7,1.7-1.9,1.7c-1.1,0-1.8-0.5-1.8-2.7V6.6c0-0.1,0-0.3-0.1-0.4l-0.8-0.8c-0.1-0.1-0.1-0.1-0.1-0.2
			c0-0.1,0.1-0.2,0.4-0.2c1.2-0.2,1.3-2.3,1.3-3.3c0-0.1,0.1-0.2,0.2-0.2h0.8c0.1,0,0.2,0.1,0.2,0.2v3.1c0,0.1,0,0.2,0.2,0.2h0.6
			c0.1,0,0.2,0.2,0,0.3l-0.6,0.7c-0.1,0.1-0.2,0.3-0.2,0.5V18.1z"/>
		<path fill="#1B2B79" d="M34.5,18.4c0,0.4,0.1,0.7,0.4,0.7c0.3,0,0.6-0.1,0.8-0.5c0.1-0.1,0.1-0.1,0.1-0.1c0.1,0,0.1,0.1,0.1,0.1
			c-0.1,0.8-0.7,1.6-1.4,1.6c-0.8,0-1.3-0.5-1.6-1c-0.4,0.5-1.1,1-1.9,1c-1.1,0-2.3-0.7-2.3-4.4c0-3,0.5-3.8,3.4-6.2
			c0.5-0.4,0.5-0.7,0.5-1.8c0-1.2-0.3-1.5-1.1-1.5c-0.8,0-1.9,0.6-2.4,1.1c-0.1,0.1-0.1,0.1-0.2,0.1c-0.1,0-0.1-0.1-0.1-0.1
			c0-0.3,1.5-2.2,3-2.2c1,0,2.7,0.6,2.7,3.4V18.4z M32.6,10.4L32.6,10.4c-1.5,1.3-2,2.2-2,5c0,3.1,0.3,3.7,0.9,3.7s1.1-0.8,1.1-1.6
			V10.4z"/>
		<path fill="#1B2B79" d="M37,6.5c0-0.1,0-0.2-0.1-0.2l-0.8-0.8C36,5.5,36,5.4,36,5.3c0-0.1,0.1-0.1,0.2-0.1h2.6
			c0.1,0,0.1,0.1,0.1,0.2v13.4c0,0.1,0,0.2,0.1,0.2l0.8,0.9c0.1,0.1,0.1,0.1,0.1,0.2c0,0.1-0.1,0.1-0.2,0.1h-3.6
			c-0.1,0-0.2,0-0.2-0.1c0-0.1,0.1-0.1,0.1-0.2l0.8-0.9c0.1-0.1,0.1-0.1,0.1-0.2V6.5z M38.9,1.4c0,0.7-0.4,1.4-1,1.4
			c-0.6,0-1-0.7-1-1.4c0-0.7,0.4-1.4,1-1.4C38.4,0,38.9,0.7,38.9,1.4z"/>
		<path fill="#1B2B79" d="M43,6.2L43,6.2c0.5-0.5,1-0.9,1.9-0.9c1.3,0,2.2,0.9,2.2,2.8v10.8c0,0.1,0,0.2,0.1,0.2l0.8,0.9
			c0.1,0.1,0.1,0.1,0.1,0.2c0,0.1-0.1,0.1-0.2,0.1h-3.6c-0.1,0-0.2,0-0.2-0.1c0-0.1,0.1-0.1,0.1-0.2l0.8-0.9
			c0.1-0.1,0.1-0.1,0.1-0.2V8c0-1-0.3-1.6-0.9-1.6c-0.6,0-1.3,0.9-1.3,2.3v10c0,0.1,0,0.2,0,0.2l0.8,0.9C44,20,44,20.1,44,20.1
			c0,0.1-0.1,0.1-0.2,0.1h-3.6c-0.1,0-0.2,0-0.2-0.1c0-0.1,0-0.1,0.1-0.2l0.8-0.9c0.1-0.1,0.1-0.1,0.1-0.2V6.5c0-0.1,0-0.2-0.1-0.2
			l-0.8-0.8c-0.1-0.1-0.1-0.2-0.1-0.2c0-0.1,0.1-0.1,0.2-0.1h2.6C43,5.2,43,5.3,43,5.4V6.2z"/>
		<path fill="#1B2B79" d="M51.1,14.4c0,3.4,0.5,4.7,1.7,4.7c0.9,0,1.3-0.4,1.9-1.3c0.1-0.1,0.1-0.1,0.2-0.1s0.1,0.1,0.1,0.2
			c-0.3,1.3-1.2,2.4-2.5,2.4c-2.5,0-3.5-2.4-3.5-8.5c0-4.1,1.2-6.5,3.1-6.5c1.6,0,2.9,1.1,2.9,5.1V12c0,0.2-0.1,0.3-0.2,0.3h-3.6
			V14.4z M53.1,11.3V8.6c0-1.4-0.4-2.2-1-2.2c-0.7,0-1,0.8-1,2.2v2.7H53.1z"/>
		<path fill="#1B2B79" d="M58.8,18.8c0,0.1,0,0.2,0,0.2l0.9,0.9c0.1,0.1,0.1,0.1,0.1,0.2c0,0.1-0.1,0.1-0.2,0.1H56
			c-0.1,0-0.2,0-0.2-0.1c0-0.1,0-0.1,0.1-0.2l0.8-0.9c0.1-0.1,0.1-0.1,0.1-0.2V6.5c0-0.1,0-0.2-0.1-0.2L56,5.6
			c-0.1-0.1-0.1-0.2-0.1-0.2c0-0.1,0.1-0.1,0.2-0.1h2.6c0.1,0,0.1,0.1,0.1,0.2v0.9h0.1c0.4-0.5,0.9-1.1,1.5-1.1
			c0.9,0,1.5,1.4,1.5,2.3c0,0.1,0,0.2-0.1,0.2c-0.1,0-0.2-0.1-0.2-0.2c-0.3-0.7-0.8-1-1.4-1c-0.8,0-1.3,1.1-1.3,2.5V18.8z"/>
	</g>
</g>
</svg>
