<?xml version="1.0" encoding="utf-8"?>
<!-- Generator: Adobe Illustrator 19.1.0, SVG Export Plug-In . SVG Version: 6.00 Build 0)  -->
<svg version="1.0" id="レイヤー_1" xmlns="http://www.w3.org/2000/svg" xmlns:xlink="http://www.w3.org/1999/xlink" x="0px"
	 y="0px" viewBox="0 0 198 197" enable-background="new 0 0 198 197" xml:space="preserve">
<g>
	<g>
		<path fill="#1B2B79" d="M0.9,23.7c15.4,9.5,28.2,7.1,41.1-3.2l1.8,2.3C32.5,31.2,18,37.8,0,26.2L0.9,23.7z M11.9,12.1
			c2.7-4.4,3.9-7.4,5.5-12.1l2.2,1c-1.8,5.9-3.9,9.7-5.4,12.3L11.9,12.1z M21.8,18.9c2.3-3.2,4.6-7.2,6.5-11.8l2.2,1.2
			c-1.3,3.5-3.1,7.2-6.3,12.1L21.8,18.9z"/>
		<path fill="#1B2B79" d="M61,58.9l-1.9,2L32.2,34.5l1.9-2L61,58.9z"/>
		<path fill="#1B2B79" d="M68.7,60.3c-6.2,6.3-12.6,11-23,11l0-2.6c10.4,0.5,17-5.9,21.1-10.1l7.9-8l1.8,1.8L68.7,60.3z M62.6,82.6
			c9.5,6.4,16.9,2.5,23.5-2.1l1,2.4c-6.4,4.3-16.1,10-28.5,0.2l24.9-25.4l1.8,1.8L62.6,82.6z"/>
		<path fill="#1B2B79" d="M88.5,109.3c3.9,3.2,13.3,10.8,22.8,1.1c2.5-2.5,9.4-11.3-0.4-20.9c-6.9,5.9-13.6,11.1-20.9,12.9
			c-4.8,1.2-7.3-0.1-8.4-1.2c-2.9-2.9-1.8-8.8,3-13.7c7.6-7.8,18.9-8.5,27.9,0.3c9.4,9.2,6.3,18.7,0.8,24.3
			c-11.1,11.3-22.1,2.8-26.1-0.4L88.5,109.3z M86.3,89.2c-2.5,2.5-5.5,7.5-2.9,10.1c1.2,1.1,3,1.4,6.1,0.6
			c7.3-1.8,14.6-7.8,19.5-12.2C100.2,80.8,91.6,83.8,86.3,89.2z"/>
		<path fill="#1B2B79" d="M119.8,116.5c-3.4,0-6.7,0.9-8.9,3.2c-5,5.1,1.5,11.6,5.4,15.5c4.7,4.6,9,8,11.4,9.8l-1.8,2.1
			c-3-2.6-7.6-6.6-10.8-9.7c-3.3-3.3-6.5-6.9-7.8-10.2c-1.4-3.6-0.2-7.1,1.9-9.3c3.1-3.1,7.2-3.7,10.3-3.9L119.8,116.5z
			 M144.3,123.2c-4.1-3.1-10.8-5.4-14-6.2l0.2-2.5c3.8,1,5.6,1.8,8.6,3.4c-9.1-8.7-9.6-9.2-14.3-13.5l1.9-1.9
			c2.5,2.5,16.5,16.2,19.3,19L144.3,123.2z M135.4,131.1c1-2.3,1.5-3.9,2.1-6.8l2.1,0.8c-0.3,1.7-0.7,3.8-2,6.8L135.4,131.1z
			 M140.2,132.7c1.1-2.6,1.6-4.2,2-6.6l2.1,0.8c-0.3,2.3-0.9,4.3-1.9,6.5L140.2,132.7z"/>
		<path fill="#1B2B79" d="M127.5,147.7c3.3-1.2,7.8-4.5,9.5-6l1.3,1.6c-1.3,1.1-5.5,4.6-10,6.5L127.5,147.7z M159.2,136.9
			c-4.3,1.2-10.5,2.8-15.2,3.4c1.6,1.4,2.5,2.2,5.1,4.3c0.6-1.5,0.9-2.3,1.2-3.2l1.9,0.6c-0.6,2.9-2.3,6.7-3,8.1l-2.1-1
			c0.5-0.8,0.8-1.4,1.4-2.7c-0.6-0.5-1.5-1.2-3.5-2.8l-13.4,13.7l-1.6-1.6l13.3-13.6c-0.8-0.7-4.4-3.9-5.1-4.5l1.2-1.8
			c0.9,0.9,1.7,1.6,2.9,2.8c1-0.1,2.6-0.4,3.8-0.6c0.1-1.4,0-6-0.4-8.9l2.1-0.2c0.1,1.1,0.2,1.5,0.2,2.1c2.9-0.7,6.8-1.7,9.2-2.9
			l1,2.2c-3.7,1.3-7.5,2.3-10.1,2.8c0.1,1.2,0,4,0,4.7c3.5-0.7,7-1.6,10.4-2.7L159.2,136.9z M151.7,177l-1.7-1.6l1.6-1.7l-10.2-10
			l-1.6,1.7l-1.6-1.6l12.9-13.1l13.5,13.2L151.7,177z M138.9,157c2.6-3.4,4.7-8.1,5-8.6l1.9,0.9c-0.7,1.6-2.9,6.3-4.7,8.9L138.9,157
			z M161.5,163.8l-10.2-10l-8.3,8.5l10.2,10L161.5,163.8z M159.9,156l1.3-2.1l3.3,3.3c1.2,1.3,2.2,2.3,10.9-6.1l-6.3-6.2
			c-6,4.6-11,5.7-17.8,4.3l0.2-2.4c2.8,0.8,9,2.1,15.9-3.5l-5.3-5.2l1.5-1.5l14.9,14.6c-2.5,2.5-7.8,7.7-10.1,8.7
			c-2.6,1.2-4,0.5-5.4-1L159.9,156z"/>
		<path fill="#1B2B79" d="M173.1,173.1c-5.9,6-11.5,8.7-19.9,5.4l0.6-2.6c4.9,2.2,10.3,3,17.8-4.7l4.6-4.7l1.7,1.7L173.1,173.1z
			 M168.6,159.1c6.9,3.2,16.9,4.2,23.2,2.7l1.7,1.7c-1.1,7.1,0,15.9,3.7,23.1l-2.6,0.9c-3.2-7.4-4.3-16.1-3.3-23.2
			c-6.1,1.2-16.1,0.4-23.3-2.8L168.6,159.1z M171.9,196.9l-1.7-1.7l17.2-17.6l1.7,1.7L171.9,196.9z"/>
	</g>
</g>
</svg>
