<?xml version="1.0" encoding="utf-8"?>
<!-- Generator: Adobe Illustrator 19.1.0, SVG Export Plug-In . SVG Version: 6.00 Build 0)  -->
<svg version="1.0" id="レイヤー_1" xmlns="http://www.w3.org/2000/svg" xmlns:xlink="http://www.w3.org/1999/xlink" x="0px"
	 y="0px" viewBox="0 0 153 136" enable-background="new 0 0 153 136" xml:space="preserve">
<g>
	<g>
		<path fill="#1B2B79" d="M45.2,22.9l-0.7-0.7l0.7-0.7l-6.7-6.7l-0.7,0.7l-0.7-0.7l4.7-4.7l8,8.1L45.2,22.9z M48.6,18L42,11.3
			l-2.9,2.8l6.7,6.7L48.6,18z M51.5,19.2c-1.6-2-3.1-4.5-3.8-6.9c-3.2-1.3-5.5-2.8-6.8-3.7l0.3-1c1,0.8,3,2.4,6.2,3.7
			c-0.5-1.8-0.5-3.2-0.5-3.8c-1.7-0.3-2.9-0.9-3.5-1.2l0.2-0.9c4,2,6.4,1.4,7.3,1.1l0.7,0.9C51,7.5,50.7,7.6,50,7.6l5,5l-0.5,0.5
			c-2.1,0.4-4.2,0-5.8-0.5c1.1,3.2,3,5.3,3.7,6.1L51.5,19.2z M48.9,7.7c-0.3,0-0.6,0-1.3-0.1c0.2,2.2,0.5,3.5,0.7,4.1
			c2.6,0.9,4.4,0.8,5.2,0.7L48.9,7.7z"/>
		<path fill="#1B2B79" d="M49.4,24.9c7.5,5.8,13.4,1.2,15.1-0.2l-8.6-8.6l0.7-0.7l8.1,8.2c0-0.1,0.1-0.2,0.3-0.3
			c0.7-0.7,1.8-0.7,2.5,0c0.7,0.7,0.7,1.8,0,2.5c-0.6,0.6-1.7,0.7-2.5,0c-2.5,1.8-8.1,5.8-16,0.1L49.4,24.9z M65.6,23.8
			c-0.4,0.4-0.4,1,0,1.4c0.4,0.4,1.1,0.4,1.4,0c0.4-0.4,0.4-1,0-1.4C66.6,23.4,66,23.4,65.6,23.8z"/>
		<path fill="#1B2B79" d="M74.7,37.9C68.9,42.5,64.6,40.7,60,37l0.5-0.9c3.8,3.1,7.6,5.3,12.7,1.7l-8.8-8.8l0.7-0.7L74.7,37.9z
			 M76.9,34.2l-0.7,0.7l-8-8l0.7-0.7L76.9,34.2z"/>
		<path fill="#1B2B79" d="M70.3,45.1c3.6,3.5,9.3,5.5,16.6,1.8l0.4,1c-1.7,0.8-5.2,2.4-9.5,1.9c-3-0.3-5.8-1.6-8-3.7L70.3,45.1z
			 M79.8,42.9c-0.3-1.8-1.2-4-2-5.5l1.1-0.3c0.6,1.2,1.6,3.4,2.1,5.5L79.8,42.9z"/>
		<path fill="#1B2B79" d="M91.3,48.3c-1.4,0.9-3.3,2.1-6.1,4.9c-2.8,2.7-3.6,4.1-4,4.7l-0.9-0.7c0.7-1,1.8-2.4,4-4.7
			c1.9-1.9,4-3.7,6.3-5.2L91.3,48.3z M89.2,56.7c-1.5,0.3-2.3,1-2.4,1.2c-1.3,1.3,0.1,2.9,1.4,4.3c0.2,0.2,1.9,1.9,2.9,2.6l-0.8,0.8
			c-0.7-0.6-1.3-1.2-2.2-2.1c-1.5-1.5-4.1-4.1-1.9-6.3c0.5-0.5,1.3-1,2.7-1.4L89.2,56.7z M98.1,57.2l-0.7,0.7l-5.6-5.6l0.7-0.7
			L98.1,57.2z"/>
		<path fill="#1B2B79" d="M94.7,66.5c-0.5,0.7-1.8,2.7,0.6,5.2l5.8,5.9l-0.7,0.5l-5.7-5.7c-2.2-2.2-1.7-4.1-1.5-4.9
			c-1.1,0.2-3,0.3-3.8,0.2l0.2-1c1.8,0.1,2.8,0.1,3.5,0l3.4-3.3L95,61.7l0.6-0.6l2.2,2.3L94.7,66.5z M105.4,63.9
			c0.4-0.2,0.5-0.2,1.7-0.8l0.6,0.9c-0.3,0.1-1.4,0.6-1.6,0.7l3.3,3.3l-3.1,3.1l-5.7-5.7l-1.4,1.4l5.9,5.9l-3.1,3.1l-6.5-6.6
			l7.6-7.6L105.4,63.9z M103.8,72.5l-5.2-5.3l-1.9,1.9l5.2,5.3L103.8,72.5z M100.3,61c0-1.5-0.1-2.6-0.2-3.9l0.8-0.1
			c0.1,0.4,0.4,2.6,0.4,3.9L100.3,61z M108.1,67.8l-5-5.1l-1.9,1.9l5,5.1L108.1,67.8z"/>
		<path fill="#1B2B79" d="M113.2,69.4l0.6,0.6l-2.2,2.2l2.5,2.5c-5.5,5.4-7.3,7-8.5,7.5c-0.7,0.3-1.3,0.2-2-0.5l-1.2-1.2l0.6-0.8
			l1.3,1.4c0.4,0.4,0.7,0.4,1.4,0c1.4-0.8,3.2-2.5,7.2-6.4l-1.9-1.9c-4.2,4.2-7.5,5.8-10.7,5.7l0-1c2.9,0.1,5.7-1,10-5.3l-2.1-2.1
			l0.6-0.6l2.1,2.1L113.2,69.4z M120.6,78.6l-10.1,10l-0.7-0.7l1.1-1.1l-2.8-2.8l-1.1,1.1l-0.6-0.6l10.1-10L120.6,78.6z M119.4,78.5
			l-2.8-2.8l-7.8,7.8l2.8,2.8L119.4,78.5z"/>
		<path fill="#1B2B79" d="M120.4,92.3l-4.6-4.6l-0.7,0.7l-0.6-0.6l5.7-5.7l5.2,5.2L120.4,92.3z M124.2,87.3l-3.9-4l-3.7,3.7l3.9,4
			L124.2,87.3z M121.1,97.2c-0.7,0.7-1.4,0.7-2.1,0l-2.2-2.2l0.6-0.8l2.2,2.2c0.3,0.3,0.4,0.4,0.9,0l8.7-8.6l-8.6-8.7l0.6-0.6
			l10.9,11l-0.6,0.6l-1.6-1.6L121.1,97.2z"/>
		<path fill="#1B2B79" d="M133.4,97.7l-6.1,6.1c-0.6,0.6-1.1,0.6-1.7,0l-1.2-1.2l0.6-0.8l1.2,1.3c0.3,0.3,0.5,0.1,0.6,0l1.8-1.8
			l-3.1-3.1l-2.7,2.7l-0.6-0.6l7-6.9L133.4,97.7z M130.4,99.4l-3.1-3.1l-1.3,1.3l3.1,3.1L130.4,99.4z M132.2,97.7l-3.1-3.1l-1.2,1.2
			l3.1,3.1L132.2,97.7z M133.8,101.2l-1.9,1.9c0.6,0.4,2.4,1.5,4.7,1.9l-0.1,1c-1.9-0.3-4.1-1.5-5.2-2.3l-1.5,1.5
			c-0.4,0.4-0.5,0.5,0.1,1.1l2.2,2.2c0.3,0.3,0.5,0.3,0.7,0.2c0.2-0.1,1-0.6,1.8-1.4l0.5,0.8c-2.1,1.7-2.5,2.1-3.6,1l-2.3-2.3
			c-0.3-0.3-1.1-1.1-0.2-2l4.3-4.2L133.8,101.2z M135.8,93.3c-0.1,1.1-0.4,3-0.7,4.3l-0.9-0.2c0.1-0.3,0.2-0.6,0.3-1.3
			c-0.6-0.5-1.1-0.9-5-4.1l0.6-0.7c0.1,0.2,0.7,0.6,0.8,0.8c0.9-0.3,2.3-0.9,3.4-1.4l0.5,0.8c-0.5,0.2-2.8,1-3.3,1.1
			c2,1.8,2.3,2,3.1,2.6c0.2-1.2,0.3-1.7,0.3-2.2L135.8,93.3z M139.4,95.7l-2,2c0.8,0.5,2.9,1.6,4.8,1.9l-0.1,1
			c-1.8-0.4-4.1-1.6-5.2-2.3l-1.6,1.6c-0.2,0.2-0.4,0.4,0,0.9l2.3,2.3c0.4,0.4,0.6,0.6,2.4-1l0.4,0.8c-1.7,1.5-2.3,1.9-3.2,1
			l-2.6-2.6c-0.8-0.8-0.6-1.3-0.1-1.9l4.3-4.3L139.4,95.7z"/>
		<path fill="#1B2B79" d="M146.7,103.5c-0.8,0.5-1.4,1-2,1.4l2.8,2.8l-0.7,0.7l-3-3c-3.7,2.3-6.4,3.6-8.9,4.2l-0.3-1.1
			c3.5-0.7,6.7-2.7,8.5-3.8l-2.3-2.3l0.7-0.7l2.4,2.5c0.9-0.6,1.5-1.1,2-1.5L146.7,103.5z M151.3,112.8c-0.3-0.3-0.4-0.5-0.8-0.9
			c-1-1-1.4-1.3-1.8-1.7l-4.1,4.2c0.6,1.4,0.9,3.3,0.8,4.8l-1.1,0.1c0.2-1.9-0.2-3.3-0.4-4.2l-0.7,0.7c-0.7,0.7-1,1-1.5,1.2
			c-1.5,0.6-2.8-0.7-3.2-1.1c-2-2-1.6-3.9-0.6-4.9c0.8-0.8,2.8-1.5,5,0.7c0.8,0.8,1.1,1.3,1.3,1.7l4.4-4.6c1.7,1.3,3,2.6,3.6,3.2
			L151.3,112.8z M143.5,114.2c-0.2-0.4-0.5-1-1.3-1.8c-1.5-1.5-2.9-1.4-3.7-0.6c-1.5,1.4,0.3,3.2,0.6,3.5c1.5,1.5,2.4,0.8,3.5-0.2
			L143.5,114.2z"/>
		<path fill="#1B2B79" d="M0.1,6.3c3.4,1.2,8.6,1.2,12.2,0.5l-6-6.1L7,0l6.1,6.1l2.2-2.2L16,4.7l-2.2,2.2L17,10l-0.7,0.7l-3.1-3.2
			L7,13.7c-1,1-1.8,0.9-2.9-0.2c-0.7-0.7-1.2-1.5-1.5-1.9l0.7-0.8c0.4,0.5,0.9,1.3,1.7,2c0.6,0.6,0.9,0.6,1.4,0.2l5.1-5.1
			C8.1,8.5,3.5,8.5,0,7.3L0.1,6.3z"/>
		<path fill="#1B2B79" d="M11.7,19.5c7.5,5.8,13.4,1.2,15.1-0.2l-8.6-8.6l0.7-0.7l8.1,8.2c0-0.1,0.1-0.2,0.3-0.3
			c0.7-0.7,1.8-0.7,2.5,0c0.7,0.7,0.7,1.8,0,2.5c-0.6,0.6-1.7,0.7-2.5,0c-2.5,1.8-8.1,5.8-16,0.1L11.7,19.5z M27.8,18.4
			c-0.4,0.4-0.4,1,0,1.4c0.4,0.4,1.1,0.4,1.4,0c0.4-0.4,0.4-1,0-1.4C28.9,18,28.2,18,27.8,18.4z"/>
		<path fill="#1B2B79" d="M22.2,29.4c5.9,4.9,10.3,4.4,15.5,1.8l0.3,0.9c-6.1,2.9-10,3.3-16.6-1.8L22.2,29.4z M29,28.4
			c-0.5-2-1-3.2-2-5l1-0.3c0.9,1.5,1.5,2.8,2.1,4.9L29,28.4z M32.8,26.5c-0.2-0.9-0.6-2.3-2-5l0.9-0.3c1.1,1.9,1.7,3.3,2.2,4.9
			L32.8,26.5z"/>
		<path fill="#1B2B79" d="M46.6,41.3l-6.9,6.9l-6.5-6.6l0.6-0.6l5.9,5.9l2.7-2.7l-5.7-5.7l0.6-0.6l5.7,5.7l2.4-2.4l-5.7-5.8l0.6-0.6
			L46.6,41.3z"/>
		<path fill="#1B2B79" d="M43.3,50.5C47,54,52.6,56,59.9,52.3l0.4,1c-1.7,0.8-5.2,2.4-9.5,1.9c-3-0.3-5.8-1.6-8-3.7L43.3,50.5z
			 M52.8,48.3c-0.3-1.8-1.2-4-2-5.5l1.1-0.3c0.6,1.2,1.6,3.4,2.1,5.5L52.8,48.3z"/>
		<path fill="#1B2B79" d="M67.2,56.1c-0.3,0.3-0.6,0.6-1.1,1.1c-1.6,1.6-2.2,2.3-2.5,3.2c1.7,0.9,3.1,1.9,5.4,3.5l-0.7,0.8
			c-1.9-1.5-9.1-7.1-12-4.1c-1.6,1.6-0.2,3.4,2.9,6.5c2,2,3.3,3.1,3.9,3.6l-0.7,0.8c-1.7-1.6-2.9-2.7-3.9-3.7
			c-2.2-2.2-5.3-5.4-2.8-7.9c1.2-1.2,3.5-1.7,7.1,0.1c0.5-1.2,1.5-2.3,1.7-2.5c0.7-0.7,1.8-1.9,2.1-2.1L67.2,56.1z"/>
		<path fill="#1B2B79" d="M81,70.1l0.7,0.7l-2.5,2.5l2.2,2.3l-0.7,0.7l-2.2-2.3l-1.8,1.8c-1.2,1.2-3.5,2.7-6.2,2.2
			c-2.4-0.4-4.3-2-5-2.5l0.5-1c0.6,0.6,2.4,2.1,4.8,2.5c2.7,0.5,5.1-1.8,5.2-1.9l1.8-1.8L73,68.4l-3.5,3.5l-0.7-0.7l3.5-3.5
			l-2.2-2.2l0.7-0.7l2.2,2.2l2.4-2.4l0.7,0.7l-2.4,2.4l4.8,4.9L81,70.1z"/>
		<path fill="#1B2B79" d="M89.7,88.5L89,89.2L78.4,78.6l0.8-0.8L89.7,88.5z"/>
		<path fill="#1B2B79" d="M96.3,86.2l-4.1,4c2.2,1.4,5.6,3.3,9.2,4.3l-0.1,1.1c-3.2-0.7-7.8-3.3-9.8-4.7l-3,3c-1,1-1.1,1.2,0.8,3.1
			l3.1,3.2c0.8,0.8,2,1.9,2.9,2.6l-0.7,0.8c-0.8-0.6-2.3-2.1-3-2.8l-3.1-3.1c-2.2-2.3-2.2-3.1-0.8-4.5l7.8-7.8L96.3,86.2z
			 M102.1,94.5c0.1-0.4,0.5-1.3,0.8-2.5l0.8,0.3c-0.1,0.8-0.4,1.7-0.7,2.5L102.1,94.5z M103.9,95.6c0.1-0.2,0.5-1.4,0.7-2.5l0.9,0.3
			c-0.1,0.9-0.3,1.6-0.7,2.4L103.9,95.6z"/>
		<path fill="#1B2B79" d="M95.9,104.3c3.4,1.3,9.4,2.4,15.8-0.7l-7-7l0.7-0.7l7.9,7.9c-2.3,1.3-4.8,2.2-7.5,2.5
			c0.1,0.8,0.5,4.1,0.4,8.2l-1.2,0c0.1-2.3,0-6.2-0.3-8c-3.1,0.3-6.2-0.1-9.1-1.2L95.9,104.3z"/>
		<path fill="#1B2B79" d="M122.1,110.8l-1.8,1.8l4.6,4.6l-8.1,8c-0.9,0.9-1.2,0.9-2,0.1l-2-2l0.5-0.8l2,2.1c0.3,0.3,0.4,0.3,0.7,0
			l7.6-7.5l-3.9-3.9c-1.1,1.3-2.4,3.6-1.7,8.9l-1,0c-0.3-2.7-0.2-5.6,1.1-8c-2.3,1.3-4.1,1.8-8.2,0.8l0.2-1c4.5,1.6,7.2-0.3,8.8-1.5
			l-3.9-3.9l-8.6,8.5l-0.7-0.7l9.2-9.1l4.6,4.6l1.8-1.8L122.1,110.8z"/>
		<path fill="#1B2B79" d="M125.2,136l-0.7-0.7l0.6-0.6l-6.3-6.4l-0.6,0.6l-0.7-0.7l4-4c-0.8-0.3-1.5-0.7-1.9-0.9l0.2-0.9
			c2.6,1.4,6.1,2.7,8.2,2.3l0.7,0.7c-0.3,2.1,0.6,5.1,2.2,8.1l-0.9,0.3c-0.3-0.6-0.6-1.1-0.9-1.9L125.2,136z M128.1,131.8l-6.3-6.4
			l-2.4,2.4l6.3,6.4L128.1,131.8z M129.1,131.6c-0.6-1.5-0.8-2.6-0.9-3c-0.3-1.6-0.2-2.4-0.2-2.9c-2.3,0.2-5.4-1-6-1.2L129.1,131.6z
			 M123,120.7c1.3,0.6,3,1.2,5.1,1.1l0.2,0.8c-2.3,0.2-4.6-0.7-5.4-1L123,120.7z M132.7,121.5l-1.1,1.1l4.8,4.8l-2.5,2.5l-0.7-0.7
			l1.9-1.9l-9-9l-1.9,1.9l-0.7-0.7l2.5-2.5l4.8,4.8l1.1-1.1L132.7,121.5z M131.8,125.5c0,1.9,0.4,3.4,1,5.2l-0.9,0.1
			c-0.8-2.7-0.9-4.4-0.9-5.4L131.8,125.5z"/>
	</g>
</g>
</svg>
